//Event file generated from Sappy .s format.
	#include "MPlayDef.event"

	#define	B1EndingMedley_grp  voicegroup000
	#define	B1EndingMedley_pri  0
	#define	B1EndingMedley_rev  0
	#define	B1EndingMedley_mvl  95
	#define	B1EndingMedley_key  0
	#define	B1EndingMedley_tbs  1
	#define	B1EndingMedley_exg  0
	#define	B1EndingMedley_cmp  1

	// .rodata
	//	B1EndingMedley
	ALIGN 4


//**************** Track 1 (Midi-Chn.0) ****************//

B1EndingMedley_001:
// 000   ----------------------------------------
 BYTE   KEYSH   B1EndingMedley_key+0
 BYTE   TEMPO   60*B1EndingMedley_tbs/2
 BYTE   W06
 BYTE   VOICE   41
 BYTE   VOL   60*B1EndingMedley_mvl/mxv
 BYTE   PAN   c_v-14
 BYTE   N03  Fn3  v104
 BYTE   W04
 BYTE   Fn3  v092
 BYTE   W04
 BYTE   As3
 BYTE   W04
 BYTE   N20  Dn4  v096
 BYTE   W24
 BYTE   N03  Fn3  v104
 BYTE   W04
 BYTE   Fn3  v092
 BYTE   W04
 BYTE   As3
 BYTE   W04
 BYTE   N15  Dn4  v096
 BYTE   W18
 BYTE   N03  As3
 BYTE   W06
 BYTE   Fn3
 BYTE   W06
 BYTE   As3
 BYTE   W06
 BYTE   N16  Dn4
 BYTE   W06
// 001   ----------------------------------------
 BYTE   W12
 BYTE   N03  As3
 BYTE   W06
 BYTE   Fn3
 BYTE   W06
 BYTE   As3
 BYTE   W06
 BYTE   N56  Cn4
 BYTE   W60
 BYTE   VOL   65*B1EndingMedley_mvl/mxv
 BYTE   N05  Cn3  v104
 BYTE   W06
// 002   ----------------------------------------
Label_0_010993E4:
 BYTE   W03
 BYTE   N02  Cn3  v092
 BYTE   W03
 BYTE   N10  Fn3  v104
 BYTE   W12
 BYTE   Gn3
 BYTE   W12
 BYTE   An3
 BYTE   W12
 BYTE   N05  As3
 BYTE   W06
 BYTE   An3
 BYTE   W06
 BYTE   N05
 BYTE   W06
 BYTE   Gn3
 BYTE   W06
 BYTE   Fn3
 BYTE   W09
 BYTE   N02  En3  v092
 BYTE   W03
 BYTE   N10  Fn3  v104
 BYTE   W12
 BYTE   N05  Cn3
 BYTE   W06
 BYTE   PEND 
// 003   ----------------------------------------
Label_0_01099408:
 BYTE   W03
 BYTE   N02  Cn3  v092
 BYTE   W03
 BYTE   N10  Fn3  v104
 BYTE   W12
 BYTE   Gn3
 BYTE   W12
 BYTE   An3
 BYTE   W12
 BYTE   N05  Gn3
 BYTE   W06
 BYTE   An3
 BYTE   W06
 BYTE   Bn3
 BYTE   W06
 BYTE   Cn4
 BYTE   W06
 BYTE   Dn4
 BYTE   W09
 BYTE   N02  En4  v092
 BYTE   W03
 BYTE   N10  Cn4  v104
 BYTE   W12
 BYTE   N05  Cn3
 BYTE   W06
 BYTE   PEND 
 BYTE   PATT
  POIN2 Label_0_010993E4
 BYTE   PATT
  POIN2 Label_0_01099408
// 004   ----------------------------------------
 BYTE   W03
 BYTE   N02  Cn3  v092
 BYTE   W03
 BYTE   N23  Dn3  v104
 BYTE   W30
 BYTE   N05
 BYTE   W06
 BYTE   En3
 BYTE   W09
 BYTE   N02  Dn3  v092
 BYTE   W03
 BYTE   N03  Cn3  v108
 BYTE   W06
 BYTE   N02  Fn3  v112
 BYTE   W03
 BYTE   An3  v092
 BYTE   W03
 BYTE   N17  Cn4  v116
 BYTE   W18
 BYTE   N03  Cn4  v124
 BYTE   W06
 BYTE   N05  As3
 BYTE   W06
// 005   ----------------------------------------
 BYTE   W03
 BYTE   N02  An3  v108
 BYTE   W03
 BYTE   N05  Gn3  v124
 BYTE   W06
 BYTE   An3
 BYTE   W06
 BYTE   N17  As3
 BYTE   W18
 BYTE   N05  Gn3
 BYTE   W06
 BYTE   An3
 BYTE   W09
 BYTE   N02  As3  v104
 BYTE   W03
 BYTE   N32  Cn4  v124
 BYTE   W36
 BYTE   N05  Cn3  v104
 BYTE   W06
 BYTE   PATT
  POIN2 Label_0_010993E4
 BYTE   PATT
  POIN2 Label_0_01099408
 BYTE   PATT
  POIN2 Label_0_010993E4
 BYTE   PATT
  POIN2 Label_0_01099408
// 006   ----------------------------------------
 BYTE   W03
 BYTE   N02  Cn3  v092
 BYTE   W03
 BYTE   N21  Dn3  v104
 BYTE   W30
 BYTE   N05
 BYTE   W06
 BYTE   En3
 BYTE   W09
 BYTE   N02  Dn3  v092
 BYTE   W03
 BYTE   N21  Dn3  v104
 BYTE   W24
 BYTE   Cs3
 BYTE   W18
// 007   ----------------------------------------
 BYTE   W06
 BYTE   Dn3
 BYTE   W30
 BYTE   N05
 BYTE   W06
 BYTE   En3
 BYTE   W09
 BYTE   N02  Dn3  v092
 BYTE   W03
 BYTE   N42  Dn3  v104
 BYTE   W42
// 008   ----------------------------------------
 BYTE   W06
 BYTE   Cs3  v084
 BYTE   W48
 BYTE   En3  v092
 BYTE   W42
// 009   ----------------------------------------
 BYTE   W06
 BYTE   N32  Gn3  v108
 BYTE   W36
 BYTE   N05  Dn3  v104
 BYTE   W09
 BYTE   N02  Dn3  v092
 BYTE   W03
 BYTE   N10  Fn3  v104
 BYTE   W12
 BYTE   Gn3
 BYTE   W12
 BYTE   An3
 BYTE   W12
 BYTE   N05  As3
 BYTE   W06
// 010   ----------------------------------------
Label_0_010994D5:
 BYTE   N05  An3  v104
 BYTE   W06
 BYTE   N05
 BYTE   W06
 BYTE   Gn3
 BYTE   W06
 BYTE   Fn3
 BYTE   W09
 BYTE   N02  En3  v092
 BYTE   W03
 BYTE   N10  Fn3  v104
 BYTE   W12
 BYTE   N05  Dn3
 BYTE   W09
 BYTE   N02  Dn3  v092
 BYTE   W03
 BYTE   N10  Fn3  v104
 BYTE   W12
 BYTE   Gn3
 BYTE   W12
 BYTE   An3
 BYTE   W12
 BYTE   N05  Gn3
 BYTE   W06
 BYTE   PEND 
// 011   ----------------------------------------
 BYTE   An3
 BYTE   W06
 BYTE   As3
 BYTE   W06
 BYTE   Gn3
 BYTE   W06
 BYTE   An3
 BYTE   W09
 BYTE   N02  As3  v092
 BYTE   W03
 BYTE   N10  An3  v104
 BYTE   W12
 BYTE   N05  Dn3
 BYTE   W09
 BYTE   N02  Dn3  v092
 BYTE   W03
 BYTE   N10  Fn3  v104
 BYTE   W12
 BYTE   Gn3
 BYTE   W12
 BYTE   An3
 BYTE   W12
 BYTE   N05  As3
 BYTE   W06
 BYTE   PATT
  POIN2 Label_0_010994D5
// 012   ----------------------------------------
 BYTE   N05  An3  v104
 BYTE   W06
 BYTE   Bn3
 BYTE   W06
 BYTE   Cn3
 BYTE   W06
 BYTE   Dn3
 BYTE   W09
 BYTE   N02  En3  v092
 BYTE   W03
 BYTE   N10  Cn3  v104
 BYTE   W12
 BYTE   N05
 BYTE   W09
 BYTE   N02  Cn3  v092
 BYTE   W03
 BYTE   PAN   c_v-14
 BYTE   N17  An2  v104
 BYTE   W18
 BYTE   N01  An2  v108
 BYTE   W03
 BYTE   An2  v092
 BYTE   W03
 BYTE   N07  An2  v104
 BYTE   W08
 BYTE   N07
 BYTE   W08
 BYTE   N07
 BYTE   W02
// 013   ----------------------------------------
 BYTE   W06
 BYTE   N17
 BYTE   W18
 BYTE   N01  An2  v108
 BYTE   W03
 BYTE   An2  v092
 BYTE   W03
 BYTE   N07  An2  v104
 BYTE   W08
 BYTE   N07
 BYTE   W08
 BYTE   N07
 BYTE   W08
 BYTE   N17
 BYTE   W18
 BYTE   N01  An2  v108
 BYTE   W03
 BYTE   An2  v092
 BYTE   W03
 BYTE   N07  An2  v104
 BYTE   W08
 BYTE   N07
 BYTE   W08
 BYTE   N07
 BYTE   W02
// 014   ----------------------------------------
 BYTE   W06
 BYTE   N17
 BYTE   W18
 BYTE   N01  An2  v108
 BYTE   W03
 BYTE   An2  v092
 BYTE   W03
 BYTE   N07  An2  v104
 BYTE   W08
 BYTE   N07
 BYTE   W08
 BYTE   N07
 BYTE   W08
 BYTE   VOICE   41
 BYTE   VOL   65*B1EndingMedley_mvl/mxv
 BYTE   PAN   c_v-14
 BYTE   N17
 BYTE   W18
 BYTE   N01  An2  v108
 BYTE   W03
 BYTE   An2  v092
 BYTE   W03
 BYTE   N07  An2  v104
 BYTE   W08
 BYTE   N07
 BYTE   W08
 BYTE   N07
 BYTE   W02
// 015   ----------------------------------------
 BYTE   W06
 BYTE   N17  Gn2
 BYTE   W18
 BYTE   N01  Gn2  v108
 BYTE   W03
 BYTE   Gn2  v092
 BYTE   W03
 BYTE   N07  Gn2  v104
 BYTE   W08
 BYTE   N07
 BYTE   W08
 BYTE   N07
 BYTE   W08
 BYTE   N17  An2
 BYTE   W18
 BYTE   N01  An2  v108
 BYTE   W03
 BYTE   An2  v092
 BYTE   W03
 BYTE   N07  An2  v104
 BYTE   W08
 BYTE   N07
 BYTE   W08
 BYTE   N07
 BYTE   W02
// 016   ----------------------------------------
 BYTE   W06
 BYTE   N17
 BYTE   W18
 BYTE   N01  An2  v108
 BYTE   W03
 BYTE   An2  v092
 BYTE   W03
 BYTE   N07  An2  v104
 BYTE   W08
 BYTE   N07
 BYTE   W08
 BYTE   N07
 BYTE   W08
 BYTE   VOICE   56
 BYTE   VOL   60*B1EndingMedley_mvl/mxv
 BYTE   PAN   c_v+14
 BYTE   W12
 BYTE   N05  Fn4  v108
 BYTE   W06
 BYTE   Fn4  v096
 BYTE   W06
 BYTE   Cn4  v108
 BYTE   W06
 BYTE   Cn4  v096
 BYTE   W06
 BYTE   Gn3  v108
 BYTE   W06
// 017   ----------------------------------------
 BYTE   Gn3  v096
 BYTE   W12
 BYTE   Fn4
 BYTE   W06
 BYTE   Fn4  v108
 BYTE   W06
 BYTE   Cn4  v096
 BYTE   W06
 BYTE   Cn4  v108
 BYTE   W06
 BYTE   Gn3  v096
 BYTE   W06
 BYTE   Gn3  v108
 BYTE   W06
 BYTE   Cn3  v096
 BYTE   W06
 BYTE   Fn4  v108
 BYTE   W06
 BYTE   Fn4  v096
 BYTE   W06
 BYTE   Cn4  v108
 BYTE   W06
 BYTE   Cn4  v096
 BYTE   W06
 BYTE   Gn3  v108
 BYTE   W06
 BYTE   Gn3  v096
 BYTE   W06
 BYTE   Cn3  v108
 BYTE   W06
// 018   ----------------------------------------
 BYTE   Cn3  v096
 BYTE   W12
 BYTE   Fn4
 BYTE   W06
 BYTE   Fn4  v108
 BYTE   W06
 BYTE   Cn4  v096
 BYTE   W06
 BYTE   Cn4  v108
 BYTE   W06
 BYTE   Gn3  v096
 BYTE   W06
 BYTE   Gn3  v108
 BYTE   W06
 BYTE   Cn3  v096
 BYTE   W06
 BYTE   Cn3  v108
 BYTE   W06
 BYTE   Gn3  v096
 BYTE   W06
 BYTE   Gn3  v108
 BYTE   W06
 BYTE   Cn4  v096
 BYTE   W06
 BYTE   N44  Fn4  v104
 BYTE   W18
// 019   ----------------------------------------
 BYTE   W36
 BYTE   N04  Ds4
 BYTE   W06
 BYTE   N02  Ds4  v044
 BYTE   W03
 BYTE   Ds4  v040
 BYTE   W03
 BYTE   N04  As3  v104
 BYTE   W06
 BYTE   N02  As3  v044
 BYTE   W03
 BYTE   As3  v040
 BYTE   W03
 BYTE   N04  Cn4  v104
 BYTE   W06
 BYTE   N02  Cn4  v044
 BYTE   W03
 BYTE   Cn4  v040
 BYTE   W03
 BYTE   N04  Ds3  v104
 BYTE   W06
 BYTE   N44  Fn3
 BYTE   W18
// 020   ----------------------------------------
 BYTE   W30
 BYTE   N02  Fn3  v068
 BYTE   W03
 BYTE   Fn3  v056
 BYTE   W03
 BYTE   As3  v076
 BYTE   W03
 BYTE   As3  v068
 BYTE   W03
 BYTE   Fn3  v084
 BYTE   W03
 BYTE   Fn3  v076
 BYTE   W03
 BYTE   As3  v092
 BYTE   W03
 BYTE   As3  v084
 BYTE   W03
 BYTE   Fn3  v100
 BYTE   W03
 BYTE   Fn3  v092
 BYTE   W03
 BYTE   As3  v108
 BYTE   W03
 BYTE   As3  v100
 BYTE   W03
 BYTE   Fn3  v116
 BYTE   W03
 BYTE   Fn3  v108
 BYTE   W03
 BYTE   As3  v124
 BYTE   W03
 BYTE   As3  v116
 BYTE   W03
 BYTE   N56  Fn3  v104
 BYTE   W18
// 021   ----------------------------------------
 BYTE   W42
 BYTE   N11
 BYTE   W12
 BYTE   Ds3
 BYTE   W12
 BYTE   Gs3
 BYTE   W12
 BYTE   N56  Fn3
 BYTE   W18
// 022   ----------------------------------------
 BYTE   W42
 BYTE   N11  As3
 BYTE   W12
 BYTE   Gs3
 BYTE   W12
 BYTE   Ds3
 BYTE   W12
 BYTE   N68  Fn3
 BYTE   W18
// 023   ----------------------------------------
 BYTE   W60
 BYTE   N05  As3
 BYTE   W06
 BYTE   Cn4
 BYTE   W06
 BYTE   Ds4
 BYTE   W06
 BYTE   N54  Fn4
 BYTE   W18
// 024   ----------------------------------------
 BYTE   W36
 BYTE   W02
 BYTE   N07  As4
 BYTE   W08
 BYTE   Gs4
 BYTE   W08
 BYTE   Fn4
 BYTE   W08
 BYTE   Ds4
 BYTE   W08
 BYTE   Dn4
 BYTE   W08
 BYTE   N56  As3
 BYTE   W18
// 025   ----------------------------------------
 BYTE   W42
 BYTE   N11  Ds4
 BYTE   W12
 BYTE   Dn4
 BYTE   W12
 BYTE   As3
 BYTE   W12
 BYTE   N56  Fn4
 BYTE   W18
// 026   ----------------------------------------
 BYTE   W42
 BYTE   N11  Ds4
 BYTE   W12
 BYTE   Dn4
 BYTE   W12
 BYTE   As3
 BYTE   W12
 BYTE   N68  Fn3
 BYTE   W18
// 027   ----------------------------------------
 BYTE   W60
 BYTE   N05  As3
 BYTE   W06
 BYTE   Cn4
 BYTE   W06
 BYTE   Ds4
 BYTE   W06
 BYTE   N52  Fn4
 BYTE   W18
// 028   ----------------------------------------
 BYTE   W36
 BYTE   N05  Fn4  v096
 BYTE   W06
 BYTE   Fn4  v104
 BYTE   W06
 BYTE   Cn4  v096
 BYTE   W06
 BYTE   Cn4  v104
 BYTE   W06
 BYTE   Gn3  v096
 BYTE   W06
 BYTE   Gn3  v104
 BYTE   W06
 BYTE   Cn3  v096
 BYTE   W18
 BYTE   Fn4  v108
 BYTE   W06
// 029   ----------------------------------------
 BYTE   Fn4  v096
 BYTE   W06
 BYTE   Cn4  v108
 BYTE   W06
 BYTE   Cn4  v096
 BYTE   W06
 BYTE   Gn3  v108
 BYTE   W06
 BYTE   Gn3  v096
 BYTE   W12
 BYTE   Fn4
 BYTE   W06
 BYTE   Fn4  v108
 BYTE   W06
 BYTE   Cn4  v096
 BYTE   W06
 BYTE   Cn4  v108
 BYTE   W06
 BYTE   Gn3  v096
 BYTE   W06
 BYTE   Gn3  v108
 BYTE   W06
 BYTE   Cn3  v096
 BYTE   W06
 BYTE   Fn4  v108
 BYTE   W06
 BYTE   Fn4  v096
 BYTE   W06
 BYTE   Cn4  v108
 BYTE   W06
// 030   ----------------------------------------
 BYTE   Cn4  v096
 BYTE   W06
 BYTE   Gn3  v108
 BYTE   W06
 BYTE   Gn3  v096
 BYTE   W06
 BYTE   Cn3  v108
 BYTE   W06
 BYTE   Cn3  v096
 BYTE   W12
 BYTE   Fn4
 BYTE   W06
 BYTE   Fn4  v108
 BYTE   W06
 BYTE   Cn4  v096
 BYTE   W06
 BYTE   Cn4  v108
 BYTE   W06
 BYTE   Gn3  v096
 BYTE   W06
 BYTE   Gn3  v108
 BYTE   W06
 BYTE   Cn3  v096
 BYTE   W06
 BYTE   Cn3  v108
 BYTE   W06
 BYTE   Gn3  v096
 BYTE   W06
 BYTE   Gn3  v108
 BYTE   W06
// 031   ----------------------------------------
 BYTE   Cn4  v096
 BYTE   W06
 BYTE   N92  Fn4  v104
 BYTE   W90
// 032   ----------------------------------------
 BYTE   W07
 BYTE   VOICE   56
 BYTE   VOL   60*B1EndingMedley_mvl/mxv
 BYTE   PAN   c_v+25
 BYTE   W03
 BYTE   N02  Gn3
 BYTE   W03
 BYTE   Gn3  v092
 BYTE   W06
 BYTE   Gn3  v104
 BYTE   W03
 BYTE   Gn3  v092
 BYTE   W06
 BYTE   Gn3  v104
 BYTE   W06
 BYTE   N02
 BYTE   W03
 BYTE   Gn3  v092
 BYTE   W06
 BYTE   Gn3  v104
 BYTE   W03
 BYTE   Gn3  v092
 BYTE   W06
 BYTE   Gn3  v104
 BYTE   W06
 BYTE   Fs3
 BYTE   W03
 BYTE   Fs3  v092
 BYTE   W06
 BYTE   Fs3  v104
 BYTE   W03
 BYTE   Fs3  v092
 BYTE   W06
 BYTE   Fs3  v104
 BYTE   W06
 BYTE   N02
 BYTE   W03
 BYTE   Fs3  v092
 BYTE   W06
 BYTE   Fs3  v104
 BYTE   W03
 BYTE   Fs3  v092
 BYTE   W02
// 033   ----------------------------------------
 BYTE   W04
 BYTE   Fs3  v104
 BYTE   W06
 BYTE   Gn3
 BYTE   W03
 BYTE   Gn3  v092
 BYTE   W06
 BYTE   Gn3  v104
 BYTE   W03
 BYTE   Gn3  v092
 BYTE   W06
 BYTE   Gn3  v104
 BYTE   W06
 BYTE   N02
 BYTE   W03
 BYTE   Gn3  v092
 BYTE   W06
 BYTE   Gn3  v104
 BYTE   W03
 BYTE   Gn3  v092
 BYTE   W06
 BYTE   Gn3  v104
 BYTE   W06
 BYTE   Fs3
 BYTE   W03
 BYTE   Fs3  v092
 BYTE   W06
 BYTE   Fs3  v104
 BYTE   W03
 BYTE   Fs3  v092
 BYTE   W06
 BYTE   Fs3  v104
 BYTE   W06
 BYTE   N02
 BYTE   W03
 BYTE   Fs3  v092
 BYTE   W06
 BYTE   Fs3  v104
 BYTE   W03
 BYTE   Fs3  v092
 BYTE   W02
// 034   ----------------------------------------
 BYTE   W04
 BYTE   Fs3  v104
 BYTE   W03
 BYTE   VOICE   56
 BYTE   VOL   60*B1EndingMedley_mvl/mxv
 BYTE   PAN   c_v+14
 BYTE   N05  An3  v108
 BYTE   W06
 BYTE   Gn3  v104
 BYTE   W06
 BYTE   An3
 BYTE   W06
 BYTE   N28  As3
 BYTE   W30
 BYTE   N05  An3  v108
 BYTE   W06
 BYTE   Gn3  v104
 BYTE   W06
 BYTE   An3
 BYTE   W06
 BYTE   N28  As3
 BYTE   W23
// 035   ----------------------------------------
 BYTE   W07
 BYTE   N05  An3  v108
 BYTE   W06
 BYTE   Gn3  v104
 BYTE   W06
 BYTE   An3
 BYTE   W06
 BYTE   N28  As3
 BYTE   W30
 BYTE   N05  Cn4  v108
 BYTE   W06
 BYTE   Dn4  v104
 BYTE   W06
 BYTE   Cn4
 BYTE   W06
 BYTE   As3
 BYTE   W06
 BYTE   An3  v108
 BYTE   W06
 BYTE   Gn3  v104
 BYTE   W06
 BYTE   Fs3
 BYTE   W05
// 036   ----------------------------------------
 BYTE   W01
 BYTE   An3
 BYTE   W06
 BYTE   An3  v108
 BYTE   W06
 BYTE   Gn3  v104
 BYTE   W06
 BYTE   An3
 BYTE   W06
 BYTE   N28  Dn4
 BYTE   W30
 BYTE   N05  An3  v108
 BYTE   W06
 BYTE   Gn3  v104
 BYTE   W06
 BYTE   An3
 BYTE   W06
 BYTE   N28  Dn4
 BYTE   W23
// 037   ----------------------------------------
 BYTE   W07
 BYTE   N05  An3  v108
 BYTE   W06
 BYTE   Gn3  v104
 BYTE   W06
 BYTE   An3
 BYTE   W06
 BYTE   N28  Dn4
 BYTE   W30
 BYTE   N05  Dn4  v108
 BYTE   W06
 BYTE   Ds4  v104
 BYTE   W06
 BYTE   Dn4
 BYTE   W06
 BYTE   Cn4
 BYTE   W06
 BYTE   Dn4  v108
 BYTE   W06
 BYTE   Cn4  v104
 BYTE   W06
 BYTE   As3
 BYTE   W05
// 038   ----------------------------------------
 BYTE   W01
 BYTE   An3
 BYTE   W06
 BYTE   As3  v108
 BYTE   W06
 BYTE   An3  v104
 BYTE   W06
 BYTE   Gn3
 BYTE   W06
 BYTE   N28  Dn3
 BYTE   W30
 BYTE   N05  As3  v108
 BYTE   W06
 BYTE   An3  v104
 BYTE   W06
 BYTE   Gn3
 BYTE   W06
 BYTE   N28  Dn3
 BYTE   W23
// 039   ----------------------------------------
 BYTE   W07
 BYTE   N05  As3  v108
 BYTE   W06
 BYTE   An3  v104
 BYTE   W06
 BYTE   Gn3
 BYTE   W06
 BYTE   N17  Fn3
 BYTE   W18
 BYTE   N11  An3  v096
 BYTE   W12
 BYTE   N05  An3  v108
 BYTE   W06
 BYTE   Gn3  v104
 BYTE   W06
 BYTE   Cn4
 BYTE   W06
 BYTE   As3
 BYTE   W06
 BYTE   An3  v108
 BYTE   W06
 BYTE   Gn3  v104
 BYTE   W06
 BYTE   Fn3
 BYTE   W05
// 040   ----------------------------------------
 BYTE   W01
 BYTE   Ds3
 BYTE   W06
 BYTE   Dn3  v108
 BYTE   W06
 BYTE   Cn3  v104
 BYTE   W06
 BYTE   Gn2
 BYTE   W06
 BYTE   As2
 BYTE   W06
 BYTE   An2  v108
 BYTE   W06
 BYTE   As2  v104
 BYTE   W06
 BYTE   Cn3
 BYTE   W06
 BYTE   As2
 BYTE   W06
 BYTE   Gs2  v108
 BYTE   W06
 BYTE   As2  v104
 BYTE   W06
 BYTE   Cn3
 BYTE   W06
 BYTE   As2
 BYTE   W06
 BYTE   Cn3  v108
 BYTE   W06
 BYTE   Fn3  v104
 BYTE   W06
 BYTE   Gn3
 BYTE   W05
// 041   ----------------------------------------
 BYTE   W01
 BYTE   Fn3
 BYTE   W07
 BYTE   VOICE   56
 BYTE   VOL   60*B1EndingMedley_mvl/mxv
 BYTE   PAN   c_v+14
 BYTE   Fs4
 BYTE   W12
 BYTE   N23  Dn4
 BYTE   W24
 BYTE   Cn4
 BYTE   W24
 BYTE   As3
 BYTE   W24
 BYTE   An3
 BYTE   W04
// 042   ----------------------------------------
Label_0_010998D1:
 BYTE   W20
 BYTE   N23  Dn4  v104
 BYTE   W24
 BYTE   Cn4
 BYTE   W24
 BYTE   As3
 BYTE   W24
 BYTE   An3
 BYTE   W04
 BYTE   PEND 
 BYTE   PATT
  POIN2 Label_0_010998D1
// 043   ----------------------------------------
 BYTE   W20
 BYTE   N23  Dn4  v104
 BYTE   W24
 BYTE   Cn4
 BYTE   W24
 BYTE   As3
 BYTE   W24
 BYTE   N11  An3
 BYTE   W04
// 044   ----------------------------------------
 BYTE   W08
 BYTE   N68  Gn3
 BYTE   W72
 BYTE   N23  Fs3
 BYTE   W16
// 045   ----------------------------------------
 BYTE   W08
 BYTE   VOICE   57
 BYTE   VOL   60*B1EndingMedley_mvl/mxv
 BYTE   PAN   c_v+14
 BYTE   N44  Dn3  v116
 BYTE   W48
 BYTE   En3
 BYTE   W40
// 046   ----------------------------------------
Label_0_01099902:
 BYTE   W08
 BYTE   N30  Gn3  v116
 BYTE   W32
 BYTE   N07  Fn3
 BYTE   W08
 BYTE   Ds3
 BYTE   W08
 BYTE   N44  Dn3
 BYTE   W40
 BYTE   PEND 
// 047   ----------------------------------------
 BYTE   W08
 BYTE   N44
 BYTE   W48
 BYTE   En3  v120
 BYTE   W40
// 048   ----------------------------------------
 BYTE   W08
 BYTE   Gn3
 BYTE   W48
 BYTE   Dn4
 BYTE   W40
// 049   ----------------------------------------
 BYTE   W08
 BYTE   Cs4  v092
 BYTE   W48
 BYTE   Dn4
 BYTE   W40
// 050   ----------------------------------------
 BYTE   W08
 BYTE   En4
 BYTE   W48
 BYTE   N44
 BYTE   W40
// 051   ----------------------------------------
 BYTE   W08
 BYTE   N23  Cs4
 BYTE   W24
 BYTE   Fs4  v104
 BYTE   W24
 BYTE   En4  v096
 BYTE   W24
 BYTE   Bn3  v112
 BYTE   W16
// 052   ----------------------------------------
 BYTE   W08
 BYTE   N44  Bn3  v104
 BYTE   W48
 BYTE   N11  An3
 BYTE   W12
 BYTE   Gs3
 BYTE   W12
 BYTE   Fs3
 BYTE   W12
 BYTE   En3
 BYTE   W04
// 053   ----------------------------------------
 BYTE   W08
 BYTE   N44  Dn3  v116
 BYTE   W48
 BYTE   En3
 BYTE   W40
 BYTE   PATT
  POIN2 Label_0_01099902
// 054   ----------------------------------------
 BYTE   W09
 BYTE   VOICE   62
 BYTE   VOL   30*B1EndingMedley_mvl/mxv
 BYTE   PAN   c_v+14
 BYTE   N11  Gn2  v104
 BYTE   W12
 BYTE   N03  Gn2  v108
 BYTE   W04
 BYTE   Gn2  v092
 BYTE   W04
 BYTE   N03
 BYTE   W04
 BYTE   N11  Gn2  v104
 BYTE   W12
 BYTE   N03  Gn2  v108
 BYTE   W04
 BYTE   Gn2  v092
 BYTE   W04
 BYTE   N03
 BYTE   W04
 BYTE   N11  Gn2  v104
 BYTE   W12
 BYTE   N03  Gn2  v108
 BYTE   W04
 BYTE   Gn2  v092
 BYTE   W04
 BYTE   N03
 BYTE   W04
 BYTE   Gn2  v108
 BYTE   W04
 BYTE   Gn2  v092
 BYTE   W04
 BYTE   N03
 BYTE   W04
 BYTE   Gn2  v108
 BYTE   W03
// 055   ----------------------------------------
Label_0_01099986:
 BYTE   W01
 BYTE   N03  Gn2  v092
 BYTE   W04
 BYTE   N03
 BYTE   W04
 BYTE   N11  Gn2  v104
 BYTE   W12
 BYTE   N03  Gn2  v108
 BYTE   W04
 BYTE   Gn2  v092
 BYTE   W04
 BYTE   N03
 BYTE   W04
 BYTE   N11  Gn2  v104
 BYTE   W12
 BYTE   N03  Gn2  v108
 BYTE   W04
 BYTE   Gn2  v092
 BYTE   W04
 BYTE   N03
 BYTE   W04
 BYTE   N11  Gn2  v104
 BYTE   W12
 BYTE   N03  Gn2  v108
 BYTE   W04
 BYTE   Gn2  v092
 BYTE   W04
 BYTE   N03
 BYTE   W04
 BYTE   Gn2  v108
 BYTE   W04
 BYTE   Gn2  v092
 BYTE   W04
 BYTE   N03
 BYTE   W04
 BYTE   Gn2  v108
 BYTE   W03
 BYTE   PEND 
 BYTE   PATT
  POIN2 Label_0_01099986
 BYTE   PATT
  POIN2 Label_0_01099986
 BYTE   PATT
  POIN2 Label_0_01099986
// 056   ----------------------------------------
 BYTE   W01
 BYTE   N03  Gn2  v092
 BYTE   W04
 BYTE   N03
 BYTE   W04
 BYTE   N11  Cn3  v104
 BYTE   W12
 BYTE   N03  Cn3  v108
 BYTE   W04
 BYTE   Cn3  v092
 BYTE   W04
 BYTE   N03
 BYTE   W04
 BYTE   N11  Cn3  v104
 BYTE   W12
 BYTE   N03  Cn3  v108
 BYTE   W04
 BYTE   Cn3  v092
 BYTE   W04
 BYTE   N03
 BYTE   W04
 BYTE   N11  Cn3  v104
 BYTE   W12
 BYTE   N03  Cn3  v108
 BYTE   W04
 BYTE   Cn3  v092
 BYTE   W04
 BYTE   N03
 BYTE   W04
 BYTE   Cn3  v108
 BYTE   W04
 BYTE   Cn3  v092
 BYTE   W04
 BYTE   N03
 BYTE   W04
 BYTE   Cn3  v108
 BYTE   W03
// 057   ----------------------------------------
 BYTE   W01
 BYTE   Cn3  v092
 BYTE   W04
 BYTE   N02
 BYTE   W04
 BYTE   VOICE   56
 BYTE   VOL   60*B1EndingMedley_mvl/mxv
 BYTE   PAN   c_v+14
 BYTE   N11  Gn4  v104
 BYTE   W12
 BYTE   Fn4
 BYTE   W12
 BYTE   N05  En4
 BYTE   W06
 BYTE   Dn4
 BYTE   W06
 BYTE   Cn4
 BYTE   W06
 BYTE   N11  Dn4
 BYTE   W12
 BYTE   N28  Cn4
 BYTE   W30
 BYTE   VOL   25*B1EndingMedley_mvl/mxv
 BYTE   N11  Gn4
 BYTE   W03
// 058   ----------------------------------------
 BYTE   W09
 BYTE   Fn4
 BYTE   W12
 BYTE   N05  En4
 BYTE   W06
 BYTE   Dn4
 BYTE   W06
 BYTE   Cn4
 BYTE   W06
 BYTE   N11  Dn4
 BYTE   W12
 BYTE   N28  Cn4
 BYTE   W30
 BYTE   VOL   60*B1EndingMedley_mvl/mxv
 BYTE   N11  Gn4
 BYTE   W12
 BYTE   Fn4
 BYTE   W03
// 059   ----------------------------------------
 BYTE   W09
 BYTE   N05  En4
 BYTE   W06
 BYTE   Dn4
 BYTE   W06
 BYTE   Cn4
 BYTE   W06
 BYTE   N11  Dn4
 BYTE   W12
 BYTE   N28  En4
 BYTE   W30
 BYTE   VOL   25*B1EndingMedley_mvl/mxv
 BYTE   N11  Gn4
 BYTE   W12
 BYTE   Fn4
 BYTE   W12
 BYTE   N05  En4
 BYTE   W03
// 060   ----------------------------------------
 BYTE   W03
 BYTE   Dn4
 BYTE   W06
 BYTE   Cn4
 BYTE   W06
 BYTE   N11  Dn4
 BYTE   W12
 BYTE   N28  En4
 BYTE   W30
 BYTE   VOL   60*B1EndingMedley_mvl/mxv
 BYTE   N11  Gn4
 BYTE   W12
 BYTE   Fn4
 BYTE   W12
 BYTE   N05  En4
 BYTE   W06
 BYTE   Dn4
 BYTE   W06
 BYTE   Cn4
 BYTE   W03
// 061   ----------------------------------------
 BYTE   W03
 BYTE   N11  Dn4
 BYTE   W12
 BYTE   N28  Cn4
 BYTE   W30
 BYTE   VOL   25*B1EndingMedley_mvl/mxv
 BYTE   N11  Gn4
 BYTE   W12
 BYTE   Fn4
 BYTE   W12
 BYTE   N05  En4
 BYTE   W06
 BYTE   Dn4
 BYTE   W06
 BYTE   Cn4
 BYTE   W06
 BYTE   N11  Dn4
 BYTE   W09
// 062   ----------------------------------------
 BYTE   W03
 BYTE   N28  Cn4
 BYTE   W30
 BYTE   VOL   60*B1EndingMedley_mvl/mxv
 BYTE   N11  Gn4
 BYTE   W12
 BYTE   Fn4
 BYTE   W12
 BYTE   N05  En4
 BYTE   W06
 BYTE   Dn4
 BYTE   W06
 BYTE   Cn4
 BYTE   W06
 BYTE   N11  Dn4
 BYTE   W12
 BYTE   N28  En4
 BYTE   W09
// 063   ----------------------------------------
 BYTE   W21
 BYTE   VOL   25*B1EndingMedley_mvl/mxv
 BYTE   N11  Gn4
 BYTE   W12
 BYTE   Fn4
 BYTE   W12
 BYTE   N05  En4
 BYTE   W06
 BYTE   Dn4
 BYTE   W06
 BYTE   Cn4
 BYTE   W06
 BYTE   N11  Dn4
 BYTE   W12
 BYTE   N28  En4
 BYTE   W21
// 064   ----------------------------------------
 BYTE   W09
 BYTE   TIE  Gn4
 BYTE   W84
 BYTE   W03
// 065   ----------------------------------------
 BYTE   W96
// 066   ----------------------------------------
 BYTE   W96
// 067   ----------------------------------------
 BYTE   W56
 BYTE   EOT
 BYTE   W02
 BYTE   VOICE   19
 BYTE   VOL   60*B1EndingMedley_mvl/mxv
 BYTE   PAN   c_v+14
 BYTE   N23  Gn3
 BYTE   W24
 BYTE   N07  En3  v096
 BYTE   W08
 BYTE   Fn3  v104
 BYTE   W06
// 068   ----------------------------------------
 BYTE   W02
 BYTE   Gn3  v108
 BYTE   W08
 BYTE   N23  Gn3  v104
 BYTE   W24
 BYTE   N07  En3  v096
 BYTE   W08
 BYTE   Fn3  v104
 BYTE   W08
 BYTE   Gn3  v108
 BYTE   W08
 BYTE   N23  Gn3  v104
 BYTE   W24
 BYTE   N07  En3  v096
 BYTE   W08
 BYTE   Gn3  v104
 BYTE   W06
// 069   ----------------------------------------
 BYTE   W02
 BYTE   Cn4  v108
 BYTE   W08
 BYTE   N32  Ds4  v104
 BYTE   W36
 BYTE   N11  Cn4
 BYTE   W12
 BYTE   N23  En4
 BYTE   W32
 BYTE   N07  Cn4
 BYTE   W06
// 070   ----------------------------------------
 BYTE   W02
 BYTE   Gn3  v108
 BYTE   W08
 BYTE   N32  An3  v104
 BYTE   W36
 BYTE   N11  Bn3
 BYTE   W12
 BYTE   N23  Cn4
 BYTE   W24
 BYTE   An3
 BYTE   W14
// 071   ----------------------------------------
 BYTE   W10
 BYTE   N44  Dn4
 BYTE   W48
 BYTE   N03  Cn4
 BYTE   W06
 BYTE   N02  Gn3  v108
 BYTE   W03
 BYTE   Fn3  v092
 BYTE   W03
 BYTE   N16  En3  v104
 BYTE   W18
 BYTE   N02  En3  v108
 BYTE   W03
 BYTE   Fn3  v092
 BYTE   W03
 BYTE   N03  Gn3  v104
 BYTE   W02
// 072   ----------------------------------------
 BYTE   W04
 BYTE   Cn4
 BYTE   W06
 BYTE   N05  Cn4  v108
 BYTE   W09
 BYTE   N02  Gn3  v092
 BYTE   W03
 BYTE   N32  Gn3  v104
 BYTE   W36
 BYTE   N03  Cn4
 BYTE   W06
 BYTE   N02  Gn3  v108
 BYTE   W03
 BYTE   Fn3  v092
 BYTE   W03
 BYTE   N16  En3  v104
 BYTE   W18
 BYTE   N02  En3  v108
 BYTE   W03
 BYTE   Fn3  v092
 BYTE   W03
 BYTE   N03  Gn3  v104
 BYTE   W02
// 073   ----------------------------------------
 BYTE   W04
 BYTE   Cn4
 BYTE   W06
 BYTE   N32  Ds4  v108
 BYTE   W36
 BYTE   N11  Cn4  v104
 BYTE   W12
 BYTE   N32  En4  v108
 BYTE   W36
 BYTE   N11  Cn4  v104
 BYTE   W02
// 074   ----------------------------------------
 BYTE   W10
 BYTE   N44  An4
 BYTE   W60
 BYTE   N11
 BYTE   W12
 BYTE   N17  Gn4
 BYTE   W14
// 075   ----------------------------------------
 BYTE   W04
 BYTE   N05  Fn4  v096
 BYTE   W06
 BYTE   N92  Gn4  v104
 BYTE   W84
 BYTE   W02
// 076   ----------------------------------------
 BYTE   W10
 BYTE   N44  Cn4  v096
 BYTE   W48
 BYTE   Dn4
 BYTE   W36
 BYTE   W02
// 077   ----------------------------------------
 BYTE   W10
 BYTE   Ds4
 BYTE   W48
 BYTE   Fn4
 BYTE   W36
 BYTE   W02
// 078   ----------------------------------------
 BYTE   W10
 BYTE   Gn4
 BYTE   W48
 BYTE   N23  En4
 BYTE   W24
 BYTE   Cn4
 BYTE   W14
// 079   ----------------------------------------
 BYTE   W10
 BYTE   N44  Gn3
 BYTE   W48
 BYTE   N23
 BYTE   W24
 BYTE   N23
 BYTE   W14
// 080   ----------------------------------------
 BYTE   W10
 BYTE   N44  En4  v084
 BYTE   W48
 BYTE   Fn4
 BYTE   W36
 BYTE   W02
// 081   ----------------------------------------
 BYTE   W10
 BYTE   N32  Gn4
 BYTE   W36
 BYTE   N11  Dn4  v076
 BYTE   W12
 BYTE   N44  En4  v084
 BYTE   W36
 BYTE   W02
// 082   ----------------------------------------
 BYTE   W10
 BYTE   N23
 BYTE   W24
 BYTE   An4
 BYTE   W24
 BYTE   Gn4
 BYTE   W24
 BYTE   Dn4
 BYTE   W14
// 083   ----------------------------------------
 BYTE   W10
 BYTE   Cn4
 BYTE   W24
 BYTE   En4
 BYTE   W24
 BYTE   N32  Bn3
 BYTE   W36
 BYTE   N05  Cn4  v092
 BYTE   W02
// 084   ----------------------------------------
 BYTE   W04
 BYTE   Bn3  v076
 BYTE   W06
 BYTE   TEMPO   58*B1EndingMedley_tbs/2
 BYTE   N11  An3  v080
 BYTE   W12
 BYTE   Cn4  v084
 BYTE   W12
 BYTE   Fn4  v088
 BYTE   W12
 BYTE   An4  v092
 BYTE   W12
 BYTE   N23  Bn4  v096
 BYTE   W24
 BYTE   Gn4  v100
 BYTE   W14
// 085   ----------------------------------------
 BYTE   W10
 BYTE   TEMPO   56*B1EndingMedley_tbs/2
 BYTE   N92  Cs5  v104
 BYTE   W24
 BYTE   TEMPO   52*B1EndingMedley_tbs/2
 BYTE   W60
 BYTE   W02
// 086   ----------------------------------------
 BYTE   W09
 BYTE   FINE

//**************** Track 2 (Midi-Chn.1) ****************//

B1EndingMedley_002:
// 000   ----------------------------------------
 BYTE   KEYSH   B1EndingMedley_key+0
 BYTE   W06
 BYTE   VOICE   41
 BYTE   VOL   10*B1EndingMedley_mvl/mxv
 BYTE   PAN   c_v+49
 BYTE   N03  Fn3  v104
 BYTE   W04
 BYTE   Fn3  v092
 BYTE   W04
 BYTE   As3
 BYTE   W04
 BYTE   N20  Dn4  v096
 BYTE   W24
 BYTE   N03  Fn3  v104
 BYTE   W04
 BYTE   Fn3  v092
 BYTE   W04
 BYTE   As3
 BYTE   W04
 BYTE   N15  Dn4  v096
 BYTE   W18
 BYTE   N03  As3
 BYTE   W06
 BYTE   Fn3
 BYTE   W06
 BYTE   As3
 BYTE   W06
 BYTE   N16  Dn4
 BYTE   W06
// 001   ----------------------------------------
 BYTE   W12
 BYTE   N03  As3
 BYTE   W06
 BYTE   Fn3
 BYTE   W06
 BYTE   As3
 BYTE   W06
 BYTE   N56  Cn4
 BYTE   W56
 BYTE   W03
 BYTE   VOICE   42
 BYTE   VOL   25*B1EndingMedley_mvl/mxv
 BYTE   PAN   c_v-25
 BYTE   N05  Cn3  v104
 BYTE   W07
// 002   ----------------------------------------
Label_1_01099C2F:
 BYTE   W02
 BYTE   N02  Cn3  v092
 BYTE   W03
 BYTE   N10  Fn3  v104
 BYTE   W12
 BYTE   Gn3
 BYTE   W12
 BYTE   An3
 BYTE   W12
 BYTE   N05  As3
 BYTE   W06
 BYTE   An3
 BYTE   W06
 BYTE   N05
 BYTE   W06
 BYTE   Gn3
 BYTE   W06
 BYTE   Fn3
 BYTE   W09
 BYTE   N02  En3  v092
 BYTE   W03
 BYTE   N10  Fn3  v104
 BYTE   W12
 BYTE   N05  Cn3
 BYTE   W07
 BYTE   PEND 
// 003   ----------------------------------------
Label_1_01099C53:
 BYTE   W02
 BYTE   N02  Cn3  v092
 BYTE   W03
 BYTE   N10  Fn3  v104
 BYTE   W12
 BYTE   Gn3
 BYTE   W12
 BYTE   An3
 BYTE   W12
 BYTE   N05  Gn3
 BYTE   W06
 BYTE   An3
 BYTE   W06
 BYTE   Bn3
 BYTE   W06
 BYTE   Cn4
 BYTE   W06
 BYTE   Dn4
 BYTE   W09
 BYTE   N02  En4  v092
 BYTE   W03
 BYTE   N10  Cn4  v104
 BYTE   W12
 BYTE   N05  Cn3
 BYTE   W07
 BYTE   PEND 
 BYTE   PATT
  POIN2 Label_1_01099C2F
 BYTE   PATT
  POIN2 Label_1_01099C53
// 004   ----------------------------------------
 BYTE   W02
 BYTE   N02  Cn3  v092
 BYTE   W03
 BYTE   N23  Dn3  v104
 BYTE   W30
 BYTE   N05
 BYTE   W06
 BYTE   En3
 BYTE   W09
 BYTE   N02  Dn3  v092
 BYTE   W03
 BYTE   N03  Cn3  v108
 BYTE   W06
 BYTE   N02  Fn3  v112
 BYTE   W03
 BYTE   An3  v092
 BYTE   W03
 BYTE   N17  Cn4  v116
 BYTE   W18
 BYTE   N03  Cn4  v124
 BYTE   W06
 BYTE   N05  As3
 BYTE   W07
// 005   ----------------------------------------
 BYTE   W02
 BYTE   N02  An3  v108
 BYTE   W03
 BYTE   N05  Gn3  v124
 BYTE   W06
 BYTE   An3
 BYTE   W06
 BYTE   N17  As3
 BYTE   W18
 BYTE   N05  Gn3
 BYTE   W06
 BYTE   An3
 BYTE   W09
 BYTE   N02  As3  v104
 BYTE   W03
 BYTE   N32  Cn4  v124
 BYTE   W36
 BYTE   N05  Cn3  v104
 BYTE   W07
 BYTE   PATT
  POIN2 Label_1_01099C2F
 BYTE   PATT
  POIN2 Label_1_01099C53
 BYTE   PATT
  POIN2 Label_1_01099C2F
 BYTE   PATT
  POIN2 Label_1_01099C53
// 006   ----------------------------------------
 BYTE   W02
 BYTE   N02  Cn3  v092
 BYTE   W03
 BYTE   N21  Dn3  v104
 BYTE   W30
 BYTE   N05
 BYTE   W06
 BYTE   En3
 BYTE   W09
 BYTE   N02  Dn3  v092
 BYTE   W03
 BYTE   N21  Dn3  v104
 BYTE   W24
 BYTE   Cs3
 BYTE   W19
// 007   ----------------------------------------
 BYTE   W05
 BYTE   Dn3
 BYTE   W30
 BYTE   N05
 BYTE   W06
 BYTE   En3
 BYTE   W09
 BYTE   N02  Dn3  v092
 BYTE   W03
 BYTE   N42  Dn3  v104
 BYTE   W42
 BYTE   W01
// 008   ----------------------------------------
 BYTE   W05
 BYTE   Cs3  v084
 BYTE   W48
 BYTE   En3  v092
 BYTE   W42
 BYTE   W01
// 009   ----------------------------------------
 BYTE   W05
 BYTE   N32  Gn3  v108
 BYTE   W36
 BYTE   N05  Dn3  v104
 BYTE   W09
 BYTE   N02  Dn3  v092
 BYTE   W03
 BYTE   N10  Fn3  v104
 BYTE   W12
 BYTE   Gn3
 BYTE   W12
 BYTE   An3
 BYTE   W12
 BYTE   N05  As3
 BYTE   W06
 BYTE   An3
 BYTE   W01
// 010   ----------------------------------------
Label_1_01099D24:
 BYTE   W05
 BYTE   N05  An3  v104
 BYTE   W06
 BYTE   Gn3
 BYTE   W06
 BYTE   Fn3
 BYTE   W09
 BYTE   N02  En3  v092
 BYTE   W03
 BYTE   N10  Fn3  v104
 BYTE   W12
 BYTE   N05  Dn3
 BYTE   W09
 BYTE   N02  Dn3  v092
 BYTE   W03
 BYTE   N10  Fn3  v104
 BYTE   W12
 BYTE   Gn3
 BYTE   W12
 BYTE   An3
 BYTE   W12
 BYTE   N05  Gn3
 BYTE   W06
 BYTE   An3
 BYTE   W01
 BYTE   PEND 
// 011   ----------------------------------------
 BYTE   W05
 BYTE   As3
 BYTE   W06
 BYTE   Gn3
 BYTE   W06
 BYTE   An3
 BYTE   W09
 BYTE   N02  As3  v092
 BYTE   W03
 BYTE   N10  An3  v104
 BYTE   W12
 BYTE   N05  Dn3
 BYTE   W09
 BYTE   N02  Dn3  v092
 BYTE   W03
 BYTE   N10  Fn3  v104
 BYTE   W12
 BYTE   Gn3
 BYTE   W12
 BYTE   An3
 BYTE   W12
 BYTE   N05  As3
 BYTE   W06
 BYTE   An3
 BYTE   W01
 BYTE   PATT
  POIN2 Label_1_01099D24
// 012   ----------------------------------------
 BYTE   W05
 BYTE   N05  Bn3  v104
 BYTE   W06
 BYTE   Cn3
 BYTE   W06
 BYTE   Dn3
 BYTE   W09
 BYTE   N02  En3  v092
 BYTE   W03
 BYTE   N10  Cn3  v104
 BYTE   W12
 BYTE   N05
 BYTE   W09
 BYTE   N02  Cn3  v092
 BYTE   W04
 BYTE   VOICE   56
 BYTE   VOL   60*B1EndingMedley_mvl/mxv
 BYTE   PAN   c_v+25
 BYTE   N03  Fn4
 BYTE   W04
 BYTE   Cn4  v076
 BYTE   W04
 BYTE   Gn4  v092
 BYTE   W04
 BYTE   Cn4  v076
 BYTE   W04
 BYTE   Fn4  v092
 BYTE   W04
 BYTE   Cn4  v076
 BYTE   W04
 BYTE   Fn4  v092
 BYTE   W04
 BYTE   Cn4  v076
 BYTE   W04
 BYTE   Gn4  v092
 BYTE   W04
 BYTE   Cn4  v076
 BYTE   W04
 BYTE   Fn4  v092
 BYTE   W02
// 013   ----------------------------------------
 BYTE   W02
 BYTE   Cn4  v076
 BYTE   W04
 BYTE   Fn4  v092
 BYTE   W04
 BYTE   Cn4  v076
 BYTE   W04
 BYTE   Gn4  v092
 BYTE   W04
 BYTE   Cn4  v076
 BYTE   W04
 BYTE   Fn4  v092
 BYTE   W04
 BYTE   Cn4  v076
 BYTE   W04
 BYTE   Fn4  v092
 BYTE   W04
 BYTE   Cn4  v076
 BYTE   W04
 BYTE   Gn4  v092
 BYTE   W04
 BYTE   Cn4  v076
 BYTE   W04
 BYTE   Fn4  v092
 BYTE   W04
 BYTE   Cn4  v076
 BYTE   W04
 BYTE   Fn4  v092
 BYTE   W04
 BYTE   Cn4  v076
 BYTE   W04
 BYTE   Gn4  v092
 BYTE   W04
 BYTE   Cn4  v076
 BYTE   W04
 BYTE   Fn4  v092
 BYTE   W04
 BYTE   Cn4  v076
 BYTE   W04
 BYTE   Fn4  v092
 BYTE   W04
 BYTE   Cn4  v076
 BYTE   W04
 BYTE   Gn4  v092
 BYTE   W04
 BYTE   Cn4  v076
 BYTE   W04
 BYTE   Fn4  v092
 BYTE   W02
// 014   ----------------------------------------
 BYTE   W02
 BYTE   Cn4  v076
 BYTE   W04
 BYTE   Fn4  v092
 BYTE   W04
 BYTE   Cn4  v076
 BYTE   W04
 BYTE   Gn4  v092
 BYTE   W04
 BYTE   Cn4  v076
 BYTE   W04
 BYTE   Fn4  v092
 BYTE   W04
 BYTE   Cn4  v076
 BYTE   W04
 BYTE   Fn4  v092
 BYTE   W04
 BYTE   Cn4  v076
 BYTE   W04
 BYTE   Cn5  v092
 BYTE   W04
 BYTE   Gn4  v076
 BYTE   W04
 BYTE   En4  v092
 BYTE   W04
 BYTE   N02  Cn4  v076
 BYTE   W04
 BYTE   VOICE   56
 BYTE   VOL   60*B1EndingMedley_mvl/mxv
 BYTE   PAN   c_v+14
 BYTE   N03  Fn3  v104
 BYTE   W06
 BYTE   N02  Cn3  v108
 BYTE   W03
 BYTE   As2  v092
 BYTE   W03
 BYTE   N16  An2  v104
 BYTE   W18
 BYTE   N02  An2  v108
 BYTE   W03
 BYTE   As2  v092
 BYTE   W03
 BYTE   N03  Cn3  v104
 BYTE   W06
// 015   ----------------------------------------
 BYTE   Fn3
 BYTE   W06
 BYTE   N05  Fn3  v108
 BYTE   W09
 BYTE   N02  Cn3  v092
 BYTE   W03
 BYTE   N32  Cn3  v104
 BYTE   W36
 BYTE   N03  Fn3
 BYTE   W06
 BYTE   N02  Cn3  v108
 BYTE   W03
 BYTE   As2  v092
 BYTE   W03
 BYTE   N16  An2  v104
 BYTE   W18
 BYTE   N02  An2  v108
 BYTE   W03
 BYTE   As2  v092
 BYTE   W03
 BYTE   N03  Cn3  v104
 BYTE   W06
// 016   ----------------------------------------
 BYTE   Fn3
 BYTE   W06
 BYTE   N05  An3  v108
 BYTE   W09
 BYTE   N02  As3  v092
 BYTE   W03
 BYTE   N32  Gn3  v104
 BYTE   W36
 BYTE   VOICE   56
 BYTE   VOL   60*B1EndingMedley_mvl/mxv
 BYTE   PAN   c_v+14
 BYTE   W12
 BYTE   N05  Cn4  v108
 BYTE   W06
 BYTE   Cn4  v096
 BYTE   W06
 BYTE   Gn3  v108
 BYTE   W06
 BYTE   Gn3  v096
 BYTE   W06
 BYTE   Dn3  v108
 BYTE   W06
// 017   ----------------------------------------
 BYTE   Dn3  v096
 BYTE   W12
 BYTE   Cn4
 BYTE   W06
 BYTE   Cn4  v108
 BYTE   W06
 BYTE   Gn3  v096
 BYTE   W06
 BYTE   Gn3  v108
 BYTE   W06
 BYTE   Dn3  v096
 BYTE   W06
 BYTE   Dn3  v108
 BYTE   W06
 BYTE   Gn2  v096
 BYTE   W06
 BYTE   Cn4  v108
 BYTE   W06
 BYTE   Cn4  v096
 BYTE   W06
 BYTE   Gn3  v108
 BYTE   W06
 BYTE   Gn3  v096
 BYTE   W06
 BYTE   Dn3  v108
 BYTE   W06
 BYTE   Dn3  v096
 BYTE   W06
 BYTE   Gn2  v108
 BYTE   W06
// 018   ----------------------------------------
 BYTE   Gn2  v096
 BYTE   W12
 BYTE   Cn4
 BYTE   W06
 BYTE   Cn4  v108
 BYTE   W06
 BYTE   Gn3  v096
 BYTE   W06
 BYTE   Gn3  v108
 BYTE   W06
 BYTE   Dn3  v096
 BYTE   W06
 BYTE   Dn3  v108
 BYTE   W06
 BYTE   Gn2  v096
 BYTE   W06
 BYTE   Gn2  v108
 BYTE   W06
 BYTE   Dn3  v096
 BYTE   W06
 BYTE   Dn3  v108
 BYTE   W06
 BYTE   Gn3  v096
 BYTE   W06
 BYTE   N44  Cn4  v104
 BYTE   W18
// 019   ----------------------------------------
 BYTE   W36
 BYTE   N05  As3
 BYTE   W06
 BYTE   N02  As3  v044
 BYTE   W04
 BYTE   N01  As3  v040
 BYTE   W02
 BYTE   N05  Fn3  v104
 BYTE   W06
 BYTE   N02  Fn3  v044
 BYTE   W04
 BYTE   N01  Fn3  v040
 BYTE   W02
 BYTE   N05  Gn3  v104
 BYTE   W06
 BYTE   N02  Gn3  v044
 BYTE   W04
 BYTE   N01  Gn3  v040
 BYTE   W02
 BYTE   N05  As2  v104
 BYTE   W06
 BYTE   N44  Cn3
 BYTE   W18
// 020   ----------------------------------------
 BYTE   W30
 BYTE   N02  Cn3  v068
 BYTE   W03
 BYTE   Cn3  v056
 BYTE   W03
 BYTE   Fn3  v076
 BYTE   W03
 BYTE   Fn3  v068
 BYTE   W03
 BYTE   Cn3  v084
 BYTE   W03
 BYTE   Cn3  v076
 BYTE   W03
 BYTE   Fn3  v092
 BYTE   W03
 BYTE   Fn3  v084
 BYTE   W03
 BYTE   Cn3  v100
 BYTE   W03
 BYTE   Cn3  v092
 BYTE   W03
 BYTE   Fn3  v108
 BYTE   W03
 BYTE   Fn3  v100
 BYTE   W03
 BYTE   Cn3  v116
 BYTE   W03
 BYTE   Cn3  v108
 BYTE   W03
 BYTE   Fn3  v124
 BYTE   W03
 BYTE   Fn3  v116
 BYTE   W03
 BYTE   N56  Cn3  v104
 BYTE   W18
// 021   ----------------------------------------
 BYTE   W42
 BYTE   N11
 BYTE   W12
 BYTE   As2
 BYTE   W12
 BYTE   Ds3
 BYTE   W12
 BYTE   N56  As2
 BYTE   W18
// 022   ----------------------------------------
 BYTE   W42
 BYTE   N11  Fn3
 BYTE   W12
 BYTE   Ds3
 BYTE   W12
 BYTE   As2
 BYTE   W12
 BYTE   N68  Cn3
 BYTE   W18
// 023   ----------------------------------------
 BYTE   W60
 BYTE   N05  Fn3
 BYTE   W06
 BYTE   Gn3
 BYTE   W06
 BYTE   As3
 BYTE   W06
 BYTE   N54  Cn4
 BYTE   W18
// 024   ----------------------------------------
 BYTE   W36
 BYTE   W02
 BYTE   N07  Fn4
 BYTE   W08
 BYTE   Ds4
 BYTE   W08
 BYTE   Cn4
 BYTE   W08
 BYTE   As3
 BYTE   W08
 BYTE   Gs3
 BYTE   W08
 BYTE   N56  Fn3
 BYTE   W18
// 025   ----------------------------------------
 BYTE   W42
 BYTE   N11  As3
 BYTE   W12
 BYTE   Gs3
 BYTE   W12
 BYTE   Fn3
 BYTE   W12
 BYTE   N56  As3
 BYTE   W18
// 026   ----------------------------------------
 BYTE   W42
 BYTE   N11
 BYTE   W12
 BYTE   Gs3
 BYTE   W12
 BYTE   Fn3
 BYTE   W12
 BYTE   N68  As2
 BYTE   W18
// 027   ----------------------------------------
 BYTE   W60
 BYTE   N05  Fn3
 BYTE   W06
 BYTE   Gn3
 BYTE   W06
 BYTE   As3
 BYTE   W06
 BYTE   N52  Cn4
 BYTE   W18
// 028   ----------------------------------------
 BYTE   W36
 BYTE   N05  Cn4  v096
 BYTE   W06
 BYTE   Cn4  v104
 BYTE   W06
 BYTE   Gn3  v096
 BYTE   W06
 BYTE   Gn3  v104
 BYTE   W06
 BYTE   Dn3  v096
 BYTE   W06
 BYTE   Dn3  v104
 BYTE   W06
 BYTE   Gn2  v096
 BYTE   W18
 BYTE   Cn4  v108
 BYTE   W06
// 029   ----------------------------------------
 BYTE   Cn4  v096
 BYTE   W06
 BYTE   Gn3  v108
 BYTE   W06
 BYTE   Gn3  v096
 BYTE   W06
 BYTE   Dn3  v108
 BYTE   W06
 BYTE   Dn3  v096
 BYTE   W12
 BYTE   Cn4
 BYTE   W06
 BYTE   Cn4  v108
 BYTE   W06
 BYTE   Gn3  v096
 BYTE   W06
 BYTE   Gn3  v108
 BYTE   W06
 BYTE   Dn3  v096
 BYTE   W06
 BYTE   Dn3  v108
 BYTE   W06
 BYTE   Gn2  v096
 BYTE   W06
 BYTE   Cn4  v108
 BYTE   W06
 BYTE   Cn4  v096
 BYTE   W06
 BYTE   Gn3  v108
 BYTE   W06
// 030   ----------------------------------------
 BYTE   Gn3  v096
 BYTE   W06
 BYTE   Dn3  v108
 BYTE   W06
 BYTE   Dn3  v096
 BYTE   W06
 BYTE   Gn2  v108
 BYTE   W06
 BYTE   Gn2  v096
 BYTE   W12
 BYTE   Cn4
 BYTE   W06
 BYTE   Cn4  v108
 BYTE   W06
 BYTE   Gn3  v096
 BYTE   W06
 BYTE   Gn3  v108
 BYTE   W06
 BYTE   Dn3  v096
 BYTE   W06
 BYTE   Dn3  v108
 BYTE   W06
 BYTE   Gn2  v096
 BYTE   W06
 BYTE   Gn2  v108
 BYTE   W06
 BYTE   Dn3  v096
 BYTE   W06
 BYTE   Dn3  v108
 BYTE   W06
// 031   ----------------------------------------
 BYTE   Gn3  v096
 BYTE   W06
 BYTE   N92  Cn4  v104
 BYTE   W90
// 032   ----------------------------------------
 BYTE   W07
 BYTE   VOICE   56
 BYTE   VOL   60*B1EndingMedley_mvl/mxv
 BYTE   PAN   c_v+14
 BYTE   W03
 BYTE   N02  Dn3
 BYTE   W03
 BYTE   Dn3  v092
 BYTE   W06
 BYTE   Dn3  v104
 BYTE   W03
 BYTE   Dn3  v092
 BYTE   W06
 BYTE   Dn3  v104
 BYTE   W06
 BYTE   N02
 BYTE   W03
 BYTE   Dn3  v092
 BYTE   W06
 BYTE   Dn3  v104
 BYTE   W03
 BYTE   Dn3  v092
 BYTE   W06
 BYTE   Dn3  v104
 BYTE   W06
 BYTE   N02
 BYTE   W03
 BYTE   Dn3  v092
 BYTE   W06
 BYTE   Dn3  v104
 BYTE   W03
 BYTE   Dn3  v092
 BYTE   W06
 BYTE   Dn3  v104
 BYTE   W06
 BYTE   N02
 BYTE   W03
 BYTE   Dn3  v092
 BYTE   W06
 BYTE   Dn3  v104
 BYTE   W03
 BYTE   Dn3  v092
 BYTE   W02
// 033   ----------------------------------------
 BYTE   W04
 BYTE   Dn3  v104
 BYTE   W06
 BYTE   N02
 BYTE   W03
 BYTE   Dn3  v092
 BYTE   W06
 BYTE   Dn3  v104
 BYTE   W03
 BYTE   Dn3  v092
 BYTE   W06
 BYTE   Dn3  v104
 BYTE   W06
 BYTE   N02
 BYTE   W03
 BYTE   Dn3  v092
 BYTE   W06
 BYTE   Dn3  v104
 BYTE   W03
 BYTE   Dn3  v092
 BYTE   W06
 BYTE   Dn3  v104
 BYTE   W06
 BYTE   N02
 BYTE   W03
 BYTE   Dn3  v092
 BYTE   W06
 BYTE   Dn3  v104
 BYTE   W03
 BYTE   Dn3  v092
 BYTE   W06
 BYTE   Dn3  v104
 BYTE   W06
 BYTE   N02
 BYTE   W03
 BYTE   Dn3  v092
 BYTE   W06
 BYTE   Dn3  v104
 BYTE   W03
 BYTE   Dn3  v092
 BYTE   W02
// 034   ----------------------------------------
 BYTE   W04
 BYTE   Dn3  v104
 BYTE   W03
 BYTE   VOICE   56
 BYTE   VOL   15*B1EndingMedley_mvl/mxv
 BYTE   PAN   c_v+25
 BYTE   W01
 BYTE   N05  An4  v108
 BYTE   W06
 BYTE   Gn4  v104
 BYTE   W06
 BYTE   An4
 BYTE   W06
 BYTE   N28  As4
 BYTE   W30
 BYTE   N05  An4  v108
 BYTE   W06
 BYTE   Gn4  v104
 BYTE   W06
 BYTE   An4
 BYTE   W06
 BYTE   N28  As4
 BYTE   W22
// 035   ----------------------------------------
 BYTE   W08
 BYTE   N05  An4  v108
 BYTE   W06
 BYTE   Gn4  v104
 BYTE   W06
 BYTE   An4
 BYTE   W06
 BYTE   N28  As4
 BYTE   W30
 BYTE   N05  Cn5  v108
 BYTE   W06
 BYTE   Dn5  v104
 BYTE   W06
 BYTE   Cn5
 BYTE   W06
 BYTE   As4
 BYTE   W06
 BYTE   An4  v108
 BYTE   W06
 BYTE   Gn4  v104
 BYTE   W06
 BYTE   Fs4
 BYTE   W04
// 036   ----------------------------------------
 BYTE   W02
 BYTE   An4
 BYTE   W06
 BYTE   An4  v108
 BYTE   W06
 BYTE   Gn4  v104
 BYTE   W06
 BYTE   An4
 BYTE   W06
 BYTE   N28  Dn5
 BYTE   W30
 BYTE   N05  An4  v108
 BYTE   W06
 BYTE   Gn4  v104
 BYTE   W06
 BYTE   An4
 BYTE   W06
 BYTE   N28  Dn5
 BYTE   W22
// 037   ----------------------------------------
 BYTE   W08
 BYTE   N05  An4  v108
 BYTE   W06
 BYTE   Gn4  v104
 BYTE   W06
 BYTE   An4
 BYTE   W06
 BYTE   N28  Dn5
 BYTE   W30
 BYTE   N05  Dn5  v108
 BYTE   W06
 BYTE   Ds5  v104
 BYTE   W06
 BYTE   Dn5
 BYTE   W06
 BYTE   Cn5
 BYTE   W06
 BYTE   Dn5  v108
 BYTE   W06
 BYTE   Cn5  v104
 BYTE   W06
 BYTE   As4
 BYTE   W04
// 038   ----------------------------------------
 BYTE   W02
 BYTE   An4
 BYTE   W06
 BYTE   As4  v108
 BYTE   W06
 BYTE   An4  v104
 BYTE   W06
 BYTE   Gn4
 BYTE   W06
 BYTE   N28  Dn4
 BYTE   W30
 BYTE   N05  As4  v108
 BYTE   W06
 BYTE   An4  v104
 BYTE   W06
 BYTE   Gn4
 BYTE   W06
 BYTE   N28  Dn4
 BYTE   W22
// 039   ----------------------------------------
 BYTE   W08
 BYTE   N05  As4  v108
 BYTE   W06
 BYTE   An4  v104
 BYTE   W06
 BYTE   Gn4
 BYTE   W06
 BYTE   N17  Fn4
 BYTE   W18
 BYTE   N11  An4  v096
 BYTE   W12
 BYTE   N05  An4  v108
 BYTE   W06
 BYTE   Gn4  v104
 BYTE   W06
 BYTE   Cn5
 BYTE   W06
 BYTE   As4
 BYTE   W06
 BYTE   An4  v108
 BYTE   W06
 BYTE   Gn4  v104
 BYTE   W06
 BYTE   Fn4
 BYTE   W04
// 040   ----------------------------------------
 BYTE   W02
 BYTE   Ds4
 BYTE   W06
 BYTE   Dn4  v108
 BYTE   W06
 BYTE   Cn4  v104
 BYTE   W06
 BYTE   Gn3
 BYTE   W06
 BYTE   As3
 BYTE   W06
 BYTE   An3  v108
 BYTE   W06
 BYTE   As3  v104
 BYTE   W06
 BYTE   Cn4
 BYTE   W06
 BYTE   As3
 BYTE   W06
 BYTE   Gs3  v108
 BYTE   W06
 BYTE   As3  v104
 BYTE   W06
 BYTE   Cn4
 BYTE   W06
 BYTE   As3
 BYTE   W06
 BYTE   Cn4  v108
 BYTE   W06
 BYTE   Fn4  v104
 BYTE   W06
 BYTE   Gn4
 BYTE   W04
// 041   ----------------------------------------
 BYTE   W02
 BYTE   N04  Fn4
 BYTE   W06
 BYTE   VOICE   56
 BYTE   VOL   15*B1EndingMedley_mvl/mxv
 BYTE   PAN   c_v+25
 BYTE   W13
 BYTE   N23  Dn5
 BYTE   W24
 BYTE   Cn5
 BYTE   W24
 BYTE   As4
 BYTE   W24
 BYTE   An4
 BYTE   W03
// 042   ----------------------------------------
Label_1_0109A17A:
 BYTE   W21
 BYTE   N23  Dn5  v104
 BYTE   W24
 BYTE   Cn5
 BYTE   W24
 BYTE   As4
 BYTE   W24
 BYTE   An4
 BYTE   W03
 BYTE   PEND 
 BYTE   PATT
  POIN2 Label_1_0109A17A
// 043   ----------------------------------------
 BYTE   W21
 BYTE   N23  Dn5  v104
 BYTE   W24
 BYTE   Cn5
 BYTE   W24
 BYTE   As4
 BYTE   W24
 BYTE   N11  An4
 BYTE   W03
// 044   ----------------------------------------
 BYTE   W09
 BYTE   N68  Gn4
 BYTE   W72
 BYTE   N22  Fs4
 BYTE   W15
// 045   ----------------------------------------
 BYTE   W08
 BYTE   VOICE   56
 BYTE   VOL   20*B1EndingMedley_mvl/mxv
 BYTE   PAN   c_v+25
 BYTE   W01
 BYTE   N44  Dn4  v116
 BYTE   W48
 BYTE   En4
 BYTE   W36
 BYTE   W03
// 046   ----------------------------------------
Label_1_0109A1AD:
 BYTE   W09
 BYTE   N30  Gn4  v116
 BYTE   W32
 BYTE   N07  Fn4
 BYTE   W08
 BYTE   Ds4
 BYTE   W08
 BYTE   N44  Dn4
 BYTE   W36
 BYTE   W03
 BYTE   PEND 
// 047   ----------------------------------------
 BYTE   W09
 BYTE   N44
 BYTE   W48
 BYTE   En4  v120
 BYTE   W36
 BYTE   W03
// 048   ----------------------------------------
 BYTE   W09
 BYTE   Gn4
 BYTE   W48
 BYTE   Dn5
 BYTE   W36
 BYTE   W03
// 049   ----------------------------------------
 BYTE   W08
 BYTE   VOICE   56
 BYTE   VOL   30*B1EndingMedley_mvl/mxv
 BYTE   PAN   c_v-34
 BYTE   N44  En3  v092
 BYTE   W48
 BYTE   Fs3
 BYTE   W40
// 050   ----------------------------------------
 BYTE   W08
 BYTE   Gs3
 BYTE   W48
 BYTE   An3
 BYTE   W40
// 051   ----------------------------------------
 BYTE   W08
 BYTE   N23  En3
 BYTE   W24
 BYTE   An3
 BYTE   W24
 BYTE   Gs3  v096
 BYTE   W24
 BYTE   En3
 BYTE   W16
// 052   ----------------------------------------
 BYTE   W08
 BYTE   N44  Ds3  v092
 BYTE   W88
// 053   ----------------------------------------
 BYTE   W09
 BYTE   VOL   20*B1EndingMedley_mvl/mxv
 BYTE   N44  Dn4  v116
 BYTE   W48
 BYTE   En4
 BYTE   W36
 BYTE   W03
 BYTE   PATT
  POIN2 Label_1_0109A1AD
// 054   ----------------------------------------
 BYTE   W09
 BYTE   VOICE   41
 BYTE   VOL   60*B1EndingMedley_mvl/mxv
 BYTE   PAN   c_v+14
 BYTE   W36
 BYTE   N02  Dn3  v108
 BYTE   W04
 BYTE   Dn3  v092
 BYTE   W04
 BYTE   N02
 BYTE   W04
 BYTE   N23  Dn3  v104
 BYTE   W24
 BYTE   N02  Fn3  v108
 BYTE   W04
 BYTE   Fn3  v092
 BYTE   W04
 BYTE   N02
 BYTE   W04
 BYTE   N10  As3  v104
 BYTE   W03
// 055   ----------------------------------------
 BYTE   W09
 BYTE   N32  Cn4
 BYTE   W36
 BYTE   N02  Gn3  v108
 BYTE   W08
 BYTE   En3  v092
 BYTE   W04
 BYTE   N10  Gn3  v104
 BYTE   W12
 BYTE   N21  Cn3
 BYTE   W24
 BYTE   W03
// 056   ----------------------------------------
 BYTE   W03
 BYTE   N03  Gn2  v108
 BYTE   W06
 BYTE   N10  As2  v104
 BYTE   W12
 BYTE   N02  As2  v108
 BYTE   W04
 BYTE   Dn3  v092
 BYTE   W04
 BYTE   Fn3
 BYTE   W04
 BYTE   N21  As3  v104
 BYTE   W24
 BYTE   N02  Dn3  v108
 BYTE   W04
 BYTE   Fn3  v092
 BYTE   W04
 BYTE   As3
 BYTE   W04
 BYTE   N21  Dn4  v104
 BYTE   W24
 BYTE   N02  Fn4  v108
 BYTE   W03
// 057   ----------------------------------------
 BYTE   W05
 BYTE   Fn4  v092
 BYTE   W04
 BYTE   N92  En4  v104
 BYTE   W84
 BYTE   W03
// 058   ----------------------------------------
 BYTE   W09
 BYTE   N23  Dn4
 BYTE   W24
 BYTE   As3  v096
 BYTE   W24
 BYTE   Fn3  v092
 BYTE   W24
 BYTE   N06  Dn3  v096
 BYTE   W08
 BYTE   Fn3  v104
 BYTE   W07
// 059   ----------------------------------------
 BYTE   W01
 BYTE   As3  v108
 BYTE   W08
 BYTE   N44  Cn4  v100
 BYTE   W48
 BYTE   Gn3  v108
 BYTE   W36
 BYTE   W03
// 060   ----------------------------------------
 BYTE   W09
 BYTE   VOICE   56
 BYTE   VOL   25*B1EndingMedley_mvl/mxv
 BYTE   PAN   c_v+25
 BYTE   W01
 BYTE   N11  Gn4  v104
 BYTE   W12
 BYTE   Fn4
 BYTE   W12
 BYTE   N05  En4
 BYTE   W06
 BYTE   Dn4
 BYTE   W06
 BYTE   Cn4
 BYTE   W06
 BYTE   N11  Dn4
 BYTE   W12
 BYTE   N28  Cn4
 BYTE   W30
 BYTE   VOL   0*B1EndingMedley_mvl/mxv
 BYTE   N11  Gn4
 BYTE   W02
// 061   ----------------------------------------
 BYTE   W10
 BYTE   Fn4
 BYTE   W12
 BYTE   N05  En4
 BYTE   W06
 BYTE   Dn4
 BYTE   W06
 BYTE   Cn4
 BYTE   W06
 BYTE   N11  Dn4
 BYTE   W12
 BYTE   N28  Cn4
 BYTE   W30
 BYTE   VOL   25*B1EndingMedley_mvl/mxv
 BYTE   N11  Gn4
 BYTE   W12
 BYTE   Fn4
 BYTE   W02
// 062   ----------------------------------------
 BYTE   W10
 BYTE   N05  En4
 BYTE   W06
 BYTE   Dn4
 BYTE   W06
 BYTE   Cn4
 BYTE   W06
 BYTE   N11  Dn4
 BYTE   W12
 BYTE   N28  En4
 BYTE   W30
 BYTE   VOL   0*B1EndingMedley_mvl/mxv
 BYTE   N11  Gn4
 BYTE   W12
 BYTE   Fn4
 BYTE   W12
 BYTE   N05  En4
 BYTE   W02
// 063   ----------------------------------------
 BYTE   W04
 BYTE   Dn4
 BYTE   W06
 BYTE   Cn4
 BYTE   W06
 BYTE   N11  Dn4
 BYTE   W12
 BYTE   N28  En4
 BYTE   W30
 BYTE   VOL   25*B1EndingMedley_mvl/mxv
 BYTE   N11  Gn4
 BYTE   W12
 BYTE   Fn4
 BYTE   W12
 BYTE   N05  En4
 BYTE   W06
 BYTE   Dn4
 BYTE   W06
 BYTE   Cn4
 BYTE   W02
// 064   ----------------------------------------
 BYTE   W04
 BYTE   N11  Dn4
 BYTE   W12
 BYTE   N28  Cn4
 BYTE   W30
 BYTE   VOL   0*B1EndingMedley_mvl/mxv
 BYTE   N11  Gn4
 BYTE   W12
 BYTE   Fn4
 BYTE   W12
 BYTE   N05  En4
 BYTE   W06
 BYTE   Dn4
 BYTE   W06
 BYTE   Cn4
 BYTE   W06
 BYTE   N11  Dn4
 BYTE   W08
// 065   ----------------------------------------
 BYTE   W04
 BYTE   N28  Cn4
 BYTE   W30
 BYTE   VOL   25*B1EndingMedley_mvl/mxv
 BYTE   N11  Gn4
 BYTE   W12
 BYTE   Fn4
 BYTE   W12
 BYTE   N05  En4
 BYTE   W06
 BYTE   Dn4
 BYTE   W06
 BYTE   Cn4
 BYTE   W06
 BYTE   N11  Dn4
 BYTE   W12
 BYTE   N28  En4
 BYTE   W08
// 066   ----------------------------------------
 BYTE   W22
 BYTE   VOL   0*B1EndingMedley_mvl/mxv
 BYTE   N11  Gn4
 BYTE   W12
 BYTE   Fn4
 BYTE   W12
 BYTE   N05  En4
 BYTE   W06
 BYTE   Dn4
 BYTE   W06
 BYTE   Cn4
 BYTE   W06
 BYTE   N11  Dn4
 BYTE   W12
 BYTE   N28  En4
 BYTE   W20
// 067   ----------------------------------------
 BYTE   W10
 BYTE   VOL   10*B1EndingMedley_mvl/mxv
 BYTE   TIE  Gn4
 BYTE   W84
 BYTE   W02
// 068   ----------------------------------------
 BYTE   W96
// 069   ----------------------------------------
 BYTE   W96
// 070   ----------------------------------------
 BYTE   W56
 BYTE   EOT
 BYTE   W02
 BYTE   VOICE   19
 BYTE   VOL   20*B1EndingMedley_mvl/mxv
 BYTE   PAN   c_v+0
 BYTE   N23
 BYTE   W24
 BYTE   N07  En4  v096
 BYTE   W08
 BYTE   Fn4  v104
 BYTE   W06
// 071   ----------------------------------------
 BYTE   W02
 BYTE   Gn4  v108
 BYTE   W08
 BYTE   N23  Gn4  v104
 BYTE   W24
 BYTE   N07  En4  v096
 BYTE   W08
 BYTE   Fn4  v104
 BYTE   W08
 BYTE   Gn4  v108
 BYTE   W08
 BYTE   N23  Gn4  v104
 BYTE   W24
 BYTE   N07  En4  v096
 BYTE   W08
 BYTE   Gn4  v104
 BYTE   W06
// 072   ----------------------------------------
 BYTE   W02
 BYTE   Cn5  v108
 BYTE   W08
 BYTE   N32  Ds5  v104
 BYTE   W36
 BYTE   N11  Cn5
 BYTE   W12
 BYTE   N23  En5
 BYTE   W32
 BYTE   N07  Cn5
 BYTE   W06
// 073   ----------------------------------------
 BYTE   W02
 BYTE   Gn4  v108
 BYTE   W08
 BYTE   N32  An4  v104
 BYTE   W36
 BYTE   N11  Bn4
 BYTE   W12
 BYTE   N23  Cn5
 BYTE   W24
 BYTE   An4
 BYTE   W14
// 074   ----------------------------------------
 BYTE   W10
 BYTE   N44  Dn5
 BYTE   W48
 BYTE   N03  Cn5
 BYTE   W06
 BYTE   N02  Gn4  v108
 BYTE   W03
 BYTE   Fn4  v092
 BYTE   W03
 BYTE   N16  En4  v104
 BYTE   W18
 BYTE   N02  En4  v108
 BYTE   W03
 BYTE   Fn4  v092
 BYTE   W03
 BYTE   N03  Gn4  v104
 BYTE   W02
// 075   ----------------------------------------
 BYTE   W04
 BYTE   Cn5
 BYTE   W06
 BYTE   N05  Cn5  v108
 BYTE   W09
 BYTE   N02  Gn4  v092
 BYTE   W03
 BYTE   N32  Gn4  v104
 BYTE   W36
 BYTE   N03  Cn5
 BYTE   W06
 BYTE   N02  Gn4  v108
 BYTE   W03
 BYTE   Fn4  v092
 BYTE   W03
 BYTE   N16  En4  v104
 BYTE   W18
 BYTE   N02  En4  v108
 BYTE   W03
 BYTE   Fn4  v092
 BYTE   W03
 BYTE   N03  Gn4  v104
 BYTE   W02
// 076   ----------------------------------------
 BYTE   W04
 BYTE   Cn5
 BYTE   W06
 BYTE   N32  Ds5  v108
 BYTE   W36
 BYTE   N11  Cn5  v104
 BYTE   W12
 BYTE   N32  En5  v108
 BYTE   W36
 BYTE   N11  Cn5  v104
 BYTE   W02
// 077   ----------------------------------------
 BYTE   W10
 BYTE   N44  An5
 BYTE   W60
 BYTE   N11
 BYTE   W12
 BYTE   N17  Gn5
 BYTE   W14
// 078   ----------------------------------------
 BYTE   W04
 BYTE   N05  Fn5  v096
 BYTE   W06
 BYTE   N92  Gn5  v104
 BYTE   W84
 BYTE   W02
// 079   ----------------------------------------
 BYTE   W10
 BYTE   VOICE   19
 BYTE   VOL   60*B1EndingMedley_mvl/mxv
 BYTE   PAN   c_v+25
 BYTE   N44  Ds3  v096
 BYTE   W48
 BYTE   Fn3
 BYTE   W36
 BYTE   W02
// 080   ----------------------------------------
 BYTE   W10
 BYTE   Gn3
 BYTE   W48
 BYTE   As3
 BYTE   W36
 BYTE   W02
// 081   ----------------------------------------
 BYTE   W10
 BYTE   Cn4
 BYTE   W48
 BYTE   N23  Gn3
 BYTE   W24
 BYTE   En3
 BYTE   W14
// 082   ----------------------------------------
 BYTE   W10
 BYTE   N44  Cn3
 BYTE   W48
 BYTE   N23
 BYTE   W24
 BYTE   N24  Bn2
 BYTE   W14
// 083   ----------------------------------------
 BYTE   W11
 BYTE   VOICE   19
 BYTE   VOL   20*B1EndingMedley_mvl/mxv
 BYTE   PAN   c_v+0
 BYTE   N44  En5  v084
 BYTE   W48
 BYTE   Fn5
 BYTE   W36
 BYTE   W01
// 084   ----------------------------------------
 BYTE   W11
 BYTE   N32  Gn5
 BYTE   W36
 BYTE   N11  Dn5  v076
 BYTE   W12
 BYTE   N44  En5  v084
 BYTE   W36
 BYTE   W01
// 085   ----------------------------------------
 BYTE   W11
 BYTE   N23
 BYTE   W24
 BYTE   An5
 BYTE   W24
 BYTE   Gn5
 BYTE   W24
 BYTE   Dn5
 BYTE   W13
// 086   ----------------------------------------
 BYTE   W11
 BYTE   Cn5
 BYTE   W24
 BYTE   En5
 BYTE   W24
 BYTE   N32  Bn4
 BYTE   W36
 BYTE   N05  Cn5  v092
 BYTE   W01
// 087   ----------------------------------------
 BYTE   W05
 BYTE   Bn4  v076
 BYTE   W06
 BYTE   N11  An4  v080
 BYTE   W12
 BYTE   Cn5  v084
 BYTE   W12
 BYTE   Fn5  v088
 BYTE   W12
 BYTE   An5  v092
 BYTE   W12
 BYTE   N23  Bn5  v096
 BYTE   W24
 BYTE   Gn5  v100
 BYTE   W13
// 088   ----------------------------------------
 BYTE   W11
 BYTE   N92  Cs5  v104
 BYTE   W84
 BYTE   W01
// 089   ----------------------------------------
 BYTE   W09
 BYTE   FINE

//**************** Track 3 (Midi-Chn.2) ****************//

B1EndingMedley_003:
// 000   ----------------------------------------
 BYTE   KEYSH   B1EndingMedley_key+0
 BYTE   W06
 BYTE   VOICE   41
 BYTE   VOL   60*B1EndingMedley_mvl/mxv
 BYTE   PAN   c_v+14
 BYTE   N03  As2  v104
 BYTE   W04
 BYTE   Dn3  v092
 BYTE   W04
 BYTE   Fn3
 BYTE   W04
 BYTE   N20  As3  v096
 BYTE   W24
 BYTE   N03  As2  v104
 BYTE   W04
 BYTE   Dn3  v092
 BYTE   W04
 BYTE   Fn3
 BYTE   W04
 BYTE   N15  As3  v096
 BYTE   W18
 BYTE   N03  Dn3
 BYTE   W06
 BYTE   As2
 BYTE   W06
 BYTE   Dn3
 BYTE   W06
 BYTE   N16  Fn3
 BYTE   W06
// 001   ----------------------------------------
 BYTE   W12
 BYTE   N03  Dn3
 BYTE   W06
 BYTE   As2
 BYTE   W06
 BYTE   Dn3
 BYTE   W06
 BYTE   N56  Fn3
 BYTE   W60
 BYTE   N05  Gn2  v104
 BYTE   W06
// 002   ----------------------------------------
Label_2_0109A4A0:
 BYTE   W03
 BYTE   N02  Gn2  v092
 BYTE   W03
 BYTE   N10  An2  v104
 BYTE   W12
 BYTE   Cn3
 BYTE   W12
 BYTE   Fn3
 BYTE   W12
 BYTE   N05  Gn3
 BYTE   W06
 BYTE   Fn3
 BYTE   W06
 BYTE   Dn3
 BYTE   W06
 BYTE   As2
 BYTE   W06
 BYTE   An2
 BYTE   W09
 BYTE   N02  Gn2  v092
 BYTE   W03
 BYTE   N10  An2  v104
 BYTE   W12
 BYTE   N05  Gn2
 BYTE   W06
 BYTE   PEND 
// 003   ----------------------------------------
Label_2_0109A4C4:
 BYTE   W03
 BYTE   N02  Gn2  v092
 BYTE   W03
 BYTE   N10  An2  v104
 BYTE   W12
 BYTE   Cn3
 BYTE   W12
 BYTE   Fn3
 BYTE   W12
 BYTE   N05  Cn3
 BYTE   W06
 BYTE   Fn3
 BYTE   W06
 BYTE   Gn3
 BYTE   W06
 BYTE   An3
 BYTE   W06
 BYTE   Bn3
 BYTE   W09
 BYTE   N02  Cn4  v092
 BYTE   W03
 BYTE   N10  Gn3  v104
 BYTE   W12
 BYTE   N05  Gn2
 BYTE   W06
 BYTE   PEND 
 BYTE   PATT
  POIN2 Label_2_0109A4A0
 BYTE   PATT
  POIN2 Label_2_0109A4C4
// 004   ----------------------------------------
 BYTE   W03
 BYTE   N02  Gn2  v092
 BYTE   W03
 BYTE   N23  Fn2  v104
 BYTE   W30
 BYTE   N05
 BYTE   W06
 BYTE   Gn2
 BYTE   W09
 BYTE   N02  Fn2  v092
 BYTE   W03
 BYTE   N03  Fn2  v108
 BYTE   W06
 BYTE   N02  Cn3  v112
 BYTE   W03
 BYTE   Fn3  v092
 BYTE   W03
 BYTE   N17  An3  v116
 BYTE   W18
 BYTE   N03  An3  v124
 BYTE   W06
 BYTE   N05  Gn3
 BYTE   W06
// 005   ----------------------------------------
 BYTE   W03
 BYTE   N02  Fn3  v108
 BYTE   W03
 BYTE   N05  Ds3  v124
 BYTE   W06
 BYTE   Fn3
 BYTE   W06
 BYTE   N17  Gn3
 BYTE   W18
 BYTE   N05  Ds3
 BYTE   W06
 BYTE   Fn3
 BYTE   W09
 BYTE   N02  Gn3  v104
 BYTE   W03
 BYTE   N32  En3  v124
 BYTE   W36
 BYTE   N05  Gn2  v104
 BYTE   W06
 BYTE   PATT
  POIN2 Label_2_0109A4A0
 BYTE   PATT
  POIN2 Label_2_0109A4C4
 BYTE   PATT
  POIN2 Label_2_0109A4A0
 BYTE   PATT
  POIN2 Label_2_0109A4C4
// 006   ----------------------------------------
 BYTE   W03
 BYTE   N02  Gn2  v092
 BYTE   W03
 BYTE   N21  Gn2  v104
 BYTE   W30
 BYTE   N05
 BYTE   W06
 BYTE   N05
 BYTE   W09
 BYTE   N02  Gn2  v092
 BYTE   W03
 BYTE   N21  Gn2  v104
 BYTE   W24
 BYTE   N21
 BYTE   W18
// 007   ----------------------------------------
 BYTE   W06
 BYTE   N21
 BYTE   W30
 BYTE   N05
 BYTE   W06
 BYTE   N05
 BYTE   W09
 BYTE   N02  Gn2  v092
 BYTE   W03
 BYTE   N42  An2  v104
 BYTE   W42
// 008   ----------------------------------------
 BYTE   W06
 BYTE   An2  v084
 BYTE   W48
 BYTE   Cs3  v092
 BYTE   W42
// 009   ----------------------------------------
 BYTE   W06
 BYTE   N32  En3  v108
 BYTE   W36
 BYTE   N05  Gn2  v104
 BYTE   W09
 BYTE   N02  Gn2  v092
 BYTE   W03
 BYTE   N10  Dn3  v104
 BYTE   W12
 BYTE   En3
 BYTE   W12
 BYTE   Fn3
 BYTE   W12
 BYTE   N05  Gn3
 BYTE   W06
// 010   ----------------------------------------
Label_2_0109A591:
 BYTE   N05  Fn3  v104
 BYTE   W06
 BYTE   N05
 BYTE   W06
 BYTE   En3
 BYTE   W06
 BYTE   An2
 BYTE   W09
 BYTE   N02  An2  v092
 BYTE   W03
 BYTE   N10  An2  v104
 BYTE   W12
 BYTE   N05
 BYTE   W09
 BYTE   N02  An2  v092
 BYTE   W03
 BYTE   N10  Dn3  v104
 BYTE   W12
 BYTE   En3
 BYTE   W12
 BYTE   Fn3
 BYTE   W12
 BYTE   N05  En3
 BYTE   W06
 BYTE   PEND 
// 011   ----------------------------------------
 BYTE   Fn3
 BYTE   W06
 BYTE   Gn3
 BYTE   W06
 BYTE   En3
 BYTE   W06
 BYTE   Fn3
 BYTE   W09
 BYTE   N02  Gn3  v092
 BYTE   W03
 BYTE   N10  En3  v104
 BYTE   W12
 BYTE   N05  An2
 BYTE   W09
 BYTE   N02  An2  v092
 BYTE   W03
 BYTE   N10  Dn3  v104
 BYTE   W12
 BYTE   En3
 BYTE   W12
 BYTE   Fn3
 BYTE   W12
 BYTE   N05  Gn3
 BYTE   W06
 BYTE   PATT
  POIN2 Label_2_0109A591
// 012   ----------------------------------------
 BYTE   N05  Fn3  v104
 BYTE   W06
 BYTE   Gn3
 BYTE   W06
 BYTE   An3
 BYTE   W06
 BYTE   Gn3
 BYTE   W09
 BYTE   N02  Gn3  v092
 BYTE   W03
 BYTE   N10  En3  v104
 BYTE   W12
 BYTE   N05  Gn2
 BYTE   W09
 BYTE   N02  Gn2  v092
 BYTE   W03
 BYTE   PAN   c_v+0
 BYTE   N17  Fn2  v104
 BYTE   W18
 BYTE   N01  Fn2  v108
 BYTE   W03
 BYTE   Fn2  v092
 BYTE   W03
 BYTE   N07  Fn2  v104
 BYTE   W08
 BYTE   N07
 BYTE   W08
 BYTE   N07
 BYTE   W02
// 013   ----------------------------------------
 BYTE   W06
 BYTE   N17
 BYTE   W18
 BYTE   N01  Fn2  v108
 BYTE   W03
 BYTE   Fn2  v092
 BYTE   W03
 BYTE   N07  Fn2  v104
 BYTE   W08
 BYTE   N07
 BYTE   W08
 BYTE   N07
 BYTE   W08
 BYTE   N17
 BYTE   W18
 BYTE   N01  Fn2  v108
 BYTE   W03
 BYTE   Fn2  v092
 BYTE   W03
 BYTE   N07  Fn2  v104
 BYTE   W08
 BYTE   N07
 BYTE   W08
 BYTE   N07
 BYTE   W02
// 014   ----------------------------------------
 BYTE   W06
 BYTE   N17
 BYTE   W18
 BYTE   N01  Fn2  v108
 BYTE   W03
 BYTE   Fn2  v092
 BYTE   W03
 BYTE   N07  Fn2  v104
 BYTE   W08
 BYTE   N07
 BYTE   W08
 BYTE   N07
 BYTE   W08
 BYTE   VOICE   41
 BYTE   VOL   60*B1EndingMedley_mvl/mxv
 BYTE   PAN   c_v+0
 BYTE   N17
 BYTE   W18
 BYTE   N01  Fn2  v108
 BYTE   W03
 BYTE   Fn2  v092
 BYTE   W03
 BYTE   N07  Fn2  v104
 BYTE   W08
 BYTE   N07
 BYTE   W08
 BYTE   N07
 BYTE   W02
// 015   ----------------------------------------
 BYTE   W06
 BYTE   N17  En2
 BYTE   W18
 BYTE   N01  En2  v108
 BYTE   W03
 BYTE   En2  v092
 BYTE   W03
 BYTE   N07  En2  v104
 BYTE   W08
 BYTE   N07
 BYTE   W08
 BYTE   N07
 BYTE   W08
 BYTE   N17  Fn2
 BYTE   W18
 BYTE   N01  Fn2  v108
 BYTE   W03
 BYTE   Fn2  v092
 BYTE   W03
 BYTE   N07  Fn2  v104
 BYTE   W08
 BYTE   N07
 BYTE   W08
 BYTE   N07
 BYTE   W02
// 016   ----------------------------------------
 BYTE   W06
 BYTE   N17
 BYTE   W18
 BYTE   N01  Fn2  v108
 BYTE   W03
 BYTE   Fn2  v092
 BYTE   W03
 BYTE   N07  Fn2  v104
 BYTE   W08
 BYTE   N07
 BYTE   W08
 BYTE   N07
 BYTE   W08
 BYTE   VOICE   41
 BYTE   VOL   50*B1EndingMedley_mvl/mxv
 BYTE   PAN   c_v-14
 BYTE   N11  Fn3
 BYTE   W12
 BYTE   N05  Fn4  v108
 BYTE   W06
 BYTE   Fn4  v096
 BYTE   W06
 BYTE   Cn4  v108
 BYTE   W06
 BYTE   Cn4  v096
 BYTE   W06
 BYTE   Gn3  v108
 BYTE   W06
// 017   ----------------------------------------
 BYTE   Gn3  v096
 BYTE   W12
 BYTE   Fn4
 BYTE   W06
 BYTE   Fn4  v108
 BYTE   W06
 BYTE   Cn4  v096
 BYTE   W06
 BYTE   Cn4  v108
 BYTE   W06
 BYTE   Gn3  v096
 BYTE   W06
 BYTE   Gn3  v108
 BYTE   W06
 BYTE   Cn3  v096
 BYTE   W06
 BYTE   Fn4  v108
 BYTE   W06
 BYTE   Fn4  v096
 BYTE   W06
 BYTE   Cn4  v108
 BYTE   W06
 BYTE   Cn4  v096
 BYTE   W06
 BYTE   Gn3  v108
 BYTE   W06
 BYTE   Gn3  v096
 BYTE   W06
 BYTE   Cn3  v108
 BYTE   W06
// 018   ----------------------------------------
 BYTE   Cn3  v096
 BYTE   W12
 BYTE   Fn4
 BYTE   W06
 BYTE   Fn4  v108
 BYTE   W06
 BYTE   Cn4  v096
 BYTE   W06
 BYTE   Cn4  v108
 BYTE   W06
 BYTE   Gn3  v096
 BYTE   W06
 BYTE   Gn3  v108
 BYTE   W06
 BYTE   Cn3  v096
 BYTE   W06
 BYTE   Cn3  v108
 BYTE   W06
 BYTE   Gn3  v096
 BYTE   W06
 BYTE   Gn3  v108
 BYTE   W06
 BYTE   Cn4  v096
 BYTE   W06
 BYTE   N44  Fn4  v104
 BYTE   W18
// 019   ----------------------------------------
 BYTE   W36
 BYTE   N04  Ds4
 BYTE   W06
 BYTE   N02  Ds4  v044
 BYTE   W03
 BYTE   Ds4  v040
 BYTE   W03
 BYTE   N04  As3  v104
 BYTE   W06
 BYTE   N02  As3  v044
 BYTE   W03
 BYTE   As3  v040
 BYTE   W03
 BYTE   N04  Cn4  v104
 BYTE   W06
 BYTE   N02  Cn4  v044
 BYTE   W03
 BYTE   Cn4  v040
 BYTE   W03
 BYTE   N04  Ds3  v104
 BYTE   W06
 BYTE   N44  Fn3
 BYTE   W18
// 020   ----------------------------------------
 BYTE   W30
 BYTE   N02  Fn3  v068
 BYTE   W03
 BYTE   Fn3  v056
 BYTE   W03
 BYTE   As3  v076
 BYTE   W03
 BYTE   As3  v068
 BYTE   W03
 BYTE   Fn3  v084
 BYTE   W03
 BYTE   Fn3  v076
 BYTE   W03
 BYTE   As3  v092
 BYTE   W03
 BYTE   As3  v084
 BYTE   W03
 BYTE   Fn3  v100
 BYTE   W03
 BYTE   Fn3  v092
 BYTE   W03
 BYTE   As3  v108
 BYTE   W03
 BYTE   As3  v100
 BYTE   W03
 BYTE   Fn3  v116
 BYTE   W03
 BYTE   Fn3  v108
 BYTE   W03
 BYTE   As3  v124
 BYTE   W03
 BYTE   As3  v116
 BYTE   W03
 BYTE   N56  Fn3  v104
 BYTE   W18
// 021   ----------------------------------------
 BYTE   W42
 BYTE   N11
 BYTE   W12
 BYTE   Ds3
 BYTE   W12
 BYTE   Gs3
 BYTE   W12
 BYTE   N56  Fn3
 BYTE   W18
// 022   ----------------------------------------
 BYTE   W42
 BYTE   N11  As3
 BYTE   W12
 BYTE   Gs3
 BYTE   W12
 BYTE   Ds3
 BYTE   W12
 BYTE   N68  Fn3
 BYTE   W18
// 023   ----------------------------------------
 BYTE   W60
 BYTE   N05  As3
 BYTE   W06
 BYTE   Cn4
 BYTE   W06
 BYTE   Ds4
 BYTE   W06
 BYTE   N54  Fn4
 BYTE   W18
// 024   ----------------------------------------
 BYTE   W36
 BYTE   W02
 BYTE   N07  As4
 BYTE   W08
 BYTE   Gs4
 BYTE   W08
 BYTE   Fn4
 BYTE   W08
 BYTE   Ds4
 BYTE   W08
 BYTE   Dn4
 BYTE   W08
 BYTE   N56  As3
 BYTE   W18
// 025   ----------------------------------------
 BYTE   W42
 BYTE   N11  Ds4
 BYTE   W12
 BYTE   Dn4
 BYTE   W12
 BYTE   As3
 BYTE   W12
 BYTE   N56  Fn4
 BYTE   W18
// 026   ----------------------------------------
 BYTE   W42
 BYTE   N11  Ds4
 BYTE   W12
 BYTE   Dn4
 BYTE   W12
 BYTE   As3
 BYTE   W12
 BYTE   N68  Fn3
 BYTE   W18
// 027   ----------------------------------------
 BYTE   W60
 BYTE   N05  As3
 BYTE   W06
 BYTE   Cn4
 BYTE   W06
 BYTE   Ds4
 BYTE   W06
 BYTE   N52  Fn4
 BYTE   W18
// 028   ----------------------------------------
 BYTE   W36
 BYTE   N05  Fn4  v096
 BYTE   W06
 BYTE   Fn4  v104
 BYTE   W06
 BYTE   Cn4  v096
 BYTE   W06
 BYTE   Cn4  v104
 BYTE   W06
 BYTE   Gn3  v096
 BYTE   W06
 BYTE   Gn3  v104
 BYTE   W06
 BYTE   Cn3  v096
 BYTE   W06
 BYTE   N11  Fn3  v104
 BYTE   W12
 BYTE   N05  Fn4  v108
 BYTE   W06
// 029   ----------------------------------------
 BYTE   Fn4  v096
 BYTE   W06
 BYTE   Cn4  v108
 BYTE   W06
 BYTE   Cn4  v096
 BYTE   W06
 BYTE   Gn3  v108
 BYTE   W06
 BYTE   Gn3  v096
 BYTE   W12
 BYTE   Fn4
 BYTE   W06
 BYTE   Fn4  v108
 BYTE   W06
 BYTE   Cn4  v096
 BYTE   W06
 BYTE   Cn4  v108
 BYTE   W06
 BYTE   Gn3  v096
 BYTE   W06
 BYTE   Gn3  v108
 BYTE   W06
 BYTE   Cn3  v096
 BYTE   W06
 BYTE   Fn4  v108
 BYTE   W06
 BYTE   Fn4  v096
 BYTE   W06
 BYTE   Cn4  v108
 BYTE   W06
// 030   ----------------------------------------
 BYTE   Cn4  v096
 BYTE   W06
 BYTE   Gn3  v108
 BYTE   W06
 BYTE   Gn3  v096
 BYTE   W06
 BYTE   Cn3  v108
 BYTE   W06
 BYTE   Cn3  v096
 BYTE   W12
 BYTE   Fn4
 BYTE   W06
 BYTE   Fn4  v108
 BYTE   W06
 BYTE   Cn4  v096
 BYTE   W06
 BYTE   Cn4  v108
 BYTE   W06
 BYTE   Gn3  v096
 BYTE   W06
 BYTE   Gn3  v108
 BYTE   W06
 BYTE   Cn3  v096
 BYTE   W06
 BYTE   Cn3  v108
 BYTE   W06
 BYTE   Gn3  v096
 BYTE   W06
 BYTE   Gn3  v108
 BYTE   W06
// 031   ----------------------------------------
 BYTE   Cn4  v096
 BYTE   W06
 BYTE   N92  Fn4  v104
 BYTE   W90
// 032   ----------------------------------------
 BYTE   W07
 BYTE   VOICE   56
 BYTE   VOL   60*B1EndingMedley_mvl/mxv
 BYTE   PAN   c_v-25
 BYTE   W03
 BYTE   N02  Cn3
 BYTE   W03
 BYTE   Cn3  v092
 BYTE   W06
 BYTE   Cn3  v104
 BYTE   W03
 BYTE   Cn3  v092
 BYTE   W06
 BYTE   Cn3  v104
 BYTE   W06
 BYTE   N02
 BYTE   W03
 BYTE   Cn3  v092
 BYTE   W06
 BYTE   Cn3  v104
 BYTE   W03
 BYTE   Cn3  v092
 BYTE   W06
 BYTE   Cn3  v104
 BYTE   W06
 BYTE   N02
 BYTE   W03
 BYTE   Cn3  v092
 BYTE   W06
 BYTE   Cn3  v104
 BYTE   W03
 BYTE   Cn3  v092
 BYTE   W06
 BYTE   Cn3  v104
 BYTE   W06
 BYTE   N02
 BYTE   W03
 BYTE   Cn3  v092
 BYTE   W06
 BYTE   Cn3  v104
 BYTE   W03
 BYTE   Cn3  v092
 BYTE   W02
// 033   ----------------------------------------
 BYTE   W04
 BYTE   Cn3  v104
 BYTE   W06
 BYTE   N02
 BYTE   W03
 BYTE   Cn3  v092
 BYTE   W06
 BYTE   Cn3  v104
 BYTE   W03
 BYTE   Cn3  v092
 BYTE   W06
 BYTE   Cn3  v104
 BYTE   W06
 BYTE   N02
 BYTE   W03
 BYTE   Cn3  v092
 BYTE   W06
 BYTE   Cn3  v104
 BYTE   W03
 BYTE   Cn3  v092
 BYTE   W06
 BYTE   Cn3  v104
 BYTE   W06
 BYTE   N02
 BYTE   W03
 BYTE   Cn3  v092
 BYTE   W06
 BYTE   Cn3  v104
 BYTE   W03
 BYTE   Cn3  v092
 BYTE   W06
 BYTE   Cn3  v104
 BYTE   W06
 BYTE   N02
 BYTE   W03
 BYTE   Cn3  v092
 BYTE   W06
 BYTE   Cn3  v104
 BYTE   W03
 BYTE   Cn3  v092
 BYTE   W02
// 034   ----------------------------------------
 BYTE   W04
 BYTE   Cn3  v104
 BYTE   W03
 BYTE   VOICE   56
 BYTE   VOL   60*B1EndingMedley_mvl/mxv
 BYTE   PAN   c_v-25
 BYTE   W24
 BYTE   N05  An2  v108
 BYTE   W06
 BYTE   Gn2  v104
 BYTE   W06
 BYTE   An2
 BYTE   W06
 BYTE   N28  As2
 BYTE   W30
 BYTE   N05  An2  v108
 BYTE   W06
 BYTE   Gn2  v104
 BYTE   W06
 BYTE   An2
 BYTE   W05
// 035   ----------------------------------------
 BYTE   W01
 BYTE   N28  As2
 BYTE   W30
 BYTE   N05  An2  v108
 BYTE   W06
 BYTE   Gn2  v104
 BYTE   W06
 BYTE   An2
 BYTE   W06
 BYTE   As2
 BYTE   W06
 BYTE   An2  v108
 BYTE   W06
 BYTE   As2  v104
 BYTE   W06
 BYTE   An2
 BYTE   W06
 BYTE   Gn2
 BYTE   W06
 BYTE   Fs2  v108
 BYTE   W06
 BYTE   En2  v104
 BYTE   W06
 BYTE   Dn2
 BYTE   W05
// 036   ----------------------------------------
 BYTE   W01
 BYTE   Fs2
 BYTE   W06
 BYTE   N23  Gn2
 BYTE   W24
 BYTE   N05  An2  v108
 BYTE   W06
 BYTE   Gn2  v104
 BYTE   W06
 BYTE   An2
 BYTE   W06
 BYTE   N28  Dn3
 BYTE   W30
 BYTE   N05  An2  v108
 BYTE   W06
 BYTE   Gn2  v104
 BYTE   W06
 BYTE   An2
 BYTE   W05
// 037   ----------------------------------------
 BYTE   W01
 BYTE   N28  Dn3
 BYTE   W30
 BYTE   N05  An2  v108
 BYTE   W06
 BYTE   Gn2  v104
 BYTE   W06
 BYTE   An2
 BYTE   W06
 BYTE   Dn3
 BYTE   W06
 BYTE   As2  v108
 BYTE   W06
 BYTE   Cn3  v104
 BYTE   W06
 BYTE   As2
 BYTE   W06
 BYTE   An2
 BYTE   W06
 BYTE   As2  v108
 BYTE   W06
 BYTE   An2  v104
 BYTE   W06
 BYTE   Gn2
 BYTE   W05
// 038   ----------------------------------------
 BYTE   W01
 BYTE   Dn2
 BYTE   W06
 BYTE   N23  Gn2
 BYTE   W24
 BYTE   N05  As2  v108
 BYTE   W06
 BYTE   An2  v104
 BYTE   W06
 BYTE   Gn2
 BYTE   W06
 BYTE   N28  Dn2
 BYTE   W30
 BYTE   N05  As2  v108
 BYTE   W06
 BYTE   An2  v104
 BYTE   W06
 BYTE   Gn2
 BYTE   W05
// 039   ----------------------------------------
 BYTE   W01
 BYTE   N28  Dn2
 BYTE   W30
 BYTE   N05  As2  v108
 BYTE   W06
 BYTE   An2  v104
 BYTE   W06
 BYTE   Gn2
 BYTE   W06
 BYTE   Dn2
 BYTE   W06
 BYTE   N44  Gn2
 BYTE   W40
 BYTE   W01
// 040   ----------------------------------------
 BYTE   W07
 BYTE   N92  Gs2
 BYTE   W88
 BYTE   W01
// 041   ----------------------------------------
 BYTE   W08
 BYTE   VOICE   41
 BYTE   VOL   60*B1EndingMedley_mvl/mxv
 BYTE   PAN   c_v-14
 BYTE   Dn2
 BYTE   W12
 BYTE   N23  Dn4  v116
 BYTE   W24
 BYTE   Cn4  v112
 BYTE   W24
 BYTE   As3
 BYTE   W24
 BYTE   An3  v108
 BYTE   W04
// 042   ----------------------------------------
Label_2_0109A962:
 BYTE   W20
 BYTE   N23  Dn4  v116
 BYTE   W24
 BYTE   Cn4  v112
 BYTE   W24
 BYTE   As3
 BYTE   W24
 BYTE   An3  v108
 BYTE   W04
 BYTE   PEND 
 BYTE   PATT
  POIN2 Label_2_0109A962
// 043   ----------------------------------------
 BYTE   W20
 BYTE   N23  Dn4  v116
 BYTE   W24
 BYTE   Cn4  v112
 BYTE   W24
 BYTE   As3
 BYTE   W24
 BYTE   N11  An3  v108
 BYTE   W04
// 044   ----------------------------------------
 BYTE   W08
 BYTE   N05  Gn3  v084
 BYTE   W12
 BYTE   N03  Gn3  v092
 BYTE   W04
 BYTE   Gn3  v076
 BYTE   W04
 BYTE   N03
 BYTE   W04
 BYTE   N05  Gn3  v084
 BYTE   W12
 BYTE   N03  Gn3  v092
 BYTE   W04
 BYTE   Gn3  v076
 BYTE   W04
 BYTE   N03
 BYTE   W04
 BYTE   N05  Gn3  v084
 BYTE   W12
 BYTE   N03  Gn3  v092
 BYTE   W04
 BYTE   Gn3  v076
 BYTE   W04
 BYTE   N03
 BYTE   W04
 BYTE   N05  Fs3  v092
 BYTE   W12
 BYTE   N11  Fs3  v116
 BYTE   W04
// 045   ----------------------------------------
 BYTE   W08
 BYTE   VOICE   56
 BYTE   VOL   30*B1EndingMedley_mvl/mxv
 BYTE   PAN   c_v-34
 BYTE   N44  Dn3  v092
 BYTE   W48
 BYTE   En3
 BYTE   W40
// 046   ----------------------------------------
Label_2_0109A9C0:
 BYTE   W08
 BYTE   N30  Gn3  v092
 BYTE   W32
 BYTE   N07  Fn3
 BYTE   W08
 BYTE   Ds3
 BYTE   W08
 BYTE   N44  Dn3
 BYTE   W40
 BYTE   PEND 
// 047   ----------------------------------------
 BYTE   W08
 BYTE   N44
 BYTE   W48
 BYTE   En3  v096
 BYTE   W40
// 048   ----------------------------------------
 BYTE   W08
 BYTE   Gn3
 BYTE   W48
 BYTE   Dn4  v100
 BYTE   W40
// 049   ----------------------------------------
 BYTE   W08
 BYTE   Cs4  v092
 BYTE   W48
 BYTE   Dn4
 BYTE   W40
// 050   ----------------------------------------
 BYTE   W08
 BYTE   En4
 BYTE   W48
 BYTE   N44
 BYTE   W40
// 051   ----------------------------------------
 BYTE   W08
 BYTE   N23  Cs4
 BYTE   W24
 BYTE   Fs4
 BYTE   W24
 BYTE   En4  v096
 BYTE   W24
 BYTE   Bn3
 BYTE   W16
// 052   ----------------------------------------
 BYTE   W08
 BYTE   N44  Bn3  v092
 BYTE   W48
 BYTE   N11  An3  v104
 BYTE   W12
 BYTE   Gs3
 BYTE   W12
 BYTE   Fs3
 BYTE   W12
 BYTE   En3
 BYTE   W04
// 053   ----------------------------------------
 BYTE   W08
 BYTE   N44  Dn3  v092
 BYTE   W48
 BYTE   En3
 BYTE   W40
 BYTE   PATT
  POIN2 Label_2_0109A9C0
// 054   ----------------------------------------
 BYTE   W09
 BYTE   VOICE   41
 BYTE   VOL   20*B1EndingMedley_mvl/mxv
 BYTE   PAN   c_v-43
 BYTE   W36
 BYTE   W01
 BYTE   N02  Dn3  v108
 BYTE   W04
 BYTE   Dn3  v092
 BYTE   W04
 BYTE   N02
 BYTE   W04
 BYTE   N23  Dn3  v104
 BYTE   W24
 BYTE   N02  Fn3  v108
 BYTE   W04
 BYTE   Fn3  v092
 BYTE   W04
 BYTE   N02
 BYTE   W04
 BYTE   N10  As3  v104
 BYTE   W02
// 055   ----------------------------------------
 BYTE   W10
 BYTE   N32  Cn4
 BYTE   W36
 BYTE   N02  Gn3  v108
 BYTE   W08
 BYTE   En3  v092
 BYTE   W04
 BYTE   N10  Gn3  v104
 BYTE   W12
 BYTE   N21  Cn3
 BYTE   W24
 BYTE   W02
// 056   ----------------------------------------
 BYTE   W04
 BYTE   N03  Gn2  v108
 BYTE   W06
 BYTE   N10  As2  v104
 BYTE   W12
 BYTE   N02  As2  v108
 BYTE   W04
 BYTE   Dn3  v092
 BYTE   W04
 BYTE   Fn3
 BYTE   W04
 BYTE   N21  As3  v104
 BYTE   W24
 BYTE   N02  Dn3  v108
 BYTE   W04
 BYTE   Fn3  v092
 BYTE   W04
 BYTE   As3
 BYTE   W04
 BYTE   N21  Dn4  v104
 BYTE   W24
 BYTE   N02  Fn4  v108
 BYTE   W02
// 057   ----------------------------------------
 BYTE   W06
 BYTE   Fn4  v092
 BYTE   W04
 BYTE   N92  En4  v104
 BYTE   W84
 BYTE   W02
// 058   ----------------------------------------
 BYTE   W10
 BYTE   N23  Dn4
 BYTE   W24
 BYTE   As3  v096
 BYTE   W24
 BYTE   Fn3  v092
 BYTE   W24
 BYTE   N06  Dn3  v096
 BYTE   W08
 BYTE   Fn3  v104
 BYTE   W06
// 059   ----------------------------------------
 BYTE   W02
 BYTE   As3  v108
 BYTE   W08
 BYTE   N44  Cn4  v100
 BYTE   W48
 BYTE   Gn3  v108
 BYTE   W36
 BYTE   W02
// 060   ----------------------------------------
 BYTE   W09
 BYTE   VOICE   56
 BYTE   VOL   35*B1EndingMedley_mvl/mxv
 BYTE   PAN   c_v-14
 BYTE   N11  En4  v104
 BYTE   W12
 BYTE   Dn4
 BYTE   W12
 BYTE   N05  Cn4
 BYTE   W06
 BYTE   Gn3
 BYTE   W06
 BYTE   En3
 BYTE   W06
 BYTE   N11  Gn3
 BYTE   W12
 BYTE   TIE  En3
 BYTE   W32
 BYTE   W01
// 061   ----------------------------------------
 BYTE   W80
 BYTE   EOT
 BYTE   W01
 BYTE   N11  En4
 BYTE   W12
 BYTE   Dn4
 BYTE   W03
// 062   ----------------------------------------
 BYTE   W09
 BYTE   N05  Cn4
 BYTE   W06
 BYTE   Gn3
 BYTE   W06
 BYTE   En3
 BYTE   W06
 BYTE   N11  Gn3
 BYTE   W12
 BYTE   N28  Cn4
 BYTE   W30
 BYTE   N80  Dn4
 BYTE   W24
 BYTE   W03
// 063   ----------------------------------------
 BYTE   W56
 BYTE   W01
 BYTE   N11  En4
 BYTE   W12
 BYTE   Dn4
 BYTE   W12
 BYTE   N05  Cn4
 BYTE   W06
 BYTE   Gn3
 BYTE   W06
 BYTE   En3
 BYTE   W03
// 064   ----------------------------------------
 BYTE   W03
 BYTE   N11  Gn3
 BYTE   W12
 BYTE   TIE  En3
 BYTE   W80
 BYTE   W01
// 065   ----------------------------------------
 BYTE   W32
 BYTE   EOT
 BYTE   W01
 BYTE   N11  En4
 BYTE   W12
 BYTE   Dn4
 BYTE   W12
 BYTE   N05  Cn4
 BYTE   W06
 BYTE   Gn3
 BYTE   W06
 BYTE   En3
 BYTE   W06
 BYTE   N11  Gn3
 BYTE   W12
 BYTE   N28  Cn4
 BYTE   W09
// 066   ----------------------------------------
 BYTE   W21
 BYTE   N80  Dn4
 BYTE   W72
 BYTE   W03
// 067   ----------------------------------------
 BYTE   W09
 BYTE   As3
 BYTE   W84
 BYTE   An3
 BYTE   W03
// 068   ----------------------------------------
 BYTE   W80
 BYTE   W01
 BYTE   Gs3
 BYTE   W15
// 069   ----------------------------------------
 BYTE   W68
 BYTE   W01
 BYTE   Gn3
 BYTE   W24
 BYTE   W03
// 070   ----------------------------------------
 BYTE   W56
 BYTE   W02
 BYTE   VOICE   19
 BYTE   VOL   60*B1EndingMedley_mvl/mxv
 BYTE   PAN   c_v+25
 BYTE   N23  En3
 BYTE   W24
 BYTE   N07  Cn3  v096
 BYTE   W08
 BYTE   Dn3  v104
 BYTE   W06
// 071   ----------------------------------------
 BYTE   W02
 BYTE   En3  v108
 BYTE   W08
 BYTE   N23  En3  v104
 BYTE   W24
 BYTE   N07  Cn3  v096
 BYTE   W08
 BYTE   Dn3  v104
 BYTE   W08
 BYTE   En3  v108
 BYTE   W08
 BYTE   N23  En3  v104
 BYTE   W24
 BYTE   N07  Cn3  v096
 BYTE   W08
 BYTE   En3  v104
 BYTE   W06
// 072   ----------------------------------------
 BYTE   W02
 BYTE   Gn3  v108
 BYTE   W08
 BYTE   N32  Cn4  v104
 BYTE   W36
 BYTE   N11  Gn3
 BYTE   W12
 BYTE   N23  Cn4
 BYTE   W32
 BYTE   N07  Gn3
 BYTE   W06
// 073   ----------------------------------------
 BYTE   W02
 BYTE   En3  v108
 BYTE   W08
 BYTE   N32  Fn3  v104
 BYTE   W36
 BYTE   N11  Gn3
 BYTE   W12
 BYTE   N23  An3
 BYTE   W24
 BYTE   Fn3
 BYTE   W14
// 074   ----------------------------------------
 BYTE   W10
 BYTE   N44  Bn3
 BYTE   W48
 BYTE   N03  Gn3
 BYTE   W06
 BYTE   N02  En3  v108
 BYTE   W03
 BYTE   Dn3  v092
 BYTE   W03
 BYTE   N16  Cn3  v104
 BYTE   W18
 BYTE   N02  Cn3  v108
 BYTE   W03
 BYTE   Dn3  v092
 BYTE   W03
 BYTE   N03  En3  v104
 BYTE   W02
// 075   ----------------------------------------
 BYTE   W04
 BYTE   Gn3
 BYTE   W06
 BYTE   N05  Gn3  v108
 BYTE   W09
 BYTE   N02  En3  v092
 BYTE   W03
 BYTE   N32  En3  v104
 BYTE   W36
 BYTE   N03  Gn3
 BYTE   W06
 BYTE   N02  En3  v108
 BYTE   W03
 BYTE   Dn3  v092
 BYTE   W03
 BYTE   N16  Cn3  v104
 BYTE   W18
 BYTE   N02  Cn3  v108
 BYTE   W03
 BYTE   Dn3  v092
 BYTE   W03
 BYTE   N03  En3  v104
 BYTE   W02
// 076   ----------------------------------------
 BYTE   W04
 BYTE   Gn3
 BYTE   W06
 BYTE   N32  Cn4  v108
 BYTE   W36
 BYTE   N11  Gn3  v104
 BYTE   W12
 BYTE   N32  Cn4  v108
 BYTE   W36
 BYTE   N11  Gn3  v104
 BYTE   W02
// 077   ----------------------------------------
 BYTE   W10
 BYTE   N02  Fn3
 BYTE   W03
 BYTE   Cn3  v092
 BYTE   W03
 BYTE   Fn3  v096
 BYTE   W03
 BYTE   An3  v092
 BYTE   W03
 BYTE   Cn4  v108
 BYTE   W03
 BYTE   Fn3  v096
 BYTE   W03
 BYTE   An3  v104
 BYTE   W03
 BYTE   Cn4  v096
 BYTE   W03
 BYTE   Fn4  v116
 BYTE   W03
 BYTE   An3  v104
 BYTE   W03
 BYTE   Cn4  v108
 BYTE   W03
 BYTE   Fn4  v104
 BYTE   W03
 BYTE   An4  v124
 BYTE   W03
 BYTE   Cn4  v108
 BYTE   W03
 BYTE   Fn4  v116
 BYTE   W03
 BYTE   An4  v108
 BYTE   W03
 BYTE   N11  Cn5  v092
 BYTE   W12
 BYTE   Fn4  v096
 BYTE   W12
 BYTE   Cn4  v104
 BYTE   W12
 BYTE   An3
 BYTE   W02
// 078   ----------------------------------------
 BYTE   W10
 BYTE   N05  Gn2  v108
 BYTE   W06
 BYTE   Cn3  v096
 BYTE   W06
 BYTE   Dn3  v108
 BYTE   W06
 BYTE   Fn3  v104
 BYTE   W06
 BYTE   Gn3  v116
 BYTE   W06
 BYTE   Cn4  v104
 BYTE   W06
 BYTE   Dn4  v116
 BYTE   W06
 BYTE   Fn4  v108
 BYTE   W06
 BYTE   N44  Bn3  v104
 BYTE   W36
 BYTE   W02
// 079   ----------------------------------------
 BYTE   W10
 BYTE   VOICE   41
 BYTE   VOL   50*B1EndingMedley_mvl/mxv
 BYTE   PAN   c_v-25
 BYTE   W12
 BYTE   N03  Cn3  v108
 BYTE   W04
 BYTE   Ds3  v092
 BYTE   W04
 BYTE   Gn3
 BYTE   W04
 BYTE   N21  Cn4  v104
 BYTE   W36
 BYTE   N03  Cn3  v108
 BYTE   W04
 BYTE   En3  v092
 BYTE   W04
 BYTE   As3
 BYTE   W04
 BYTE   N21  Dn4  v104
 BYTE   W14
// 080   ----------------------------------------
 BYTE   W22
 BYTE   N03  Ds3  v108
 BYTE   W04
 BYTE   Gn3  v092
 BYTE   W04
 BYTE   As3
 BYTE   W04
 BYTE   N21  Ds4  v104
 BYTE   W36
 BYTE   N03  Fn3  v108
 BYTE   W04
 BYTE   As3  v092
 BYTE   W04
 BYTE   Dn4
 BYTE   W04
 BYTE   N21  Fn4  v104
 BYTE   W14
// 081   ----------------------------------------
 BYTE   W22
 BYTE   PAN   c_v-14
 BYTE   En2
 BYTE   N03  Cn3  v108
 BYTE   W01
 BYTE   PAN   c_v-10
 BYTE   W01
 BYTE   An2
 BYTE   W01
 BYTE   Bn2
 BYTE   W01
 BYTE   Cs3
 BYTE   N03  En3  v092
 BYTE   W01
 BYTE   PAN   c_v-1
 BYTE   W01
 BYTE   Fn3
 BYTE   W01
 BYTE   Gn3
 BYTE   W01
 BYTE   As3
 BYTE   N03  Gn3
 BYTE   W01
 BYTE   PAN   c_v+8
 BYTE   W01
 BYTE   Dn4
 BYTE   W01
 BYTE   En4
 BYTE   W01
 BYTE   Fs4
 BYTE   N21  Cn4  v104
 BYTE   W01
 BYTE   PAN   c_v+16
 BYTE   W01
 BYTE   Bn4
 BYTE   W01
 BYTE   Cs5
 BYTE   W01
 BYTE   Ds5
 BYTE   W01
 BYTE   Fn5
 BYTE   W30
 BYTE   W01
 BYTE   Dn2  v052
 BYTE   N03  Cn3  v108
 BYTE   W01
 BYTE   PAN   c_v-10
 BYTE   W01
 BYTE   An2
 BYTE   W01
 BYTE   Bn2
 BYTE   W01
 BYTE   Cs3
 BYTE   N03  En3  v092
 BYTE   W01
 BYTE   PAN   c_v-1
 BYTE   W01
 BYTE   Fn3
 BYTE   W01
 BYTE   Gn3
 BYTE   W01
 BYTE   As3
 BYTE   N03  Gn3
 BYTE   W01
 BYTE   PAN   c_v+8
 BYTE   W01
 BYTE   Dn4
 BYTE   W01
 BYTE   En4
 BYTE   W01
 BYTE   Fs4
 BYTE   N21  Cn4  v104
 BYTE   W01
 BYTE   PAN   c_v+16
 BYTE   W01
 BYTE   Bn4
 BYTE   W01
 BYTE   Cs5
 BYTE   W01
 BYTE   Ds5
 BYTE   W01
 BYTE   Fn5
 BYTE   W09
// 082   ----------------------------------------
 BYTE   W22
 BYTE   Dn2  v052
 BYTE   N03  Cn3  v108
 BYTE   W01
 BYTE   PAN   c_v-10
 BYTE   W01
 BYTE   An2
 BYTE   W01
 BYTE   Bn2
 BYTE   W01
 BYTE   Cs3
 BYTE   N03  En3  v092
 BYTE   W01
 BYTE   PAN   c_v-1
 BYTE   W01
 BYTE   Fn3
 BYTE   W01
 BYTE   Gn3
 BYTE   W01
 BYTE   As3
 BYTE   N03  Gn3
 BYTE   W01
 BYTE   PAN   c_v+8
 BYTE   W01
 BYTE   Dn4
 BYTE   W01
 BYTE   En4
 BYTE   W01
 BYTE   Fs4
 BYTE   N21  Cn4  v104
 BYTE   W01
 BYTE   PAN   c_v+16
 BYTE   W01
 BYTE   Bn4
 BYTE   W01
 BYTE   Cs5
 BYTE   W01
 BYTE   Ds5
 BYTE   W01
 BYTE   Fn5
 BYTE   W30
 BYTE   W01
 BYTE   N03  Cn3  v108
 BYTE   W04
 BYTE   Fn3  v092
 BYTE   W04
 BYTE   Gn3
 BYTE   W04
 BYTE   N11  Cn4  v096
 BYTE   W12
 BYTE   Bn3  v124
 BYTE   W02
// 083   ----------------------------------------
 BYTE   W10
 BYTE   VOICE   19
 BYTE   VOL   60*B1EndingMedley_mvl/mxv
 BYTE   PAN   c_v-14
 BYTE   N44  En3  v084
 BYTE   W48
 BYTE   Fn3
 BYTE   W36
 BYTE   W02
// 084   ----------------------------------------
 BYTE   W10
 BYTE   N32  Gn3
 BYTE   W36
 BYTE   N11  Dn3  v076
 BYTE   W12
 BYTE   N44  En3  v084
 BYTE   W36
 BYTE   W02
// 085   ----------------------------------------
 BYTE   W10
 BYTE   N23
 BYTE   W24
 BYTE   An3
 BYTE   W24
 BYTE   Gn3
 BYTE   W24
 BYTE   Dn3
 BYTE   W14
// 086   ----------------------------------------
 BYTE   W10
 BYTE   Cn3
 BYTE   W24
 BYTE   En3
 BYTE   W24
 BYTE   N32  Bn2
 BYTE   W36
 BYTE   N05  Cn3  v092
 BYTE   W02
// 087   ----------------------------------------
 BYTE   W04
 BYTE   Bn2  v076
 BYTE   W06
 BYTE   N11  An2  v080
 BYTE   W12
 BYTE   Cn3  v084
 BYTE   W12
 BYTE   Fn3  v088
 BYTE   W12
 BYTE   An3  v092
 BYTE   W12
 BYTE   N23  Bn3  v096
 BYTE   W24
 BYTE   Gn3  v100
 BYTE   W14
// 088   ----------------------------------------
 BYTE   W10
 BYTE   N92  Cs4  v104
 BYTE   W84
 BYTE   W02
// 089   ----------------------------------------
 BYTE   W09
 BYTE   FINE

//**************** Track 4 (Midi-Chn.3) ****************//

B1EndingMedley_004:
// 000   ----------------------------------------
 BYTE   KEYSH   B1EndingMedley_key+0
 BYTE   W06
 BYTE   VOICE   41
 BYTE   VOL   10*B1EndingMedley_mvl/mxv
 BYTE   PAN   c_v-49
 BYTE   N03  As2  v104
 BYTE   W04
 BYTE   Dn3  v092
 BYTE   W04
 BYTE   Fn3
 BYTE   W04
 BYTE   N20  As3  v096
 BYTE   W24
 BYTE   N03  As2  v104
 BYTE   W04
 BYTE   Dn3  v092
 BYTE   W04
 BYTE   Fn3
 BYTE   W04
 BYTE   N15  As3  v096
 BYTE   W18
 BYTE   N03  Dn3
 BYTE   W06
 BYTE   As2
 BYTE   W06
 BYTE   Dn3
 BYTE   W06
 BYTE   N16  Fn3
 BYTE   W06
// 001   ----------------------------------------
 BYTE   W12
 BYTE   N03  Dn3
 BYTE   W06
 BYTE   As2
 BYTE   W06
 BYTE   Dn3
 BYTE   W06
 BYTE   N56  Fn3
 BYTE   W66
// 002   ----------------------------------------
 BYTE   W05
 BYTE   VOICE   42
 BYTE   VOL   60*B1EndingMedley_mvl/mxv
 BYTE   PAN   c_v+25
 BYTE   N23  Fn3  v104
 BYTE   W24
 BYTE   N11
 BYTE   W12
 BYTE   N05  Gn3
 BYTE   W06
 BYTE   An3
 BYTE   W06
 BYTE   N11  As3
 BYTE   W12
 BYTE   N05  An3
 BYTE   W06
 BYTE   Gn3
 BYTE   W06
 BYTE   N11  An3
 BYTE   W12
 BYTE   Fn3
 BYTE   W07
// 003   ----------------------------------------
Label_3_0109AD9B:
 BYTE   W05
 BYTE   N23  Fn3  v104
 BYTE   W24
 BYTE   N11
 BYTE   W12
 BYTE   N05  An3
 BYTE   W06
 BYTE   Cn4
 BYTE   W06
 BYTE   N11  Fn4
 BYTE   W12
 BYTE   N05  En4
 BYTE   W06
 BYTE   Dn4
 BYTE   W06
 BYTE   N23  Cn4
 BYTE   W19
 BYTE   PEND 
// 004   ----------------------------------------
Label_3_0109ADB3:
 BYTE   W05
 BYTE   N23  Fn3  v104
 BYTE   W24
 BYTE   N11
 BYTE   W12
 BYTE   N05  Gn3
 BYTE   W06
 BYTE   An3
 BYTE   W06
 BYTE   N11  As3
 BYTE   W12
 BYTE   N05  An3
 BYTE   W06
 BYTE   Gn3
 BYTE   W06
 BYTE   N11  An3
 BYTE   W12
 BYTE   Fn3
 BYTE   W07
 BYTE   PEND 
 BYTE   PATT
  POIN2 Label_3_0109AD9B
// 005   ----------------------------------------
 BYTE   W17
 BYTE   N03  As2  v108
 BYTE   W04
 BYTE   Dn3  v096
 BYTE   W04
 BYTE   Fn3
 BYTE   W04
 BYTE   N23  As3  v104
 BYTE   W24
 BYTE   An3
 BYTE   W24
 BYTE   Fn3
 BYTE   W19
// 006   ----------------------------------------
 BYTE   W05
 BYTE   Gn3
 BYTE   W30
 BYTE   N05  Ds3  v108
 BYTE   W06
 BYTE   Fn3  v096
 BYTE   W06
 BYTE   Gn3
 BYTE   W06
 BYTE   N44  En3  v104
 BYTE   W42
 BYTE   W01
 BYTE   PATT
  POIN2 Label_3_0109ADB3
 BYTE   PATT
  POIN2 Label_3_0109AD9B
 BYTE   PATT
  POIN2 Label_3_0109ADB3
 BYTE   PATT
  POIN2 Label_3_0109AD9B
// 007   ----------------------------------------
 BYTE   W05
 BYTE   N44  Fn3  v104
 BYTE   W48
 BYTE   En3
 BYTE   W42
 BYTE   W01
// 008   ----------------------------------------
 BYTE   W05
 BYTE   Fn3
 BYTE   W48
 BYTE   N92  En3
 BYTE   W42
 BYTE   W01
// 009   ----------------------------------------
 BYTE   W52
 BYTE   W01
 BYTE   N44  Gn3
 BYTE   W42
 BYTE   W01
// 010   ----------------------------------------
 BYTE   W05
 BYTE   N32  As3
 BYTE   W36
 BYTE   N03  An3  v116
 BYTE   W04
 BYTE   An3  v060
 BYTE   W04
 BYTE   An3  v044
 BYTE   W04
 BYTE   An3  v116
 BYTE   W04
 BYTE   An3  v060
 BYTE   W04
 BYTE   An3  v044
 BYTE   W04
 BYTE   An3  v116
 BYTE   W04
 BYTE   An3  v060
 BYTE   W04
 BYTE   An3  v044
 BYTE   W04
 BYTE   An3  v116
 BYTE   W04
 BYTE   An3  v060
 BYTE   W04
 BYTE   An3  v044
 BYTE   W04
 BYTE   An3  v116
 BYTE   W04
 BYTE   An3  v060
 BYTE   W03
// 011   ----------------------------------------
Label_3_0109AE4D:
 BYTE   W01
 BYTE   N03  An3  v044
 BYTE   W04
 BYTE   An3  v116
 BYTE   W04
 BYTE   An3  v060
 BYTE   W04
 BYTE   An3  v044
 BYTE   W04
 BYTE   An3  v116
 BYTE   W04
 BYTE   An3  v060
 BYTE   W04
 BYTE   An3  v044
 BYTE   W04
 BYTE   N23  An3  v116
 BYTE   W24
 BYTE   N03
 BYTE   W04
 BYTE   An3  v060
 BYTE   W04
 BYTE   An3  v044
 BYTE   W04
 BYTE   An3  v116
 BYTE   W04
 BYTE   An3  v060
 BYTE   W04
 BYTE   An3  v044
 BYTE   W04
 BYTE   An3  v116
 BYTE   W04
 BYTE   An3  v060
 BYTE   W04
 BYTE   An3  v044
 BYTE   W04
 BYTE   An3  v116
 BYTE   W04
 BYTE   An3  v060
 BYTE   W03
 BYTE   PEND 
// 012   ----------------------------------------
 BYTE   W01
 BYTE   An3  v044
 BYTE   W04
 BYTE   Dn4  v116
 BYTE   W04
 BYTE   Dn4  v060
 BYTE   W04
 BYTE   Dn4  v044
 BYTE   W04
 BYTE   Dn4  v116
 BYTE   W04
 BYTE   Dn4  v060
 BYTE   W04
 BYTE   Dn4  v044
 BYTE   W04
 BYTE   N23  En4  v116
 BYTE   W24
 BYTE   N03  An3
 BYTE   W04
 BYTE   An3  v060
 BYTE   W04
 BYTE   An3  v044
 BYTE   W04
 BYTE   An3  v116
 BYTE   W04
 BYTE   An3  v060
 BYTE   W04
 BYTE   An3  v044
 BYTE   W04
 BYTE   An3  v116
 BYTE   W04
 BYTE   An3  v060
 BYTE   W04
 BYTE   An3  v044
 BYTE   W04
 BYTE   An3  v116
 BYTE   W04
 BYTE   An3  v060
 BYTE   W03
 BYTE   PATT
  POIN2 Label_3_0109AE4D
// 013   ----------------------------------------
 BYTE   W01
 BYTE   N03  An3  v044
 BYTE   W04
 BYTE   Dn4  v116
 BYTE   W04
 BYTE   Dn4  v060
 BYTE   W04
 BYTE   Dn4  v044
 BYTE   W04
 BYTE   Dn4  v116
 BYTE   W04
 BYTE   Dn4  v060
 BYTE   W04
 BYTE   Dn4  v044
 BYTE   W04
 BYTE   N23  Cn4  v116
 BYTE   W24
 BYTE   VOICE   56
 BYTE   VOL   60*B1EndingMedley_mvl/mxv
 BYTE   PAN   c_v+14
 BYTE   N03  Fn3  v092
 BYTE   W04
 BYTE   Cn3  v076
 BYTE   W04
 BYTE   Gn3  v092
 BYTE   W04
 BYTE   Cn3  v076
 BYTE   W04
 BYTE   Fn3  v092
 BYTE   W04
 BYTE   Cn3  v076
 BYTE   W04
 BYTE   Fn3  v092
 BYTE   W04
 BYTE   Cn3  v076
 BYTE   W04
 BYTE   Gn3  v092
 BYTE   W04
 BYTE   Cn3  v076
 BYTE   W04
 BYTE   Fn3  v092
 BYTE   W03
// 014   ----------------------------------------
 BYTE   W01
 BYTE   Cn3  v076
 BYTE   W04
 BYTE   Fn3  v092
 BYTE   W04
 BYTE   Cn3  v076
 BYTE   W04
 BYTE   Gn3  v092
 BYTE   W04
 BYTE   Cn3  v076
 BYTE   W04
 BYTE   Fn3  v092
 BYTE   W04
 BYTE   Cn3  v076
 BYTE   W04
 BYTE   Fn3  v092
 BYTE   W04
 BYTE   Cn3  v076
 BYTE   W04
 BYTE   Gn3  v092
 BYTE   W04
 BYTE   Cn3  v076
 BYTE   W04
 BYTE   Fn3  v092
 BYTE   W04
 BYTE   Cn3  v076
 BYTE   W04
 BYTE   Fn3  v092
 BYTE   W04
 BYTE   Cn3  v076
 BYTE   W04
 BYTE   Gn3  v092
 BYTE   W04
 BYTE   Cn3  v076
 BYTE   W04
 BYTE   Fn3  v092
 BYTE   W04
 BYTE   Cn3  v076
 BYTE   W04
 BYTE   Fn3  v092
 BYTE   W04
 BYTE   Cn3  v076
 BYTE   W04
 BYTE   Gn3  v092
 BYTE   W04
 BYTE   Cn3  v076
 BYTE   W04
 BYTE   Fn3  v092
 BYTE   W03
// 015   ----------------------------------------
 BYTE   W01
 BYTE   Cn3  v076
 BYTE   W04
 BYTE   Fn3  v092
 BYTE   W04
 BYTE   Cn3  v076
 BYTE   W04
 BYTE   Gn3  v092
 BYTE   W04
 BYTE   Cn3  v076
 BYTE   W04
 BYTE   Fn3  v092
 BYTE   W04
 BYTE   Cn3  v076
 BYTE   W04
 BYTE   Fn3  v092
 BYTE   W04
 BYTE   Cn3  v076
 BYTE   W04
 BYTE   Cn4  v092
 BYTE   W04
 BYTE   Gn3  v076
 BYTE   W04
 BYTE   En3  v092
 BYTE   W04
 BYTE   Cn3  v076
 BYTE   W05
 BYTE   VOICE   56
 BYTE   VOL   60*B1EndingMedley_mvl/mxv
 BYTE   PAN   c_v+25
 BYTE   N03  Fn4  v104
 BYTE   W06
 BYTE   N02  Cn4  v108
 BYTE   W03
 BYTE   As3  v092
 BYTE   W03
 BYTE   N16  An3  v104
 BYTE   W18
 BYTE   N02  An3  v108
 BYTE   W03
 BYTE   As3  v092
 BYTE   W03
 BYTE   N03  Cn4  v104
 BYTE   W06
// 016   ----------------------------------------
 BYTE   Fn4
 BYTE   W06
 BYTE   N05  Fn4  v108
 BYTE   W09
 BYTE   N02  Cn4  v092
 BYTE   W03
 BYTE   N32  Cn4  v104
 BYTE   W36
 BYTE   N03  Fn4
 BYTE   W06
 BYTE   N02  Cn4  v108
 BYTE   W03
 BYTE   As3  v092
 BYTE   W03
 BYTE   N16  An3  v104
 BYTE   W18
 BYTE   N02  An3  v108
 BYTE   W03
 BYTE   As3  v092
 BYTE   W03
 BYTE   N03  Cn4  v104
 BYTE   W06
// 017   ----------------------------------------
 BYTE   Fn4
 BYTE   W06
 BYTE   N05  An4  v108
 BYTE   W09
 BYTE   N02  As4  v092
 BYTE   W03
 BYTE   N32  Gn4  v104
 BYTE   W36
 BYTE   VOICE   41
 BYTE   VOL   50*B1EndingMedley_mvl/mxv
 BYTE   PAN   c_v-14
 BYTE   N11  Cn3
 BYTE   W42
// 018   ----------------------------------------
 BYTE   W96
// 019   ----------------------------------------
 BYTE   W96
// 020   ----------------------------------------
 BYTE   W96
// 021   ----------------------------------------
 BYTE   W78
 BYTE   VOICE   56
 BYTE   VOL   37*B1EndingMedley_mvl/mxv
 BYTE   PAN   c_v+0
 BYTE   Ds3
 BYTE   N02  Fn3
 BYTE   W01
 BYTE   PAN   c_v-4
 BYTE   W01
 BYTE   An2
 BYTE   W01
 BYTE   Fs2
 BYTE   N02  As3  v096
 BYTE   W01
 BYTE   PAN   c_v-13
 BYTE   W01
 BYTE   Cn2
 BYTE   W01
 BYTE   As1
 BYTE   N02  Cn4  v104
 BYTE   W01
 BYTE   PAN   c_v-21
 BYTE   W01
 BYTE   En1
 BYTE   W01
 BYTE   Cs1
 BYTE   N02  Fn4  v092
 BYTE   W01
 BYTE   PAN   c_v-30
 BYTE   W01
 BYTE   Gn0
 BYTE   W01
 BYTE   Gn0
 BYTE   N02  Fn3  v104
 BYTE   W01
 BYTE   PAN   c_v-30
 BYTE   W01
 BYTE   Cs1
 BYTE   W01
 BYTE   En1
 BYTE   N02  As3  v096
 BYTE   W01
 BYTE   PAN   c_v-21
 BYTE   W01
 BYTE   As1
 BYTE   W01
// 022   ----------------------------------------
Label_3_0109B020:
 BYTE   PAN   c_v-16
 BYTE   N02  Cn4  v104
 BYTE   W01
 BYTE   PAN   c_v-13
 BYTE   W01
 BYTE   Fs2
 BYTE   W01
 BYTE   An2
 BYTE   N02  Fn4  v092
 BYTE   W01
 BYTE   PAN   c_v-4
 BYTE   W01
 BYTE   Ds3
 BYTE   W01
 BYTE   Fn3
 BYTE   N02  Fn3  v104
 BYTE   W01
 BYTE   PAN   c_v+4
 BYTE   W01
 BYTE   Bn3
 BYTE   W01
 BYTE   Dn4
 BYTE   N02  As3  v096
 BYTE   W01
 BYTE   PAN   c_v+13
 BYTE   W01
 BYTE   Gs4
 BYTE   W01
 BYTE   As4
 BYTE   N02  Cn4  v104
 BYTE   W01
 BYTE   PAN   c_v+21
 BYTE   W01
 BYTE   En5
 BYTE   W01
 BYTE   Gn5
 BYTE   N02  Fn4  v092
 BYTE   W01
 BYTE   PAN   c_v+30
 BYTE   W01
 BYTE   Cs6
 BYTE   W01
 BYTE   Cs6
 BYTE   N02  Fn3  v104
 BYTE   W01
 BYTE   PAN   c_v+30
 BYTE   W01
 BYTE   Gn5
 BYTE   W01
 BYTE   En5
 BYTE   N02  As3  v096
 BYTE   W01
 BYTE   PAN   c_v+21
 BYTE   W01
 BYTE   As4
 BYTE   W01
 BYTE   Gs4
 BYTE   N02  Cn4  v104
 BYTE   W01
 BYTE   PAN   c_v+13
 BYTE   W01
 BYTE   Dn4
 BYTE   W01
 BYTE   Bn3
 BYTE   N02  Fn4  v092
 BYTE   W01
 BYTE   PAN   c_v+4
 BYTE   W01
 BYTE   Fn3
 BYTE   W01
 BYTE   Ds3
 BYTE   N02  Fn3  v104
 BYTE   W01
 BYTE   PAN   c_v-4
 BYTE   W01
 BYTE   An2
 BYTE   W01
 BYTE   Fs2
 BYTE   N02  As3  v096
 BYTE   W01
 BYTE   PAN   c_v-13
 BYTE   W01
 BYTE   Cn2
 BYTE   W01
 BYTE   As1
 BYTE   N02  Cn4  v104
 BYTE   W01
 BYTE   PAN   c_v-21
 BYTE   W01
 BYTE   En1
 BYTE   W01
 BYTE   Cs1
 BYTE   N02  Fn4  v092
 BYTE   W01
 BYTE   PAN   c_v-30
 BYTE   W01
 BYTE   Gn0
 BYTE   W01
 BYTE   Gn0
 BYTE   N02  Fn3  v104
 BYTE   W01
 BYTE   PAN   c_v-30
 BYTE   W01
 BYTE   Cs1
 BYTE   W01
 BYTE   En1
 BYTE   N02  As3  v096
 BYTE   W01
 BYTE   PAN   c_v-21
 BYTE   W01
 BYTE   As1
 BYTE   W01
 BYTE   Cn2
 BYTE   N02  Cn4  v104
 BYTE   W01
 BYTE   PAN   c_v-13
 BYTE   W01
 BYTE   Fs2
 BYTE   W01
 BYTE   An2
 BYTE   N02  Fn4  v092
 BYTE   W01
 BYTE   PAN   c_v-4
 BYTE   W01
 BYTE   Ds3
 BYTE   W01
 BYTE   Fn3
 BYTE   N02  Fn3  v104
 BYTE   W01
 BYTE   PAN   c_v+4
 BYTE   W01
 BYTE   Bn3
 BYTE   W01
 BYTE   Dn4
 BYTE   N02  As3  v096
 BYTE   W01
 BYTE   PAN   c_v+13
 BYTE   W01
 BYTE   Gs4
 BYTE   W01
 BYTE   As4
 BYTE   N02  Cn4  v104
 BYTE   W01
 BYTE   PAN   c_v+21
 BYTE   W01
 BYTE   En5
 BYTE   W01
 BYTE   Gn5
 BYTE   N02  Fn4  v092
 BYTE   W01
 BYTE   PAN   c_v+30
 BYTE   W01
 BYTE   Cs6
 BYTE   W01
 BYTE   Cs6
 BYTE   N02  Fn3  v104
 BYTE   W01
 BYTE   PAN   c_v+30
 BYTE   W01
 BYTE   Gn5
 BYTE   W01
 BYTE   En5
 BYTE   N02  As3  v096
 BYTE   W01
 BYTE   PAN   c_v+21
 BYTE   W01
 BYTE   As4
 BYTE   W01
 BYTE   Gs4
 BYTE   N02  Cn4  v104
 BYTE   W01
 BYTE   PAN   c_v+13
 BYTE   W01
 BYTE   Dn4
 BYTE   W01
 BYTE   Bn3
 BYTE   N02  Fn4  v092
 BYTE   W01
 BYTE   PAN   c_v+4
 BYTE   W01
 BYTE   Fn3
 BYTE   W01
 BYTE   Ds3
 BYTE   N02  Fn3  v104
 BYTE   W01
 BYTE   PAN   c_v-4
 BYTE   W01
 BYTE   An2
 BYTE   W01
 BYTE   Fs2
 BYTE   N02  As3  v096
 BYTE   W01
 BYTE   PAN   c_v-13
 BYTE   W01
 BYTE   Cn2
 BYTE   W01
 BYTE   As1
 BYTE   N02  Cn4  v104
 BYTE   W01
 BYTE   PAN   c_v-21
 BYTE   W01
 BYTE   En1
 BYTE   W01
 BYTE   Cs1
 BYTE   N02  Fn4  v092
 BYTE   W01
 BYTE   PAN   c_v-30
 BYTE   W01
 BYTE   Gn0
 BYTE   W01
 BYTE   Gn0
 BYTE   N02  Fn3  v104
 BYTE   W01
 BYTE   PAN   c_v-30
 BYTE   W01
 BYTE   Cs1
 BYTE   W01
 BYTE   En1
 BYTE   N02  As3  v096
 BYTE   W01
 BYTE   PAN   c_v-21
 BYTE   W01
 BYTE   As1
 BYTE   W01
 BYTE   PEND 
 BYTE   PATT
  POIN2 Label_3_0109B020
 BYTE   PATT
  POIN2 Label_3_0109B020
 BYTE   PATT
  POIN2 Label_3_0109B020
 BYTE   PATT
  POIN2 Label_3_0109B020
 BYTE   PATT
  POIN2 Label_3_0109B020
 BYTE   PATT
  POIN2 Label_3_0109B020
// 023   ----------------------------------------
 BYTE   PAN   c_v-16
 BYTE   N02  Cn4  v104
 BYTE   W01
 BYTE   PAN   c_v-13
 BYTE   W01
 BYTE   Fs2
 BYTE   W01
 BYTE   An2
 BYTE   N02  Fn4  v092
 BYTE   W01
 BYTE   PAN   c_v-4
 BYTE   W01
 BYTE   Ds3
 BYTE   W01
 BYTE   Fn3
 BYTE   N02  Fn3  v104
 BYTE   W01
 BYTE   PAN   c_v+4
 BYTE   W01
 BYTE   Bn3
 BYTE   W01
 BYTE   Dn4
 BYTE   N02  As3  v096
 BYTE   W01
 BYTE   PAN   c_v+13
 BYTE   W01
 BYTE   Gs4
 BYTE   W01
 BYTE   As4
 BYTE   N02  Cn4  v104
 BYTE   W01
 BYTE   PAN   c_v+21
 BYTE   W01
 BYTE   En5
 BYTE   W01
 BYTE   Gn5
 BYTE   N02  Fn4  v092
 BYTE   W01
 BYTE   PAN   c_v+30
 BYTE   W01
 BYTE   Cs6
 BYTE   W01
 BYTE   Cs6
 BYTE   N02  Fn3  v104
 BYTE   W01
 BYTE   PAN   c_v+30
 BYTE   W01
 BYTE   Gn5
 BYTE   W01
 BYTE   En5
 BYTE   N02  As3  v096
 BYTE   W01
 BYTE   PAN   c_v+21
 BYTE   W01
 BYTE   As4
 BYTE   W01
 BYTE   Gs4
 BYTE   N02  Cn4  v104
 BYTE   W01
 BYTE   PAN   c_v+13
 BYTE   W01
 BYTE   Dn4
 BYTE   W01
 BYTE   Bn3
 BYTE   N02  Fn4  v092
 BYTE   W01
 BYTE   PAN   c_v+4
 BYTE   W01
 BYTE   Fn3
 BYTE   W01
 BYTE   Ds3
 BYTE   N02  Fn3  v104
 BYTE   W01
 BYTE   PAN   c_v-4
 BYTE   W01
 BYTE   An2
 BYTE   W01
 BYTE   Fs2
 BYTE   N02  As3  v096
 BYTE   W01
 BYTE   PAN   c_v-13
 BYTE   W01
 BYTE   Cn2
 BYTE   W01
 BYTE   As1
 BYTE   N02  Cn4  v104
 BYTE   W01
 BYTE   PAN   c_v-21
 BYTE   W01
 BYTE   En1
 BYTE   W01
 BYTE   Cs1
 BYTE   N02  Fn4  v092
 BYTE   W01
 BYTE   PAN   c_v-30
 BYTE   W01
 BYTE   Gn0
 BYTE   W01
 BYTE   Gn0
 BYTE   N02  Fn3  v104
 BYTE   W01
 BYTE   PAN   c_v-30
 BYTE   W01
 BYTE   Cs1
 BYTE   W01
 BYTE   En1
 BYTE   N02  As3  v096
 BYTE   W01
 BYTE   PAN   c_v-21
 BYTE   W01
 BYTE   As1
 BYTE   W01
 BYTE   Cn2
 BYTE   N02  Cn4  v104
 BYTE   W01
 BYTE   PAN   c_v-13
 BYTE   W01
 BYTE   Fs2
 BYTE   W01
 BYTE   An2
 BYTE   N02  Fn4  v092
 BYTE   W01
 BYTE   PAN   c_v-4
 BYTE   W01
 BYTE   Ds3
 BYTE   W01
 BYTE   Fn3
 BYTE   N02  Fn3  v104
 BYTE   W01
 BYTE   PAN   c_v+4
 BYTE   W01
 BYTE   Bn3
 BYTE   W01
 BYTE   Dn4
 BYTE   N02  As3  v096
 BYTE   W01
 BYTE   PAN   c_v+13
 BYTE   W01
 BYTE   Gs4
 BYTE   W01
 BYTE   As4
 BYTE   N02  Cn4  v104
 BYTE   W01
 BYTE   PAN   c_v+21
 BYTE   W01
 BYTE   En5
 BYTE   W01
 BYTE   Gn5
 BYTE   N02  Fn4  v092
 BYTE   W01
 BYTE   PAN   c_v+30
 BYTE   W01
 BYTE   Cs6
 BYTE   W01
 BYTE   Cs6
 BYTE   N02  Fn3  v104
 BYTE   W01
 BYTE   PAN   c_v+30
 BYTE   W01
 BYTE   Gn5
 BYTE   W01
 BYTE   En5
 BYTE   N02  As3  v096
 BYTE   W01
 BYTE   PAN   c_v+21
 BYTE   W01
 BYTE   As4
 BYTE   W01
 BYTE   Gs4
 BYTE   N02  Cn4  v104
 BYTE   W01
 BYTE   PAN   c_v+13
 BYTE   W01
 BYTE   Dn4
 BYTE   W01
 BYTE   Bn3
 BYTE   N02  Fn4  v092
 BYTE   W01
 BYTE   PAN   c_v+4
 BYTE   W01
 BYTE   Fn3
 BYTE   W01
 BYTE   VOICE   41
 BYTE   PAN   c_v+0
 BYTE   Ds3
 BYTE   VOL   50*B1EndingMedley_mvl/mxv
 BYTE   PAN   c_v-14
 BYTE   N11  Cn3  v104
 BYTE   W01
 BYTE   PAN   c_v-4
 BYTE   W01
 BYTE   An2
 BYTE   W01
 BYTE   Fs2
 BYTE   W01
 BYTE   Ds2
 BYTE   W01
 BYTE   Cn2
 BYTE   W01
 BYTE   As1
 BYTE   W01
 BYTE   Gn1
 BYTE   W01
 BYTE   En1
 BYTE   W01
 BYTE   Cs1
 BYTE   W01
 BYTE   As0
 BYTE   W01
 BYTE   Gn0
 BYTE   W01
 BYTE   Fs0
 BYTE   W06
// 024   ----------------------------------------
 BYTE   W96
// 025   ----------------------------------------
 BYTE   W96
// 026   ----------------------------------------
 BYTE   W96
// 027   ----------------------------------------
 BYTE   W07
 BYTE   VOICE   41
 BYTE   VOL   60*B1EndingMedley_mvl/mxv
 BYTE   PAN   c_v+25
 BYTE   W03
 BYTE   N02  Gn4
 BYTE   W03
 BYTE   Gn4  v092
 BYTE   W06
 BYTE   Gn4  v104
 BYTE   W03
 BYTE   Gn4  v092
 BYTE   W06
 BYTE   Gn4  v104
 BYTE   W06
 BYTE   N02
 BYTE   W03
 BYTE   Gn4  v092
 BYTE   W06
 BYTE   Gn4  v104
 BYTE   W03
 BYTE   Gn4  v092
 BYTE   W06
 BYTE   Gn4  v104
 BYTE   W06
 BYTE   Fs4
 BYTE   W03
 BYTE   Fs4  v092
 BYTE   W06
 BYTE   Fs4  v104
 BYTE   W03
 BYTE   Fs4  v092
 BYTE   W06
 BYTE   Fs4  v104
 BYTE   W06
 BYTE   N02
 BYTE   W03
 BYTE   Fs4  v092
 BYTE   W06
 BYTE   Fs4  v104
 BYTE   W03
 BYTE   Fs4  v092
 BYTE   W02
// 028   ----------------------------------------
 BYTE   W04
 BYTE   Fs4  v104
 BYTE   W06
 BYTE   Gn4
 BYTE   W03
 BYTE   Gn4  v092
 BYTE   W06
 BYTE   Gn4  v104
 BYTE   W03
 BYTE   Gn4  v092
 BYTE   W06
 BYTE   Gn4  v104
 BYTE   W06
 BYTE   N02
 BYTE   W03
 BYTE   Gn4  v092
 BYTE   W06
 BYTE   Gn4  v104
 BYTE   W03
 BYTE   Gn4  v092
 BYTE   W06
 BYTE   Gn4  v104
 BYTE   W06
 BYTE   Fs4
 BYTE   W03
 BYTE   Fs4  v092
 BYTE   W06
 BYTE   Fs4  v104
 BYTE   W03
 BYTE   Fs4  v092
 BYTE   W06
 BYTE   Fs4  v104
 BYTE   W06
 BYTE   N02
 BYTE   W03
 BYTE   Fs4  v092
 BYTE   W06
 BYTE   Fs4  v104
 BYTE   W03
 BYTE   Fs4  v092
 BYTE   W02
// 029   ----------------------------------------
 BYTE   W04
 BYTE   Fs4  v104
 BYTE   W92
// 030   ----------------------------------------
 BYTE   W96
// 031   ----------------------------------------
 BYTE   W96
// 032   ----------------------------------------
 BYTE   W96
// 033   ----------------------------------------
 BYTE   W96
// 034   ----------------------------------------
 BYTE   W96
// 035   ----------------------------------------
 BYTE   W96
// 036   ----------------------------------------
 BYTE   W08
 BYTE   VOICE   41
 BYTE   VOL   60*B1EndingMedley_mvl/mxv
 BYTE   PAN   c_v+14
 BYTE   N02  Dn3  v108
 BYTE   W04
 BYTE   Dn3  v092
 BYTE   W04
 BYTE   N02
 BYTE   W04
 BYTE   N10  Gn3  v104
 BYTE   W12
 BYTE   N02  Dn3  v108
 BYTE   W04
 BYTE   Dn3  v092
 BYTE   W04
 BYTE   N02
 BYTE   W04
 BYTE   N10  Gn3  v104
 BYTE   W12
 BYTE   N02  Dn3  v108
 BYTE   W04
 BYTE   Dn3  v092
 BYTE   W04
 BYTE   N02
 BYTE   W04
 BYTE   N10  Gn3  v104
 BYTE   W12
 BYTE   N02  Dn3  v108
 BYTE   W04
 BYTE   Dn3  v092
 BYTE   W04
 BYTE   N02
 BYTE   W04
 BYTE   N10  Gn3  v104
 BYTE   W04
// 037   ----------------------------------------
Label_3_0109B36A:
 BYTE   W08
 BYTE   N02  Dn3  v108
 BYTE   W04
 BYTE   Dn3  v092
 BYTE   W04
 BYTE   N02
 BYTE   W04
 BYTE   N10  Gn3  v104
 BYTE   W12
 BYTE   N02  Dn3  v108
 BYTE   W04
 BYTE   Dn3  v092
 BYTE   W04
 BYTE   N02
 BYTE   W04
 BYTE   N10  Gn3  v104
 BYTE   W12
 BYTE   N02  Dn3  v108
 BYTE   W04
 BYTE   Dn3  v092
 BYTE   W04
 BYTE   N02
 BYTE   W04
 BYTE   N10  Gn3  v104
 BYTE   W12
 BYTE   N02  Dn3  v108
 BYTE   W04
 BYTE   Dn3  v092
 BYTE   W04
 BYTE   N02
 BYTE   W04
 BYTE   N10  Gn3  v104
 BYTE   W04
 BYTE   PEND 
 BYTE   PATT
  POIN2 Label_3_0109B36A
// 038   ----------------------------------------
 BYTE   W08
 BYTE   N02  Dn3  v108
 BYTE   W04
 BYTE   Dn3  v092
 BYTE   W04
 BYTE   N02
 BYTE   W04
 BYTE   N10  Gn3  v104
 BYTE   W12
 BYTE   N02  Dn3  v108
 BYTE   W04
 BYTE   Dn3  v092
 BYTE   W04
 BYTE   N02
 BYTE   W04
 BYTE   N10  Gn3  v104
 BYTE   W12
 BYTE   N02  Dn3  v108
 BYTE   W04
 BYTE   Dn3  v092
 BYTE   W04
 BYTE   N02
 BYTE   W04
 BYTE   N10  Gn3  v104
 BYTE   W12
 BYTE   N02  Dn3  v108
 BYTE   W04
 BYTE   Dn3  v092
 BYTE   W04
 BYTE   N02
 BYTE   W04
 BYTE   N10  Fs3  v104
 BYTE   W04
// 039   ----------------------------------------
 BYTE   W08
 BYTE   N05  Dn3  v084
 BYTE   W12
 BYTE   N03  Dn3  v092
 BYTE   W04
 BYTE   Dn3  v076
 BYTE   W04
 BYTE   N03
 BYTE   W04
 BYTE   N05  Dn3  v084
 BYTE   W12
 BYTE   N03  Dn3  v092
 BYTE   W04
 BYTE   Dn3  v076
 BYTE   W04
 BYTE   N03
 BYTE   W04
 BYTE   N05  Dn3  v084
 BYTE   W12
 BYTE   N03  Dn3  v092
 BYTE   W04
 BYTE   Dn3  v076
 BYTE   W04
 BYTE   N03
 BYTE   W04
 BYTE   N05  Dn3  v092
 BYTE   W12
 BYTE   N11  Dn3  v116
 BYTE   W04
// 040   ----------------------------------------
 BYTE   W08
 BYTE   VOICE   56
 BYTE   VOL   25*B1EndingMedley_mvl/mxv
 BYTE   PAN   c_v+25
 BYTE   N44  Bn2  v092
 BYTE   W48
 BYTE   Cn3
 BYTE   W40
// 041   ----------------------------------------
Label_3_0109B417:
 BYTE   W08
 BYTE   N30  Ds3  v092
 BYTE   W32
 BYTE   N07  Dn3
 BYTE   W08
 BYTE   Cn3
 BYTE   W08
 BYTE   N44  Bn2
 BYTE   W40
 BYTE   PEND 
// 042   ----------------------------------------
 BYTE   W08
 BYTE   N44
 BYTE   W48
 BYTE   Cn3  v096
 BYTE   W40
// 043   ----------------------------------------
 BYTE   W08
 BYTE   Ds3
 BYTE   W48
 BYTE   Bn3  v100
 BYTE   W40
// 044   ----------------------------------------
 BYTE   W08
 BYTE   An3  v092
 BYTE   W48
 BYTE   Bn3
 BYTE   W40
// 045   ----------------------------------------
 BYTE   W08
 BYTE   N44
 BYTE   W48
 BYTE   Cs4
 BYTE   W40
// 046   ----------------------------------------
 BYTE   W08
 BYTE   N23  An3
 BYTE   W24
 BYTE   Cs4
 BYTE   W24
 BYTE   Bn3  v096
 BYTE   W24
 BYTE   Gs3
 BYTE   W16
// 047   ----------------------------------------
 BYTE   W08
 BYTE   N44  Fs3  v092
 BYTE   W48
 BYTE   N11  Fs3  v104
 BYTE   W12
 BYTE   En3
 BYTE   W12
 BYTE   Dn3
 BYTE   W12
 BYTE   Cs3
 BYTE   W04
// 048   ----------------------------------------
 BYTE   W08
 BYTE   N44  Bn2  v092
 BYTE   W48
 BYTE   Cn3
 BYTE   W40
 BYTE   PATT
  POIN2 Label_3_0109B417
// 049   ----------------------------------------
 BYTE   W09
 BYTE   VOICE   42
 BYTE   VOL   45*B1EndingMedley_mvl/mxv
 BYTE   PAN   c_v-14
 BYTE   N68  Dn3  v076
 BYTE   W72
 BYTE   N23  Fn3
 BYTE   W15
// 050   ----------------------------------------
Label_3_0109B470:
 BYTE   W09
 BYTE   N44  En3  v076
 BYTE   W48
 BYTE   Cn3
 BYTE   W36
 BYTE   W03
 BYTE   PEND 
// 051   ----------------------------------------
 BYTE   W09
 BYTE   N68  Dn3
 BYTE   W72
 BYTE   N23  An3
 BYTE   W15
 BYTE   PATT
  POIN2 Label_3_0109B470
// 052   ----------------------------------------
 BYTE   W09
 BYTE   N92  Dn3  v076
 BYTE   W84
 BYTE   W03
// 053   ----------------------------------------
 BYTE   W09
 BYTE   N44
 BYTE   W48
 BYTE   Cn3
 BYTE   W36
 BYTE   W03
// 054   ----------------------------------------
 BYTE   W09
 BYTE   VOICE   41
 BYTE   VOL   40*B1EndingMedley_mvl/mxv
 BYTE   PAN   c_v-25
 BYTE   N36  Gn2  v104
 BYTE   W42
 BYTE   N09
 BYTE   W12
 BYTE   Cn3
 BYTE   W12
 BYTE   N16  Gn3
 BYTE   W18
 BYTE   N36  En3
 BYTE   W03
// 055   ----------------------------------------
 BYTE   W36
 BYTE   W03
 BYTE   N09  Gn2
 BYTE   W12
 BYTE   Cn3
 BYTE   W12
 BYTE   N16  Gn3
 BYTE   W18
 BYTE   N36  En3
 BYTE   W15
// 056   ----------------------------------------
 BYTE   W24
 BYTE   W03
 BYTE   N09  Gn2
 BYTE   W12
 BYTE   Cn3
 BYTE   W12
 BYTE   N16  Gn3
 BYTE   W18
 BYTE   N36  Dn3
 BYTE   W24
 BYTE   W03
// 057   ----------------------------------------
 BYTE   W15
 BYTE   N09  Gn2
 BYTE   W12
 BYTE   Dn3
 BYTE   W12
 BYTE   N16  Fn3
 BYTE   W18
 BYTE   N36  Gn2
 BYTE   W36
 BYTE   W03
// 058   ----------------------------------------
 BYTE   W03
 BYTE   N09
 BYTE   W12
 BYTE   Cn3
 BYTE   W12
 BYTE   N16  Gn3
 BYTE   W18
 BYTE   N36  En3
 BYTE   W42
 BYTE   N09  Gn2
 BYTE   W09
// 059   ----------------------------------------
 BYTE   W03
 BYTE   Cn3
 BYTE   W12
 BYTE   N16  Gn3
 BYTE   W18
 BYTE   N36  En3
 BYTE   W42
 BYTE   N09  Gn2
 BYTE   W12
 BYTE   Cn3
 BYTE   W09
// 060   ----------------------------------------
 BYTE   W03
 BYTE   N16  Gn3
 BYTE   W18
 BYTE   N36  Dn3
 BYTE   W42
 BYTE   N09  Gn2
 BYTE   W12
 BYTE   Dn3
 BYTE   W12
 BYTE   N16  Fn3
 BYTE   W09
// 061   ----------------------------------------
 BYTE   W09
 BYTE   VOICE   41
 BYTE   VOL   60*B1EndingMedley_mvl/mxv
 BYTE   PAN   c_v-25
 BYTE   N03  En4
 BYTE   W04
 BYTE   N02  En4  v052
 BYTE   W04
 BYTE   En4  v040
 BYTE   W04
 BYTE   N03  Fn4  v104
 BYTE   W04
 BYTE   N02  Fn4  v052
 BYTE   W04
 BYTE   Fn4  v040
 BYTE   W04
 BYTE   N03  Dn4  v104
 BYTE   W04
 BYTE   N02  Dn4  v052
 BYTE   W04
 BYTE   Dn4  v040
 BYTE   W04
 BYTE   Fn4  v108
 BYTE   W03
 BYTE   Fn4  v060
 BYTE   W03
 BYTE   N03  En4  v104
 BYTE   W04
 BYTE   N02  En4  v052
 BYTE   W04
 BYTE   En4  v040
 BYTE   W04
 BYTE   N03  Fn4  v104
 BYTE   W04
 BYTE   N02  Fn4  v052
 BYTE   W04
 BYTE   Fn4  v040
 BYTE   W04
 BYTE   N03  Dn4  v104
 BYTE   W04
 BYTE   N02  Dn4  v052
 BYTE   W04
 BYTE   Dn4  v040
 BYTE   W04
 BYTE   Fn4  v108
 BYTE   W03
 BYTE   Fn4  v060
 BYTE   W03
 BYTE   N03  En4  v104
 BYTE   W03
// 062   ----------------------------------------
 BYTE   W01
 BYTE   N02  En4  v052
 BYTE   W04
 BYTE   En4  v040
 BYTE   W04
 BYTE   N03  Fn4  v104
 BYTE   W04
 BYTE   N02  Fn4  v052
 BYTE   W04
 BYTE   Fn4  v040
 BYTE   W04
 BYTE   N03  Dn4  v104
 BYTE   W04
 BYTE   N02  Dn4  v052
 BYTE   W04
 BYTE   Dn4  v040
 BYTE   W04
 BYTE   Fn4  v108
 BYTE   W03
 BYTE   Fn4  v060
 BYTE   W03
 BYTE   N03  En4  v104
 BYTE   W04
 BYTE   N02  En4  v052
 BYTE   W04
 BYTE   En4  v040
 BYTE   W04
 BYTE   N03  Fn4  v104
 BYTE   W04
 BYTE   N02  Fn4  v052
 BYTE   W04
 BYTE   Fn4  v040
 BYTE   W04
 BYTE   N03  Dn4  v104
 BYTE   W04
 BYTE   N02  Dn4  v052
 BYTE   W04
 BYTE   Dn4  v040
 BYTE   W04
 BYTE   Fn4  v108
 BYTE   W03
 BYTE   Fn4  v060
 BYTE   W03
 BYTE   N03  En4  v104
 BYTE   W04
 BYTE   N02  En4  v052
 BYTE   W04
 BYTE   En4  v040
 BYTE   W04
 BYTE   N03  Fn4  v104
 BYTE   W03
// 063   ----------------------------------------
 BYTE   W01
 BYTE   N02  Fn4  v052
 BYTE   W04
 BYTE   Fn4  v040
 BYTE   W04
 BYTE   N03  Dn4  v104
 BYTE   W04
 BYTE   N02  Dn4  v052
 BYTE   W04
 BYTE   Dn4  v040
 BYTE   W04
 BYTE   Fn4  v108
 BYTE   W03
 BYTE   Fn4  v060
 BYTE   W03
 BYTE   N03  En4  v104
 BYTE   W04
 BYTE   N02  En4  v052
 BYTE   W04
 BYTE   En4  v040
 BYTE   W04
 BYTE   N03  Fn4  v104
 BYTE   W04
 BYTE   N02  Fn4  v052
 BYTE   W04
 BYTE   Fn4  v040
 BYTE   W04
 BYTE   N03  Dn4  v104
 BYTE   W04
 BYTE   N02  Dn4  v052
 BYTE   W04
 BYTE   Dn4  v040
 BYTE   W04
 BYTE   Fn4  v108
 BYTE   W03
 BYTE   Fn4  v060
 BYTE   W03
 BYTE   N03  En4  v104
 BYTE   W04
 BYTE   N02  En4  v052
 BYTE   W04
 BYTE   En4  v040
 BYTE   W04
 BYTE   N03  Fn4  v104
 BYTE   W04
 BYTE   N02  Fn4  v052
 BYTE   W04
 BYTE   Fn4  v040
 BYTE   W04
 BYTE   N03  Dn4  v104
 BYTE   W03
// 064   ----------------------------------------
 BYTE   W01
 BYTE   N02  Dn4  v052
 BYTE   W04
 BYTE   Dn4  v040
 BYTE   W04
 BYTE   Fn4  v108
 BYTE   W03
 BYTE   Fn4  v060
 BYTE   W03
 BYTE   N03  En4  v104
 BYTE   W04
 BYTE   N02  En4  v052
 BYTE   W04
 BYTE   En4  v040
 BYTE   W04
 BYTE   N03  Fn4  v104
 BYTE   W04
 BYTE   N02  Fn4  v052
 BYTE   W04
 BYTE   Fn4  v040
 BYTE   W04
 BYTE   N03  Dn4  v104
 BYTE   W04
 BYTE   N02  Dn4  v052
 BYTE   W04
 BYTE   Dn4  v040
 BYTE   W04
 BYTE   Fn4  v108
 BYTE   W03
 BYTE   Fn4  v060
 BYTE   W04
 BYTE   VOICE   41
 BYTE   VOL   50*B1EndingMedley_mvl/mxv
 BYTE   PAN   c_v+25
 BYTE   N16  Gn3  v076
 BYTE   W18
 BYTE   N01  Gn3  v108
 BYTE   W03
 BYTE   Gn3  v096
 BYTE   W03
 BYTE   N07  Gn3  v112
 BYTE   W08
 BYTE   Gn3  v104
 BYTE   W06
// 065   ----------------------------------------
Label_3_0109B652:
 BYTE   W02
 BYTE   N07  Gn3  v108
 BYTE   W08
 BYTE   N16  Gn3  v076
 BYTE   W18
 BYTE   N01  Gn3  v108
 BYTE   W03
 BYTE   Gn3  v096
 BYTE   W03
 BYTE   N07  Gn3  v112
 BYTE   W08
 BYTE   Gn3  v104
 BYTE   W08
 BYTE   Gn3  v108
 BYTE   W08
 BYTE   N16  Gn3  v076
 BYTE   W18
 BYTE   N01  Gn3  v108
 BYTE   W03
 BYTE   Gn3  v096
 BYTE   W03
 BYTE   N07  Gn3  v112
 BYTE   W08
 BYTE   Gn3  v104
 BYTE   W06
 BYTE   PEND 
 BYTE   PATT
  POIN2 Label_3_0109B652
// 066   ----------------------------------------
 BYTE   W02
 BYTE   N07  Gn3  v108
 BYTE   W08
 BYTE   N16  Fn3  v076
 BYTE   W18
 BYTE   N01  Fn3  v108
 BYTE   W03
 BYTE   Fn3  v096
 BYTE   W03
 BYTE   N07  Fn3  v112
 BYTE   W08
 BYTE   Fn3  v104
 BYTE   W08
 BYTE   Fn3  v108
 BYTE   W08
 BYTE   N16  Fn3  v076
 BYTE   W18
 BYTE   N01  Fn3  v108
 BYTE   W03
 BYTE   Fn3  v096
 BYTE   W03
 BYTE   N07  Fn3  v112
 BYTE   W08
 BYTE   Fn3  v104
 BYTE   W06
// 067   ----------------------------------------
 BYTE   W02
 BYTE   Fn3  v108
 BYTE   W08
 BYTE   N16  Gn3  v076
 BYTE   W18
 BYTE   N01  Gn3  v108
 BYTE   W03
 BYTE   Gn3  v096
 BYTE   W03
 BYTE   N07  Gn3  v112
 BYTE   W08
 BYTE   Gn3  v104
 BYTE   W08
 BYTE   Gn3  v108
 BYTE   W20
 BYTE   N03  Cn3
 BYTE   W04
 BYTE   En3  v092
 BYTE   W04
 BYTE   Gn3
 BYTE   W04
 BYTE   N22  Cn4  v104
 BYTE   W14
// 068   ----------------------------------------
 BYTE   W22
 BYTE   N03  Cn3  v108
 BYTE   W04
 BYTE   En3  v092
 BYTE   W04
 BYTE   Gn3
 BYTE   W04
 BYTE   N22  Cn4  v104
 BYTE   W36
 BYTE   N03  Cn3  v108
 BYTE   W04
 BYTE   En3  v092
 BYTE   W04
 BYTE   Gn3
 BYTE   W04
 BYTE   N22  Cn4  v104
 BYTE   W14
// 069   ----------------------------------------
 BYTE   W22
 BYTE   N03  Cn3  v108
 BYTE   W04
 BYTE   Ds3  v092
 BYTE   W04
 BYTE   Gn3
 BYTE   W04
 BYTE   N22  Cn4  v104
 BYTE   W36
 BYTE   N03  Cn3  v108
 BYTE   W04
 BYTE   En3  v092
 BYTE   W04
 BYTE   Gn3
 BYTE   W04
 BYTE   N22  Cn4  v104
 BYTE   W14
// 070   ----------------------------------------
 BYTE   W22
 BYTE   N03  Cn3  v108
 BYTE   W04
 BYTE   Fn3  v092
 BYTE   W04
 BYTE   An3
 BYTE   W04
 BYTE   N22  Cn4  v104
 BYTE   W60
 BYTE   W02
// 071   ----------------------------------------
 BYTE   W96
// 072   ----------------------------------------
 BYTE   W10
 BYTE   VOICE   41
 BYTE   VOL   50*B1EndingMedley_mvl/mxv
 BYTE   PAN   c_v-25
 BYTE   N44  Cn4  v092
 BYTE   W48
 BYTE   Dn4
 BYTE   W36
 BYTE   W02
// 073   ----------------------------------------
 BYTE   W10
 BYTE   Ds4
 BYTE   W48
 BYTE   Fn4
 BYTE   W36
 BYTE   W02
// 074   ----------------------------------------
 BYTE   W10
 BYTE   Gn4
 BYTE   W48
 BYTE   N23  En4
 BYTE   W24
 BYTE   Cn4
 BYTE   W14
// 075   ----------------------------------------
 BYTE   W10
 BYTE   N44  Gn3
 BYTE   W48
 BYTE   N23
 BYTE   W24
 BYTE   N23
 BYTE   W14
// 076   ----------------------------------------
 BYTE   W10
 BYTE   VOICE   19
 BYTE   VOL   60*B1EndingMedley_mvl/mxv
 BYTE   PAN   c_v+14
 BYTE   N44  Cn3  v084
 BYTE   W48
 BYTE   Dn3
 BYTE   W36
 BYTE   W02
// 077   ----------------------------------------
 BYTE   W10
 BYTE   N32
 BYTE   W36
 BYTE   N11  Bn2  v076
 BYTE   W12
 BYTE   N44  Cn3  v084
 BYTE   W36
 BYTE   W02
// 078   ----------------------------------------
 BYTE   W10
 BYTE   N23
 BYTE   W24
 BYTE   En3
 BYTE   W24
 BYTE   Dn3
 BYTE   W24
 BYTE   Bn2
 BYTE   W14
// 079   ----------------------------------------
 BYTE   W10
 BYTE   An2
 BYTE   W24
 BYTE   Cn3
 BYTE   W24
 BYTE   N32  Gn2
 BYTE   W36
 BYTE   N05  An2  v092
 BYTE   W02
// 080   ----------------------------------------
 BYTE   W04
 BYTE   Gn2  v076
 BYTE   W06
 BYTE   N11  Fn2  v080
 BYTE   W12
 BYTE   An2  v084
 BYTE   W12
 BYTE   Cn3  v088
 BYTE   W12
 BYTE   Fn3  v092
 BYTE   W12
 BYTE   N23  Gn3  v096
 BYTE   W24
 BYTE   En3  v100
 BYTE   W14
// 081   ----------------------------------------
 BYTE   W10
 BYTE   N92  An3  v104
 BYTE   W84
 BYTE   W02
// 082   ----------------------------------------
 BYTE   W09
 BYTE   FINE

//**************** Track 5 (Midi-Chn.4) ****************//

B1EndingMedley_005:
// 000   ----------------------------------------
 BYTE   KEYSH   B1EndingMedley_key+0
 BYTE   W96
// 001   ----------------------------------------
 BYTE   W96
// 002   ----------------------------------------
 BYTE   W06
 BYTE   VOICE   42
 BYTE   VOL   10*B1EndingMedley_mvl/mxv
 BYTE   PAN   c_v+14
 BYTE   W01
 BYTE   N23  Fn4  v104
 BYTE   W24
 BYTE   N11
 BYTE   W12
 BYTE   N05  Gn4
 BYTE   W06
 BYTE   An4
 BYTE   W06
 BYTE   N11  As4
 BYTE   W12
 BYTE   N05  An4
 BYTE   W06
 BYTE   Gn4
 BYTE   W06
 BYTE   N11  An4
 BYTE   W12
 BYTE   Fn4
 BYTE   W05
// 003   ----------------------------------------
Label_4_0109B7B4:
 BYTE   W07
 BYTE   N23  Fn4  v104
 BYTE   W24
 BYTE   N11
 BYTE   W12
 BYTE   N05  An4
 BYTE   W06
 BYTE   Cn5
 BYTE   W06
 BYTE   N11  Fn5
 BYTE   W12
 BYTE   N05  En5
 BYTE   W06
 BYTE   Dn5
 BYTE   W06
 BYTE   N23  Cn5
 BYTE   W17
 BYTE   PEND 
// 004   ----------------------------------------
Label_4_0109B7CC:
 BYTE   W07
 BYTE   N23  Fn4  v104
 BYTE   W24
 BYTE   N11
 BYTE   W12
 BYTE   N05  Gn4
 BYTE   W06
 BYTE   An4
 BYTE   W06
 BYTE   N11  As4
 BYTE   W12
 BYTE   N05  An4
 BYTE   W06
 BYTE   Gn4
 BYTE   W06
 BYTE   N11  An4
 BYTE   W12
 BYTE   Fn4
 BYTE   W05
 BYTE   PEND 
 BYTE   PATT
  POIN2 Label_4_0109B7B4
// 005   ----------------------------------------
 BYTE   W19
 BYTE   N03  As3  v108
 BYTE   W04
 BYTE   Dn4  v096
 BYTE   W04
 BYTE   Fn4
 BYTE   W04
 BYTE   N23  As4  v104
 BYTE   W24
 BYTE   An4
 BYTE   W24
 BYTE   Fn4
 BYTE   W17
// 006   ----------------------------------------
 BYTE   W07
 BYTE   Gn4
 BYTE   W30
 BYTE   N05  Ds4  v108
 BYTE   W06
 BYTE   Fn4  v096
 BYTE   W06
 BYTE   Gn4
 BYTE   W06
 BYTE   N44  En4  v104
 BYTE   W40
 BYTE   W01
 BYTE   PATT
  POIN2 Label_4_0109B7CC
 BYTE   PATT
  POIN2 Label_4_0109B7B4
 BYTE   PATT
  POIN2 Label_4_0109B7CC
 BYTE   PATT
  POIN2 Label_4_0109B7B4
// 007   ----------------------------------------
 BYTE   W07
 BYTE   N44  Fn4  v104
 BYTE   W48
 BYTE   En4
 BYTE   W40
 BYTE   W01
// 008   ----------------------------------------
 BYTE   W07
 BYTE   Fn4
 BYTE   W48
 BYTE   N92  En4
 BYTE   W40
 BYTE   W01
// 009   ----------------------------------------
 BYTE   W54
 BYTE   W01
 BYTE   N44  Gn4
 BYTE   W40
 BYTE   W01
// 010   ----------------------------------------
 BYTE   W07
 BYTE   N32  As4
 BYTE   W36
 BYTE   N03  An4  v116
 BYTE   W04
 BYTE   An4  v060
 BYTE   W04
 BYTE   An4  v044
 BYTE   W04
 BYTE   An4  v116
 BYTE   W04
 BYTE   An4  v060
 BYTE   W04
 BYTE   An4  v044
 BYTE   W04
 BYTE   An4  v116
 BYTE   W04
 BYTE   An4  v060
 BYTE   W04
 BYTE   An4  v044
 BYTE   W04
 BYTE   An4  v116
 BYTE   W04
 BYTE   An4  v060
 BYTE   W04
 BYTE   An4  v044
 BYTE   W04
 BYTE   An4  v116
 BYTE   W04
 BYTE   An4  v060
 BYTE   W01
// 011   ----------------------------------------
Label_4_0109B866:
 BYTE   W03
 BYTE   N03  An4  v044
 BYTE   W04
 BYTE   An4  v116
 BYTE   W04
 BYTE   An4  v060
 BYTE   W04
 BYTE   An4  v044
 BYTE   W04
 BYTE   An4  v116
 BYTE   W04
 BYTE   An4  v060
 BYTE   W04
 BYTE   An4  v044
 BYTE   W04
 BYTE   N23  An4  v116
 BYTE   W24
 BYTE   N03
 BYTE   W04
 BYTE   An4  v060
 BYTE   W04
 BYTE   An4  v044
 BYTE   W04
 BYTE   An4  v116
 BYTE   W04
 BYTE   An4  v060
 BYTE   W04
 BYTE   An4  v044
 BYTE   W04
 BYTE   An4  v116
 BYTE   W04
 BYTE   An4  v060
 BYTE   W04
 BYTE   An4  v044
 BYTE   W04
 BYTE   An4  v116
 BYTE   W04
 BYTE   An4  v060
 BYTE   W01
 BYTE   PEND 
// 012   ----------------------------------------
 BYTE   W03
 BYTE   An4  v044
 BYTE   W04
 BYTE   Dn5  v116
 BYTE   W04
 BYTE   Dn5  v060
 BYTE   W04
 BYTE   Dn5  v044
 BYTE   W04
 BYTE   Dn5  v116
 BYTE   W04
 BYTE   Dn5  v060
 BYTE   W04
 BYTE   Dn5  v044
 BYTE   W04
 BYTE   N23  En5  v116
 BYTE   W24
 BYTE   N03  An4
 BYTE   W04
 BYTE   An4  v060
 BYTE   W04
 BYTE   An4  v044
 BYTE   W04
 BYTE   An4  v116
 BYTE   W04
 BYTE   An4  v060
 BYTE   W04
 BYTE   An4  v044
 BYTE   W04
 BYTE   An4  v116
 BYTE   W04
 BYTE   An4  v060
 BYTE   W04
 BYTE   An4  v044
 BYTE   W04
 BYTE   An4  v116
 BYTE   W04
 BYTE   An4  v060
 BYTE   W01
 BYTE   PATT
  POIN2 Label_4_0109B866
// 013   ----------------------------------------
 BYTE   W03
 BYTE   N03  An4  v044
 BYTE   W04
 BYTE   Dn5  v116
 BYTE   W04
 BYTE   Dn5  v060
 BYTE   W04
 BYTE   Dn5  v044
 BYTE   W04
 BYTE   Dn5  v116
 BYTE   W04
 BYTE   Dn5  v060
 BYTE   W04
 BYTE   Dn5  v044
 BYTE   W04
 BYTE   N23  Cn5  v116
 BYTE   W24
 BYTE   VOICE   56
 BYTE   VOL   10*B1EndingMedley_mvl/mxv
 BYTE   PAN   c_v-14
 BYTE   N03  Fn5  v092
 BYTE   W04
 BYTE   Cn5  v076
 BYTE   W04
 BYTE   Gn5  v092
 BYTE   W04
 BYTE   Cn5  v076
 BYTE   W04
 BYTE   Fn5  v092
 BYTE   W04
 BYTE   Cn5  v076
 BYTE   W04
 BYTE   Fn5  v092
 BYTE   W04
 BYTE   Cn5  v076
 BYTE   W04
 BYTE   Gn5  v092
 BYTE   W04
 BYTE   Cn5  v076
 BYTE   W04
 BYTE   Fn5  v092
 BYTE   W01
// 014   ----------------------------------------
 BYTE   W03
 BYTE   Cn5  v076
 BYTE   W04
 BYTE   Fn5  v092
 BYTE   W04
 BYTE   Cn5  v076
 BYTE   W04
 BYTE   Gn5  v092
 BYTE   W04
 BYTE   Cn5  v076
 BYTE   W04
 BYTE   Fn5  v092
 BYTE   W04
 BYTE   Cn5  v076
 BYTE   W04
 BYTE   Fn5  v092
 BYTE   W04
 BYTE   Cn5  v076
 BYTE   W04
 BYTE   Gn5  v092
 BYTE   W04
 BYTE   Cn5  v076
 BYTE   W04
 BYTE   Fn5  v092
 BYTE   W04
 BYTE   Cn5  v076
 BYTE   W04
 BYTE   Fn5  v092
 BYTE   W04
 BYTE   Cn5  v076
 BYTE   W04
 BYTE   Gn5  v092
 BYTE   W04
 BYTE   Cn5  v076
 BYTE   W04
 BYTE   Fn5  v092
 BYTE   W04
 BYTE   Cn5  v076
 BYTE   W04
 BYTE   Fn5  v092
 BYTE   W04
 BYTE   Cn5  v076
 BYTE   W04
 BYTE   Gn5  v092
 BYTE   W04
 BYTE   Cn5  v076
 BYTE   W04
 BYTE   Fn5  v092
 BYTE   W01
// 015   ----------------------------------------
 BYTE   W03
 BYTE   Cn5  v076
 BYTE   W04
 BYTE   Fn5  v092
 BYTE   W04
 BYTE   Cn5  v076
 BYTE   W04
 BYTE   Gn5  v092
 BYTE   W04
 BYTE   Cn5  v076
 BYTE   W04
 BYTE   Fn5  v092
 BYTE   W04
 BYTE   Cn5  v076
 BYTE   W04
 BYTE   Fn5  v092
 BYTE   W04
 BYTE   Cn5  v076
 BYTE   W04
 BYTE   Cn6  v092
 BYTE   W04
 BYTE   Gn5  v076
 BYTE   W04
 BYTE   En5  v092
 BYTE   W04
 BYTE   N02  Cn5  v076
 BYTE   W03
 BYTE   VOICE   56
 BYTE   VOL   10*B1EndingMedley_mvl/mxv
 BYTE   PAN   c_v-14
 BYTE   W01
 BYTE   N03  Fn5  v104
 BYTE   W06
 BYTE   N02  Cn5  v108
 BYTE   W03
 BYTE   As4  v092
 BYTE   W03
 BYTE   N16  An4  v104
 BYTE   W18
 BYTE   N02  An4  v108
 BYTE   W03
 BYTE   As4  v092
 BYTE   W03
 BYTE   N03  Cn5  v104
 BYTE   W05
// 016   ----------------------------------------
 BYTE   W01
 BYTE   Fn5
 BYTE   W06
 BYTE   N05  Fn5  v108
 BYTE   W09
 BYTE   N02  Cn5  v092
 BYTE   W03
 BYTE   N32  Cn5  v104
 BYTE   W36
 BYTE   N03  Fn5
 BYTE   W06
 BYTE   N02  Cn5  v108
 BYTE   W03
 BYTE   As4  v092
 BYTE   W03
 BYTE   N16  An4  v104
 BYTE   W18
 BYTE   N02  An4  v108
 BYTE   W03
 BYTE   As4  v092
 BYTE   W03
 BYTE   N03  Cn5  v104
 BYTE   W05
// 017   ----------------------------------------
 BYTE   W01
 BYTE   Fn5
 BYTE   W06
 BYTE   N05  An5  v108
 BYTE   W09
 BYTE   N02  As5  v092
 BYTE   W03
 BYTE   N30  Gn5  v104
 BYTE   W32
 BYTE   W03
 BYTE   VOICE   10
 BYTE   VOL   55*B1EndingMedley_mvl/mxv
 BYTE   PAN   c_v+25
 BYTE   N11  Fn2  v108
 BYTE   W12
 BYTE   Fn2  v104
 BYTE   W12
 BYTE   N11
 BYTE   W12
 BYTE   N11
 BYTE   W06
// 018   ----------------------------------------
 BYTE   W06
 BYTE   Ds2  v108
 BYTE   W12
 BYTE   Ds2  v104
 BYTE   W12
 BYTE   N11
 BYTE   W12
 BYTE   N11
 BYTE   W12
 BYTE   Dn2  v108
 BYTE   W12
 BYTE   Dn2  v104
 BYTE   W12
 BYTE   N11
 BYTE   W12
 BYTE   N11
 BYTE   W06
// 019   ----------------------------------------
 BYTE   W06
 BYTE   Cs2  v108
 BYTE   W12
 BYTE   Cs2  v104
 BYTE   W12
 BYTE   N11
 BYTE   W12
 BYTE   N11
 BYTE   W12
 BYTE   N11
 BYTE   W12
 BYTE   N11
 BYTE   W12
 BYTE   N05  Cn2
 BYTE   W06
 BYTE   N02  Cn2  v108
 BYTE   W03
 BYTE   Cn2  v092
 BYTE   W03
 BYTE   N05  Cn2  v104
 BYTE   W06
// 020   ----------------------------------------
 BYTE   N02  Cn2  v108
 BYTE   W03
 BYTE   Cn2  v092
 BYTE   W03
 BYTE   N05  Cn2  v104
 BYTE   W06
 BYTE   N02  Cn2  v108
 BYTE   W03
 BYTE   Cn2  v092
 BYTE   W03
 BYTE   N05  Cn2  v104
 BYTE   W06
 BYTE   N02  Cn2  v108
 BYTE   W03
 BYTE   Cn2  v092
 BYTE   W03
 BYTE   N05  Cn2  v104
 BYTE   W06
 BYTE   N02  Cn2  v108
 BYTE   W03
 BYTE   Cn2  v092
 BYTE   W03
 BYTE   N05  Cn2  v104
 BYTE   W06
 BYTE   N02  Cn2  v108
 BYTE   W03
 BYTE   Cn2  v092
 BYTE   W03
 BYTE   N05  Cn2  v104
 BYTE   W06
 BYTE   N02  Cn2  v108
 BYTE   W03
 BYTE   Cn2  v092
 BYTE   W03
 BYTE   N05  Cn2  v104
 BYTE   W06
 BYTE   N02  Cn2  v108
 BYTE   W03
 BYTE   Cn2  v092
 BYTE   W03
 BYTE   N05  Cs2  v104
 BYTE   W06
 BYTE   N02  Cs2  v108
 BYTE   W03
 BYTE   Cs2  v092
 BYTE   W03
 BYTE   N05  Cs2  v104
 BYTE   W06
// 021   ----------------------------------------
 BYTE   N02  Cs2  v108
 BYTE   W03
 BYTE   Cs2  v092
 BYTE   W03
 BYTE   N05  Cs2  v104
 BYTE   W06
 BYTE   N02  Cs2  v108
 BYTE   W03
 BYTE   Cs2  v092
 BYTE   W03
 BYTE   N05  Cs2  v104
 BYTE   W06
 BYTE   N02  Cs2  v108
 BYTE   W03
 BYTE   Cs2  v092
 BYTE   W03
 BYTE   N05  Ds2  v104
 BYTE   W06
 BYTE   N02  Ds2  v108
 BYTE   W03
 BYTE   Ds2  v092
 BYTE   W03
 BYTE   N05  Ds2  v104
 BYTE   W06
 BYTE   N02  Ds2  v108
 BYTE   W03
 BYTE   Ds2  v092
 BYTE   W03
 BYTE   N05  Ds2  v104
 BYTE   W06
 BYTE   N02  Ds2  v108
 BYTE   W03
 BYTE   Ds2  v092
 BYTE   W03
 BYTE   N05  Ds2  v104
 BYTE   W06
 BYTE   N02  Ds2  v108
 BYTE   W03
 BYTE   Ds2  v092
 BYTE   W21
// 022   ----------------------------------------
 BYTE   W96
// 023   ----------------------------------------
 BYTE   W96
// 024   ----------------------------------------
 BYTE   W96
// 025   ----------------------------------------
 BYTE   W96
// 026   ----------------------------------------
 BYTE   W96
// 027   ----------------------------------------
 BYTE   W96
// 028   ----------------------------------------
 BYTE   W96
// 029   ----------------------------------------
 BYTE   W78
 BYTE   N11  Fn2  v108
 BYTE   W12
 BYTE   Fn2  v104
 BYTE   W06
// 030   ----------------------------------------
 BYTE   W06
 BYTE   N11
 BYTE   W12
 BYTE   N11
 BYTE   W12
 BYTE   Ds2  v108
 BYTE   W12
 BYTE   Ds2  v104
 BYTE   W12
 BYTE   N11
 BYTE   W12
 BYTE   N11
 BYTE   W12
 BYTE   Dn2  v108
 BYTE   W12
 BYTE   Dn2  v104
 BYTE   W06
// 031   ----------------------------------------
 BYTE   W06
 BYTE   N11
 BYTE   W12
 BYTE   N11
 BYTE   W12
 BYTE   Cs2  v108
 BYTE   W12
 BYTE   Cs2  v104
 BYTE   W12
 BYTE   N11
 BYTE   W12
 BYTE   N11
 BYTE   W12
 BYTE   N11
 BYTE   W12
 BYTE   N11
 BYTE   W06
// 032   ----------------------------------------
 BYTE   W06
 BYTE   N05  Cn2
 BYTE   W06
 BYTE   N02  Cn2  v108
 BYTE   W03
 BYTE   Cn2  v092
 BYTE   W03
 BYTE   N05  Cn2  v104
 BYTE   W06
 BYTE   N02  Cn2  v108
 BYTE   W03
 BYTE   Cn2  v092
 BYTE   W03
 BYTE   N05  Cn2  v104
 BYTE   W06
 BYTE   N02  Cn2  v108
 BYTE   W03
 BYTE   Cn2  v092
 BYTE   W03
 BYTE   N05  Cn2  v104
 BYTE   W06
 BYTE   N02  Cn2  v108
 BYTE   W03
 BYTE   Cn2  v092
 BYTE   W03
 BYTE   N05  Cn2  v104
 BYTE   W06
 BYTE   N02  Cn2  v108
 BYTE   W03
 BYTE   Cn2  v092
 BYTE   W03
 BYTE   N05  Cn2  v104
 BYTE   W06
 BYTE   N02  Cn2  v108
 BYTE   W03
 BYTE   Cn2  v092
 BYTE   W03
 BYTE   N05  Cn2  v104
 BYTE   W06
 BYTE   N02  Cn2  v108
 BYTE   W03
 BYTE   Cn2  v092
 BYTE   W03
 BYTE   N05  Cn2  v104
 BYTE   W06
// 033   ----------------------------------------
 BYTE   N02  Cn2  v108
 BYTE   W03
 BYTE   Cn2  v092
 BYTE   W04
 BYTE   VOICE   56
 BYTE   VOL   60*B1EndingMedley_mvl/mxv
 BYTE   PAN   c_v+0
 BYTE   N44  Gn2  v104
 BYTE   W48
 BYTE   Dn3
 BYTE   W40
 BYTE   W01
// 034   ----------------------------------------
 BYTE   W07
 BYTE   Gn3
 BYTE   W48
 BYTE   Dn3
 BYTE   W40
 BYTE   W01
// 035   ----------------------------------------
 BYTE   W07
 BYTE   VOICE   41
 BYTE   VOL   60*B1EndingMedley_mvl/mxv
 BYTE   PAN   c_v+25
 BYTE   N05  An3  v108
 BYTE   W06
 BYTE   Gn3  v104
 BYTE   W06
 BYTE   An3
 BYTE   W06
 BYTE   N24  As3
 BYTE   W30
 BYTE   N05  An3  v108
 BYTE   W06
 BYTE   Gn3  v104
 BYTE   W06
 BYTE   An3
 BYTE   W06
 BYTE   N24  As3
 BYTE   W23
// 036   ----------------------------------------
 BYTE   W07
 BYTE   N05  An3  v108
 BYTE   W06
 BYTE   Gn3  v104
 BYTE   W06
 BYTE   An3
 BYTE   W06
 BYTE   N24  As3
 BYTE   W30
 BYTE   N05  Cn4  v108
 BYTE   W06
 BYTE   Dn4  v104
 BYTE   W06
 BYTE   Cn4
 BYTE   W06
 BYTE   As3
 BYTE   W06
 BYTE   An3  v108
 BYTE   W06
 BYTE   Gn3  v104
 BYTE   W06
 BYTE   Fs3
 BYTE   W05
// 037   ----------------------------------------
 BYTE   W01
 BYTE   An3
 BYTE   W06
 BYTE   An3  v108
 BYTE   W06
 BYTE   Gn3  v104
 BYTE   W06
 BYTE   An3
 BYTE   W06
 BYTE   N24  Dn4
 BYTE   W30
 BYTE   N05  An3  v108
 BYTE   W06
 BYTE   Gn3  v104
 BYTE   W06
 BYTE   An3
 BYTE   W06
 BYTE   N24  Dn4
 BYTE   W23
// 038   ----------------------------------------
 BYTE   W07
 BYTE   N05  An3  v108
 BYTE   W06
 BYTE   Gn3  v104
 BYTE   W06
 BYTE   An3
 BYTE   W06
 BYTE   N24  Dn4
 BYTE   W30
 BYTE   N05  Dn4  v108
 BYTE   W06
 BYTE   Ds4  v104
 BYTE   W06
 BYTE   Dn4
 BYTE   W06
 BYTE   Cn4
 BYTE   W06
 BYTE   Dn4  v108
 BYTE   W06
 BYTE   Cn4  v104
 BYTE   W06
 BYTE   As3
 BYTE   W05
// 039   ----------------------------------------
 BYTE   W01
 BYTE   An3
 BYTE   W06
 BYTE   As3  v108
 BYTE   W06
 BYTE   An3  v104
 BYTE   W06
 BYTE   Gn3
 BYTE   W06
 BYTE   N24  Dn3
 BYTE   W30
 BYTE   N05  As3  v108
 BYTE   W06
 BYTE   An3  v104
 BYTE   W06
 BYTE   Gn3
 BYTE   W06
 BYTE   N24  Dn3
 BYTE   W23
// 040   ----------------------------------------
 BYTE   W07
 BYTE   N05  As3  v108
 BYTE   W06
 BYTE   An3  v104
 BYTE   W06
 BYTE   Gn3
 BYTE   W06
 BYTE   N16  Fn3
 BYTE   W18
 BYTE   N10  An3  v096
 BYTE   W12
 BYTE   N05  An3  v108
 BYTE   W06
 BYTE   Gn3  v104
 BYTE   W06
 BYTE   Cn4
 BYTE   W06
 BYTE   As3
 BYTE   W06
 BYTE   An3  v108
 BYTE   W06
 BYTE   Gn3  v104
 BYTE   W06
 BYTE   Fn3
 BYTE   W05
// 041   ----------------------------------------
 BYTE   W01
 BYTE   Ds3
 BYTE   W06
 BYTE   Dn3  v108
 BYTE   W06
 BYTE   Cn3  v104
 BYTE   W06
 BYTE   Gn2
 BYTE   W06
 BYTE   As2
 BYTE   W06
 BYTE   An2  v108
 BYTE   W06
 BYTE   As2  v104
 BYTE   W06
 BYTE   Cn3
 BYTE   W06
 BYTE   As2
 BYTE   W06
 BYTE   Gs2  v108
 BYTE   W06
 BYTE   As2  v104
 BYTE   W06
 BYTE   Cn3
 BYTE   W06
 BYTE   As2
 BYTE   W06
 BYTE   Cn3  v108
 BYTE   W06
 BYTE   Fn3  v104
 BYTE   W06
 BYTE   Gn3
 BYTE   W05
// 042   ----------------------------------------
 BYTE   W01
 BYTE   Fn3
 BYTE   W07
 BYTE   VOICE   41
 BYTE   VOL   60*B1EndingMedley_mvl/mxv
 BYTE   PAN   c_v-25
 BYTE   N02  As2  v108
 BYTE   W04
 BYTE   As2  v092
 BYTE   W04
 BYTE   N02
 BYTE   W04
 BYTE   N10  Dn3  v104
 BYTE   W12
 BYTE   N02  As2  v108
 BYTE   W04
 BYTE   As2  v092
 BYTE   W04
 BYTE   N02
 BYTE   W04
 BYTE   N10  Dn3  v104
 BYTE   W12
 BYTE   N02  As2  v108
 BYTE   W04
 BYTE   As2  v092
 BYTE   W04
 BYTE   N02
 BYTE   W04
 BYTE   N10  Dn3  v104
 BYTE   W12
 BYTE   N02  As2  v108
 BYTE   W04
 BYTE   As2  v092
 BYTE   W04
 BYTE   N02
 BYTE   W04
 BYTE   N10  Dn3  v104
 BYTE   W04
// 043   ----------------------------------------
Label_4_0109BC93:
 BYTE   W08
 BYTE   N02  As2  v108
 BYTE   W04
 BYTE   As2  v092
 BYTE   W04
 BYTE   N02
 BYTE   W04
 BYTE   N10  Dn3  v104
 BYTE   W12
 BYTE   N02  As2  v108
 BYTE   W04
 BYTE   As2  v092
 BYTE   W04
 BYTE   N02
 BYTE   W04
 BYTE   N10  Dn3  v104
 BYTE   W12
 BYTE   N02  As2  v108
 BYTE   W04
 BYTE   As2  v092
 BYTE   W04
 BYTE   N02
 BYTE   W04
 BYTE   N10  Dn3  v104
 BYTE   W12
 BYTE   N02  As2  v108
 BYTE   W04
 BYTE   As2  v092
 BYTE   W04
 BYTE   N02
 BYTE   W04
 BYTE   N10  Dn3  v104
 BYTE   W04
 BYTE   PEND 
 BYTE   PATT
  POIN2 Label_4_0109BC93
 BYTE   PATT
  POIN2 Label_4_0109BC93
// 044   ----------------------------------------
 BYTE   W08
 BYTE   N05  As2  v084
 BYTE   W12
 BYTE   N03  As2  v092
 BYTE   W04
 BYTE   As2  v076
 BYTE   W04
 BYTE   N03
 BYTE   W04
 BYTE   N05  As2  v084
 BYTE   W12
 BYTE   N03  As2  v092
 BYTE   W04
 BYTE   As2  v076
 BYTE   W04
 BYTE   N03
 BYTE   W04
 BYTE   N05  An2  v104
 BYTE   W12
 BYTE   N03  An2  v108
 BYTE   W04
 BYTE   An2  v092
 BYTE   W04
 BYTE   N03
 BYTE   W04
 BYTE   N05
 BYTE   W12
 BYTE   N11  An2  v116
 BYTE   W04
// 045   ----------------------------------------
 BYTE   W08
 BYTE   VOICE   57
 BYTE   VOL   30*B1EndingMedley_mvl/mxv
 BYTE   PAN   c_v+43
 BYTE   W01
 BYTE   N10  Gn3  v072
 BYTE   W12
 BYTE   N02  Gn3  v076
 BYTE   W04
 BYTE   Gn3  v064
 BYTE   W04
 BYTE   N02
 BYTE   W04
 BYTE   N10  Gn3  v072
 BYTE   W12
 BYTE   N02  Gn3  v076
 BYTE   W04
 BYTE   Gn3  v064
 BYTE   W04
 BYTE   N02
 BYTE   W04
 BYTE   N10  Gn3  v072
 BYTE   W12
 BYTE   N02  Gn3  v076
 BYTE   W04
 BYTE   Gn3  v064
 BYTE   W04
 BYTE   N02
 BYTE   W04
 BYTE   N10  Gn3  v072
 BYTE   W12
 BYTE   N02  Gn3  v076
 BYTE   W03
// 046   ----------------------------------------
Label_4_0109BD38:
 BYTE   W01
 BYTE   N02  Gn3  v064
 BYTE   W04
 BYTE   N02
 BYTE   W04
 BYTE   N10  Gn3  v072
 BYTE   W12
 BYTE   N02  Gn3  v076
 BYTE   W04
 BYTE   Gn3  v064
 BYTE   W04
 BYTE   N02
 BYTE   W04
 BYTE   N10  Gn3  v072
 BYTE   W12
 BYTE   N02  Gn3  v076
 BYTE   W04
 BYTE   Gn3  v064
 BYTE   W04
 BYTE   N02
 BYTE   W04
 BYTE   N10  Gn3  v072
 BYTE   W12
 BYTE   N02  Gn3  v076
 BYTE   W04
 BYTE   Gn3  v064
 BYTE   W04
 BYTE   N02
 BYTE   W04
 BYTE   N10  Gn3  v072
 BYTE   W12
 BYTE   N02  Gn3  v076
 BYTE   W03
 BYTE   PEND 
 BYTE   PATT
  POIN2 Label_4_0109BD38
 BYTE   PATT
  POIN2 Label_4_0109BD38
// 047   ----------------------------------------
 BYTE   W01
 BYTE   N02  Gn3  v064
 BYTE   W04
 BYTE   N02
 BYTE   W04
 BYTE   VOICE   41
 BYTE   VOL   55*B1EndingMedley_mvl/mxv
 BYTE   PAN   c_v+14
 BYTE   W12
 BYTE   N01  Cs3  v112
 BYTE   W02
 BYTE   En3  v104
 BYTE   W03
 BYTE   Cs3
 BYTE   W02
 BYTE   En3
 BYTE   W03
 BYTE   An3
 BYTE   W02
 BYTE   N22  Cs4  v108
 BYTE   W36
 BYTE   N01  Dn3  v112
 BYTE   W02
 BYTE   Fs3  v104
 BYTE   W03
 BYTE   Dn3
 BYTE   W02
 BYTE   Fs3
 BYTE   W03
 BYTE   An3
 BYTE   W02
 BYTE   N22  Dn4  v108
 BYTE   W15
// 048   ----------------------------------------
 BYTE   W21
 BYTE   N01  En3  v112
 BYTE   W02
 BYTE   Gs3  v104
 BYTE   W03
 BYTE   En3
 BYTE   W02
 BYTE   Gs3
 BYTE   W03
 BYTE   Bn3
 BYTE   W02
 BYTE   N10  En4  v108
 BYTE   W12
 BYTE   N11  Bn3  v104
 BYTE   W12
 BYTE   N44  Cs4  v112
 BYTE   W36
 BYTE   W03
// 049   ----------------------------------------
 BYTE   W21
 BYTE   N01  En3  v116
 BYTE   W02
 BYTE   An3  v104
 BYTE   W03
 BYTE   En3
 BYTE   W02
 BYTE   An3
 BYTE   W03
 BYTE   Cs4
 BYTE   W02
 BYTE   N22  En4  v112
 BYTE   W36
 BYTE   N01  Gs3  v120
 BYTE   W02
 BYTE   Bn3  v112
 BYTE   W03
 BYTE   Gs3
 BYTE   W02
 BYTE   Bn3
 BYTE   W03
 BYTE   En4
 BYTE   W02
 BYTE   N22  Gs4  v116
 BYTE   W15
// 050   ----------------------------------------
 BYTE   W21
 BYTE   N01  Fs3  v124
 BYTE   W02
 BYTE   Bn3  v116
 BYTE   W03
 BYTE   Fs3
 BYTE   W02
 BYTE   Bn3
 BYTE   W03
 BYTE   Ds4
 BYTE   W02
 BYTE   N22  Fs4  v124
 BYTE   W24
 BYTE   N11  Fs4  v116
 BYTE   W12
 BYTE   En4  v108
 BYTE   W12
 BYTE   Dn4  v100
 BYTE   W12
 BYTE   Bn3  v092
 BYTE   W03
// 051   ----------------------------------------
 BYTE   W09
 BYTE   VOICE   57
 BYTE   VOL   30*B1EndingMedley_mvl/mxv
 BYTE   PAN   c_v+43
 BYTE   N10  Gn3  v072
 BYTE   W12
 BYTE   N02  Gn3  v076
 BYTE   W04
 BYTE   Gn3  v064
 BYTE   W04
 BYTE   N02
 BYTE   W04
 BYTE   N10  Gn3  v072
 BYTE   W12
 BYTE   N02  Gn3  v076
 BYTE   W04
 BYTE   Gn3  v064
 BYTE   W04
 BYTE   N02
 BYTE   W04
 BYTE   N10  Gn3  v072
 BYTE   W12
 BYTE   N02  Gn3  v076
 BYTE   W04
 BYTE   Gn3  v064
 BYTE   W04
 BYTE   N02
 BYTE   W04
 BYTE   N10  Gn3  v072
 BYTE   W12
 BYTE   N02  Gn3  v076
 BYTE   W03
// 052   ----------------------------------------
 BYTE   W01
 BYTE   Gn3  v064
 BYTE   W04
 BYTE   N02
 BYTE   W04
 BYTE   N10  Gn3  v072
 BYTE   W12
 BYTE   N02  Gn3  v076
 BYTE   W04
 BYTE   Gn3  v064
 BYTE   W04
 BYTE   N02
 BYTE   W04
 BYTE   N10  Gn3  v072
 BYTE   W12
 BYTE   N02  Gn3  v076
 BYTE   W04
 BYTE   Gn3  v064
 BYTE   W04
 BYTE   N02
 BYTE   W04
 BYTE   N10  Gn3  v072
 BYTE   W12
 BYTE   N02  Gn3  v076
 BYTE   W04
 BYTE   Gn3  v064
 BYTE   W04
 BYTE   N02
 BYTE   W04
 BYTE   N10  Gn3  v076
 BYTE   W12
 BYTE   N02  Gn3  v084
 BYTE   W03
// 053   ----------------------------------------
 BYTE   W01
 BYTE   Gn3  v064
 BYTE   W04
 BYTE   N02
 BYTE   W04
 BYTE   VOICE   42
 BYTE   VOL   40*B1EndingMedley_mvl/mxv
 BYTE   PAN   c_v+25
 BYTE   N68  As2  v076
 BYTE   W72
 BYTE   N23  Dn3
 BYTE   W15
// 054   ----------------------------------------
Label_4_0109BE84:
 BYTE   W09
 BYTE   N44  Cn3  v076
 BYTE   W48
 BYTE   Gn2
 BYTE   W36
 BYTE   W03
 BYTE   PEND 
// 055   ----------------------------------------
 BYTE   W09
 BYTE   N68  As2
 BYTE   W72
 BYTE   N23  Dn3
 BYTE   W15
 BYTE   PATT
  POIN2 Label_4_0109BE84
// 056   ----------------------------------------
 BYTE   W09
 BYTE   N92  As2  v076
 BYTE   W84
 BYTE   W03
// 057   ----------------------------------------
 BYTE   W09
 BYTE   N44
 BYTE   W48
 BYTE   Gn2
 BYTE   W36
 BYTE   W03
// 058   ----------------------------------------
 BYTE   W96
// 059   ----------------------------------------
 BYTE   W96
// 060   ----------------------------------------
 BYTE   W96
// 061   ----------------------------------------
 BYTE   W96
// 062   ----------------------------------------
 BYTE   W96
// 063   ----------------------------------------
 BYTE   W96
// 064   ----------------------------------------
 BYTE   W96
// 065   ----------------------------------------
 BYTE   W09
 BYTE   VOICE   41
 BYTE   VOL   55*B1EndingMedley_mvl/mxv
 BYTE   PAN   c_v-14
 BYTE   N03  Cn3  v104
 BYTE   W04
 BYTE   N02  Cn3  v052
 BYTE   W03
 BYTE   Cn3  v040
 BYTE   W05
 BYTE   N03  Cn3  v104
 BYTE   W04
 BYTE   N02  Cn3  v052
 BYTE   W03
 BYTE   Cn3  v040
 BYTE   W05
 BYTE   N03  Cn3  v104
 BYTE   W04
 BYTE   N02  Cn3  v052
 BYTE   W03
 BYTE   Cn3  v040
 BYTE   W05
 BYTE   Cn3  v108
 BYTE   W03
 BYTE   Cn3  v060
 BYTE   W03
 BYTE   N03  Cn3  v104
 BYTE   W04
 BYTE   N02  Cn3  v052
 BYTE   W03
 BYTE   Cn3  v040
 BYTE   W05
 BYTE   N03  Cn3  v104
 BYTE   W04
 BYTE   N02  Cn3  v052
 BYTE   W03
 BYTE   Cn3  v040
 BYTE   W05
 BYTE   N03  Cn3  v104
 BYTE   W04
 BYTE   N02  Cn3  v052
 BYTE   W03
 BYTE   Cn3  v040
 BYTE   W05
 BYTE   Cn3  v108
 BYTE   W03
 BYTE   Cn3  v060
 BYTE   W03
 BYTE   N03  Cn3  v104
 BYTE   W03
// 066   ----------------------------------------
 BYTE   W01
 BYTE   N02  Cn3  v052
 BYTE   W03
 BYTE   Cn3  v040
 BYTE   W05
 BYTE   N03  Cn3  v104
 BYTE   W04
 BYTE   N02  Cn3  v052
 BYTE   W03
 BYTE   Cn3  v040
 BYTE   W05
 BYTE   N03  Cn3  v104
 BYTE   W04
 BYTE   N02  Cn3  v052
 BYTE   W03
 BYTE   Cn3  v040
 BYTE   W05
 BYTE   Cn3  v108
 BYTE   W03
 BYTE   Cn3  v060
 BYTE   W03
 BYTE   N03  Cn3  v104
 BYTE   W04
 BYTE   N02  Cn3  v052
 BYTE   W03
 BYTE   Cn3  v040
 BYTE   W05
 BYTE   N03  Cn3  v104
 BYTE   W04
 BYTE   N02  Cn3  v052
 BYTE   W03
 BYTE   Cn3  v040
 BYTE   W05
 BYTE   N03  Cn3  v104
 BYTE   W04
 BYTE   N02  Cn3  v052
 BYTE   W03
 BYTE   Cn3  v040
 BYTE   W05
 BYTE   Cn3  v108
 BYTE   W03
 BYTE   Cn3  v060
 BYTE   W03
 BYTE   N03  Cn3  v104
 BYTE   W04
 BYTE   N02  Cn3  v052
 BYTE   W03
 BYTE   Cn3  v040
 BYTE   W05
 BYTE   N03  Cn3  v104
 BYTE   W03
// 067   ----------------------------------------
 BYTE   W01
 BYTE   N02  Cn3  v052
 BYTE   W03
 BYTE   Cn3  v040
 BYTE   W05
 BYTE   N03  Cn3  v104
 BYTE   W04
 BYTE   N02  Cn3  v052
 BYTE   W03
 BYTE   Cn3  v040
 BYTE   W05
 BYTE   Cn3  v108
 BYTE   W03
 BYTE   Cn3  v060
 BYTE   W03
 BYTE   N03  Cn3  v104
 BYTE   W04
 BYTE   N02  Cn3  v052
 BYTE   W03
 BYTE   Cn3  v040
 BYTE   W05
 BYTE   N03  Cn3  v104
 BYTE   W04
 BYTE   N02  Cn3  v052
 BYTE   W03
 BYTE   Cn3  v040
 BYTE   W05
 BYTE   N03  Cn3  v104
 BYTE   W04
 BYTE   N02  Cn3  v052
 BYTE   W03
 BYTE   Cn3  v040
 BYTE   W05
 BYTE   Cn3  v108
 BYTE   W03
 BYTE   Cn3  v060
 BYTE   W03
 BYTE   N03  Cn3  v104
 BYTE   W04
 BYTE   N02  Cn3  v052
 BYTE   W03
 BYTE   Cn3  v040
 BYTE   W05
 BYTE   N03  Cn3  v104
 BYTE   W04
 BYTE   N02  Cn3  v052
 BYTE   W03
 BYTE   Cn3  v040
 BYTE   W05
 BYTE   N03  Cn3  v104
 BYTE   W03
// 068   ----------------------------------------
 BYTE   W01
 BYTE   N02  Cn3  v052
 BYTE   W03
 BYTE   Cn3  v040
 BYTE   W05
 BYTE   Cn3  v108
 BYTE   W03
 BYTE   Cn3  v060
 BYTE   W03
 BYTE   N03  Cn3  v104
 BYTE   W04
 BYTE   N02  Cn3  v052
 BYTE   W03
 BYTE   Cn3  v040
 BYTE   W05
 BYTE   N03  Cn3  v104
 BYTE   W04
 BYTE   N02  Cn3  v052
 BYTE   W03
 BYTE   Cn3  v040
 BYTE   W05
 BYTE   N03  Cn3  v104
 BYTE   W04
 BYTE   N02  Cn3  v052
 BYTE   W03
 BYTE   Cn3  v040
 BYTE   W05
 BYTE   Cn3  v108
 BYTE   W03
 BYTE   Cn3  v060
 BYTE   W04
 BYTE   VOICE   41
 BYTE   VOL   50*B1EndingMedley_mvl/mxv
 BYTE   PAN   c_v-25
 BYTE   N22  Gn3  v104
 BYTE   W24
 BYTE   N05  En3  v096
 BYTE   W08
 BYTE   Fn3  v104
 BYTE   W06
// 069   ----------------------------------------
 BYTE   W02
 BYTE   Gn3  v108
 BYTE   W08
 BYTE   N22  Gn3  v104
 BYTE   W24
 BYTE   N05  En3  v096
 BYTE   W08
 BYTE   Fn3  v104
 BYTE   W08
 BYTE   Gn3  v108
 BYTE   W08
 BYTE   N22  Gn3  v104
 BYTE   W24
 BYTE   N05  En3  v096
 BYTE   W08
 BYTE   Gn3  v104
 BYTE   W06
// 070   ----------------------------------------
 BYTE   W02
 BYTE   Cn4  v108
 BYTE   W08
 BYTE   N32  Ds4  v104
 BYTE   W36
 BYTE   N11  Cn4
 BYTE   W12
 BYTE   N22  En4
 BYTE   W32
 BYTE   N05  Cn4
 BYTE   W06
// 071   ----------------------------------------
 BYTE   W02
 BYTE   Gn3  v108
 BYTE   W08
 BYTE   N32  An3  v104
 BYTE   W36
 BYTE   N11  Bn3
 BYTE   W12
 BYTE   N22  Cn4
 BYTE   W24
 BYTE   An3
 BYTE   W14
// 072   ----------------------------------------
 BYTE   W10
 BYTE   N44  Dn4
 BYTE   W48
 BYTE   N03  Cn4
 BYTE   W06
 BYTE   N02  Gn3  v108
 BYTE   W03
 BYTE   Fn3  v092
 BYTE   W03
 BYTE   N16  En3  v104
 BYTE   W18
 BYTE   N02  En3  v108
 BYTE   W03
 BYTE   Fn3  v092
 BYTE   W03
 BYTE   N03  Gn3  v104
 BYTE   W02
// 073   ----------------------------------------
 BYTE   W04
 BYTE   Cn4
 BYTE   W06
 BYTE   N05  Cn4  v108
 BYTE   W09
 BYTE   N02  Gn3  v092
 BYTE   W03
 BYTE   N32  Gn3  v104
 BYTE   W36
 BYTE   N03  Cn4
 BYTE   W06
 BYTE   N02  Gn3  v108
 BYTE   W03
 BYTE   Fn3  v092
 BYTE   W03
 BYTE   N16  En3  v104
 BYTE   W18
 BYTE   N02  En3  v108
 BYTE   W03
 BYTE   Fn3  v092
 BYTE   W03
 BYTE   N03  Gn3  v104
 BYTE   W02
// 074   ----------------------------------------
 BYTE   W04
 BYTE   Cn4
 BYTE   W06
 BYTE   N32  Ds4  v108
 BYTE   W36
 BYTE   N11  Cn4  v104
 BYTE   W12
 BYTE   N32  En4  v108
 BYTE   W36
 BYTE   N11  Cn4  v104
 BYTE   W02
// 075   ----------------------------------------
 BYTE   W10
 BYTE   N44  An4
 BYTE   W60
 BYTE   N11
 BYTE   W12
 BYTE   N17  Gn4
 BYTE   W14
// 076   ----------------------------------------
 BYTE   W04
 BYTE   N05  Fn4  v096
 BYTE   W06
 BYTE   N92  Gn4  v104
 BYTE   W84
 BYTE   W02
// 077   ----------------------------------------
 BYTE   W10
 BYTE   N44  Gs3  v092
 BYTE   W48
 BYTE   As3
 BYTE   W36
 BYTE   W02
// 078   ----------------------------------------
 BYTE   W10
 BYTE   N44
 BYTE   W48
 BYTE   Dn4
 BYTE   W36
 BYTE   W02
// 079   ----------------------------------------
 BYTE   W10
 BYTE   En4
 BYTE   W48
 BYTE   N23  Cn4
 BYTE   W24
 BYTE   Gn3
 BYTE   W14
// 080   ----------------------------------------
 BYTE   W10
 BYTE   N44  En3
 BYTE   W48
 BYTE   N23  Dn3
 BYTE   W24
 BYTE   N23
 BYTE   W14
// 081   ----------------------------------------
 BYTE   W96
// 082   ----------------------------------------
 BYTE   W96
// 083   ----------------------------------------
 BYTE   W96
// 084   ----------------------------------------
 BYTE   W96
// 085   ----------------------------------------
 BYTE   W96
// 086   ----------------------------------------
 BYTE   W96
// 087   ----------------------------------------
 BYTE   W09
 BYTE   FINE

//**************** Track 6 (Midi-Chn.5) ****************//

B1EndingMedley_006:
// 000   ----------------------------------------
 BYTE   KEYSH   B1EndingMedley_key+0
 BYTE   W96
// 001   ----------------------------------------
 BYTE   W96
// 002   ----------------------------------------
 BYTE   W96
// 003   ----------------------------------------
 BYTE   W96
// 004   ----------------------------------------
 BYTE   W96
// 005   ----------------------------------------
 BYTE   W96
// 006   ----------------------------------------
 BYTE   W06
 BYTE   VOICE   41
 BYTE   VOL   50*B1EndingMedley_mvl/mxv
 BYTE   PAN   c_v-14
 BYTE   W12
 BYTE   N03  As3  v096
 BYTE   W04
 BYTE   As3  v076
 BYTE   W04
 BYTE   N03
 BYTE   W04
 BYTE   N11  As3  v092
 BYTE   W12
 BYTE   N11
 BYTE   W12
 BYTE   Fn4
 BYTE   W12
 BYTE   N11
 BYTE   W12
 BYTE   N11
 BYTE   W12
 BYTE   N11
 BYTE   W06
// 007   ----------------------------------------
 BYTE   W06
 BYTE   Ds4
 BYTE   W12
 BYTE   N11
 BYTE   W12
 BYTE   N11
 BYTE   W12
 BYTE   N11
 BYTE   W12
 BYTE   Gn4
 BYTE   W12
 BYTE   N11
 BYTE   W12
 BYTE   N23
 BYTE   W18
// 008   ----------------------------------------
 BYTE   W96
// 009   ----------------------------------------
 BYTE   W96
// 010   ----------------------------------------
 BYTE   W96
// 011   ----------------------------------------
 BYTE   W96
// 012   ----------------------------------------
 BYTE   W06
 BYTE   VOICE   41
 BYTE   VOL   50*B1EndingMedley_mvl/mxv
 BYTE   PAN   c_v-14
 BYTE   N11  As3
 BYTE   W12
 BYTE   N03  As3  v096
 BYTE   W04
 BYTE   As3  v076
 BYTE   W04
 BYTE   N03
 BYTE   W04
 BYTE   N11  As3  v092
 BYTE   W12
 BYTE   N11
 BYTE   W12
 BYTE   An3
 BYTE   W12
 BYTE   N03  An3  v096
 BYTE   W04
 BYTE   An3  v076
 BYTE   W04
 BYTE   N03
 BYTE   W04
 BYTE   N11  An3  v092
 BYTE   W12
 BYTE   N11
 BYTE   W06
// 013   ----------------------------------------
 BYTE   W06
 BYTE   As3
 BYTE   W12
 BYTE   N03  As3  v096
 BYTE   W04
 BYTE   As3  v076
 BYTE   W04
 BYTE   N03
 BYTE   W04
 BYTE   N11  As3  v092
 BYTE   W12
 BYTE   N11
 BYTE   W12
 BYTE   An3
 BYTE   W12
 BYTE   N03  An3  v096
 BYTE   W04
 BYTE   An3  v076
 BYTE   W04
 BYTE   N03
 BYTE   W04
 BYTE   N11  An3  v092
 BYTE   W12
 BYTE   N11
 BYTE   W06
// 014   ----------------------------------------
 BYTE   W06
 BYTE   N11
 BYTE   W12
 BYTE   N03  An3  v096
 BYTE   W04
 BYTE   An3  v076
 BYTE   W04
 BYTE   N03
 BYTE   W04
 BYTE   N11  An3  v092
 BYTE   W12
 BYTE   N11
 BYTE   W12
 BYTE   N03
 BYTE   W04
 BYTE   En3
 BYTE   W04
 BYTE   An3
 BYTE   W04
 BYTE   N03
 BYTE   W04
 BYTE   En3
 BYTE   W04
 BYTE   An3
 BYTE   W04
 BYTE   N03
 BYTE   W04
 BYTE   En3
 BYTE   W04
 BYTE   An3
 BYTE   W04
 BYTE   N03
 BYTE   W04
 BYTE   En3
 BYTE   W02
// 015   ----------------------------------------
 BYTE   W02
 BYTE   An3
 BYTE   W04
 BYTE   N03
 BYTE   W04
 BYTE   En3
 BYTE   W04
 BYTE   An3
 BYTE   W04
 BYTE   N03
 BYTE   W04
 BYTE   En3
 BYTE   W04
 BYTE   An3
 BYTE   W04
 BYTE   N23
 BYTE   W66
// 016   ----------------------------------------
 BYTE   W96
// 017   ----------------------------------------
 BYTE   W96
// 018   ----------------------------------------
 BYTE   W96
// 019   ----------------------------------------
 BYTE   W54
 BYTE   VOICE   41
 BYTE   VOL   50*B1EndingMedley_mvl/mxv
 BYTE   PAN   c_v-14
 BYTE   N11  Fn3
 BYTE   W12
 BYTE   N11
 BYTE   W12
 BYTE   N11
 BYTE   W12
 BYTE   N11
 BYTE   W06
// 020   ----------------------------------------
 BYTE   W06
 BYTE   Ds3
 BYTE   W12
 BYTE   N11
 BYTE   W12
 BYTE   N11
 BYTE   W12
 BYTE   N11
 BYTE   W12
 BYTE   Dn3
 BYTE   W12
 BYTE   N11
 BYTE   W12
 BYTE   N11
 BYTE   W12
 BYTE   N11
 BYTE   W06
// 021   ----------------------------------------
 BYTE   W06
 BYTE   Cs3
 BYTE   W12
 BYTE   N11
 BYTE   W12
 BYTE   N11
 BYTE   W12
 BYTE   N11
 BYTE   W12
 BYTE   VOICE   41
 BYTE   VOL   50*B1EndingMedley_mvl/mxv
 BYTE   PAN   c_v-14
 BYTE   N11  Fn3
 BYTE   W12
 BYTE   Fn3  v084
 BYTE   W12
 BYTE   N11
 BYTE   W12
 BYTE   N11
 BYTE   W06
// 022   ----------------------------------------
 BYTE   W06
 BYTE   Ds3  v092
 BYTE   W12
 BYTE   Ds3  v084
 BYTE   W12
 BYTE   N11
 BYTE   W12
 BYTE   N11
 BYTE   W12
 BYTE   Fn3  v092
 BYTE   W12
 BYTE   Fn3  v084
 BYTE   W12
 BYTE   N11
 BYTE   W12
 BYTE   N11
 BYTE   W06
// 023   ----------------------------------------
 BYTE   W06
 BYTE   Ds3  v092
 BYTE   W12
 BYTE   Ds3  v084
 BYTE   W12
 BYTE   N11
 BYTE   W12
 BYTE   N11
 BYTE   W12
 BYTE   VOICE   10
 BYTE   VOL   50*B1EndingMedley_mvl/mxv
 BYTE   PAN   c_v-14
 BYTE   N11  Cn2  v108
 BYTE   W12
 BYTE   Cn2  v104
 BYTE   W12
 BYTE   N11
 BYTE   W12
 BYTE   N11
 BYTE   W06
// 024   ----------------------------------------
 BYTE   W06
 BYTE   As1  v108
 BYTE   W12
 BYTE   As1  v104
 BYTE   W12
 BYTE   N11
 BYTE   W12
 BYTE   N11
 BYTE   W12
 BYTE   An1  v108
 BYTE   W12
 BYTE   An1  v104
 BYTE   W12
 BYTE   N11
 BYTE   W12
 BYTE   N11
 BYTE   W06
// 025   ----------------------------------------
 BYTE   W06
 BYTE   Gs1  v108
 BYTE   W12
 BYTE   Gs1  v104
 BYTE   W12
 BYTE   N11
 BYTE   W12
 BYTE   N11
 BYTE   W12
 BYTE   N11
 BYTE   W12
 BYTE   N11
 BYTE   W12
 BYTE   N05  Fn1
 BYTE   W06
 BYTE   N02  Fn1  v108
 BYTE   W03
 BYTE   Fn1  v092
 BYTE   W03
 BYTE   N05  Fn1  v104
 BYTE   W06
// 026   ----------------------------------------
 BYTE   N02  Fn1  v108
 BYTE   W03
 BYTE   Fn1  v092
 BYTE   W03
 BYTE   N05  Fn1  v104
 BYTE   W06
 BYTE   N02  Fn1  v108
 BYTE   W03
 BYTE   Fn1  v092
 BYTE   W03
 BYTE   N05  Fn1  v104
 BYTE   W06
 BYTE   N02  Fn1  v108
 BYTE   W03
 BYTE   Fn1  v092
 BYTE   W03
 BYTE   N05  Fn1  v104
 BYTE   W06
 BYTE   N02  Fn1  v108
 BYTE   W03
 BYTE   Fn1  v092
 BYTE   W03
 BYTE   N05  Fn1  v104
 BYTE   W06
 BYTE   N02  Fn1  v108
 BYTE   W03
 BYTE   Fn1  v092
 BYTE   W03
 BYTE   N05  Fn1  v104
 BYTE   W06
 BYTE   N02  Fn1  v108
 BYTE   W03
 BYTE   Fn1  v092
 BYTE   W03
 BYTE   N05  Fn1  v104
 BYTE   W06
 BYTE   N02  Fn1  v108
 BYTE   W03
 BYTE   Fn1  v092
 BYTE   W03
 BYTE   N05  Fs1  v104
 BYTE   W06
 BYTE   N02  Fs1  v108
 BYTE   W03
 BYTE   Fs1  v092
 BYTE   W03
 BYTE   N05  Fs1  v104
 BYTE   W06
// 027   ----------------------------------------
 BYTE   N02  Fs1  v108
 BYTE   W03
 BYTE   Fs1  v092
 BYTE   W03
 BYTE   N05  Fs1  v104
 BYTE   W06
 BYTE   N02  Fs1  v108
 BYTE   W03
 BYTE   Fs1  v092
 BYTE   W03
 BYTE   N05  Fs1  v104
 BYTE   W06
 BYTE   N02  Fs1  v108
 BYTE   W03
 BYTE   Fs1  v092
 BYTE   W03
 BYTE   N05  Gs1  v104
 BYTE   W06
 BYTE   N02  Gs1  v108
 BYTE   W03
 BYTE   Gs1  v092
 BYTE   W03
 BYTE   N05  Gs1  v104
 BYTE   W06
 BYTE   N02  Gs1  v108
 BYTE   W03
 BYTE   Gs1  v092
 BYTE   W03
 BYTE   N05  Gs1  v104
 BYTE   W06
 BYTE   N02  Gs1  v108
 BYTE   W03
 BYTE   Gs1  v092
 BYTE   W03
 BYTE   N05  Gs1  v104
 BYTE   W06
 BYTE   N02  Gs1  v108
 BYTE   W03
 BYTE   Gs1  v092
 BYTE   W03
 BYTE   N11  Fn2  v108
 BYTE   W12
 BYTE   Fn2  v104
 BYTE   W06
// 028   ----------------------------------------
Label_5_0109C2D8:
 BYTE   W06
 BYTE   N11  Fn2  v104
 BYTE   W12
 BYTE   N11
 BYTE   W12
 BYTE   Ds2  v108
 BYTE   W12
 BYTE   Ds2  v104
 BYTE   W12
 BYTE   N11
 BYTE   W12
 BYTE   N11
 BYTE   W12
 BYTE   Fn2  v108
 BYTE   W12
 BYTE   Fn2  v104
 BYTE   W06
 BYTE   PEND 
 BYTE   PATT
  POIN2 Label_5_0109C2D8
 BYTE   PATT
  POIN2 Label_5_0109C2D8
 BYTE   PATT
  POIN2 Label_5_0109C2D8
 BYTE   PATT
  POIN2 Label_5_0109C2D8
 BYTE   PATT
  POIN2 Label_5_0109C2D8
 BYTE   PATT
  POIN2 Label_5_0109C2D8
// 029   ----------------------------------------
 BYTE   W06
 BYTE   N11  Fn2  v104
 BYTE   W12
 BYTE   N11
 BYTE   W12
 BYTE   Ds2  v108
 BYTE   W12
 BYTE   Ds2  v104
 BYTE   W12
 BYTE   N11
 BYTE   W12
 BYTE   N11
 BYTE   W12
 BYTE   Cn2  v108
 BYTE   W12
 BYTE   Cn2  v104
 BYTE   W06
// 030   ----------------------------------------
 BYTE   W06
 BYTE   N11
 BYTE   W12
 BYTE   N11
 BYTE   W12
 BYTE   As1  v108
 BYTE   W12
 BYTE   As1  v104
 BYTE   W12
 BYTE   N11
 BYTE   W12
 BYTE   N11
 BYTE   W12
 BYTE   An1  v108
 BYTE   W12
 BYTE   An1  v104
 BYTE   W06
// 031   ----------------------------------------
 BYTE   W06
 BYTE   N11
 BYTE   W12
 BYTE   N11
 BYTE   W12
 BYTE   Gs1  v108
 BYTE   W12
 BYTE   Gs1  v104
 BYTE   W12
 BYTE   N11
 BYTE   W12
 BYTE   N11
 BYTE   W12
 BYTE   N11
 BYTE   W12
 BYTE   N11
 BYTE   W06
// 032   ----------------------------------------
 BYTE   W06
 BYTE   N05  Fn1
 BYTE   W06
 BYTE   N02  Fn1  v108
 BYTE   W03
 BYTE   Fn1  v092
 BYTE   W03
 BYTE   N05  Fn1  v104
 BYTE   W06
 BYTE   N02  Fn1  v108
 BYTE   W03
 BYTE   Fn1  v092
 BYTE   W03
 BYTE   N05  Fn1  v104
 BYTE   W06
 BYTE   N02  Fn1  v108
 BYTE   W03
 BYTE   Fn1  v092
 BYTE   W03
 BYTE   N05  Fn1  v104
 BYTE   W06
 BYTE   N02  Fn1  v108
 BYTE   W03
 BYTE   Fn1  v092
 BYTE   W03
 BYTE   N05  Fn1  v104
 BYTE   W06
 BYTE   N02  Fn1  v108
 BYTE   W03
 BYTE   Fn1  v092
 BYTE   W03
 BYTE   N05  Fn1  v104
 BYTE   W06
 BYTE   N02  Fn1  v108
 BYTE   W03
 BYTE   Fn1  v092
 BYTE   W03
 BYTE   N05  Fn1  v104
 BYTE   W06
 BYTE   N02  Fn1  v108
 BYTE   W03
 BYTE   Fn1  v092
 BYTE   W03
 BYTE   N05  Fn1  v104
 BYTE   W06
// 033   ----------------------------------------
 BYTE   N02  Fn1  v108
 BYTE   W03
 BYTE   Fn1  v092
 BYTE   W04
 BYTE   VOICE   41
 BYTE   VOL   50*B1EndingMedley_mvl/mxv
 BYTE   PAN   c_v-14
 BYTE   N11  Dn3
 BYTE   W12
 BYTE   Dn3  v084
 BYTE   W12
 BYTE   N11
 BYTE   W12
 BYTE   N11
 BYTE   W12
 BYTE   Dn3  v092
 BYTE   W12
 BYTE   Dn3  v084
 BYTE   W12
 BYTE   N11
 BYTE   W12
 BYTE   N11
 BYTE   W05
// 034   ----------------------------------------
 BYTE   W07
 BYTE   Dn3  v092
 BYTE   W12
 BYTE   Dn3  v084
 BYTE   W12
 BYTE   N11
 BYTE   W12
 BYTE   N11
 BYTE   W12
 BYTE   Dn3  v092
 BYTE   W12
 BYTE   Dn3  v084
 BYTE   W12
 BYTE   N11
 BYTE   W12
 BYTE   N11
 BYTE   W05
// 035   ----------------------------------------
 BYTE   W07
 BYTE   VOICE   41
 BYTE   VOL   50*B1EndingMedley_mvl/mxv
 BYTE   PAN   c_v-14
 BYTE   N11  Gn3  v092
 BYTE   W12
 BYTE   Gn3  v084
 BYTE   W12
 BYTE   N11
 BYTE   W12
 BYTE   N11
 BYTE   W12
 BYTE   Ds3  v092
 BYTE   W12
 BYTE   Ds3  v084
 BYTE   W12
 BYTE   N11
 BYTE   W12
 BYTE   N11
 BYTE   W05
// 036   ----------------------------------------
Label_5_0109C3F0:
 BYTE   W07
 BYTE   N11  Cn3  v092
 BYTE   W12
 BYTE   Cn3  v084
 BYTE   W12
 BYTE   N11
 BYTE   W12
 BYTE   N11
 BYTE   W12
 BYTE   Dn3  v092
 BYTE   W12
 BYTE   Dn3  v084
 BYTE   W12
 BYTE   N11
 BYTE   W12
 BYTE   N11
 BYTE   W05
 BYTE   PEND 
// 037   ----------------------------------------
Label_5_0109C407:
 BYTE   W07
 BYTE   N11  Gn3  v092
 BYTE   W12
 BYTE   Gn3  v084
 BYTE   W12
 BYTE   N11
 BYTE   W12
 BYTE   N11
 BYTE   W12
 BYTE   Ds3  v092
 BYTE   W12
 BYTE   Ds3  v084
 BYTE   W12
 BYTE   N11
 BYTE   W12
 BYTE   N11
 BYTE   W05
 BYTE   PEND 
 BYTE   PATT
  POIN2 Label_5_0109C3F0
 BYTE   PATT
  POIN2 Label_5_0109C407
// 038   ----------------------------------------
 BYTE   W07
 BYTE   N11  Fn3  v092
 BYTE   W12
 BYTE   Fn3  v084
 BYTE   W12
 BYTE   N11
 BYTE   W12
 BYTE   N11
 BYTE   W12
 BYTE   Gn3  v092
 BYTE   W12
 BYTE   Gn3  v084
 BYTE   W12
 BYTE   N11
 BYTE   W12
 BYTE   N11
 BYTE   W05
// 039   ----------------------------------------
 BYTE   W07
 BYTE   Gs3  v092
 BYTE   W12
 BYTE   Gs3  v084
 BYTE   W12
 BYTE   N11
 BYTE   W12
 BYTE   N11
 BYTE   W12
 BYTE   Gs3  v092
 BYTE   W12
 BYTE   Gs3  v084
 BYTE   W12
 BYTE   N11
 BYTE   W12
 BYTE   N11
 BYTE   W05
// 040   ----------------------------------------
 BYTE   W08
 BYTE   VOICE   41
 BYTE   VOL   50*B1EndingMedley_mvl/mxv
 BYTE   PAN   c_v-14
 BYTE   N11  Gn3  v092
 BYTE   W12
 BYTE   Gn3  v084
 BYTE   W12
 BYTE   N11
 BYTE   W12
 BYTE   N11
 BYTE   W12
 BYTE   Gn3  v092
 BYTE   W12
 BYTE   Gn3  v084
 BYTE   W12
 BYTE   N11
 BYTE   W12
 BYTE   N11
 BYTE   W04
// 041   ----------------------------------------
 BYTE   W08
 BYTE   Fn3  v092
 BYTE   W12
 BYTE   Fn3  v084
 BYTE   W12
 BYTE   N11
 BYTE   W12
 BYTE   N11
 BYTE   W12
 BYTE   Fn3  v092
 BYTE   W12
 BYTE   Fn3  v084
 BYTE   W12
 BYTE   N11
 BYTE   W12
 BYTE   N11
 BYTE   W04
// 042   ----------------------------------------
 BYTE   W08
 BYTE   Ds3  v092
 BYTE   W12
 BYTE   Ds3  v084
 BYTE   W12
 BYTE   N11
 BYTE   W12
 BYTE   N11
 BYTE   W12
 BYTE   Ds3  v092
 BYTE   W12
 BYTE   Ds3  v084
 BYTE   W12
 BYTE   N11
 BYTE   W12
 BYTE   N11
 BYTE   W04
// 043   ----------------------------------------
 BYTE   W08
 BYTE   Dn3  v092
 BYTE   W12
 BYTE   Dn3  v084
 BYTE   W12
 BYTE   N11
 BYTE   W12
 BYTE   N11
 BYTE   W12
 BYTE   Dn3  v092
 BYTE   W12
 BYTE   Dn3  v084
 BYTE   W12
 BYTE   N11
 BYTE   W12
 BYTE   N11
 BYTE   W04
// 044   ----------------------------------------
 BYTE   W08
 BYTE   Gn3  v092
 BYTE   W12
 BYTE   Gn3  v084
 BYTE   W12
 BYTE   N11
 BYTE   W12
 BYTE   N11
 BYTE   W12
 BYTE   Dn3  v092
 BYTE   W12
 BYTE   Dn3  v084
 BYTE   W12
 BYTE   N11
 BYTE   W12
 BYTE   N11
 BYTE   W04
// 045   ----------------------------------------
Label_5_0109C4C3:
 BYTE   W08
 BYTE   VOICE   57
 BYTE   VOL   55*B1EndingMedley_mvl/mxv
 BYTE   PAN   c_v-34
 BYTE   N10  Gn3  v072
 BYTE   W12
 BYTE   N02  Gn3  v076
 BYTE   W04
 BYTE   Gn3  v064
 BYTE   W04
 BYTE   N02
 BYTE   W04
 BYTE   N10  Gn3  v072
 BYTE   W12
 BYTE   N02  Gn3  v076
 BYTE   W04
 BYTE   Gn3  v064
 BYTE   W04
 BYTE   N02
 BYTE   W04
 BYTE   N10  Gn3  v072
 BYTE   W12
 BYTE   N02  Gn3  v076
 BYTE   W04
 BYTE   Gn3  v064
 BYTE   W04
 BYTE   N02
 BYTE   W04
 BYTE   N10  Gn3  v072
 BYTE   W12
 BYTE   N02  Gn3  v076
 BYTE   W04
 BYTE   PEND 
// 046   ----------------------------------------
Label_5_0109C4FA:
 BYTE   N02  Gn3  v064
 BYTE   W04
 BYTE   N02
 BYTE   W04
 BYTE   N10  Gn3  v072
 BYTE   W12
 BYTE   N02  Gn3  v076
 BYTE   W04
 BYTE   Gn3  v064
 BYTE   W04
 BYTE   N02
 BYTE   W04
 BYTE   N10  Gn3  v072
 BYTE   W12
 BYTE   N02  Gn3  v076
 BYTE   W04
 BYTE   Gn3  v064
 BYTE   W04
 BYTE   N02
 BYTE   W04
 BYTE   N10  Gn3  v072
 BYTE   W12
 BYTE   N02  Gn3  v076
 BYTE   W04
 BYTE   Gn3  v064
 BYTE   W04
 BYTE   N02
 BYTE   W04
 BYTE   N10  Gn3  v072
 BYTE   W12
 BYTE   N02  Gn3  v076
 BYTE   W04
 BYTE   PEND 
 BYTE   PATT
  POIN2 Label_5_0109C4FA
 BYTE   PATT
  POIN2 Label_5_0109C4FA
// 047   ----------------------------------------
 BYTE   N02  Gn3  v064
 BYTE   W04
 BYTE   N02
 BYTE   W04
 BYTE   VOICE   41
 BYTE   VOL   55*B1EndingMedley_mvl/mxv
 BYTE   PAN   c_v-14
 BYTE   W12
 BYTE   N01  Cs2  v112
 BYTE   W03
 BYTE   En2  v104
 BYTE   W02
 BYTE   Cs2
 BYTE   W03
 BYTE   En2
 BYTE   W02
 BYTE   An2
 BYTE   W03
 BYTE   N22  Cs3  v108
 BYTE   W32
 BYTE   W03
 BYTE   N01  Dn2  v112
 BYTE   W03
 BYTE   Fs2  v104
 BYTE   W02
 BYTE   Dn2
 BYTE   W03
 BYTE   Fs2
 BYTE   W02
 BYTE   An2
 BYTE   W03
 BYTE   N22  Dn3  v108
 BYTE   W15
// 048   ----------------------------------------
 BYTE   W20
 BYTE   N01  En2  v112
 BYTE   W03
 BYTE   Gs2  v104
 BYTE   W02
 BYTE   En2
 BYTE   W03
 BYTE   Gs2
 BYTE   W02
 BYTE   Bn2
 BYTE   W03
 BYTE   N10  En3  v108
 BYTE   W11
 BYTE   N11  Bn2  v104
 BYTE   W12
 BYTE   N44  Cs3  v112
 BYTE   W40
// 049   ----------------------------------------
 BYTE   W20
 BYTE   N01  En2  v116
 BYTE   W03
 BYTE   An2  v104
 BYTE   W02
 BYTE   En2
 BYTE   W03
 BYTE   An2
 BYTE   W02
 BYTE   Cs3
 BYTE   W03
 BYTE   N22  En3  v112
 BYTE   W32
 BYTE   W03
 BYTE   N01  Gs2  v120
 BYTE   W03
 BYTE   Bn2  v112
 BYTE   W02
 BYTE   Gs2
 BYTE   W03
 BYTE   Bn2
 BYTE   W02
 BYTE   En3
 BYTE   W03
 BYTE   N22  Gs3  v116
 BYTE   W15
// 050   ----------------------------------------
 BYTE   W20
 BYTE   N01  Fs2  v124
 BYTE   W03
 BYTE   Bn2  v116
 BYTE   W02
 BYTE   Fs2
 BYTE   W03
 BYTE   Bn2
 BYTE   W02
 BYTE   Ds3
 BYTE   W03
 BYTE   N22  Fs3  v124
 BYTE   W23
 BYTE   N11  Fs3  v116
 BYTE   W12
 BYTE   En3  v108
 BYTE   W12
 BYTE   Dn3  v100
 BYTE   W12
 BYTE   Bn2  v092
 BYTE   W04
 BYTE   PATT
  POIN2 Label_5_0109C4C3
 BYTE   PATT
  POIN2 Label_5_0109C4FA
// 051   ----------------------------------------
 BYTE   N02  Gn3  v064
 BYTE   W04
 BYTE   N02
 BYTE   W05
 BYTE   VOICE   42
 BYTE   VOL   35*B1EndingMedley_mvl/mxv
 BYTE   PAN   c_v-25
 BYTE   N68  Fn2  v076
 BYTE   W68
 BYTE   W03
 BYTE   N23  As2
 BYTE   W16
// 052   ----------------------------------------
Label_5_0109C5E5:
 BYTE   W08
 BYTE   N44  Gn2  v076
 BYTE   W48
 BYTE   En2
 BYTE   W40
 BYTE   PEND 
// 053   ----------------------------------------
 BYTE   W08
 BYTE   N68  Fn2
 BYTE   W72
 BYTE   N23  As2
 BYTE   W16
 BYTE   PATT
  POIN2 Label_5_0109C5E5
// 054   ----------------------------------------
 BYTE   W08
 BYTE   N92  Fn2  v076
 BYTE   W88
// 055   ----------------------------------------
 BYTE   W08
 BYTE   N44
 BYTE   W48
 BYTE   En2
 BYTE   W40
// 056   ----------------------------------------
 BYTE   W96
// 057   ----------------------------------------
 BYTE   W96
// 058   ----------------------------------------
 BYTE   W96
// 059   ----------------------------------------
 BYTE   W96
// 060   ----------------------------------------
 BYTE   W96
// 061   ----------------------------------------
 BYTE   W96
// 062   ----------------------------------------
 BYTE   W96
// 063   ----------------------------------------
 BYTE   W96
// 064   ----------------------------------------
 BYTE   W96
// 065   ----------------------------------------
 BYTE   W96
// 066   ----------------------------------------
 BYTE   W56
 BYTE   W02
 BYTE   VOICE   41
 BYTE   VOL   25*B1EndingMedley_mvl/mxv
 BYTE   PAN   c_v-14
 BYTE   N11  Cn3  v104
 BYTE   W12
 BYTE   N11
 BYTE   W12
 BYTE   N11
 BYTE   W12
 BYTE   N11
 BYTE   W02
// 067   ----------------------------------------
Label_5_0109C61F:
 BYTE   W10
 BYTE   N11  As2  v104
 BYTE   W12
 BYTE   N11
 BYTE   W12
 BYTE   N11
 BYTE   W12
 BYTE   N11
 BYTE   W12
 BYTE   An2
 BYTE   W12
 BYTE   N11
 BYTE   W12
 BYTE   N11
 BYTE   W12
 BYTE   N11
 BYTE   W02
 BYTE   PEND 
// 068   ----------------------------------------
Label_5_0109C633:
 BYTE   W10
 BYTE   N11  Gs2  v104
 BYTE   W12
 BYTE   N11
 BYTE   W12
 BYTE   N11
 BYTE   W12
 BYTE   N11
 BYTE   W12
 BYTE   Gn2
 BYTE   W12
 BYTE   N11
 BYTE   W12
 BYTE   N11
 BYTE   W12
 BYTE   N11
 BYTE   W02
 BYTE   PEND 
// 069   ----------------------------------------
Label_5_0109C647:
 BYTE   W10
 BYTE   N11  Fn2  v104
 BYTE   W12
 BYTE   N11
 BYTE   W12
 BYTE   N11
 BYTE   W12
 BYTE   N11
 BYTE   W12
 BYTE   N11
 BYTE   W12
 BYTE   N11
 BYTE   W12
 BYTE   N11
 BYTE   W12
 BYTE   N11
 BYTE   W02
 BYTE   PEND 
// 070   ----------------------------------------
 BYTE   W10
 BYTE   Gn2
 BYTE   W12
 BYTE   N11
 BYTE   W12
 BYTE   N11
 BYTE   W12
 BYTE   N11
 BYTE   W12
 BYTE   Cn3
 BYTE   W12
 BYTE   N11
 BYTE   W12
 BYTE   N11
 BYTE   W12
 BYTE   N11
 BYTE   W02
 BYTE   PATT
  POIN2 Label_5_0109C61F
 BYTE   PATT
  POIN2 Label_5_0109C633
 BYTE   PATT
  POIN2 Label_5_0109C647
// 071   ----------------------------------------
 BYTE   W10
 BYTE   N11  Gn2  v104
 BYTE   W12
 BYTE   N11
 BYTE   W12
 BYTE   N11
 BYTE   W12
 BYTE   N11
 BYTE   W12
 BYTE   N11
 BYTE   W12
 BYTE   N11
 BYTE   W12
 BYTE   N11
 BYTE   W12
 BYTE   N11
 BYTE   W02
// 072   ----------------------------------------
 BYTE   W10
 BYTE   Gs2
 BYTE   W12
 BYTE   N03  Gs2  v108
 BYTE   W04
 BYTE   Gs2  v092
 BYTE   W04
 BYTE   N03
 BYTE   W04
 BYTE   N11  Gs2  v104
 BYTE   W12
 BYTE   N03  Gs2  v108
 BYTE   W04
 BYTE   Gs2  v092
 BYTE   W04
 BYTE   N03
 BYTE   W04
 BYTE   N11  Gs2  v104
 BYTE   W12
 BYTE   N03  Gs2  v108
 BYTE   W04
 BYTE   Gs2  v092
 BYTE   W04
 BYTE   N03
 BYTE   W04
 BYTE   N11  Gs2  v104
 BYTE   W12
 BYTE   N03  Gs2  v108
 BYTE   W02
// 073   ----------------------------------------
 BYTE   W02
 BYTE   Gs2  v092
 BYTE   W04
 BYTE   N03
 BYTE   W04
 BYTE   N11  Gs2  v104
 BYTE   W12
 BYTE   N03  Gs2  v108
 BYTE   W04
 BYTE   Gs2  v092
 BYTE   W04
 BYTE   N03
 BYTE   W04
 BYTE   N11  Gs2  v104
 BYTE   W12
 BYTE   N03  Gs2  v108
 BYTE   W04
 BYTE   Gs2  v092
 BYTE   W04
 BYTE   N03
 BYTE   W04
 BYTE   N11  Gs2  v104
 BYTE   W12
 BYTE   N03  Gs2  v108
 BYTE   W04
 BYTE   Gs2  v092
 BYTE   W04
 BYTE   N03
 BYTE   W04
 BYTE   N11  Gs2  v104
 BYTE   W12
 BYTE   N03  Gs2  v108
 BYTE   W02
// 074   ----------------------------------------
 BYTE   W02
 BYTE   Gs2  v092
 BYTE   W04
 BYTE   N03
 BYTE   W04
 BYTE   N11  Gn2  v104
 BYTE   W12
 BYTE   N03  Gn2  v108
 BYTE   W04
 BYTE   Gn2  v092
 BYTE   W04
 BYTE   N03
 BYTE   W04
 BYTE   N11  Gn2  v104
 BYTE   W12
 BYTE   N03  Gn2  v108
 BYTE   W04
 BYTE   Gn2  v092
 BYTE   W04
 BYTE   N03
 BYTE   W04
 BYTE   N11  Gn2  v104
 BYTE   W12
 BYTE   N03  Gn2  v108
 BYTE   W04
 BYTE   Gn2  v092
 BYTE   W04
 BYTE   N03
 BYTE   W04
 BYTE   N11  Gn2  v104
 BYTE   W12
 BYTE   N03  Gn2  v108
 BYTE   W02
// 075   ----------------------------------------
 BYTE   W02
 BYTE   Gn2  v092
 BYTE   W04
 BYTE   N03
 BYTE   W04
 BYTE   N11  Gn2  v104
 BYTE   W12
 BYTE   N03  Gn2  v108
 BYTE   W04
 BYTE   Gn2  v092
 BYTE   W04
 BYTE   N03
 BYTE   W04
 BYTE   N05  Gn2  v096
 BYTE   W12
 BYTE   N11  Gn2  v108
 BYTE   W12
 BYTE   VOL   25*B1EndingMedley_mvl/mxv
 BYTE   N05
 BYTE   W02
 BYTE   VOL   24*B1EndingMedley_mvl/mxv
 BYTE   W04
 BYTE   N05  Gn2  v096
 BYTE   W01
 BYTE   VOL   23*B1EndingMedley_mvl/mxv
 BYTE   W05
 BYTE   Cn4
 BYTE   W04
 BYTE   Bn3
 BYTE   W02
 BYTE   N05  Gn2  v104
 BYTE   W03
 BYTE   VOL   20*B1EndingMedley_mvl/mxv
 BYTE   W03
 BYTE   N05  Gn2  v108
 BYTE   W02
 BYTE   VOL   19*B1EndingMedley_mvl/mxv
 BYTE   W04
 BYTE   N05  Gn2  v096
 BYTE   W01
 BYTE   VOL   18*B1EndingMedley_mvl/mxv
 BYTE   W05
 BYTE   Gn3
 BYTE   W02
// 076   ----------------------------------------
 BYTE   W02
 BYTE   Fs3
 BYTE   W02
 BYTE   N05  Gn2  v104
 BYTE   W03
 BYTE   VOL   15*B1EndingMedley_mvl/mxv
 BYTE   W03
 BYTE   N05  Cn3  v108
 BYTE   W06
 BYTE   Cn3  v096
 BYTE   W12
 BYTE   Cn3  v104
 BYTE   W06
 BYTE   Cn3  v108
 BYTE   W06
 BYTE   Cn3  v096
 BYTE   W12
 BYTE   Cn3  v104
 BYTE   W06
 BYTE   Cn3  v108
 BYTE   W06
 BYTE   Cn3  v096
 BYTE   W12
 BYTE   Cn3  v104
 BYTE   W06
 BYTE   Cn3  v108
 BYTE   W06
 BYTE   Cn3  v096
 BYTE   W08
// 077   ----------------------------------------
 BYTE   W04
 BYTE   Cn3  v104
 BYTE   W06
 BYTE   Bn2  v108
 BYTE   W06
 BYTE   Bn2  v096
 BYTE   W12
 BYTE   Bn2  v104
 BYTE   W06
 BYTE   Bn2  v108
 BYTE   W06
 BYTE   Bn2  v096
 BYTE   W12
 BYTE   Bn2  v104
 BYTE   W06
 BYTE   Cn3  v108
 BYTE   W06
 BYTE   Cn3  v096
 BYTE   W12
 BYTE   Cn3  v104
 BYTE   W06
 BYTE   Cn3  v108
 BYTE   W06
 BYTE   Cn3  v096
 BYTE   W08
// 078   ----------------------------------------
 BYTE   W04
 BYTE   Bn2  v104
 BYTE   W06
 BYTE   An2  v108
 BYTE   W06
 BYTE   An2  v096
 BYTE   W12
 BYTE   An2  v104
 BYTE   W06
 BYTE   An2  v108
 BYTE   W06
 BYTE   An2  v096
 BYTE   W12
 BYTE   An2  v104
 BYTE   W06
 BYTE   Bn2  v108
 BYTE   W06
 BYTE   Bn2  v096
 BYTE   W12
 BYTE   Bn2  v104
 BYTE   W06
 BYTE   Bn2  v108
 BYTE   W06
 BYTE   Bn2  v096
 BYTE   W08
// 079   ----------------------------------------
 BYTE   W04
 BYTE   Bn2  v104
 BYTE   W06
 BYTE   An2  v108
 BYTE   W06
 BYTE   An2  v096
 BYTE   W12
 BYTE   An2  v104
 BYTE   W06
 BYTE   An2  v108
 BYTE   W06
 BYTE   An2  v096
 BYTE   W12
 BYTE   An2  v104
 BYTE   W06
 BYTE   Gn2  v108
 BYTE   W06
 BYTE   Gn2  v096
 BYTE   W12
 BYTE   Gn2  v104
 BYTE   W06
 BYTE   Gn2  v108
 BYTE   W06
 BYTE   Gn2  v096
 BYTE   W08
// 080   ----------------------------------------
 BYTE   W04
 BYTE   Gn2  v104
 BYTE   W06
 BYTE   VOL   15*B1EndingMedley_mvl/mxv
 BYTE   N05  Fn2  v108
 BYTE   W04
 BYTE   VOL   16*B1EndingMedley_mvl/mxv
 BYTE   W02
 BYTE   N05  Fn2  v096
 BYTE   W08
 BYTE   VOL   17*B1EndingMedley_mvl/mxv
 BYTE   W04
 BYTE   N05  Fn2  v104
 BYTE   W05
 BYTE   VOL   18*B1EndingMedley_mvl/mxv
 BYTE   W01
 BYTE   N05  Fn2  v108
 BYTE   W06
 BYTE   Fn2  v096
 BYTE   W03
 BYTE   VOL   19*B1EndingMedley_mvl/mxv
 BYTE   W09
 BYTE   N05  Fn2  v104
 BYTE   W01
 BYTE   VOL   20*B1EndingMedley_mvl/mxv
 BYTE   W05
 BYTE   As3
 BYTE   N05  Gn2  v108
 BYTE   W03
 BYTE   VOL   21*B1EndingMedley_mvl/mxv
 BYTE   W03
 BYTE   N05  Gn2  v096
 BYTE   W05
 BYTE   VOL   22*B1EndingMedley_mvl/mxv
 BYTE   W07
 BYTE   N05  Gn2  v104
 BYTE   W01
 BYTE   VOL   23*B1EndingMedley_mvl/mxv
 BYTE   W05
 BYTE   N05  Gn2  v108
 BYTE   W03
 BYTE   VOL   24*B1EndingMedley_mvl/mxv
 BYTE   W03
 BYTE   N05  Gn2  v096
 BYTE   W05
 BYTE   VOL   25*B1EndingMedley_mvl/mxv
 BYTE   W03
// 081   ----------------------------------------
 BYTE   W04
 BYTE   N05  Gn2  v104
 BYTE   W01
 BYTE   VOL   26*B1EndingMedley_mvl/mxv
 BYTE   W05
 BYTE   En4
 BYTE   N05  An2  v108
 BYTE   W02
 BYTE   VOL   27*B1EndingMedley_mvl/mxv
 BYTE   W04
 BYTE   Fs4
 BYTE   N05  An2  v096
 BYTE   W04
 BYTE   VOL   29*B1EndingMedley_mvl/mxv
 BYTE   W05
 BYTE   Gs4
 BYTE   W03
 BYTE   N05  An2  v104
 BYTE   W01
 BYTE   VOL   31*B1EndingMedley_mvl/mxv
 BYTE   W04
 BYTE   As4
 BYTE   W01
 BYTE   N05  An2  v108
 BYTE   W04
 BYTE   VOL   33*B1EndingMedley_mvl/mxv
 BYTE   W02
 BYTE   N05  An2  v096
 BYTE   W02
 BYTE   VOL   34*B1EndingMedley_mvl/mxv
 BYTE   W05
 BYTE   Cs5
 BYTE   W04
 BYTE   Dn5
 BYTE   W01
 BYTE   N05  An2  v104
 BYTE   W03
 BYTE   VOL   37*B1EndingMedley_mvl/mxv
 BYTE   W03
 BYTE   N44  An2  v108
 BYTE   W36
 BYTE   W02
// 082   ----------------------------------------
 BYTE   W09
 BYTE   FINE

//**************** Track 7 (Midi-Chn.6) ****************//

B1EndingMedley_007:
// 000   ----------------------------------------
 BYTE   KEYSH   B1EndingMedley_key+0
 BYTE   W06
 BYTE   VOICE   41
 BYTE   VOL   50*B1EndingMedley_mvl/mxv
 BYTE   PAN   c_v+14
 BYTE   W90
// 001   ----------------------------------------
 BYTE   W96
// 002   ----------------------------------------
Label_6_0109C8A3:
 BYTE   W06
 BYTE   N11  Fn4  v104
 BYTE   W12
 BYTE   En4
 BYTE   W12
 BYTE   Dn4
 BYTE   W12
 BYTE   Cn4
 BYTE   W12
 BYTE   As3
 BYTE   W12
 BYTE   An3
 BYTE   W12
 BYTE   N23  Fn3
 BYTE   W18
 BYTE   PEND 
// 003   ----------------------------------------
Label_6_0109C8B6:
 BYTE   W06
 BYTE   N11  Fn4  v104
 BYTE   W12
 BYTE   En4
 BYTE   W12
 BYTE   Dn4
 BYTE   W12
 BYTE   Cn4
 BYTE   W12
 BYTE   Bn3
 BYTE   W12
 BYTE   Gn3
 BYTE   W12
 BYTE   N23  Cn4
 BYTE   W18
 BYTE   PEND 
 BYTE   PATT
  POIN2 Label_6_0109C8A3
// 004   ----------------------------------------
Label_6_0109C8CE:
 BYTE   W06
 BYTE   N11  Fn4  v104
 BYTE   W12
 BYTE   En4
 BYTE   W12
 BYTE   Dn4
 BYTE   W12
 BYTE   Cn4
 BYTE   W12
 BYTE   Gn3
 BYTE   W12
 BYTE   N11
 BYTE   W12
 BYTE   N23  Cn4
 BYTE   W18
 BYTE   PEND 
// 005   ----------------------------------------
 BYTE   W18
 BYTE   N03  Fn4  v096
 BYTE   W04
 BYTE   Fn4  v076
 BYTE   W04
 BYTE   N03
 BYTE   W04
 BYTE   N11  Fn4  v092
 BYTE   W12
 BYTE   N11
 BYTE   W12
 BYTE   Cn5
 BYTE   W12
 BYTE   N11
 BYTE   W12
 BYTE   N11
 BYTE   W12
 BYTE   N11
 BYTE   W06
// 006   ----------------------------------------
 BYTE   W06
 BYTE   As4
 BYTE   W12
 BYTE   N11
 BYTE   W12
 BYTE   N11
 BYTE   W12
 BYTE   N11
 BYTE   W12
 BYTE   Cn5
 BYTE   W12
 BYTE   N11
 BYTE   W12
 BYTE   N23
 BYTE   W18
 BYTE   PATT
  POIN2 Label_6_0109C8A3
 BYTE   PATT
  POIN2 Label_6_0109C8B6
 BYTE   PATT
  POIN2 Label_6_0109C8A3
 BYTE   PATT
  POIN2 Label_6_0109C8CE
// 007   ----------------------------------------
Label_6_0109C91C:
 BYTE   W06
 BYTE   N11  Fn4  v092
 BYTE   W12
 BYTE   N03  Fn4  v096
 BYTE   W04
 BYTE   Fn4  v076
 BYTE   W04
 BYTE   N03
 BYTE   W04
 BYTE   N11  Fn4  v092
 BYTE   W12
 BYTE   N11
 BYTE   W12
 BYTE   En4
 BYTE   W12
 BYTE   N03  En4  v096
 BYTE   W04
 BYTE   En4  v076
 BYTE   W04
 BYTE   N03
 BYTE   W04
 BYTE   N11  En4  v092
 BYTE   W12
 BYTE   N11
 BYTE   W06
 BYTE   PEND 
 BYTE   PATT
  POIN2 Label_6_0109C91C
// 008   ----------------------------------------
 BYTE   W06
 BYTE   N11  En4  v092
 BYTE   W12
 BYTE   N03  En4  v096
 BYTE   W04
 BYTE   En4  v076
 BYTE   W04
 BYTE   N03
 BYTE   W04
 BYTE   N11  En4  v092
 BYTE   W12
 BYTE   N11
 BYTE   W12
 BYTE   N07  En4  v104
 BYTE   W08
 BYTE   N03
 BYTE   W04
 BYTE   N07
 BYTE   W08
 BYTE   N03
 BYTE   W04
 BYTE   N07
 BYTE   W08
 BYTE   N03
 BYTE   W04
 BYTE   N07
 BYTE   W06
// 009   ----------------------------------------
 BYTE   W02
 BYTE   N03
 BYTE   W04
 BYTE   N07
 BYTE   W08
 BYTE   N03
 BYTE   W04
 BYTE   N07
 BYTE   W08
 BYTE   N03
 BYTE   W04
 BYTE   N23  En4  v092
 BYTE   W24
 BYTE   N11  Dn4  v104
 BYTE   W12
 BYTE   Cs4
 BYTE   W12
 BYTE   Cn4
 BYTE   W12
 BYTE   Bn3
 BYTE   W06
// 010   ----------------------------------------
Label_6_0109C984:
 BYTE   W06
 BYTE   N11  As3  v104
 BYTE   W12
 BYTE   An3
 BYTE   W12
 BYTE   N23  Dn4
 BYTE   W24
 BYTE   N11
 BYTE   W12
 BYTE   Cs4
 BYTE   W12
 BYTE   Cn4
 BYTE   W12
 BYTE   Bn3
 BYTE   W06
 BYTE   PEND 
// 011   ----------------------------------------
 BYTE   W06
 BYTE   Gn3
 BYTE   W12
 BYTE   N11
 BYTE   W12
 BYTE   N23  An3
 BYTE   W24
 BYTE   N11  Dn4
 BYTE   W12
 BYTE   Cs4
 BYTE   W12
 BYTE   Cn4
 BYTE   W12
 BYTE   Bn3
 BYTE   W06
 BYTE   PATT
  POIN2 Label_6_0109C984
// 012   ----------------------------------------
 BYTE   W06
 BYTE   N11  Gn3  v104
 BYTE   W12
 BYTE   N11
 BYTE   W12
 BYTE   N23  Cn4
 BYTE   W24
 BYTE   N11  Cn4  v092
 BYTE   W12
 BYTE   N11
 BYTE   W12
 BYTE   N11
 BYTE   W12
 BYTE   N11
 BYTE   W06
// 013   ----------------------------------------
 BYTE   W06
 BYTE   As3
 BYTE   W12
 BYTE   N11
 BYTE   W12
 BYTE   N11
 BYTE   W12
 BYTE   N11
 BYTE   W12
 BYTE   An3
 BYTE   W12
 BYTE   N11
 BYTE   W12
 BYTE   N11
 BYTE   W12
 BYTE   N11
 BYTE   W06
// 014   ----------------------------------------
 BYTE   W06
 BYTE   Gs3
 BYTE   W12
 BYTE   N11
 BYTE   W12
 BYTE   N11
 BYTE   W12
 BYTE   N11
 BYTE   W12
 BYTE   VOICE   41
 BYTE   VOL   50*B1EndingMedley_mvl/mxv
 BYTE   PAN   c_v+14
 BYTE   N11  Cn4
 BYTE   W12
 BYTE   Cn4  v084
 BYTE   W12
 BYTE   N11
 BYTE   W12
 BYTE   N11
 BYTE   W06
// 015   ----------------------------------------
 BYTE   W06
 BYTE   As3  v092
 BYTE   W12
 BYTE   As3  v084
 BYTE   W12
 BYTE   N11
 BYTE   W12
 BYTE   N11
 BYTE   W12
 BYTE   Cn4  v092
 BYTE   W12
 BYTE   Cn4  v084
 BYTE   W12
 BYTE   N11
 BYTE   W12
 BYTE   N11
 BYTE   W06
// 016   ----------------------------------------
 BYTE   W06
 BYTE   As3  v092
 BYTE   W12
 BYTE   As3  v084
 BYTE   W12
 BYTE   N11
 BYTE   W12
 BYTE   N11
 BYTE   W12
 BYTE   VOICE   10
 BYTE   VOL   45*B1EndingMedley_mvl/mxv
 BYTE   PAN   c_v-25
 BYTE   N11  Fn1  v108
 BYTE   W12
 BYTE   Fn1  v104
 BYTE   W12
 BYTE   N11
 BYTE   W12
 BYTE   N11
 BYTE   W06
// 017   ----------------------------------------
 BYTE   W06
 BYTE   Ds1  v108
 BYTE   W12
 BYTE   Ds1  v104
 BYTE   W12
 BYTE   N11
 BYTE   W12
 BYTE   N11
 BYTE   W12
 BYTE   Dn1  v108
 BYTE   W12
 BYTE   Dn1  v104
 BYTE   W12
 BYTE   N11
 BYTE   W12
 BYTE   N11
 BYTE   W06
// 018   ----------------------------------------
 BYTE   W06
 BYTE   Cs1  v108
 BYTE   W12
 BYTE   Cs1  v104
 BYTE   W12
 BYTE   N11
 BYTE   W12
 BYTE   N11
 BYTE   W12
 BYTE   N11
 BYTE   W12
 BYTE   N11
 BYTE   W12
 BYTE   N05  Cn1
 BYTE   W06
 BYTE   N02  Cn1  v108
 BYTE   W03
 BYTE   Cn1  v092
 BYTE   W03
 BYTE   N05  Cn1  v104
 BYTE   W06
// 019   ----------------------------------------
 BYTE   N02  Cn1  v108
 BYTE   W03
 BYTE   Cn1  v092
 BYTE   W03
 BYTE   N05  Cn1  v104
 BYTE   W06
 BYTE   N02  Cn1  v108
 BYTE   W03
 BYTE   Cn1  v092
 BYTE   W03
 BYTE   N05  Cn1  v104
 BYTE   W06
 BYTE   N02  Cn1  v108
 BYTE   W03
 BYTE   Cn1  v092
 BYTE   W03
 BYTE   N05  Cn1  v104
 BYTE   W06
 BYTE   N02  Cn1  v108
 BYTE   W03
 BYTE   Cn1  v092
 BYTE   W03
 BYTE   N05  Cn1  v104
 BYTE   W06
 BYTE   N02  Cn1  v108
 BYTE   W03
 BYTE   Cn1  v092
 BYTE   W03
 BYTE   N05  Cn1  v104
 BYTE   W06
 BYTE   N02  Cn1  v108
 BYTE   W03
 BYTE   Cn1  v092
 BYTE   W03
 BYTE   N05  Cn1  v104
 BYTE   W06
 BYTE   N02  Cn1  v108
 BYTE   W03
 BYTE   Cn1  v092
 BYTE   W03
 BYTE   N05  Cs1  v104
 BYTE   W06
 BYTE   N02  Cs1  v108
 BYTE   W03
 BYTE   Cs1  v092
 BYTE   W03
 BYTE   N05  Cs1  v104
 BYTE   W06
// 020   ----------------------------------------
 BYTE   N02  Cs1  v108
 BYTE   W03
 BYTE   Cs1  v092
 BYTE   W03
 BYTE   N05  Cs1  v104
 BYTE   W06
 BYTE   N02  Cs1  v108
 BYTE   W03
 BYTE   Cs1  v092
 BYTE   W03
 BYTE   N05  Cs1  v104
 BYTE   W06
 BYTE   N02  Cs1  v108
 BYTE   W03
 BYTE   Cs1  v092
 BYTE   W03
 BYTE   N05  Ds1  v104
 BYTE   W06
 BYTE   N02  Ds1  v108
 BYTE   W03
 BYTE   Ds1  v092
 BYTE   W03
 BYTE   N05  Ds1  v104
 BYTE   W06
 BYTE   N02  Ds1  v108
 BYTE   W03
 BYTE   Ds1  v092
 BYTE   W03
 BYTE   N05  Ds1  v104
 BYTE   W06
 BYTE   N02  Ds1  v108
 BYTE   W03
 BYTE   Ds1  v092
 BYTE   W03
 BYTE   N05  Ds1  v104
 BYTE   W06
 BYTE   N02  Ds1  v108
 BYTE   W03
 BYTE   Ds1  v092
 BYTE   W03
 BYTE   N11  As1  v108
 BYTE   W12
 BYTE   As1  v104
 BYTE   W06
// 021   ----------------------------------------
Label_6_0109CAF6:
 BYTE   W06
 BYTE   N11  As1  v104
 BYTE   W12
 BYTE   N11
 BYTE   W12
 BYTE   Gs1  v108
 BYTE   W12
 BYTE   Gs1  v104
 BYTE   W12
 BYTE   N11
 BYTE   W12
 BYTE   N11
 BYTE   W12
 BYTE   As1  v108
 BYTE   W12
 BYTE   As1  v104
 BYTE   W06
 BYTE   PEND 
 BYTE   PATT
  POIN2 Label_6_0109CAF6
 BYTE   PATT
  POIN2 Label_6_0109CAF6
 BYTE   PATT
  POIN2 Label_6_0109CAF6
 BYTE   PATT
  POIN2 Label_6_0109CAF6
 BYTE   PATT
  POIN2 Label_6_0109CAF6
 BYTE   PATT
  POIN2 Label_6_0109CAF6
// 022   ----------------------------------------
 BYTE   W06
 BYTE   N11  As1  v104
 BYTE   W12
 BYTE   N11
 BYTE   W12
 BYTE   Gs1  v108
 BYTE   W12
 BYTE   Gs1  v104
 BYTE   W12
 BYTE   N11
 BYTE   W12
 BYTE   N11
 BYTE   W12
 BYTE   Fn1  v108
 BYTE   W12
 BYTE   Fn1  v104
 BYTE   W06
// 023   ----------------------------------------
 BYTE   W06
 BYTE   N11
 BYTE   W12
 BYTE   N11
 BYTE   W12
 BYTE   Ds1  v108
 BYTE   W12
 BYTE   Ds1  v104
 BYTE   W12
 BYTE   N11
 BYTE   W12
 BYTE   N11
 BYTE   W12
 BYTE   Dn1  v108
 BYTE   W12
 BYTE   Dn1  v104
 BYTE   W06
// 024   ----------------------------------------
 BYTE   W06
 BYTE   N11
 BYTE   W12
 BYTE   N11
 BYTE   W12
 BYTE   Cs1  v108
 BYTE   W12
 BYTE   Cs1  v104
 BYTE   W12
 BYTE   N11
 BYTE   W12
 BYTE   N11
 BYTE   W12
 BYTE   N11
 BYTE   W12
 BYTE   N11
 BYTE   W06
// 025   ----------------------------------------
 BYTE   W06
 BYTE   N05  Cn1
 BYTE   W06
 BYTE   N02  Cn1  v108
 BYTE   W03
 BYTE   Cn1  v092
 BYTE   W03
 BYTE   N05  Cn1  v104
 BYTE   W06
 BYTE   N02  Cn1  v108
 BYTE   W03
 BYTE   Cn1  v092
 BYTE   W03
 BYTE   N05  Cn1  v104
 BYTE   W06
 BYTE   N02  Cn1  v108
 BYTE   W03
 BYTE   Cn1  v092
 BYTE   W03
 BYTE   N05  Cn1  v104
 BYTE   W06
 BYTE   N02  Cn1  v108
 BYTE   W03
 BYTE   Cn1  v092
 BYTE   W03
 BYTE   N05  Cn1  v104
 BYTE   W06
 BYTE   N02  Cn1  v108
 BYTE   W03
 BYTE   Cn1  v092
 BYTE   W03
 BYTE   N05  Cn1  v104
 BYTE   W06
 BYTE   N02  Cn1  v108
 BYTE   W03
 BYTE   Cn1  v092
 BYTE   W03
 BYTE   N05  Cn1  v104
 BYTE   W06
 BYTE   N02  Cn1  v108
 BYTE   W03
 BYTE   Cn1  v092
 BYTE   W03
 BYTE   N05  Cn1  v104
 BYTE   W06
// 026   ----------------------------------------
 BYTE   N02  Cn1  v108
 BYTE   W03
 BYTE   Cn1  v092
 BYTE   W04
 BYTE   VOICE   41
 BYTE   VOL   50*B1EndingMedley_mvl/mxv
 BYTE   PAN   c_v+14
 BYTE   N11  Dn4
 BYTE   W12
 BYTE   Dn4  v084
 BYTE   W12
 BYTE   N11
 BYTE   W12
 BYTE   N11
 BYTE   W12
 BYTE   Dn4  v092
 BYTE   W12
 BYTE   Dn4  v084
 BYTE   W12
 BYTE   N11
 BYTE   W12
 BYTE   N11
 BYTE   W05
// 027   ----------------------------------------
 BYTE   W07
 BYTE   Dn4  v092
 BYTE   W12
 BYTE   Dn4  v084
 BYTE   W12
 BYTE   N11
 BYTE   W12
 BYTE   N11
 BYTE   W12
 BYTE   Dn4  v092
 BYTE   W12
 BYTE   Dn4  v084
 BYTE   W12
 BYTE   N11
 BYTE   W12
 BYTE   N11
 BYTE   W05
// 028   ----------------------------------------
 BYTE   W07
 BYTE   VOICE   41
 BYTE   VOL   50*B1EndingMedley_mvl/mxv
 BYTE   PAN   c_v+14
 BYTE   N11  Dn4  v092
 BYTE   W12
 BYTE   Dn4  v084
 BYTE   W12
 BYTE   N11
 BYTE   W12
 BYTE   N11
 BYTE   W12
 BYTE   As3  v092
 BYTE   W12
 BYTE   As3  v084
 BYTE   W12
 BYTE   N11
 BYTE   W12
 BYTE   N11
 BYTE   W05
// 029   ----------------------------------------
Label_6_0109CC0E:
 BYTE   W07
 BYTE   N11  Gn3  v092
 BYTE   W12
 BYTE   Gn3  v084
 BYTE   W12
 BYTE   N11
 BYTE   W12
 BYTE   N11
 BYTE   W12
 BYTE   An3  v092
 BYTE   W12
 BYTE   An3  v084
 BYTE   W12
 BYTE   N11
 BYTE   W12
 BYTE   N11
 BYTE   W05
 BYTE   PEND 
// 030   ----------------------------------------
Label_6_0109CC25:
 BYTE   W07
 BYTE   N11  Dn4  v092
 BYTE   W12
 BYTE   Dn4  v084
 BYTE   W12
 BYTE   N11
 BYTE   W12
 BYTE   N11
 BYTE   W12
 BYTE   As3  v092
 BYTE   W12
 BYTE   As3  v084
 BYTE   W12
 BYTE   N11
 BYTE   W12
 BYTE   N11
 BYTE   W05
 BYTE   PEND 
 BYTE   PATT
  POIN2 Label_6_0109CC0E
 BYTE   PATT
  POIN2 Label_6_0109CC25
// 031   ----------------------------------------
 BYTE   W07
 BYTE   N11  Cn4  v092
 BYTE   W12
 BYTE   Cn4  v084
 BYTE   W12
 BYTE   N11
 BYTE   W12
 BYTE   N11
 BYTE   W12
 BYTE   Dn4  v092
 BYTE   W12
 BYTE   Dn4  v084
 BYTE   W12
 BYTE   N11
 BYTE   W12
 BYTE   N11
 BYTE   W05
// 032   ----------------------------------------
 BYTE   W07
 BYTE   Ds4  v092
 BYTE   W12
 BYTE   Ds4  v084
 BYTE   W12
 BYTE   N11
 BYTE   W12
 BYTE   N11
 BYTE   W12
 BYTE   Ds4  v092
 BYTE   W12
 BYTE   Ds4  v084
 BYTE   W12
 BYTE   N11
 BYTE   W12
 BYTE   N11
 BYTE   W05
// 033   ----------------------------------------
 BYTE   W08
 BYTE   VOICE   41
 BYTE   VOL   50*B1EndingMedley_mvl/mxv
 BYTE   PAN   c_v+14
 BYTE   N11  Dn4  v092
 BYTE   W12
 BYTE   Dn4  v084
 BYTE   W12
 BYTE   N11
 BYTE   W12
 BYTE   N11
 BYTE   W12
 BYTE   Dn4  v092
 BYTE   W12
 BYTE   Dn4  v084
 BYTE   W12
 BYTE   N11
 BYTE   W12
 BYTE   N11
 BYTE   W04
// 034   ----------------------------------------
Label_6_0109CC8D:
 BYTE   W08
 BYTE   N11  Dn4  v092
 BYTE   W12
 BYTE   Dn4  v084
 BYTE   W12
 BYTE   N11
 BYTE   W12
 BYTE   N11
 BYTE   W12
 BYTE   Dn4  v092
 BYTE   W12
 BYTE   Dn4  v084
 BYTE   W12
 BYTE   N11
 BYTE   W12
 BYTE   N11
 BYTE   W04
 BYTE   PEND 
 BYTE   PATT
  POIN2 Label_6_0109CC8D
 BYTE   PATT
  POIN2 Label_6_0109CC8D
// 035   ----------------------------------------
 BYTE   W08
 BYTE   N11  Gn4  v092
 BYTE   W12
 BYTE   Gn4  v084
 BYTE   W12
 BYTE   N11
 BYTE   W12
 BYTE   N11
 BYTE   W12
 BYTE   Dn4  v092
 BYTE   W12
 BYTE   Dn4  v084
 BYTE   W12
 BYTE   N11
 BYTE   W12
 BYTE   N11
 BYTE   W04
// 036   ----------------------------------------
 BYTE   W08
 BYTE   VOICE   41
 BYTE   VOL   50*B1EndingMedley_mvl/mxv
 BYTE   PAN   c_v+0
 BYTE   N11  Gn3  v104
 BYTE   W12
 BYTE   N03  Gn3  v108
 BYTE   W04
 BYTE   Gn3  v092
 BYTE   W04
 BYTE   N03
 BYTE   W04
 BYTE   N11  Gn3  v104
 BYTE   W12
 BYTE   N03  Gn3  v108
 BYTE   W04
 BYTE   Gn3  v092
 BYTE   W04
 BYTE   N03
 BYTE   W04
 BYTE   N11  Gn3  v104
 BYTE   W12
 BYTE   N03  Gn3  v108
 BYTE   W04
 BYTE   Gn3  v092
 BYTE   W04
 BYTE   N03
 BYTE   W04
 BYTE   N11  Gn3  v104
 BYTE   W12
 BYTE   N03  Gn3  v108
 BYTE   W04
// 037   ----------------------------------------
Label_6_0109CCFA:
 BYTE   N03  Gn3  v092
 BYTE   W04
 BYTE   N03
 BYTE   W04
 BYTE   N11  Gn3  v104
 BYTE   W12
 BYTE   N03  Gn3  v108
 BYTE   W04
 BYTE   Gn3  v092
 BYTE   W04
 BYTE   N03
 BYTE   W04
 BYTE   N11  Gn3  v104
 BYTE   W12
 BYTE   N03  Gn3  v108
 BYTE   W04
 BYTE   Gn3  v092
 BYTE   W04
 BYTE   N03
 BYTE   W04
 BYTE   N11  Gn3  v104
 BYTE   W12
 BYTE   N03  Gn3  v108
 BYTE   W04
 BYTE   Gn3  v092
 BYTE   W04
 BYTE   N03
 BYTE   W04
 BYTE   N11  Gn3  v104
 BYTE   W12
 BYTE   N03  Gn3  v108
 BYTE   W04
 BYTE   PEND 
 BYTE   PATT
  POIN2 Label_6_0109CCFA
 BYTE   PATT
  POIN2 Label_6_0109CCFA
// 038   ----------------------------------------
 BYTE   N03  Gn3  v092
 BYTE   W04
 BYTE   N03
 BYTE   W04
 BYTE   N11  An3  v104
 BYTE   W12
 BYTE   N03  An3  v108
 BYTE   W04
 BYTE   An3  v092
 BYTE   W04
 BYTE   N03
 BYTE   W04
 BYTE   N11  An3  v104
 BYTE   W12
 BYTE   N03  An3  v108
 BYTE   W04
 BYTE   An3  v092
 BYTE   W04
 BYTE   N03
 BYTE   W04
 BYTE   N11  An3  v104
 BYTE   W12
 BYTE   N03  An3  v108
 BYTE   W04
 BYTE   An3  v092
 BYTE   W04
 BYTE   N03
 BYTE   W04
 BYTE   N11  An3  v104
 BYTE   W12
 BYTE   N03  An3  v108
 BYTE   W04
// 039   ----------------------------------------
 BYTE   An3  v092
 BYTE   W04
 BYTE   N03
 BYTE   W04
 BYTE   N11  An3  v104
 BYTE   W12
 BYTE   N03  An3  v108
 BYTE   W04
 BYTE   An3  v092
 BYTE   W04
 BYTE   N03
 BYTE   W04
 BYTE   N11  An3  v104
 BYTE   W12
 BYTE   N03  An3  v108
 BYTE   W04
 BYTE   An3  v092
 BYTE   W04
 BYTE   N03
 BYTE   W04
 BYTE   N11  An3  v104
 BYTE   W12
 BYTE   N03  An3  v108
 BYTE   W04
 BYTE   An3  v092
 BYTE   W04
 BYTE   N03
 BYTE   W04
 BYTE   N11  An3  v104
 BYTE   W12
 BYTE   N03  An3  v108
 BYTE   W04
// 040   ----------------------------------------
 BYTE   An3  v092
 BYTE   W04
 BYTE   N03
 BYTE   W04
 BYTE   N11  Fs3  v104
 BYTE   W12
 BYTE   N03  Fs3  v108
 BYTE   W04
 BYTE   Fs3  v092
 BYTE   W04
 BYTE   N03
 BYTE   W04
 BYTE   N11  Dn3  v104
 BYTE   W12
 BYTE   N03  Dn3  v108
 BYTE   W04
 BYTE   Dn3  v092
 BYTE   W04
 BYTE   N03
 BYTE   W04
 BYTE   N11  Cs3  v104
 BYTE   W12
 BYTE   N03  Cs3  v108
 BYTE   W04
 BYTE   Cs3  v092
 BYTE   W04
 BYTE   N03
 BYTE   W04
 BYTE   N11  Dn3  v104
 BYTE   W12
 BYTE   N03  Dn3  v108
 BYTE   W04
// 041   ----------------------------------------
 BYTE   Dn3  v092
 BYTE   W04
 BYTE   N03
 BYTE   W04
 BYTE   N11  Ds3  v104
 BYTE   W12
 BYTE   N03  Ds3  v108
 BYTE   W04
 BYTE   Ds3  v092
 BYTE   W04
 BYTE   N03
 BYTE   W04
 BYTE   N11  Ds3  v104
 BYTE   W12
 BYTE   N03  Ds3  v108
 BYTE   W04
 BYTE   Ds3  v092
 BYTE   W04
 BYTE   N03
 BYTE   W04
 BYTE   N11  En3  v104
 BYTE   W12
 BYTE   N03  En3  v108
 BYTE   W04
 BYTE   En3  v092
 BYTE   W04
 BYTE   N03
 BYTE   W04
 BYTE   N11  En3  v104
 BYTE   W12
 BYTE   N03  En3  v108
 BYTE   W04
// 042   ----------------------------------------
 BYTE   En3  v092
 BYTE   W04
 BYTE   N03
 BYTE   W04
 BYTE   N11  Gn3  v104
 BYTE   W12
 BYTE   N03  Gn3  v108
 BYTE   W04
 BYTE   Gn3  v092
 BYTE   W04
 BYTE   N03
 BYTE   W04
 BYTE   N11  Gn3  v104
 BYTE   W12
 BYTE   N03  Gn3  v108
 BYTE   W04
 BYTE   Gn3  v092
 BYTE   W04
 BYTE   N03
 BYTE   W04
 BYTE   N11  Gn3  v104
 BYTE   W12
 BYTE   N03  Gn3  v108
 BYTE   W04
 BYTE   Gn3  v092
 BYTE   W04
 BYTE   N03
 BYTE   W04
 BYTE   N11  Gn3  v104
 BYTE   W12
 BYTE   N03  Gn3  v108
 BYTE   W04
 BYTE   PATT
  POIN2 Label_6_0109CCFA
// 043   ----------------------------------------
 BYTE   N03  Gn3  v092
 BYTE   W04
 BYTE   N03
 BYTE   W05
 BYTE   VOICE   41
 BYTE   VOL   45*B1EndingMedley_mvl/mxv
 BYTE   PAN   c_v+0
 BYTE   N11  Gn3  v104
 BYTE   W12
 BYTE   N03  Gn3  v108
 BYTE   W04
 BYTE   Gn3  v092
 BYTE   W04
 BYTE   N03
 BYTE   W04
 BYTE   N11  Gn3  v104
 BYTE   W12
 BYTE   N03  Gn3  v108
 BYTE   W04
 BYTE   Gn3  v092
 BYTE   W04
 BYTE   N03
 BYTE   W04
 BYTE   N11  Gn3  v104
 BYTE   W12
 BYTE   N03  Gn3  v108
 BYTE   W04
 BYTE   Gn3  v092
 BYTE   W04
 BYTE   N03
 BYTE   W04
 BYTE   Gn3  v108
 BYTE   W04
 BYTE   Gn3  v092
 BYTE   W04
 BYTE   N03
 BYTE   W04
 BYTE   Gn3  v108
 BYTE   W03
// 044   ----------------------------------------
Label_6_0109CE82:
 BYTE   W01
 BYTE   N03  Gn3  v092
 BYTE   W04
 BYTE   N03
 BYTE   W04
 BYTE   N11  Gn3  v104
 BYTE   W12
 BYTE   N03  Gn3  v108
 BYTE   W04
 BYTE   Gn3  v092
 BYTE   W04
 BYTE   N03
 BYTE   W04
 BYTE   N11  Gn3  v104
 BYTE   W12
 BYTE   N03  Gn3  v108
 BYTE   W04
 BYTE   Gn3  v092
 BYTE   W04
 BYTE   N03
 BYTE   W04
 BYTE   N11  Gn3  v104
 BYTE   W12
 BYTE   N03  Gn3  v108
 BYTE   W04
 BYTE   Gn3  v092
 BYTE   W04
 BYTE   N03
 BYTE   W04
 BYTE   Gn3  v108
 BYTE   W04
 BYTE   Gn3  v092
 BYTE   W04
 BYTE   N03
 BYTE   W04
 BYTE   Gn3  v108
 BYTE   W03
 BYTE   PEND 
 BYTE   PATT
  POIN2 Label_6_0109CE82
 BYTE   PATT
  POIN2 Label_6_0109CE82
 BYTE   PATT
  POIN2 Label_6_0109CE82
// 045   ----------------------------------------
 BYTE   W01
 BYTE   N03  Gn3  v092
 BYTE   W04
 BYTE   N03
 BYTE   W04
 BYTE   N11  Cn4  v104
 BYTE   W12
 BYTE   N03  Cn4  v108
 BYTE   W04
 BYTE   Cn4  v092
 BYTE   W04
 BYTE   N03
 BYTE   W04
 BYTE   N11  Cn4  v104
 BYTE   W12
 BYTE   N03  Cn4  v108
 BYTE   W04
 BYTE   Cn4  v092
 BYTE   W04
 BYTE   N03
 BYTE   W04
 BYTE   N11  Cn4  v104
 BYTE   W12
 BYTE   N03  Cn4  v108
 BYTE   W04
 BYTE   Cn4  v092
 BYTE   W04
 BYTE   N03
 BYTE   W04
 BYTE   Cn4  v108
 BYTE   W04
 BYTE   Cn4  v092
 BYTE   W04
 BYTE   N03
 BYTE   W04
 BYTE   Cn4  v108
 BYTE   W03
// 046   ----------------------------------------
 BYTE   W01
 BYTE   Cn4  v092
 BYTE   W04
 BYTE   N03
 BYTE   W04
 BYTE   VOICE   41
 BYTE   VOL   45*B1EndingMedley_mvl/mxv
 BYTE   PAN   c_v+14
 BYTE   N11  Cn4  v116
 BYTE   W12
 BYTE   Cn4  v104
 BYTE   W12
 BYTE   Cn4  v112
 BYTE   W12
 BYTE   Cn4  v104
 BYTE   W12
 BYTE   Cn4  v112
 BYTE   W12
 BYTE   Cn4  v104
 BYTE   W12
 BYTE   Cn4  v112
 BYTE   W12
 BYTE   An3  v116
 BYTE   W03
// 047   ----------------------------------------
 BYTE   W09
 BYTE   An3  v104
 BYTE   W12
 BYTE   An3  v112
 BYTE   W12
 BYTE   An3  v104
 BYTE   W12
 BYTE   An3  v112
 BYTE   W12
 BYTE   An3  v104
 BYTE   W12
 BYTE   An3  v112
 BYTE   W12
 BYTE   Fn3  v116
 BYTE   W12
 BYTE   Fn3  v104
 BYTE   W03
// 048   ----------------------------------------
 BYTE   W09
 BYTE   Fn3  v112
 BYTE   W12
 BYTE   Fn3  v104
 BYTE   W12
 BYTE   Fn3  v112
 BYTE   W12
 BYTE   Fn3  v104
 BYTE   W12
 BYTE   Fn3  v112
 BYTE   W12
 BYTE   Gn3  v116
 BYTE   W12
 BYTE   Gn3  v104
 BYTE   W12
 BYTE   Gn3  v112
 BYTE   W03
// 049   ----------------------------------------
 BYTE   W09
 BYTE   Gn3  v104
 BYTE   W12
 BYTE   Gn3  v112
 BYTE   W12
 BYTE   Gn3  v104
 BYTE   W12
 BYTE   Gn3  v112
 BYTE   W12
 BYTE   Cn4  v116
 BYTE   W12
 BYTE   Cn4  v104
 BYTE   W12
 BYTE   Cn4  v112
 BYTE   W12
 BYTE   Cn4  v104
 BYTE   W03
// 050   ----------------------------------------
 BYTE   W09
 BYTE   Cn4  v112
 BYTE   W12
 BYTE   Cn4  v104
 BYTE   W12
 BYTE   Cn4  v112
 BYTE   W12
 BYTE   An3  v116
 BYTE   W12
 BYTE   An3  v104
 BYTE   W12
 BYTE   An3  v112
 BYTE   W12
 BYTE   An3  v104
 BYTE   W12
 BYTE   An3  v112
 BYTE   W03
// 051   ----------------------------------------
 BYTE   W09
 BYTE   An3  v104
 BYTE   W12
 BYTE   An3  v112
 BYTE   W12
 BYTE   Fn3  v116
 BYTE   W12
 BYTE   Fn3  v104
 BYTE   W12
 BYTE   Fn3  v112
 BYTE   W12
 BYTE   Fn3  v104
 BYTE   W12
 BYTE   Fn3  v112
 BYTE   W12
 BYTE   Fn3  v104
 BYTE   W03
// 052   ----------------------------------------
 BYTE   W09
 BYTE   Fn3  v112
 BYTE   W12
 BYTE   Gn3  v116
 BYTE   W12
 BYTE   Gn3  v104
 BYTE   W12
 BYTE   Gn3  v112
 BYTE   W12
 BYTE   Gn3  v104
 BYTE   W12
 BYTE   Gn3  v112
 BYTE   W12
 BYTE   Gn3  v104
 BYTE   W12
 BYTE   Gn3  v112
 BYTE   W03
// 053   ----------------------------------------
 BYTE   W09
 BYTE   As3  v116
 BYTE   W12
 BYTE   As3  v104
 BYTE   W12
 BYTE   As3  v112
 BYTE   W12
 BYTE   As3  v104
 BYTE   W12
 BYTE   As3  v112
 BYTE   W12
 BYTE   As3  v104
 BYTE   W12
 BYTE   As3  v112
 BYTE   W12
 BYTE   An3  v116
 BYTE   W03
// 054   ----------------------------------------
 BYTE   W09
 BYTE   An3  v104
 BYTE   W12
 BYTE   An3  v112
 BYTE   W12
 BYTE   An3  v104
 BYTE   W12
 BYTE   An3  v112
 BYTE   W12
 BYTE   An3  v104
 BYTE   W12
 BYTE   An3  v112
 BYTE   W12
 BYTE   Gs3  v116
 BYTE   W12
 BYTE   Gs3  v104
 BYTE   W03
// 055   ----------------------------------------
 BYTE   W09
 BYTE   Gs3  v112
 BYTE   W12
 BYTE   Gs3  v104
 BYTE   W12
 BYTE   Gs3  v112
 BYTE   W12
 BYTE   Gs3  v104
 BYTE   W12
 BYTE   Gs3  v112
 BYTE   W12
 BYTE   Gn3  v116
 BYTE   W12
 BYTE   Gn3  v104
 BYTE   W12
 BYTE   Gn3  v112
 BYTE   W03
// 056   ----------------------------------------
 BYTE   W09
 BYTE   Gn3  v104
 BYTE   W12
 BYTE   Gn3  v112
 BYTE   W12
 BYTE   Gn3  v104
 BYTE   W12
 BYTE   Gn3  v112
 BYTE   W13
 BYTE   VOICE   41
 BYTE   VOL   25*B1EndingMedley_mvl/mxv
 BYTE   PAN   c_v+14
 BYTE   N11  Cn4  v104
 BYTE   W12
 BYTE   N11
 BYTE   W12
 BYTE   N11
 BYTE   W12
 BYTE   N11
 BYTE   W02
// 057   ----------------------------------------
Label_6_0109D027:
 BYTE   W10
 BYTE   N11  As3  v104
 BYTE   W12
 BYTE   N11
 BYTE   W12
 BYTE   N11
 BYTE   W12
 BYTE   N11
 BYTE   W12
 BYTE   An3
 BYTE   W12
 BYTE   N11
 BYTE   W12
 BYTE   N11
 BYTE   W12
 BYTE   N11
 BYTE   W02
 BYTE   PEND 
// 058   ----------------------------------------
Label_6_0109D03B:
 BYTE   W10
 BYTE   N11  Gs3  v104
 BYTE   W12
 BYTE   N11
 BYTE   W12
 BYTE   N11
 BYTE   W12
 BYTE   N11
 BYTE   W12
 BYTE   Gn3
 BYTE   W12
 BYTE   N11
 BYTE   W12
 BYTE   N11
 BYTE   W12
 BYTE   N11
 BYTE   W02
 BYTE   PEND 
// 059   ----------------------------------------
Label_6_0109D04F:
 BYTE   W10
 BYTE   N11  Fn3  v104
 BYTE   W12
 BYTE   N11
 BYTE   W12
 BYTE   N11
 BYTE   W12
 BYTE   N11
 BYTE   W12
 BYTE   N11
 BYTE   W12
 BYTE   N11
 BYTE   W12
 BYTE   N11
 BYTE   W12
 BYTE   N11
 BYTE   W02
 BYTE   PEND 
// 060   ----------------------------------------
 BYTE   W10
 BYTE   Gn3
 BYTE   W12
 BYTE   N11
 BYTE   W12
 BYTE   N11
 BYTE   W12
 BYTE   N11
 BYTE   W12
 BYTE   Cn4
 BYTE   W12
 BYTE   N11
 BYTE   W12
 BYTE   N11
 BYTE   W12
 BYTE   N11
 BYTE   W02
 BYTE   PATT
  POIN2 Label_6_0109D027
 BYTE   PATT
  POIN2 Label_6_0109D03B
 BYTE   PATT
  POIN2 Label_6_0109D04F
// 061   ----------------------------------------
 BYTE   W10
 BYTE   N11  Gn3  v104
 BYTE   W12
 BYTE   N11
 BYTE   W12
 BYTE   N11
 BYTE   W12
 BYTE   N11
 BYTE   W12
 BYTE   N11
 BYTE   W12
 BYTE   N11
 BYTE   W12
 BYTE   N11
 BYTE   W12
 BYTE   N11
 BYTE   W02
// 062   ----------------------------------------
 BYTE   W10
 BYTE   Gs3
 BYTE   W12
 BYTE   N03  Gs3  v108
 BYTE   W04
 BYTE   Gs3  v092
 BYTE   W04
 BYTE   N03
 BYTE   W04
 BYTE   N11  Gs3  v104
 BYTE   W12
 BYTE   N03  Gs3  v108
 BYTE   W04
 BYTE   Gs3  v092
 BYTE   W04
 BYTE   N03
 BYTE   W04
 BYTE   N11  Gs3  v104
 BYTE   W12
 BYTE   N03  Gs3  v108
 BYTE   W04
 BYTE   Gs3  v092
 BYTE   W04
 BYTE   N03
 BYTE   W04
 BYTE   N11  Gs3  v104
 BYTE   W12
 BYTE   N03  Gs3  v108
 BYTE   W02
// 063   ----------------------------------------
 BYTE   W02
 BYTE   Gs3  v092
 BYTE   W04
 BYTE   N03
 BYTE   W04
 BYTE   N11  Gs3  v104
 BYTE   W12
 BYTE   N03  Gs3  v108
 BYTE   W04
 BYTE   Gs3  v092
 BYTE   W04
 BYTE   N03
 BYTE   W04
 BYTE   N11  Gs3  v104
 BYTE   W12
 BYTE   N03  Gs3  v108
 BYTE   W04
 BYTE   Gs3  v092
 BYTE   W04
 BYTE   N03
 BYTE   W04
 BYTE   N11  Gs3  v104
 BYTE   W12
 BYTE   N03  Gs3  v108
 BYTE   W04
 BYTE   Gs3  v092
 BYTE   W04
 BYTE   N03
 BYTE   W04
 BYTE   N11  Gs3  v104
 BYTE   W12
 BYTE   N03  Gs3  v108
 BYTE   W02
// 064   ----------------------------------------
 BYTE   W02
 BYTE   Gs3  v092
 BYTE   W04
 BYTE   N03
 BYTE   W04
 BYTE   N11  Gn3  v104
 BYTE   W12
 BYTE   N03  Gn3  v108
 BYTE   W04
 BYTE   Gn3  v092
 BYTE   W04
 BYTE   N03
 BYTE   W04
 BYTE   N11  Gn3  v104
 BYTE   W12
 BYTE   N03  Gn3  v108
 BYTE   W04
 BYTE   Gn3  v092
 BYTE   W04
 BYTE   N03
 BYTE   W04
 BYTE   N11  Gn3  v104
 BYTE   W12
 BYTE   N03  Gn3  v108
 BYTE   W04
 BYTE   Gn3  v092
 BYTE   W04
 BYTE   N03
 BYTE   W04
 BYTE   N11  Gn3  v104
 BYTE   W12
 BYTE   N03  Gn3  v108
 BYTE   W02
// 065   ----------------------------------------
 BYTE   W02
 BYTE   Gn3  v092
 BYTE   W04
 BYTE   N03
 BYTE   W04
 BYTE   N11  Gn3  v104
 BYTE   W12
 BYTE   N03  Gn3  v108
 BYTE   W04
 BYTE   Gn3  v092
 BYTE   W04
 BYTE   N03
 BYTE   W04
 BYTE   N05  Gn3  v096
 BYTE   W12
 BYTE   N11  Gn3  v108
 BYTE   W12
 BYTE   VOL   25*B1EndingMedley_mvl/mxv
 BYTE   N05
 BYTE   W02
 BYTE   VOL   24*B1EndingMedley_mvl/mxv
 BYTE   W04
 BYTE   N05  Gn3  v096
 BYTE   W01
 BYTE   VOL   23*B1EndingMedley_mvl/mxv
 BYTE   W05
 BYTE   Cn4
 BYTE   W04
 BYTE   Bn3
 BYTE   W02
 BYTE   N05  Gn3  v104
 BYTE   W03
 BYTE   VOL   20*B1EndingMedley_mvl/mxv
 BYTE   W03
 BYTE   N05  Gn3  v108
 BYTE   W02
 BYTE   VOL   19*B1EndingMedley_mvl/mxv
 BYTE   W04
 BYTE   N05  Gn3  v096
 BYTE   W01
 BYTE   VOL   18*B1EndingMedley_mvl/mxv
 BYTE   W05
 BYTE   Gn3
 BYTE   W02
// 066   ----------------------------------------
 BYTE   W02
 BYTE   Fs3
 BYTE   W02
 BYTE   N05  Gn3  v104
 BYTE   W03
 BYTE   VOL   15*B1EndingMedley_mvl/mxv
 BYTE   W03
 BYTE   N05  Cn4  v108
 BYTE   W06
 BYTE   Cn4  v096
 BYTE   W12
 BYTE   Cn4  v104
 BYTE   W06
 BYTE   Cn4  v108
 BYTE   W06
 BYTE   Cn4  v096
 BYTE   W12
 BYTE   Cn4  v104
 BYTE   W06
 BYTE   Cn4  v108
 BYTE   W06
 BYTE   Cn4  v096
 BYTE   W12
 BYTE   Cn4  v104
 BYTE   W06
 BYTE   Cn4  v108
 BYTE   W06
 BYTE   Cn4  v096
 BYTE   W08
// 067   ----------------------------------------
 BYTE   W04
 BYTE   Cn4  v104
 BYTE   W06
 BYTE   Bn3  v108
 BYTE   W06
 BYTE   Bn3  v096
 BYTE   W12
 BYTE   Bn3  v104
 BYTE   W06
 BYTE   Bn3  v108
 BYTE   W06
 BYTE   Bn3  v096
 BYTE   W12
 BYTE   Bn3  v104
 BYTE   W06
 BYTE   Cn4  v108
 BYTE   W06
 BYTE   Cn4  v096
 BYTE   W12
 BYTE   Cn4  v104
 BYTE   W06
 BYTE   Cn4  v108
 BYTE   W06
 BYTE   Cn4  v096
 BYTE   W08
// 068   ----------------------------------------
 BYTE   W04
 BYTE   Bn3  v104
 BYTE   W06
 BYTE   An3  v108
 BYTE   W06
 BYTE   An3  v096
 BYTE   W12
 BYTE   An3  v104
 BYTE   W06
 BYTE   An3  v108
 BYTE   W06
 BYTE   An3  v096
 BYTE   W12
 BYTE   An3  v104
 BYTE   W06
 BYTE   Bn3  v108
 BYTE   W06
 BYTE   Bn3  v096
 BYTE   W12
 BYTE   Bn3  v104
 BYTE   W06
 BYTE   Bn3  v108
 BYTE   W06
 BYTE   Bn3  v096
 BYTE   W08
// 069   ----------------------------------------
 BYTE   W04
 BYTE   Bn3  v104
 BYTE   W06
 BYTE   An3  v108
 BYTE   W06
 BYTE   An3  v096
 BYTE   W12
 BYTE   An3  v104
 BYTE   W06
 BYTE   An3  v108
 BYTE   W06
 BYTE   An3  v096
 BYTE   W12
 BYTE   An3  v104
 BYTE   W06
 BYTE   Gn3  v108
 BYTE   W06
 BYTE   Gn3  v096
 BYTE   W12
 BYTE   Gn3  v104
 BYTE   W06
 BYTE   Gn3  v108
 BYTE   W06
 BYTE   Gn3  v096
 BYTE   W08
// 070   ----------------------------------------
 BYTE   W04
 BYTE   Gn3  v104
 BYTE   W06
 BYTE   VOL   15*B1EndingMedley_mvl/mxv
 BYTE   N05  Fn3  v108
 BYTE   W04
 BYTE   VOL   16*B1EndingMedley_mvl/mxv
 BYTE   W02
 BYTE   N05  Fn3  v096
 BYTE   W08
 BYTE   VOL   17*B1EndingMedley_mvl/mxv
 BYTE   W04
 BYTE   N05  Fn3  v104
 BYTE   W05
 BYTE   VOL   18*B1EndingMedley_mvl/mxv
 BYTE   W01
 BYTE   N05  Fn3  v108
 BYTE   W06
 BYTE   Fn3  v096
 BYTE   W03
 BYTE   VOL   19*B1EndingMedley_mvl/mxv
 BYTE   W09
 BYTE   N05  Fn3  v104
 BYTE   W01
 BYTE   VOL   20*B1EndingMedley_mvl/mxv
 BYTE   W05
 BYTE   As3
 BYTE   N05  Gn3  v108
 BYTE   W03
 BYTE   VOL   21*B1EndingMedley_mvl/mxv
 BYTE   W03
 BYTE   N05  Gn3  v096
 BYTE   W05
 BYTE   VOL   22*B1EndingMedley_mvl/mxv
 BYTE   W07
 BYTE   N05  Gn3  v104
 BYTE   W01
 BYTE   VOL   23*B1EndingMedley_mvl/mxv
 BYTE   W05
 BYTE   N05  Gn3  v108
 BYTE   W03
 BYTE   VOL   24*B1EndingMedley_mvl/mxv
 BYTE   W03
 BYTE   N05  Gn3  v096
 BYTE   W05
 BYTE   VOL   25*B1EndingMedley_mvl/mxv
 BYTE   W03
// 071   ----------------------------------------
 BYTE   W04
 BYTE   N05  Gn3  v104
 BYTE   W01
 BYTE   VOL   26*B1EndingMedley_mvl/mxv
 BYTE   W05
 BYTE   En4
 BYTE   N05  An3  v108
 BYTE   W02
 BYTE   VOL   27*B1EndingMedley_mvl/mxv
 BYTE   W04
 BYTE   Fs4
 BYTE   N05  An3  v096
 BYTE   W04
 BYTE   VOL   29*B1EndingMedley_mvl/mxv
 BYTE   W05
 BYTE   Gs4
 BYTE   W03
 BYTE   N05  An3  v104
 BYTE   W01
 BYTE   VOL   31*B1EndingMedley_mvl/mxv
 BYTE   W04
 BYTE   As4
 BYTE   W01
 BYTE   N05  An3  v108
 BYTE   W04
 BYTE   VOL   33*B1EndingMedley_mvl/mxv
 BYTE   W02
 BYTE   N05  An3  v096
 BYTE   W02
 BYTE   VOL   34*B1EndingMedley_mvl/mxv
 BYTE   W05
 BYTE   Cs5
 BYTE   W04
 BYTE   Dn5
 BYTE   W01
 BYTE   N05  An3  v104
 BYTE   W03
 BYTE   VOL   37*B1EndingMedley_mvl/mxv
 BYTE   W03
 BYTE   N44  An3  v108
 BYTE   W36
 BYTE   W02
// 072   ----------------------------------------
 BYTE   W09
 BYTE   FINE

//**************** Track 8 (Midi-Chn.7) ****************//

B1EndingMedley_008:
// 000   ----------------------------------------
 BYTE   VOL   77*B1EndingMedley_mvl/mxv
 BYTE   KEYSH   B1EndingMedley_key+0
 BYTE   VOICE   111
 BYTE   W96
// 001   ----------------------------------------
 BYTE   W96
// 002   ----------------------------------------
 BYTE   W06
 BYTE   N11  Cn0  v112
 BYTE   W12
 BYTE   Cn0  v104
 BYTE   W12
 BYTE   N11
 BYTE   W12
 BYTE   N03  Cn0  v108
 BYTE   W04
 BYTE   Cn0  v092
 BYTE   W04
 BYTE   N03
 BYTE   W04
 BYTE   N11  Cn0  v112
 BYTE   W12
 BYTE   Cn0  v104
 BYTE   W12
 BYTE   N11
 BYTE   W12
 BYTE   N03  Cn0  v108
 BYTE   W04
 BYTE   Cn0  v092
 BYTE   W02
// 003   ----------------------------------------
Label_7_0109D2CB:
 BYTE   W02
 BYTE   N03  Cn0  v092
 BYTE   W04
 BYTE   N11  Cn0  v112
 BYTE   W12
 BYTE   Cn0  v104
 BYTE   W12
 BYTE   N11
 BYTE   W12
 BYTE   N03  Cn0  v108
 BYTE   W04
 BYTE   Cn0  v092
 BYTE   W04
 BYTE   N03
 BYTE   W04
 BYTE   N11  Cn0  v112
 BYTE   W12
 BYTE   Cn0  v104
 BYTE   W12
 BYTE   N11
 BYTE   W12
 BYTE   N03  Cn0  v108
 BYTE   W04
 BYTE   Cn0  v092
 BYTE   W02
 BYTE   PEND 
 BYTE   PATT
  POIN2 Label_7_0109D2CB
 BYTE   PATT
  POIN2 Label_7_0109D2CB
 BYTE   PATT
  POIN2 Label_7_0109D2CB
 BYTE   PATT
  POIN2 Label_7_0109D2CB
 BYTE   PATT
  POIN2 Label_7_0109D2CB
 BYTE   PATT
  POIN2 Label_7_0109D2CB
 BYTE   PATT
  POIN2 Label_7_0109D2CB
 BYTE   PATT
  POIN2 Label_7_0109D2CB
 BYTE   PATT
  POIN2 Label_7_0109D2CB
 BYTE   PATT
  POIN2 Label_7_0109D2CB
 BYTE   PATT
  POIN2 Label_7_0109D2CB
 BYTE   PATT
  POIN2 Label_7_0109D2CB
 BYTE   PATT
  POIN2 Label_7_0109D2CB
 BYTE   PATT
  POIN2 Label_7_0109D2CB
 BYTE   PATT
  POIN2 Label_7_0109D2CB
 BYTE   PATT
  POIN2 Label_7_0109D2CB
 BYTE   PATT
  POIN2 Label_7_0109D2CB
 BYTE   PATT
  POIN2 Label_7_0109D2CB
 BYTE   PATT
  POIN2 Label_7_0109D2CB
// 004   ----------------------------------------
 BYTE   W02
 BYTE   N03  Cn0  v092
 BYTE   W04
 BYTE   N11  Cn0  v112
 BYTE   W12
 BYTE   Cn0  v104
 BYTE   W12
 BYTE   N11
 BYTE   W12
 BYTE   N03  Cn0  v108
 BYTE   W04
 BYTE   Cn0  v092
 BYTE   W04
 BYTE   N03
 BYTE   W04
 BYTE   N11  Cn0  v108
 BYTE   W12
 BYTE   Cn0  v104
 BYTE   W12
 BYTE   N11
 BYTE   W12
 BYTE   N03
 BYTE   W04
 BYTE   Cn0  v092
 BYTE   W02
// 005   ----------------------------------------
 BYTE   W02
 BYTE   N03
 BYTE   W04
 BYTE   N11  Cn0  v108
 BYTE   W12
 BYTE   Cn0  v104
 BYTE   W12
 BYTE   N11
 BYTE   W12
 BYTE   N03
 BYTE   W04
 BYTE   Cn0  v092
 BYTE   W04
 BYTE   N03
 BYTE   W04
 BYTE   N11  Cn0  v108
 BYTE   W12
 BYTE   Cn0  v104
 BYTE   W12
 BYTE   N11
 BYTE   W12
 BYTE   N03
 BYTE   W04
 BYTE   Cn0  v092
 BYTE   W02
// 006   ----------------------------------------
 BYTE   W02
 BYTE   N03
 BYTE   W04
 BYTE   N11  Cn0  v108
 BYTE   W12
 BYTE   Cn0  v104
 BYTE   W12
 BYTE   N11
 BYTE   W12
 BYTE   N03
 BYTE   W04
 BYTE   Cn0  v092
 BYTE   W04
 BYTE   N03
 BYTE   W04
 BYTE   N11  Cn0  v108
 BYTE   W12
 BYTE   Cn0  v104
 BYTE   W12
 BYTE   Cn0  v108
 BYTE   W12
 BYTE   Cn0  v104
 BYTE   W06
// 007   ----------------------------------------
Label_7_0109D3B8:
 BYTE   W06
 BYTE   N11  Cn0  v104
 BYTE   W12
 BYTE   N03
 BYTE   W04
 BYTE   Cn0  v092
 BYTE   W04
 BYTE   N03
 BYTE   W04
 BYTE   N11  Cn0  v108
 BYTE   W12
 BYTE   Cn0  v104
 BYTE   W12
 BYTE   N11
 BYTE   W12
 BYTE   N03
 BYTE   W04
 BYTE   Cn0  v092
 BYTE   W04
 BYTE   N03
 BYTE   W04
 BYTE   N11  Cn0  v108
 BYTE   W12
 BYTE   Cn0  v104
 BYTE   W06
 BYTE   PEND 
 BYTE   PATT
  POIN2 Label_7_0109D3B8
 BYTE   PATT
  POIN2 Label_7_0109D3B8
 BYTE   PATT
  POIN2 Label_7_0109D3B8
 BYTE   PATT
  POIN2 Label_7_0109D3B8
 BYTE   PATT
  POIN2 Label_7_0109D3B8
 BYTE   PATT
  POIN2 Label_7_0109D3B8
 BYTE   PATT
  POIN2 Label_7_0109D3B8
 BYTE   PATT
  POIN2 Label_7_0109D3B8
 BYTE   PATT
  POIN2 Label_7_0109D3B8
 BYTE   PATT
  POIN2 Label_7_0109D3B8
 BYTE   PATT
  POIN2 Label_7_0109D3B8
// 008   ----------------------------------------
 BYTE   W06
 BYTE   N11  Cn0  v108
 BYTE   W12
 BYTE   Cn0  v104
 BYTE   W12
 BYTE   N11
 BYTE   W12
 BYTE   N03
 BYTE   W04
 BYTE   Cn0  v092
 BYTE   W04
 BYTE   N03
 BYTE   W04
 BYTE   Cn0  v104
 BYTE   W04
 BYTE   Cn0  v092
 BYTE   W04
 BYTE   N03
 BYTE   W04
 BYTE   Cn0  v104
 BYTE   W04
 BYTE   Cn0  v092
 BYTE   W04
 BYTE   N03
 BYTE   W04
 BYTE   N11  Cn0  v108
 BYTE   W12
 BYTE   N03  Cn0  v104
 BYTE   W04
 BYTE   Cn0  v092
 BYTE   W02
// 009   ----------------------------------------
 BYTE   W02
 BYTE   N03
 BYTE   W05
 BYTE   N11  Cn0  v112
 BYTE   W12
 BYTE   Cn0  v104
 BYTE   W12
 BYTE   N11
 BYTE   W12
 BYTE   N03  Cn0  v108
 BYTE   W04
 BYTE   Cn0  v092
 BYTE   W04
 BYTE   N03
 BYTE   W04
 BYTE   N11  Cn0  v112
 BYTE   W12
 BYTE   Cn0  v104
 BYTE   W12
 BYTE   N11
 BYTE   W12
 BYTE   N03  Cn0  v108
 BYTE   W04
 BYTE   Cn0  v092
 BYTE   W01
// 010   ----------------------------------------
Label_7_0109D464:
 BYTE   W03
 BYTE   N03  Cn0  v092
 BYTE   W04
 BYTE   N11  Cn0  v112
 BYTE   W12
 BYTE   Cn0  v104
 BYTE   W12
 BYTE   N11
 BYTE   W12
 BYTE   N03  Cn0  v108
 BYTE   W04
 BYTE   Cn0  v092
 BYTE   W04
 BYTE   N03
 BYTE   W04
 BYTE   N11  Cn0  v112
 BYTE   W12
 BYTE   Cn0  v104
 BYTE   W12
 BYTE   N11
 BYTE   W12
 BYTE   N03  Cn0  v108
 BYTE   W04
 BYTE   Cn0  v092
 BYTE   W01
 BYTE   PEND 
 BYTE   PATT
  POIN2 Label_7_0109D464
 BYTE   PATT
  POIN2 Label_7_0109D464
 BYTE   PATT
  POIN2 Label_7_0109D464
 BYTE   PATT
  POIN2 Label_7_0109D464
 BYTE   PATT
  POIN2 Label_7_0109D464
 BYTE   PATT
  POIN2 Label_7_0109D464
 BYTE   PATT
  POIN2 Label_7_0109D464
// 011   ----------------------------------------
 BYTE   W03
 BYTE   N03  Cn0  v092
 BYTE   W05
 BYTE   N11  Cn0  v112
 BYTE   W12
 BYTE   Cn0  v104
 BYTE   W12
 BYTE   N11
 BYTE   W12
 BYTE   N03  Cn0  v108
 BYTE   W04
 BYTE   Cn0  v092
 BYTE   W04
 BYTE   N03
 BYTE   W04
 BYTE   N11  Cn0  v112
 BYTE   W12
 BYTE   Cn0  v104
 BYTE   W12
 BYTE   N11
 BYTE   W12
 BYTE   N03  Cn0  v108
 BYTE   W04
// 012   ----------------------------------------
Label_7_0109D4D3:
 BYTE   N03  Cn0  v092
 BYTE   W04
 BYTE   N03
 BYTE   W04
 BYTE   N11  Cn0  v112
 BYTE   W12
 BYTE   Cn0  v104
 BYTE   W12
 BYTE   N11
 BYTE   W12
 BYTE   N03  Cn0  v108
 BYTE   W04
 BYTE   Cn0  v092
 BYTE   W04
 BYTE   N03
 BYTE   W04
 BYTE   N11  Cn0  v112
 BYTE   W12
 BYTE   Cn0  v104
 BYTE   W12
 BYTE   N11
 BYTE   W12
 BYTE   N03  Cn0  v108
 BYTE   W04
 BYTE   PEND 
 BYTE   PATT
  POIN2 Label_7_0109D4D3
 BYTE   PATT
  POIN2 Label_7_0109D4D3
 BYTE   PATT
  POIN2 Label_7_0109D4D3
// 013   ----------------------------------------
 BYTE   N03  Cn0  v092
 BYTE   W04
 BYTE   N03
 BYTE   W04
 BYTE   N11  Cn0  v104
 BYTE   W12
 BYTE   N03  Cn0  v108
 BYTE   W04
 BYTE   Cn0  v092
 BYTE   W04
 BYTE   N03
 BYTE   W04
 BYTE   N11  Cn0  v104
 BYTE   W12
 BYTE   N03  Cn0  v108
 BYTE   W04
 BYTE   Cn0  v092
 BYTE   W04
 BYTE   N03
 BYTE   W04
 BYTE   N11  Cn0  v104
 BYTE   W12
 BYTE   N03  Cn0  v108
 BYTE   W04
 BYTE   Gs0  v092
 BYTE   W04
 BYTE   En0
 BYTE   W04
 BYTE   Cn0  v108
 BYTE   W04
 BYTE   Gs0  v092
 BYTE   W04
 BYTE   En0
 BYTE   W04
 BYTE   Cn0  v108
 BYTE   W04
// 014   ----------------------------------------
Label_7_0109D540:
 BYTE   N03  Gs0  v092
 BYTE   W04
 BYTE   En0
 BYTE   W04
 BYTE   N11  Cn0  v104
 BYTE   W12
 BYTE   N03  Cn0  v108
 BYTE   W04
 BYTE   Cn0  v092
 BYTE   W04
 BYTE   N03
 BYTE   W04
 BYTE   N11  Cn0  v104
 BYTE   W12
 BYTE   N03  Cn0  v108
 BYTE   W04
 BYTE   Cn0  v092
 BYTE   W04
 BYTE   N03
 BYTE   W04
 BYTE   N11  Cn0  v104
 BYTE   W12
 BYTE   N03  Cn0  v108
 BYTE   W04
 BYTE   Gs0  v092
 BYTE   W04
 BYTE   En0
 BYTE   W04
 BYTE   Cn0  v108
 BYTE   W04
 BYTE   Gs0  v092
 BYTE   W04
 BYTE   En0
 BYTE   W04
 BYTE   Cn0  v108
 BYTE   W04
 BYTE   PEND 
 BYTE   PATT
  POIN2 Label_7_0109D540
 BYTE   PATT
  POIN2 Label_7_0109D540
 BYTE   PATT
  POIN2 Label_7_0109D540
 BYTE   PATT
  POIN2 Label_7_0109D540
 BYTE   PATT
  POIN2 Label_7_0109D540
 BYTE   PATT
  POIN2 Label_7_0109D540
 BYTE   PATT
  POIN2 Label_7_0109D540
 BYTE   PATT
  POIN2 Label_7_0109D540
// 015   ----------------------------------------
 BYTE   N03  Gs0  v092
 BYTE   W04
 BYTE   En0
 BYTE   W05
 BYTE   N11  Cn0  v104
 BYTE   W12
 BYTE   N03  Cn0  v108
 BYTE   W04
 BYTE   Cn0  v092
 BYTE   W04
 BYTE   N03
 BYTE   W04
 BYTE   N11  Cn0  v104
 BYTE   W12
 BYTE   N03  Cn0  v108
 BYTE   W04
 BYTE   Cn0  v092
 BYTE   W04
 BYTE   N03
 BYTE   W04
 BYTE   N11  Cn0  v104
 BYTE   W12
 BYTE   N03  Cn0  v108
 BYTE   W04
 BYTE   Gs0  v092
 BYTE   W04
 BYTE   En0
 BYTE   W04
 BYTE   Cn0  v108
 BYTE   W04
 BYTE   Gs0  v092
 BYTE   W04
 BYTE   En0
 BYTE   W04
 BYTE   Cn0  v108
 BYTE   W03
// 016   ----------------------------------------
Label_7_0109D5D9:
 BYTE   W01
 BYTE   N03  Gs0  v092
 BYTE   W04
 BYTE   En0
 BYTE   W04
 BYTE   N11  Cn0  v104
 BYTE   W12
 BYTE   N03  Cn0  v108
 BYTE   W04
 BYTE   Cn0  v092
 BYTE   W04
 BYTE   N03
 BYTE   W04
 BYTE   N11  Cn0  v104
 BYTE   W12
 BYTE   N03  Cn0  v108
 BYTE   W04
 BYTE   Cn0  v092
 BYTE   W04
 BYTE   N03
 BYTE   W04
 BYTE   N11  Cn0  v104
 BYTE   W12
 BYTE   N03  Cn0  v108
 BYTE   W04
 BYTE   Gs0  v092
 BYTE   W04
 BYTE   En0
 BYTE   W04
 BYTE   Cn0  v108
 BYTE   W04
 BYTE   Gs0  v092
 BYTE   W04
 BYTE   En0
 BYTE   W04
 BYTE   Cn0  v108
 BYTE   W03
 BYTE   PEND 
 BYTE   PATT
  POIN2 Label_7_0109D5D9
 BYTE   PATT
  POIN2 Label_7_0109D5D9
 BYTE   PATT
  POIN2 Label_7_0109D5D9
 BYTE   PATT
  POIN2 Label_7_0109D5D9
// 017   ----------------------------------------
Label_7_0109D627:
 BYTE   W01
 BYTE   N03  Gs0  v092
 BYTE   W04
 BYTE   En0
 BYTE   W04
 BYTE   N11  Cn0  v104
 BYTE   W12
 BYTE   N03  Cn0  v108
 BYTE   W04
 BYTE   Cn0  v092
 BYTE   W04
 BYTE   N03
 BYTE   W04
 BYTE   N11  Cn0  v104
 BYTE   W12
 BYTE   N03  Cn0  v108
 BYTE   W04
 BYTE   Cn0  v092
 BYTE   W04
 BYTE   N03
 BYTE   W04
 BYTE   N11  Cn0  v104
 BYTE   W12
 BYTE   N03  Cn0  v108
 BYTE   W04
 BYTE   Gs0  v092
 BYTE   W04
 BYTE   En0
 BYTE   W04
 BYTE   Cn0  v112
 BYTE   W04
 BYTE   Gs0  v092
 BYTE   W04
 BYTE   En0
 BYTE   W04
 BYTE   N11  Cn0  v104
 BYTE   W03
 BYTE   PEND 
// 018   ----------------------------------------
Label_7_0109D662:
 BYTE   W09
 BYTE   N03  Cn0  v108
 BYTE   W04
 BYTE   Cn0  v092
 BYTE   W04
 BYTE   N03
 BYTE   W04
 BYTE   N11  Cn0  v104
 BYTE   W12
 BYTE   N03  Cn0  v108
 BYTE   W04
 BYTE   Cn0  v092
 BYTE   W04
 BYTE   N03
 BYTE   W04
 BYTE   N11  Cn0  v104
 BYTE   W12
 BYTE   N03  Cn0  v108
 BYTE   W04
 BYTE   Gs0  v092
 BYTE   W04
 BYTE   En0
 BYTE   W04
 BYTE   Cn0  v112
 BYTE   W04
 BYTE   Gs0  v092
 BYTE   W04
 BYTE   En0
 BYTE   W04
 BYTE   N11  Cn0  v104
 BYTE   W12
 BYTE   N03  Cn0  v108
 BYTE   W03
 BYTE   PEND 
// 019   ----------------------------------------
Label_7_0109D697:
 BYTE   W01
 BYTE   N03  Cn0  v092
 BYTE   W04
 BYTE   N03
 BYTE   W04
 BYTE   N11  Cn0  v104
 BYTE   W12
 BYTE   N03  Cn0  v108
 BYTE   W04
 BYTE   Cn0  v092
 BYTE   W04
 BYTE   N03
 BYTE   W04
 BYTE   N11  Cn0  v104
 BYTE   W12
 BYTE   N03  Cn0  v108
 BYTE   W04
 BYTE   Gs0  v092
 BYTE   W04
 BYTE   En0
 BYTE   W04
 BYTE   Cn0  v112
 BYTE   W04
 BYTE   Gs0  v092
 BYTE   W04
 BYTE   En0
 BYTE   W04
 BYTE   N11  Cn0  v104
 BYTE   W12
 BYTE   N03  Cn0  v108
 BYTE   W04
 BYTE   Cn0  v092
 BYTE   W04
 BYTE   N03
 BYTE   W04
 BYTE   N11  Cn0  v104
 BYTE   W03
 BYTE   PEND 
// 020   ----------------------------------------
 BYTE   W09
 BYTE   N03  Cn0  v108
 BYTE   W04
 BYTE   Cn0  v092
 BYTE   W04
 BYTE   N03
 BYTE   W04
 BYTE   N11  Cn0  v104
 BYTE   W12
 BYTE   N03  Cn0  v108
 BYTE   W04
 BYTE   Gs0  v092
 BYTE   W04
 BYTE   En0
 BYTE   W04
 BYTE   Cn0  v112
 BYTE   W04
 BYTE   Gs0  v092
 BYTE   W04
 BYTE   En0
 BYTE   W04
 BYTE   N11  Cn0  v104
 BYTE   W12
 BYTE   N03  Cn0  v108
 BYTE   W04
 BYTE   Cn0  v092
 BYTE   W04
 BYTE   N03
 BYTE   W04
 BYTE   N11  Cn0  v104
 BYTE   W12
 BYTE   N03  Cn0  v108
 BYTE   W03
// 021   ----------------------------------------
 BYTE   W01
 BYTE   Cn0  v092
 BYTE   W04
 BYTE   N03
 BYTE   W04
 BYTE   N11  Cn0  v104
 BYTE   W12
 BYTE   N03  Cn0  v108
 BYTE   W04
 BYTE   Gs0  v092
 BYTE   W04
 BYTE   En0
 BYTE   W04
 BYTE   Cn0  v112
 BYTE   W04
 BYTE   Gs0  v092
 BYTE   W04
 BYTE   En0
 BYTE   W04
 BYTE   N11  Cn0  v104
 BYTE   W12
 BYTE   N03  Cn0  v108
 BYTE   W04
 BYTE   Cn0  v092
 BYTE   W04
 BYTE   N03
 BYTE   W04
 BYTE   N11  Cn0  v104
 BYTE   W12
 BYTE   N03  Cn0  v108
 BYTE   W04
 BYTE   Cn0  v092
 BYTE   W04
 BYTE   N03
 BYTE   W04
 BYTE   N11  Cn0  v104
 BYTE   W03
// 022   ----------------------------------------
 BYTE   W09
 BYTE   N03  Cn0  v108
 BYTE   W04
 BYTE   Gs0  v092
 BYTE   W04
 BYTE   En0
 BYTE   W04
 BYTE   Cn0  v112
 BYTE   W04
 BYTE   Gs0  v092
 BYTE   W04
 BYTE   En0
 BYTE   W04
 BYTE   N11  Cn0  v104
 BYTE   W12
 BYTE   N03  Cn0  v108
 BYTE   W04
 BYTE   Cn0  v092
 BYTE   W04
 BYTE   N03
 BYTE   W04
 BYTE   N11  Cn0  v104
 BYTE   W12
 BYTE   N03  Cn0  v108
 BYTE   W04
 BYTE   Cn0  v092
 BYTE   W04
 BYTE   N03
 BYTE   W04
 BYTE   N11  Cn0  v104
 BYTE   W12
 BYTE   N03  Cn0  v108
 BYTE   W03
// 023   ----------------------------------------
 BYTE   W01
 BYTE   Gs0  v092
 BYTE   W04
 BYTE   En0
 BYTE   W04
 BYTE   Cn0  v112
 BYTE   W04
 BYTE   Gs0  v092
 BYTE   W04
 BYTE   En0
 BYTE   W04
 BYTE   N11  Cn0  v104
 BYTE   W12
 BYTE   N03  Cn0  v108
 BYTE   W04
 BYTE   Cn0  v092
 BYTE   W04
 BYTE   N03
 BYTE   W04
 BYTE   N11  Cn0  v104
 BYTE   W12
 BYTE   N03  Cn0  v108
 BYTE   W04
 BYTE   Cn0  v092
 BYTE   W04
 BYTE   N03
 BYTE   W04
 BYTE   N11  Cn0  v104
 BYTE   W12
 BYTE   N03  Cn0  v108
 BYTE   W04
 BYTE   Gs0  v092
 BYTE   W04
 BYTE   En0
 BYTE   W04
 BYTE   Cn0  v112
 BYTE   W03
 BYTE   PATT
  POIN2 Label_7_0109D627
 BYTE   PATT
  POIN2 Label_7_0109D662
 BYTE   PATT
  POIN2 Label_7_0109D697
// 024   ----------------------------------------
 BYTE   W09
 BYTE   N03  Cn0  v108
 BYTE   W04
 BYTE   Cn0  v092
 BYTE   W04
 BYTE   N03
 BYTE   W04
 BYTE   N11  Cn0  v104
 BYTE   W12
 BYTE   N03  Cn0  v108
 BYTE   W04
 BYTE   Gs0  v092
 BYTE   W04
 BYTE   En0
 BYTE   W04
 BYTE   Cn0  v112
 BYTE   W04
 BYTE   Gs0  v092
 BYTE   W04
 BYTE   En0
 BYTE   W05
 BYTE   N11  Cn0  v112
 BYTE   W12
 BYTE   Cn0  v104
 BYTE   W12
 BYTE   N11
 BYTE   W12
 BYTE   N03  Cn0  v108
 BYTE   W02
// 025   ----------------------------------------
Label_7_0109D7E6:
 BYTE   W02
 BYTE   N03  Cn0  v092
 BYTE   W04
 BYTE   N03
 BYTE   W04
 BYTE   N11  Cn0  v112
 BYTE   W12
 BYTE   Cn0  v104
 BYTE   W12
 BYTE   N11
 BYTE   W12
 BYTE   N03  Cn0  v108
 BYTE   W04
 BYTE   Cn0  v092
 BYTE   W04
 BYTE   N03
 BYTE   W04
 BYTE   N11  Cn0  v112
 BYTE   W12
 BYTE   Cn0  v104
 BYTE   W12
 BYTE   N11
 BYTE   W12
 BYTE   N03  Cn0  v108
 BYTE   W02
 BYTE   PEND 
 BYTE   PATT
  POIN2 Label_7_0109D7E6
 BYTE   PATT
  POIN2 Label_7_0109D7E6
 BYTE   PATT
  POIN2 Label_7_0109D7E6
 BYTE   PATT
  POIN2 Label_7_0109D7E6
 BYTE   PATT
  POIN2 Label_7_0109D7E6
 BYTE   PATT
  POIN2 Label_7_0109D7E6
 BYTE   PATT
  POIN2 Label_7_0109D7E6
 BYTE   PATT
  POIN2 Label_7_0109D7E6
 BYTE   PATT
  POIN2 Label_7_0109D7E6
 BYTE   PATT
  POIN2 Label_7_0109D7E6
 BYTE   PATT
  POIN2 Label_7_0109D7E6
// 026   ----------------------------------------
 BYTE   W02
 BYTE   N03  Cn0  v092
 BYTE   W04
 BYTE   N03
 BYTE   W90
// 027   ----------------------------------------
 BYTE   W96
// 028   ----------------------------------------
 BYTE   W96
// 029   ----------------------------------------
 BYTE   W96
// 030   ----------------------------------------
 BYTE   W96
// 031   ----------------------------------------
 BYTE   W96
// 032   ----------------------------------------
 BYTE   W09
 BYTE   FINE

//******************************************************//
	ALIGN 4

B1EndingMedley:
	BYTE	8	// NumTrks
	BYTE	0	// NumBlks
	BYTE	B1EndingMedley_pri	// Priority
	BYTE	B1EndingMedley_rev	// Reverb.
    
	POIN2	B1EndingMedley_grp
    
	POIN2	B1EndingMedley_001
	POIN2	B1EndingMedley_002
	POIN2	B1EndingMedley_003
	POIN2	B1EndingMedley_004
	POIN2	B1EndingMedley_005
	POIN2	B1EndingMedley_006
	POIN2	B1EndingMedley_007
	POIN2	B1EndingMedley_008

	
