//Event file generated from Sappy .s format.
	#include "MPlayDef.event"

	#define	DancerMusic_grp  voicegroup000
	#define	DancerMusic_pri  0
	#define	DancerMusic_rev  0
	#define	DancerMusic_mvl  95
	#define	DancerMusic_key  0
	#define	DancerMusic_tbs  1
	#define	DancerMusic_exg  0
	#define	DancerMusic_cmp  1

	// .rodata
	//	DancerMusic
	ALIGN 4


//**************** Track 1 (Midi-Chn.0) ****************//

DancerMusic_001:
// 000   ----------------------------------------
 BYTE   KEYSH   DancerMusic_key+0
Label_0_0142403E:
 BYTE   TEMPO   64*DancerMusic_tbs/2
 BYTE   VOICE   42
 BYTE   VOL   76*DancerMusic_mvl/mxv
 BYTE   PAN   c_v-25
 BYTE   W02
 BYTE   N03  Dn2  v104
 BYTE   W04
 BYTE   N03
 BYTE   W04
 BYTE   N03
 BYTE   W04
 BYTE   N03
 BYTE   W04
 BYTE   N03
 BYTE   W04
 BYTE   N03
 BYTE   W04
 BYTE   N03
 BYTE   W04
 BYTE   N03
 BYTE   W04
 BYTE   N03
 BYTE   W04
 BYTE   N03
 BYTE   W04
 BYTE   N03
 BYTE   W04
 BYTE   N03
 BYTE   W04
 BYTE   N03
 BYTE   W04
 BYTE   N03
 BYTE   W04
 BYTE   N03
 BYTE   W04
 BYTE   N03
 BYTE   W04
 BYTE   N03
 BYTE   W04
 BYTE   N03
 BYTE   W04
 BYTE   N03
 BYTE   W04
 BYTE   N03
 BYTE   W04
 BYTE   N03
 BYTE   W04
 BYTE   N03
 BYTE   W04
 BYTE   N03
 BYTE   W04
 BYTE   N03
 BYTE   W02
// 001   ----------------------------------------
 BYTE   GoTo
  POIN2 Label_0_0142403E
// 002   ----------------------------------------
Label_0_0142407E:
 BYTE   W02
 BYTE   N03  Dn2  v104
 BYTE   W04
 BYTE   N03
 BYTE   W04
 BYTE   N03
 BYTE   W04
 BYTE   N03
 BYTE   W04
 BYTE   N03
 BYTE   W04
 BYTE   N03
 BYTE   W04
 BYTE   N03
 BYTE   W04
 BYTE   N03
 BYTE   W04
 BYTE   N03
 BYTE   W04
 BYTE   N03
 BYTE   W04
 BYTE   N03
 BYTE   W04
 BYTE   N03
 BYTE   W04
 BYTE   N03
 BYTE   W04
 BYTE   N03
 BYTE   W04
 BYTE   N03
 BYTE   W04
 BYTE   N03
 BYTE   W04
 BYTE   N03
 BYTE   W04
 BYTE   N03
 BYTE   W04
 BYTE   N03
 BYTE   W04
 BYTE   N03
 BYTE   W04
 BYTE   N03
 BYTE   W04
 BYTE   N03
 BYTE   W04
 BYTE   N03
 BYTE   W04
 BYTE   N03
 BYTE   W02
 BYTE   PEND 
 BYTE   PATT
  POIN2 Label_0_0142407E
 BYTE   PATT
  POIN2 Label_0_0142407E
 BYTE   PATT
  POIN2 Label_0_0142407E
 BYTE   PATT
  POIN2 Label_0_0142407E
 BYTE   PATT
  POIN2 Label_0_0142407E
 BYTE   PATT
  POIN2 Label_0_0142407E
 BYTE   PATT
  POIN2 Label_0_0142407E
 BYTE   PATT
  POIN2 Label_0_0142407E
 BYTE   PATT
  POIN2 Label_0_0142407E
 BYTE   PATT
  POIN2 Label_0_0142407E
 BYTE   PATT
  POIN2 Label_0_0142407E
 BYTE   PATT
  POIN2 Label_0_0142407E
 BYTE   PATT
  POIN2 Label_0_0142407E
 BYTE   PATT
  POIN2 Label_0_0142407E
 BYTE   PATT
  POIN2 Label_0_0142407E
 BYTE   PATT
  POIN2 Label_0_0142407E
 BYTE   PATT
  POIN2 Label_0_0142407E
 BYTE   PATT
  POIN2 Label_0_0142407E
 BYTE   PATT
  POIN2 Label_0_0142407E
 BYTE   PATT
  POIN2 Label_0_0142407E
 BYTE   PATT
  POIN2 Label_0_0142407E
 BYTE   PATT
  POIN2 Label_0_0142407E
 BYTE   PATT
  POIN2 Label_0_0142407E
 BYTE   PATT
  POIN2 Label_0_0142407E
 BYTE   PATT
  POIN2 Label_0_0142407E
 BYTE   PATT
  POIN2 Label_0_0142407E
 BYTE   PATT
  POIN2 Label_0_0142407E
 BYTE   PATT
  POIN2 Label_0_0142407E
 BYTE   PATT
  POIN2 Label_0_0142407E
 BYTE   PATT
  POIN2 Label_0_0142407E
 BYTE   PATT
  POIN2 Label_0_0142407E
 BYTE   PATT
  POIN2 Label_0_0142407E
 BYTE   PATT
  POIN2 Label_0_0142407E
 BYTE   PATT
  POIN2 Label_0_0142407E
 BYTE   PATT
  POIN2 Label_0_0142407E
 BYTE   PATT
  POIN2 Label_0_0142407E
 BYTE   PATT
  POIN2 Label_0_0142407E
// 003   ----------------------------------------
 BYTE   W02
 BYTE   N03  Dn2  v104
 BYTE   W04
 BYTE   N03
 BYTE   W04
 BYTE   N03
 BYTE   W04
 BYTE   N03
 BYTE   W04
 BYTE   N03
 BYTE   W04
 BYTE   N03
 BYTE   W04
 BYTE   N03
 BYTE   W04
 BYTE   N03
 BYTE   W04
 BYTE   N03
 BYTE   W04
 BYTE   N03
 BYTE   W04
 BYTE   N03
 BYTE   W04
 BYTE   N03
 BYTE   W04
 BYTE   N03
 BYTE   W04
 BYTE   N03
 BYTE   W04
 BYTE   N03
 BYTE   W04
 BYTE   N03
 BYTE   W04
 BYTE   N03
 BYTE   W04
 BYTE   N03
 BYTE   W04
 BYTE   N03
 BYTE   W04
 BYTE   N03
 BYTE   W04
 BYTE   N03
 BYTE   W04
 BYTE   N03
 BYTE   W04
 BYTE   N03
 BYTE   W04
 BYTE   N01
 BYTE   W01
 BYTE   FINE

//**************** Track 2 (Midi-Chn.1) ****************//

DancerMusic_002:
// 000   ----------------------------------------
 BYTE   KEYSH   DancerMusic_key+0
Label_1_014241A2:
 BYTE   VOICE   42
 BYTE   VOL   76*DancerMusic_mvl/mxv
 BYTE   PAN   c_v+25
 BYTE   N03  Gn1  v104
 BYTE   W04
 BYTE   N03
 BYTE   W04
 BYTE   N03
 BYTE   W04
 BYTE   N03
 BYTE   W04
 BYTE   N03
 BYTE   W04
 BYTE   N03
 BYTE   W04
 BYTE   N03
 BYTE   W04
 BYTE   N03
 BYTE   W04
 BYTE   N03
 BYTE   W04
 BYTE   N03
 BYTE   W04
 BYTE   N03
 BYTE   W04
 BYTE   N03
 BYTE   W04
 BYTE   N03
 BYTE   W04
 BYTE   N03
 BYTE   W04
 BYTE   N03
 BYTE   W04
 BYTE   N03
 BYTE   W04
 BYTE   N03
 BYTE   W04
 BYTE   N03
 BYTE   W04
 BYTE   N03
 BYTE   W04
 BYTE   N03
 BYTE   W04
 BYTE   N03
 BYTE   W04
 BYTE   N03
 BYTE   W04
 BYTE   N03
 BYTE   W04
 BYTE   N03
 BYTE   W04
// 001   ----------------------------------------
 BYTE   GoTo
  POIN2 Label_1_014241A2
// 002   ----------------------------------------
Label_1_014241DF:
 BYTE   N03  Gn1  v104
 BYTE   W04
 BYTE   N03
 BYTE   W04
 BYTE   N03
 BYTE   W04
 BYTE   N03
 BYTE   W04
 BYTE   N03
 BYTE   W04
 BYTE   N03
 BYTE   W04
 BYTE   N03
 BYTE   W04
 BYTE   N03
 BYTE   W04
 BYTE   N03
 BYTE   W04
 BYTE   N03
 BYTE   W04
 BYTE   N03
 BYTE   W04
 BYTE   N03
 BYTE   W04
 BYTE   N03
 BYTE   W04
 BYTE   N03
 BYTE   W04
 BYTE   N03
 BYTE   W04
 BYTE   N03
 BYTE   W04
 BYTE   N03
 BYTE   W04
 BYTE   N03
 BYTE   W04
 BYTE   N03
 BYTE   W04
 BYTE   N03
 BYTE   W04
 BYTE   N03
 BYTE   W04
 BYTE   N03
 BYTE   W04
 BYTE   N03
 BYTE   W04
 BYTE   N03
 BYTE   W04
 BYTE   PEND 
 BYTE   PATT
  POIN2 Label_1_014241DF
 BYTE   PATT
  POIN2 Label_1_014241DF
 BYTE   PATT
  POIN2 Label_1_014241DF
 BYTE   PATT
  POIN2 Label_1_014241DF
 BYTE   PATT
  POIN2 Label_1_014241DF
 BYTE   PATT
  POIN2 Label_1_014241DF
 BYTE   PATT
  POIN2 Label_1_014241DF
 BYTE   PATT
  POIN2 Label_1_014241DF
 BYTE   PATT
  POIN2 Label_1_014241DF
 BYTE   PATT
  POIN2 Label_1_014241DF
 BYTE   PATT
  POIN2 Label_1_014241DF
 BYTE   PATT
  POIN2 Label_1_014241DF
 BYTE   PATT
  POIN2 Label_1_014241DF
 BYTE   PATT
  POIN2 Label_1_014241DF
 BYTE   PATT
  POIN2 Label_1_014241DF
 BYTE   PATT
  POIN2 Label_1_014241DF
 BYTE   PATT
  POIN2 Label_1_014241DF
 BYTE   PATT
  POIN2 Label_1_014241DF
 BYTE   PATT
  POIN2 Label_1_014241DF
 BYTE   PATT
  POIN2 Label_1_014241DF
 BYTE   PATT
  POIN2 Label_1_014241DF
 BYTE   PATT
  POIN2 Label_1_014241DF
 BYTE   PATT
  POIN2 Label_1_014241DF
 BYTE   PATT
  POIN2 Label_1_014241DF
 BYTE   PATT
  POIN2 Label_1_014241DF
 BYTE   PATT
  POIN2 Label_1_014241DF
 BYTE   PATT
  POIN2 Label_1_014241DF
 BYTE   PATT
  POIN2 Label_1_014241DF
 BYTE   PATT
  POIN2 Label_1_014241DF
 BYTE   PATT
  POIN2 Label_1_014241DF
 BYTE   PATT
  POIN2 Label_1_014241DF
 BYTE   PATT
  POIN2 Label_1_014241DF
 BYTE   PATT
  POIN2 Label_1_014241DF
 BYTE   PATT
  POIN2 Label_1_014241DF
 BYTE   PATT
  POIN2 Label_1_014241DF
 BYTE   PATT
  POIN2 Label_1_014241DF
 BYTE   PATT
  POIN2 Label_1_014241DF
// 003   ----------------------------------------
 BYTE   N03  Gn1  v104
 BYTE   W04
 BYTE   N03
 BYTE   W04
 BYTE   N03
 BYTE   W04
 BYTE   N03
 BYTE   W04
 BYTE   N03
 BYTE   W04
 BYTE   N03
 BYTE   W04
 BYTE   N03
 BYTE   W04
 BYTE   N03
 BYTE   W04
 BYTE   N03
 BYTE   W04
 BYTE   N03
 BYTE   W04
 BYTE   N03
 BYTE   W04
 BYTE   N03
 BYTE   W04
 BYTE   N03
 BYTE   W04
 BYTE   N03
 BYTE   W04
 BYTE   N03
 BYTE   W04
 BYTE   N03
 BYTE   W04
 BYTE   N03
 BYTE   W04
 BYTE   N03
 BYTE   W04
 BYTE   N03
 BYTE   W04
 BYTE   N03
 BYTE   W04
 BYTE   N03
 BYTE   W04
 BYTE   N03
 BYTE   W04
 BYTE   N03
 BYTE   W04
 BYTE   N03
 BYTE   W03
 BYTE   FINE

//**************** Track 3 (Midi-Chn.2) ****************//

DancerMusic_003:
// 000   ----------------------------------------
 BYTE   KEYSH   DancerMusic_key+0
Label_2_01424302:
 BYTE   VOICE   57
 BYTE   VOL   80*DancerMusic_mvl/mxv
 BYTE   PAN   c_v+0
 BYTE   W10
 BYTE   N01  Bn3  v096
 BYTE   W03
 BYTE   N03  Bn3  v080
 BYTE   W10
 BYTE   N09  An3  v096
 BYTE   W32
 BYTE   W03
 BYTE   N01  Bn3  v072
 BYTE   W02
 BYTE   N03  Bn3  v080
 BYTE   W12
 BYTE   N10  An3  v096
 BYTE   W24
// 001   ----------------------------------------
 BYTE   GoTo
  POIN2 Label_2_01424302
// 002   ----------------------------------------
Label_2_01424327:
 BYTE   W10
 BYTE   N01  Bn3  v096
 BYTE   W03
 BYTE   N03  Bn3  v080
 BYTE   W10
 BYTE   N09  An3  v096
 BYTE   W32
 BYTE   W03
 BYTE   N01  Bn3  v072
 BYTE   W02
 BYTE   N03  Bn3  v080
 BYTE   W12
 BYTE   N10  An3  v096
 BYTE   W24
 BYTE   PEND 
 BYTE   PATT
  POIN2 Label_2_01424327
 BYTE   PATT
  POIN2 Label_2_01424327
 BYTE   PATT
  POIN2 Label_2_01424327
 BYTE   PATT
  POIN2 Label_2_01424327
 BYTE   PATT
  POIN2 Label_2_01424327
 BYTE   PATT
  POIN2 Label_2_01424327
 BYTE   PATT
  POIN2 Label_2_01424327
 BYTE   PATT
  POIN2 Label_2_01424327
 BYTE   PATT
  POIN2 Label_2_01424327
 BYTE   PATT
  POIN2 Label_2_01424327
 BYTE   PATT
  POIN2 Label_2_01424327
 BYTE   PATT
  POIN2 Label_2_01424327
 BYTE   PATT
  POIN2 Label_2_01424327
 BYTE   PATT
  POIN2 Label_2_01424327
 BYTE   PATT
  POIN2 Label_2_01424327
 BYTE   PATT
  POIN2 Label_2_01424327
 BYTE   PATT
  POIN2 Label_2_01424327
 BYTE   PATT
  POIN2 Label_2_01424327
// 003   ----------------------------------------
Label_2_0142439C:
 BYTE   W10
 BYTE   N01  Bn3  v096
 BYTE   W04
 BYTE   N03  Bn3  v080
 BYTE   W09
 BYTE   N09  An3  v096
 BYTE   W32
 BYTE   W03
 BYTE   N01  Bn3  v072
 BYTE   W03
 BYTE   N03  Bn3  v080
 BYTE   W11
 BYTE   N10  An3  v096
 BYTE   W24
 BYTE   PEND 
 BYTE   PATT
  POIN2 Label_2_0142439C
 BYTE   PATT
  POIN2 Label_2_0142439C
 BYTE   PATT
  POIN2 Label_2_0142439C
 BYTE   PATT
  POIN2 Label_2_0142439C
 BYTE   PATT
  POIN2 Label_2_0142439C
 BYTE   PATT
  POIN2 Label_2_0142439C
 BYTE   PATT
  POIN2 Label_2_0142439C
 BYTE   PATT
  POIN2 Label_2_0142439C
 BYTE   PATT
  POIN2 Label_2_0142439C
 BYTE   PATT
  POIN2 Label_2_0142439C
 BYTE   PATT
  POIN2 Label_2_0142439C
 BYTE   PATT
  POIN2 Label_2_0142439C
 BYTE   PATT
  POIN2 Label_2_0142439C
 BYTE   PATT
  POIN2 Label_2_0142439C
 BYTE   PATT
  POIN2 Label_2_0142439C
 BYTE   PATT
  POIN2 Label_2_0142439C
 BYTE   PATT
  POIN2 Label_2_0142439C
 BYTE   PATT
  POIN2 Label_2_0142439C
// 004   ----------------------------------------
 BYTE   W10
 BYTE   N01  Bn3  v096
 BYTE   W04
 BYTE   N03  Bn3  v080
 BYTE   W09
 BYTE   N09  An3  v096
 BYTE   W32
 BYTE   W03
 BYTE   N01  Bn3  v072
 BYTE   W03
 BYTE   N03  Bn3  v080
 BYTE   W11
 BYTE   N10  An3  v096
 BYTE   W23
 BYTE   FINE

//**************** Track 4 (Midi-Chn.3) ****************//

DancerMusic_004:
// 000   ----------------------------------------
 BYTE   KEYSH   DancerMusic_key+0
Label_3_0142442E:
 BYTE   VOICE   57
 BYTE   VOL   80*DancerMusic_mvl/mxv
 BYTE   PAN   c_v+0
 BYTE   W05
 BYTE   N03  Cn4  v104
 BYTE   W06
 BYTE   N02  Cn4  v084
 BYTE   W06
 BYTE   N05  Gn3  v088
 BYTE   W18
 BYTE   VOL   59*DancerMusic_mvl/mxv
 BYTE   N15  En4  v108
 BYTE   W01
 BYTE   VOL   62*DancerMusic_mvl/mxv
 BYTE   W01
 BYTE   Fn3
 BYTE   W01
 BYTE   Gs3
 BYTE   W01
 BYTE   Bn3
 BYTE   W01
 BYTE   Dn4
 BYTE   W01
 BYTE   Fn4
 BYTE   W01
 BYTE   Gs4
 BYTE   W11
 BYTE   N03  Cn4
 BYTE   W06
 BYTE   N01  Cn4  v084
 BYTE   W06
 BYTE   N06  Gn3
 BYTE   W19
 BYTE   VOL   60*DancerMusic_mvl/mxv
 BYTE   N11  Fn3  v104
 BYTE   W01
 BYTE   VOL   63*DancerMusic_mvl/mxv
 BYTE   W01
 BYTE   Fs3
 BYTE   W01
 BYTE   As3
 BYTE   W01
 BYTE   Cs4
 BYTE   W01
 BYTE   En4
 BYTE   W01
 BYTE   Gs4
 BYTE   W06
// 001   ----------------------------------------
 BYTE   GoTo
  POIN2 Label_3_0142442E
// 002   ----------------------------------------
Label_3_01424478:
 BYTE   W05
 BYTE   N03  Cn4  v104
 BYTE   W06
 BYTE   N02  Cn4  v084
 BYTE   W06
 BYTE   N05  Gn3  v088
 BYTE   W18
 BYTE   VOL   59*DancerMusic_mvl/mxv
 BYTE   N15  En4  v108
 BYTE   W01
 BYTE   VOL   62*DancerMusic_mvl/mxv
 BYTE   W01
 BYTE   Fn3
 BYTE   W01
 BYTE   Gs3
 BYTE   W01
 BYTE   Bn3
 BYTE   W01
 BYTE   Dn4
 BYTE   W01
 BYTE   Fn4
 BYTE   W01
 BYTE   Gs4
 BYTE   W11
 BYTE   N03  Cn4
 BYTE   W06
 BYTE   N01  Cn4  v084
 BYTE   W06
 BYTE   N06  Gn3
 BYTE   W19
 BYTE   VOL   60*DancerMusic_mvl/mxv
 BYTE   N11  Fn3  v104
 BYTE   W01
 BYTE   VOL   63*DancerMusic_mvl/mxv
 BYTE   W01
 BYTE   Fs3
 BYTE   W01
 BYTE   As3
 BYTE   W01
 BYTE   Cs4
 BYTE   W01
 BYTE   En4
 BYTE   W01
 BYTE   Gs4
 BYTE   W06
 BYTE   PEND 
 BYTE   PATT
  POIN2 Label_3_01424478
 BYTE   PATT
  POIN2 Label_3_01424478
 BYTE   PATT
  POIN2 Label_3_01424478
 BYTE   PATT
  POIN2 Label_3_01424478
 BYTE   PATT
  POIN2 Label_3_01424478
 BYTE   PATT
  POIN2 Label_3_01424478
 BYTE   PATT
  POIN2 Label_3_01424478
 BYTE   PATT
  POIN2 Label_3_01424478
 BYTE   PATT
  POIN2 Label_3_01424478
 BYTE   PATT
  POIN2 Label_3_01424478
 BYTE   PATT
  POIN2 Label_3_01424478
 BYTE   PATT
  POIN2 Label_3_01424478
 BYTE   PATT
  POIN2 Label_3_01424478
 BYTE   PATT
  POIN2 Label_3_01424478
 BYTE   PATT
  POIN2 Label_3_01424478
 BYTE   PATT
  POIN2 Label_3_01424478
 BYTE   PATT
  POIN2 Label_3_01424478
 BYTE   PATT
  POIN2 Label_3_01424478
// 003   ----------------------------------------
Label_3_01424512:
 BYTE   W06
 BYTE   N03  Cn4  v104
 BYTE   W05
 BYTE   N02  Cn4  v084
 BYTE   W07
 BYTE   N05  Gn3  v088
 BYTE   W18
 BYTE   VOL   60*DancerMusic_mvl/mxv
 BYTE   N15  En4  v108
 BYTE   W01
 BYTE   VOL   64*DancerMusic_mvl/mxv
 BYTE   W01
 BYTE   Fs3
 BYTE   W01
 BYTE   As3
 BYTE   W01
 BYTE   Cn4
 BYTE   W01
 BYTE   Ds4
 BYTE   W01
 BYTE   Fs4
 BYTE   W01
 BYTE   Gs4
 BYTE   W10
 BYTE   N03  Cn4
 BYTE   W06
 BYTE   N01  Cn4  v084
 BYTE   W06
 BYTE   N06  Gn3
 BYTE   W19
 BYTE   VOL   58*DancerMusic_mvl/mxv
 BYTE   N11  Fn3  v104
 BYTE   W01
 BYTE   VOL   62*DancerMusic_mvl/mxv
 BYTE   W01
 BYTE   Fn3
 BYTE   W01
 BYTE   Gs3
 BYTE   W01
 BYTE   Cn4
 BYTE   W01
 BYTE   Ds4
 BYTE   W01
 BYTE   Fs4
 BYTE   W01
 BYTE   Gs4
 BYTE   W05
 BYTE   PEND 
 BYTE   PATT
  POIN2 Label_3_01424512
 BYTE   PATT
  POIN2 Label_3_01424512
 BYTE   PATT
  POIN2 Label_3_01424512
 BYTE   PATT
  POIN2 Label_3_01424512
 BYTE   PATT
  POIN2 Label_3_01424512
 BYTE   PATT
  POIN2 Label_3_01424512
 BYTE   PATT
  POIN2 Label_3_01424512
 BYTE   PATT
  POIN2 Label_3_01424512
 BYTE   PATT
  POIN2 Label_3_01424512
 BYTE   PATT
  POIN2 Label_3_01424512
 BYTE   PATT
  POIN2 Label_3_01424512
 BYTE   PATT
  POIN2 Label_3_01424512
 BYTE   PATT
  POIN2 Label_3_01424512
 BYTE   PATT
  POIN2 Label_3_01424512
 BYTE   PATT
  POIN2 Label_3_01424512
 BYTE   PATT
  POIN2 Label_3_01424512
 BYTE   PATT
  POIN2 Label_3_01424512
 BYTE   PATT
  POIN2 Label_3_01424512
// 004   ----------------------------------------
 BYTE   W06
 BYTE   N03  Cn4  v104
 BYTE   W05
 BYTE   N02  Cn4  v084
 BYTE   W07
 BYTE   N05  Gn3  v088
 BYTE   W18
 BYTE   VOL   60*DancerMusic_mvl/mxv
 BYTE   N15  En4  v108
 BYTE   W01
 BYTE   VOL   64*DancerMusic_mvl/mxv
 BYTE   W01
 BYTE   Fs3
 BYTE   W01
 BYTE   As3
 BYTE   W01
 BYTE   Cn4
 BYTE   W01
 BYTE   Ds4
 BYTE   W01
 BYTE   Fs4
 BYTE   W01
 BYTE   Gs4
 BYTE   W10
 BYTE   N03  Cn4
 BYTE   W06
 BYTE   N01  Cn4  v084
 BYTE   W06
 BYTE   N06  Gn3
 BYTE   W19
 BYTE   VOL   58*DancerMusic_mvl/mxv
 BYTE   N11  Fn3  v104
 BYTE   W01
 BYTE   VOL   62*DancerMusic_mvl/mxv
 BYTE   W01
 BYTE   Fn3
 BYTE   W01
 BYTE   Gs3
 BYTE   W01
 BYTE   Cn4
 BYTE   W01
 BYTE   Ds4
 BYTE   W01
 BYTE   Fs4
 BYTE   W01
 BYTE   Gs4
 BYTE   W04
 BYTE   FINE

//**************** Track 5 (Midi-Chn.4) ****************//

DancerMusic_005:
// 000   ----------------------------------------
 BYTE   KEYSH   DancerMusic_key+0
Label_4_014245F2:
 BYTE   VOICE   42
 BYTE   VOL   80*DancerMusic_mvl/mxv
 BYTE   PAN   c_v-14
 BYTE   W03
 BYTE   N05  Gn3  v092
 BYTE   W06
 BYTE   Gn3  v100
 BYTE   W06
 BYTE   Gn3  v092
 BYTE   W06
 BYTE   Gn3  v100
 BYTE   W06
 BYTE   Gn3  v092
 BYTE   W06
 BYTE   Gn3  v100
 BYTE   W06
 BYTE   Gn3  v092
 BYTE   W06
 BYTE   Gn3  v100
 BYTE   W06
 BYTE   Gn3  v092
 BYTE   W06
 BYTE   Gn3  v100
 BYTE   W06
 BYTE   Gn3  v092
 BYTE   W06
 BYTE   Gn3  v100
 BYTE   W06
 BYTE   Gn3  v092
 BYTE   W06
 BYTE   Gn3  v100
 BYTE   W06
 BYTE   Gn3  v092
 BYTE   W06
 BYTE   Gn3  v100
 BYTE   W03
// 001   ----------------------------------------
 BYTE   GoTo
  POIN2 Label_4_014245F2
// 002   ----------------------------------------
Label_4_0142462F:
 BYTE   W03
 BYTE   N05  Gn3  v092
 BYTE   W06
 BYTE   Gn3  v100
 BYTE   W06
 BYTE   Gn3  v092
 BYTE   W06
 BYTE   Gn3  v100
 BYTE   W06
 BYTE   Gn3  v092
 BYTE   W06
 BYTE   Gn3  v100
 BYTE   W06
 BYTE   Gn3  v092
 BYTE   W06
 BYTE   Gn3  v100
 BYTE   W06
 BYTE   Gn3  v092
 BYTE   W06
 BYTE   Gn3  v100
 BYTE   W06
 BYTE   Gn3  v092
 BYTE   W06
 BYTE   Gn3  v100
 BYTE   W06
 BYTE   Gn3  v092
 BYTE   W06
 BYTE   Gn3  v100
 BYTE   W06
 BYTE   Gn3  v092
 BYTE   W06
 BYTE   Gn3  v100
 BYTE   W03
 BYTE   PEND 
 BYTE   PATT
  POIN2 Label_4_0142462F
 BYTE   PATT
  POIN2 Label_4_0142462F
 BYTE   PATT
  POIN2 Label_4_0142462F
 BYTE   PATT
  POIN2 Label_4_0142462F
 BYTE   PATT
  POIN2 Label_4_0142462F
 BYTE   PATT
  POIN2 Label_4_0142462F
 BYTE   PATT
  POIN2 Label_4_0142462F
 BYTE   PATT
  POIN2 Label_4_0142462F
 BYTE   PATT
  POIN2 Label_4_0142462F
 BYTE   PATT
  POIN2 Label_4_0142462F
 BYTE   PATT
  POIN2 Label_4_0142462F
 BYTE   PATT
  POIN2 Label_4_0142462F
 BYTE   PATT
  POIN2 Label_4_0142462F
 BYTE   PATT
  POIN2 Label_4_0142462F
 BYTE   PATT
  POIN2 Label_4_0142462F
 BYTE   PATT
  POIN2 Label_4_0142462F
 BYTE   PATT
  POIN2 Label_4_0142462F
 BYTE   PATT
  POIN2 Label_4_0142462F
 BYTE   PATT
  POIN2 Label_4_0142462F
 BYTE   PATT
  POIN2 Label_4_0142462F
 BYTE   PATT
  POIN2 Label_4_0142462F
 BYTE   PATT
  POIN2 Label_4_0142462F
 BYTE   PATT
  POIN2 Label_4_0142462F
 BYTE   PATT
  POIN2 Label_4_0142462F
 BYTE   PATT
  POIN2 Label_4_0142462F
 BYTE   PATT
  POIN2 Label_4_0142462F
 BYTE   PATT
  POIN2 Label_4_0142462F
 BYTE   PATT
  POIN2 Label_4_0142462F
 BYTE   PATT
  POIN2 Label_4_0142462F
 BYTE   PATT
  POIN2 Label_4_0142462F
 BYTE   PATT
  POIN2 Label_4_0142462F
 BYTE   PATT
  POIN2 Label_4_0142462F
 BYTE   PATT
  POIN2 Label_4_0142462F
 BYTE   PATT
  POIN2 Label_4_0142462F
 BYTE   PATT
  POIN2 Label_4_0142462F
 BYTE   PATT
  POIN2 Label_4_0142462F
 BYTE   PATT
  POIN2 Label_4_0142462F
// 003   ----------------------------------------
 BYTE   W03
 BYTE   N05  Gn3  v092
 BYTE   W06
 BYTE   Gn3  v100
 BYTE   W06
 BYTE   Gn3  v092
 BYTE   W06
 BYTE   Gn3  v100
 BYTE   W06
 BYTE   Gn3  v092
 BYTE   W06
 BYTE   Gn3  v100
 BYTE   W06
 BYTE   Gn3  v092
 BYTE   W06
 BYTE   Gn3  v100
 BYTE   W06
 BYTE   Gn3  v092
 BYTE   W06
 BYTE   Gn3  v100
 BYTE   W06
 BYTE   Gn3  v092
 BYTE   W06
 BYTE   Gn3  v100
 BYTE   W06
 BYTE   Gn3  v092
 BYTE   W06
 BYTE   Gn3  v100
 BYTE   W06
 BYTE   Gn3  v092
 BYTE   W06
 BYTE   N02  Gn3  v100
 BYTE   W02
 BYTE   FINE

//**************** Track 6 (Midi-Chn.5) ****************//

DancerMusic_006:
// 000   ----------------------------------------
 BYTE   KEYSH   DancerMusic_key+0
Label_5_01424752:
 BYTE   VOICE   42
 BYTE   VOL   80*DancerMusic_mvl/mxv
 BYTE   PAN   c_v+14
 BYTE   N05  Fn3  v104
 BYTE   W06
 BYTE   Cn4  v116
 BYTE   W06
 BYTE   Fn3  v104
 BYTE   W06
 BYTE   Cn4  v116
 BYTE   W06
 BYTE   Fn3  v104
 BYTE   W06
 BYTE   Cn4  v116
 BYTE   W06
 BYTE   Fn3  v104
 BYTE   W06
 BYTE   Cn4  v116
 BYTE   W06
 BYTE   Fn3  v104
 BYTE   W06
 BYTE   Cn4  v116
 BYTE   W06
 BYTE   Fn3  v104
 BYTE   W06
 BYTE   Cn4  v116
 BYTE   W06
 BYTE   Fn3  v104
 BYTE   W06
 BYTE   Cn4  v116
 BYTE   W06
 BYTE   Fn3  v104
 BYTE   W06
 BYTE   Cn4  v116
 BYTE   W06
// 001   ----------------------------------------
 BYTE   GoTo
  POIN2 Label_5_01424752
// 002   ----------------------------------------
Label_5_0142478E:
 BYTE   N05  Fn3  v104
 BYTE   W06
 BYTE   Cn4  v116
 BYTE   W06
 BYTE   Fn3  v104
 BYTE   W06
 BYTE   Cn4  v116
 BYTE   W06
 BYTE   Fn3  v104
 BYTE   W06
 BYTE   Cn4  v116
 BYTE   W06
 BYTE   Fn3  v104
 BYTE   W06
 BYTE   Cn4  v116
 BYTE   W06
 BYTE   Fn3  v104
 BYTE   W06
 BYTE   Cn4  v116
 BYTE   W06
 BYTE   Fn3  v104
 BYTE   W06
 BYTE   Cn4  v116
 BYTE   W06
 BYTE   Fn3  v104
 BYTE   W06
 BYTE   Cn4  v116
 BYTE   W06
 BYTE   Fn3  v104
 BYTE   W06
 BYTE   Cn4  v116
 BYTE   W06
 BYTE   PEND 
 BYTE   PATT
  POIN2 Label_5_0142478E
 BYTE   PATT
  POIN2 Label_5_0142478E
 BYTE   PATT
  POIN2 Label_5_0142478E
 BYTE   PATT
  POIN2 Label_5_0142478E
 BYTE   PATT
  POIN2 Label_5_0142478E
 BYTE   PATT
  POIN2 Label_5_0142478E
 BYTE   PATT
  POIN2 Label_5_0142478E
 BYTE   PATT
  POIN2 Label_5_0142478E
 BYTE   PATT
  POIN2 Label_5_0142478E
 BYTE   PATT
  POIN2 Label_5_0142478E
 BYTE   PATT
  POIN2 Label_5_0142478E
 BYTE   PATT
  POIN2 Label_5_0142478E
 BYTE   PATT
  POIN2 Label_5_0142478E
 BYTE   PATT
  POIN2 Label_5_0142478E
 BYTE   PATT
  POIN2 Label_5_0142478E
 BYTE   PATT
  POIN2 Label_5_0142478E
 BYTE   PATT
  POIN2 Label_5_0142478E
 BYTE   PATT
  POIN2 Label_5_0142478E
 BYTE   PATT
  POIN2 Label_5_0142478E
 BYTE   PATT
  POIN2 Label_5_0142478E
 BYTE   PATT
  POIN2 Label_5_0142478E
 BYTE   PATT
  POIN2 Label_5_0142478E
 BYTE   PATT
  POIN2 Label_5_0142478E
 BYTE   PATT
  POIN2 Label_5_0142478E
 BYTE   PATT
  POIN2 Label_5_0142478E
 BYTE   PATT
  POIN2 Label_5_0142478E
 BYTE   PATT
  POIN2 Label_5_0142478E
 BYTE   PATT
  POIN2 Label_5_0142478E
 BYTE   PATT
  POIN2 Label_5_0142478E
 BYTE   PATT
  POIN2 Label_5_0142478E
 BYTE   PATT
  POIN2 Label_5_0142478E
 BYTE   PATT
  POIN2 Label_5_0142478E
 BYTE   PATT
  POIN2 Label_5_0142478E
 BYTE   PATT
  POIN2 Label_5_0142478E
 BYTE   PATT
  POIN2 Label_5_0142478E
 BYTE   PATT
  POIN2 Label_5_0142478E
 BYTE   PATT
  POIN2 Label_5_0142478E
// 003   ----------------------------------------
 BYTE   N05  Fn3  v104
 BYTE   W06
 BYTE   Cn4  v116
 BYTE   W06
 BYTE   Fn3  v104
 BYTE   W06
 BYTE   Cn4  v116
 BYTE   W06
 BYTE   Fn3  v104
 BYTE   W06
 BYTE   Cn4  v116
 BYTE   W06
 BYTE   Fn3  v104
 BYTE   W06
 BYTE   Cn4  v116
 BYTE   W06
 BYTE   Fn3  v104
 BYTE   W06
 BYTE   Cn4  v116
 BYTE   W06
 BYTE   Fn3  v104
 BYTE   W06
 BYTE   Cn4  v116
 BYTE   W06
 BYTE   Fn3  v104
 BYTE   W06
 BYTE   Cn4  v116
 BYTE   W06
 BYTE   Fn3  v104
 BYTE   W06
 BYTE   Cn4  v116
 BYTE   W05
 BYTE   FINE

//******************************************************//
	ALIGN 4

DancerMusic:
	BYTE	6	// NumTrks
	BYTE	0	// NumBlks
	BYTE	DancerMusic_pri	// Priority
	BYTE	DancerMusic_rev	// Reverb.
    
	POIN2	DancerMusic_grp
    
	POIN2	DancerMusic_001
	POIN2	DancerMusic_002
	POIN2	DancerMusic_003
	POIN2	DancerMusic_004
	POIN2	DancerMusic_005
	POIN2	DancerMusic_006

	
