//Event file generated from Sappy .s format.
	#include "MPlayDef.event"

	#define	DarkWorld_grp  voicegroup000
	#define	DarkWorld_pri  0
	#define	DarkWorld_rev  0
	#define	DarkWorld_mvl  127
	#define	DarkWorld_key  0
	#define	DarkWorld_tbs  1
	#define	DarkWorld_exg  0
	#define	DarkWorld_cmp  1

	// .rodata
	//	DarkWorld
	ALIGN 4


//**************** Track 1 (Midi-Chn.0) ****************//

DarkWorld_001:
//  #01 //000   ----------------------------------------
 BYTE   KEYSH   DarkWorld_key+0
Label_B2D7BA:
 BYTE   TEMPO   164*DarkWorld_tbs/2
 BYTE   VOICE   52
 BYTE   MODT 0
 BYTE   LFOS 44
 BYTE   VOL   49*DarkWorld_mvl/mxv
 BYTE   PAN   c_v+0
 BYTE   BEND   c_v+0
 BYTE   N78  Bn3  v104
 BYTE   W78
 BYTE   N03
 BYTE   W03
 BYTE   Cs4
 BYTE   W03
 BYTE   Dn4
 BYTE   W03
 BYTE   En4
 BYTE   W03
 BYTE   Gn4
 BYTE   W03
 BYTE   An4
 BYTE   W03
//  #01 //001   ----------------------------------------
 BYTE   N96  Bn4
 BYTE   W96
//  #01 //002   ----------------------------------------
Label_B2D7DB:
 BYTE   N48  An4  v104
 BYTE   W48
 BYTE   TIE  En4
 BYTE   W48
 BYTE   PEND 
//  #01 //003   ----------------------------------------
 BYTE   W96
//  #01 //004   ----------------------------------------
 BYTE   EOT
Label_B2D7E5:
 BYTE   N78  Bn3  v104
 BYTE   W78
 BYTE   N03
 BYTE   W03
 BYTE   Cs4
 BYTE   W03
 BYTE   Dn4
 BYTE   W03
 BYTE   En4
 BYTE   W03
 BYTE   Gn4
 BYTE   W03
 BYTE   An4
 BYTE   W03
 BYTE   PEND 
//  #01 //005   ----------------------------------------
 BYTE   N96  Gn4
 BYTE   W96
//  #01 //006   ----------------------------------------
 BYTE   N48  Fs4
 BYTE   W48
 BYTE   TIE  Cs4
 BYTE   W48
//  #01 //007   ----------------------------------------
 BYTE   W96
//  #01 //008   ----------------------------------------
 BYTE   EOT
//  #01 //009   ----------------------------------------
 BYTE   PATT
  POIN2 Label_B2D7E5
//  #01 //010   ----------------------------------------
 BYTE   N96  Bn4  v104
 BYTE   W96
//  #01 //011   ----------------------------------------
 BYTE   PATT
  POIN2 Label_B2D7DB
//  #01 //012   ----------------------------------------
 BYTE   W96
//  #01 //013   ----------------------------------------
 BYTE   EOT
 BYTE   En4
//  #01 //014   ----------------------------------------
 BYTE   PATT
  POIN2 Label_B2D7E5
//  #01 //015   ----------------------------------------
 BYTE   N96  Gn4  v104
 BYTE   W96
//  #01 //016   ----------------------------------------
 BYTE   An3
 BYTE   TIE  Fs4  v080
 BYTE   W96
//  #01 //017   ----------------------------------------
 BYTE   N96  As3  v104
 BYTE   W96
//  #01 //018   ----------------------------------------
 BYTE   EOT
 BYTE   Fs4
 BYTE   W96
//  #01 //019   ----------------------------------------
 BYTE   W96
//  #01 //020   ----------------------------------------
 BYTE   W96
//  #01 //021   ----------------------------------------
 BYTE   W96
//  #01 //022   ----------------------------------------
 BYTE   W96
//  #01 //023   ----------------------------------------
 BYTE   W96
//  #01 //024   ----------------------------------------
 BYTE   W96
//  #01 //025   ----------------------------------------
 BYTE   W96
//  #01 //026   ----------------------------------------
 BYTE   W96
//  #01 //027   ----------------------------------------
 BYTE   W96
//  #01 //028   ----------------------------------------
 BYTE   W96
//  #01 //029   ----------------------------------------
 BYTE   W96
//  #01 //030   ----------------------------------------
 BYTE   W96
//  #01 //031   ----------------------------------------
 BYTE   W96
//  #01 //032   ----------------------------------------
 BYTE   W96
//  #01 //033   ----------------------------------------
 BYTE   W96
//  #01 //034   ----------------------------------------
 BYTE   GoTo
  POIN2 Label_B2D7BA
 BYTE   FINE

//**************** Track 2 (Midi-Chn.1) ****************//

DarkWorld_002:
//  #02 //000   ----------------------------------------
 BYTE   KEYSH   DarkWorld_key+0
Label_E97E3E:
 BYTE   VOICE   56
 BYTE   MODT 0
 BYTE   LFOS 44
 BYTE   PAN   c_v+0
 BYTE   VOL   51*DarkWorld_mvl/mxv
 BYTE   BEND   c_v+0
 BYTE   N78  Bn3  v104
 BYTE   W78
 BYTE   N03  Bn3  v088
 BYTE   W03
 BYTE   Cs4
 BYTE   W03
 BYTE   Dn4
 BYTE   W03
 BYTE   En4
 BYTE   W03
 BYTE   Gn4  v127
 BYTE   W03
 BYTE   An4
 BYTE   W03
//  #02 //001   ----------------------------------------
 BYTE   N96  Bn4
 BYTE   W96
//  #02 //002   ----------------------------------------
Label_E97E60:
 BYTE   N48  An4  v088
 BYTE   W48
 BYTE   TIE  En4
 BYTE   W48
 BYTE   PEND 
//  #02 //003   ----------------------------------------
 BYTE   W96
//  #02 //004   ----------------------------------------
 BYTE   EOT
 BYTE   N78  Bn3  v104
 BYTE   W78
 BYTE   N03  Bn3  v088
 BYTE   W03
 BYTE   Cs4
 BYTE   W03
 BYTE   Dn4
 BYTE   W03
 BYTE   En4
 BYTE   W03
 BYTE   Gn4
 BYTE   W03
 BYTE   An4
 BYTE   W03
//  #02 //005   ----------------------------------------
 BYTE   N96  Gn4  v127
 BYTE   W96
//  #02 //006   ----------------------------------------
 BYTE   N48  Fs4  v088
 BYTE   W48
 BYTE   TIE  Cs4
 BYTE   W48
//  #02 //007   ----------------------------------------
 BYTE   W96
//  #02 //008   ----------------------------------------
 BYTE   EOT
Label_E97E89:
 BYTE   N78  Bn3  v104
 BYTE   W78
 BYTE   N03  Bn3  v088
 BYTE   W03
 BYTE   Cs4
 BYTE   W03
 BYTE   Dn4
 BYTE   W03
 BYTE   En4
 BYTE   W03
 BYTE   Gn4  v127
 BYTE   W03
 BYTE   An4
 BYTE   W03
 BYTE   PEND 
//  #02 //009   ----------------------------------------
 BYTE   N96  Bn4
 BYTE   W96
//  #02 //010   ----------------------------------------
 BYTE   PATT
  POIN2 Label_E97E60
//  #02 //011   ----------------------------------------
 BYTE   W96
//  #02 //012   ----------------------------------------
 BYTE   EOT
 BYTE   En4
//  #02 //013   ----------------------------------------
 BYTE   PATT
  POIN2 Label_E97E89
//  #02 //014   ----------------------------------------
 BYTE   N96  Gn4  v127
 BYTE   W96
//  #02 //015   ----------------------------------------
 BYTE   An3  v088
 BYTE   TIE  Fs4  v104
 BYTE   W96
//  #02 //016   ----------------------------------------
 BYTE   N96  As3  v088
 BYTE   W96
//  #02 //017   ----------------------------------------
 BYTE   EOT
 BYTE   Fs4
 BYTE   W96
//  #02 //018   ----------------------------------------
 BYTE   W96
//  #02 //019   ----------------------------------------
 BYTE   W96
//  #02 //020   ----------------------------------------
 BYTE   W96
//  #02 //021   ----------------------------------------
 BYTE   W96
//  #02 //022   ----------------------------------------
 BYTE   W96
//  #02 //023   ----------------------------------------
 BYTE   W96
//  #02 //024   ----------------------------------------
 BYTE   W96
//  #02 //025   ----------------------------------------
 BYTE   W96
//  #02 //026   ----------------------------------------
 BYTE   W96
//  #02 //027   ----------------------------------------
 BYTE   W96
//  #02 //028   ----------------------------------------
 BYTE   W96
//  #02 //029   ----------------------------------------
 BYTE   W96
//  #02 //030   ----------------------------------------
 BYTE   W96
//  #02 //031   ----------------------------------------
 BYTE   W96
//  #02 //032   ----------------------------------------
 BYTE   W96
//  #02 //033   ----------------------------------------
 BYTE   GoTo
  POIN2 Label_E97E3E
 BYTE   FINE

//**************** Track 3 (Midi-Chn.2) ****************//

DarkWorld_003:
//  #03 //000   ----------------------------------------
 BYTE   KEYSH   DarkWorld_key+0
Label_206CA2:
 BYTE   VOICE   19
 BYTE   MODT 0
 BYTE   LFOS 44
 BYTE   PAN   c_v+0
 BYTE   VOL   33*DarkWorld_mvl/mxv
 BYTE   BEND   c_v+0
 BYTE   N06  Bn2  v116
 BYTE   W08
 BYTE   Dn3  v088
 BYTE   W08
 BYTE   Fs3
 BYTE   W08
 BYTE   Bn2  v116
 BYTE   W08
 BYTE   Dn3  v088
 BYTE   W08
 BYTE   Fs3
 BYTE   W08
 BYTE   Bn2  v116
 BYTE   W08
 BYTE   Dn3  v088
 BYTE   W08
 BYTE   Fs3
 BYTE   W08
 BYTE   Bn2  v116
 BYTE   W08
 BYTE   Dn3  v088
 BYTE   W08
 BYTE   Fs3
 BYTE   W08
//  #03 //001   ----------------------------------------
Label_206CCF:
 BYTE   N06  Bn2  v116
 BYTE   W08
 BYTE   Dn3  v088
 BYTE   W08
 BYTE   Fs3
 BYTE   W08
 BYTE   Bn2  v116
 BYTE   W08
 BYTE   Dn3  v088
 BYTE   W08
 BYTE   Fs3
 BYTE   W08
 BYTE   Bn2  v116
 BYTE   W08
 BYTE   Dn3  v088
 BYTE   W08
 BYTE   Fs3
 BYTE   W08
 BYTE   Bn2  v116
 BYTE   W08
 BYTE   Dn3  v088
 BYTE   W08
 BYTE   Fs3
 BYTE   W08
 BYTE   PEND 
//  #03 //002   ----------------------------------------
Label_206CF1:
 BYTE   N06  An2  v116
 BYTE   W08
 BYTE   Cs3  v088
 BYTE   W08
 BYTE   En3
 BYTE   W08
 BYTE   An2  v116
 BYTE   W08
 BYTE   Cs3  v088
 BYTE   W08
 BYTE   En3
 BYTE   W08
 BYTE   An2  v116
 BYTE   W08
 BYTE   Cs3  v088
 BYTE   W08
 BYTE   En3
 BYTE   W08
 BYTE   An2  v116
 BYTE   W08
 BYTE   Cs3  v088
 BYTE   W08
 BYTE   En3
 BYTE   W08
 BYTE   PEND 
//  #03 //003   ----------------------------------------
 BYTE   PATT
  POIN2 Label_206CF1
//  #03 //004   ----------------------------------------
Label_206D18:
 BYTE   N06  Gn2  v116
 BYTE   W08
 BYTE   Bn2  v088
 BYTE   W08
 BYTE   Dn3
 BYTE   W08
 BYTE   Gn2  v116
 BYTE   W08
 BYTE   Bn2  v088
 BYTE   W08
 BYTE   Dn3
 BYTE   W08
 BYTE   Gn2  v116
 BYTE   W08
 BYTE   Bn2  v088
 BYTE   W08
 BYTE   Dn3
 BYTE   W08
 BYTE   Gn2  v116
 BYTE   W08
 BYTE   Bn2  v088
 BYTE   W08
 BYTE   Dn3
 BYTE   W08
 BYTE   PEND 
//  #03 //005   ----------------------------------------
 BYTE   PATT
  POIN2 Label_206D18
//  #03 //006   ----------------------------------------
Label_206D3F:
 BYTE   N06  Fs2  v116
 BYTE   W08
 BYTE   An2  v088
 BYTE   W08
 BYTE   Cs3
 BYTE   W08
 BYTE   Fs2  v116
 BYTE   W08
 BYTE   An2  v088
 BYTE   W08
 BYTE   Cs3
 BYTE   W08
 BYTE   Fs2  v116
 BYTE   W08
 BYTE   An2  v088
 BYTE   W08
 BYTE   Cs3
 BYTE   W08
 BYTE   Fs2  v116
 BYTE   W08
 BYTE   An2  v088
 BYTE   W08
 BYTE   Cs3
 BYTE   W08
 BYTE   PEND 
//  #03 //007   ----------------------------------------
 BYTE   En2  v116
 BYTE   W08
 BYTE   As2  v088
 BYTE   W08
 BYTE   Cs3
 BYTE   W08
 BYTE   En2  v116
 BYTE   W08
 BYTE   As2  v088
 BYTE   W08
 BYTE   Cs3
 BYTE   W08
 BYTE   En2  v116
 BYTE   W08
 BYTE   As2  v088
 BYTE   W08
 BYTE   Cs3  v116
 BYTE   W08
 BYTE   En3
 BYTE   W08
 BYTE   Dn3
 BYTE   W08
 BYTE   Cs3
 BYTE   W08
//  #03 //008   ----------------------------------------
 BYTE   PATT
  POIN2 Label_206CCF
//  #03 //009   ----------------------------------------
 BYTE   PATT
  POIN2 Label_206CCF
//  #03 //010   ----------------------------------------
 BYTE   PATT
  POIN2 Label_206CF1
//  #03 //011   ----------------------------------------
 BYTE   PATT
  POIN2 Label_206CF1
//  #03 //012   ----------------------------------------
 BYTE   PATT
  POIN2 Label_206D18
//  #03 //013   ----------------------------------------
 BYTE   PATT
  POIN2 Label_206D18
//  #03 //014   ----------------------------------------
 BYTE   PATT
  POIN2 Label_206D3F
//  #03 //015   ----------------------------------------
 BYTE   N19  En3  v088
 BYTE   W24
 BYTE   Dn3
 BYTE   W24
 BYTE   Cs3  v127
 BYTE   W24
 BYTE   As2
 BYTE   W24
//  #03 //016   ----------------------------------------
 BYTE   W96
//  #03 //017   ----------------------------------------
 BYTE   W96
//  #03 //018   ----------------------------------------
 BYTE   W96
//  #03 //019   ----------------------------------------
 BYTE   W96
//  #03 //020   ----------------------------------------
 BYTE   W96
//  #03 //021   ----------------------------------------
 BYTE   W96
//  #03 //022   ----------------------------------------
 BYTE   W96
//  #03 //023   ----------------------------------------
 BYTE   W96
//  #03 //024   ----------------------------------------
 BYTE   W96
//  #03 //025   ----------------------------------------
 BYTE   W96
//  #03 //026   ----------------------------------------
 BYTE   W96
//  #03 //027   ----------------------------------------
 BYTE   W96
//  #03 //028   ----------------------------------------
 BYTE   W96
//  #03 //029   ----------------------------------------
 BYTE   W96
//  #03 //030   ----------------------------------------
 BYTE   W96
//  #03 //031   ----------------------------------------
 BYTE   W96
//  #03 //032   ----------------------------------------
 BYTE   GoTo
  POIN2 Label_206CA2
 BYTE   FINE

//**************** Track 4 (Midi-Chn.3) ****************//

DarkWorld_004:
//  #04 //000   ----------------------------------------
 BYTE   KEYSH   DarkWorld_key+0
Label_3C8E3A:
 BYTE   VOICE   11
 BYTE   MODT 0
 BYTE   LFOS 44
 BYTE   VOL   33*DarkWorld_mvl/mxv
 BYTE   PAN   c_v+0
 BYTE   BEND   c_v+0
 BYTE   N06  Bn2  v116
 BYTE   W08
 BYTE   Dn3  v088
 BYTE   W08
 BYTE   Fs3
 BYTE   W08
 BYTE   Bn2  v116
 BYTE   W08
 BYTE   Dn3  v088
 BYTE   W08
 BYTE   Fs3
 BYTE   W08
 BYTE   Bn2  v116
 BYTE   W08
 BYTE   Dn3  v088
 BYTE   W08
 BYTE   Fs3
 BYTE   W08
 BYTE   Bn2  v116
 BYTE   W08
 BYTE   Dn3  v088
 BYTE   W08
 BYTE   Fs3
 BYTE   W08
//  #04 //001   ----------------------------------------
Label_3C8E67:
 BYTE   N06  Bn2  v116
 BYTE   W08
 BYTE   Dn3  v088
 BYTE   W08
 BYTE   Fs3
 BYTE   W08
 BYTE   Bn2  v116
 BYTE   W08
 BYTE   Dn3  v088
 BYTE   W08
 BYTE   Fs3
 BYTE   W08
 BYTE   Bn2  v116
 BYTE   W08
 BYTE   Dn3  v088
 BYTE   W08
 BYTE   Fs3
 BYTE   W08
 BYTE   Bn2  v116
 BYTE   W08
 BYTE   Dn3  v088
 BYTE   W08
 BYTE   Fs3
 BYTE   W08
 BYTE   PEND 
//  #04 //002   ----------------------------------------
Label_3C8E89:
 BYTE   N06  An2  v116
 BYTE   W08
 BYTE   Cs3  v088
 BYTE   W08
 BYTE   En3
 BYTE   W08
 BYTE   An2  v116
 BYTE   W08
 BYTE   Cs3  v088
 BYTE   W08
 BYTE   En3
 BYTE   W08
 BYTE   An2  v116
 BYTE   W08
 BYTE   Cs3  v088
 BYTE   W08
 BYTE   En3
 BYTE   W08
 BYTE   An2  v116
 BYTE   W08
 BYTE   Cs3  v088
 BYTE   W08
 BYTE   En3
 BYTE   W08
 BYTE   PEND 
//  #04 //003   ----------------------------------------
 BYTE   PATT
  POIN2 Label_3C8E89
//  #04 //004   ----------------------------------------
Label_3C8EB0:
 BYTE   N06  Gn2  v116
 BYTE   W08
 BYTE   Bn2  v088
 BYTE   W08
 BYTE   Dn3
 BYTE   W08
 BYTE   Gn2  v116
 BYTE   W08
 BYTE   Bn2  v088
 BYTE   W08
 BYTE   Dn3
 BYTE   W08
 BYTE   Gn2  v116
 BYTE   W08
 BYTE   Bn2  v088
 BYTE   W08
 BYTE   Dn3
 BYTE   W08
 BYTE   Gn2  v116
 BYTE   W08
 BYTE   Bn2  v088
 BYTE   W08
 BYTE   Dn3
 BYTE   W08
 BYTE   PEND 
//  #04 //005   ----------------------------------------
 BYTE   PATT
  POIN2 Label_3C8EB0
//  #04 //006   ----------------------------------------
Label_3C8ED7:
 BYTE   N06  Fs2  v116
 BYTE   W08
 BYTE   An2  v088
 BYTE   W08
 BYTE   Cs3
 BYTE   W08
 BYTE   Fs2  v116
 BYTE   W08
 BYTE   An2  v088
 BYTE   W08
 BYTE   Cs3
 BYTE   W08
 BYTE   Fs2  v116
 BYTE   W08
 BYTE   An2  v088
 BYTE   W08
 BYTE   Cs3
 BYTE   W08
 BYTE   Fs2  v116
 BYTE   W08
 BYTE   An2  v088
 BYTE   W08
 BYTE   Cs3
 BYTE   W08
 BYTE   PEND 
//  #04 //007   ----------------------------------------
 BYTE   En2  v116
 BYTE   W08
 BYTE   As2  v088
 BYTE   W08
 BYTE   Cs3
 BYTE   W08
 BYTE   En2  v116
 BYTE   W08
 BYTE   As2  v088
 BYTE   W08
 BYTE   Cs3
 BYTE   W08
 BYTE   En2  v116
 BYTE   W08
 BYTE   As2  v088
 BYTE   W08
 BYTE   Cs3  v116
 BYTE   W08
 BYTE   En3
 BYTE   W08
 BYTE   Dn3
 BYTE   W08
 BYTE   Cs3
 BYTE   W08
//  #04 //008   ----------------------------------------
 BYTE   PATT
  POIN2 Label_3C8E67
//  #04 //009   ----------------------------------------
 BYTE   PATT
  POIN2 Label_3C8E67
//  #04 //010   ----------------------------------------
 BYTE   PATT
  POIN2 Label_3C8E89
//  #04 //011   ----------------------------------------
 BYTE   PATT
  POIN2 Label_3C8E89
//  #04 //012   ----------------------------------------
 BYTE   PATT
  POIN2 Label_3C8EB0
//  #04 //013   ----------------------------------------
 BYTE   PATT
  POIN2 Label_3C8EB0
//  #04 //014   ----------------------------------------
 BYTE   PATT
  POIN2 Label_3C8ED7
//  #04 //015   ----------------------------------------
 BYTE   N19  En3  v088
 BYTE   W24
 BYTE   Dn3
 BYTE   W24
 BYTE   Cs3  v127
 BYTE   W24
 BYTE   As2
 BYTE   W24
//  #04 //016   ----------------------------------------
 BYTE   W96
//  #04 //017   ----------------------------------------
 BYTE   W96
//  #04 //018   ----------------------------------------
 BYTE   W96
//  #04 //019   ----------------------------------------
 BYTE   W96
//  #04 //020   ----------------------------------------
 BYTE   W96
//  #04 //021   ----------------------------------------
 BYTE   W96
//  #04 //022   ----------------------------------------
 BYTE   W96
//  #04 //023   ----------------------------------------
 BYTE   W96
//  #04 //024   ----------------------------------------
 BYTE   W96
//  #04 //025   ----------------------------------------
 BYTE   W96
//  #04 //026   ----------------------------------------
 BYTE   W96
//  #04 //027   ----------------------------------------
 BYTE   W96
//  #04 //028   ----------------------------------------
 BYTE   W96
//  #04 //029   ----------------------------------------
 BYTE   W96
//  #04 //030   ----------------------------------------
 BYTE   W96
//  #04 //031   ----------------------------------------
 BYTE   W96
//  #04 //032   ----------------------------------------
 BYTE   GoTo
  POIN2 Label_3C8E3A
 BYTE   FINE

//**************** Track 5 (Midi-Chn.4) ****************//

DarkWorld_005:
//  #05 //000   ----------------------------------------
 BYTE   KEYSH   DarkWorld_key+0
Label_2F3DF6:
 BYTE   VOICE   36
 BYTE   MODT 0
 BYTE   LFOS 44
 BYTE   PAN   c_v+0
 BYTE   VOL   39*DarkWorld_mvl/mxv
 BYTE   BEND   c_v+0
 BYTE   TIE  Bn1  v104
 BYTE   W96
//  #05 //001   ----------------------------------------
 BYTE   W96
//  #05 //002   ----------------------------------------
 BYTE   EOT
 BYTE   N96  An1
 BYTE   W96
//  #05 //003   ----------------------------------------
 BYTE   N96
 BYTE   W96
//  #05 //004   ----------------------------------------
 BYTE   TIE  Gn1
 BYTE   W96
//  #05 //005   ----------------------------------------
 BYTE   W96
//  #05 //006   ----------------------------------------
 BYTE   EOT
 BYTE   N96  Fs1
 BYTE   W96
//  #05 //007   ----------------------------------------
 BYTE   N72  En1
 BYTE   W60
 BYTE   N12  Dn1
 BYTE   W12
 BYTE   Cs1
 BYTE   W12
 BYTE   As0
 BYTE   W12
//  #05 //008   ----------------------------------------
 BYTE   TIE  Bn1
 BYTE   W96
//  #05 //009   ----------------------------------------
 BYTE   W96
//  #05 //010   ----------------------------------------
 BYTE   EOT
 BYTE   N96  An1
 BYTE   W96
//  #05 //011   ----------------------------------------
 BYTE   N96
 BYTE   W96
//  #05 //012   ----------------------------------------
 BYTE   TIE  Gn1
 BYTE   W96
//  #05 //013   ----------------------------------------
 BYTE   W96
//  #05 //014   ----------------------------------------
 BYTE   EOT
 BYTE   N42  Fs1
 BYTE   W48
 BYTE   Fs1  v116
 BYTE   W48
//  #05 //015   ----------------------------------------
 BYTE   N21  En1  v104
 BYTE   W24
 BYTE   Dn1
 BYTE   W24
 BYTE   Cs1
 BYTE   W24
 BYTE   As0  v116
 BYTE   W24
//  #05 //016   ----------------------------------------
Label_2F3E3F:
 BYTE   N09  Gn1  v104
 BYTE   W12
 BYTE   N09
 BYTE   W24
 BYTE   Dn1
 BYTE   W12
 BYTE   Gn1
 BYTE   W12
 BYTE   N09
 BYTE   W24
 BYTE   Dn1
 BYTE   W12
 BYTE   PEND 
//  #05 //017   ----------------------------------------
 BYTE   PATT
  POIN2 Label_2F3E3F
//  #05 //018   ----------------------------------------
Label_2F3E53:
 BYTE   N09  An1  v104
 BYTE   W12
 BYTE   N09
 BYTE   W24
 BYTE   En1
 BYTE   W12
 BYTE   An1
 BYTE   W12
 BYTE   N09
 BYTE   W24
 BYTE   En1
 BYTE   W12
 BYTE   PEND 
//  #05 //019   ----------------------------------------
 BYTE   PATT
  POIN2 Label_2F3E53
//  #05 //020   ----------------------------------------
Label_2F3E67:
 BYTE   N09  Fs1  v104
 BYTE   W12
 BYTE   N09
 BYTE   W24
 BYTE   Cs1
 BYTE   W12
 BYTE   Fs1
 BYTE   W12
 BYTE   N09
 BYTE   W24
 BYTE   Cs1
 BYTE   W12
 BYTE   PEND 
//  #05 //021   ----------------------------------------
 BYTE   PATT
  POIN2 Label_2F3E67
//  #05 //022   ----------------------------------------
 BYTE   PATT
  POIN2 Label_2F3E3F
//  #05 //023   ----------------------------------------
 BYTE   N09  Gn1  v104
 BYTE   W12
 BYTE   N09
 BYTE   W24
 BYTE   Dn1
 BYTE   W12
 BYTE   N19  Gn0
 BYTE   W24
 BYTE   An0
 BYTE   W24
//  #05 //024   ----------------------------------------
Label_2F3E8D:
 BYTE   N09  Bn0  v104
 BYTE   W12
 BYTE   Fs1
 BYTE   W12
 BYTE   Bn0
 BYTE   W12
 BYTE   Fs1
 BYTE   W12
 BYTE   Bn0
 BYTE   W12
 BYTE   Fs1
 BYTE   W12
 BYTE   Bn0
 BYTE   W12
 BYTE   Fs1
 BYTE   W12
 BYTE   PEND 
//  #05 //025   ----------------------------------------
Label_2F3EA0:
 BYTE   N09  An0  v104
 BYTE   W12
 BYTE   En1
 BYTE   W12
 BYTE   An0
 BYTE   W12
 BYTE   En1
 BYTE   W12
 BYTE   An0
 BYTE   W12
 BYTE   En1
 BYTE   W12
 BYTE   An0
 BYTE   W12
 BYTE   En1
 BYTE   W12
 BYTE   PEND 
//  #05 //026   ----------------------------------------
 BYTE   Gn0
 BYTE   W12
 BYTE   Dn1
 BYTE   W12
 BYTE   Gn0
 BYTE   W12
 BYTE   Dn1
 BYTE   W12
 BYTE   Gn0
 BYTE   W12
 BYTE   Dn1
 BYTE   W12
 BYTE   Gn0
 BYTE   W12
 BYTE   Dn1
 BYTE   W12
//  #05 //027   ----------------------------------------
 BYTE   Gn0
 BYTE   W12
 BYTE   Dn1
 BYTE   W12
 BYTE   Gn0
 BYTE   W12
 BYTE   Dn1
 BYTE   W12
 BYTE   N19  Gn0
 BYTE   W24
 BYTE   An0
 BYTE   W24
//  #05 //028   ----------------------------------------
 BYTE   PATT
  POIN2 Label_2F3E8D
//  #05 //029   ----------------------------------------
 BYTE   PATT
  POIN2 Label_2F3EA0
//  #05 //030   ----------------------------------------
 BYTE   N09  Cn1  v104
 BYTE   W12
 BYTE   N09
 BYTE   W24
 BYTE   N09
 BYTE   W12
 BYTE   N09
 BYTE   W12
 BYTE   N09
 BYTE   W24
 BYTE   N09
 BYTE   W12
//  #05 //031   ----------------------------------------
 BYTE   Fs1
 BYTE   W12
 BYTE   N09
 BYTE   W12
 BYTE   En1
 BYTE   W12
 BYTE   N09
 BYTE   W12
 BYTE   Dn1
 BYTE   W12
 BYTE   N09
 BYTE   W12
 BYTE   Cs1
 BYTE   W12
 BYTE   N09
 BYTE   W12
//  #05 //032   ----------------------------------------
 BYTE   GoTo
  POIN2 Label_2F3DF6
 BYTE   FINE

//**************** Track 6 (Midi-Chn.5) ****************//

DarkWorld_006:
//  #06 //000   ----------------------------------------
 BYTE   KEYSH   DarkWorld_key+0
Label_31512E:
 BYTE   VOICE   30
 BYTE   MODT 0
 BYTE   LFOS 44
 BYTE   PAN   c_v+0
 BYTE   VOL   39*DarkWorld_mvl/mxv
 BYTE   BEND   c_v+0
 BYTE   W96
//  #06 //001   ----------------------------------------
 BYTE   W96
//  #06 //002   ----------------------------------------
 BYTE   W96
//  #06 //003   ----------------------------------------
 BYTE   W96
//  #06 //004   ----------------------------------------
 BYTE   W96
//  #06 //005   ----------------------------------------
 BYTE   W96
//  #06 //006   ----------------------------------------
 BYTE   W96
//  #06 //007   ----------------------------------------
 BYTE   W96
//  #06 //008   ----------------------------------------
 BYTE   W96
//  #06 //009   ----------------------------------------
 BYTE   W96
//  #06 //010   ----------------------------------------
 BYTE   W96
//  #06 //011   ----------------------------------------
 BYTE   W96
//  #06 //012   ----------------------------------------
 BYTE   W96
//  #06 //013   ----------------------------------------
 BYTE   W96
//  #06 //014   ----------------------------------------
 BYTE   W96
//  #06 //015   ----------------------------------------
 BYTE   W48
 BYTE   N06  An3  v080
 BYTE   W06
 BYTE   Bn3
 BYTE   W06
 BYTE   Cs4
 BYTE   W06
 BYTE   Dn4  v104
 BYTE   W06
 BYTE   En4
 BYTE   W06
 BYTE   Fs4  v127
 BYTE   W06
 BYTE   Gn4
 BYTE   W06
 BYTE   An4
 BYTE   W06
//  #06 //016   ----------------------------------------
 BYTE   N96  Dn4  v104
 BYTE   N96  Bn4  v116
 BYTE   W96
//  #06 //017   ----------------------------------------
 BYTE   N48  Bn3  v104
 BYTE   N48  Gn4
 BYTE   W48
 BYTE   Dn4  v116
 BYTE   N48  Bn4
 BYTE   W48
//  #06 //018   ----------------------------------------
 BYTE   N09  En4  v104
 BYTE   N09  Cs5
 BYTE   W12
 BYTE   Dn5
 BYTE   W12
 BYTE   N24  En4  v080
 BYTE   N24  Cs5
 BYTE   W24
 BYTE   TIE  Cs4  v104
 BYTE   TIE  An4
 BYTE   W48
//  #06 //019   ----------------------------------------
 BYTE   MOD 1
 BYTE   W96
//  #06 //020   ----------------------------------------
 BYTE   EOT
 BYTE   Cs4  v081
 BYTE   MOD 0
 BYTE   N96  Cs4
 BYTE   N96  An4
 BYTE   W96
//  #06 //021   ----------------------------------------
 BYTE   N48  An3  v088
 BYTE   N48  Fs4
 BYTE   W48
 BYTE   Cs4  v116
 BYTE   N48  An4
 BYTE   W48
//  #06 //022   ----------------------------------------
 BYTE   N24  Bn3  v080
 BYTE   N24  Gn4
 BYTE   W24
 BYTE   N07  Fs4  v127
 BYTE   W12
 BYTE   TIE  Bn3  v104
 BYTE   TIE  Dn4
 BYTE   W60
//  #06 //023   ----------------------------------------
 BYTE   W48
 BYTE   EOT
 BYTE   Bn3  v074
 BYTE   N19  Bn3  v116
 BYTE   N19  Dn4
 BYTE   W12
 BYTE   BEND   c_v+0
 BYTE   W12
 BYTE   N19  Cs4
 BYTE   N19  En4
 BYTE   W24
//  #06 //024   ----------------------------------------
 BYTE   BEND   c_v+0
 BYTE   N96  Dn4
 BYTE   N96  Fs4
 BYTE   W96
//  #06 //025   ----------------------------------------
 BYTE   N24  Cs4  v104
 BYTE   N24  En4
 BYTE   W24
 BYTE   Dn4
 BYTE   W24
 BYTE   Cs4  v127
 BYTE   W24
 BYTE   An3
 BYTE   W24
//  #06 //026   ----------------------------------------
 BYTE   TIE  Gn3  v104
 BYTE   TIE  Bn3
 BYTE   W96
//  #06 //027   ----------------------------------------
 BYTE   W48
 BYTE   EOT
 BYTE   Gn3  v071
 BYTE   N19  Bn3  v116
 BYTE   N19  Dn4
 BYTE   W24
 BYTE   Cs4
 BYTE   N19  En4
 BYTE   W24
//  #06 //028   ----------------------------------------
 BYTE   N96  Dn4
 BYTE   N96  Fs4
 BYTE   W96
//  #06 //029   ----------------------------------------
 BYTE   N24  Cs4  v104
 BYTE   N24  En4
 BYTE   W24
 BYTE   Dn4
 BYTE   W24
 BYTE   An3  v127
 BYTE   N24  Cs4
 BYTE   W24
 BYTE   Fs3
 BYTE   N24  An3
 BYTE   W24
//  #06 //030   ----------------------------------------
 BYTE   N96  Gn3
 BYTE   N96  Bn3
 BYTE   N01  En4
 BYTE   N01  Gn4
 BYTE   N01  Bn4
 BYTE   W96
//  #06 //031   ----------------------------------------
 BYTE   N96  Fs3  v116
 BYTE   N96  As3
 BYTE   N01  Fs4  v104
 BYTE   N01  Gn4
 BYTE   N01  As4
 BYTE   W96
//  #06 //032   ----------------------------------------
 BYTE   GoTo
  POIN2 Label_31512E
 BYTE   FINE

//**************** Track 7 (Midi-Chn.6) ****************//

DarkWorld_007:
//  #07 //000   ----------------------------------------
 BYTE   KEYSH   DarkWorld_key+0
Label_7D71FA:
 BYTE   VOICE   85
 BYTE   MODT 0
 BYTE   LFOS 44
 BYTE   PAN   c_v+0
 BYTE   VOL   20*DarkWorld_mvl/mxv
 BYTE   MOD 0
 BYTE   VOL   20*DarkWorld_mvl/mxv
 BYTE   BEND   c_v+0
 BYTE   W96
//  #07 //001   ----------------------------------------
 BYTE   W96
//  #07 //002   ----------------------------------------
 BYTE   W96
//  #07 //003   ----------------------------------------
 BYTE   W96
//  #07 //004   ----------------------------------------
 BYTE   W96
//  #07 //005   ----------------------------------------
 BYTE   W96
//  #07 //006   ----------------------------------------
 BYTE   W96
//  #07 //007   ----------------------------------------
 BYTE   W96
//  #07 //008   ----------------------------------------
 BYTE   W96
//  #07 //009   ----------------------------------------
 BYTE   W96
//  #07 //010   ----------------------------------------
 BYTE   W96
//  #07 //011   ----------------------------------------
 BYTE   W96
//  #07 //012   ----------------------------------------
 BYTE   W96
//  #07 //013   ----------------------------------------
 BYTE   W96
//  #07 //014   ----------------------------------------
 BYTE   W96
//  #07 //015   ----------------------------------------
 BYTE   W48
 BYTE   N06  An2  v080
 BYTE   W06
 BYTE   Bn2
 BYTE   W06
 BYTE   Cs3
 BYTE   W06
 BYTE   Dn3  v104
 BYTE   W06
 BYTE   En3
 BYTE   W06
 BYTE   Fs3
 BYTE   W06
 BYTE   Gn3
 BYTE   W06
 BYTE   An3
 BYTE   W06
//  #07 //016   ----------------------------------------
Label_7D722D:
 BYTE   N12  Bn3  v080
 BYTE   W12
 BYTE   N09  Gn3
 BYTE   W12
 BYTE   N12  An3
 BYTE   W12
 BYTE   N09  Gn3
 BYTE   W12
 BYTE   N12  Bn3
 BYTE   W12
 BYTE   N09  Gn3
 BYTE   W12
 BYTE   N12  An3
 BYTE   W12
 BYTE   N09  Gn3
 BYTE   W12
 BYTE   PEND 
//  #07 //017   ----------------------------------------
 BYTE   PATT
  POIN2 Label_7D722D
//  #07 //018   ----------------------------------------
Label_7D724C:
 BYTE   N12  Cs4  v080
 BYTE   W12
 BYTE   N09  An3
 BYTE   W12
 BYTE   N12  Bn3
 BYTE   W12
 BYTE   N09  An3
 BYTE   W12
 BYTE   N12  Cs4
 BYTE   W12
 BYTE   N09  An3
 BYTE   W12
 BYTE   N12  Bn3
 BYTE   W12
 BYTE   N09  An3
 BYTE   W12
 BYTE   PEND 
//  #07 //019   ----------------------------------------
 BYTE   PATT
  POIN2 Label_7D724C
//  #07 //020   ----------------------------------------
Label_7D726B:
 BYTE   N12  An3  v080
 BYTE   W12
 BYTE   N09  Fs3
 BYTE   W12
 BYTE   N12  Gs3
 BYTE   W12
 BYTE   N09  Fs3
 BYTE   W12
 BYTE   N12  An3
 BYTE   W12
 BYTE   N09  Fs3
 BYTE   W12
 BYTE   N12  Gs3
 BYTE   W12
 BYTE   N09  Fs3
 BYTE   W12
 BYTE   PEND 
//  #07 //021   ----------------------------------------
 BYTE   PATT
  POIN2 Label_7D726B
//  #07 //022   ----------------------------------------
 BYTE   PATT
  POIN2 Label_7D722D
//  #07 //023   ----------------------------------------
 BYTE   N12  Bn3  v080
 BYTE   W12
 BYTE   N09  Gn3
 BYTE   W12
 BYTE   N12  An3
 BYTE   W12
 BYTE   N09  Gn3  v104
 BYTE   W12
 BYTE   N06  Bn3
 BYTE   W06
 BYTE   Gn3
 BYTE   W06
 BYTE   Dn3
 BYTE   W06
 BYTE   Gn3
 BYTE   W06
 BYTE   Cs4
 BYTE   W06
 BYTE   An3
 BYTE   W06
 BYTE   En3
 BYTE   W06
 BYTE   An3
 BYTE   W06
//  #07 //024   ----------------------------------------
Label_7D72AE:
 BYTE   N06  Bn3  v104
 BYTE   W06
 BYTE   Dn3
 BYTE   W06
 BYTE   Fs3
 BYTE   W06
 BYTE   Dn3
 BYTE   W06
 BYTE   Bn3
 BYTE   W06
 BYTE   Dn3
 BYTE   W06
 BYTE   Fs3
 BYTE   W06
 BYTE   Dn3
 BYTE   W06
 BYTE   Bn3
 BYTE   W06
 BYTE   Dn3
 BYTE   W06
 BYTE   Fs3
 BYTE   W06
 BYTE   Dn3
 BYTE   W06
 BYTE   Bn3
 BYTE   W06
 BYTE   Dn3
 BYTE   W06
 BYTE   Fs3
 BYTE   W06
 BYTE   Dn3
 BYTE   W06
 BYTE   PEND 
//  #07 //025   ----------------------------------------
Label_7D72D1:
 BYTE   N06  An3  v104
 BYTE   W06
 BYTE   Cs3
 BYTE   W06
 BYTE   En3
 BYTE   W06
 BYTE   Cs3
 BYTE   W06
 BYTE   An3
 BYTE   W06
 BYTE   Cs3
 BYTE   W06
 BYTE   En3
 BYTE   W06
 BYTE   Cs3
 BYTE   W06
 BYTE   An3
 BYTE   W06
 BYTE   Cs3
 BYTE   W06
 BYTE   En3
 BYTE   W06
 BYTE   Cs3
 BYTE   W06
 BYTE   An3
 BYTE   W06
 BYTE   Cs3
 BYTE   W06
 BYTE   En3
 BYTE   W06
 BYTE   Cs3
 BYTE   W06
 BYTE   PEND 
//  #07 //026   ----------------------------------------
Label_7D72F4:
 BYTE   N06  Gn3  v104
 BYTE   W06
 BYTE   Dn3
 BYTE   W06
 BYTE   Bn2
 BYTE   W06
 BYTE   Dn3
 BYTE   W06
 BYTE   Gn3
 BYTE   W06
 BYTE   Dn3
 BYTE   W06
 BYTE   Bn2
 BYTE   W06
 BYTE   Dn3
 BYTE   W06
 BYTE   Gn3
 BYTE   W06
 BYTE   Dn3
 BYTE   W06
 BYTE   Bn2
 BYTE   W06
 BYTE   Dn3
 BYTE   W06
 BYTE   Gn3
 BYTE   W06
 BYTE   Dn3
 BYTE   W06
 BYTE   Bn2
 BYTE   W06
 BYTE   Dn3
 BYTE   W06
 BYTE   PEND 
//  #07 //027   ----------------------------------------
 BYTE   Gn3
 BYTE   W06
 BYTE   Dn3
 BYTE   W06
 BYTE   Bn2
 BYTE   W06
 BYTE   Dn3
 BYTE   W06
 BYTE   Gn3
 BYTE   W06
 BYTE   Dn3
 BYTE   W06
 BYTE   Bn2
 BYTE   W06
 BYTE   Dn3
 BYTE   W06
 BYTE   Gn3
 BYTE   W06
 BYTE   Dn3
 BYTE   W06
 BYTE   Bn2
 BYTE   W06
 BYTE   Dn3
 BYTE   W06
 BYTE   An3
 BYTE   W06
 BYTE   En3
 BYTE   W06
 BYTE   Cs3
 BYTE   W06
 BYTE   En3
 BYTE   W06
//  #07 //028   ----------------------------------------
 BYTE   PATT
  POIN2 Label_7D72AE
//  #07 //029   ----------------------------------------
 BYTE   PATT
  POIN2 Label_7D72D1
//  #07 //030   ----------------------------------------
 BYTE   PATT
  POIN2 Label_7D72F4
//  #07 //031   ----------------------------------------
 BYTE   N06  Fs3  v104
 BYTE   W06
 BYTE   As2
 BYTE   W06
 BYTE   Cs3
 BYTE   W06
 BYTE   Fs3
 BYTE   W06
 BYTE   N06
 BYTE   W06
 BYTE   As2
 BYTE   W06
 BYTE   Cs3
 BYTE   W06
 BYTE   Fs3
 BYTE   W06
 BYTE   As3
 BYTE   W06
 BYTE   Cs3
 BYTE   W06
 BYTE   Fs3  v127
 BYTE   W06
 BYTE   As3
 BYTE   W06
 BYTE   N03  Cs4
 BYTE   W03
 BYTE   Fs3
 BYTE   W03
 BYTE   As3
 BYTE   W03
 BYTE   Cs4
 BYTE   W03
 BYTE   Fs4
 BYTE   W03
 BYTE   As3
 BYTE   W03
 BYTE   Cs4
 BYTE   W03
 BYTE   Fs4
 BYTE   W03
//  #07 //032   ----------------------------------------
 BYTE   GoTo
  POIN2 Label_7D71FA
 BYTE   FINE

//**************** Track 8 (Midi-Chn.7) ****************//

DarkWorld_008:
//  #08 //000   ----------------------------------------
 BYTE   KEYSH   DarkWorld_key+0
Label_9CA57E:
 BYTE   VOICE   124
 BYTE   MODT 0
 BYTE   LFOS 44
 BYTE   PAN   c_v+0
 BYTE   VOL   46*DarkWorld_mvl/mxv
 BYTE   MOD 0
 BYTE   VOL   46*DarkWorld_mvl/mxv
 BYTE   BEND   c_v+0
 BYTE   N24  An2  v088
 BYTE   W96
//  #08 //001   ----------------------------------------
 BYTE   W96
//  #08 //002   ----------------------------------------
 BYTE   N24
 BYTE   W96
//  #08 //003   ----------------------------------------
 BYTE   Cn1  v104
 BYTE   W96
//  #08 //004   ----------------------------------------
 BYTE   An2  v088
 BYTE   W96
//  #08 //005   ----------------------------------------
 BYTE   W96
//  #08 //006   ----------------------------------------
 BYTE   N24
 BYTE   W96
//  #08 //007   ----------------------------------------
 BYTE   Cn1  v104
 BYTE   N24  Bn2  v088
 BYTE   W60
 BYTE   N12  Cn1  v104
 BYTE   W12
 BYTE   Cn1  v092
 BYTE   W12
 BYTE   Cn1  v080
 BYTE   W12
//  #08 //008   ----------------------------------------
 BYTE   N24
 BYTE   N24  An2  v088
 BYTE   W96
//  #08 //009   ----------------------------------------
 BYTE   W96
//  #08 //010   ----------------------------------------
 BYTE   N24
 BYTE   W96
//  #08 //011   ----------------------------------------
 BYTE   Cn1  v104
 BYTE   W96
//  #08 //012   ----------------------------------------
 BYTE   An2  v088
 BYTE   W96
//  #08 //013   ----------------------------------------
 BYTE   VOL   30*DarkWorld_mvl/mxv
 BYTE   W44
 BYTE   W01
 BYTE   VOICE   124
 BYTE   W03
 BYTE   N24  Cs2  v104
 BYTE   W48
//  #08 //014   ----------------------------------------
 BYTE   Cn1
 BYTE   W48
 BYTE   N24
 BYTE   W48
//  #08 //015   ----------------------------------------
 BYTE   N24
 BYTE   W24
 BYTE   N24
 BYTE   W24
 BYTE   N06
 BYTE   W12
 BYTE   N06
 BYTE   N12  Dn1
 BYTE   W06
 BYTE   N06  Cn1
 BYTE   W06
 BYTE   N06
 BYTE   W12
 BYTE   N12  Dn1  v127
 BYTE   N12  An2  v104
 BYTE   W12
//  #08 //016   ----------------------------------------
Label_9CA5E1:
 BYTE   N12  Cn1  v080
 BYTE   W12
 BYTE   N12
 BYTE   N12  As1
 BYTE   W12
 BYTE   Dn1
 BYTE   W12
 BYTE   Cn1
 BYTE   N12  As1
 BYTE   W12
 BYTE   Cn1
 BYTE   W12
 BYTE   N12
 BYTE   N12  As1
 BYTE   W12
 BYTE   Dn1
 BYTE   W12
 BYTE   Cn1
 BYTE   N12  As1
 BYTE   W12
 BYTE   PEND 
//  #08 //017   ----------------------------------------
 BYTE   PATT
  POIN2 Label_9CA5E1
//  #08 //018   ----------------------------------------
 BYTE   PATT
  POIN2 Label_9CA5E1
//  #08 //019   ----------------------------------------
 BYTE   PATT
  POIN2 Label_9CA5E1
//  #08 //020   ----------------------------------------
 BYTE   PATT
  POIN2 Label_9CA5E1
//  #08 //021   ----------------------------------------
 BYTE   PATT
  POIN2 Label_9CA5E1
//  #08 //022   ----------------------------------------
 BYTE   PATT
  POIN2 Label_9CA5E1
//  #08 //023   ----------------------------------------
 BYTE   N12  Cn1  v080
 BYTE   W12
 BYTE   N12
 BYTE   N12  As1
 BYTE   W12
 BYTE   N06  Dn1
 BYTE   W12
 BYTE   N12  Cn1
 BYTE   N12  As1
 BYTE   W12
 BYTE   N06  Cn1
 BYTE   N06  Dn1  v104
 BYTE   N06  Cs2  v080
 BYTE   W06
 BYTE   Dn1  v104
 BYTE   W06
 BYTE   Cn1  v080
 BYTE   N06  Dn1  v104
 BYTE   W06
 BYTE   N06
 BYTE   W06
 BYTE   Cn1  v080
 BYTE   N06  Dn1  v127
 BYTE   N06  An2  v080
 BYTE   W06
 BYTE   Dn1  v127
 BYTE   W06
 BYTE   Cn1  v080
 BYTE   N06  Dn1  v127
 BYTE   W06
 BYTE   N06
 BYTE   W06
//  #08 //024   ----------------------------------------
Label_9CA652:
 BYTE   N12  Cn1  v080
 BYTE   N12  Gn2
 BYTE   W12
 BYTE   Dn1  v104
 BYTE   W12
 BYTE   Cn1  v080
 BYTE   N12  Gn2
 BYTE   W12
 BYTE   Dn1  v104
 BYTE   W12
 BYTE   Cn1  v080
 BYTE   N12  Gn2
 BYTE   W12
 BYTE   Dn1  v104
 BYTE   W12
 BYTE   Cn1  v080
 BYTE   N12  Gn2
 BYTE   W12
 BYTE   Dn1  v104
 BYTE   W12
 BYTE   PEND 
//  #08 //025   ----------------------------------------
 BYTE   PATT
  POIN2 Label_9CA652
//  #08 //026   ----------------------------------------
 BYTE   N12  Cn1  v080
 BYTE   N12  Gn2
 BYTE   W12
 BYTE   Dn1  v104
 BYTE   W12
 BYTE   N06  Cn1  v080
 BYTE   N12  Gn2
 BYTE   W06
 BYTE   N06  Cn1
 BYTE   W06
 BYTE   N12  Dn1  v104
 BYTE   W12
 BYTE   Cn1
 BYTE   N12  Gn2
 BYTE   W12
 BYTE   Dn1
 BYTE   W12
 BYTE   N06  Cn1
 BYTE   N12  Gn2
 BYTE   W06
 BYTE   N06  Cn1
 BYTE   W06
 BYTE   N12  Dn1
 BYTE   W12
//  #08 //027   ----------------------------------------
 BYTE   Cn1  v127
 BYTE   N12  Gn2
 BYTE   W12
 BYTE   Dn1
 BYTE   W12
 BYTE   N06  Cn1
 BYTE   N12  Gn2
 BYTE   W06
 BYTE   N06  Cn1  v080
 BYTE   W06
 BYTE   N12  Dn1  v127
 BYTE   W06
 BYTE   N06  Cn1  v080
 BYTE   W06
 BYTE   N06
 BYTE   N06  Dn1  v127
 BYTE   N06  Cs2  v080
 BYTE   W06
 BYTE   Dn1  v127
 BYTE   W06
 BYTE   Cn1  v080
 BYTE   N06  Dn1  v127
 BYTE   W06
 BYTE   N06
 BYTE   W06
 BYTE   Cn1  v080
 BYTE   N06  Dn1  v127
 BYTE   N06  An2  v080
 BYTE   W06
 BYTE   Dn1  v127
 BYTE   W06
 BYTE   Cn1  v080
 BYTE   N06  Dn1  v127
 BYTE   W06
 BYTE   N06
 BYTE   W06
//  #08 //028   ----------------------------------------
 BYTE   PATT
  POIN2 Label_9CA652
//  #08 //029   ----------------------------------------
 BYTE   PATT
  POIN2 Label_9CA652
//  #08 //030   ----------------------------------------
 BYTE   N12  Cn1  v080
 BYTE   N12  Gn2
 BYTE   W12
 BYTE   Dn1  v104
 BYTE   W12
 BYTE   N06  Cn1
 BYTE   N06  Dn1  v127
 BYTE   N12  Gn2  v080
 BYTE   W06
 BYTE   N06  Cn1  v104
 BYTE   N06  Dn1  v127
 BYTE   W12
 BYTE   N06
 BYTE   W06
 BYTE   Cn1  v104
 BYTE   N06  Dn1  v127
 BYTE   N12  Gn2  v080
 BYTE   W06
 BYTE   N06  Cn1  v104
 BYTE   W06
 BYTE   Dn1  v127
 BYTE   W06
 BYTE   N06
 BYTE   W06
 BYTE   N12  Gn2  v080
 BYTE   W06
 BYTE   N06  Cn1  v104
 BYTE   N06  Dn1  v127
 BYTE   W12
 BYTE   Cn1  v104
 BYTE   N06  Dn1  v127
 BYTE   W06
//  #08 //031   ----------------------------------------
 BYTE   Cn1  v104
 BYTE   N06  Dn1  v127
 BYTE   N24  Gn2  v080
 BYTE   W06
 BYTE   N06  Cn1  v104
 BYTE   N06  Dn1  v127
 BYTE   W06
 BYTE   N06
 BYTE   W12
 BYTE   Cn1  v104
 BYTE   N06  Dn1  v127
 BYTE   N24  Gn2  v080
 BYTE   W06
 BYTE   N06  Cn1  v104
 BYTE   N06  Dn1  v127
 BYTE   W06
 BYTE   N06
 BYTE   W12
 BYTE   Cn1  v104
 BYTE   N06  Dn1  v127
 BYTE   N24  Cs2
 BYTE   W06
 BYTE   N06  Cn1  v104
 BYTE   N06  Dn1  v127
 BYTE   W06
 BYTE   Cn1  v104
 BYTE   W06
 BYTE   N06
 BYTE   N06  Dn1  v127
 BYTE   W06
 BYTE   Cn1  v104
 BYTE   N24  An2
 BYTE   W06
 BYTE   N06  Cn1
 BYTE   N06  Dn1  v127
 BYTE   W06
 BYTE   Cn1  v104
 BYTE   N06  Dn1  v127
 BYTE   W06
 BYTE   Cn1  v104
 BYTE   N06  Dn1  v127
 BYTE   W06
//  #08 //032   ----------------------------------------
 BYTE   GoTo
  POIN2 Label_9CA57E
 BYTE   FINE

//**************** Track 9 (Midi-Chn.8) ****************//

DarkWorld_009:
//  #09 //000   ----------------------------------------
 BYTE   KEYSH   DarkWorld_key+0
Label_3B8D86:
 BYTE   VOICE   52
 BYTE   MODT 0
 BYTE   LFOS 44
 BYTE   PAN   c_v+0
 BYTE   VOL   49*DarkWorld_mvl/mxv
 BYTE   BEND   c_v+0
 BYTE   N78  Bn3  v104
 BYTE   W78
 BYTE   N03
 BYTE   W03
 BYTE   Cs4
 BYTE   W03
 BYTE   Dn4
 BYTE   W03
 BYTE   En4
 BYTE   W03
 BYTE   Gn4
 BYTE   W03
 BYTE   An4
 BYTE   W03
//  #09 //001   ----------------------------------------
 BYTE   N96  Bn4
 BYTE   W96
//  #09 //002   ----------------------------------------
Label_3B8DA5:
 BYTE   N48  An4  v104
 BYTE   W48
 BYTE   TIE  En4
 BYTE   W48
 BYTE   PEND 
//  #09 //003   ----------------------------------------
 BYTE   W96
//  #09 //004   ----------------------------------------
 BYTE   EOT
Label_3B8DAF:
 BYTE   N78  Bn3  v104
 BYTE   W78
 BYTE   N03
 BYTE   W03
 BYTE   Cs4
 BYTE   W03
 BYTE   Dn4
 BYTE   W03
 BYTE   En4
 BYTE   W03
 BYTE   Gn4
 BYTE   W03
 BYTE   An4
 BYTE   W03
 BYTE   PEND 
//  #09 //005   ----------------------------------------
 BYTE   N96  Gn4
 BYTE   W96
//  #09 //006   ----------------------------------------
 BYTE   N48  Fs4
 BYTE   W48
 BYTE   TIE  Cs4
 BYTE   W48
//  #09 //007   ----------------------------------------
 BYTE   W96
//  #09 //008   ----------------------------------------
 BYTE   EOT
//  #09 //009   ----------------------------------------
 BYTE   PATT
  POIN2 Label_3B8DAF
//  #09 //010   ----------------------------------------
 BYTE   N96  Bn4  v104
 BYTE   W96
//  #09 //011   ----------------------------------------
 BYTE   PATT
  POIN2 Label_3B8DA5
//  #09 //012   ----------------------------------------
 BYTE   W96
//  #09 //013   ----------------------------------------
 BYTE   EOT
 BYTE   En4
//  #09 //014   ----------------------------------------
 BYTE   PATT
  POIN2 Label_3B8DAF
//  #09 //015   ----------------------------------------
 BYTE   N96  Gn4  v104
 BYTE   W96
//  #09 //016   ----------------------------------------
 BYTE   An3
 BYTE   TIE  Fs4  v080
 BYTE   W96
//  #09 //017   ----------------------------------------
 BYTE   N96  As3  v104
 BYTE   W96
//  #09 //018   ----------------------------------------
 BYTE   EOT
 BYTE   Fs4
 BYTE   W96
//  #09 //019   ----------------------------------------
 BYTE   W96
//  #09 //020   ----------------------------------------
 BYTE   W96
//  #09 //021   ----------------------------------------
 BYTE   W96
//  #09 //022   ----------------------------------------
 BYTE   W96
//  #09 //023   ----------------------------------------
 BYTE   W96
//  #09 //024   ----------------------------------------
 BYTE   W96
//  #09 //025   ----------------------------------------
 BYTE   W96
//  #09 //026   ----------------------------------------
 BYTE   W96
//  #09 //027   ----------------------------------------
 BYTE   W96
//  #09 //028   ----------------------------------------
 BYTE   W96
//  #09 //029   ----------------------------------------
 BYTE   W96
//  #09 //030   ----------------------------------------
 BYTE   W96
//  #09 //031   ----------------------------------------
 BYTE   W96
//  #09 //032   ----------------------------------------
 BYTE   W96
//  #09 //033   ----------------------------------------
 BYTE   W96
//  #09 //034   ----------------------------------------
 BYTE   GoTo
  POIN2 Label_3B8D86
 BYTE   FINE

//**************** Track 10 (Midi-Chn.9) ****************//

DarkWorld_010:
//  #10 //000   ----------------------------------------
 BYTE   KEYSH   DarkWorld_key+0
Label_FC7CFE:
 BYTE   VOICE   35
 BYTE   MODT 0
 BYTE   LFOS 44
 BYTE   PAN   c_v+0
 BYTE   VOL   11*DarkWorld_mvl/mxv
 BYTE   MOD 0
 BYTE   BEND   c_v+0
 BYTE   TIE  Bn1  v127
 BYTE   W96
//  #10 //001   ----------------------------------------
 BYTE   W96
//  #10 //002   ----------------------------------------
 BYTE   EOT
 BYTE   N96  An1
 BYTE   W96
//  #10 //003   ----------------------------------------
 BYTE   N96
 BYTE   W96
//  #10 //004   ----------------------------------------
 BYTE   TIE  Gn1
 BYTE   W96
//  #10 //005   ----------------------------------------
 BYTE   W96
//  #10 //006   ----------------------------------------
 BYTE   EOT
 BYTE   N96  Fs1  v104
 BYTE   W96
//  #10 //007   ----------------------------------------
 BYTE   N72  En2
 BYTE   W60
 BYTE   N12  Dn2  v127
 BYTE   W12
 BYTE   Cs2
 BYTE   W12
 BYTE   As1
 BYTE   W12
//  #10 //008   ----------------------------------------
 BYTE   TIE  Bn1
 BYTE   W96
//  #10 //009   ----------------------------------------
 BYTE   W96
//  #10 //010   ----------------------------------------
 BYTE   EOT
 BYTE   N96  An1
 BYTE   W96
//  #10 //011   ----------------------------------------
 BYTE   N96
 BYTE   W96
//  #10 //012   ----------------------------------------
 BYTE   TIE  Gn1
 BYTE   W96
//  #10 //013   ----------------------------------------
 BYTE   W96
//  #10 //014   ----------------------------------------
 BYTE   EOT
 BYTE   N42  Fs1  v104
 BYTE   W48
 BYTE   Fs1  v116
 BYTE   W48
//  #10 //015   ----------------------------------------
 BYTE   N21  En1  v127
 BYTE   W24
 BYTE   Dn1  v104
 BYTE   W24
 BYTE   Cs1
 BYTE   W24
 BYTE   As0  v116
 BYTE   W24
//  #10 //016   ----------------------------------------
Label_FC7D4D:
 BYTE   N09  Gn1  v080
 BYTE   W12
 BYTE   N09
 BYTE   W24
 BYTE   Dn1
 BYTE   W12
 BYTE   Gn1
 BYTE   W12
 BYTE   N09
 BYTE   W24
 BYTE   Dn1
 BYTE   W12
 BYTE   PEND 
//  #10 //017   ----------------------------------------
 BYTE   PATT
  POIN2 Label_FC7D4D
//  #10 //018   ----------------------------------------
Label_FC7D61:
 BYTE   N09  An1  v080
 BYTE   W12
 BYTE   N09
 BYTE   W24
 BYTE   En1
 BYTE   W12
 BYTE   An1
 BYTE   W12
 BYTE   N09
 BYTE   W24
 BYTE   En1
 BYTE   W12
 BYTE   PEND 
//  #10 //019   ----------------------------------------
 BYTE   PATT
  POIN2 Label_FC7D61
//  #10 //020   ----------------------------------------
Label_FC7D75:
 BYTE   N09  Fs1  v080
 BYTE   W12
 BYTE   N09
 BYTE   W24
 BYTE   Cs1
 BYTE   W12
 BYTE   Fs1
 BYTE   W12
 BYTE   N09
 BYTE   W24
 BYTE   Cs1
 BYTE   W12
 BYTE   PEND 
//  #10 //021   ----------------------------------------
 BYTE   PATT
  POIN2 Label_FC7D75
//  #10 //022   ----------------------------------------
 BYTE   PATT
  POIN2 Label_FC7D4D
//  #10 //023   ----------------------------------------
 BYTE   N09  Gn1  v080
 BYTE   W12
 BYTE   N09
 BYTE   W24
 BYTE   Dn1
 BYTE   W12
 BYTE   N19  Gn0
 BYTE   W24
 BYTE   An0
 BYTE   W24
//  #10 //024   ----------------------------------------
Label_FC7D9B:
 BYTE   N09  Bn0  v080
 BYTE   W12
 BYTE   Fs1
 BYTE   W12
 BYTE   Bn0
 BYTE   W12
 BYTE   Fs1
 BYTE   W12
 BYTE   Bn0
 BYTE   W12
 BYTE   Fs1
 BYTE   W12
 BYTE   Bn0
 BYTE   W12
 BYTE   Fs1
 BYTE   W12
 BYTE   PEND 
//  #10 //025   ----------------------------------------
Label_FC7DAE:
 BYTE   N09  An0  v080
 BYTE   W12
 BYTE   En1
 BYTE   W12
 BYTE   An0
 BYTE   W12
 BYTE   En1
 BYTE   W12
 BYTE   An0
 BYTE   W12
 BYTE   En1
 BYTE   W12
 BYTE   An0
 BYTE   W12
 BYTE   En1
 BYTE   W12
 BYTE   PEND 
//  #10 //026   ----------------------------------------
 BYTE   Gn0
 BYTE   W12
 BYTE   Dn1
 BYTE   W12
 BYTE   Gn0
 BYTE   W12
 BYTE   Dn1
 BYTE   W12
 BYTE   Gn0
 BYTE   W12
 BYTE   Dn1
 BYTE   W12
 BYTE   Gn0
 BYTE   W12
 BYTE   Dn1
 BYTE   W12
//  #10 //027   ----------------------------------------
 BYTE   Gn0
 BYTE   W12
 BYTE   Dn1
 BYTE   W12
 BYTE   Gn0
 BYTE   W12
 BYTE   Dn1
 BYTE   W12
 BYTE   N19  Gn0
 BYTE   W24
 BYTE   An0
 BYTE   W24
//  #10 //028   ----------------------------------------
 BYTE   PATT
  POIN2 Label_FC7D9B
//  #10 //029   ----------------------------------------
 BYTE   PATT
  POIN2 Label_FC7DAE
//  #10 //030   ----------------------------------------
 BYTE   N09  Cn1  v080
 BYTE   W12
 BYTE   N09
 BYTE   W24
 BYTE   N09
 BYTE   W12
 BYTE   N09
 BYTE   W12
 BYTE   N09
 BYTE   W24
 BYTE   N09
 BYTE   W12
//  #10 //031   ----------------------------------------
 BYTE   Fs1
 BYTE   W12
 BYTE   N09
 BYTE   W12
 BYTE   En1
 BYTE   W12
 BYTE   N09
 BYTE   W12
 BYTE   Dn1
 BYTE   W12
 BYTE   N09
 BYTE   W12
 BYTE   Cs1
 BYTE   W12
 BYTE   N09
 BYTE   W12
//  #10 //032   ----------------------------------------
 BYTE   GoTo
  POIN2 Label_FC7CFE
 BYTE   FINE

//**************** Track 11 (Midi-Chn.10) ****************//

DarkWorld_011:
//  #11 //000   ----------------------------------------
 BYTE   KEYSH   DarkWorld_key+0
Label_3AEBAE:
 BYTE   VOICE   104
 BYTE   MODT 0
 BYTE   LFOS 44
 BYTE   MOD 0
 BYTE   VOL   20*DarkWorld_mvl/mxv
 BYTE   PAN   c_v+0
 BYTE   VOL   20*DarkWorld_mvl/mxv
 BYTE   BEND   c_v+0
 BYTE   W96
//  #11 //001   ----------------------------------------
 BYTE   W96
//  #11 //002   ----------------------------------------
 BYTE   W96
//  #11 //003   ----------------------------------------
 BYTE   W96
//  #11 //004   ----------------------------------------
 BYTE   W96
//  #11 //005   ----------------------------------------
 BYTE   W96
//  #11 //006   ----------------------------------------
 BYTE   W96
//  #11 //007   ----------------------------------------
 BYTE   W96
//  #11 //008   ----------------------------------------
 BYTE   W96
//  #11 //009   ----------------------------------------
 BYTE   W96
//  #11 //010   ----------------------------------------
 BYTE   W96
//  #11 //011   ----------------------------------------
 BYTE   W96
//  #11 //012   ----------------------------------------
 BYTE   W96
//  #11 //013   ----------------------------------------
 BYTE   W96
//  #11 //014   ----------------------------------------
 BYTE   W96
//  #11 //015   ----------------------------------------
 BYTE   W48
 BYTE   N06  An2  v080
 BYTE   W06
 BYTE   Bn2
 BYTE   W06
 BYTE   Cs3
 BYTE   W06
 BYTE   Dn3  v104
 BYTE   W06
 BYTE   En3
 BYTE   W06
 BYTE   Fs3  v127
 BYTE   W06
 BYTE   Gn3
 BYTE   W06
 BYTE   An3
 BYTE   W06
//  #11 //016   ----------------------------------------
Label_3AEBE2:
 BYTE   N12  Bn3  v104
 BYTE   W12
 BYTE   N09  Gn3
 BYTE   W12
 BYTE   N12  An3
 BYTE   W12
 BYTE   N09  Gn3
 BYTE   W12
 BYTE   N12  Bn3
 BYTE   W12
 BYTE   N09  Gn3
 BYTE   W12
 BYTE   N12  An3
 BYTE   W12
 BYTE   N09  Gn3
 BYTE   W12
 BYTE   PEND 
//  #11 //017   ----------------------------------------
 BYTE   PATT
  POIN2 Label_3AEBE2
//  #11 //018   ----------------------------------------
Label_3AEC01:
 BYTE   N12  Cs4  v104
 BYTE   W12
 BYTE   N09  An3
 BYTE   W12
 BYTE   N12  Bn3
 BYTE   W12
 BYTE   N09  An3
 BYTE   W12
 BYTE   N12  Cs4
 BYTE   W12
 BYTE   N09  An3
 BYTE   W12
 BYTE   N12  Bn3
 BYTE   W12
 BYTE   N09  An3
 BYTE   W12
 BYTE   PEND 
//  #11 //019   ----------------------------------------
 BYTE   PATT
  POIN2 Label_3AEC01
//  #11 //020   ----------------------------------------
Label_3AEC20:
 BYTE   N12  An3  v104
 BYTE   W12
 BYTE   N09  Fs3
 BYTE   W12
 BYTE   N12  Gs3
 BYTE   W12
 BYTE   N09  Fs3
 BYTE   W12
 BYTE   N12  An3
 BYTE   W12
 BYTE   N09  Fs3
 BYTE   W12
 BYTE   N12  Gs3
 BYTE   W12
 BYTE   N09  Fs3
 BYTE   W12
 BYTE   PEND 
//  #11 //021   ----------------------------------------
 BYTE   PATT
  POIN2 Label_3AEC20
//  #11 //022   ----------------------------------------
 BYTE   PATT
  POIN2 Label_3AEBE2
//  #11 //023   ----------------------------------------
 BYTE   N12  Bn3  v104
 BYTE   W12
 BYTE   N09  Gn3
 BYTE   W12
 BYTE   N12  An3
 BYTE   W12
 BYTE   N09  Gn3  v127
 BYTE   W12
 BYTE   VOL   24*DarkWorld_mvl/mxv
 BYTE   N06  Bn3
 BYTE   W06
 BYTE   Gn3
 BYTE   W06
 BYTE   Dn3
 BYTE   W06
 BYTE   Gn3
 BYTE   W06
 BYTE   Cs4
 BYTE   W06
 BYTE   An3
 BYTE   W06
 BYTE   En3
 BYTE   W06
 BYTE   An3
 BYTE   W06
//  #11 //024   ----------------------------------------
Label_3AEC65:
 BYTE   N06  Bn3  v127
 BYTE   W06
 BYTE   Dn3
 BYTE   W06
 BYTE   Fs3
 BYTE   W06
 BYTE   Dn3
 BYTE   W06
 BYTE   Bn3
 BYTE   W06
 BYTE   Dn3
 BYTE   W06
 BYTE   Fs3
 BYTE   W06
 BYTE   Dn3
 BYTE   W06
 BYTE   Bn3
 BYTE   W06
 BYTE   Dn3
 BYTE   W06
 BYTE   Fs3
 BYTE   W06
 BYTE   Dn3
 BYTE   W06
 BYTE   Bn3
 BYTE   W06
 BYTE   Dn3
 BYTE   W06
 BYTE   Fs3
 BYTE   W06
 BYTE   Dn3
 BYTE   W06
 BYTE   PEND 
//  #11 //025   ----------------------------------------
Label_3AEC88:
 BYTE   N06  An3  v127
 BYTE   W06
 BYTE   Cs3
 BYTE   W06
 BYTE   En3
 BYTE   W06
 BYTE   Cs3
 BYTE   W06
 BYTE   An3
 BYTE   W06
 BYTE   Cs3
 BYTE   W06
 BYTE   En3
 BYTE   W06
 BYTE   Cs3
 BYTE   W06
 BYTE   An3
 BYTE   W06
 BYTE   Cs3
 BYTE   W06
 BYTE   En3
 BYTE   W06
 BYTE   Cs3
 BYTE   W06
 BYTE   An3
 BYTE   W06
 BYTE   Cs3
 BYTE   W06
 BYTE   En3
 BYTE   W06
 BYTE   Cs3
 BYTE   W06
 BYTE   PEND 
//  #11 //026   ----------------------------------------
Label_3AECAB:
 BYTE   N06  Gn3  v127
 BYTE   W06
 BYTE   Dn3
 BYTE   W06
 BYTE   Bn2
 BYTE   W06
 BYTE   Dn3
 BYTE   W06
 BYTE   Gn3
 BYTE   W06
 BYTE   Dn3
 BYTE   W06
 BYTE   Bn2
 BYTE   W06
 BYTE   Dn3
 BYTE   W06
 BYTE   Gn3
 BYTE   W06
 BYTE   Dn3
 BYTE   W06
 BYTE   Bn2
 BYTE   W06
 BYTE   Dn3
 BYTE   W06
 BYTE   Gn3
 BYTE   W06
 BYTE   Dn3
 BYTE   W06
 BYTE   Bn2
 BYTE   W06
 BYTE   Dn3
 BYTE   W06
 BYTE   PEND 
//  #11 //027   ----------------------------------------
 BYTE   Gn3
 BYTE   W06
 BYTE   Dn3
 BYTE   W06
 BYTE   Bn2
 BYTE   W06
 BYTE   Dn3
 BYTE   W06
 BYTE   Gn3
 BYTE   W06
 BYTE   Dn3
 BYTE   W06
 BYTE   Bn2
 BYTE   W06
 BYTE   Dn3
 BYTE   W06
 BYTE   Gn3
 BYTE   W06
 BYTE   Dn3
 BYTE   W06
 BYTE   Bn2
 BYTE   W06
 BYTE   Dn3
 BYTE   W06
 BYTE   An3
 BYTE   W06
 BYTE   En3
 BYTE   W06
 BYTE   Cs3
 BYTE   W06
 BYTE   En3
 BYTE   W06
//  #11 //028   ----------------------------------------
 BYTE   PATT
  POIN2 Label_3AEC65
//  #11 //029   ----------------------------------------
 BYTE   PATT
  POIN2 Label_3AEC88
//  #11 //030   ----------------------------------------
 BYTE   PATT
  POIN2 Label_3AECAB
//  #11 //031   ----------------------------------------
 BYTE   N06  Fs3  v127
 BYTE   N06  Fs4
 BYTE   W06
 BYTE   As2
 BYTE   N06  As3
 BYTE   W06
 BYTE   Cs3
 BYTE   N06  Cs4
 BYTE   W06
 BYTE   Fs3
 BYTE   N06  Fs4
 BYTE   W06
 BYTE   Fs3
 BYTE   N06  Fs4
 BYTE   W06
 BYTE   As2
 BYTE   N06  As3
 BYTE   W06
 BYTE   Cs3
 BYTE   N06  Cs4
 BYTE   W06
 BYTE   Fs3
 BYTE   N06  Fs4
 BYTE   W06
 BYTE   As3
 BYTE   N06  As4
 BYTE   W06
 BYTE   Cs3
 BYTE   N06  Cs4
 BYTE   W06
 BYTE   Fs3
 BYTE   N06  Fs4
 BYTE   W06
 BYTE   As3
 BYTE   N06  As4
 BYTE   W06
 BYTE   N03  Cs4
 BYTE   N03  Cs5
 BYTE   W03
 BYTE   Fs3
 BYTE   N03  Fs4
 BYTE   W03
 BYTE   As3
 BYTE   N03  As4
 BYTE   W03
 BYTE   Cs4
 BYTE   N03  Cs5
 BYTE   W03
 BYTE   Fs4
 BYTE   N03  Fs5
 BYTE   W03
 BYTE   As3
 BYTE   N03  As4
 BYTE   W03
 BYTE   Cs4
 BYTE   N03  Cs5
 BYTE   W03
 BYTE   Fs4
 BYTE   N03  Fs5
 BYTE   W03
//  #11 //032   ----------------------------------------
 BYTE   GoTo
  POIN2 Label_3AEBAE
 BYTE   FINE

//**************** Track 12 (Midi-Chn.11) ****************//

DarkWorld_012:
//  #12 //000   ----------------------------------------
 BYTE   KEYSH   DarkWorld_key+0
Label_3AED5A:
 BYTE   VOICE   80
 BYTE   MODT 0
 BYTE   LFOS 44
 BYTE   PAN   c_v+0
 BYTE   VOL   41*DarkWorld_mvl/mxv
 BYTE   BEND   c_v+0
 BYTE   W96
//  #12 //001   ----------------------------------------
 BYTE   W96
//  #12 //002   ----------------------------------------
 BYTE   W96
//  #12 //003   ----------------------------------------
 BYTE   W96
//  #12 //004   ----------------------------------------
 BYTE   W96
//  #12 //005   ----------------------------------------
 BYTE   W96
//  #12 //006   ----------------------------------------
 BYTE   W96
//  #12 //007   ----------------------------------------
 BYTE   W96
//  #12 //008   ----------------------------------------
 BYTE   W96
//  #12 //009   ----------------------------------------
 BYTE   W96
//  #12 //010   ----------------------------------------
 BYTE   W96
//  #12 //011   ----------------------------------------
 BYTE   W96
//  #12 //012   ----------------------------------------
 BYTE   W96
//  #12 //013   ----------------------------------------
 BYTE   W96
//  #12 //014   ----------------------------------------
 BYTE   W96
//  #12 //015   ----------------------------------------
 BYTE   W48
 BYTE   N06  An3  v127
 BYTE   W06
 BYTE   Bn3  v104
 BYTE   W06
 BYTE   Cs4
 BYTE   W06
 BYTE   Dn4
 BYTE   W06
 BYTE   En4
 BYTE   W06
 BYTE   Fs4  v127
 BYTE   W06
 BYTE   Gn4
 BYTE   W06
 BYTE   An4
 BYTE   W06
//  #12 //016   ----------------------------------------
 BYTE   N96  Dn4  v104
 BYTE   N96  Bn4  v116
 BYTE   W96
//  #12 //017   ----------------------------------------
 BYTE   N48  Bn3  v104
 BYTE   N48  Gn4
 BYTE   W48
 BYTE   Dn4  v088
 BYTE   N48  Bn4
 BYTE   W48
//  #12 //018   ----------------------------------------
 BYTE   N09  En4  v080
 BYTE   N09  Cs5
 BYTE   W12
 BYTE   Dn5
 BYTE   W12
 BYTE   N24  En4
 BYTE   N24  Cs5
 BYTE   W24
 BYTE   TIE  Cs4  v104
 BYTE   TIE  An4
 BYTE   W48
//  #12 //019   ----------------------------------------
 BYTE   W96
//  #12 //020   ----------------------------------------
 BYTE   EOT
 BYTE   Cs4  v081
 BYTE   N96  Cs4
 BYTE   N96  An4
 BYTE   W96
//  #12 //021   ----------------------------------------
 BYTE   N48  An3  v088
 BYTE   N48  Fs4
 BYTE   W48
 BYTE   Cs4
 BYTE   N48  An4
 BYTE   W48
//  #12 //022   ----------------------------------------
 BYTE   N24  Bn3  v080
 BYTE   N24  Gn4
 BYTE   W24
 BYTE   N07  Fs4  v127
 BYTE   W12
 BYTE   TIE  Bn3  v104
 BYTE   TIE  Dn4
 BYTE   W60
//  #12 //023   ----------------------------------------
 BYTE   W48
 BYTE   EOT
 BYTE   Bn3  v074
 BYTE   VOICE   61
 BYTE   VOL   31*DarkWorld_mvl/mxv
 BYTE   N19  Bn3
 BYTE   N19  Dn4
 BYTE   W24
 BYTE   Cs4
 BYTE   N19  En4
 BYTE   W24
//  #12 //024   ----------------------------------------
 BYTE   N96  Dn4
 BYTE   N96  Fs4
 BYTE   W96
//  #12 //025   ----------------------------------------
 BYTE   N24  Cs4
 BYTE   N24  En4
 BYTE   W24
 BYTE   Dn4
 BYTE   W24
 BYTE   Cs4
 BYTE   W24
 BYTE   An3
 BYTE   W24
//  #12 //026   ----------------------------------------
 BYTE   TIE  Gn3
 BYTE   TIE  Bn3
 BYTE   W96
//  #12 //027   ----------------------------------------
 BYTE   W48
 BYTE   EOT
 BYTE   Gn3  v071
 BYTE   N19
 BYTE   N19  Dn4
 BYTE   W24
 BYTE   Cs4
 BYTE   N19  En4
 BYTE   W24
//  #12 //028   ----------------------------------------
 BYTE   N96  Dn4
 BYTE   N96  Fs4
 BYTE   W96
//  #12 //029   ----------------------------------------
 BYTE   N24  Cs4
 BYTE   N24  En4
 BYTE   W24
 BYTE   Dn4
 BYTE   W24
 BYTE   An3
 BYTE   N24  Cs4
 BYTE   W24
 BYTE   Fs3
 BYTE   N24  An3
 BYTE   W24
//  #12 //030   ----------------------------------------
 BYTE   N96  En3  v127
 BYTE   N96  Bn3
 BYTE   W96
//  #12 //031   ----------------------------------------
 BYTE   En3  v080
 BYTE   N96  As3
 BYTE   W96
//  #12 //032   ----------------------------------------
 BYTE   GoTo
  POIN2 Label_3AED5A
 BYTE   FINE

//**************** Track 13 (Midi-Chn.12) ****************//

DarkWorld_013:
//  #13 //000   ----------------------------------------
 BYTE   KEYSH   DarkWorld_key+0
Label_CBFADA:
 BYTE   VOICE   48
 BYTE   MODT 0
 BYTE   LFOS 44
 BYTE   VOL   14*DarkWorld_mvl/mxv
 BYTE   PAN   c_v+0
 BYTE   VOL   14*DarkWorld_mvl/mxv
 BYTE   BEND   c_v+0
 BYTE   N92  Dn3  v088
 BYTE   N92  Fs3
 BYTE   N92  Bn3
 BYTE   W96
//  #13 //001   ----------------------------------------
Label_CBFAF0:
 BYTE   N96  Dn3  v088
 BYTE   N96  Fs3
 BYTE   N96  Bn3
 BYTE   W96
 BYTE   PEND 
//  #13 //002   ----------------------------------------
Label_CBFAF9:
 BYTE   TIE  Cs4  v088
 BYTE   TIE  En4
 BYTE   TIE  An4
 BYTE   W96
 BYTE   PEND 
//  #13 //003   ----------------------------------------
 BYTE   W96
//  #13 //004   ----------------------------------------
 BYTE   EOT
 BYTE   Cs4  v076
 BYTE   An4
Label_CBFB07:
 BYTE   N92  Gn3  v088
 BYTE   N92  Bn3
 BYTE   N92  Dn4
 BYTE   W96
 BYTE   PEND 
//  #13 //005   ----------------------------------------
Label_CBFB10:
 BYTE   N96  Gn3  v088
 BYTE   N96  Bn3
 BYTE   N96  Dn4
 BYTE   W96
 BYTE   PEND 
//  #13 //006   ----------------------------------------
Label_CBFB19:
 BYTE   N96  An3  v088
 BYTE   N96  Cs4
 BYTE   N96  Fs4
 BYTE   W96
 BYTE   PEND 
//  #13 //007   ----------------------------------------
 BYTE   Gs3
 BYTE   N96  Bn3
 BYTE   N96  En4
 BYTE   W96
//  #13 //008   ----------------------------------------
 BYTE   N92  Dn3
 BYTE   N92  Fs3
 BYTE   N92  Bn3
 BYTE   W96
//  #13 //009   ----------------------------------------
 BYTE   PATT
  POIN2 Label_CBFAF0
//  #13 //010   ----------------------------------------
 BYTE   PATT
  POIN2 Label_CBFAF9
//  #13 //011   ----------------------------------------
 BYTE   W96
//  #13 //012   ----------------------------------------
 BYTE   EOT
 BYTE   Cs4  v076
 BYTE   An4
//  #13 //013   ----------------------------------------
 BYTE   PATT
  POIN2 Label_CBFB07
//  #13 //014   ----------------------------------------
 BYTE   PATT
  POIN2 Label_CBFB10
//  #13 //015   ----------------------------------------
 BYTE   PATT
  POIN2 Label_CBFB19
//  #13 //016   ----------------------------------------
 BYTE   N96  Gs3  v116
 BYTE   N96  Bn3
 BYTE   N96  En4
 BYTE   W96
//  #13 //017   ----------------------------------------
 BYTE   VOL   11*DarkWorld_mvl/mxv
 BYTE   TIE  Gn3  v104
 BYTE   TIE  Bn3
 BYTE   TIE  Dn4
 BYTE   W96
//  #13 //018   ----------------------------------------
 BYTE   W72
 BYTE   W03
 BYTE   EOT
 BYTE   Gn3  v071
 BYTE   Dn4
 BYTE   W21
//  #13 //019   ----------------------------------------
 BYTE   TIE  An3
 BYTE   TIE  Cs4
 BYTE   TIE  En4
 BYTE   W96
//  #13 //020   ----------------------------------------
 BYTE   W72
 BYTE   W03
 BYTE   EOT
 BYTE   An3  v073
 BYTE   En4
 BYTE   W21
//  #13 //021   ----------------------------------------
 BYTE   TIE  An3
 BYTE   TIE  Cs4
 BYTE   TIE  Fs4
 BYTE   W96
//  #13 //022   ----------------------------------------
 BYTE   W72
 BYTE   W03
 BYTE   EOT
 BYTE   An3  v073
 BYTE   Fs4
 BYTE   W21
//  #13 //023   ----------------------------------------
 BYTE   TIE  Bn3
 BYTE   TIE  Dn4
 BYTE   TIE  Gn4
 BYTE   W96
//  #13 //024   ----------------------------------------
 BYTE   W48
 BYTE   VOL   16*DarkWorld_mvl/mxv
 BYTE   W09
 BYTE   EOT
 BYTE   Bn3  v074
 BYTE   Gn4
 BYTE   W15
 BYTE   N56  Cs4  v127
 BYTE   N24  En4
 BYTE   N24  An4
 BYTE   W24
//  #13 //025   ----------------------------------------
Label_CBFB9A:
 BYTE   N72  Bn3  v104
 BYTE   N72  Dn4
 BYTE   N72  Fs4
 BYTE   W96
 BYTE   PEND 
//  #13 //026   ----------------------------------------
Label_CBFBA3:
 BYTE   N72  An3  v104
 BYTE   N72  Cs4
 BYTE   N72  En4
 BYTE   W96
 BYTE   PEND 
//  #13 //027   ----------------------------------------
 BYTE   TIE  Gn3
 BYTE   TIE  Bn3
 BYTE   TIE  Dn4
 BYTE   W96
//  #13 //028   ----------------------------------------
 BYTE   W56
 BYTE   W01
 BYTE   EOT
 BYTE   Gn3  v071
 BYTE   Dn4
 BYTE   W15
 BYTE   N19  An3  v127
 BYTE   N19  Cs4
 BYTE   N19  En4
 BYTE   W24
//  #13 //029   ----------------------------------------
 BYTE   PATT
  POIN2 Label_CBFB9A
//  #13 //030   ----------------------------------------
 BYTE   PATT
  POIN2 Label_CBFBA3
//  #13 //031   ----------------------------------------
 BYTE   N72  Cn3  v104
 BYTE   N72  En3
 BYTE   N72  Bn3
 BYTE   W96
//  #13 //032   ----------------------------------------
 BYTE   Fs3
 BYTE   N72  As3
 BYTE   N72  En4
 BYTE   W96
//  #13 //033   ----------------------------------------
 BYTE   GoTo
  POIN2 Label_CBFADA
 BYTE   FINE

//******************************************************//
	ALIGN 4

DarkWorld:
	BYTE	13	// NumTrks
	BYTE	0	// NumBlks
	BYTE	DarkWorld_pri	// Priority
	BYTE	DarkWorld_rev	// Reverb.
    
	POIN2	DarkWorld_grp
    
	POIN2	DarkWorld_001
	POIN2	DarkWorld_002
	POIN2	DarkWorld_003
	POIN2	DarkWorld_004
	POIN2	DarkWorld_005
	POIN2	DarkWorld_006
	POIN2	DarkWorld_007
	POIN2	DarkWorld_008
	POIN2	DarkWorld_009
	POIN2	DarkWorld_010
	POIN2	DarkWorld_011
	POIN2	DarkWorld_012
	POIN2	DarkWorld_013

	
