//Event file generated from Sappy .s format.
	#include "MPlayDef.event"

	#define	PreludeFF5_grp  voicegroup000
	#define	PreludeFF5_pri  10
	#define	PreludeFF5_rev  0
	#define	PreludeFF5_mvl  127
	#define	PreludeFF5_key  0
	#define	PreludeFF5_tbs  1
	#define	PreludeFF5_exg  0
	#define	PreludeFF5_cmp  1

	// .rodata
	//	PreludeFF5
	ALIGN 4


//**************** Track 1 (Midi-Chn.0) ****************//

PreludeFF5_001:
//  #01 //000   ----------------------------------------
 BYTE   KEYSH   PreludeFF5_key+0
 BYTE   TEMPO   150*PreludeFF5_tbs/2
 BYTE   VOICE   46
 BYTE   VOL   109*PreludeFF5_mvl/mxv
 BYTE   BEND   c_v+0
 BYTE   TEMPO   92*PreludeFF5_tbs/2
 BYTE   PAN   c_v-55
 BYTE   N06  Fn0  v127
 BYTE   W06
 BYTE   PAN   c_v-51
 BYTE   N06  Gn0  v127
 BYTE   W06
 BYTE   PAN   c_v-48
 BYTE   N06  An0  v127
 BYTE   W06
 BYTE   PAN   c_v-44
 BYTE   N06  Cn1  v127
 BYTE   W06
 BYTE   PAN   c_v-41
 BYTE   N06  Fn1  v127
 BYTE   W06
 BYTE   PAN   c_v-37
 BYTE   N06  Gn1  v127
 BYTE   W06
 BYTE   PAN   c_v-34
 BYTE   VOL   72*PreludeFF5_mvl/mxv
 BYTE   N06  An1  v127
 BYTE   W01
 BYTE   VOL   109*PreludeFF5_mvl/mxv
 BYTE   W05
 BYTE   PAN   c_v-30
 BYTE   N06  Cn2  v121
 BYTE   W06
 BYTE   PAN   c_v-26
 BYTE   N06  Fn2  v127
 BYTE   W06
 BYTE   PAN   c_v-23
 BYTE   N06  Gn2  v117
 BYTE   W06
 BYTE   PAN   c_v-19
 BYTE   N06  An2  v125
 BYTE   W06
 BYTE   PAN   c_v-16
 BYTE   N06  Cn3  v113
 BYTE   W06
 BYTE   PAN   c_v-12
 BYTE   N06  Fn3  v125
 BYTE   W06
 BYTE   PAN   c_v-9
 BYTE   N06  Gn3  v113
 BYTE   W06
 BYTE   PAN   c_v-5
 BYTE   N06  An3  v121
 BYTE   W06
 BYTE   PAN   c_v-2
 BYTE   N06  Cn4  v109
 BYTE   W06
//  #01 //001   ----------------------------------------
 BYTE   PAN   c_v+2
 BYTE   N06  Fn4  v117
 BYTE   W06
 BYTE   PAN   c_v+5
 BYTE   N06  Cn4  v113
 BYTE   W06
 BYTE   PAN   c_v+9
 BYTE   N06  An3  v121
 BYTE   W06
 BYTE   PAN   c_v+13
 BYTE   N06  Gn3  v109
 BYTE   W06
 BYTE   PAN   c_v+16
 BYTE   N06  Fn3  v125
 BYTE   W06
 BYTE   PAN   c_v+20
 BYTE   N06  Cn3  v117
 BYTE   W06
 BYTE   PAN   c_v+23
 BYTE   N06  An2  v125
 BYTE   W06
 BYTE   PAN   c_v+27
 BYTE   N06  Gn2  v117
 BYTE   W06
 BYTE   PAN   c_v+30
 BYTE   N06  Fn2  v127
 BYTE   W06
 BYTE   PAN   c_v+34
 BYTE   N06  Cn2  v125
 BYTE   W06
 BYTE   PAN   c_v+37
 BYTE   VOL   76*PreludeFF5_mvl/mxv
 BYTE   N06  An1  v127
 BYTE   W01
 BYTE   VOL   109*PreludeFF5_mvl/mxv
 BYTE   W05
 BYTE   PAN   c_v+41
 BYTE   N06  Gn1  v125
 BYTE   W06
 BYTE   PAN   c_v+45
 BYTE   N06  Fn1  v127
 BYTE   W06
 BYTE   PAN   c_v+48
 BYTE   N06  Cn1  v127
 BYTE   W06
 BYTE   PAN   c_v+52
 BYTE   N06  An0  v127
 BYTE   W06
 BYTE   PAN   c_v+55
 BYTE   N06  Gn0  v127
 BYTE   W06
//  #01 //002   ----------------------------------------
 BYTE   VOL   76*PreludeFF5_mvl/mxv
 BYTE   N06  Dn0  v127
 BYTE   W01
 BYTE   VOL   109*PreludeFF5_mvl/mxv
 BYTE   W05
 BYTE   PAN   c_v+51
 BYTE   VOL   76*PreludeFF5_mvl/mxv
 BYTE   N06  En0  v127
 BYTE   W01
 BYTE   VOL   109*PreludeFF5_mvl/mxv
 BYTE   W05
 BYTE   PAN   c_v+48
 BYTE   VOL   76*PreludeFF5_mvl/mxv
 BYTE   N06  Fn0  v127
 BYTE   W01
 BYTE   VOL   109*PreludeFF5_mvl/mxv
 BYTE   W05
 BYTE   PAN   c_v+44
 BYTE   N06  An0  v127
 BYTE   W06
 BYTE   PAN   c_v+41
 BYTE   N06  Dn1  v127
 BYTE   W06
 BYTE   PAN   c_v+37
 BYTE   N06  En1  v127
 BYTE   W06
 BYTE   PAN   c_v+34
 BYTE   N06  Fn1  v127
 BYTE   W06
 BYTE   PAN   c_v+30
 BYTE   VOL   76*PreludeFF5_mvl/mxv
 BYTE   N06  An1  v121
 BYTE   W01
 BYTE   VOL   109*PreludeFF5_mvl/mxv
 BYTE   W05
 BYTE   PAN   c_v+27
 BYTE   N06  Dn2  v127
 BYTE   W06
 BYTE   PAN   c_v+23
 BYTE   N06  En2  v117
 BYTE   W06
 BYTE   PAN   c_v+19
 BYTE   N06  Fn2  v127
 BYTE   W06
 BYTE   PAN   c_v+16
 BYTE   N06  An2  v113
 BYTE   W06
 BYTE   PAN   c_v+12
 BYTE   N06  Dn3  v125
 BYTE   W06
 BYTE   PAN   c_v+9
 BYTE   N06  En3  v117
 BYTE   W06
 BYTE   PAN   c_v+5
 BYTE   N06  Fn3  v125
 BYTE   W06
 BYTE   PAN   c_v+2
 BYTE   N06  An3  v109
 BYTE   W06
//  #01 //003   ----------------------------------------
Label_01FDB304:
 BYTE   PAN   c_v-2
 BYTE   N06  Dn4  v117
 BYTE   W06
 BYTE   PAN   c_v-5
 BYTE   N06  An3  v113
 BYTE   W06
 BYTE   PAN   c_v-9
 BYTE   N06  Fn3  v125
 BYTE   W06
 BYTE   PAN   c_v-13
 BYTE   N06  En3  v113
 BYTE   W06
 BYTE   PAN   c_v-16
 BYTE   N06  Dn3  v125
 BYTE   W06
 BYTE   PAN   c_v-20
 BYTE   N06  An2  v117
 BYTE   W06
 BYTE   PAN   c_v-23
 BYTE   N06  Fn2  v127
 BYTE   W06
 BYTE   PAN   c_v-27
 BYTE   N06  En2  v117
 BYTE   W06
 BYTE   TEMPO   90*PreludeFF5_tbs/2
 BYTE   PAN   c_v-30
 BYTE   N06  Dn2  v127
 BYTE   W06
 BYTE   PAN   c_v-34
 BYTE   VOL   76*PreludeFF5_mvl/mxv
 BYTE   N06  An1  v125
 BYTE   W01
 BYTE   VOL   109*PreludeFF5_mvl/mxv
 BYTE   W05
 BYTE   PAN   c_v-37
 BYTE   N06  Fn1  v127
 BYTE   W06
 BYTE   PAN   c_v-41
 BYTE   N06  En1  v125
 BYTE   W06
 BYTE   PAN   c_v-44
 BYTE   N06  Dn1  v127
 BYTE   W06
 BYTE   PAN   c_v-48
 BYTE   N06  An0  v127
 BYTE   W06
 BYTE   PAN   c_v-52
 BYTE   N06  Fn0  v127
 BYTE   W06
 BYTE   PAN   c_v-55
 BYTE   N06  En0  v127
 BYTE   W06
 BYTE   PEND 
//  #01 //004   ----------------------------------------
 BYTE   TEMPO   92*PreludeFF5_tbs/2
 BYTE   Fn0  v127
 BYTE   W06
 BYTE   PAN   c_v-51
 BYTE   N06  Gn0  v127
 BYTE   W06
 BYTE   PAN   c_v-48
 BYTE   N06  An0  v127
 BYTE   W06
 BYTE   PAN   c_v-44
 BYTE   N06  Cn1  v127
 BYTE   W06
 BYTE   PAN   c_v-41
 BYTE   N06  Fn1  v127
 BYTE   W06
 BYTE   PAN   c_v-37
 BYTE   N06  Gn1  v127
 BYTE   W06
 BYTE   PAN   c_v-34
 BYTE   VOL   72*PreludeFF5_mvl/mxv
 BYTE   N06  An1  v127
 BYTE   W01
 BYTE   VOL   109*PreludeFF5_mvl/mxv
 BYTE   W05
 BYTE   PAN   c_v-30
 BYTE   N06  Cn2  v121
 BYTE   W06
 BYTE   PAN   c_v-26
 BYTE   N06  Fn2  v127
 BYTE   W06
 BYTE   PAN   c_v-23
 BYTE   N06  Gn2  v117
 BYTE   W06
 BYTE   PAN   c_v-19
 BYTE   N06  An2  v125
 BYTE   W06
 BYTE   PAN   c_v-16
 BYTE   N06  Cn3  v113
 BYTE   W06
 BYTE   PAN   c_v-12
 BYTE   N06  Fn3  v125
 BYTE   W06
 BYTE   PAN   c_v-9
 BYTE   N06  Gn3  v113
 BYTE   W06
 BYTE   PAN   c_v-5
 BYTE   N06  An3  v121
 BYTE   W06
 BYTE   PAN   c_v-2
 BYTE   N06  Cn4  v109
 BYTE   W06
//  #01 //005   ----------------------------------------
 BYTE   PAN   c_v+2
 BYTE   N06  Fn4  v117
 BYTE   W06
 BYTE   PAN   c_v+5
 BYTE   N06  Cn4  v113
 BYTE   W06
 BYTE   PAN   c_v+9
 BYTE   N06  An3  v121
 BYTE   W06
 BYTE   PAN   c_v+13
 BYTE   N06  Gn3  v109
 BYTE   W06
 BYTE   PAN   c_v+16
 BYTE   N06  Fn3  v125
 BYTE   W06
 BYTE   PAN   c_v+20
 BYTE   N06  Cn3  v117
 BYTE   W06
 BYTE   PAN   c_v+23
 BYTE   N06  An2  v125
 BYTE   W06
 BYTE   PAN   c_v+27
 BYTE   N06  Gn2  v117
 BYTE   W06
 BYTE   PAN   c_v+30
 BYTE   N06  Fn2  v127
 BYTE   W06
 BYTE   PAN   c_v+34
 BYTE   N06  Cn2  v125
 BYTE   W06
 BYTE   PAN   c_v+37
 BYTE   VOL   76*PreludeFF5_mvl/mxv
 BYTE   N06  An1  v127
 BYTE   W01
 BYTE   VOL   109*PreludeFF5_mvl/mxv
 BYTE   W05
 BYTE   PAN   c_v+41
 BYTE   N06  Gn1  v125
 BYTE   W06
 BYTE   PAN   c_v+45
 BYTE   N06  Fn1  v127
 BYTE   W06
 BYTE   PAN   c_v+48
 BYTE   N06  Cn1  v127
 BYTE   W06
 BYTE   PAN   c_v+52
 BYTE   N06  An0  v127
 BYTE   W06
 BYTE   PAN   c_v+55
 BYTE   N06  Gn0  v127
 BYTE   W06
//  #01 //006   ----------------------------------------
 BYTE   VOL   76*PreludeFF5_mvl/mxv
 BYTE   N06  Dn0  v127
 BYTE   W01
 BYTE   VOL   109*PreludeFF5_mvl/mxv
 BYTE   W05
 BYTE   PAN   c_v+51
 BYTE   VOL   76*PreludeFF5_mvl/mxv
 BYTE   N06  En0  v127
 BYTE   W01
 BYTE   VOL   109*PreludeFF5_mvl/mxv
 BYTE   W05
 BYTE   PAN   c_v+48
 BYTE   VOL   76*PreludeFF5_mvl/mxv
 BYTE   N06  Fn0  v127
 BYTE   W01
 BYTE   VOL   109*PreludeFF5_mvl/mxv
 BYTE   W05
 BYTE   PAN   c_v+44
 BYTE   N06  An0  v127
 BYTE   W06
 BYTE   PAN   c_v+41
 BYTE   N06  Dn1  v127
 BYTE   W06
 BYTE   PAN   c_v+37
 BYTE   N06  En1  v127
 BYTE   W06
 BYTE   PAN   c_v+34
 BYTE   N06  Fn1  v127
 BYTE   W06
 BYTE   PAN   c_v+30
 BYTE   VOL   76*PreludeFF5_mvl/mxv
 BYTE   N06  An1  v121
 BYTE   W01
 BYTE   VOL   109*PreludeFF5_mvl/mxv
 BYTE   W05
 BYTE   PAN   c_v+27
 BYTE   N06  Dn2  v127
 BYTE   W06
 BYTE   PAN   c_v+23
 BYTE   N06  En2  v117
 BYTE   W06
 BYTE   PAN   c_v+19
 BYTE   N06  Fn2  v127
 BYTE   W06
 BYTE   PAN   c_v+16
 BYTE   N06  An2  v113
 BYTE   W06
 BYTE   PAN   c_v+12
 BYTE   N06  Dn3  v125
 BYTE   W06
 BYTE   PAN   c_v+9
 BYTE   N06  En3  v117
 BYTE   W06
 BYTE   PAN   c_v+5
 BYTE   N06  Fn3  v125
 BYTE   W06
 BYTE   PAN   c_v+2
 BYTE   N06  An3  v109
 BYTE   W06
//  #01 //007   ----------------------------------------
 BYTE   PATT
  POIN2 Label_01FDB304
//  #01 //008   ----------------------------------------
 BYTE   TEMPO   92*PreludeFF5_tbs/2
 BYTE   N06  Dn0  v127
 BYTE   W06
 BYTE   PAN   c_v-51
 BYTE   N06  Fn0  v127
 BYTE   W06
 BYTE   PAN   c_v-48
 BYTE   N06  As0  v127
 BYTE   W06
 BYTE   PAN   c_v-44
 BYTE   N06  Cn1  v127
 BYTE   W06
 BYTE   PAN   c_v-41
 BYTE   N06  Dn1  v127
 BYTE   W06
 BYTE   PAN   c_v-37
 BYTE   N06  Fn1  v127
 BYTE   W06
 BYTE   PAN   c_v-34
 BYTE   N06  As1  v127
 BYTE   W06
 BYTE   PAN   c_v-30
 BYTE   N06  Cn2  v121
 BYTE   W06
 BYTE   PAN   c_v-26
 BYTE   N06  Dn2  v127
 BYTE   W06
 BYTE   PAN   c_v-23
 BYTE   N06  Fn2  v117
 BYTE   W06
 BYTE   PAN   c_v-19
 BYTE   N06  As2  v125
 BYTE   W06
 BYTE   PAN   c_v-16
 BYTE   N06  Cn3  v113
 BYTE   W06
 BYTE   PAN   c_v-12
 BYTE   N06  Dn3  v125
 BYTE   W06
 BYTE   PAN   c_v-9
 BYTE   N06  Fn3  v117
 BYTE   W06
 BYTE   PAN   c_v-5
 BYTE   N06  As3  v121
 BYTE   W06
 BYTE   PAN   c_v-2
 BYTE   N06  Cn4  v109
 BYTE   W06
//  #01 //009   ----------------------------------------
 BYTE   PAN   c_v+2
 BYTE   N06  Dn4  v125
 BYTE   W06
 BYTE   PAN   c_v+5
 BYTE   N06  Cn4  v117
 BYTE   W06
 BYTE   PAN   c_v+9
 BYTE   N06  As3  v125
 BYTE   W06
 BYTE   PAN   c_v+13
 BYTE   N06  Fn3  v117
 BYTE   W06
 BYTE   PAN   c_v+16
 BYTE   N06  Dn3  v127
 BYTE   W06
 BYTE   PAN   c_v+20
 BYTE   N06  Cn3  v121
 BYTE   W06
 BYTE   PAN   c_v+23
 BYTE   N06  As2  v127
 BYTE   W06
 BYTE   PAN   c_v+27
 BYTE   N06  Fn2  v117
 BYTE   W06
 BYTE   PAN   c_v+30
 BYTE   N06  Dn2  v127
 BYTE   W06
 BYTE   PAN   c_v+34
 BYTE   N06  Cn2  v127
 BYTE   W06
 BYTE   PAN   c_v+37
 BYTE   N06  As1  v127
 BYTE   W06
 BYTE   PAN   c_v+41
 BYTE   N06  Fn1  v127
 BYTE   W06
 BYTE   PAN   c_v+45
 BYTE   N06  Dn1  v127
 BYTE   W06
 BYTE   PAN   c_v+48
 BYTE   N06  Cn1  v127
 BYTE   W06
 BYTE   PAN   c_v+52
 BYTE   N06  As0  v127
 BYTE   W06
 BYTE   PAN   c_v+55
 BYTE   N06  Fn0  v127
 BYTE   W06
//  #01 //010   ----------------------------------------
 BYTE   En0  v127
 BYTE   W06
 BYTE   PAN   c_v+51
 BYTE   N06  Gn0  v127
 BYTE   W06
 BYTE   PAN   c_v+48
 BYTE   N06  Cn1  v127
 BYTE   W06
 BYTE   PAN   c_v+44
 BYTE   N06  Dn1  v127
 BYTE   W06
 BYTE   PAN   c_v+41
 BYTE   N06  En1  v127
 BYTE   W06
 BYTE   PAN   c_v+37
 BYTE   N06  Gn1  v127
 BYTE   W06
 BYTE   PAN   c_v+34
 BYTE   N06  Cn2  v127
 BYTE   W06
 BYTE   PAN   c_v+30
 BYTE   N06  Dn2  v125
 BYTE   W06
 BYTE   PAN   c_v+27
 BYTE   N06  En2  v127
 BYTE   W06
 BYTE   PAN   c_v+23
 BYTE   N06  Gn2  v125
 BYTE   W06
 BYTE   PAN   c_v+19
 BYTE   N06  Cn3  v127
 BYTE   W06
 BYTE   PAN   c_v+16
 BYTE   N06  Dn3  v117
 BYTE   W06
 BYTE   PAN   c_v+12
 BYTE   N06  En3  v127
 BYTE   W06
 BYTE   PAN   c_v+9
 BYTE   N06  Gn3  v117
 BYTE   W06
 BYTE   PAN   c_v+5
 BYTE   N06  Cn4  v125
 BYTE   W06
 BYTE   PAN   c_v+2
 BYTE   N06  Dn4  v113
 BYTE   W06
//  #01 //011   ----------------------------------------
 BYTE   PAN   c_v-2
 BYTE   N06  En4  v121
 BYTE   W06
 BYTE   PAN   c_v-5
 BYTE   N06  Dn4  v117
 BYTE   W06
 BYTE   PAN   c_v-9
 BYTE   N06  Cn4  v125
 BYTE   W06
 BYTE   PAN   c_v-13
 BYTE   N06  Gn3  v113
 BYTE   W06
 BYTE   PAN   c_v-16
 BYTE   N06  En3  v127
 BYTE   W06
 BYTE   PAN   c_v-20
 BYTE   N06  Dn3  v117
 BYTE   W06
 BYTE   PAN   c_v-23
 BYTE   N06  Cn3  v127
 BYTE   W06
 BYTE   PAN   c_v-27
 BYTE   N06  Gn2  v117
 BYTE   W06
 BYTE   TEMPO   90*PreludeFF5_tbs/2
 BYTE   PAN   c_v-30
 BYTE   N06  En2  v127
 BYTE   W06
 BYTE   PAN   c_v-34
 BYTE   N06  Dn2  v127
 BYTE   W06
 BYTE   PAN   c_v-37
 BYTE   N06  Cn2  v127
 BYTE   W06
 BYTE   PAN   c_v-41
 BYTE   N06  Gn1  v127
 BYTE   W06
 BYTE   PAN   c_v-44
 BYTE   N06  En1  v127
 BYTE   W06
 BYTE   PAN   c_v-48
 BYTE   N06  Dn1  v127
 BYTE   W06
 BYTE   PAN   c_v-52
 BYTE   N06  Cn1  v127
 BYTE   W06
 BYTE   PAN   c_v-55
 BYTE   N06  Gn0  v127
 BYTE   W06
//  #01 //012   ----------------------------------------
 BYTE   TEMPO   92*PreludeFF5_tbs/2
 BYTE   Cs0  v127
 BYTE   W06
 BYTE   PAN   c_v-51
 BYTE   N06  Fn0  v127
 BYTE   W06
 BYTE   PAN   c_v-48
 BYTE   N06  Gs0  v127
 BYTE   W06
 BYTE   PAN   c_v-44
 BYTE   N06  Cn1  v127
 BYTE   W06
 BYTE   PAN   c_v-41
 BYTE   VOL   76*PreludeFF5_mvl/mxv
 BYTE   N06  Cs1  v127
 BYTE   W01
 BYTE   VOL   109*PreludeFF5_mvl/mxv
 BYTE   W05
 BYTE   PAN   c_v-37
 BYTE   N06  Fn1  v127
 BYTE   W06
 BYTE   PAN   c_v-34
 BYTE   VOL   76*PreludeFF5_mvl/mxv
 BYTE   N06  Gs1  v127
 BYTE   W01
 BYTE   VOL   109*PreludeFF5_mvl/mxv
 BYTE   W05
 BYTE   PAN   c_v-30
 BYTE   N06  Cn2  v127
 BYTE   W06
 BYTE   PAN   c_v-26
 BYTE   N06  Cs2  v127
 BYTE   W06
 BYTE   PAN   c_v-23
 BYTE   N06  Fn2  v127
 BYTE   W06
 BYTE   PAN   c_v-19
 BYTE   N06  Gs2  v127
 BYTE   W06
 BYTE   PAN   c_v-16
 BYTE   N06  Cn3  v121
 BYTE   W06
 BYTE   PAN   c_v-12
 BYTE   N06  Cs3  v127
 BYTE   W06
 BYTE   PAN   c_v-9
 BYTE   N06  Fn3  v125
 BYTE   W06
 BYTE   PAN   c_v-5
 BYTE   N06  Gs3  v127
 BYTE   W06
 BYTE   PAN   c_v-2
 BYTE   N06  Cn4  v117
 BYTE   W06
//  #01 //013   ----------------------------------------
 BYTE   PAN   c_v+2
 BYTE   N06  Cs4  v127
 BYTE   W06
 BYTE   PAN   c_v+5
 BYTE   N06  Cn4  v121
 BYTE   W06
 BYTE   PAN   c_v+9
 BYTE   N06  Gs3  v127
 BYTE   W06
 BYTE   PAN   c_v+13
 BYTE   N06  Fn3  v117
 BYTE   W06
 BYTE   PAN   c_v+16
 BYTE   N06  Cs3  v127
 BYTE   W06
 BYTE   PAN   c_v+20
 BYTE   N06  Cn3  v125
 BYTE   W06
 BYTE   PAN   c_v+23
 BYTE   N06  Gs2  v127
 BYTE   W06
 BYTE   PAN   c_v+27
 BYTE   N06  Fn2  v125
 BYTE   W06
 BYTE   PAN   c_v+30
 BYTE   N06  Cs2  v127
 BYTE   W06
 BYTE   PAN   c_v+34
 BYTE   N06  Cn2  v127
 BYTE   W06
 BYTE   PAN   c_v+37
 BYTE   VOL   76*PreludeFF5_mvl/mxv
 BYTE   N06  Gs1  v127
 BYTE   W01
 BYTE   VOL   109*PreludeFF5_mvl/mxv
 BYTE   W05
 BYTE   PAN   c_v+41
 BYTE   N06  Fn1  v127
 BYTE   W06
 BYTE   PAN   c_v+45
 BYTE   VOL   76*PreludeFF5_mvl/mxv
 BYTE   N06  Cs1  v127
 BYTE   W01
 BYTE   VOL   109*PreludeFF5_mvl/mxv
 BYTE   W05
 BYTE   PAN   c_v+48
 BYTE   N06  Cn1  v127
 BYTE   W06
 BYTE   PAN   c_v+52
 BYTE   N06  Gs0  v127
 BYTE   W06
 BYTE   PAN   c_v+55
 BYTE   N06  Fn0  v127
 BYTE   W06
//  #01 //014   ----------------------------------------
 BYTE   Ds0  v127
 BYTE   W06
 BYTE   PAN   c_v+51
 BYTE   N06  Gn0  v127
 BYTE   W06
 BYTE   PAN   c_v+48
 BYTE   N06  As0  v127
 BYTE   W06
 BYTE   PAN   c_v+44
 BYTE   N06  Dn1  v127
 BYTE   W06
 BYTE   PAN   c_v+41
 BYTE   N06  Ds1  v127
 BYTE   W06
 BYTE   PAN   c_v+37
 BYTE   N06  Gn1  v127
 BYTE   W06
 BYTE   PAN   c_v+34
 BYTE   N06  As1  v127
 BYTE   W06
 BYTE   PAN   c_v+30
 BYTE   N06  Dn2  v125
 BYTE   W06
 BYTE   PAN   c_v+27
 BYTE   N06  Ds2  v127
 BYTE   W06
 BYTE   PAN   c_v+23
 BYTE   N06  Gn2  v125
 BYTE   W06
 BYTE   PAN   c_v+19
 BYTE   N06  As2  v127
 BYTE   W06
 BYTE   PAN   c_v+16
 BYTE   N06  Dn3  v117
 BYTE   W06
 BYTE   PAN   c_v+12
 BYTE   N06  Ds3  v127
 BYTE   W06
 BYTE   PAN   c_v+9
 BYTE   N06  Gn3  v117
 BYTE   W06
 BYTE   PAN   c_v+5
 BYTE   N06  As3  v125
 BYTE   W06
 BYTE   PAN   c_v+2
 BYTE   N06  Dn4  v113
 BYTE   W06
//  #01 //015   ----------------------------------------
 BYTE   PAN   c_v-2
 BYTE   N06  Ds4  v121
 BYTE   W06
 BYTE   PAN   c_v-5
 BYTE   N06  Dn4  v117
 BYTE   W06
 BYTE   PAN   c_v-9
 BYTE   N06  As3  v125
 BYTE   W06
 BYTE   PAN   c_v-13
 BYTE   N06  Gn3  v113
 BYTE   W06
 BYTE   PAN   c_v-16
 BYTE   N06  Ds3  v127
 BYTE   W06
 BYTE   PAN   c_v-20
 BYTE   N06  Dn3  v117
 BYTE   W06
 BYTE   PAN   c_v-23
 BYTE   N06  As2  v127
 BYTE   W06
 BYTE   PAN   c_v-27
 BYTE   N06  Gn2  v117
 BYTE   W06
 BYTE   TEMPO   90*PreludeFF5_tbs/2
 BYTE   PAN   c_v-30
 BYTE   N06  Ds2  v127
 BYTE   W06
 BYTE   PAN   c_v-34
 BYTE   N06  Dn2  v127
 BYTE   W06
 BYTE   PAN   c_v-37
 BYTE   N06  As1  v127
 BYTE   W06
 BYTE   PAN   c_v-41
 BYTE   N06  Gn1  v127
 BYTE   W06
 BYTE   PAN   c_v-44
 BYTE   N06  Ds1  v127
 BYTE   W06
 BYTE   PAN   c_v-48
 BYTE   N06  Dn1  v127
 BYTE   W06
 BYTE   PAN   c_v-52
 BYTE   N06  As0  v127
 BYTE   W06
 BYTE   PAN   c_v-55
 BYTE   N07  Gn0  v127
 BYTE   W06
//  #01 //016   ----------------------------------------
Label_01FDB7BD:
 BYTE   TEMPO   92*PreludeFF5_tbs/2
 BYTE   N06  Fn0  v127
 BYTE   W06
 BYTE   PAN   c_v-51
 BYTE   N06  Gn0
 BYTE   W06
 BYTE   PAN   c_v-48
 BYTE   N06  An0  v127
 BYTE   W06
 BYTE   PAN   c_v-44
 BYTE   N06  Cn1  v125
 BYTE   W06
 BYTE   PAN   c_v-41
 BYTE   N06  Fn1  v127
 BYTE   W06
 BYTE   PAN   c_v-37
 BYTE   N06  Gn1  v125
 BYTE   W06
 BYTE   PAN   c_v-34
 BYTE   VOL   72*PreludeFF5_mvl/mxv
 BYTE   N06  An1  v127
 BYTE   W01
 BYTE   VOL   109*PreludeFF5_mvl/mxv
 BYTE   W05
 BYTE   PAN   c_v-30
 BYTE   N06  Cn2  v121
 BYTE   W06
 BYTE   PAN   c_v-26
 BYTE   N06  Fn2  v125
 BYTE   W06
 BYTE   PAN   c_v-23
 BYTE   N06  Gn2  v117
 BYTE   W06
 BYTE   PAN   c_v-19
 BYTE   N06  An2  v125
 BYTE   W06
 BYTE   PAN   c_v-16
 BYTE   N06  Cn3  v113
 BYTE   W06
 BYTE   PAN   c_v-12
 BYTE   N06  Fn3  v125
 BYTE   W06
 BYTE   PAN   c_v-9
 BYTE   N06  Gn3  v113
 BYTE   W06
 BYTE   PAN   c_v-5
 BYTE   N06  An3  v121
 BYTE   W06
 BYTE   PAN   c_v-2
 BYTE   N06  Cn4  v109
 BYTE   W06
//  #01 //017   ----------------------------------------
 BYTE   PAN   c_v+2
 BYTE   N06  Fn4  v117
 BYTE   W06
 BYTE   PAN   c_v+5
 BYTE   N06  Cn4  v113
 BYTE   W06
 BYTE   PAN   c_v+9
 BYTE   N06  An3  v121
 BYTE   W06
 BYTE   PAN   c_v+13
 BYTE   N06  Gn3  v109
 BYTE   W06
 BYTE   PAN   c_v+16
 BYTE   N06  Fn3  v125
 BYTE   W06
 BYTE   PAN   c_v+20
 BYTE   N06  Cn3  v117
 BYTE   W06
 BYTE   PAN   c_v+23
 BYTE   N06  An2  v125
 BYTE   W06
 BYTE   PAN   c_v+27
 BYTE   N06  Gn2  v117
 BYTE   W06
 BYTE   PAN   c_v+30
 BYTE   N06  Fn2  v125
 BYTE   W06
 BYTE   PAN   c_v+34
 BYTE   N06  Cn2
 BYTE   W06
 BYTE   PAN   c_v+37
 BYTE   VOL   76*PreludeFF5_mvl/mxv
 BYTE   N06  An1  v127
 BYTE   W01
 BYTE   VOL   109*PreludeFF5_mvl/mxv
 BYTE   W05
 BYTE   PAN   c_v+41
 BYTE   N06  Gn1  v125
 BYTE   W06
 BYTE   PAN   c_v+45
 BYTE   N06  Fn1  v127
 BYTE   W06
 BYTE   PAN   c_v+48
 BYTE   N06  Cn1  v127
 BYTE   W06
 BYTE   PAN   c_v+52
 BYTE   N06  An0  v127
 BYTE   W06
 BYTE   PAN   c_v+55
 BYTE   N05  Gn0  v125
 BYTE   W06
//  #01 //018   ----------------------------------------
 BYTE   N06  Dn0  v127
 BYTE   W06
 BYTE   PAN   c_v+51
 BYTE   N06  En0
 BYTE   W06
 BYTE   PAN   c_v+48
 BYTE   N06  Fn0  v127
 BYTE   W06
 BYTE   PAN   c_v+44
 BYTE   N06  An0  v125
 BYTE   W06
 BYTE   PAN   c_v+41
 BYTE   N06  Dn1  v127
 BYTE   W06
 BYTE   PAN   c_v+37
 BYTE   N06  En1  v125
 BYTE   W06
 BYTE   PAN   c_v+34
 BYTE   N06  Fn1  v127
 BYTE   W06
 BYTE   PAN   c_v+30
 BYTE   VOL   76*PreludeFF5_mvl/mxv
 BYTE   N06  An1  v121
 BYTE   W01
 BYTE   VOL   109*PreludeFF5_mvl/mxv
 BYTE   W05
 BYTE   PAN   c_v+27
 BYTE   N06  Dn2  v127
 BYTE   W06
 BYTE   PAN   c_v+23
 BYTE   N06  En2  v117
 BYTE   W06
 BYTE   PAN   c_v+19
 BYTE   N06  Fn2  v125
 BYTE   W06
 BYTE   PAN   c_v+16
 BYTE   N06  An2  v113
 BYTE   W06
 BYTE   PAN   c_v+12
 BYTE   N06  Dn3  v125
 BYTE   W06
 BYTE   PAN   c_v+9
 BYTE   N06  En3  v117
 BYTE   W06
 BYTE   PAN   c_v+5
 BYTE   N06  Fn3  v125
 BYTE   W06
 BYTE   PAN   c_v+2
 BYTE   N06  An3  v109
 BYTE   W06
//  #01 //019   ----------------------------------------
Label_01FDB8E7:
 BYTE   PAN   c_v-2
 BYTE   N06  Dn4  v117
 BYTE   W06
 BYTE   PAN   c_v-5
 BYTE   N06  An3  v113
 BYTE   W06
 BYTE   PAN   c_v-9
 BYTE   N06  Fn3  v125
 BYTE   W06
 BYTE   PAN   c_v-13
 BYTE   N06  En3  v113
 BYTE   W06
 BYTE   PAN   c_v-16
 BYTE   N06  Dn3  v125
 BYTE   W06
 BYTE   PAN   c_v-20
 BYTE   N06  An2  v117
 BYTE   W06
 BYTE   PAN   c_v-23
 BYTE   N06  Fn2  v125
 BYTE   W06
 BYTE   PAN   c_v-27
 BYTE   N06  En2  v117
 BYTE   W06
 BYTE   PAN   c_v-30
 BYTE   N06  Dn2  v127
 BYTE   W06
 BYTE   PAN   c_v-34
 BYTE   VOL   76*PreludeFF5_mvl/mxv
 BYTE   N06  An1  v121
 BYTE   W01
 BYTE   VOL   109*PreludeFF5_mvl/mxv
 BYTE   W05
 BYTE   PAN   c_v-37
 BYTE   N06  Fn1  v127
 BYTE   W06
 BYTE   PAN   c_v-41
 BYTE   N06  En1  v121
 BYTE   W06
 BYTE   PAN   c_v-44
 BYTE   N06  Dn1  v127
 BYTE   W06
 BYTE   PAN   c_v-48
 BYTE   N06  An0  v125
 BYTE   W06
 BYTE   PAN   c_v-52
 BYTE   N06  Fn0  v127
 BYTE   W06
 BYTE   PAN   c_v-55
 BYTE   N07  En0  v125
 BYTE   W06
 BYTE   PEND 
//  #01 //020   ----------------------------------------
 BYTE   N06  Fn0  v127
 BYTE   W06
 BYTE   PAN   c_v-51
 BYTE   N06  Gn0
 BYTE   W06
 BYTE   PAN   c_v-48
 BYTE   N06  An0  v127
 BYTE   W06
 BYTE   PAN   c_v-44
 BYTE   N06  Cn1  v125
 BYTE   W06
 BYTE   PAN   c_v-41
 BYTE   N06  Fn1  v127
 BYTE   W06
 BYTE   PAN   c_v-37
 BYTE   N06  Gn1  v125
 BYTE   W06
 BYTE   PAN   c_v-34
 BYTE   VOL   72*PreludeFF5_mvl/mxv
 BYTE   N06  An1  v127
 BYTE   W01
 BYTE   VOL   109*PreludeFF5_mvl/mxv
 BYTE   W05
 BYTE   PAN   c_v-30
 BYTE   N06  Cn2  v121
 BYTE   W06
 BYTE   PAN   c_v-26
 BYTE   N06  Fn2  v125
 BYTE   W06
 BYTE   PAN   c_v-23
 BYTE   N06  Gn2  v117
 BYTE   W06
 BYTE   PAN   c_v-19
 BYTE   N06  An2  v125
 BYTE   W06
 BYTE   PAN   c_v-16
 BYTE   N06  Cn3  v113
 BYTE   W06
 BYTE   PAN   c_v-12
 BYTE   N06  Fn3  v125
 BYTE   W06
 BYTE   PAN   c_v-9
 BYTE   N06  Gn3  v113
 BYTE   W06
 BYTE   PAN   c_v-5
 BYTE   N06  An3  v121
 BYTE   W06
 BYTE   PAN   c_v-2
 BYTE   N06  Cn4  v109
 BYTE   W06
//  #01 //021   ----------------------------------------
 BYTE   PAN   c_v+2
 BYTE   N06  Fn4  v117
 BYTE   W06
 BYTE   PAN   c_v+5
 BYTE   N06  Cn4  v113
 BYTE   W06
 BYTE   PAN   c_v+9
 BYTE   N06  An3  v121
 BYTE   W06
 BYTE   PAN   c_v+13
 BYTE   N06  Gn3  v109
 BYTE   W06
 BYTE   PAN   c_v+16
 BYTE   N06  Fn3  v125
 BYTE   W06
 BYTE   PAN   c_v+20
 BYTE   N06  Cn3  v117
 BYTE   W06
 BYTE   PAN   c_v+23
 BYTE   N06  An2  v125
 BYTE   W06
 BYTE   PAN   c_v+27
 BYTE   N06  Gn2  v117
 BYTE   W06
 BYTE   PAN   c_v+30
 BYTE   N06  Fn2  v125
 BYTE   W06
 BYTE   PAN   c_v+34
 BYTE   N06  Cn2
 BYTE   W06
 BYTE   PAN   c_v+37
 BYTE   VOL   76*PreludeFF5_mvl/mxv
 BYTE   N06  An1  v127
 BYTE   W01
 BYTE   VOL   109*PreludeFF5_mvl/mxv
 BYTE   W05
 BYTE   PAN   c_v+41
 BYTE   N06  Gn1  v125
 BYTE   W06
 BYTE   PAN   c_v+45
 BYTE   N06  Fn1  v127
 BYTE   W06
 BYTE   PAN   c_v+48
 BYTE   N06  Cn1  v127
 BYTE   W06
 BYTE   PAN   c_v+52
 BYTE   N06  An0  v127
 BYTE   W06
 BYTE   PAN   c_v+55
 BYTE   N06  Gn0  v125
 BYTE   W06
//  #01 //022   ----------------------------------------
 BYTE   Dn0  v127
 BYTE   W06
 BYTE   PAN   c_v+51
 BYTE   N06  En0
 BYTE   W06
 BYTE   PAN   c_v+48
 BYTE   N06  Fn0  v127
 BYTE   W06
 BYTE   PAN   c_v+44
 BYTE   N06  An0  v125
 BYTE   W06
 BYTE   PAN   c_v+41
 BYTE   N06  Dn1  v127
 BYTE   W06
 BYTE   PAN   c_v+37
 BYTE   N06  En1  v125
 BYTE   W06
 BYTE   PAN   c_v+34
 BYTE   N06  Fn1  v127
 BYTE   W06
 BYTE   PAN   c_v+30
 BYTE   VOL   76*PreludeFF5_mvl/mxv
 BYTE   N06  An1  v121
 BYTE   W01
 BYTE   VOL   109*PreludeFF5_mvl/mxv
 BYTE   W05
 BYTE   PAN   c_v+27
 BYTE   N06  Dn2  v127
 BYTE   W06
 BYTE   PAN   c_v+23
 BYTE   N06  En2  v117
 BYTE   W06
 BYTE   PAN   c_v+19
 BYTE   N06  Fn2  v125
 BYTE   W06
 BYTE   PAN   c_v+16
 BYTE   N06  An2  v113
 BYTE   W06
 BYTE   PAN   c_v+12
 BYTE   N06  Dn3  v125
 BYTE   W06
 BYTE   PAN   c_v+9
 BYTE   N06  En3  v117
 BYTE   W06
 BYTE   PAN   c_v+5
 BYTE   N06  Fn3  v125
 BYTE   W06
 BYTE   PAN   c_v+2
 BYTE   N06  An3  v109
 BYTE   W06
//  #01 //023   ----------------------------------------
 BYTE   PATT
  POIN2 Label_01FDB8E7
//  #01 //024   ----------------------------------------
 BYTE   N06  Dn0  v127
 BYTE   W06
 BYTE   PAN   c_v-51
 BYTE   N06  Fn0
 BYTE   W06
 BYTE   PAN   c_v-48
 BYTE   N06  As0  v127
 BYTE   W06
 BYTE   PAN   c_v-44
 BYTE   N06  Cn1  v125
 BYTE   W06
 BYTE   PAN   c_v-41
 BYTE   N06  Dn1  v127
 BYTE   W06
 BYTE   PAN   c_v-37
 BYTE   N06  Fn1  v125
 BYTE   W06
 BYTE   PAN   c_v-34
 BYTE   N06  As1  v127
 BYTE   W06
 BYTE   PAN   c_v-30
 BYTE   N06  Cn2  v121
 BYTE   W06
 BYTE   PAN   c_v-26
 BYTE   N06  Dn2  v127
 BYTE   W06
 BYTE   PAN   c_v-23
 BYTE   N06  Fn2  v117
 BYTE   W06
 BYTE   PAN   c_v-19
 BYTE   N06  As2  v125
 BYTE   W06
 BYTE   PAN   c_v-16
 BYTE   N06  Cn3  v113
 BYTE   W06
 BYTE   PAN   c_v-12
 BYTE   N06  Dn3  v125
 BYTE   W06
 BYTE   PAN   c_v-9
 BYTE   N06  Fn3  v117
 BYTE   W06
 BYTE   PAN   c_v-5
 BYTE   N06  As3  v121
 BYTE   W06
 BYTE   PAN   c_v-2
 BYTE   N06  Cn4  v109
 BYTE   W06
//  #01 //025   ----------------------------------------
 BYTE   PAN   c_v+2
 BYTE   N06  Dn4  v117
 BYTE   W06
 BYTE   PAN   c_v+5
 BYTE   N06  Cn4  v113
 BYTE   W06
 BYTE   PAN   c_v+9
 BYTE   N06  As3  v121
 BYTE   W06
 BYTE   PAN   c_v+13
 BYTE   N06  Fn3  v113
 BYTE   W06
 BYTE   PAN   c_v+16
 BYTE   N06  Dn3  v125
 BYTE   W06
 BYTE   PAN   c_v+20
 BYTE   N06  Cn3  v117
 BYTE   W06
 BYTE   PAN   c_v+23
 BYTE   N06  As2  v125
 BYTE   W06
 BYTE   PAN   c_v+27
 BYTE   N06  Fn2  v117
 BYTE   W06
 BYTE   PAN   c_v+30
 BYTE   N06  Dn2  v127
 BYTE   W06
 BYTE   PAN   c_v+34
 BYTE   N06  Cn2  v125
 BYTE   W06
 BYTE   PAN   c_v+37
 BYTE   N06  As1  v127
 BYTE   W06
 BYTE   PAN   c_v+41
 BYTE   N06  Fn1  v125
 BYTE   W06
 BYTE   PAN   c_v+45
 BYTE   N06  Dn1  v127
 BYTE   W06
 BYTE   PAN   c_v+48
 BYTE   N06  Cn1  v127
 BYTE   W06
 BYTE   PAN   c_v+52
 BYTE   N06  As0  v127
 BYTE   W06
 BYTE   PAN   c_v+55
 BYTE   N06  Fn0  v125
 BYTE   W06
//  #01 //026   ----------------------------------------
 BYTE   En0
 BYTE   W06
 BYTE   PAN   c_v+51
 BYTE   N06  Gn0
 BYTE   W06
 BYTE   PAN   c_v+48
 BYTE   N06  Cn1  v127
 BYTE   W06
 BYTE   PAN   c_v+44
 BYTE   N06  Dn1  v121
 BYTE   W06
 BYTE   PAN   c_v+41
 BYTE   N06  En1  v127
 BYTE   W06
 BYTE   PAN   c_v+37
 BYTE   N06  Gn1  v125
 BYTE   W06
 BYTE   PAN   c_v+34
 BYTE   N06  Cn2  v127
 BYTE   W06
 BYTE   PAN   c_v+30
 BYTE   N06  Dn2  v117
 BYTE   W06
 BYTE   PAN   c_v+27
 BYTE   N06  En2  v125
 BYTE   W06
 BYTE   PAN   c_v+23
 BYTE   N06  Gn2  v117
 BYTE   W06
 BYTE   PAN   c_v+19
 BYTE   N06  Cn3  v125
 BYTE   W06
 BYTE   PAN   c_v+16
 BYTE   N06  Dn3  v113
 BYTE   W06
 BYTE   PAN   c_v+12
 BYTE   N06  En3  v125
 BYTE   W06
 BYTE   PAN   c_v+9
 BYTE   N06  Gn3  v113
 BYTE   W06
 BYTE   PAN   c_v+5
 BYTE   N06  Cn4  v117
 BYTE   W06
 BYTE   PAN   c_v+2
 BYTE   N06  Dn4  v109
 BYTE   W06
//  #01 //027   ----------------------------------------
 BYTE   PAN   c_v-2
 BYTE   N06  En4  v117
 BYTE   W06
 BYTE   PAN   c_v-5
 BYTE   N06  Dn4  v113
 BYTE   W06
 BYTE   PAN   c_v-9
 BYTE   N06  Cn4  v117
 BYTE   W06
 BYTE   PAN   c_v-13
 BYTE   N06  Gn3  v109
 BYTE   W06
 BYTE   PAN   c_v-16
 BYTE   N06  En3  v125
 BYTE   W06
 BYTE   PAN   c_v-20
 BYTE   N06  Dn3  v117
 BYTE   W06
 BYTE   PAN   c_v-23
 BYTE   N06  Cn3  v125
 BYTE   W06
 BYTE   PAN   c_v-27
 BYTE   N06  Gn2  v117
 BYTE   W06
 BYTE   PAN   c_v-30
 BYTE   N06  En2  v125
 BYTE   W06
 BYTE   PAN   c_v-34
 BYTE   N06  Dn2
 BYTE   W06
 BYTE   PAN   c_v-37
 BYTE   N06  Cn2  v127
 BYTE   W06
 BYTE   PAN   c_v-41
 BYTE   N06  Gn1  v125
 BYTE   W06
 BYTE   PAN   c_v-44
 BYTE   N06  En1  v127
 BYTE   W06
 BYTE   PAN   c_v-48
 BYTE   N06  Dn1  v125
 BYTE   W06
 BYTE   PAN   c_v-52
 BYTE   N06  Cn1  v127
 BYTE   W06
 BYTE   PAN   c_v-55
 BYTE   N06  Gn0  v125
 BYTE   W06
//  #01 //028   ----------------------------------------
 BYTE   Cs0  v127
 BYTE   W06
 BYTE   PAN   c_v-51
 BYTE   N06  Fn0  v127
 BYTE   W06
 BYTE   PAN   c_v-48
 BYTE   N06  Gs0  v127
 BYTE   W06
 BYTE   PAN   c_v-44
 BYTE   N06  Cn1  v125
 BYTE   W06
 BYTE   PAN   c_v-41
 BYTE   VOL   76*PreludeFF5_mvl/mxv
 BYTE   N06  Cs1  v127
 BYTE   W01
 BYTE   VOL   109*PreludeFF5_mvl/mxv
 BYTE   W05
 BYTE   PAN   c_v-37
 BYTE   N06  Fn1  v125
 BYTE   W06
 BYTE   PAN   c_v-34
 BYTE   VOL   76*PreludeFF5_mvl/mxv
 BYTE   N06  Gs1  v127
 BYTE   W01
 BYTE   VOL   109*PreludeFF5_mvl/mxv
 BYTE   W05
 BYTE   PAN   c_v-30
 BYTE   N06  Cn2  v121
 BYTE   W06
 BYTE   PAN   c_v-26
 BYTE   N06  Cs2  v127
 BYTE   W06
 BYTE   PAN   c_v-23
 BYTE   N06  Fn2  v117
 BYTE   W06
 BYTE   PAN   c_v-19
 BYTE   N06  Gs2  v125
 BYTE   W06
 BYTE   PAN   c_v-16
 BYTE   N06  Cn3  v113
 BYTE   W06
 BYTE   PAN   c_v-12
 BYTE   N06  Cs3  v125
 BYTE   W06
 BYTE   PAN   c_v-9
 BYTE   N06  Fn3  v117
 BYTE   W06
 BYTE   PAN   c_v-5
 BYTE   N06  Gs3  v121
 BYTE   W06
 BYTE   PAN   c_v-2
 BYTE   N06  Cn4  v109
 BYTE   W06
//  #01 //029   ----------------------------------------
 BYTE   PAN   c_v+2
 BYTE   N06  Cs4  v117
 BYTE   W06
 BYTE   PAN   c_v+5
 BYTE   N06  Cn4  v113
 BYTE   W06
 BYTE   PAN   c_v+9
 BYTE   N06  Gs3  v121
 BYTE   W06
 BYTE   PAN   c_v+13
 BYTE   N06  Fn3  v113
 BYTE   W06
 BYTE   PAN   c_v+16
 BYTE   N06  Cs3  v125
 BYTE   W06
 BYTE   PAN   c_v+20
 BYTE   N06  Cn3  v117
 BYTE   W06
 BYTE   PAN   c_v+23
 BYTE   N06  Gs2  v125
 BYTE   W06
 BYTE   PAN   c_v+27
 BYTE   N06  Fn2  v117
 BYTE   W06
 BYTE   PAN   c_v+30
 BYTE   N06  Cs2  v125
 BYTE   W06
 BYTE   PAN   c_v+34
 BYTE   N06  Cn2  v121
 BYTE   W06
 BYTE   PAN   c_v+37
 BYTE   VOL   76*PreludeFF5_mvl/mxv
 BYTE   N06  Gs1  v125
 BYTE   W01
 BYTE   VOL   109*PreludeFF5_mvl/mxv
 BYTE   W05
 BYTE   PAN   c_v+41
 BYTE   N06  Fn1
 BYTE   W06
 BYTE   PAN   c_v+45
 BYTE   VOL   76*PreludeFF5_mvl/mxv
 BYTE   N06  Cs1  v127
 BYTE   W01
 BYTE   VOL   109*PreludeFF5_mvl/mxv
 BYTE   W05
 BYTE   PAN   c_v+48
 BYTE   N06  Cn1
 BYTE   W06
 BYTE   PAN   c_v+52
 BYTE   N06  Gs0  v127
 BYTE   W06
 BYTE   PAN   c_v+55
 BYTE   N06  Fn0  v125
 BYTE   W06
//  #01 //030   ----------------------------------------
 BYTE   Ds0  v127
 BYTE   W06
 BYTE   PAN   c_v+51
 BYTE   N06  Gn0  v125
 BYTE   W06
 BYTE   PAN   c_v+48
 BYTE   N06  As0  v127
 BYTE   W06
 BYTE   PAN   c_v+44
 BYTE   N06  Dn1  v121
 BYTE   W06
 BYTE   PAN   c_v+41
 BYTE   N06  Ds1  v127
 BYTE   W06
 BYTE   PAN   c_v+37
 BYTE   N06  Gn1  v125
 BYTE   W06
 BYTE   PAN   c_v+34
 BYTE   N06  As1  v127
 BYTE   W06
 BYTE   PAN   c_v+30
 BYTE   N06  Dn2  v117
 BYTE   W06
 BYTE   PAN   c_v+27
 BYTE   N06  Ds2  v127
 BYTE   W06
 BYTE   PAN   c_v+23
 BYTE   N06  Gn2  v117
 BYTE   W06
 BYTE   PAN   c_v+19
 BYTE   N06  As2  v125
 BYTE   W06
 BYTE   PAN   c_v+16
 BYTE   N06  Dn3  v113
 BYTE   W06
 BYTE   PAN   c_v+12
 BYTE   N06  Ds3  v125
 BYTE   W06
 BYTE   PAN   c_v+9
 BYTE   N06  Gn3  v113
 BYTE   W06
 BYTE   PAN   c_v+5
 BYTE   N06  As3  v121
 BYTE   W06
 BYTE   PAN   c_v+2
 BYTE   N06  Dn4  v109
 BYTE   W06
//  #01 //031   ----------------------------------------
 BYTE   PAN   c_v-2
 BYTE   N06  Ds4  v117
 BYTE   W06
 BYTE   PAN   c_v-5
 BYTE   N06  Dn4  v113
 BYTE   W06
 BYTE   PAN   c_v-9
 BYTE   N06  As3  v121
 BYTE   W06
 BYTE   PAN   c_v-13
 BYTE   N06  Gn3  v109
 BYTE   W06
 BYTE   PAN   c_v-16
 BYTE   N06  Ds3  v125
 BYTE   W06
 BYTE   PAN   c_v-20
 BYTE   N06  Dn3  v117
 BYTE   W06
 BYTE   PAN   c_v-23
 BYTE   N06  As2  v125
 BYTE   W06
 BYTE   PAN   c_v-27
 BYTE   N06  Gn2  v117
 BYTE   W06
 BYTE   PAN   c_v-30
 BYTE   N06  Ds2  v127
 BYTE   W06
 BYTE   PAN   c_v-34
 BYTE   N06  Dn2  v125
 BYTE   W06
 BYTE   PAN   c_v-37
 BYTE   N06  As1  v127
 BYTE   W06
 BYTE   PAN   c_v-41
 BYTE   N06  Gn1  v125
 BYTE   W06
 BYTE   PAN   c_v-44
 BYTE   N06  Ds1  v127
 BYTE   W06
 BYTE   PAN   c_v-48
 BYTE   N06  Dn1  v125
 BYTE   W06
 BYTE   PAN   c_v-52
 BYTE   N06  As0  v127
 BYTE   W06
 BYTE   PAN   c_v-55
 BYTE   N06  Gn0  v125
 BYTE   W06
//  #01 //032   ----------------------------------------
 BYTE   GoTo
  POIN2 Label_01FDB7BD
 BYTE   FINE

//**************** Track 2 (Midi-Chn.1) ****************//

PreludeFF5_002:
//  #02 //000   ----------------------------------------
 BYTE   KEYSH   PreludeFF5_key+0
 BYTE   VOICE   52
 BYTE   W10
 BYTE   VOL   74*PreludeFF5_mvl/mxv
 BYTE   PAN   c_v+16
 BYTE   BEND   c_v+0
 BYTE   W01
 BYTE   W01
 BYTE   N06  Fn0  v032
 BYTE   W06
 BYTE   Gn0
 BYTE   W06
 BYTE   An0
 BYTE   W06
 BYTE   Cn1
 BYTE   W06
 BYTE   Fn1
 BYTE   W06
 BYTE   Gn1
 BYTE   W06
 BYTE   An1
 BYTE   W06
 BYTE   Cn2
 BYTE   W06
 BYTE   Fn2
 BYTE   W06
 BYTE   Gn2
 BYTE   W06
 BYTE   An2
 BYTE   W06
 BYTE   Cn3
 BYTE   W06
 BYTE   Fn3
 BYTE   W06
 BYTE   Gn3
 BYTE   W06
//  #02 //001   ----------------------------------------
 BYTE   An3
 BYTE   W06
 BYTE   Cn4
 BYTE   W06
 BYTE   Fn4
 BYTE   W06
 BYTE   Cn4
 BYTE   W06
 BYTE   An3
 BYTE   W06
 BYTE   Gn3
 BYTE   W06
 BYTE   Fn3
 BYTE   W06
 BYTE   Cn3
 BYTE   W06
 BYTE   An2
 BYTE   W06
 BYTE   Gn2
 BYTE   W06
 BYTE   Fn2
 BYTE   W06
 BYTE   Cn2
 BYTE   W06
 BYTE   An1
 BYTE   W06
 BYTE   Gn1  v024
 BYTE   W06
 BYTE   Fn1
 BYTE   W06
 BYTE   Cn1  v032
 BYTE   W06
//  #02 //002   ----------------------------------------
 BYTE   An0  v024
 BYTE   W06
 BYTE   Gn0  v032
 BYTE   W06
 BYTE   Dn0
 BYTE   W06
 BYTE   En0
 BYTE   W06
 BYTE   Fn0
 BYTE   W06
 BYTE   An0
 BYTE   W06
 BYTE   Dn1
 BYTE   W06
 BYTE   En1
 BYTE   W06
 BYTE   Fn1
 BYTE   W06
 BYTE   An1
 BYTE   W06
 BYTE   Dn2
 BYTE   W06
 BYTE   En2
 BYTE   W06
 BYTE   Fn2
 BYTE   W06
 BYTE   An2
 BYTE   W06
 BYTE   Dn3
 BYTE   W06
 BYTE   En3
 BYTE   W06
//  #02 //003   ----------------------------------------
 BYTE   Fn3
 BYTE   W06
 BYTE   An3
 BYTE   W06
 BYTE   Dn4
 BYTE   W06
 BYTE   An3
 BYTE   W06
 BYTE   Fn3
 BYTE   W06
 BYTE   En3
 BYTE   W06
 BYTE   Dn3
 BYTE   W06
 BYTE   An2
 BYTE   W06
 BYTE   Fn2
 BYTE   W06
 BYTE   En2
 BYTE   W06
 BYTE   Dn2
 BYTE   W06
 BYTE   An1
 BYTE   W06
 BYTE   Fn1
 BYTE   W06
 BYTE   En1
 BYTE   W06
 BYTE   Dn1
 BYTE   W06
 BYTE   An0
 BYTE   W06
//  #02 //004   ----------------------------------------
 BYTE   Fn0
 BYTE   W06
 BYTE   En0
 BYTE   W06
 BYTE   Fn0
 BYTE   W06
 BYTE   Gn0
 BYTE   W06
 BYTE   An0
 BYTE   W06
 BYTE   Cn1
 BYTE   W06
 BYTE   Fn1  v028
 BYTE   W06
 BYTE   Gn1
 BYTE   W06
 BYTE   An1
 BYTE   W06
 BYTE   Cn2
 BYTE   W06
 BYTE   Fn2
 BYTE   W06
 BYTE   Gn2
 BYTE   W06
 BYTE   An2
 BYTE   W06
 BYTE   Cn3
 BYTE   W06
 BYTE   Fn3
 BYTE   W06
 BYTE   Gn3
 BYTE   W06
//  #02 //005   ----------------------------------------
 BYTE   An3
 BYTE   W06
 BYTE   Cn4
 BYTE   W06
 BYTE   Fn4
 BYTE   W06
 BYTE   Cn4
 BYTE   W06
 BYTE   An3
 BYTE   W06
 BYTE   Gn3
 BYTE   W06
 BYTE   Fn3
 BYTE   W06
 BYTE   Cn3
 BYTE   W06
 BYTE   An2
 BYTE   W06
 BYTE   Gn2
 BYTE   W06
 BYTE   Fn2
 BYTE   W06
 BYTE   Cn2
 BYTE   W06
 BYTE   An1
 BYTE   W06
 BYTE   Gn1
 BYTE   W06
 BYTE   Fn1
 BYTE   W06
 BYTE   Cn1
 BYTE   W06
//  #02 //006   ----------------------------------------
 BYTE   An0  v024
 BYTE   W06
 BYTE   Gn0  v028
 BYTE   W06
 BYTE   Dn0
 BYTE   W06
 BYTE   En0
 BYTE   W06
 BYTE   Fn0
 BYTE   W06
 BYTE   An0
 BYTE   W06
 BYTE   Dn1
 BYTE   W06
 BYTE   En1
 BYTE   W06
 BYTE   Fn1
 BYTE   W06
 BYTE   An1
 BYTE   W06
 BYTE   Dn2
 BYTE   W06
 BYTE   En2
 BYTE   W06
 BYTE   Fn2
 BYTE   W06
 BYTE   An2
 BYTE   W06
 BYTE   Dn3
 BYTE   W06
 BYTE   En3
 BYTE   W06
//  #02 //007   ----------------------------------------
 BYTE   Fn3
 BYTE   W06
 BYTE   An3
 BYTE   W06
 BYTE   Dn4
 BYTE   W06
 BYTE   An3
 BYTE   W06
 BYTE   Fn3
 BYTE   W06
 BYTE   En3
 BYTE   W06
 BYTE   Dn3
 BYTE   W06
 BYTE   An2
 BYTE   W06
 BYTE   Fn2
 BYTE   W06
 BYTE   En2
 BYTE   W06
 BYTE   Dn2
 BYTE   W06
 BYTE   An1
 BYTE   W06
 BYTE   Fn1
 BYTE   W06
 BYTE   En1
 BYTE   W06
 BYTE   Dn1
 BYTE   W06
 BYTE   An0
 BYTE   W06
//  #02 //008   ----------------------------------------
 BYTE   Fn0
 BYTE   W06
 BYTE   En0  v024
 BYTE   W06
 BYTE   Dn0  v028
 BYTE   W06
 BYTE   Fn0
 BYTE   W06
 BYTE   As0
 BYTE   W06
 BYTE   Cn1
 BYTE   W06
 BYTE   Dn1
 BYTE   W06
 BYTE   Fn1
 BYTE   W06
 BYTE   As1
 BYTE   W06
 BYTE   Cn2
 BYTE   W06
 BYTE   Dn2
 BYTE   W06
 BYTE   Fn2
 BYTE   W06
 BYTE   As2
 BYTE   W06
 BYTE   Cn3
 BYTE   W06
 BYTE   Dn3
 BYTE   W06
 BYTE   Fn3
 BYTE   W06
//  #02 //009   ----------------------------------------
 BYTE   As3
 BYTE   W06
 BYTE   Cn4
 BYTE   W06
 BYTE   Dn4
 BYTE   W06
 BYTE   Cn4
 BYTE   W06
 BYTE   As3
 BYTE   W06
 BYTE   Fn3
 BYTE   W06
 BYTE   Dn3
 BYTE   W06
 BYTE   Cn3
 BYTE   W06
 BYTE   As2
 BYTE   W06
 BYTE   Fn2
 BYTE   W06
 BYTE   Dn2
 BYTE   W06
 BYTE   Cn2
 BYTE   W06
 BYTE   As1
 BYTE   W06
 BYTE   Fn1
 BYTE   W06
 BYTE   Dn1  v016
 BYTE   W06
 BYTE   Cn1  v020
 BYTE   W06
//  #02 //010   ----------------------------------------
 BYTE   As0  v016
 BYTE   W05
 BYTE   VOL   57*PreludeFF5_mvl/mxv
 BYTE   W01
 BYTE   VOL   74*PreludeFF5_mvl/mxv
 BYTE   N06  Fn0
 BYTE   W06
 BYTE   En0  v024
 BYTE   W06
 BYTE   Gn0  v028
 BYTE   W06
 BYTE   Cn1
 BYTE   W06
 BYTE   Dn1
 BYTE   W06
 BYTE   En1
 BYTE   W06
 BYTE   Gn1
 BYTE   W06
 BYTE   Cn2
 BYTE   W06
 BYTE   Dn2
 BYTE   W06
 BYTE   En2
 BYTE   W06
 BYTE   Gn2
 BYTE   W06
 BYTE   Cn3
 BYTE   W06
 BYTE   Dn3
 BYTE   W06
 BYTE   En3
 BYTE   W06
 BYTE   Gn3
 BYTE   W06
//  #02 //011   ----------------------------------------
 BYTE   Cn4
 BYTE   W06
 BYTE   Dn4
 BYTE   W06
 BYTE   En4
 BYTE   W06
 BYTE   Dn4
 BYTE   W06
 BYTE   Cn4
 BYTE   W06
 BYTE   Gn3
 BYTE   W06
 BYTE   En3
 BYTE   W06
 BYTE   Dn3
 BYTE   W06
 BYTE   Cn3
 BYTE   W06
 BYTE   Gn2
 BYTE   W06
 BYTE   En2
 BYTE   W06
 BYTE   Dn2
 BYTE   W06
 BYTE   Cn2
 BYTE   W06
 BYTE   Gn1
 BYTE   W06
 BYTE   En1
 BYTE   W06
 BYTE   Dn1
 BYTE   W06
//  #02 //012   ----------------------------------------
 BYTE   Cn1
 BYTE   W06
 BYTE   Gn0
 BYTE   W06
 BYTE   Cs0
 BYTE   W06
 BYTE   Fn0
 BYTE   W06
 BYTE   Gs0
 BYTE   W06
 BYTE   Cn1
 BYTE   W06
 BYTE   Cs1
 BYTE   W06
 BYTE   Fn1
 BYTE   W06
 BYTE   Gs1
 BYTE   W06
 BYTE   Cn2
 BYTE   W06
 BYTE   Cs2
 BYTE   W06
 BYTE   Fn2
 BYTE   W06
 BYTE   Gs2  v024
 BYTE   W06
 BYTE   Cn3
 BYTE   W06
 BYTE   Cs3
 BYTE   W06
 BYTE   Fn3
 BYTE   W06
//  #02 //013   ----------------------------------------
 BYTE   Gs3
 BYTE   W06
 BYTE   Cn4
 BYTE   W06
 BYTE   Cs4
 BYTE   W06
 BYTE   Cn4
 BYTE   W06
 BYTE   Gs3
 BYTE   W06
 BYTE   Fn3
 BYTE   W06
 BYTE   Cs3
 BYTE   W06
 BYTE   Cn3
 BYTE   W06
 BYTE   Gs2
 BYTE   W06
 BYTE   Fn2
 BYTE   W06
 BYTE   Cs2
 BYTE   W06
 BYTE   Cn2
 BYTE   W06
 BYTE   Gs1
 BYTE   W06
 BYTE   Fn1
 BYTE   W06
 BYTE   Cs1
 BYTE   W05
 BYTE   VOL   60*PreludeFF5_mvl/mxv
 BYTE   W01
 BYTE   VOL   74*PreludeFF5_mvl/mxv
 BYTE   N06  Cn1
 BYTE   W06
//  #02 //014   ----------------------------------------
 BYTE   Gs0  v020
 BYTE   W06
 BYTE   Fn0
 BYTE   W06
 BYTE   Ds0  v024
 BYTE   W06
 BYTE   Gn0
 BYTE   W06
 BYTE   As0
 BYTE   W06
 BYTE   Dn1
 BYTE   W06
 BYTE   Ds1
 BYTE   W06
 BYTE   Gn1
 BYTE   W06
 BYTE   As1
 BYTE   W06
 BYTE   Dn2
 BYTE   W06
 BYTE   Ds2
 BYTE   W06
 BYTE   Gn2
 BYTE   W06
 BYTE   As2
 BYTE   W06
 BYTE   Dn3
 BYTE   W06
 BYTE   Ds3
 BYTE   W06
 BYTE   Gn3
 BYTE   W06
//  #02 //015   ----------------------------------------
 BYTE   As3
 BYTE   W06
 BYTE   Dn4
 BYTE   W06
 BYTE   Ds4
 BYTE   W06
 BYTE   Dn4
 BYTE   W06
 BYTE   As3
 BYTE   W06
 BYTE   Gn3
 BYTE   W06
 BYTE   Ds3
 BYTE   W06
 BYTE   Dn3
 BYTE   W06
 BYTE   As2
 BYTE   W06
 BYTE   Gn2
 BYTE   W06
 BYTE   Ds2
 BYTE   W06
 BYTE   Dn2
 BYTE   W06
 BYTE   As1
 BYTE   W06
 BYTE   Gn1
 BYTE   W06
 BYTE   Ds1
 BYTE   W06
 BYTE   Dn1
 BYTE   W06
//  #02 //016   ----------------------------------------
Label_01FDBFAC:
 BYTE   N06  As0  v024
 BYTE   W06
 BYTE   Gn0
 BYTE   W06
 BYTE   PAN   c_v+63
 BYTE   N06  Fn0  v028
 BYTE   W06
 BYTE   Gn0
 BYTE   W06
 BYTE   An0
 BYTE   W06
 BYTE   Cn1
 BYTE   W06
 BYTE   Fn1
 BYTE   W06
 BYTE   Gn1
 BYTE   W06
 BYTE   An1
 BYTE   W06
 BYTE   Cn2
 BYTE   W06
 BYTE   Fn2
 BYTE   W06
 BYTE   Gn2
 BYTE   W06
 BYTE   An2
 BYTE   W06
 BYTE   Cn3
 BYTE   W06
 BYTE   Fn3
 BYTE   W06
 BYTE   Gn3
 BYTE   W06
//  #02 //017   ----------------------------------------
Label_01FDBFD2:
 BYTE   N06  An3  v020
 BYTE   W06
 BYTE   Cn4
 BYTE   W06
 BYTE   PAN   c_v-64
 BYTE   N06  Fn4
 BYTE   W06
 BYTE   Cn4
 BYTE   W06
 BYTE   An3
 BYTE   W06
 BYTE   Gn3
 BYTE   W06
 BYTE   Fn3  v016
 BYTE   W06
 BYTE   Cn3  v020
 BYTE   W06
 BYTE   An2
 BYTE   W06
 BYTE   Gn2  v016
 BYTE   W06
 BYTE   Fn2  v020
 BYTE   W06
 BYTE   Cn2  v028
 BYTE   W06
 BYTE   An1
 BYTE   W06
 BYTE   Gn1
 BYTE   W06
 BYTE   Fn1
 BYTE   W06
 BYTE   Cn1  v032
 BYTE   W06
 BYTE   PEND 
//  #02 //018   ----------------------------------------
 BYTE   An0
 BYTE   W06
 BYTE   Gn0
 BYTE   W06
 BYTE   Dn0  v044
 BYTE   W06
 BYTE   En0  v040
 BYTE   W06
 BYTE   Fn0  v036
 BYTE   W06
 BYTE   An0  v032
 BYTE   W06
 BYTE   Dn1
 BYTE   W06
 BYTE   En1
 BYTE   W06
 BYTE   Fn1
 BYTE   W06
 BYTE   An1  v028
 BYTE   W06
 BYTE   Dn2
 BYTE   W06
 BYTE   En2
 BYTE   W06
 BYTE   Fn2
 BYTE   W06
 BYTE   An2
 BYTE   W06
 BYTE   Dn3  v020
 BYTE   W06
 BYTE   En3
 BYTE   W06
//  #02 //019   ----------------------------------------
Label_01FDC024:
 BYTE   N06  Fn3  v020
 BYTE   W06
 BYTE   An3
 BYTE   W06
 BYTE   PAN   c_v+63
 BYTE   N06  Dn4  v024
 BYTE   W06
 BYTE   An3  v020
 BYTE   W06
 BYTE   Fn3
 BYTE   W06
 BYTE   En3
 BYTE   W06
 BYTE   Dn3  v016
 BYTE   W06
 BYTE   An2  v020
 BYTE   W06
 BYTE   Fn2  v024
 BYTE   W06
 BYTE   En2
 BYTE   W06
 BYTE   Dn2
 BYTE   W06
 BYTE   An1  v028
 BYTE   W06
 BYTE   Fn1  v032
 BYTE   W06
 BYTE   En1
 BYTE   W06
 BYTE   Dn1
 BYTE   W06
 BYTE   An0
 BYTE   W06
 BYTE   PEND 
//  #02 //020   ----------------------------------------
 BYTE   Fn0  v036
 BYTE   W06
 BYTE   En0
 BYTE   W06
 BYTE   Fn0
 BYTE   W06
 BYTE   Gn0  v032
 BYTE   W06
 BYTE   An0
 BYTE   W06
 BYTE   Cn1
 BYTE   W06
 BYTE   Fn1  v028
 BYTE   W06
 BYTE   Gn1
 BYTE   W06
 BYTE   An1
 BYTE   W06
 BYTE   Cn2
 BYTE   W06
 BYTE   Fn2
 BYTE   W06
 BYTE   Gn2  v020
 BYTE   W06
 BYTE   An2  v028
 BYTE   W06
 BYTE   Cn3
 BYTE   W06
 BYTE   Fn3  v020
 BYTE   W06
 BYTE   Gn3
 BYTE   W06
//  #02 //021   ----------------------------------------
 BYTE   PATT
  POIN2 Label_01FDBFD2
//  #02 //022   ----------------------------------------
 BYTE   N06  An0  v032
 BYTE   W06
 BYTE   Gn0
 BYTE   W06
 BYTE   Dn0  v036
 BYTE   W06
 BYTE   En0
 BYTE   W06
 BYTE   Fn0
 BYTE   W06
 BYTE   An0  v032
 BYTE   W06
 BYTE   Dn1
 BYTE   W06
 BYTE   En1
 BYTE   W06
 BYTE   Fn1
 BYTE   W06
 BYTE   An1  v028
 BYTE   W06
 BYTE   Dn2
 BYTE   W06
 BYTE   En2
 BYTE   W06
 BYTE   Fn2
 BYTE   W06
 BYTE   An2
 BYTE   W06
 BYTE   Dn3  v020
 BYTE   W06
 BYTE   En3
 BYTE   W06
//  #02 //023   ----------------------------------------
 BYTE   PATT
  POIN2 Label_01FDC024
//  #02 //024   ----------------------------------------
 BYTE   N06  Fn0  v036
 BYTE   W06
 BYTE   En0
 BYTE   W06
 BYTE   Dn0  v040
 BYTE   W06
 BYTE   Fn0  v036
 BYTE   W06
 BYTE   As0  v032
 BYTE   W06
 BYTE   Cn1
 BYTE   W06
 BYTE   Dn1
 BYTE   W06
 BYTE   Fn1
 BYTE   W06
 BYTE   As1  v028
 BYTE   W06
 BYTE   Cn2
 BYTE   W06
 BYTE   Dn2
 BYTE   W06
 BYTE   Fn2
 BYTE   W06
 BYTE   As2
 BYTE   W06
 BYTE   Cn3
 BYTE   W06
 BYTE   Dn3  v020
 BYTE   W06
 BYTE   Fn3
 BYTE   W06
//  #02 //025   ----------------------------------------
 BYTE   As3  v016
 BYTE   W06
 BYTE   Cn4
 BYTE   W06
 BYTE   PAN   c_v-64
 BYTE   N06  Dn4
 BYTE   W06
 BYTE   Cn4
 BYTE   W06
 BYTE   As3
 BYTE   W06
 BYTE   Fn3
 BYTE   W06
 BYTE   Dn3
 BYTE   W06
 BYTE   Cn3  v020
 BYTE   W06
 BYTE   As2
 BYTE   W06
 BYTE   Fn2
 BYTE   W06
 BYTE   Dn2
 BYTE   W06
 BYTE   Cn2  v024
 BYTE   W06
 BYTE   As1
 BYTE   W06
 BYTE   Fn1  v028
 BYTE   W06
 BYTE   Dn1  v032
 BYTE   W06
 BYTE   Cn1
 BYTE   W06
//  #02 //026   ----------------------------------------
 BYTE   As0
 BYTE   W06
 BYTE   Fn0  v036
 BYTE   W06
 BYTE   En0
 BYTE   W06
 BYTE   Gn0
 BYTE   W06
 BYTE   Cn1
 BYTE   W06
 BYTE   Dn1  v032
 BYTE   W06
 BYTE   En1  v036
 BYTE   W06
 BYTE   Gn1  v032
 BYTE   W06
 BYTE   Cn2
 BYTE   W06
 BYTE   Dn2
 BYTE   W06
 BYTE   En2  v028
 BYTE   W06
 BYTE   Gn2
 BYTE   W06
 BYTE   Cn3  v020
 BYTE   W06
 BYTE   Dn3
 BYTE   W06
 BYTE   En3
 BYTE   W06
 BYTE   Gn3
 BYTE   W06
//  #02 //027   ----------------------------------------
 BYTE   Cn4
 BYTE   W06
 BYTE   Dn4
 BYTE   W06
 BYTE   PAN   c_v+63
 BYTE   N06  En4
 BYTE   W06
 BYTE   Dn4
 BYTE   W06
 BYTE   Cn4
 BYTE   W06
 BYTE   Gn3
 BYTE   W06
 BYTE   En3
 BYTE   W06
 BYTE   Dn3
 BYTE   W06
 BYTE   Cn3
 BYTE   W06
 BYTE   Gn2
 BYTE   W06
 BYTE   En2
 BYTE   W06
 BYTE   Dn2  v028
 BYTE   W06
 BYTE   Cn2  v024
 BYTE   W06
 BYTE   Gn1  v028
 BYTE   W06
 BYTE   En1
 BYTE   W06
 BYTE   Dn1
 BYTE   W06
//  #02 //028   ----------------------------------------
 BYTE   Cn1  v036
 BYTE   W06
 BYTE   Gn0
 BYTE   W06
 BYTE   Cs0  v040
 BYTE   W06
 BYTE   Fn0
 BYTE   W06
 BYTE   Gs0  v036
 BYTE   W06
 BYTE   Cn1
 BYTE   W06
 BYTE   Cs1
 BYTE   W06
 BYTE   Fn1  v032
 BYTE   W06
 BYTE   Gs1
 BYTE   W06
 BYTE   Cn2  v028
 BYTE   W06
 BYTE   Cs2
 BYTE   W06
 BYTE   Fn2
 BYTE   W06
 BYTE   Gs2
 BYTE   W06
 BYTE   Cn3  v020
 BYTE   W06
 BYTE   Cs3  v024
 BYTE   W06
 BYTE   Fn3  v020
 BYTE   W06
//  #02 //029   ----------------------------------------
 BYTE   Gs3
 BYTE   W06
 BYTE   Cn4  v016
 BYTE   W06
 BYTE   PAN   c_v-64
 BYTE   N06  Cs4  v020
 BYTE   W06
 BYTE   Cn4  v016
 BYTE   W06
 BYTE   Gs3  v020
 BYTE   W06
 BYTE   Fn3  v016
 BYTE   W06
 BYTE   Cs3
 BYTE   W06
 BYTE   Cn3
 BYTE   W06
 BYTE   Gs2  v020
 BYTE   W06
 BYTE   Fn2
 BYTE   W06
 BYTE   Cs2
 BYTE   W06
 BYTE   Cn2
 BYTE   W06
 BYTE   Gs1  v028
 BYTE   W06
 BYTE   Fn1
 BYTE   W06
 BYTE   Cs1
 BYTE   W06
 BYTE   Cn1
 BYTE   W06
//  #02 //030   ----------------------------------------
 BYTE   Gs0
 BYTE   W06
 BYTE   Fn0  v032
 BYTE   W06
 BYTE   Ds0  v036
 BYTE   W06
 BYTE   Gn0
 BYTE   W06
 BYTE   As0
 BYTE   W06
 BYTE   Dn1
 BYTE   W06
 BYTE   Ds1  v032
 BYTE   W06
 BYTE   Gn1
 BYTE   W06
 BYTE   As1
 BYTE   W06
 BYTE   Dn2
 BYTE   W06
 BYTE   Ds2
 BYTE   W06
 BYTE   Gn2  v028
 BYTE   W06
 BYTE   As2
 BYTE   W06
 BYTE   Dn3
 BYTE   W06
 BYTE   Ds3
 BYTE   W06
 BYTE   Gn3
 BYTE   W06
//  #02 //031   ----------------------------------------
 BYTE   As3  v020
 BYTE   W06
 BYTE   Dn4
 BYTE   W06
 BYTE   PAN   c_v+63
 BYTE   N06  Ds4
 BYTE   W06
 BYTE   Dn4
 BYTE   W06
 BYTE   As3
 BYTE   W06
 BYTE   Gn3
 BYTE   W06
 BYTE   Ds3  v016
 BYTE   W06
 BYTE   Dn3
 BYTE   W06
 BYTE   As2  v020
 BYTE   W06
 BYTE   Gn2
 BYTE   W06
 BYTE   Ds2  v024
 BYTE   W06
 BYTE   Dn2
 BYTE   W06
 BYTE   As1  v028
 BYTE   W06
 BYTE   Gn1
 BYTE   W06
 BYTE   Ds1  v032
 BYTE   W06
 BYTE   Dn1
 BYTE   W06
//  #02 //032   ----------------------------------------
 BYTE   GoTo
  POIN2 Label_01FDBFAC
 BYTE   FINE

//**************** Track 3 (Midi-Chn.2) ****************//

PreludeFF5_003:
//  #03 //000   ----------------------------------------
 BYTE   KEYSH   PreludeFF5_key+0
 BYTE   VOICE   52
 BYTE   VOL   74*PreludeFF5_mvl/mxv
 BYTE   BEND   c_v+0
 BYTE   W03
 BYTE   PAN   c_v+63
 BYTE   N06  Fn0  v028
 BYTE   W01
 BYTE   W05
 BYTE   Gn0
 BYTE   W06
 BYTE   An0
 BYTE   W06
 BYTE   Cn1
 BYTE   W06
 BYTE   Fn1
 BYTE   W06
 BYTE   Gn1
 BYTE   W06
 BYTE   An1
 BYTE   W06
 BYTE   Cn2
 BYTE   W06
 BYTE   Fn2
 BYTE   W06
 BYTE   Gn2
 BYTE   W06
 BYTE   An2
 BYTE   W06
 BYTE   Cn3
 BYTE   W06
 BYTE   Fn3
 BYTE   W06
 BYTE   Gn3
 BYTE   W06
 BYTE   An3
 BYTE   W06
 BYTE   Cn4
 BYTE   W03
//  #03 //001   ----------------------------------------
 BYTE   W03
 BYTE   PAN   c_v-64
 BYTE   N06  Fn4
 BYTE   W06
 BYTE   Cn4
 BYTE   W06
 BYTE   An3
 BYTE   W06
 BYTE   Gn3
 BYTE   W06
 BYTE   Fn3
 BYTE   W06
 BYTE   Cn3
 BYTE   W06
 BYTE   An2
 BYTE   W06
 BYTE   Gn2
 BYTE   W06
 BYTE   Fn2
 BYTE   W06
 BYTE   Cn2
 BYTE   W06
 BYTE   An1
 BYTE   W06
 BYTE   Gn1
 BYTE   W06
 BYTE   Fn1
 BYTE   W06
 BYTE   Cn1
 BYTE   W06
 BYTE   An0  v020
 BYTE   W06
 BYTE   Gn0  v028
 BYTE   W03
//  #03 //002   ----------------------------------------
Label_01FDC244:
 BYTE   W03
 BYTE   N06  Dn0  v028
 BYTE   W06
 BYTE   En0
 BYTE   W06
 BYTE   Fn0
 BYTE   W06
 BYTE   An0
 BYTE   W06
 BYTE   Dn1
 BYTE   W06
 BYTE   En1
 BYTE   W06
 BYTE   Fn1
 BYTE   W06
 BYTE   An1
 BYTE   W06
 BYTE   Dn2
 BYTE   W06
 BYTE   En2
 BYTE   W06
 BYTE   Fn2
 BYTE   W06
 BYTE   An2
 BYTE   W06
 BYTE   Dn3
 BYTE   W06
 BYTE   En3
 BYTE   W06
 BYTE   Fn3
 BYTE   W06
 BYTE   An3
 BYTE   W03
 BYTE   PEND 
//  #03 //003   ----------------------------------------
Label_01FDC268:
 BYTE   W03
 BYTE   PAN   c_v+63
 BYTE   N06  Dn4  v028
 BYTE   W06
 BYTE   An3
 BYTE   W06
 BYTE   Fn3
 BYTE   W06
 BYTE   En3
 BYTE   W06
 BYTE   Dn3
 BYTE   W06
 BYTE   An2
 BYTE   W06
 BYTE   Fn2
 BYTE   W06
 BYTE   En2
 BYTE   W06
 BYTE   Dn2
 BYTE   W06
 BYTE   An1
 BYTE   W06
 BYTE   Fn1
 BYTE   W06
 BYTE   En1
 BYTE   W06
 BYTE   Dn1
 BYTE   W06
 BYTE   An0
 BYTE   W06
 BYTE   Fn0
 BYTE   W06
 BYTE   En0
 BYTE   W03
 BYTE   PEND 
//  #03 //004   ----------------------------------------
 BYTE   W03
 BYTE   Fn0
 BYTE   W06
 BYTE   Gn0
 BYTE   W06
 BYTE   An0
 BYTE   W06
 BYTE   Cn1
 BYTE   W06
 BYTE   Fn1
 BYTE   W06
 BYTE   Gn1
 BYTE   W06
 BYTE   An1
 BYTE   W06
 BYTE   Cn2
 BYTE   W06
 BYTE   Fn2
 BYTE   W06
 BYTE   Gn2
 BYTE   W06
 BYTE   An2
 BYTE   W06
 BYTE   Cn3
 BYTE   W06
 BYTE   Fn3
 BYTE   W06
 BYTE   Gn3
 BYTE   W06
 BYTE   An3
 BYTE   W06
 BYTE   Cn4
 BYTE   W03
//  #03 //005   ----------------------------------------
 BYTE   W03
 BYTE   PAN   c_v-64
 BYTE   N06  Fn4
 BYTE   W06
 BYTE   Cn4
 BYTE   W06
 BYTE   An3
 BYTE   W06
 BYTE   Gn3
 BYTE   W06
 BYTE   Fn3
 BYTE   W06
 BYTE   Cn3
 BYTE   W06
 BYTE   An2
 BYTE   W06
 BYTE   Gn2
 BYTE   W06
 BYTE   Fn2
 BYTE   W06
 BYTE   Cn2
 BYTE   W06
 BYTE   An1
 BYTE   W06
 BYTE   Gn1
 BYTE   W06
 BYTE   Fn1
 BYTE   W06
 BYTE   Cn1
 BYTE   W06
 BYTE   An0  v024
 BYTE   W06
 BYTE   Gn0  v028
 BYTE   W03
//  #03 //006   ----------------------------------------
 BYTE   PATT
  POIN2 Label_01FDC244
//  #03 //007   ----------------------------------------
 BYTE   PATT
  POIN2 Label_01FDC268
//  #03 //008   ----------------------------------------
 BYTE   W03
 BYTE   N06  Dn0  v028
 BYTE   W06
 BYTE   Fn0
 BYTE   W06
 BYTE   As0
 BYTE   W06
 BYTE   Cn1
 BYTE   W06
 BYTE   Dn1
 BYTE   W06
 BYTE   Fn1
 BYTE   W06
 BYTE   As1
 BYTE   W06
 BYTE   Cn2
 BYTE   W06
 BYTE   Dn2
 BYTE   W06
 BYTE   Fn2
 BYTE   W06
 BYTE   As2
 BYTE   W06
 BYTE   Cn3
 BYTE   W06
 BYTE   Dn3
 BYTE   W06
 BYTE   Fn3
 BYTE   W06
 BYTE   As3
 BYTE   W06
 BYTE   Cn4
 BYTE   W03
//  #03 //009   ----------------------------------------
 BYTE   W03
 BYTE   PAN   c_v-64
 BYTE   N06  Dn4
 BYTE   W06
 BYTE   Cn4
 BYTE   W06
 BYTE   As3
 BYTE   W06
 BYTE   Fn3
 BYTE   W06
 BYTE   Dn3
 BYTE   W06
 BYTE   Cn3
 BYTE   W06
 BYTE   As2
 BYTE   W06
 BYTE   Fn2
 BYTE   W06
 BYTE   Dn2
 BYTE   W06
 BYTE   Cn2
 BYTE   W06
 BYTE   As1  v024
 BYTE   W06
 BYTE   Fn1  v020
 BYTE   W06
 BYTE   Dn1  v016
 BYTE   W05
 BYTE   VOL   58*PreludeFF5_mvl/mxv
 BYTE   W01
 BYTE   VOL   74*PreludeFF5_mvl/mxv
 BYTE   N06  Cn1
 BYTE   W06
 BYTE   As0
 BYTE   W05
 BYTE   VOL   54*PreludeFF5_mvl/mxv
 BYTE   W01
 BYTE   VOL   74*PreludeFF5_mvl/mxv
 BYTE   N06  Fn0  v020
 BYTE   W03
//  #03 //010   ----------------------------------------
 BYTE   W03
 BYTE   En0
 BYTE   W06
 BYTE   Gn0  v028
 BYTE   W06
 BYTE   Cn1
 BYTE   W06
 BYTE   Dn1
 BYTE   W06
 BYTE   En1
 BYTE   W06
 BYTE   Gn1
 BYTE   W06
 BYTE   Cn2
 BYTE   W06
 BYTE   Dn2
 BYTE   W06
 BYTE   En2
 BYTE   W06
 BYTE   Gn2
 BYTE   W06
 BYTE   Cn3
 BYTE   W06
 BYTE   Dn3
 BYTE   W06
 BYTE   En3
 BYTE   W06
 BYTE   Gn3
 BYTE   W06
 BYTE   Cn4
 BYTE   W06
 BYTE   Dn4
 BYTE   W03
//  #03 //011   ----------------------------------------
 BYTE   W03
 BYTE   PAN   c_v+63
 BYTE   N06  En4
 BYTE   W06
 BYTE   Dn4
 BYTE   W06
 BYTE   Cn4
 BYTE   W06
 BYTE   Gn3
 BYTE   W06
 BYTE   En3
 BYTE   W06
 BYTE   Dn3
 BYTE   W06
 BYTE   Cn3
 BYTE   W06
 BYTE   Gn2
 BYTE   W06
 BYTE   En2
 BYTE   W06
 BYTE   Dn2
 BYTE   W06
 BYTE   Cn2
 BYTE   W06
 BYTE   Gn1
 BYTE   W06
 BYTE   En1
 BYTE   W06
 BYTE   Dn1
 BYTE   W06
 BYTE   Cn1
 BYTE   W06
 BYTE   Gn0
 BYTE   W03
//  #03 //012   ----------------------------------------
 BYTE   W03
 BYTE   Cs0
 BYTE   W06
 BYTE   Fn0
 BYTE   W06
 BYTE   Gs0
 BYTE   W06
 BYTE   Cn1
 BYTE   W06
 BYTE   Cs1
 BYTE   W06
 BYTE   Fn1
 BYTE   W06
 BYTE   Gs1
 BYTE   W06
 BYTE   Cn2
 BYTE   W06
 BYTE   Cs2
 BYTE   W06
 BYTE   Fn2
 BYTE   W06
 BYTE   Gs2
 BYTE   W06
 BYTE   Cn3
 BYTE   W06
 BYTE   Cs3
 BYTE   W06
 BYTE   Fn3
 BYTE   W06
 BYTE   Gs3
 BYTE   W06
 BYTE   Cn4
 BYTE   W03
//  #03 //013   ----------------------------------------
 BYTE   W03
 BYTE   PAN   c_v-64
 BYTE   N06  Cs4
 BYTE   W06
 BYTE   Cn4
 BYTE   W06
 BYTE   Gs3
 BYTE   W06
 BYTE   Fn3
 BYTE   W06
 BYTE   Cs3
 BYTE   W06
 BYTE   Cn3
 BYTE   W06
 BYTE   Gs2
 BYTE   W06
 BYTE   Fn2
 BYTE   W06
 BYTE   Cs2
 BYTE   W06
 BYTE   Cn2
 BYTE   W06
 BYTE   Gs1
 BYTE   W06
 BYTE   Fn1
 BYTE   W06
 BYTE   Cs1
 BYTE   W04
 BYTE   VOL   63*PreludeFF5_mvl/mxv
 BYTE   W01
 BYTE   VOL   47*PreludeFF5_mvl/mxv
 BYTE   W01
 BYTE   VOL   74*PreludeFF5_mvl/mxv
 BYTE   N06  Cn1
 BYTE   W05
 BYTE   VOL   63*PreludeFF5_mvl/mxv
 BYTE   W01
 BYTE   VOL   74*PreludeFF5_mvl/mxv
 BYTE   N06  Gs0  v020
 BYTE   W05
 BYTE   VOL   58*PreludeFF5_mvl/mxv
 BYTE   W01
 BYTE   VOL   74*PreludeFF5_mvl/mxv
 BYTE   N06  Fn0
 BYTE   W03
//  #03 //014   ----------------------------------------
 BYTE   W03
 BYTE   Ds0  v028
 BYTE   W06
 BYTE   Gn0
 BYTE   W06
 BYTE   As0
 BYTE   W06
 BYTE   Dn1
 BYTE   W06
 BYTE   Ds1
 BYTE   W06
 BYTE   Gn1
 BYTE   W06
 BYTE   As1
 BYTE   W06
 BYTE   Dn2
 BYTE   W06
 BYTE   Ds2
 BYTE   W06
 BYTE   Gn2
 BYTE   W06
 BYTE   As2
 BYTE   W06
 BYTE   Dn3
 BYTE   W06
 BYTE   Ds3
 BYTE   W06
 BYTE   Gn3
 BYTE   W06
 BYTE   As3
 BYTE   W06
 BYTE   Dn4
 BYTE   W03
//  #03 //015   ----------------------------------------
 BYTE   W03
 BYTE   PAN   c_v+63
 BYTE   N06  Ds4
 BYTE   W06
 BYTE   Dn4
 BYTE   W06
 BYTE   As3
 BYTE   W06
 BYTE   Gn3
 BYTE   W06
 BYTE   Ds3
 BYTE   W06
 BYTE   Dn3
 BYTE   W06
 BYTE   As2
 BYTE   W06
 BYTE   Gn2
 BYTE   W06
 BYTE   Ds2
 BYTE   W06
 BYTE   Dn2
 BYTE   W06
 BYTE   As1
 BYTE   W06
 BYTE   Gn1
 BYTE   W06
 BYTE   Ds1
 BYTE   W06
 BYTE   Dn1
 BYTE   W06
 BYTE   As0
 BYTE   W06
 BYTE   Gn0
 BYTE   W03
//  #03 //016   ----------------------------------------
Label_01FDC41D:
 BYTE   W07
 BYTE   W88
 BYTE   W01
//  #03 //017   ----------------------------------------
 BYTE   W96
//  #03 //018   ----------------------------------------
 BYTE   W96
//  #03 //019   ----------------------------------------
 BYTE   W96
//  #03 //020   ----------------------------------------
 BYTE   W96
//  #03 //021   ----------------------------------------
 BYTE   W96
//  #03 //022   ----------------------------------------
 BYTE   W96
//  #03 //023   ----------------------------------------
 BYTE   W96
//  #03 //024   ----------------------------------------
 BYTE   W96
//  #03 //025   ----------------------------------------
 BYTE   W96
//  #03 //026   ----------------------------------------
 BYTE   W96
//  #03 //027   ----------------------------------------
 BYTE   W96
//  #03 //028   ----------------------------------------
 BYTE   W96
//  #03 //029   ----------------------------------------
 BYTE   W96
//  #03 //030   ----------------------------------------
 BYTE   W96
//  #03 //031   ----------------------------------------
 BYTE   W96
//  #03 //032   ----------------------------------------
 BYTE   GoTo
  POIN2 Label_01FDC41D
 BYTE   FINE

//**************** Track 4 (Midi-Chn.3) ****************//

PreludeFF5_004:
//  #04 //000   ----------------------------------------
 BYTE   KEYSH   PreludeFF5_key+0
 BYTE   VOICE   48
 BYTE   PAN   c_v+26
 BYTE   W96
//  #04 //001   ----------------------------------------
 BYTE   W96
//  #04 //002   ----------------------------------------
 BYTE   W96
//  #04 //003   ----------------------------------------
 BYTE   W96
//  #04 //004   ----------------------------------------
 BYTE   W96
//  #04 //005   ----------------------------------------
 BYTE   W96
//  #04 //006   ----------------------------------------
 BYTE   W96
//  #04 //007   ----------------------------------------
 BYTE   W96
//  #04 //008   ----------------------------------------
 BYTE   W96
//  #04 //009   ----------------------------------------
 BYTE   W96
//  #04 //010   ----------------------------------------
 BYTE   W96
//  #04 //011   ----------------------------------------
 BYTE   W96
//  #04 //012   ----------------------------------------
 BYTE   W96
//  #04 //013   ----------------------------------------
 BYTE   W96
//  #04 //014   ----------------------------------------
 BYTE   W96
//  #04 //015   ----------------------------------------
 BYTE   W88
 BYTE   W02
 BYTE   VOL   54*PreludeFF5_mvl/mxv
 BYTE   W04
 BYTE   BEND   c_v+5
 BYTE   W02
//  #04 //016   ----------------------------------------
Label_01FDC455:
 BYTE   N96  Cn4  v088
 BYTE   W72
 BYTE   VOL   53*PreludeFF5_mvl/mxv
 BYTE   W03
 BYTE   VOL   52*PreludeFF5_mvl/mxv
 BYTE   W03
 BYTE   VOL   51*PreludeFF5_mvl/mxv
 BYTE   W03
 BYTE   VOL   50*PreludeFF5_mvl/mxv
 BYTE   W03
 BYTE   VOL   48*PreludeFF5_mvl/mxv
 BYTE   W03
 BYTE   VOL   47*PreludeFF5_mvl/mxv
 BYTE   W03
 BYTE   VOL   45*PreludeFF5_mvl/mxv
 BYTE   W03
 BYTE   VOL   43*PreludeFF5_mvl/mxv
 BYTE   W03
//  #04 //017   ----------------------------------------
 BYTE   VOL   54*PreludeFF5_mvl/mxv
 BYTE   N48  Bn3  v100
 BYTE   W32
 BYTE   W01
 BYTE   VOL   53*PreludeFF5_mvl/mxv
 BYTE   W03
 BYTE   VOL   53*PreludeFF5_mvl/mxv
 BYTE   W03
 BYTE   VOL   50*PreludeFF5_mvl/mxv
 BYTE   W03
 BYTE   VOL   47*PreludeFF5_mvl/mxv
 BYTE   W03
 BYTE   VOL   41*PreludeFF5_mvl/mxv
 BYTE   W03
 BYTE   VOL   53*PreludeFF5_mvl/mxv
 BYTE   N48  Dn4  v076
 BYTE   W32
 BYTE   W01
 BYTE   VOL   52*PreludeFF5_mvl/mxv
 BYTE   W03
 BYTE   VOL   51*PreludeFF5_mvl/mxv
 BYTE   W03
 BYTE   VOL   48*PreludeFF5_mvl/mxv
 BYTE   W03
 BYTE   VOL   45*PreludeFF5_mvl/mxv
 BYTE   W03
 BYTE   VOL   40*PreludeFF5_mvl/mxv
 BYTE   W03
//  #04 //018   ----------------------------------------
 BYTE   VOL   53*PreludeFF5_mvl/mxv
 BYTE   TIE  Cn4  v080
 BYTE   W24
 BYTE   VOL   54*PreludeFF5_mvl/mxv
 BYTE   W09
 BYTE   VOL   55*PreludeFF5_mvl/mxv
 BYTE   W09
 BYTE   VOL   56*PreludeFF5_mvl/mxv
 BYTE   W09
 BYTE   VOL   57*PreludeFF5_mvl/mxv
 BYTE   W03
 BYTE   VOL   57*PreludeFF5_mvl/mxv
 BYTE   W09
 BYTE   VOL   58*PreludeFF5_mvl/mxv
 BYTE   W03
 BYTE   VOL   59*PreludeFF5_mvl/mxv
 BYTE   W06
 BYTE   VOL   61*PreludeFF5_mvl/mxv
 BYTE   W24
//  #04 //019   ----------------------------------------
 BYTE   VOL   60*PreludeFF5_mvl/mxv
 BYTE   W12
 BYTE   VOL   59*PreludeFF5_mvl/mxv
 BYTE   W03
 BYTE   VOL   59*PreludeFF5_mvl/mxv
 BYTE   W03
 BYTE   VOL   58*PreludeFF5_mvl/mxv
 BYTE   W03
 BYTE   VOL   57*PreludeFF5_mvl/mxv
 BYTE   W03
 BYTE   VOL   57*PreludeFF5_mvl/mxv
 BYTE   W03
 BYTE   VOL   56*PreludeFF5_mvl/mxv
 BYTE   W03
 BYTE   VOL   55*PreludeFF5_mvl/mxv
 BYTE   W03
 BYTE   VOL   53*PreludeFF5_mvl/mxv
 BYTE   W03
 BYTE   VOL   53*PreludeFF5_mvl/mxv
 BYTE   W03
 BYTE   VOL   51*PreludeFF5_mvl/mxv
 BYTE   W03
 BYTE   VOL   50*PreludeFF5_mvl/mxv
 BYTE   W03
 BYTE   VOL   48*PreludeFF5_mvl/mxv
 BYTE   W03
 BYTE   VOL   47*PreludeFF5_mvl/mxv
 BYTE   W03
 BYTE   VOL   45*PreludeFF5_mvl/mxv
 BYTE   W03
 BYTE   VOL   43*PreludeFF5_mvl/mxv
 BYTE   W03
 BYTE   VOL   42*PreludeFF5_mvl/mxv
 BYTE   W03
 BYTE   VOL   39*PreludeFF5_mvl/mxv
 BYTE   W03
 BYTE   VOL   37*PreludeFF5_mvl/mxv
 BYTE   W03
 BYTE   VOL   35*PreludeFF5_mvl/mxv
 BYTE   W03
 BYTE   VOL   33*PreludeFF5_mvl/mxv
 BYTE   W03
 BYTE   VOL   30*PreludeFF5_mvl/mxv
 BYTE   W03
 BYTE   VOL   28*PreludeFF5_mvl/mxv
 BYTE   W03
 BYTE   VOL   25*PreludeFF5_mvl/mxv
 BYTE   W03
 BYTE   VOL   23*PreludeFF5_mvl/mxv
 BYTE   W03
 BYTE   VOL   19*PreludeFF5_mvl/mxv
 BYTE   W03
 BYTE   VOL   17*PreludeFF5_mvl/mxv
 BYTE   W03
 BYTE   VOL   14*PreludeFF5_mvl/mxv
 BYTE   W04
 BYTE   EOT
 BYTE   W02
//  #04 //020   ----------------------------------------
 BYTE   VOL   54*PreludeFF5_mvl/mxv
 BYTE   N96  Cn4  v100
 BYTE   W78
 BYTE   VOL   53*PreludeFF5_mvl/mxv
 BYTE   W06
 BYTE   VOL   52*PreludeFF5_mvl/mxv
 BYTE   W03
 BYTE   VOL   49*PreludeFF5_mvl/mxv
 BYTE   W03
 BYTE   VOL   46*PreludeFF5_mvl/mxv
 BYTE   W03
 BYTE   VOL   42*PreludeFF5_mvl/mxv
 BYTE   W03
//  #04 //021   ----------------------------------------
 BYTE   VOL   54*PreludeFF5_mvl/mxv
 BYTE   N48  Bn3  v104
 BYTE   W32
 BYTE   W01
 BYTE   VOL   53*PreludeFF5_mvl/mxv
 BYTE   W03
 BYTE   VOL   53*PreludeFF5_mvl/mxv
 BYTE   W03
 BYTE   VOL   50*PreludeFF5_mvl/mxv
 BYTE   W03
 BYTE   VOL   47*PreludeFF5_mvl/mxv
 BYTE   W03
 BYTE   VOL   41*PreludeFF5_mvl/mxv
 BYTE   W03
 BYTE   VOL   53*PreludeFF5_mvl/mxv
 BYTE   N48  Dn4  v076
 BYTE   W32
 BYTE   W01
 BYTE   VOL   52*PreludeFF5_mvl/mxv
 BYTE   W03
 BYTE   VOL   51*PreludeFF5_mvl/mxv
 BYTE   W03
 BYTE   VOL   50*PreludeFF5_mvl/mxv
 BYTE   W03
 BYTE   VOL   48*PreludeFF5_mvl/mxv
 BYTE   W03
 BYTE   VOL   46*PreludeFF5_mvl/mxv
 BYTE   W03
//  #04 //022   ----------------------------------------
 BYTE   VOL   54*PreludeFF5_mvl/mxv
 BYTE   TIE  Cn4  v080
 BYTE   W48
 BYTE   VOL   55*PreludeFF5_mvl/mxv
 BYTE   W03
 BYTE   VOL   56*PreludeFF5_mvl/mxv
 BYTE   W06
 BYTE   VOL   57*PreludeFF5_mvl/mxv
 BYTE   W06
 BYTE   VOL   57*PreludeFF5_mvl/mxv
 BYTE   W03
 BYTE   VOL   58*PreludeFF5_mvl/mxv
 BYTE   W03
 BYTE   VOL   59*PreludeFF5_mvl/mxv
 BYTE   W03
 BYTE   VOL   61*PreludeFF5_mvl/mxv
 BYTE   W12
 BYTE   VOL   61*PreludeFF5_mvl/mxv
 BYTE   W09
 BYTE   VOL   60*PreludeFF5_mvl/mxv
 BYTE   W03
//  #04 //023   ----------------------------------------
 BYTE   VOL   60*PreludeFF5_mvl/mxv
 BYTE   W06
 BYTE   VOL   59*PreludeFF5_mvl/mxv
 BYTE   W06
 BYTE   VOL   58*PreludeFF5_mvl/mxv
 BYTE   W06
 BYTE   VOL   57*PreludeFF5_mvl/mxv
 BYTE   W03
 BYTE   VOL   56*PreludeFF5_mvl/mxv
 BYTE   W03
 BYTE   VOL   55*PreludeFF5_mvl/mxv
 BYTE   W03
 BYTE   VOL   54*PreludeFF5_mvl/mxv
 BYTE   W03
 BYTE   VOL   53*PreludeFF5_mvl/mxv
 BYTE   W03
 BYTE   VOL   52*PreludeFF5_mvl/mxv
 BYTE   W03
 BYTE   VOL   51*PreludeFF5_mvl/mxv
 BYTE   W03
 BYTE   VOL   50*PreludeFF5_mvl/mxv
 BYTE   W03
 BYTE   VOL   48*PreludeFF5_mvl/mxv
 BYTE   W03
 BYTE   VOL   47*PreludeFF5_mvl/mxv
 BYTE   W03
 BYTE   VOL   46*PreludeFF5_mvl/mxv
 BYTE   W03
 BYTE   VOL   44*PreludeFF5_mvl/mxv
 BYTE   W03
 BYTE   VOL   43*PreludeFF5_mvl/mxv
 BYTE   W03
 BYTE   VOL   41*PreludeFF5_mvl/mxv
 BYTE   W03
 BYTE   VOL   39*PreludeFF5_mvl/mxv
 BYTE   W03
 BYTE   VOL   38*PreludeFF5_mvl/mxv
 BYTE   W03
 BYTE   VOL   35*PreludeFF5_mvl/mxv
 BYTE   W03
 BYTE   VOL   34*PreludeFF5_mvl/mxv
 BYTE   W03
 BYTE   VOL   31*PreludeFF5_mvl/mxv
 BYTE   W03
 BYTE   VOL   29*PreludeFF5_mvl/mxv
 BYTE   W03
 BYTE   VOL   27*PreludeFF5_mvl/mxv
 BYTE   W03
 BYTE   VOL   25*PreludeFF5_mvl/mxv
 BYTE   W03
 BYTE   VOL   23*PreludeFF5_mvl/mxv
 BYTE   W03
 BYTE   VOL   20*PreludeFF5_mvl/mxv
 BYTE   W03
 BYTE   VOL   18*PreludeFF5_mvl/mxv
 BYTE   W03
 BYTE   VOL   15*PreludeFF5_mvl/mxv
 BYTE   W03
//  #04 //024   ----------------------------------------
 BYTE   EOT
 BYTE   VOL   54*PreludeFF5_mvl/mxv
 BYTE   N96  An3  v096
 BYTE   W24
 BYTE   VOL   55*PreludeFF5_mvl/mxv
 BYTE   W03
 BYTE   VOL   56*PreludeFF5_mvl/mxv
 BYTE   W03
 BYTE   VOL   57*PreludeFF5_mvl/mxv
 BYTE   W03
 BYTE   VOL   57*PreludeFF5_mvl/mxv
 BYTE   W15
 BYTE   VOL   57*PreludeFF5_mvl/mxv
 BYTE   W06
 BYTE   VOL   56*PreludeFF5_mvl/mxv
 BYTE   W06
 BYTE   VOL   55*PreludeFF5_mvl/mxv
 BYTE   W03
 BYTE   VOL   54*PreludeFF5_mvl/mxv
 BYTE   W03
 BYTE   VOL   53*PreludeFF5_mvl/mxv
 BYTE   W06
 BYTE   VOL   53*PreludeFF5_mvl/mxv
 BYTE   W03
 BYTE   VOL   52*PreludeFF5_mvl/mxv
 BYTE   W03
 BYTE   VOL   51*PreludeFF5_mvl/mxv
 BYTE   W03
 BYTE   VOL   50*PreludeFF5_mvl/mxv
 BYTE   W03
 BYTE   VOL   48*PreludeFF5_mvl/mxv
 BYTE   W03
 BYTE   VOL   48*PreludeFF5_mvl/mxv
 BYTE   W03
 BYTE   VOL   47*PreludeFF5_mvl/mxv
 BYTE   W03
 BYTE   VOL   45*PreludeFF5_mvl/mxv
 BYTE   W03
//  #04 //025   ----------------------------------------
 BYTE   VOL   54*PreludeFF5_mvl/mxv
 BYTE   N48  Gn3
 BYTE   W24
 BYTE   W03
 BYTE   VOL   53*PreludeFF5_mvl/mxv
 BYTE   W06
 BYTE   VOL   52*PreludeFF5_mvl/mxv
 BYTE   W03
 BYTE   VOL   50*PreludeFF5_mvl/mxv
 BYTE   W03
 BYTE   VOL   48*PreludeFF5_mvl/mxv
 BYTE   W03
 BYTE   VOL   45*PreludeFF5_mvl/mxv
 BYTE   W03
 BYTE   VOL   42*PreludeFF5_mvl/mxv
 BYTE   W03
 BYTE   VOL   54*PreludeFF5_mvl/mxv
 BYTE   N48  An3  v100
 BYTE   W32
 BYTE   W01
 BYTE   VOL   53*PreludeFF5_mvl/mxv
 BYTE   W06
 BYTE   VOL   52*PreludeFF5_mvl/mxv
 BYTE   W03
 BYTE   VOL   50*PreludeFF5_mvl/mxv
 BYTE   W03
 BYTE   VOL   47*PreludeFF5_mvl/mxv
 BYTE   W03
//  #04 //026   ----------------------------------------
 BYTE   VOL   54*PreludeFF5_mvl/mxv
 BYTE   N72  Bn3
 BYTE   W06
 BYTE   VOL   55*PreludeFF5_mvl/mxv
 BYTE   W03
 BYTE   VOL   56*PreludeFF5_mvl/mxv
 BYTE   W09
 BYTE   VOL   57*PreludeFF5_mvl/mxv
 BYTE   W03
 BYTE   VOL   57*PreludeFF5_mvl/mxv
 BYTE   W03
 BYTE   VOL   59*PreludeFF5_mvl/mxv
 BYTE   W03
 BYTE   VOL   60*PreludeFF5_mvl/mxv
 BYTE   W03
 BYTE   VOL   62*PreludeFF5_mvl/mxv
 BYTE   W03
 BYTE   VOL   63*PreludeFF5_mvl/mxv
 BYTE   W03
 BYTE   VOL   66*PreludeFF5_mvl/mxv
 BYTE   W12
 BYTE   VOL   65*PreludeFF5_mvl/mxv
 BYTE   W03
 BYTE   VOL   64*PreludeFF5_mvl/mxv
 BYTE   W03
 BYTE   VOL   63*PreludeFF5_mvl/mxv
 BYTE   W03
 BYTE   VOL   62*PreludeFF5_mvl/mxv
 BYTE   W03
 BYTE   VOL   60*PreludeFF5_mvl/mxv
 BYTE   W03
 BYTE   VOL   58*PreludeFF5_mvl/mxv
 BYTE   W03
 BYTE   VOL   56*PreludeFF5_mvl/mxv
 BYTE   W03
 BYTE   VOL   53*PreludeFF5_mvl/mxv
 BYTE   W03
 BYTE   VOL   54*PreludeFF5_mvl/mxv
 BYTE   N24  Cn4
 BYTE   W24
//  #04 //027   ----------------------------------------
 BYTE   N48  Dn4  v096
 BYTE   W32
 BYTE   W01
 BYTE   VOL   53*PreludeFF5_mvl/mxv
 BYTE   W06
 BYTE   VOL   51*PreludeFF5_mvl/mxv
 BYTE   W03
 BYTE   VOL   48*PreludeFF5_mvl/mxv
 BYTE   W03
 BYTE   VOL   45*PreludeFF5_mvl/mxv
 BYTE   W03
 BYTE   VOL   54*PreludeFF5_mvl/mxv
 BYTE   N44  Bn3  v084
 BYTE   W30
 BYTE   VOL   53*PreludeFF5_mvl/mxv
 BYTE   W03
 BYTE   VOL   53*PreludeFF5_mvl/mxv
 BYTE   W03
 BYTE   VOL   52*PreludeFF5_mvl/mxv
 BYTE   W03
 BYTE   VOL   49*PreludeFF5_mvl/mxv
 BYTE   W03
 BYTE   VOL   47*PreludeFF5_mvl/mxv
 BYTE   W03
 BYTE   VOL   43*PreludeFF5_mvl/mxv
 BYTE   W03
//  #04 //028   ----------------------------------------
 BYTE   VOL   54*PreludeFF5_mvl/mxv
 BYTE   N96  Cn4  v100
 BYTE   W09
 BYTE   VOL   55*PreludeFF5_mvl/mxv
 BYTE   W09
 BYTE   VOL   56*PreludeFF5_mvl/mxv
 BYTE   W06
 BYTE   VOL   57*PreludeFF5_mvl/mxv
 BYTE   W03
 BYTE   VOL   57*PreludeFF5_mvl/mxv
 BYTE   W03
 BYTE   VOL   58*PreludeFF5_mvl/mxv
 BYTE   W03
 BYTE   VOL   59*PreludeFF5_mvl/mxv
 BYTE   W03
 BYTE   VOL   60*PreludeFF5_mvl/mxv
 BYTE   W03
 BYTE   VOL   61*PreludeFF5_mvl/mxv
 BYTE   W03
 BYTE   VOL   63*PreludeFF5_mvl/mxv
 BYTE   W09
 BYTE   VOL   62*PreludeFF5_mvl/mxv
 BYTE   W06
 BYTE   VOL   61*PreludeFF5_mvl/mxv
 BYTE   W03
 BYTE   VOL   60*PreludeFF5_mvl/mxv
 BYTE   W03
 BYTE   VOL   59*PreludeFF5_mvl/mxv
 BYTE   W03
 BYTE   VOL   57*PreludeFF5_mvl/mxv
 BYTE   W03
 BYTE   VOL   56*PreludeFF5_mvl/mxv
 BYTE   W03
 BYTE   VOL   54*PreludeFF5_mvl/mxv
 BYTE   W03
 BYTE   VOL   52*PreludeFF5_mvl/mxv
 BYTE   W03
 BYTE   VOL   50*PreludeFF5_mvl/mxv
 BYTE   W03
 BYTE   VOL   48*PreludeFF5_mvl/mxv
 BYTE   W03
 BYTE   VOL   45*PreludeFF5_mvl/mxv
 BYTE   W03
 BYTE   VOL   43*PreludeFF5_mvl/mxv
 BYTE   W03
 BYTE   VOL   39*PreludeFF5_mvl/mxv
 BYTE   W01
 BYTE   VOL   38*PreludeFF5_mvl/mxv
 BYTE   W02
 BYTE   VOL   36*PreludeFF5_mvl/mxv
 BYTE   W01
 BYTE   VOL   35*PreludeFF5_mvl/mxv
 BYTE   W02
//  #04 //029   ----------------------------------------
 BYTE   VOL   54*PreludeFF5_mvl/mxv
 BYTE   N24  Ds4  v092
 BYTE   W24
 BYTE   Dn4  v088
 BYTE   W24
 BYTE   Cn4  v084
 BYTE   W24
 BYTE   Ds4
 BYTE   W21
 BYTE   VOL   51*PreludeFF5_mvl/mxv
 BYTE   W01
 BYTE   VOL   47*PreludeFF5_mvl/mxv
 BYTE   W02
//  #04 //030   ----------------------------------------
 BYTE   VOL   54*PreludeFF5_mvl/mxv
 BYTE   N72  Dn4  v096
 BYTE   W10
 BYTE   VOL   55*PreludeFF5_mvl/mxv
 BYTE   W05
 BYTE   VOL   56*PreludeFF5_mvl/mxv
 BYTE   W03
 BYTE   VOL   57*PreludeFF5_mvl/mxv
 BYTE   W03
 BYTE   VOL   57*PreludeFF5_mvl/mxv
 BYTE   W03
 BYTE   VOL   59*PreludeFF5_mvl/mxv
 BYTE   W03
 BYTE   VOL   60*PreludeFF5_mvl/mxv
 BYTE   W03
 BYTE   VOL   62*PreludeFF5_mvl/mxv
 BYTE   W03
 BYTE   VOL   62*PreludeFF5_mvl/mxv
 BYTE   W03
 BYTE   VOL   66*PreludeFF5_mvl/mxv
 BYTE   W09
 BYTE   VOL   64*PreludeFF5_mvl/mxv
 BYTE   W03
 BYTE   VOL   62*PreludeFF5_mvl/mxv
 BYTE   W03
 BYTE   VOL   61*PreludeFF5_mvl/mxv
 BYTE   W03
 BYTE   VOL   58*PreludeFF5_mvl/mxv
 BYTE   W03
 BYTE   VOL   55*PreludeFF5_mvl/mxv
 BYTE   W03
 BYTE   VOL   52*PreludeFF5_mvl/mxv
 BYTE   W03
 BYTE   VOL   48*PreludeFF5_mvl/mxv
 BYTE   W03
 BYTE   VOL   43*PreludeFF5_mvl/mxv
 BYTE   W03
 BYTE   VOL   38*PreludeFF5_mvl/mxv
 BYTE   W03
 BYTE   VOL   54*PreludeFF5_mvl/mxv
 BYTE   N24  Ds4  v084
 BYTE   W24
//  #04 //031   ----------------------------------------
 BYTE   N48  Fn4
 BYTE   W24
 BYTE   VOL   53*PreludeFF5_mvl/mxv
 BYTE   W06
 BYTE   VOL   52*PreludeFF5_mvl/mxv
 BYTE   W03
 BYTE   VOL   50*PreludeFF5_mvl/mxv
 BYTE   W03
 BYTE   VOL   48*PreludeFF5_mvl/mxv
 BYTE   W03
 BYTE   VOL   45*PreludeFF5_mvl/mxv
 BYTE   W03
 BYTE   VOL   42*PreludeFF5_mvl/mxv
 BYTE   W03
 BYTE   VOL   38*PreludeFF5_mvl/mxv
 BYTE   W03
 BYTE   VOL   54*PreludeFF5_mvl/mxv
 BYTE   N44  Dn4  v064
 BYTE   W32
 BYTE   W01
 BYTE   VOL   53*PreludeFF5_mvl/mxv
 BYTE   W01
 BYTE   VOL   53*PreludeFF5_mvl/mxv
 BYTE   W02
 BYTE   VOL   52*PreludeFF5_mvl/mxv
 BYTE   W01
 BYTE   VOL   48*PreludeFF5_mvl/mxv
 BYTE   W02
 BYTE   VOL   45*PreludeFF5_mvl/mxv
 BYTE   W01
 BYTE   VOL   41*PreludeFF5_mvl/mxv
 BYTE   W02
 BYTE   VOL   36*PreludeFF5_mvl/mxv
 BYTE   W01
 BYTE   VOL   29*PreludeFF5_mvl/mxv
 BYTE   W02
 BYTE   VOL   22*PreludeFF5_mvl/mxv
 BYTE   W02
 BYTE   VOL   34*PreludeFF5_mvl/mxv
 BYTE   W01
//  #04 //032   ----------------------------------------
 BYTE   GoTo
  POIN2 Label_01FDC455
 BYTE   FINE

//**************** Track 5 (Midi-Chn.4) ****************//

PreludeFF5_005:
//  #05 //000   ----------------------------------------
 BYTE   KEYSH   PreludeFF5_key+0
 BYTE   VOICE   41
 BYTE   PAN   c_v-34
 BYTE   W96
//  #05 //001   ----------------------------------------
 BYTE   W96
//  #05 //002   ----------------------------------------
 BYTE   W96
//  #05 //003   ----------------------------------------
 BYTE   W96
//  #05 //004   ----------------------------------------
 BYTE   W96
//  #05 //005   ----------------------------------------
 BYTE   W96
//  #05 //006   ----------------------------------------
 BYTE   W96
//  #05 //007   ----------------------------------------
 BYTE   W96
//  #05 //008   ----------------------------------------
 BYTE   W96
//  #05 //009   ----------------------------------------
 BYTE   W96
//  #05 //010   ----------------------------------------
 BYTE   W96
//  #05 //011   ----------------------------------------
 BYTE   W96
//  #05 //012   ----------------------------------------
 BYTE   W96
//  #05 //013   ----------------------------------------
 BYTE   W96
//  #05 //014   ----------------------------------------
 BYTE   W96
//  #05 //015   ----------------------------------------
 BYTE   W96
//  #05 //016   ----------------------------------------
Label_725F3E:
 BYTE   W96
//  #05 //017   ----------------------------------------
 BYTE   W96
//  #05 //018   ----------------------------------------
 BYTE   W68
 BYTE   W01
 BYTE   W21
 BYTE   VOL   56*PreludeFF5_mvl/mxv
 BYTE   W03
 BYTE   VOL   43*PreludeFF5_mvl/mxv
 BYTE   BEND   c_v+5
 BYTE   W03
//  #05 //019   ----------------------------------------
 BYTE   N24  Dn3  v048
 BYTE   W03
 BYTE   VOL   50*PreludeFF5_mvl/mxv
 BYTE   W03
 BYTE   VOL   56*PreludeFF5_mvl/mxv
 BYTE   W18
 BYTE   N24  Cn3
 BYTE   W24
 BYTE   Bn2
 BYTE   W24
 BYTE   N22  Dn3  v040
 BYTE   W22
 BYTE   TIE  Cn3  v044
 BYTE   W02
//  #05 //020   ----------------------------------------
 BYTE   W24
 BYTE   W03
 BYTE   VOL   55*PreludeFF5_mvl/mxv
 BYTE   W03
 BYTE   VOL   54*PreludeFF5_mvl/mxv
 BYTE   W03
 BYTE   VOL   53*PreludeFF5_mvl/mxv
 BYTE   W03
 BYTE   VOL   53*PreludeFF5_mvl/mxv
 BYTE   W03
 BYTE   VOL   51*PreludeFF5_mvl/mxv
 BYTE   W03
 BYTE   VOL   49*PreludeFF5_mvl/mxv
 BYTE   W03
 BYTE   VOL   48*PreludeFF5_mvl/mxv
 BYTE   W03
 BYTE   VOL   45*PreludeFF5_mvl/mxv
 BYTE   W03
 BYTE   VOL   43*PreludeFF5_mvl/mxv
 BYTE   W03
 BYTE   VOL   40*PreludeFF5_mvl/mxv
 BYTE   W03
 BYTE   VOL   37*PreludeFF5_mvl/mxv
 BYTE   W03
 BYTE   VOL   34*PreludeFF5_mvl/mxv
 BYTE   W03
 BYTE   VOL   30*PreludeFF5_mvl/mxv
 BYTE   W03
 BYTE   VOL   27*PreludeFF5_mvl/mxv
 BYTE   W03
 BYTE   VOL   23*PreludeFF5_mvl/mxv
 BYTE   W03
 BYTE   VOL   19*PreludeFF5_mvl/mxv
 BYTE   W03
 BYTE   VOL   14*PreludeFF5_mvl/mxv
 BYTE   W03
 BYTE   VOL   9*PreludeFF5_mvl/mxv
 BYTE   W03
 BYTE   VOL   4*PreludeFF5_mvl/mxv
 BYTE   W03
 BYTE   VOL   2*PreludeFF5_mvl/mxv
 BYTE   W03
 BYTE   VOL   2*PreludeFF5_mvl/mxv
 BYTE   W03
 BYTE   VOL   2*PreludeFF5_mvl/mxv
 BYTE   W03
 BYTE   VOL   2*PreludeFF5_mvl/mxv
 BYTE   W02
 BYTE   EOT
 BYTE   W01
//  #05 //021   ----------------------------------------
Label_725FAB:
 BYTE   W07
 BYTE   W88
 BYTE   W01
 BYTE   PEND 
//  #05 //022   ----------------------------------------
 BYTE   W84
 BYTE   W03
 BYTE   VOL   56*PreludeFF5_mvl/mxv
 BYTE   W09
//  #05 //023   ----------------------------------------
 BYTE   N24  En3  v060
 BYTE   W24
 BYTE   N23  Dn3  v052
 BYTE   W24
 BYTE   Cn3  v060
 BYTE   W24
 BYTE   N24  Bn2  v052
 BYTE   W24
//  #05 //024   ----------------------------------------
 BYTE   N96  An2  v036
 BYTE   W03
 BYTE   VOL   54*PreludeFF5_mvl/mxv
 BYTE   W09
 BYTE   VOL   53*PreludeFF5_mvl/mxv
 BYTE   W03
 BYTE   VOL   53*PreludeFF5_mvl/mxv
 BYTE   W03
 BYTE   VOL   52*PreludeFF5_mvl/mxv
 BYTE   W03
 BYTE   VOL   51*PreludeFF5_mvl/mxv
 BYTE   W03
 BYTE   VOL   50*PreludeFF5_mvl/mxv
 BYTE   W03
 BYTE   VOL   49*PreludeFF5_mvl/mxv
 BYTE   W03
 BYTE   VOL   48*PreludeFF5_mvl/mxv
 BYTE   W03
 BYTE   VOL   46*PreludeFF5_mvl/mxv
 BYTE   W03
 BYTE   VOL   44*PreludeFF5_mvl/mxv
 BYTE   W03
 BYTE   VOL   43*PreludeFF5_mvl/mxv
 BYTE   W03
 BYTE   VOL   41*PreludeFF5_mvl/mxv
 BYTE   W03
 BYTE   VOL   39*PreludeFF5_mvl/mxv
 BYTE   W03
 BYTE   VOL   36*PreludeFF5_mvl/mxv
 BYTE   W03
 BYTE   VOL   34*PreludeFF5_mvl/mxv
 BYTE   W03
 BYTE   VOL   31*PreludeFF5_mvl/mxv
 BYTE   W03
 BYTE   VOL   29*PreludeFF5_mvl/mxv
 BYTE   W03
 BYTE   VOL   25*PreludeFF5_mvl/mxv
 BYTE   W03
 BYTE   VOL   23*PreludeFF5_mvl/mxv
 BYTE   W03
 BYTE   VOL   20*PreludeFF5_mvl/mxv
 BYTE   W03
 BYTE   VOL   16*PreludeFF5_mvl/mxv
 BYTE   W03
 BYTE   VOL   13*PreludeFF5_mvl/mxv
 BYTE   W03
 BYTE   VOL   9*PreludeFF5_mvl/mxv
 BYTE   W03
 BYTE   VOL   5*PreludeFF5_mvl/mxv
 BYTE   W03
 BYTE   VOL   2*PreludeFF5_mvl/mxv
 BYTE   W03
 BYTE   VOL   2*PreludeFF5_mvl/mxv
 BYTE   W03
 BYTE   VOL   2*PreludeFF5_mvl/mxv
 BYTE   W03
 BYTE   VOL   2*PreludeFF5_mvl/mxv
 BYTE   W03
 BYTE   VOL   2*PreludeFF5_mvl/mxv
 BYTE   W03
//  #05 //025   ----------------------------------------
 BYTE   PATT
  POIN2 Label_725FAB
//  #05 //026   ----------------------------------------
 BYTE   W96
//  #05 //027   ----------------------------------------
 BYTE   W96
//  #05 //028   ----------------------------------------
 BYTE   W60
 BYTE   W02
 BYTE   W16
 BYTE   VOL   56*PreludeFF5_mvl/mxv
 BYTE   W18
//  #05 //029   ----------------------------------------
 BYTE   N24  Gn3  v032
 BYTE   W24
 BYTE   Fn3
 BYTE   W24
 BYTE   Ds3  v036
 BYTE   W24
 BYTE   N22  Gn3  v032
 BYTE   W22
 BYTE   TIE  Fn3
 BYTE   W02
//  #05 //030   ----------------------------------------
 BYTE   W42
 BYTE   VOL   55*PreludeFF5_mvl/mxv
 BYTE   W15
 BYTE   VOL   54*PreludeFF5_mvl/mxv
 BYTE   W12
 BYTE   VOL   53*PreludeFF5_mvl/mxv
 BYTE   W06
 BYTE   VOL   53*PreludeFF5_mvl/mxv
 BYTE   W09
 BYTE   VOL   52*PreludeFF5_mvl/mxv
 BYTE   W03
 BYTE   VOL   51*PreludeFF5_mvl/mxv
 BYTE   W06
 BYTE   VOL   50*PreludeFF5_mvl/mxv
 BYTE   W03
//  #05 //031   ----------------------------------------
 BYTE   VOL   49*PreludeFF5_mvl/mxv
 BYTE   W03
 BYTE   VOL   48*PreludeFF5_mvl/mxv
 BYTE   W03
 BYTE   VOL   48*PreludeFF5_mvl/mxv
 BYTE   W06
 BYTE   VOL   47*PreludeFF5_mvl/mxv
 BYTE   W03
 BYTE   VOL   46*PreludeFF5_mvl/mxv
 BYTE   W03
 BYTE   VOL   45*PreludeFF5_mvl/mxv
 BYTE   W03
 BYTE   VOL   44*PreludeFF5_mvl/mxv
 BYTE   W03
 BYTE   VOL   44*PreludeFF5_mvl/mxv
 BYTE   W03
 BYTE   VOL   43*PreludeFF5_mvl/mxv
 BYTE   W03
 BYTE   VOL   42*PreludeFF5_mvl/mxv
 BYTE   W03
 BYTE   VOL   40*PreludeFF5_mvl/mxv
 BYTE   W03
 BYTE   VOL   39*PreludeFF5_mvl/mxv
 BYTE   W03
 BYTE   VOL   39*PreludeFF5_mvl/mxv
 BYTE   W03
 BYTE   VOL   38*PreludeFF5_mvl/mxv
 BYTE   W03
 BYTE   VOL   36*PreludeFF5_mvl/mxv
 BYTE   W03
 BYTE   VOL   35*PreludeFF5_mvl/mxv
 BYTE   W03
 BYTE   VOL   34*PreludeFF5_mvl/mxv
 BYTE   W03
 BYTE   VOL   33*PreludeFF5_mvl/mxv
 BYTE   W03
 BYTE   VOL   31*PreludeFF5_mvl/mxv
 BYTE   W03
 BYTE   VOL   30*PreludeFF5_mvl/mxv
 BYTE   W03
 BYTE   VOL   29*PreludeFF5_mvl/mxv
 BYTE   W03
 BYTE   VOL   28*PreludeFF5_mvl/mxv
 BYTE   W03
 BYTE   VOL   26*PreludeFF5_mvl/mxv
 BYTE   W03
 BYTE   VOL   24*PreludeFF5_mvl/mxv
 BYTE   W03
 BYTE   VOL   24*PreludeFF5_mvl/mxv
 BYTE   W03
 BYTE   VOL   22*PreludeFF5_mvl/mxv
 BYTE   W03
 BYTE   VOL   20*PreludeFF5_mvl/mxv
 BYTE   W03
 BYTE   VOL   19*PreludeFF5_mvl/mxv
 BYTE   W03
 BYTE   VOL   17*PreludeFF5_mvl/mxv
 BYTE   W03
 BYTE   VOL   15*PreludeFF5_mvl/mxv
 BYTE   W03
 BYTE   VOL   14*PreludeFF5_mvl/mxv
 BYTE   W01
 BYTE   EOT
 BYTE   W02
//  #05 //032   ----------------------------------------
 BYTE   GoTo
  POIN2 Label_725F3E
 BYTE   FINE

//**************** Track 6 (Midi-Chn.5) ****************//

PreludeFF5_006:
//  #06 //000   ----------------------------------------
 BYTE   KEYSH   PreludeFF5_key+0
 BYTE   W96
//  #06 //001   ----------------------------------------
 BYTE   W96
//  #06 //002   ----------------------------------------
 BYTE   W96
//  #06 //003   ----------------------------------------
 BYTE   W96
//  #06 //004   ----------------------------------------
 BYTE   W96
//  #06 //005   ----------------------------------------
 BYTE   W96
//  #06 //006   ----------------------------------------
 BYTE   W96
//  #06 //007   ----------------------------------------
 BYTE   W96
//  #06 //008   ----------------------------------------
 BYTE   W96
//  #06 //009   ----------------------------------------
 BYTE   W96
//  #06 //010   ----------------------------------------
 BYTE   W96
//  #06 //011   ----------------------------------------
 BYTE   W96
//  #06 //012   ----------------------------------------
 BYTE   W96
//  #06 //013   ----------------------------------------
 BYTE   W96
//  #06 //014   ----------------------------------------
 BYTE   W96
//  #06 //015   ----------------------------------------
 BYTE   VOICE   42
 BYTE   W01
 BYTE   PAN   c_v+36
 BYTE   W88
 BYTE   W01
 BYTE   VOL   29*PreludeFF5_mvl/mxv
 BYTE   W06
//  #06 //016   ----------------------------------------
Label_01FDC79B:
 BYTE   VOL   29*PreludeFF5_mvl/mxv
 BYTE   TIE  Cn3  v096
 BYTE   W06
 BYTE   VOL   31*PreludeFF5_mvl/mxv
 BYTE   W03
 BYTE   VOL   32*PreludeFF5_mvl/mxv
 BYTE   W03
 BYTE   VOL   34*PreludeFF5_mvl/mxv
 BYTE   W03
 BYTE   VOL   35*PreludeFF5_mvl/mxv
 BYTE   W03
 BYTE   VOL   37*PreludeFF5_mvl/mxv
 BYTE   W03
 BYTE   VOL   39*PreludeFF5_mvl/mxv
 BYTE   W03
 BYTE   VOL   42*PreludeFF5_mvl/mxv
 BYTE   W03
 BYTE   VOL   45*PreludeFF5_mvl/mxv
 BYTE   W03
 BYTE   VOL   48*PreludeFF5_mvl/mxv
 BYTE   W03
 BYTE   VOL   51*PreludeFF5_mvl/mxv
 BYTE   W03
 BYTE   VOL   55*PreludeFF5_mvl/mxv
 BYTE   W03
 BYTE   VOL   58*PreludeFF5_mvl/mxv
 BYTE   W03
 BYTE   VOL   62*PreludeFF5_mvl/mxv
 BYTE   W06
 BYTE   VOL   64*PreludeFF5_mvl/mxv
 BYTE   W48
//  #06 //017   ----------------------------------------
Label_01FDC7CB:
 BYTE   W24
 BYTE   VOL   63*PreludeFF5_mvl/mxv
 BYTE   W06
 BYTE   VOL   63*PreludeFF5_mvl/mxv
 BYTE   W06
 BYTE   VOL   62*PreludeFF5_mvl/mxv
 BYTE   W06
 BYTE   VOL   60*PreludeFF5_mvl/mxv
 BYTE   W06
 BYTE   VOL   58*PreludeFF5_mvl/mxv
 BYTE   W06
 BYTE   VOL   55*PreludeFF5_mvl/mxv
 BYTE   W06
 BYTE   VOL   51*PreludeFF5_mvl/mxv
 BYTE   W06
 BYTE   VOL   47*PreludeFF5_mvl/mxv
 BYTE   W06
 BYTE   VOL   41*PreludeFF5_mvl/mxv
 BYTE   W06
 BYTE   VOL   36*PreludeFF5_mvl/mxv
 BYTE   W06
 BYTE   VOL   29*PreludeFF5_mvl/mxv
 BYTE   W06
 BYTE   VOL   22*PreludeFF5_mvl/mxv
 BYTE   W06
 BYTE   PEND 
//  #06 //018   ----------------------------------------
 BYTE   EOT
 BYTE   Cn3
Label_01FDC7F3:
 BYTE   VOL   53*PreludeFF5_mvl/mxv
 BYTE   TIE  An2  v100
 BYTE   W06
 BYTE   VOL   55*PreludeFF5_mvl/mxv
 BYTE   W03
 BYTE   VOL   57*PreludeFF5_mvl/mxv
 BYTE   W03
 BYTE   VOL   60*PreludeFF5_mvl/mxv
 BYTE   W03
 BYTE   VOL   64*PreludeFF5_mvl/mxv
 BYTE   W80
 BYTE   W01
 BYTE   PEND 
//  #06 //019   ----------------------------------------
 BYTE   PATT
  POIN2 Label_01FDC7CB
//  #06 //020   ----------------------------------------
 BYTE   W01
 BYTE   EOT
 BYTE   An2
 BYTE   VOL   37*PreludeFF5_mvl/mxv
 BYTE   TIE  Cn3  v108
 BYTE   W02
 BYTE   VOL   44*PreludeFF5_mvl/mxv
 BYTE   W03
 BYTE   VOL   53*PreludeFF5_mvl/mxv
 BYTE   W03
 BYTE   VOL   64*PreludeFF5_mvl/mxv
 BYTE   W84
 BYTE   W03
//  #06 //021   ----------------------------------------
 BYTE   W12
 BYTE   VOL   63*PreludeFF5_mvl/mxv
 BYTE   W12
 BYTE   VOL   62*PreludeFF5_mvl/mxv
 BYTE   W06
 BYTE   VOL   61*PreludeFF5_mvl/mxv
 BYTE   W06
 BYTE   VOL   58*PreludeFF5_mvl/mxv
 BYTE   W06
 BYTE   VOL   56*PreludeFF5_mvl/mxv
 BYTE   W06
 BYTE   VOL   53*PreludeFF5_mvl/mxv
 BYTE   W06
 BYTE   VOL   48*PreludeFF5_mvl/mxv
 BYTE   W06
 BYTE   VOL   44*PreludeFF5_mvl/mxv
 BYTE   W06
 BYTE   VOL   39*PreludeFF5_mvl/mxv
 BYTE   W06
 BYTE   VOL   34*PreludeFF5_mvl/mxv
 BYTE   W06
 BYTE   VOL   28*PreludeFF5_mvl/mxv
 BYTE   W06
 BYTE   VOL   20*PreludeFF5_mvl/mxv
 BYTE   W06
 BYTE   VOL   14*PreludeFF5_mvl/mxv
 BYTE   W05
 BYTE   EOT
 BYTE   W01
//  #06 //022   ----------------------------------------
 BYTE   PATT
  POIN2 Label_01FDC7F3
//  #06 //023   ----------------------------------------
 BYTE   W24
 BYTE   VOL   63*PreludeFF5_mvl/mxv
 BYTE   W15
 BYTE   VOL   63*PreludeFF5_mvl/mxv
 BYTE   W03
 BYTE   VOL   62*PreludeFF5_mvl/mxv
 BYTE   W06
 BYTE   VOL   60*PreludeFF5_mvl/mxv
 BYTE   W06
 BYTE   VOL   58*PreludeFF5_mvl/mxv
 BYTE   W06
 BYTE   VOL   55*PreludeFF5_mvl/mxv
 BYTE   W06
 BYTE   VOL   52*PreludeFF5_mvl/mxv
 BYTE   W06
 BYTE   VOL   47*PreludeFF5_mvl/mxv
 BYTE   W06
 BYTE   VOL   43*PreludeFF5_mvl/mxv
 BYTE   W06
 BYTE   VOL   37*PreludeFF5_mvl/mxv
 BYTE   W06
 BYTE   VOL   31*PreludeFF5_mvl/mxv
 BYTE   W06
//  #06 //024   ----------------------------------------
 BYTE   W01
 BYTE   EOT
 BYTE   An2
 BYTE   VOL   46*PreludeFF5_mvl/mxv
 BYTE   TIE  Fn2  v127
 BYTE   W02
 BYTE   VOL   49*PreludeFF5_mvl/mxv
 BYTE   W03
 BYTE   VOL   55*PreludeFF5_mvl/mxv
 BYTE   W03
 BYTE   VOL   61*PreludeFF5_mvl/mxv
 BYTE   W03
 BYTE   VOL   64*PreludeFF5_mvl/mxv
 BYTE   W78
 BYTE   VOL   63*PreludeFF5_mvl/mxv
 BYTE   W06
//  #06 //025   ----------------------------------------
 BYTE   W06
 BYTE   VOL   63*PreludeFF5_mvl/mxv
 BYTE   W15
 BYTE   VOL   62*PreludeFF5_mvl/mxv
 BYTE   W06
 BYTE   VOL   61*PreludeFF5_mvl/mxv
 BYTE   W03
 BYTE   VOL   60*PreludeFF5_mvl/mxv
 BYTE   W06
 BYTE   VOL   59*PreludeFF5_mvl/mxv
 BYTE   W06
 BYTE   VOL   57*PreludeFF5_mvl/mxv
 BYTE   W06
 BYTE   VOL   55*PreludeFF5_mvl/mxv
 BYTE   W06
 BYTE   VOL   53*PreludeFF5_mvl/mxv
 BYTE   W06
 BYTE   VOL   50*PreludeFF5_mvl/mxv
 BYTE   W06
 BYTE   VOL   47*PreludeFF5_mvl/mxv
 BYTE   W06
 BYTE   VOL   44*PreludeFF5_mvl/mxv
 BYTE   W06
 BYTE   VOL   40*PreludeFF5_mvl/mxv
 BYTE   W06
 BYTE   VOL   36*PreludeFF5_mvl/mxv
 BYTE   W06
 BYTE   VOL   32*PreludeFF5_mvl/mxv
 BYTE   W03
 BYTE   VOL   28*PreludeFF5_mvl/mxv
 BYTE   W01
 BYTE   EOT
 BYTE   W02
//  #06 //026   ----------------------------------------
 BYTE   W01
 BYTE   VOL   52*PreludeFF5_mvl/mxv
 BYTE   TIE  Gn2
 BYTE   W08
 BYTE   VOL   53*PreludeFF5_mvl/mxv
 BYTE   W03
 BYTE   VOL   53*PreludeFF5_mvl/mxv
 BYTE   W06
 BYTE   VOL   55*PreludeFF5_mvl/mxv
 BYTE   W03
 BYTE   VOL   56*PreludeFF5_mvl/mxv
 BYTE   W03
 BYTE   VOL   57*PreludeFF5_mvl/mxv
 BYTE   W03
 BYTE   VOL   58*PreludeFF5_mvl/mxv
 BYTE   W03
 BYTE   VOL   60*PreludeFF5_mvl/mxv
 BYTE   W03
 BYTE   VOL   63*PreludeFF5_mvl/mxv
 BYTE   W03
 BYTE   VOL   64*PreludeFF5_mvl/mxv
 BYTE   W03
 BYTE   VOL   67*PreludeFF5_mvl/mxv
 BYTE   W03
 BYTE   VOL   69*PreludeFF5_mvl/mxv
 BYTE   W03
 BYTE   VOL   70*PreludeFF5_mvl/mxv
 BYTE   W15
 BYTE   VOL   69*PreludeFF5_mvl/mxv
 BYTE   W12
 BYTE   VOL   68*PreludeFF5_mvl/mxv
 BYTE   W06
 BYTE   VOL   67*PreludeFF5_mvl/mxv
 BYTE   W06
 BYTE   VOL   67*PreludeFF5_mvl/mxv
 BYTE   W06
 BYTE   VOL   66*PreludeFF5_mvl/mxv
 BYTE   W06
//  #06 //027   ----------------------------------------
 BYTE   VOL   65*PreludeFF5_mvl/mxv
 BYTE   W03
 BYTE   VOL   64*PreludeFF5_mvl/mxv
 BYTE   W03
 BYTE   VOL   63*PreludeFF5_mvl/mxv
 BYTE   W03
 BYTE   VOL   63*PreludeFF5_mvl/mxv
 BYTE   W03
 BYTE   VOL   62*PreludeFF5_mvl/mxv
 BYTE   W03
 BYTE   VOL   61*PreludeFF5_mvl/mxv
 BYTE   W03
 BYTE   VOL   60*PreludeFF5_mvl/mxv
 BYTE   W03
 BYTE   VOL   59*PreludeFF5_mvl/mxv
 BYTE   W03
 BYTE   VOL   58*PreludeFF5_mvl/mxv
 BYTE   W03
 BYTE   VOL   58*PreludeFF5_mvl/mxv
 BYTE   W03
 BYTE   VOL   57*PreludeFF5_mvl/mxv
 BYTE   W03
 BYTE   VOL   56*PreludeFF5_mvl/mxv
 BYTE   W03
 BYTE   VOL   55*PreludeFF5_mvl/mxv
 BYTE   W03
 BYTE   VOL   53*PreludeFF5_mvl/mxv
 BYTE   W03
 BYTE   VOL   53*PreludeFF5_mvl/mxv
 BYTE   W03
 BYTE   VOL   52*PreludeFF5_mvl/mxv
 BYTE   W03
 BYTE   VOL   50*PreludeFF5_mvl/mxv
 BYTE   W03
 BYTE   VOL   49*PreludeFF5_mvl/mxv
 BYTE   W03
 BYTE   VOL   48*PreludeFF5_mvl/mxv
 BYTE   W03
 BYTE   VOL   47*PreludeFF5_mvl/mxv
 BYTE   W03
 BYTE   VOL   45*PreludeFF5_mvl/mxv
 BYTE   W03
 BYTE   VOL   44*PreludeFF5_mvl/mxv
 BYTE   W03
 BYTE   VOL   43*PreludeFF5_mvl/mxv
 BYTE   W03
 BYTE   VOL   41*PreludeFF5_mvl/mxv
 BYTE   W03
 BYTE   VOL   39*PreludeFF5_mvl/mxv
 BYTE   W03
 BYTE   VOL   39*PreludeFF5_mvl/mxv
 BYTE   W03
 BYTE   VOL   37*PreludeFF5_mvl/mxv
 BYTE   W03
 BYTE   VOL   35*PreludeFF5_mvl/mxv
 BYTE   W03
 BYTE   VOL   34*PreludeFF5_mvl/mxv
 BYTE   W03
 BYTE   VOL   32*PreludeFF5_mvl/mxv
 BYTE   W03
 BYTE   VOL   30*PreludeFF5_mvl/mxv
 BYTE   W03
 BYTE   VOL   29*PreludeFF5_mvl/mxv
 BYTE   W02
 BYTE   EOT
 BYTE   W01
//  #06 //028   ----------------------------------------
 BYTE   VOL   64*PreludeFF5_mvl/mxv
 BYTE   TIE  Gs2
 BYTE   W96
//  #06 //029   ----------------------------------------
 BYTE   W24
 BYTE   W03
 BYTE   VOL   63*PreludeFF5_mvl/mxv
 BYTE   W09
 BYTE   VOL   63*PreludeFF5_mvl/mxv
 BYTE   W06
 BYTE   VOL   62*PreludeFF5_mvl/mxv
 BYTE   W03
 BYTE   VOL   61*PreludeFF5_mvl/mxv
 BYTE   W03
 BYTE   VOL   60*PreludeFF5_mvl/mxv
 BYTE   W03
 BYTE   VOL   59*PreludeFF5_mvl/mxv
 BYTE   W03
 BYTE   VOL   58*PreludeFF5_mvl/mxv
 BYTE   W03
 BYTE   VOL   57*PreludeFF5_mvl/mxv
 BYTE   W03
 BYTE   VOL   55*PreludeFF5_mvl/mxv
 BYTE   W03
 BYTE   VOL   54*PreludeFF5_mvl/mxv
 BYTE   W03
 BYTE   VOL   53*PreludeFF5_mvl/mxv
 BYTE   W03
 BYTE   VOL   51*PreludeFF5_mvl/mxv
 BYTE   W03
 BYTE   VOL   48*PreludeFF5_mvl/mxv
 BYTE   W03
 BYTE   VOL   47*PreludeFF5_mvl/mxv
 BYTE   W03
 BYTE   VOL   44*PreludeFF5_mvl/mxv
 BYTE   W03
 BYTE   VOL   42*PreludeFF5_mvl/mxv
 BYTE   W03
 BYTE   VOL   39*PreludeFF5_mvl/mxv
 BYTE   W03
 BYTE   VOL   37*PreludeFF5_mvl/mxv
 BYTE   W03
 BYTE   VOL   34*PreludeFF5_mvl/mxv
 BYTE   W03
 BYTE   VOL   31*PreludeFF5_mvl/mxv
 BYTE   W03
//  #06 //030   ----------------------------------------
 BYTE   EOT
 BYTE   VOL   64*PreludeFF5_mvl/mxv
 BYTE   TIE  As2  v124
 BYTE   W09
 BYTE   VOL   65*PreludeFF5_mvl/mxv
 BYTE   W06
 BYTE   VOL   66*PreludeFF5_mvl/mxv
 BYTE   W03
 BYTE   VOL   67*PreludeFF5_mvl/mxv
 BYTE   W03
 BYTE   VOL   68*PreludeFF5_mvl/mxv
 BYTE   W03
 BYTE   VOL   69*PreludeFF5_mvl/mxv
 BYTE   W03
 BYTE   VOL   70*PreludeFF5_mvl/mxv
 BYTE   W15
 BYTE   VOL   69*PreludeFF5_mvl/mxv
 BYTE   W30
 BYTE   VOL   68*PreludeFF5_mvl/mxv
 BYTE   W09
 BYTE   VOL   67*PreludeFF5_mvl/mxv
 BYTE   W09
 BYTE   VOL   67*PreludeFF5_mvl/mxv
 BYTE   W06
//  #06 //031   ----------------------------------------
 BYTE   W03
 BYTE   VOL   65*PreludeFF5_mvl/mxv
 BYTE   W09
 BYTE   VOL   63*PreludeFF5_mvl/mxv
 BYTE   W06
 BYTE   VOL   63*PreludeFF5_mvl/mxv
 BYTE   W06
 BYTE   VOL   61*PreludeFF5_mvl/mxv
 BYTE   W09
 BYTE   VOL   59*PreludeFF5_mvl/mxv
 BYTE   W06
 BYTE   VOL   58*PreludeFF5_mvl/mxv
 BYTE   W06
 BYTE   VOL   56*PreludeFF5_mvl/mxv
 BYTE   W06
 BYTE   VOL   54*PreludeFF5_mvl/mxv
 BYTE   W03
 BYTE   VOL   53*PreludeFF5_mvl/mxv
 BYTE   W03
 BYTE   VOL   52*PreludeFF5_mvl/mxv
 BYTE   W03
 BYTE   VOL   51*PreludeFF5_mvl/mxv
 BYTE   W03
 BYTE   VOL   50*PreludeFF5_mvl/mxv
 BYTE   W03
 BYTE   VOL   49*PreludeFF5_mvl/mxv
 BYTE   W03
 BYTE   VOL   48*PreludeFF5_mvl/mxv
 BYTE   W03
 BYTE   VOL   47*PreludeFF5_mvl/mxv
 BYTE   W03
 BYTE   VOL   46*PreludeFF5_mvl/mxv
 BYTE   W03
 BYTE   VOL   45*PreludeFF5_mvl/mxv
 BYTE   W03
 BYTE   VOL   44*PreludeFF5_mvl/mxv
 BYTE   W03
 BYTE   VOL   43*PreludeFF5_mvl/mxv
 BYTE   W03
 BYTE   VOL   41*PreludeFF5_mvl/mxv
 BYTE   W03
 BYTE   VOL   39*PreludeFF5_mvl/mxv
 BYTE   W03
 BYTE   VOL   39*PreludeFF5_mvl/mxv
 BYTE   W01
 BYTE   VOL   38*PreludeFF5_mvl/mxv
 BYTE   W01
 BYTE   EOT
 BYTE   W01
//  #06 //032   ----------------------------------------
 BYTE   GoTo
  POIN2 Label_01FDC79B
 BYTE   FINE

//**************** Track 7 (Midi-Chn.6) ****************//

PreludeFF5_007:
//  #07 //000   ----------------------------------------
 BYTE   KEYSH   PreludeFF5_key+0
 BYTE   VOICE   57
 BYTE   PAN   c_v-29
 BYTE   W96
//  #07 //001   ----------------------------------------
 BYTE   W96
//  #07 //002   ----------------------------------------
 BYTE   W96
//  #07 //003   ----------------------------------------
 BYTE   W96
//  #07 //004   ----------------------------------------
 BYTE   W96
//  #07 //005   ----------------------------------------
 BYTE   W96
//  #07 //006   ----------------------------------------
 BYTE   W96
//  #07 //007   ----------------------------------------
 BYTE   W96
//  #07 //008   ----------------------------------------
 BYTE   W96
//  #07 //009   ----------------------------------------
 BYTE   W96
//  #07 //010   ----------------------------------------
 BYTE   W96
//  #07 //011   ----------------------------------------
 BYTE   W96
//  #07 //012   ----------------------------------------
 BYTE   W96
//  #07 //013   ----------------------------------------
 BYTE   W96
//  #07 //014   ----------------------------------------
 BYTE   W96
//  #07 //015   ----------------------------------------
 BYTE   W90
 BYTE   VOL   12*PreludeFF5_mvl/mxv
 BYTE   W05
 BYTE   BEND   c_v+5
 BYTE   W01
//  #07 //016   ----------------------------------------
Label_01FDCA28:
 BYTE   VOL   12*PreludeFF5_mvl/mxv
 BYTE   N96  En2  v056
 BYTE   W03
 BYTE   VOL   14*PreludeFF5_mvl/mxv
 BYTE   W03
 BYTE   VOL   15*PreludeFF5_mvl/mxv
 BYTE   W03
 BYTE   VOL   15*PreludeFF5_mvl/mxv
 BYTE   W03
 BYTE   VOL   17*PreludeFF5_mvl/mxv
 BYTE   W03
 BYTE   VOL   19*PreludeFF5_mvl/mxv
 BYTE   W03
 BYTE   VOL   21*PreludeFF5_mvl/mxv
 BYTE   W03
 BYTE   VOL   23*PreludeFF5_mvl/mxv
 BYTE   W03
 BYTE   VOL   26*PreludeFF5_mvl/mxv
 BYTE   W03
 BYTE   VOL   29*PreludeFF5_mvl/mxv
 BYTE   W03
 BYTE   VOL   32*PreludeFF5_mvl/mxv
 BYTE   W03
 BYTE   VOL   35*PreludeFF5_mvl/mxv
 BYTE   W03
 BYTE   VOL   39*PreludeFF5_mvl/mxv
 BYTE   W03
 BYTE   VOL   43*PreludeFF5_mvl/mxv
 BYTE   W03
 BYTE   VOL   47*PreludeFF5_mvl/mxv
 BYTE   W03
 BYTE   VOL   51*PreludeFF5_mvl/mxv
 BYTE   W03
 BYTE   VOL   56*PreludeFF5_mvl/mxv
 BYTE   W24
 BYTE   VOL   55*PreludeFF5_mvl/mxv
 BYTE   W06
 BYTE   VOL   54*PreludeFF5_mvl/mxv
 BYTE   W03
 BYTE   VOL   53*PreludeFF5_mvl/mxv
 BYTE   W03
 BYTE   VOL   50*PreludeFF5_mvl/mxv
 BYTE   W03
 BYTE   VOL   48*PreludeFF5_mvl/mxv
 BYTE   W03
 BYTE   VOL   44*PreludeFF5_mvl/mxv
 BYTE   W03
 BYTE   VOL   40*PreludeFF5_mvl/mxv
 BYTE   W03
//  #07 //017   ----------------------------------------
 BYTE   VOL   56*PreludeFF5_mvl/mxv
 BYTE   N48  Fn2
 BYTE   W24
 BYTE   VOL   55*PreludeFF5_mvl/mxv
 BYTE   W06
 BYTE   VOL   54*PreludeFF5_mvl/mxv
 BYTE   W03
 BYTE   VOL   53*PreludeFF5_mvl/mxv
 BYTE   W03
 BYTE   VOL   51*PreludeFF5_mvl/mxv
 BYTE   W03
 BYTE   VOL   49*PreludeFF5_mvl/mxv
 BYTE   W03
 BYTE   VOL   47*PreludeFF5_mvl/mxv
 BYTE   W03
 BYTE   VOL   44*PreludeFF5_mvl/mxv
 BYTE   W03
 BYTE   VOL   56*PreludeFF5_mvl/mxv
 BYTE   N96  En2  v060
 BYTE   W48
//  #07 //018   ----------------------------------------
 BYTE   W12
 BYTE   VOL   55*PreludeFF5_mvl/mxv
 BYTE   W09
 BYTE   VOL   54*PreludeFF5_mvl/mxv
 BYTE   W03
 BYTE   VOL   53*PreludeFF5_mvl/mxv
 BYTE   W03
 BYTE   VOL   52*PreludeFF5_mvl/mxv
 BYTE   W03
 BYTE   VOL   50*PreludeFF5_mvl/mxv
 BYTE   W03
 BYTE   VOL   48*PreludeFF5_mvl/mxv
 BYTE   W03
 BYTE   VOL   46*PreludeFF5_mvl/mxv
 BYTE   W03
 BYTE   VOL   43*PreludeFF5_mvl/mxv
 BYTE   W03
 BYTE   VOL   40*PreludeFF5_mvl/mxv
 BYTE   W03
 BYTE   VOL   37*PreludeFF5_mvl/mxv
 BYTE   W03
 BYTE   VOL   56*PreludeFF5_mvl/mxv
 BYTE   N96  An2  v064
 BYTE   W48
//  #07 //019   ----------------------------------------
 BYTE   W15
 BYTE   VOL   55*PreludeFF5_mvl/mxv
 BYTE   W09
 BYTE   VOL   53*PreludeFF5_mvl/mxv
 BYTE   W03
 BYTE   VOL   53*PreludeFF5_mvl/mxv
 BYTE   W03
 BYTE   VOL   51*PreludeFF5_mvl/mxv
 BYTE   W03
 BYTE   VOL   49*PreludeFF5_mvl/mxv
 BYTE   W03
 BYTE   VOL   48*PreludeFF5_mvl/mxv
 BYTE   W03
 BYTE   VOL   45*PreludeFF5_mvl/mxv
 BYTE   W03
 BYTE   VOL   43*PreludeFF5_mvl/mxv
 BYTE   W03
 BYTE   VOL   39*PreludeFF5_mvl/mxv
 BYTE   W03
 BYTE   VOL   56*PreludeFF5_mvl/mxv
 BYTE   N24  Gn2
 BYTE   W24
 BYTE   N22  Fn2  v056
 BYTE   W22
 BYTE   TIE  En2  v052
 BYTE   W02
//  #07 //020   ----------------------------------------
 BYTE   W48
 BYTE   VOL   55*PreludeFF5_mvl/mxv
 BYTE   W12
 BYTE   VOL   54*PreludeFF5_mvl/mxv
 BYTE   W06
 BYTE   VOL   53*PreludeFF5_mvl/mxv
 BYTE   W03
 BYTE   VOL   53*PreludeFF5_mvl/mxv
 BYTE   W03
 BYTE   VOL   51*PreludeFF5_mvl/mxv
 BYTE   W03
 BYTE   VOL   50*PreludeFF5_mvl/mxv
 BYTE   W03
 BYTE   VOL   49*PreludeFF5_mvl/mxv
 BYTE   W03
 BYTE   VOL   48*PreludeFF5_mvl/mxv
 BYTE   W03
 BYTE   VOL   46*PreludeFF5_mvl/mxv
 BYTE   W03
 BYTE   VOL   44*PreludeFF5_mvl/mxv
 BYTE   W03
 BYTE   VOL   43*PreludeFF5_mvl/mxv
 BYTE   W03
 BYTE   VOL   41*PreludeFF5_mvl/mxv
 BYTE   W02
 BYTE   EOT
 BYTE   W01
//  #07 //021   ----------------------------------------
 BYTE   VOL   56*PreludeFF5_mvl/mxv
 BYTE   N48  Fn2  v056
 BYTE   W24
 BYTE   VOL   55*PreludeFF5_mvl/mxv
 BYTE   W06
 BYTE   VOL   53*PreludeFF5_mvl/mxv
 BYTE   W03
 BYTE   VOL   52*PreludeFF5_mvl/mxv
 BYTE   W03
 BYTE   VOL   49*PreludeFF5_mvl/mxv
 BYTE   W03
 BYTE   VOL   45*PreludeFF5_mvl/mxv
 BYTE   W03
 BYTE   VOL   41*PreludeFF5_mvl/mxv
 BYTE   W03
 BYTE   VOL   36*PreludeFF5_mvl/mxv
 BYTE   W03
 BYTE   VOL   56*PreludeFF5_mvl/mxv
 BYTE   N96  En2
 BYTE   W48
//  #07 //022   ----------------------------------------
 BYTE   W12
 BYTE   VOL   54*PreludeFF5_mvl/mxv
 BYTE   W09
 BYTE   VOL   53*PreludeFF5_mvl/mxv
 BYTE   W03
 BYTE   VOL   53*PreludeFF5_mvl/mxv
 BYTE   W03
 BYTE   VOL   52*PreludeFF5_mvl/mxv
 BYTE   W03
 BYTE   VOL   51*PreludeFF5_mvl/mxv
 BYTE   W03
 BYTE   VOL   49*PreludeFF5_mvl/mxv
 BYTE   W03
 BYTE   VOL   47*PreludeFF5_mvl/mxv
 BYTE   W03
 BYTE   VOL   45*PreludeFF5_mvl/mxv
 BYTE   W03
 BYTE   VOL   44*PreludeFF5_mvl/mxv
 BYTE   W03
 BYTE   VOL   40*PreludeFF5_mvl/mxv
 BYTE   W03
 BYTE   VOL   56*PreludeFF5_mvl/mxv
 BYTE   N48  An2  v064
 BYTE   W03
 BYTE   VOL   57*PreludeFF5_mvl/mxv
 BYTE   W06
 BYTE   VOL   58*PreludeFF5_mvl/mxv
 BYTE   W03
 BYTE   VOL   58*PreludeFF5_mvl/mxv
 BYTE   W03
 BYTE   VOL   59*PreludeFF5_mvl/mxv
 BYTE   W03
 BYTE   VOL   61*PreludeFF5_mvl/mxv
 BYTE   W03
 BYTE   VOL   63*PreludeFF5_mvl/mxv
 BYTE   W03
 BYTE   VOL   65*PreludeFF5_mvl/mxv
 BYTE   W03
 BYTE   VOL   67*PreludeFF5_mvl/mxv
 BYTE   W03
 BYTE   VOL   70*PreludeFF5_mvl/mxv
 BYTE   W03
 BYTE   VOL   73*PreludeFF5_mvl/mxv
 BYTE   W03
 BYTE   VOL   77*PreludeFF5_mvl/mxv
 BYTE   W03
 BYTE   VOL   75*PreludeFF5_mvl/mxv
 BYTE   W03
 BYTE   VOL   70*PreludeFF5_mvl/mxv
 BYTE   W03
 BYTE   VOL   65*PreludeFF5_mvl/mxv
 BYTE   W03
//  #07 //023   ----------------------------------------
 BYTE   VOL   56*PreludeFF5_mvl/mxv
 BYTE   N24  Cn3  v076
 BYTE   W24
 BYTE   Bn2  v064
 BYTE   W24
 BYTE   An2  v060
 BYTE   W24
 BYTE   N23  Gn2  v056
 BYTE   W24
//  #07 //024   ----------------------------------------
 BYTE   TIE  An2
 BYTE   W06
 BYTE   VOL   53*PreludeFF5_mvl/mxv
 BYTE   W03
 BYTE   VOL   48*PreludeFF5_mvl/mxv
 BYTE   W03
 BYTE   VOL   46*PreludeFF5_mvl/mxv
 BYTE   W03
 BYTE   VOL   45*PreludeFF5_mvl/mxv
 BYTE   W03
 BYTE   VOL   44*PreludeFF5_mvl/mxv
 BYTE   W12
 BYTE   VOL   44*PreludeFF5_mvl/mxv
 BYTE   W03
 BYTE   VOL   44*PreludeFF5_mvl/mxv
 BYTE   W03
 BYTE   VOL   45*PreludeFF5_mvl/mxv
 BYTE   W03
 BYTE   VOL   47*PreludeFF5_mvl/mxv
 BYTE   W03
 BYTE   VOL   48*PreludeFF5_mvl/mxv
 BYTE   W03
 BYTE   VOL   50*PreludeFF5_mvl/mxv
 BYTE   W03
 BYTE   VOL   53*PreludeFF5_mvl/mxv
 BYTE   W48
//  #07 //025   ----------------------------------------
 BYTE   VOL   52*PreludeFF5_mvl/mxv
 BYTE   W15
 BYTE   VOL   51*PreludeFF5_mvl/mxv
 BYTE   W06
 BYTE   VOL   50*PreludeFF5_mvl/mxv
 BYTE   W09
 BYTE   VOL   49*PreludeFF5_mvl/mxv
 BYTE   W03
 BYTE   VOL   48*PreludeFF5_mvl/mxv
 BYTE   W06
 BYTE   VOL   48*PreludeFF5_mvl/mxv
 BYTE   W06
 BYTE   VOL   47*PreludeFF5_mvl/mxv
 BYTE   W03
 BYTE   VOL   46*PreludeFF5_mvl/mxv
 BYTE   W06
 BYTE   VOL   45*PreludeFF5_mvl/mxv
 BYTE   W03
 BYTE   VOL   44*PreludeFF5_mvl/mxv
 BYTE   W03
 BYTE   VOL   44*PreludeFF5_mvl/mxv
 BYTE   W03
 BYTE   VOL   43*PreludeFF5_mvl/mxv
 BYTE   W06
 BYTE   VOL   41*PreludeFF5_mvl/mxv
 BYTE   W06
 BYTE   VOL   40*PreludeFF5_mvl/mxv
 BYTE   W03
 BYTE   VOL   39*PreludeFF5_mvl/mxv
 BYTE   W03
 BYTE   VOL   39*PreludeFF5_mvl/mxv
 BYTE   W03
 BYTE   VOL   38*PreludeFF5_mvl/mxv
 BYTE   W03
 BYTE   VOL   36*PreludeFF5_mvl/mxv
 BYTE   W03
 BYTE   VOL   35*PreludeFF5_mvl/mxv
 BYTE   W03
 BYTE   VOL   34*PreludeFF5_mvl/mxv
 BYTE   W01
 BYTE   EOT
 BYTE   TIE  Gn2  v068
 BYTE   W02
//  #07 //026   ----------------------------------------
 BYTE   VOL   35*PreludeFF5_mvl/mxv
 BYTE   W03
 BYTE   VOL   36*PreludeFF5_mvl/mxv
 BYTE   W03
 BYTE   VOL   37*PreludeFF5_mvl/mxv
 BYTE   W03
 BYTE   VOL   39*PreludeFF5_mvl/mxv
 BYTE   W03
 BYTE   VOL   40*PreludeFF5_mvl/mxv
 BYTE   W03
 BYTE   VOL   43*PreludeFF5_mvl/mxv
 BYTE   W03
 BYTE   VOL   45*PreludeFF5_mvl/mxv
 BYTE   W03
 BYTE   VOL   48*PreludeFF5_mvl/mxv
 BYTE   W03
 BYTE   VOL   53*PreludeFF5_mvl/mxv
 BYTE   W03
 BYTE   VOL   57*PreludeFF5_mvl/mxv
 BYTE   W03
 BYTE   VOL   64*PreludeFF5_mvl/mxv
 BYTE   W03
 BYTE   VOL   68*PreludeFF5_mvl/mxv
 BYTE   W03
 BYTE   VOL   72*PreludeFF5_mvl/mxv
 BYTE   W03
 BYTE   VOL   76*PreludeFF5_mvl/mxv
 BYTE   W15
 BYTE   VOL   75*PreludeFF5_mvl/mxv
 BYTE   W09
 BYTE   VOL   74*PreludeFF5_mvl/mxv
 BYTE   W09
 BYTE   VOL   73*PreludeFF5_mvl/mxv
 BYTE   W06
 BYTE   VOL   72*PreludeFF5_mvl/mxv
 BYTE   W03
 BYTE   VOL   72*PreludeFF5_mvl/mxv
 BYTE   W03
 BYTE   VOL   71*PreludeFF5_mvl/mxv
 BYTE   W03
 BYTE   VOL   70*PreludeFF5_mvl/mxv
 BYTE   W03
 BYTE   VOL   69*PreludeFF5_mvl/mxv
 BYTE   W03
 BYTE   VOL   68*PreludeFF5_mvl/mxv
 BYTE   W03
//  #07 //027   ----------------------------------------
 BYTE   VOL   67*PreludeFF5_mvl/mxv
 BYTE   W03
 BYTE   VOL   67*PreludeFF5_mvl/mxv
 BYTE   W03
 BYTE   VOL   65*PreludeFF5_mvl/mxv
 BYTE   W03
 BYTE   VOL   64*PreludeFF5_mvl/mxv
 BYTE   W03
 BYTE   VOL   63*PreludeFF5_mvl/mxv
 BYTE   W03
 BYTE   VOL   62*PreludeFF5_mvl/mxv
 BYTE   W03
 BYTE   VOL   60*PreludeFF5_mvl/mxv
 BYTE   W03
 BYTE   VOL   59*PreludeFF5_mvl/mxv
 BYTE   W03
 BYTE   VOL   58*PreludeFF5_mvl/mxv
 BYTE   W03
 BYTE   VOL   56*PreludeFF5_mvl/mxv
 BYTE   W03
 BYTE   VOL   54*PreludeFF5_mvl/mxv
 BYTE   W03
 BYTE   VOL   53*PreludeFF5_mvl/mxv
 BYTE   W03
 BYTE   VOL   51*PreludeFF5_mvl/mxv
 BYTE   W03
 BYTE   VOL   49*PreludeFF5_mvl/mxv
 BYTE   W03
 BYTE   VOL   48*PreludeFF5_mvl/mxv
 BYTE   W03
 BYTE   VOL   45*PreludeFF5_mvl/mxv
 BYTE   W03
 BYTE   VOL   44*PreludeFF5_mvl/mxv
 BYTE   W03
 BYTE   VOL   42*PreludeFF5_mvl/mxv
 BYTE   W03
 BYTE   VOL   39*PreludeFF5_mvl/mxv
 BYTE   W03
 BYTE   VOL   38*PreludeFF5_mvl/mxv
 BYTE   W03
 BYTE   VOL   35*PreludeFF5_mvl/mxv
 BYTE   W03
 BYTE   VOL   33*PreludeFF5_mvl/mxv
 BYTE   W03
 BYTE   VOL   30*PreludeFF5_mvl/mxv
 BYTE   W03
 BYTE   VOL   28*PreludeFF5_mvl/mxv
 BYTE   W03
 BYTE   VOL   25*PreludeFF5_mvl/mxv
 BYTE   W03
 BYTE   VOL   23*PreludeFF5_mvl/mxv
 BYTE   W03
 BYTE   VOL   20*PreludeFF5_mvl/mxv
 BYTE   W03
 BYTE   VOL   18*PreludeFF5_mvl/mxv
 BYTE   W03
 BYTE   VOL   15*PreludeFF5_mvl/mxv
 BYTE   W03
 BYTE   VOL   12*PreludeFF5_mvl/mxv
 BYTE   W03
 BYTE   VOL   10*PreludeFF5_mvl/mxv
 BYTE   W03
 BYTE   VOL   6*PreludeFF5_mvl/mxv
 BYTE   W02
 BYTE   EOT
 BYTE   W01
//  #07 //028   ----------------------------------------
 BYTE   VOL   34*PreludeFF5_mvl/mxv
 BYTE   N92
 BYTE   W09
 BYTE   VOL   35*PreludeFF5_mvl/mxv
 BYTE   W03
 BYTE   VOL   36*PreludeFF5_mvl/mxv
 BYTE   W06
 BYTE   VOL   38*PreludeFF5_mvl/mxv
 BYTE   W03
 BYTE   VOL   39*PreludeFF5_mvl/mxv
 BYTE   W03
 BYTE   VOL   39*PreludeFF5_mvl/mxv
 BYTE   W03
 BYTE   VOL   41*PreludeFF5_mvl/mxv
 BYTE   W03
 BYTE   VOL   42*PreludeFF5_mvl/mxv
 BYTE   W03
 BYTE   VOL   44*PreludeFF5_mvl/mxv
 BYTE   W03
 BYTE   VOL   45*PreludeFF5_mvl/mxv
 BYTE   W03
 BYTE   VOL   48*PreludeFF5_mvl/mxv
 BYTE   W03
 BYTE   VOL   48*PreludeFF5_mvl/mxv
 BYTE   W03
 BYTE   VOL   50*PreludeFF5_mvl/mxv
 BYTE   W03
 BYTE   VOL   52*PreludeFF5_mvl/mxv
 BYTE   W03
 BYTE   VOL   53*PreludeFF5_mvl/mxv
 BYTE   W03
 BYTE   VOL   56*PreludeFF5_mvl/mxv
 BYTE   W03
 BYTE   VOL   58*PreludeFF5_mvl/mxv
 BYTE   W03
 BYTE   VOL   62*PreludeFF5_mvl/mxv
 BYTE   W03
 BYTE   VOL   66*PreludeFF5_mvl/mxv
 BYTE   W03
 BYTE   VOL   72*PreludeFF5_mvl/mxv
 BYTE   W06
 BYTE   VOL   72*PreludeFF5_mvl/mxv
 BYTE   W03
 BYTE   VOL   71*PreludeFF5_mvl/mxv
 BYTE   W03
 BYTE   VOL   70*PreludeFF5_mvl/mxv
 BYTE   W03
 BYTE   VOL   68*PreludeFF5_mvl/mxv
 BYTE   W03
 BYTE   VOL   67*PreludeFF5_mvl/mxv
 BYTE   W03
 BYTE   VOL   65*PreludeFF5_mvl/mxv
 BYTE   W03
 BYTE   VOL   63*PreludeFF5_mvl/mxv
 BYTE   W03
 BYTE   VOL   60*PreludeFF5_mvl/mxv
 BYTE   W03
//  #07 //029   ----------------------------------------
 BYTE   VOL   56*PreludeFF5_mvl/mxv
 BYTE   N24  Cn3  v064
 BYTE   W24
 BYTE   As2  v056
 BYTE   W24
 BYTE   N48  Gs2  v060
 BYTE   W21
 BYTE   VOL   54*PreludeFF5_mvl/mxv
 BYTE   W06
 BYTE   VOL   53*PreludeFF5_mvl/mxv
 BYTE   W03
 BYTE   VOL   52*PreludeFF5_mvl/mxv
 BYTE   W03
 BYTE   VOL   49*PreludeFF5_mvl/mxv
 BYTE   W03
 BYTE   VOL   46*PreludeFF5_mvl/mxv
 BYTE   W03
 BYTE   VOL   43*PreludeFF5_mvl/mxv
 BYTE   W03
 BYTE   VOL   39*PreludeFF5_mvl/mxv
 BYTE   W03
 BYTE   VOL   33*PreludeFF5_mvl/mxv
 BYTE   W03
//  #07 //030   ----------------------------------------
 BYTE   VOL   56*PreludeFF5_mvl/mxv
 BYTE   N96  Fn2
 BYTE   W03
 BYTE   VOL   58*PreludeFF5_mvl/mxv
 BYTE   W06
 BYTE   VOL   58*PreludeFF5_mvl/mxv
 BYTE   W03
 BYTE   VOL   59*PreludeFF5_mvl/mxv
 BYTE   W03
 BYTE   VOL   60*PreludeFF5_mvl/mxv
 BYTE   W03
 BYTE   VOL   61*PreludeFF5_mvl/mxv
 BYTE   W03
 BYTE   VOL   63*PreludeFF5_mvl/mxv
 BYTE   W03
 BYTE   VOL   65*PreludeFF5_mvl/mxv
 BYTE   W03
 BYTE   VOL   67*PreludeFF5_mvl/mxv
 BYTE   W03
 BYTE   VOL   70*PreludeFF5_mvl/mxv
 BYTE   W24
 BYTE   W03
 BYTE   VOL   69*PreludeFF5_mvl/mxv
 BYTE   W06
 BYTE   VOL   68*PreludeFF5_mvl/mxv
 BYTE   W03
 BYTE   VOL   67*PreludeFF5_mvl/mxv
 BYTE   W03
 BYTE   VOL   66*PreludeFF5_mvl/mxv
 BYTE   W03
 BYTE   VOL   65*PreludeFF5_mvl/mxv
 BYTE   W03
 BYTE   VOL   64*PreludeFF5_mvl/mxv
 BYTE   W03
 BYTE   VOL   63*PreludeFF5_mvl/mxv
 BYTE   W03
 BYTE   VOL   62*PreludeFF5_mvl/mxv
 BYTE   W03
 BYTE   VOL   60*PreludeFF5_mvl/mxv
 BYTE   W03
 BYTE   VOL   58*PreludeFF5_mvl/mxv
 BYTE   W03
 BYTE   VOL   57*PreludeFF5_mvl/mxv
 BYTE   W03
 BYTE   VOL   56*PreludeFF5_mvl/mxv
 BYTE   W03
//  #07 //031   ----------------------------------------
 BYTE   N92  An2  v040
 BYTE   W06
 BYTE   VOL   57*PreludeFF5_mvl/mxv
 BYTE   W03
 BYTE   VOL   58*PreludeFF5_mvl/mxv
 BYTE   W03
 BYTE   VOL   59*PreludeFF5_mvl/mxv
 BYTE   W03
 BYTE   VOL   61*PreludeFF5_mvl/mxv
 BYTE   W03
 BYTE   VOL   63*PreludeFF5_mvl/mxv
 BYTE   W03
 BYTE   VOL   64*PreludeFF5_mvl/mxv
 BYTE   W12
 BYTE   VOL   63*PreludeFF5_mvl/mxv
 BYTE   W12
 BYTE   VOL   63*PreludeFF5_mvl/mxv
 BYTE   W06
 BYTE   VOL   62*PreludeFF5_mvl/mxv
 BYTE   W03
 BYTE   VOL   61*PreludeFF5_mvl/mxv
 BYTE   W03
 BYTE   VOL   60*PreludeFF5_mvl/mxv
 BYTE   W03
 BYTE   VOL   59*PreludeFF5_mvl/mxv
 BYTE   W03
 BYTE   VOL   58*PreludeFF5_mvl/mxv
 BYTE   W03
 BYTE   VOL   57*PreludeFF5_mvl/mxv
 BYTE   W03
 BYTE   VOL   55*PreludeFF5_mvl/mxv
 BYTE   W03
 BYTE   VOL   53*PreludeFF5_mvl/mxv
 BYTE   W03
 BYTE   VOL   52*PreludeFF5_mvl/mxv
 BYTE   W03
 BYTE   VOL   51*PreludeFF5_mvl/mxv
 BYTE   W03
 BYTE   VOL   48*PreludeFF5_mvl/mxv
 BYTE   W03
 BYTE   VOL   47*PreludeFF5_mvl/mxv
 BYTE   W03
 BYTE   VOL   45*PreludeFF5_mvl/mxv
 BYTE   W03
 BYTE   VOL   43*PreludeFF5_mvl/mxv
 BYTE   W01
 BYTE   VOL   41*PreludeFF5_mvl/mxv
 BYTE   W02
 BYTE   VOL   40*PreludeFF5_mvl/mxv
 BYTE   W01
 BYTE   VOL   39*PreludeFF5_mvl/mxv
 BYTE   W02
//  #07 //032   ----------------------------------------
 BYTE   GoTo
  POIN2 Label_01FDCA28
 BYTE   FINE

//**************** Track 8 (Midi-Chn.7) ****************//

PreludeFF5_008:
//  #08 //000   ----------------------------------------
 BYTE   KEYSH   PreludeFF5_key+0
 BYTE   VOICE   57
 BYTE   PAN   c_v-24
 BYTE   W96
//  #08 //001   ----------------------------------------
 BYTE   W96
//  #08 //002   ----------------------------------------
 BYTE   W96
//  #08 //003   ----------------------------------------
 BYTE   W96
//  #08 //004   ----------------------------------------
 BYTE   W96
//  #08 //005   ----------------------------------------
 BYTE   W96
//  #08 //006   ----------------------------------------
 BYTE   W96
//  #08 //007   ----------------------------------------
 BYTE   W96
//  #08 //008   ----------------------------------------
 BYTE   W96
//  #08 //009   ----------------------------------------
 BYTE   W96
//  #08 //010   ----------------------------------------
 BYTE   W96
//  #08 //011   ----------------------------------------
 BYTE   W96
//  #08 //012   ----------------------------------------
 BYTE   W96
//  #08 //013   ----------------------------------------
 BYTE   W96
//  #08 //014   ----------------------------------------
 BYTE   W96
//  #08 //015   ----------------------------------------
 BYTE   W92
 BYTE   W01
 BYTE   VOL   16*PreludeFF5_mvl/mxv
 BYTE   W01
 BYTE   BEND   c_v+5
 BYTE   W02
//  #08 //016   ----------------------------------------
Label_01FDCDC9:
 BYTE   VOL   16*PreludeFF5_mvl/mxv
 BYTE   N96  Gn1  v068
 BYTE   W03
 BYTE   VOL   17*PreludeFF5_mvl/mxv
 BYTE   W03
 BYTE   VOL   19*PreludeFF5_mvl/mxv
 BYTE   W03
 BYTE   VOL   20*PreludeFF5_mvl/mxv
 BYTE   W03
 BYTE   VOL   23*PreludeFF5_mvl/mxv
 BYTE   W03
 BYTE   VOL   24*PreludeFF5_mvl/mxv
 BYTE   W03
 BYTE   VOL   28*PreludeFF5_mvl/mxv
 BYTE   W03
 BYTE   VOL   32*PreludeFF5_mvl/mxv
 BYTE   W03
 BYTE   VOL   36*PreludeFF5_mvl/mxv
 BYTE   W03
 BYTE   VOL   40*PreludeFF5_mvl/mxv
 BYTE   W03
 BYTE   VOL   45*PreludeFF5_mvl/mxv
 BYTE   W03
 BYTE   VOL   51*PreludeFF5_mvl/mxv
 BYTE   W03
 BYTE   VOL   57*PreludeFF5_mvl/mxv
 BYTE   W03
 BYTE   VOL   61*PreludeFF5_mvl/mxv
 BYTE   W03
 BYTE   VOL   65*PreludeFF5_mvl/mxv
 BYTE   W03
 BYTE   VOL   67*PreludeFF5_mvl/mxv
 BYTE   W03
 BYTE   VOL   69*PreludeFF5_mvl/mxv
 BYTE   W03
 BYTE   VOL   71*PreludeFF5_mvl/mxv
 BYTE   W03
 BYTE   VOL   72*PreludeFF5_mvl/mxv
 BYTE   W03
 BYTE   VOL   73*PreludeFF5_mvl/mxv
 BYTE   W09
 BYTE   VOL   72*PreludeFF5_mvl/mxv
 BYTE   W03
 BYTE   VOL   72*PreludeFF5_mvl/mxv
 BYTE   W03
 BYTE   VOL   71*PreludeFF5_mvl/mxv
 BYTE   W03
 BYTE   VOL   69*PreludeFF5_mvl/mxv
 BYTE   W03
 BYTE   VOL   68*PreludeFF5_mvl/mxv
 BYTE   W03
 BYTE   VOL   67*PreludeFF5_mvl/mxv
 BYTE   W03
 BYTE   VOL   65*PreludeFF5_mvl/mxv
 BYTE   W03
 BYTE   VOL   63*PreludeFF5_mvl/mxv
 BYTE   W03
 BYTE   VOL   60*PreludeFF5_mvl/mxv
 BYTE   W03
 BYTE   VOL   56*PreludeFF5_mvl/mxv
 BYTE   W03
//  #08 //017   ----------------------------------------
 BYTE   N96  Dn2  v060
 BYTE   W60
 BYTE   VOL   55*PreludeFF5_mvl/mxv
 BYTE   W09
 BYTE   VOL   54*PreludeFF5_mvl/mxv
 BYTE   W03
 BYTE   VOL   53*PreludeFF5_mvl/mxv
 BYTE   W03
 BYTE   VOL   52*PreludeFF5_mvl/mxv
 BYTE   W03
 BYTE   VOL   50*PreludeFF5_mvl/mxv
 BYTE   W03
 BYTE   VOL   48*PreludeFF5_mvl/mxv
 BYTE   W03
 BYTE   VOL   47*PreludeFF5_mvl/mxv
 BYTE   W03
 BYTE   VOL   44*PreludeFF5_mvl/mxv
 BYTE   W03
 BYTE   VOL   42*PreludeFF5_mvl/mxv
 BYTE   W03
 BYTE   VOL   39*PreludeFF5_mvl/mxv
 BYTE   W03
//  #08 //018   ----------------------------------------
 BYTE   VOL   56*PreludeFF5_mvl/mxv
 BYTE   TIE  Cn2
 BYTE   W24
 BYTE   W03
 BYTE   VOL   59*PreludeFF5_mvl/mxv
 BYTE   W03
 BYTE   VOL   60*PreludeFF5_mvl/mxv
 BYTE   W03
 BYTE   VOL   61*PreludeFF5_mvl/mxv
 BYTE   W03
 BYTE   VOL   62*PreludeFF5_mvl/mxv
 BYTE   W03
 BYTE   VOL   63*PreludeFF5_mvl/mxv
 BYTE   W03
 BYTE   VOL   64*PreludeFF5_mvl/mxv
 BYTE   W03
 BYTE   VOL   65*PreludeFF5_mvl/mxv
 BYTE   W03
 BYTE   VOL   67*PreludeFF5_mvl/mxv
 BYTE   W03
 BYTE   VOL   68*PreludeFF5_mvl/mxv
 BYTE   W03
 BYTE   VOL   70*PreludeFF5_mvl/mxv
 BYTE   W03
 BYTE   VOL   69*PreludeFF5_mvl/mxv
 BYTE   W12
 BYTE   VOL   68*PreludeFF5_mvl/mxv
 BYTE   W06
 BYTE   VOL   67*PreludeFF5_mvl/mxv
 BYTE   W03
 BYTE   VOL   67*PreludeFF5_mvl/mxv
 BYTE   W03
 BYTE   VOL   66*PreludeFF5_mvl/mxv
 BYTE   W03
 BYTE   VOL   64*PreludeFF5_mvl/mxv
 BYTE   W03
 BYTE   VOL   63*PreludeFF5_mvl/mxv
 BYTE   W03
 BYTE   VOL   62*PreludeFF5_mvl/mxv
 BYTE   W03
 BYTE   VOL   61*PreludeFF5_mvl/mxv
 BYTE   W03
//  #08 //019   ----------------------------------------
 BYTE   VOL   59*PreludeFF5_mvl/mxv
 BYTE   W03
 BYTE   VOL   58*PreludeFF5_mvl/mxv
 BYTE   W03
 BYTE   VOL   56*PreludeFF5_mvl/mxv
 BYTE   W03
 BYTE   VOL   54*PreludeFF5_mvl/mxv
 BYTE   W03
 BYTE   VOL   52*PreludeFF5_mvl/mxv
 BYTE   W03
 BYTE   VOL   50*PreludeFF5_mvl/mxv
 BYTE   W03
 BYTE   VOL   48*PreludeFF5_mvl/mxv
 BYTE   W03
 BYTE   VOL   45*PreludeFF5_mvl/mxv
 BYTE   W03
 BYTE   VOL   43*PreludeFF5_mvl/mxv
 BYTE   W03
 BYTE   VOL   40*PreludeFF5_mvl/mxv
 BYTE   W03
 BYTE   VOL   38*PreludeFF5_mvl/mxv
 BYTE   W03
 BYTE   VOL   34*PreludeFF5_mvl/mxv
 BYTE   W03
 BYTE   VOL   31*PreludeFF5_mvl/mxv
 BYTE   W03
 BYTE   VOL   29*PreludeFF5_mvl/mxv
 BYTE   W03
 BYTE   VOL   25*PreludeFF5_mvl/mxv
 BYTE   W06
 BYTE   EOT
 BYTE   VOL   56*PreludeFF5_mvl/mxv
 BYTE   N24  Bn1  v084
 BYTE   W24
 BYTE   N22  Dn2  v076
 BYTE   W22
 BYTE   TIE  Gn1
 BYTE   W02
//  #08 //020   ----------------------------------------
 BYTE   W09
 BYTE   VOL   57*PreludeFF5_mvl/mxv
 BYTE   W12
 BYTE   VOL   58*PreludeFF5_mvl/mxv
 BYTE   W03
 BYTE   VOL   58*PreludeFF5_mvl/mxv
 BYTE   W03
 BYTE   VOL   59*PreludeFF5_mvl/mxv
 BYTE   W03
 BYTE   VOL   60*PreludeFF5_mvl/mxv
 BYTE   W03
 BYTE   VOL   62*PreludeFF5_mvl/mxv
 BYTE   W03
 BYTE   VOL   63*PreludeFF5_mvl/mxv
 BYTE   W03
 BYTE   VOL   64*PreludeFF5_mvl/mxv
 BYTE   W03
 BYTE   VOL   65*PreludeFF5_mvl/mxv
 BYTE   W03
 BYTE   VOL   67*PreludeFF5_mvl/mxv
 BYTE   W03
 BYTE   VOL   69*PreludeFF5_mvl/mxv
 BYTE   W03
 BYTE   VOL   71*PreludeFF5_mvl/mxv
 BYTE   W03
 BYTE   VOL   72*PreludeFF5_mvl/mxv
 BYTE   W03
 BYTE   VOL   73*PreludeFF5_mvl/mxv
 BYTE   W09
 BYTE   VOL   72*PreludeFF5_mvl/mxv
 BYTE   W03
 BYTE   VOL   72*PreludeFF5_mvl/mxv
 BYTE   W03
 BYTE   VOL   71*PreludeFF5_mvl/mxv
 BYTE   W03
 BYTE   VOL   69*PreludeFF5_mvl/mxv
 BYTE   W03
 BYTE   VOL   68*PreludeFF5_mvl/mxv
 BYTE   W03
 BYTE   VOL   67*PreludeFF5_mvl/mxv
 BYTE   W03
 BYTE   VOL   65*PreludeFF5_mvl/mxv
 BYTE   W03
 BYTE   VOL   63*PreludeFF5_mvl/mxv
 BYTE   W03
 BYTE   VOL   61*PreludeFF5_mvl/mxv
 BYTE   W03
 BYTE   VOL   58*PreludeFF5_mvl/mxv
 BYTE   W02
 BYTE   EOT
 BYTE   W01
//  #08 //021   ----------------------------------------
 BYTE   VOL   56*PreludeFF5_mvl/mxv
 BYTE   N96  Dn2  v060
 BYTE   W60
 BYTE   W03
 BYTE   VOL   55*PreludeFF5_mvl/mxv
 BYTE   W06
 BYTE   VOL   54*PreludeFF5_mvl/mxv
 BYTE   W03
 BYTE   VOL   53*PreludeFF5_mvl/mxv
 BYTE   W03
 BYTE   VOL   53*PreludeFF5_mvl/mxv
 BYTE   W03
 BYTE   VOL   51*PreludeFF5_mvl/mxv
 BYTE   W03
 BYTE   VOL   49*PreludeFF5_mvl/mxv
 BYTE   W03
 BYTE   VOL   47*PreludeFF5_mvl/mxv
 BYTE   W03
 BYTE   VOL   44*PreludeFF5_mvl/mxv
 BYTE   W03
 BYTE   VOL   43*PreludeFF5_mvl/mxv
 BYTE   W03
 BYTE   VOL   39*PreludeFF5_mvl/mxv
 BYTE   W03
//  #08 //022   ----------------------------------------
 BYTE   VOL   56*PreludeFF5_mvl/mxv
 BYTE   N96  Cn2  v064
 BYTE   W42
 BYTE   VOL   57*PreludeFF5_mvl/mxv
 BYTE   W06
 BYTE   VOL   58*PreludeFF5_mvl/mxv
 BYTE   W06
 BYTE   VOL   58*PreludeFF5_mvl/mxv
 BYTE   W03
 BYTE   VOL   59*PreludeFF5_mvl/mxv
 BYTE   W03
 BYTE   VOL   60*PreludeFF5_mvl/mxv
 BYTE   W03
 BYTE   VOL   62*PreludeFF5_mvl/mxv
 BYTE   W03
 BYTE   VOL   63*PreludeFF5_mvl/mxv
 BYTE   W03
 BYTE   VOL   65*PreludeFF5_mvl/mxv
 BYTE   W03
 BYTE   VOL   66*PreludeFF5_mvl/mxv
 BYTE   W06
 BYTE   VOL   63*PreludeFF5_mvl/mxv
 BYTE   W03
 BYTE   VOL   60*PreludeFF5_mvl/mxv
 BYTE   W03
 BYTE   VOL   56*PreludeFF5_mvl/mxv
 BYTE   W03
 BYTE   VOL   50*PreludeFF5_mvl/mxv
 BYTE   W03
 BYTE   VOL   43*PreludeFF5_mvl/mxv
 BYTE   W03
 BYTE   VOL   34*PreludeFF5_mvl/mxv
 BYTE   W03
//  #08 //023   ----------------------------------------
 BYTE   VOL   56*PreludeFF5_mvl/mxv
 BYTE   N24  An1  v076
 BYTE   W24
 BYTE   Bn1  v084
 BYTE   W24
 BYTE   N23  Cn2  v092
 BYTE   W24
 BYTE   N22  En2  v088
 BYTE   W22
 BYTE   TIE  En2  v076
 BYTE   W02
//  #08 //024   ----------------------------------------
 BYTE   W12
 BYTE   VOL   58*PreludeFF5_mvl/mxv
 BYTE   W03
 BYTE   VOL   58*PreludeFF5_mvl/mxv
 BYTE   W03
 BYTE   VOL   59*PreludeFF5_mvl/mxv
 BYTE   W03
 BYTE   VOL   61*PreludeFF5_mvl/mxv
 BYTE   W03
 BYTE   VOL   63*PreludeFF5_mvl/mxv
 BYTE   W03
 BYTE   VOL   64*PreludeFF5_mvl/mxv
 BYTE   W03
 BYTE   VOL   67*PreludeFF5_mvl/mxv
 BYTE   W03
 BYTE   VOL   69*PreludeFF5_mvl/mxv
 BYTE   W03
 BYTE   VOL   72*PreludeFF5_mvl/mxv
 BYTE   W21
 BYTE   VOL   72*PreludeFF5_mvl/mxv
 BYTE   W03
 BYTE   VOL   72*PreludeFF5_mvl/mxv
 BYTE   W03
 BYTE   VOL   71*PreludeFF5_mvl/mxv
 BYTE   W03
 BYTE   VOL   70*PreludeFF5_mvl/mxv
 BYTE   W03
 BYTE   VOL   68*PreludeFF5_mvl/mxv
 BYTE   W03
 BYTE   VOL   67*PreludeFF5_mvl/mxv
 BYTE   W03
 BYTE   VOL   66*PreludeFF5_mvl/mxv
 BYTE   W03
 BYTE   VOL   64*PreludeFF5_mvl/mxv
 BYTE   W03
 BYTE   VOL   63*PreludeFF5_mvl/mxv
 BYTE   W03
 BYTE   VOL   61*PreludeFF5_mvl/mxv
 BYTE   W03
 BYTE   VOL   59*PreludeFF5_mvl/mxv
 BYTE   W03
 BYTE   VOL   58*PreludeFF5_mvl/mxv
 BYTE   W03
 BYTE   VOL   56*PreludeFF5_mvl/mxv
 BYTE   W02
 BYTE   EOT
 BYTE   W01
//  #08 //025   ----------------------------------------
 BYTE   N48  Dn2
 BYTE   W24
 BYTE   VOL   56*PreludeFF5_mvl/mxv
 BYTE   W03
 BYTE   VOL   55*PreludeFF5_mvl/mxv
 BYTE   W03
 BYTE   VOL   54*PreludeFF5_mvl/mxv
 BYTE   W03
 BYTE   VOL   53*PreludeFF5_mvl/mxv
 BYTE   W03
 BYTE   VOL   50*PreludeFF5_mvl/mxv
 BYTE   W03
 BYTE   VOL   47*PreludeFF5_mvl/mxv
 BYTE   W03
 BYTE   VOL   44*PreludeFF5_mvl/mxv
 BYTE   W03
 BYTE   VOL   39*PreludeFF5_mvl/mxv
 BYTE   W03
 BYTE   VOL   56*PreludeFF5_mvl/mxv
 BYTE   N44  Cn2  v084
 BYTE   W21
 BYTE   VOL   55*PreludeFF5_mvl/mxv
 BYTE   W06
 BYTE   VOL   54*PreludeFF5_mvl/mxv
 BYTE   W03
 BYTE   VOL   53*PreludeFF5_mvl/mxv
 BYTE   W03
 BYTE   VOL   52*PreludeFF5_mvl/mxv
 BYTE   W03
 BYTE   VOL   49*PreludeFF5_mvl/mxv
 BYTE   W03
 BYTE   VOL   47*PreludeFF5_mvl/mxv
 BYTE   W03
 BYTE   VOL   44*PreludeFF5_mvl/mxv
 BYTE   W03
 BYTE   VOL   41*PreludeFF5_mvl/mxv
 BYTE   W01
 BYTE   TIE  Bn1  v076
 BYTE   W02
//  #08 //026   ----------------------------------------
 BYTE   VOL   56*PreludeFF5_mvl/mxv
 BYTE   W12
 BYTE   VOL   58*PreludeFF5_mvl/mxv
 BYTE   W03
 BYTE   VOL   58*PreludeFF5_mvl/mxv
 BYTE   W03
 BYTE   VOL   60*PreludeFF5_mvl/mxv
 BYTE   W03
 BYTE   VOL   63*PreludeFF5_mvl/mxv
 BYTE   W03
 BYTE   VOL   67*PreludeFF5_mvl/mxv
 BYTE   W03
 BYTE   VOL   69*PreludeFF5_mvl/mxv
 BYTE   W18
 BYTE   VOL   68*PreludeFF5_mvl/mxv
 BYTE   W06
 BYTE   VOL   67*PreludeFF5_mvl/mxv
 BYTE   W06
 BYTE   VOL   67*PreludeFF5_mvl/mxv
 BYTE   W03
 BYTE   VOL   66*PreludeFF5_mvl/mxv
 BYTE   W03
 BYTE   VOL   65*PreludeFF5_mvl/mxv
 BYTE   W03
 BYTE   VOL   64*PreludeFF5_mvl/mxv
 BYTE   W03
 BYTE   VOL   63*PreludeFF5_mvl/mxv
 BYTE   W03
 BYTE   VOL   63*PreludeFF5_mvl/mxv
 BYTE   W03
 BYTE   VOL   62*PreludeFF5_mvl/mxv
 BYTE   W03
 BYTE   VOL   61*PreludeFF5_mvl/mxv
 BYTE   W03
 BYTE   VOL   60*PreludeFF5_mvl/mxv
 BYTE   W03
 BYTE   VOL   58*PreludeFF5_mvl/mxv
 BYTE   W03
 BYTE   VOL   58*PreludeFF5_mvl/mxv
 BYTE   W03
 BYTE   VOL   56*PreludeFF5_mvl/mxv
 BYTE   W05
 BYTE   EOT
 BYTE   W01
//  #08 //027   ----------------------------------------
 BYTE   N48  An1  v092
 BYTE   W24
 BYTE   VOL   55*PreludeFF5_mvl/mxv
 BYTE   W06
 BYTE   VOL   54*PreludeFF5_mvl/mxv
 BYTE   W03
 BYTE   VOL   53*PreludeFF5_mvl/mxv
 BYTE   W03
 BYTE   VOL   51*PreludeFF5_mvl/mxv
 BYTE   W03
 BYTE   VOL   49*PreludeFF5_mvl/mxv
 BYTE   W03
 BYTE   VOL   47*PreludeFF5_mvl/mxv
 BYTE   W03
 BYTE   VOL   43*PreludeFF5_mvl/mxv
 BYTE   W03
 BYTE   VOL   56*PreludeFF5_mvl/mxv
 BYTE   N48  Bn1  v104
 BYTE   W18
 BYTE   VOL   55*PreludeFF5_mvl/mxv
 BYTE   W06
 BYTE   VOL   54*PreludeFF5_mvl/mxv
 BYTE   W06
 BYTE   VOL   53*PreludeFF5_mvl/mxv
 BYTE   W03
 BYTE   VOL   53*PreludeFF5_mvl/mxv
 BYTE   W03
 BYTE   VOL   51*PreludeFF5_mvl/mxv
 BYTE   W03
 BYTE   VOL   50*PreludeFF5_mvl/mxv
 BYTE   W03
 BYTE   VOL   48*PreludeFF5_mvl/mxv
 BYTE   W03
 BYTE   VOL   47*PreludeFF5_mvl/mxv
 BYTE   W03
//  #08 //028   ----------------------------------------
 BYTE   VOL   56*PreludeFF5_mvl/mxv
 BYTE   N96  Cn2  v100
 BYTE   W09
 BYTE   VOL   57*PreludeFF5_mvl/mxv
 BYTE   W12
 BYTE   VOL   58*PreludeFF5_mvl/mxv
 BYTE   W06
 BYTE   VOL   58*PreludeFF5_mvl/mxv
 BYTE   W06
 BYTE   VOL   59*PreludeFF5_mvl/mxv
 BYTE   W03
 BYTE   VOL   60*PreludeFF5_mvl/mxv
 BYTE   W03
 BYTE   VOL   61*PreludeFF5_mvl/mxv
 BYTE   W03
 BYTE   VOL   62*PreludeFF5_mvl/mxv
 BYTE   W03
 BYTE   VOL   63*PreludeFF5_mvl/mxv
 BYTE   W03
 BYTE   VOL   64*PreludeFF5_mvl/mxv
 BYTE   W03
 BYTE   VOL   66*PreludeFF5_mvl/mxv
 BYTE   W03
 BYTE   VOL   67*PreludeFF5_mvl/mxv
 BYTE   W03
 BYTE   VOL   68*PreludeFF5_mvl/mxv
 BYTE   W03
 BYTE   VOL   69*PreludeFF5_mvl/mxv
 BYTE   W15
 BYTE   VOL   68*PreludeFF5_mvl/mxv
 BYTE   W03
 BYTE   VOL   67*PreludeFF5_mvl/mxv
 BYTE   W03
 BYTE   VOL   66*PreludeFF5_mvl/mxv
 BYTE   W03
 BYTE   VOL   64*PreludeFF5_mvl/mxv
 BYTE   W03
 BYTE   VOL   63*PreludeFF5_mvl/mxv
 BYTE   W03
 BYTE   VOL   61*PreludeFF5_mvl/mxv
 BYTE   W03
 BYTE   VOL   58*PreludeFF5_mvl/mxv
 BYTE   W03
//  #08 //029   ----------------------------------------
 BYTE   VOL   56*PreludeFF5_mvl/mxv
 BYTE   N24  Gn2  v076
 BYTE   W24
 BYTE   Fn2  v072
 BYTE   W24
 BYTE   N23  Ds2  v076
 BYTE   W24
 BYTE   Cn2  v068
 BYTE   W24
//  #08 //030   ----------------------------------------
 BYTE   N96  Dn2  v072
 BYTE   W48
 BYTE   VOL   55*PreludeFF5_mvl/mxv
 BYTE   W12
 BYTE   VOL   54*PreludeFF5_mvl/mxv
 BYTE   W03
 BYTE   VOL   53*PreludeFF5_mvl/mxv
 BYTE   W03
 BYTE   VOL   53*PreludeFF5_mvl/mxv
 BYTE   W03
 BYTE   VOL   52*PreludeFF5_mvl/mxv
 BYTE   W03
 BYTE   VOL   51*PreludeFF5_mvl/mxv
 BYTE   W03
 BYTE   VOL   49*PreludeFF5_mvl/mxv
 BYTE   W03
 BYTE   VOL   48*PreludeFF5_mvl/mxv
 BYTE   W03
 BYTE   VOL   47*PreludeFF5_mvl/mxv
 BYTE   W03
 BYTE   VOL   45*PreludeFF5_mvl/mxv
 BYTE   W03
 BYTE   VOL   44*PreludeFF5_mvl/mxv
 BYTE   W03
 BYTE   VOL   42*PreludeFF5_mvl/mxv
 BYTE   W03
 BYTE   VOL   40*PreludeFF5_mvl/mxv
 BYTE   W03
//  #08 //031   ----------------------------------------
 BYTE   VOL   56*PreludeFF5_mvl/mxv
 BYTE   N48  As1  v068
 BYTE   W21
 BYTE   VOL   55*PreludeFF5_mvl/mxv
 BYTE   W06
 BYTE   VOL   54*PreludeFF5_mvl/mxv
 BYTE   W03
 BYTE   VOL   53*PreludeFF5_mvl/mxv
 BYTE   W03
 BYTE   VOL   53*PreludeFF5_mvl/mxv
 BYTE   W03
 BYTE   VOL   51*PreludeFF5_mvl/mxv
 BYTE   W03
 BYTE   VOL   49*PreludeFF5_mvl/mxv
 BYTE   W03
 BYTE   VOL   48*PreludeFF5_mvl/mxv
 BYTE   W03
 BYTE   VOL   46*PreludeFF5_mvl/mxv
 BYTE   W03
 BYTE   VOL   56*PreludeFF5_mvl/mxv
 BYTE   N44  Fn1
 BYTE   W15
 BYTE   VOL   55*PreludeFF5_mvl/mxv
 BYTE   W06
 BYTE   VOL   54*PreludeFF5_mvl/mxv
 BYTE   W03
 BYTE   VOL   53*PreludeFF5_mvl/mxv
 BYTE   W03
 BYTE   VOL   51*PreludeFF5_mvl/mxv
 BYTE   W03
 BYTE   VOL   49*PreludeFF5_mvl/mxv
 BYTE   W03
 BYTE   VOL   46*PreludeFF5_mvl/mxv
 BYTE   W03
 BYTE   VOL   43*PreludeFF5_mvl/mxv
 BYTE   W03
 BYTE   VOL   39*PreludeFF5_mvl/mxv
 BYTE   W03
 BYTE   VOL   34*PreludeFF5_mvl/mxv
 BYTE   W01
 BYTE   VOL   32*PreludeFF5_mvl/mxv
 BYTE   W02
 BYTE   VOL   29*PreludeFF5_mvl/mxv
 BYTE   W03
//  #08 //032   ----------------------------------------
 BYTE   GoTo
  POIN2 Label_01FDCDC9
 BYTE   FINE

//**************** Track 9 (Midi-Chn.8) ****************//

PreludeFF5_009:
//  #09 //000   ----------------------------------------
 BYTE   KEYSH   PreludeFF5_key+0
 BYTE   W96
//  #09 //001   ----------------------------------------
 BYTE   W96
//  #09 //002   ----------------------------------------
 BYTE   W96
//  #09 //003   ----------------------------------------
 BYTE   W96
//  #09 //004   ----------------------------------------
 BYTE   W96
//  #09 //005   ----------------------------------------
 BYTE   W96
//  #09 //006   ----------------------------------------
 BYTE   W96
//  #09 //007   ----------------------------------------
 BYTE   W96
//  #09 //008   ----------------------------------------
 BYTE   W96
//  #09 //009   ----------------------------------------
 BYTE   W96
//  #09 //010   ----------------------------------------
 BYTE   W96
//  #09 //011   ----------------------------------------
 BYTE   W96
//  #09 //012   ----------------------------------------
 BYTE   W96
//  #09 //013   ----------------------------------------
 BYTE   W96
//  #09 //014   ----------------------------------------
 BYTE   W96
//  #09 //015   ----------------------------------------
 BYTE   W01
 BYTE   VOICE   4
 BYTE   W01
 BYTE   PAN   c_v-44
 BYTE   W88
 BYTE   W01
 BYTE   VOL   29*PreludeFF5_mvl/mxv
 BYTE   W05
//  #09 //016   ----------------------------------------
Label_01FDD158:
 BYTE   VOL   29*PreludeFF5_mvl/mxv
 BYTE   W01
 BYTE   TIE  Cn2  v048
 BYTE   W06
 BYTE   VOL   31*PreludeFF5_mvl/mxv
 BYTE   W03
 BYTE   VOL   32*PreludeFF5_mvl/mxv
 BYTE   W03
 BYTE   VOL   34*PreludeFF5_mvl/mxv
 BYTE   W03
 BYTE   VOL   35*PreludeFF5_mvl/mxv
 BYTE   W03
 BYTE   VOL   37*PreludeFF5_mvl/mxv
 BYTE   W03
 BYTE   VOL   39*PreludeFF5_mvl/mxv
 BYTE   W03
 BYTE   VOL   42*PreludeFF5_mvl/mxv
 BYTE   W03
 BYTE   VOL   45*PreludeFF5_mvl/mxv
 BYTE   W03
 BYTE   VOL   48*PreludeFF5_mvl/mxv
 BYTE   W03
 BYTE   VOL   51*PreludeFF5_mvl/mxv
 BYTE   W03
 BYTE   VOL   55*PreludeFF5_mvl/mxv
 BYTE   W03
 BYTE   VOL   58*PreludeFF5_mvl/mxv
 BYTE   W03
 BYTE   VOL   62*PreludeFF5_mvl/mxv
 BYTE   W06
 BYTE   VOL   64*PreludeFF5_mvl/mxv
 BYTE   W44
 BYTE   W03
//  #09 //017   ----------------------------------------
 BYTE   W24
 BYTE   W01
 BYTE   VOL   63*PreludeFF5_mvl/mxv
 BYTE   W06
 BYTE   VOL   63*PreludeFF5_mvl/mxv
 BYTE   W06
 BYTE   VOL   62*PreludeFF5_mvl/mxv
 BYTE   W06
 BYTE   VOL   60*PreludeFF5_mvl/mxv
 BYTE   W06
 BYTE   VOL   58*PreludeFF5_mvl/mxv
 BYTE   W06
 BYTE   VOL   55*PreludeFF5_mvl/mxv
 BYTE   W06
 BYTE   VOL   51*PreludeFF5_mvl/mxv
 BYTE   W06
 BYTE   VOL   47*PreludeFF5_mvl/mxv
 BYTE   W06
 BYTE   VOL   41*PreludeFF5_mvl/mxv
 BYTE   W06
 BYTE   VOL   36*PreludeFF5_mvl/mxv
 BYTE   W06
 BYTE   VOL   29*PreludeFF5_mvl/mxv
 BYTE   W06
 BYTE   VOL   22*PreludeFF5_mvl/mxv
 BYTE   W05
//  #09 //018   ----------------------------------------
 BYTE   W01
 BYTE   EOT
 BYTE   VOL   53*PreludeFF5_mvl/mxv
 BYTE   TIE  An1
 BYTE   W06
 BYTE   VOL   55*PreludeFF5_mvl/mxv
 BYTE   W03
 BYTE   VOL   57*PreludeFF5_mvl/mxv
 BYTE   W03
 BYTE   VOL   60*PreludeFF5_mvl/mxv
 BYTE   W03
 BYTE   VOL   64*PreludeFF5_mvl/mxv
 BYTE   W80
//  #09 //019   ----------------------------------------
 BYTE   W01
 BYTE   VOL   63*PreludeFF5_mvl/mxv
 BYTE   W12
 BYTE   VOL   63*PreludeFF5_mvl/mxv
 BYTE   W06
 BYTE   VOL   61*PreludeFF5_mvl/mxv
 BYTE   W06
 BYTE   VOL   59*PreludeFF5_mvl/mxv
 BYTE   W06
 BYTE   VOL   57*PreludeFF5_mvl/mxv
 BYTE   W06
 BYTE   VOL   54*PreludeFF5_mvl/mxv
 BYTE   W06
 BYTE   VOL   51*PreludeFF5_mvl/mxv
 BYTE   W06
 BYTE   VOL   47*PreludeFF5_mvl/mxv
 BYTE   W06
 BYTE   VOL   42*PreludeFF5_mvl/mxv
 BYTE   W06
 BYTE   VOL   37*PreludeFF5_mvl/mxv
 BYTE   W06
 BYTE   VOL   32*PreludeFF5_mvl/mxv
 BYTE   W06
 BYTE   VOL   25*PreludeFF5_mvl/mxv
 BYTE   W06
 BYTE   VOL   19*PreludeFF5_mvl/mxv
 BYTE   W06
 BYTE   VOL   12*PreludeFF5_mvl/mxv
 BYTE   W06
 BYTE   VOL   4*PreludeFF5_mvl/mxv
 BYTE   W05
//  #09 //020   ----------------------------------------
 BYTE   W01
 BYTE   EOT
 BYTE   VOL   37*PreludeFF5_mvl/mxv
 BYTE   TIE  Cn2
 BYTE   W03
 BYTE   VOL   44*PreludeFF5_mvl/mxv
 BYTE   W03
 BYTE   VOL   53*PreludeFF5_mvl/mxv
 BYTE   W03
 BYTE   VOL   64*PreludeFF5_mvl/mxv
 BYTE   W84
 BYTE   W02
//  #09 //021   ----------------------------------------
 BYTE   W13
 BYTE   VOL   63*PreludeFF5_mvl/mxv
 BYTE   W12
 BYTE   VOL   62*PreludeFF5_mvl/mxv
 BYTE   W06
 BYTE   VOL   61*PreludeFF5_mvl/mxv
 BYTE   W06
 BYTE   VOL   58*PreludeFF5_mvl/mxv
 BYTE   W06
 BYTE   VOL   56*PreludeFF5_mvl/mxv
 BYTE   W06
 BYTE   VOL   53*PreludeFF5_mvl/mxv
 BYTE   W06
 BYTE   VOL   48*PreludeFF5_mvl/mxv
 BYTE   W06
 BYTE   VOL   44*PreludeFF5_mvl/mxv
 BYTE   W06
 BYTE   VOL   39*PreludeFF5_mvl/mxv
 BYTE   W06
 BYTE   VOL   34*PreludeFF5_mvl/mxv
 BYTE   W06
 BYTE   VOL   28*PreludeFF5_mvl/mxv
 BYTE   W06
 BYTE   VOL   20*PreludeFF5_mvl/mxv
 BYTE   W06
 BYTE   VOL   14*PreludeFF5_mvl/mxv
 BYTE   W05
//  #09 //022   ----------------------------------------
 BYTE   W01
 BYTE   EOT
 BYTE   VOL   37*PreludeFF5_mvl/mxv
 BYTE   TIE  An1
 BYTE   W03
 BYTE   VOL   44*PreludeFF5_mvl/mxv
 BYTE   W03
 BYTE   VOL   53*PreludeFF5_mvl/mxv
 BYTE   W03
 BYTE   VOL   64*PreludeFF5_mvl/mxv
 BYTE   W48
 BYTE   W03
 BYTE   VOL   63*PreludeFF5_mvl/mxv
 BYTE   W12
 BYTE   VOL   63*PreludeFF5_mvl/mxv
 BYTE   W06
 BYTE   VOL   62*PreludeFF5_mvl/mxv
 BYTE   W06
 BYTE   VOL   61*PreludeFF5_mvl/mxv
 BYTE   W06
 BYTE   VOL   59*PreludeFF5_mvl/mxv
 BYTE   W05
//  #09 //023   ----------------------------------------
 BYTE   W01
 BYTE   VOL   58*PreludeFF5_mvl/mxv
 BYTE   W06
 BYTE   VOL   55*PreludeFF5_mvl/mxv
 BYTE   W06
 BYTE   VOL   53*PreludeFF5_mvl/mxv
 BYTE   W06
 BYTE   VOL   49*PreludeFF5_mvl/mxv
 BYTE   W06
 BYTE   VOL   46*PreludeFF5_mvl/mxv
 BYTE   W06
 BYTE   VOL   43*PreludeFF5_mvl/mxv
 BYTE   W06
 BYTE   VOL   39*PreludeFF5_mvl/mxv
 BYTE   W06
 BYTE   VOL   34*PreludeFF5_mvl/mxv
 BYTE   W06
 BYTE   VOL   29*PreludeFF5_mvl/mxv
 BYTE   W06
 BYTE   VOL   24*PreludeFF5_mvl/mxv
 BYTE   W06
 BYTE   VOL   19*PreludeFF5_mvl/mxv
 BYTE   W06
 BYTE   VOL   13*PreludeFF5_mvl/mxv
 BYTE   W06
 BYTE   VOL   7*PreludeFF5_mvl/mxv
 BYTE   W06
 BYTE   VOL   2*PreludeFF5_mvl/mxv
 BYTE   W06
 BYTE   VOL   2*PreludeFF5_mvl/mxv
 BYTE   W09
 BYTE   EOT
 BYTE   W02
//  #09 //024   ----------------------------------------
 BYTE   W01
 BYTE   VOL   64*PreludeFF5_mvl/mxv
 BYTE   TIE  Fn1  v064
 BYTE   W90
 BYTE   VOL   63*PreludeFF5_mvl/mxv
 BYTE   W05
//  #09 //025   ----------------------------------------
 BYTE   W07
 BYTE   VOL   63*PreludeFF5_mvl/mxv
 BYTE   W06
 BYTE   VOL   62*PreludeFF5_mvl/mxv
 BYTE   W06
 BYTE   VOL   60*PreludeFF5_mvl/mxv
 BYTE   W06
 BYTE   VOL   58*PreludeFF5_mvl/mxv
 BYTE   W06
 BYTE   VOL   57*PreludeFF5_mvl/mxv
 BYTE   W06
 BYTE   VOL   54*PreludeFF5_mvl/mxv
 BYTE   W06
 BYTE   VOL   52*PreludeFF5_mvl/mxv
 BYTE   W06
 BYTE   VOL   48*PreludeFF5_mvl/mxv
 BYTE   W06
 BYTE   VOL   44*PreludeFF5_mvl/mxv
 BYTE   W06
 BYTE   VOL   41*PreludeFF5_mvl/mxv
 BYTE   W06
 BYTE   VOL   36*PreludeFF5_mvl/mxv
 BYTE   W06
 BYTE   VOL   32*PreludeFF5_mvl/mxv
 BYTE   W06
 BYTE   VOL   27*PreludeFF5_mvl/mxv
 BYTE   W06
 BYTE   VOL   21*PreludeFF5_mvl/mxv
 BYTE   W06
 BYTE   VOL   15*PreludeFF5_mvl/mxv
 BYTE   W05
//  #09 //026   ----------------------------------------
 BYTE   W01
 BYTE   EOT
 BYTE   VOL   52*PreludeFF5_mvl/mxv
 BYTE   TIE  Gn1
 BYTE   W09
 BYTE   VOL   53*PreludeFF5_mvl/mxv
 BYTE   W03
 BYTE   VOL   53*PreludeFF5_mvl/mxv
 BYTE   W06
 BYTE   VOL   55*PreludeFF5_mvl/mxv
 BYTE   W03
 BYTE   VOL   56*PreludeFF5_mvl/mxv
 BYTE   W03
 BYTE   VOL   57*PreludeFF5_mvl/mxv
 BYTE   W03
 BYTE   VOL   58*PreludeFF5_mvl/mxv
 BYTE   W03
 BYTE   VOL   60*PreludeFF5_mvl/mxv
 BYTE   W03
 BYTE   VOL   63*PreludeFF5_mvl/mxv
 BYTE   W03
 BYTE   VOL   64*PreludeFF5_mvl/mxv
 BYTE   W03
 BYTE   VOL   67*PreludeFF5_mvl/mxv
 BYTE   W03
 BYTE   VOL   69*PreludeFF5_mvl/mxv
 BYTE   W03
 BYTE   VOL   70*PreludeFF5_mvl/mxv
 BYTE   W15
 BYTE   VOL   69*PreludeFF5_mvl/mxv
 BYTE   W12
 BYTE   VOL   68*PreludeFF5_mvl/mxv
 BYTE   W06
 BYTE   VOL   67*PreludeFF5_mvl/mxv
 BYTE   W06
 BYTE   VOL   67*PreludeFF5_mvl/mxv
 BYTE   W06
 BYTE   VOL   66*PreludeFF5_mvl/mxv
 BYTE   W05
//  #09 //027   ----------------------------------------
 BYTE   W01
 BYTE   VOL   65*PreludeFF5_mvl/mxv
 BYTE   W03
 BYTE   VOL   64*PreludeFF5_mvl/mxv
 BYTE   W03
 BYTE   VOL   63*PreludeFF5_mvl/mxv
 BYTE   W03
 BYTE   VOL   63*PreludeFF5_mvl/mxv
 BYTE   W03
 BYTE   VOL   62*PreludeFF5_mvl/mxv
 BYTE   W03
 BYTE   VOL   61*PreludeFF5_mvl/mxv
 BYTE   W03
 BYTE   VOL   60*PreludeFF5_mvl/mxv
 BYTE   W03
 BYTE   VOL   59*PreludeFF5_mvl/mxv
 BYTE   W03
 BYTE   VOL   58*PreludeFF5_mvl/mxv
 BYTE   W03
 BYTE   VOL   58*PreludeFF5_mvl/mxv
 BYTE   W03
 BYTE   VOL   57*PreludeFF5_mvl/mxv
 BYTE   W03
 BYTE   VOL   56*PreludeFF5_mvl/mxv
 BYTE   W03
 BYTE   VOL   55*PreludeFF5_mvl/mxv
 BYTE   W03
 BYTE   VOL   53*PreludeFF5_mvl/mxv
 BYTE   W03
 BYTE   VOL   53*PreludeFF5_mvl/mxv
 BYTE   W03
 BYTE   VOL   52*PreludeFF5_mvl/mxv
 BYTE   W03
 BYTE   VOL   50*PreludeFF5_mvl/mxv
 BYTE   W03
 BYTE   VOL   49*PreludeFF5_mvl/mxv
 BYTE   W03
 BYTE   VOL   48*PreludeFF5_mvl/mxv
 BYTE   W03
 BYTE   VOL   47*PreludeFF5_mvl/mxv
 BYTE   W03
 BYTE   VOL   45*PreludeFF5_mvl/mxv
 BYTE   W03
 BYTE   VOL   44*PreludeFF5_mvl/mxv
 BYTE   W03
 BYTE   VOL   43*PreludeFF5_mvl/mxv
 BYTE   W03
 BYTE   VOL   41*PreludeFF5_mvl/mxv
 BYTE   W03
 BYTE   VOL   39*PreludeFF5_mvl/mxv
 BYTE   W03
 BYTE   VOL   39*PreludeFF5_mvl/mxv
 BYTE   W03
 BYTE   VOL   37*PreludeFF5_mvl/mxv
 BYTE   W03
 BYTE   VOL   35*PreludeFF5_mvl/mxv
 BYTE   W03
 BYTE   VOL   34*PreludeFF5_mvl/mxv
 BYTE   W03
 BYTE   VOL   32*PreludeFF5_mvl/mxv
 BYTE   W03
 BYTE   VOL   30*PreludeFF5_mvl/mxv
 BYTE   W03
 BYTE   VOL   29*PreludeFF5_mvl/mxv
 BYTE   W02
//  #09 //028   ----------------------------------------
 BYTE   W01
 BYTE   EOT
 BYTE   VOL   64*PreludeFF5_mvl/mxv
 BYTE   TIE  Gs1
 BYTE   W92
 BYTE   W03
//  #09 //029   ----------------------------------------
 BYTE   W28
 BYTE   VOL   63*PreludeFF5_mvl/mxv
 BYTE   W09
 BYTE   VOL   63*PreludeFF5_mvl/mxv
 BYTE   W06
 BYTE   VOL   62*PreludeFF5_mvl/mxv
 BYTE   W03
 BYTE   VOL   61*PreludeFF5_mvl/mxv
 BYTE   W03
 BYTE   VOL   60*PreludeFF5_mvl/mxv
 BYTE   W03
 BYTE   VOL   59*PreludeFF5_mvl/mxv
 BYTE   W03
 BYTE   VOL   58*PreludeFF5_mvl/mxv
 BYTE   W03
 BYTE   VOL   57*PreludeFF5_mvl/mxv
 BYTE   W03
 BYTE   VOL   55*PreludeFF5_mvl/mxv
 BYTE   W03
 BYTE   VOL   54*PreludeFF5_mvl/mxv
 BYTE   W03
 BYTE   VOL   53*PreludeFF5_mvl/mxv
 BYTE   W03
 BYTE   VOL   51*PreludeFF5_mvl/mxv
 BYTE   W03
 BYTE   VOL   48*PreludeFF5_mvl/mxv
 BYTE   W03
 BYTE   VOL   47*PreludeFF5_mvl/mxv
 BYTE   W03
 BYTE   VOL   44*PreludeFF5_mvl/mxv
 BYTE   W03
 BYTE   VOL   42*PreludeFF5_mvl/mxv
 BYTE   W03
 BYTE   VOL   39*PreludeFF5_mvl/mxv
 BYTE   W03
 BYTE   VOL   37*PreludeFF5_mvl/mxv
 BYTE   W03
 BYTE   VOL   34*PreludeFF5_mvl/mxv
 BYTE   W03
 BYTE   VOL   31*PreludeFF5_mvl/mxv
 BYTE   W02
//  #09 //030   ----------------------------------------
 BYTE   W01
 BYTE   EOT
 BYTE   VOL   64*PreludeFF5_mvl/mxv
 BYTE   TIE  As1  v060
 BYTE   W09
 BYTE   VOL   65*PreludeFF5_mvl/mxv
 BYTE   W06
 BYTE   VOL   66*PreludeFF5_mvl/mxv
 BYTE   W03
 BYTE   VOL   67*PreludeFF5_mvl/mxv
 BYTE   W03
 BYTE   VOL   68*PreludeFF5_mvl/mxv
 BYTE   W03
 BYTE   VOL   69*PreludeFF5_mvl/mxv
 BYTE   W03
 BYTE   VOL   70*PreludeFF5_mvl/mxv
 BYTE   W15
 BYTE   VOL   69*PreludeFF5_mvl/mxv
 BYTE   W24
 BYTE   VOL   68*PreludeFF5_mvl/mxv
 BYTE   W06
 BYTE   VOL   67*PreludeFF5_mvl/mxv
 BYTE   W09
 BYTE   VOL   67*PreludeFF5_mvl/mxv
 BYTE   W03
 BYTE   VOL   66*PreludeFF5_mvl/mxv
 BYTE   W06
 BYTE   VOL   65*PreludeFF5_mvl/mxv
 BYTE   W05
//  #09 //031   ----------------------------------------
 BYTE   W01
 BYTE   VOL   64*PreludeFF5_mvl/mxv
 BYTE   W03
 BYTE   VOL   63*PreludeFF5_mvl/mxv
 BYTE   W03
 BYTE   VOL   63*PreludeFF5_mvl/mxv
 BYTE   W03
 BYTE   VOL   62*PreludeFF5_mvl/mxv
 BYTE   W06
 BYTE   VOL   60*PreludeFF5_mvl/mxv
 BYTE   W06
 BYTE   VOL   58*PreludeFF5_mvl/mxv
 BYTE   W06
 BYTE   VOL   57*PreludeFF5_mvl/mxv
 BYTE   W03
 BYTE   VOL   56*PreludeFF5_mvl/mxv
 BYTE   W03
 BYTE   VOL   55*PreludeFF5_mvl/mxv
 BYTE   W03
 BYTE   VOL   54*PreludeFF5_mvl/mxv
 BYTE   W03
 BYTE   VOL   53*PreludeFF5_mvl/mxv
 BYTE   W03
 BYTE   VOL   52*PreludeFF5_mvl/mxv
 BYTE   W03
 BYTE   VOL   51*PreludeFF5_mvl/mxv
 BYTE   W03
 BYTE   VOL   50*PreludeFF5_mvl/mxv
 BYTE   W03
 BYTE   VOL   48*PreludeFF5_mvl/mxv
 BYTE   W03
 BYTE   VOL   48*PreludeFF5_mvl/mxv
 BYTE   W03
 BYTE   VOL   46*PreludeFF5_mvl/mxv
 BYTE   W03
 BYTE   VOL   45*PreludeFF5_mvl/mxv
 BYTE   W03
 BYTE   VOL   44*PreludeFF5_mvl/mxv
 BYTE   W03
 BYTE   VOL   42*PreludeFF5_mvl/mxv
 BYTE   W03
 BYTE   VOL   41*PreludeFF5_mvl/mxv
 BYTE   W03
 BYTE   VOL   39*PreludeFF5_mvl/mxv
 BYTE   W03
 BYTE   VOL   38*PreludeFF5_mvl/mxv
 BYTE   W03
 BYTE   VOL   36*PreludeFF5_mvl/mxv
 BYTE   W03
 BYTE   VOL   34*PreludeFF5_mvl/mxv
 BYTE   W03
 BYTE   VOL   33*PreludeFF5_mvl/mxv
 BYTE   W03
 BYTE   VOL   31*PreludeFF5_mvl/mxv
 BYTE   W03
 BYTE   VOL   30*PreludeFF5_mvl/mxv
 BYTE   W03
 BYTE   VOL   29*PreludeFF5_mvl/mxv
 BYTE   W02
//  #09 //032   ----------------------------------------
 BYTE   EOT
 BYTE   GoTo
  POIN2 Label_01FDD158
 BYTE   FINE

//**************** Track 10 (Midi-Chn.9) ****************//

PreludeFF5_010:
//  #10 //000   ----------------------------------------
 BYTE   KEYSH   PreludeFF5_key+0
 BYTE   W03
 BYTE   VOICE   48
 BYTE   W02
 BYTE   PAN   c_v-64
 BYTE   W90
 BYTE   W01
//  #10 //001   ----------------------------------------
 BYTE   W96
//  #10 //002   ----------------------------------------
 BYTE   W96
//  #10 //003   ----------------------------------------
 BYTE   W96
//  #10 //004   ----------------------------------------
 BYTE   W96
//  #10 //005   ----------------------------------------
 BYTE   W96
//  #10 //006   ----------------------------------------
 BYTE   W96
//  #10 //007   ----------------------------------------
 BYTE   W96
//  #10 //008   ----------------------------------------
 BYTE   W96
//  #10 //009   ----------------------------------------
 BYTE   W96
//  #10 //010   ----------------------------------------
 BYTE   W96
//  #10 //011   ----------------------------------------
 BYTE   W96
//  #10 //012   ----------------------------------------
 BYTE   W96
//  #10 //013   ----------------------------------------
 BYTE   W96
//  #10 //014   ----------------------------------------
 BYTE   W96
//  #10 //015   ----------------------------------------
 BYTE   W92
 BYTE   W02
 BYTE   W02
//  #10 //016   ----------------------------------------
Label_01FDD43B:
 BYTE   VOL   28*PreludeFF5_mvl/mxv
 BYTE   W03
 BYTE   BEND   c_v+5
 BYTE   W03
 BYTE   N96  Cn4  v036
 BYTE   W07
 BYTE   VOL   29*PreludeFF5_mvl/mxv
 BYTE   W03
 BYTE   VOL   29*PreludeFF5_mvl/mxv
 BYTE   W02
 BYTE   VOL   30*PreludeFF5_mvl/mxv
 BYTE   W01
 BYTE   VOL   32*PreludeFF5_mvl/mxv
 BYTE   W02
 BYTE   VOL   33*PreludeFF5_mvl/mxv
 BYTE   W01
 BYTE   VOL   34*PreludeFF5_mvl/mxv
 BYTE   W02
 BYTE   VOL   36*PreludeFF5_mvl/mxv
 BYTE   W01
 BYTE   VOL   38*PreludeFF5_mvl/mxv
 BYTE   W02
 BYTE   VOL   39*PreludeFF5_mvl/mxv
 BYTE   W01
 BYTE   VOL   41*PreludeFF5_mvl/mxv
 BYTE   W02
 BYTE   VOL   44*PreludeFF5_mvl/mxv
 BYTE   W01
 BYTE   VOL   46*PreludeFF5_mvl/mxv
 BYTE   W02
 BYTE   VOL   48*PreludeFF5_mvl/mxv
 BYTE   W01
 BYTE   VOL   52*PreludeFF5_mvl/mxv
 BYTE   W02
 BYTE   VOL   54*PreludeFF5_mvl/mxv
 BYTE   W01
 BYTE   VOL   57*PreludeFF5_mvl/mxv
 BYTE   W02
 BYTE   VOL   60*PreludeFF5_mvl/mxv
 BYTE   W01
 BYTE   VOL   63*PreludeFF5_mvl/mxv
 BYTE   W36
 BYTE   W02
 BYTE   VOL   63*PreludeFF5_mvl/mxv
 BYTE   W03
 BYTE   VOL   62*PreludeFF5_mvl/mxv
 BYTE   W03
 BYTE   VOL   61*PreludeFF5_mvl/mxv
 BYTE   W03
 BYTE   VOL   60*PreludeFF5_mvl/mxv
 BYTE   W03
 BYTE   VOL   58*PreludeFF5_mvl/mxv
 BYTE   W03
 BYTE   VOL   57*PreludeFF5_mvl/mxv
 BYTE   W03
//  #10 //017   ----------------------------------------
 BYTE   VOL   55*PreludeFF5_mvl/mxv
 BYTE   W03
 BYTE   VOL   53*PreludeFF5_mvl/mxv
 BYTE   W03
 BYTE   VOL   64*PreludeFF5_mvl/mxv
 BYTE   N48  Bn3  v032
 BYTE   W30
 BYTE   VOL   63*PreludeFF5_mvl/mxv
 BYTE   W06
 BYTE   VOL   62*PreludeFF5_mvl/mxv
 BYTE   W03
 BYTE   VOL   60*PreludeFF5_mvl/mxv
 BYTE   W03
 BYTE   VOL   58*PreludeFF5_mvl/mxv
 BYTE   W03
 BYTE   VOL   55*PreludeFF5_mvl/mxv
 BYTE   W03
 BYTE   VOL   64*PreludeFF5_mvl/mxv
 BYTE   N48  Dn4  v028
 BYTE   W32
 BYTE   W01
 BYTE   VOL   63*PreludeFF5_mvl/mxv
 BYTE   W06
 BYTE   VOL   62*PreludeFF5_mvl/mxv
 BYTE   W03
//  #10 //018   ----------------------------------------
 BYTE   VOL   58*PreludeFF5_mvl/mxv
 BYTE   W03
 BYTE   VOL   55*PreludeFF5_mvl/mxv
 BYTE   W03
 BYTE   VOL   49*PreludeFF5_mvl/mxv
 BYTE   TIE  Cn4  v024
 BYTE   W03
 BYTE   VOL   52*PreludeFF5_mvl/mxv
 BYTE   W09
 BYTE   VOL   53*PreludeFF5_mvl/mxv
 BYTE   W03
 BYTE   VOL   53*PreludeFF5_mvl/mxv
 BYTE   W03
 BYTE   VOL   54*PreludeFF5_mvl/mxv
 BYTE   W03
 BYTE   VOL   55*PreludeFF5_mvl/mxv
 BYTE   W03
 BYTE   VOL   57*PreludeFF5_mvl/mxv
 BYTE   W03
 BYTE   VOL   58*PreludeFF5_mvl/mxv
 BYTE   W03
 BYTE   VOL   59*PreludeFF5_mvl/mxv
 BYTE   W03
 BYTE   VOL   61*PreludeFF5_mvl/mxv
 BYTE   W03
 BYTE   VOL   63*PreludeFF5_mvl/mxv
 BYTE   W03
 BYTE   VOL   64*PreludeFF5_mvl/mxv
 BYTE   W03
 BYTE   VOL   65*PreludeFF5_mvl/mxv
 BYTE   W06
 BYTE   VOL   66*PreludeFF5_mvl/mxv
 BYTE   W06
 BYTE   VOL   67*PreludeFF5_mvl/mxv
 BYTE   W03
 BYTE   VOL   67*PreludeFF5_mvl/mxv
 BYTE   W06
 BYTE   VOL   68*PreludeFF5_mvl/mxv
 BYTE   W03
 BYTE   VOL   69*PreludeFF5_mvl/mxv
 BYTE   W03
 BYTE   VOL   70*PreludeFF5_mvl/mxv
 BYTE   W03
 BYTE   VOL   71*PreludeFF5_mvl/mxv
 BYTE   W12
 BYTE   VOL   70*PreludeFF5_mvl/mxv
 BYTE   W03
 BYTE   VOL   69*PreludeFF5_mvl/mxv
 BYTE   W03
//  #10 //019   ----------------------------------------
 BYTE   W09
 BYTE   VOL   68*PreludeFF5_mvl/mxv
 BYTE   W04
 BYTE   VOL   67*PreludeFF5_mvl/mxv
 BYTE   W05
 BYTE   VOL   67*PreludeFF5_mvl/mxv
 BYTE   W03
 BYTE   VOL   66*PreludeFF5_mvl/mxv
 BYTE   W03
 BYTE   VOL   65*PreludeFF5_mvl/mxv
 BYTE   W04
 BYTE   VOL   63*PreludeFF5_mvl/mxv
 BYTE   W03
 BYTE   VOL   62*PreludeFF5_mvl/mxv
 BYTE   W03
 BYTE   VOL   61*PreludeFF5_mvl/mxv
 BYTE   W03
 BYTE   VOL   59*PreludeFF5_mvl/mxv
 BYTE   W03
 BYTE   VOL   58*PreludeFF5_mvl/mxv
 BYTE   W03
 BYTE   VOL   56*PreludeFF5_mvl/mxv
 BYTE   W03
 BYTE   VOL   54*PreludeFF5_mvl/mxv
 BYTE   W03
 BYTE   VOL   52*PreludeFF5_mvl/mxv
 BYTE   W03
 BYTE   VOL   50*PreludeFF5_mvl/mxv
 BYTE   W05
 BYTE   VOL   47*PreludeFF5_mvl/mxv
 BYTE   W03
 BYTE   VOL   44*PreludeFF5_mvl/mxv
 BYTE   W03
 BYTE   VOL   42*PreludeFF5_mvl/mxv
 BYTE   W03
 BYTE   VOL   39*PreludeFF5_mvl/mxv
 BYTE   W03
 BYTE   VOL   37*PreludeFF5_mvl/mxv
 BYTE   W03
 BYTE   VOL   34*PreludeFF5_mvl/mxv
 BYTE   W03
 BYTE   VOL   31*PreludeFF5_mvl/mxv
 BYTE   W03
 BYTE   VOL   28*PreludeFF5_mvl/mxv
 BYTE   W03
 BYTE   VOL   24*PreludeFF5_mvl/mxv
 BYTE   W03
 BYTE   VOL   21*PreludeFF5_mvl/mxv
 BYTE   W03
 BYTE   VOL   18*PreludeFF5_mvl/mxv
 BYTE   W03
 BYTE   VOL   15*PreludeFF5_mvl/mxv
 BYTE   W03
 BYTE   VOL   10*PreludeFF5_mvl/mxv
 BYTE   W03
//  #10 //020   ----------------------------------------
 BYTE   VOL   7*PreludeFF5_mvl/mxv
 BYTE   W03
 BYTE   VOL   3*PreludeFF5_mvl/mxv
 BYTE   W01
 BYTE   EOT
 BYTE   W02
 BYTE   VOL   46*PreludeFF5_mvl/mxv
 BYTE   N96  Cn4  v036
 BYTE   W03
 BYTE   VOL   47*PreludeFF5_mvl/mxv
 BYTE   W09
 BYTE   VOL   48*PreludeFF5_mvl/mxv
 BYTE   W03
 BYTE   VOL   48*PreludeFF5_mvl/mxv
 BYTE   W03
 BYTE   VOL   50*PreludeFF5_mvl/mxv
 BYTE   W03
 BYTE   VOL   52*PreludeFF5_mvl/mxv
 BYTE   W03
 BYTE   VOL   53*PreludeFF5_mvl/mxv
 BYTE   W03
 BYTE   VOL   55*PreludeFF5_mvl/mxv
 BYTE   W03
 BYTE   VOL   58*PreludeFF5_mvl/mxv
 BYTE   W03
 BYTE   VOL   60*PreludeFF5_mvl/mxv
 BYTE   W03
 BYTE   VOL   63*PreludeFF5_mvl/mxv
 BYTE   W03
 BYTE   VOL   64*PreludeFF5_mvl/mxv
 BYTE   W36
 BYTE   W03
 BYTE   VOL   63*PreludeFF5_mvl/mxv
 BYTE   W06
 BYTE   VOL   62*PreludeFF5_mvl/mxv
 BYTE   W03
 BYTE   VOL   59*PreludeFF5_mvl/mxv
 BYTE   W03
//  #10 //021   ----------------------------------------
 BYTE   VOL   56*PreludeFF5_mvl/mxv
 BYTE   W03
 BYTE   VOL   52*PreludeFF5_mvl/mxv
 BYTE   W03
 BYTE   VOL   64*PreludeFF5_mvl/mxv
 BYTE   N48  Bn3  v032
 BYTE   W32
 BYTE   W01
 BYTE   VOL   63*PreludeFF5_mvl/mxv
 BYTE   W03
 BYTE   VOL   63*PreludeFF5_mvl/mxv
 BYTE   W03
 BYTE   VOL   60*PreludeFF5_mvl/mxv
 BYTE   W03
 BYTE   VOL   57*PreludeFF5_mvl/mxv
 BYTE   W03
 BYTE   VOL   51*PreludeFF5_mvl/mxv
 BYTE   W03
 BYTE   VOL   63*PreludeFF5_mvl/mxv
 BYTE   N48  Dn4  v024
 BYTE   W32
 BYTE   W01
 BYTE   VOL   62*PreludeFF5_mvl/mxv
 BYTE   W03
 BYTE   VOL   61*PreludeFF5_mvl/mxv
 BYTE   W03
 BYTE   VOL   58*PreludeFF5_mvl/mxv
 BYTE   W03
//  #10 //022   ----------------------------------------
 BYTE   VOL   55*PreludeFF5_mvl/mxv
 BYTE   W03
 BYTE   VOL   50*PreludeFF5_mvl/mxv
 BYTE   W03
 BYTE   VOL   51*PreludeFF5_mvl/mxv
 BYTE   TIE  Cn4  v028
 BYTE   W03
 BYTE   VOL   52*PreludeFF5_mvl/mxv
 BYTE   W09
 BYTE   VOL   53*PreludeFF5_mvl/mxv
 BYTE   W03
 BYTE   VOL   53*PreludeFF5_mvl/mxv
 BYTE   W03
 BYTE   VOL   54*PreludeFF5_mvl/mxv
 BYTE   W03
 BYTE   VOL   55*PreludeFF5_mvl/mxv
 BYTE   W03
 BYTE   VOL   57*PreludeFF5_mvl/mxv
 BYTE   W03
 BYTE   VOL   58*PreludeFF5_mvl/mxv
 BYTE   W03
 BYTE   VOL   59*PreludeFF5_mvl/mxv
 BYTE   W03
 BYTE   VOL   61*PreludeFF5_mvl/mxv
 BYTE   W03
 BYTE   VOL   63*PreludeFF5_mvl/mxv
 BYTE   W03
 BYTE   VOL   64*PreludeFF5_mvl/mxv
 BYTE   W03
 BYTE   VOL   65*PreludeFF5_mvl/mxv
 BYTE   W06
 BYTE   VOL   66*PreludeFF5_mvl/mxv
 BYTE   W06
 BYTE   VOL   67*PreludeFF5_mvl/mxv
 BYTE   W03
 BYTE   VOL   67*PreludeFF5_mvl/mxv
 BYTE   W06
 BYTE   VOL   68*PreludeFF5_mvl/mxv
 BYTE   W03
 BYTE   VOL   69*PreludeFF5_mvl/mxv
 BYTE   W03
 BYTE   VOL   70*PreludeFF5_mvl/mxv
 BYTE   W03
 BYTE   VOL   71*PreludeFF5_mvl/mxv
 BYTE   W09
 BYTE   VOL   70*PreludeFF5_mvl/mxv
 BYTE   W09
//  #10 //023   ----------------------------------------
 BYTE   W03
 BYTE   VOL   69*PreludeFF5_mvl/mxv
 BYTE   W06
 BYTE   VOL   68*PreludeFF5_mvl/mxv
 BYTE   W03
 BYTE   VOL   67*PreludeFF5_mvl/mxv
 BYTE   W06
 BYTE   VOL   66*PreludeFF5_mvl/mxv
 BYTE   W03
 BYTE   VOL   65*PreludeFF5_mvl/mxv
 BYTE   W03
 BYTE   VOL   64*PreludeFF5_mvl/mxv
 BYTE   W03
 BYTE   VOL   63*PreludeFF5_mvl/mxv
 BYTE   W03
 BYTE   VOL   62*PreludeFF5_mvl/mxv
 BYTE   W03
 BYTE   VOL   61*PreludeFF5_mvl/mxv
 BYTE   W03
 BYTE   VOL   59*PreludeFF5_mvl/mxv
 BYTE   W03
 BYTE   VOL   58*PreludeFF5_mvl/mxv
 BYTE   W03
 BYTE   VOL   56*PreludeFF5_mvl/mxv
 BYTE   W03
 BYTE   VOL   54*PreludeFF5_mvl/mxv
 BYTE   W03
 BYTE   VOL   53*PreludeFF5_mvl/mxv
 BYTE   W03
 BYTE   VOL   50*PreludeFF5_mvl/mxv
 BYTE   W03
 BYTE   VOL   48*PreludeFF5_mvl/mxv
 BYTE   W03
 BYTE   VOL   46*PreludeFF5_mvl/mxv
 BYTE   W03
 BYTE   VOL   44*PreludeFF5_mvl/mxv
 BYTE   W03
 BYTE   VOL   41*PreludeFF5_mvl/mxv
 BYTE   W03
 BYTE   VOL   39*PreludeFF5_mvl/mxv
 BYTE   W03
 BYTE   VOL   36*PreludeFF5_mvl/mxv
 BYTE   W03
 BYTE   VOL   34*PreludeFF5_mvl/mxv
 BYTE   W03
 BYTE   VOL   31*PreludeFF5_mvl/mxv
 BYTE   W03
 BYTE   VOL   28*PreludeFF5_mvl/mxv
 BYTE   W03
 BYTE   VOL   25*PreludeFF5_mvl/mxv
 BYTE   W03
 BYTE   VOL   22*PreludeFF5_mvl/mxv
 BYTE   W03
 BYTE   VOL   20*PreludeFF5_mvl/mxv
 BYTE   W03
 BYTE   VOL   16*PreludeFF5_mvl/mxv
 BYTE   W03
 BYTE   VOL   13*PreludeFF5_mvl/mxv
 BYTE   W03
//  #10 //024   ----------------------------------------
 BYTE   VOL   9*PreludeFF5_mvl/mxv
 BYTE   W03
 BYTE   VOL   5*PreludeFF5_mvl/mxv
 BYTE   W01
 BYTE   EOT
 BYTE   W02
 BYTE   VOL   41*PreludeFF5_mvl/mxv
 BYTE   N96  An3  v032
 BYTE   W03
 BYTE   VOL   42*PreludeFF5_mvl/mxv
 BYTE   W06
 BYTE   VOL   43*PreludeFF5_mvl/mxv
 BYTE   W03
 BYTE   VOL   44*PreludeFF5_mvl/mxv
 BYTE   W03
 BYTE   VOL   47*PreludeFF5_mvl/mxv
 BYTE   W03
 BYTE   VOL   49*PreludeFF5_mvl/mxv
 BYTE   W03
 BYTE   VOL   53*PreludeFF5_mvl/mxv
 BYTE   W03
 BYTE   VOL   56*PreludeFF5_mvl/mxv
 BYTE   W03
 BYTE   VOL   60*PreludeFF5_mvl/mxv
 BYTE   W03
 BYTE   VOL   66*PreludeFF5_mvl/mxv
 BYTE   W03
 BYTE   VOL   67*PreludeFF5_mvl/mxv
 BYTE   W15
 BYTE   VOL   67*PreludeFF5_mvl/mxv
 BYTE   W06
 BYTE   VOL   66*PreludeFF5_mvl/mxv
 BYTE   W06
 BYTE   VOL   65*PreludeFF5_mvl/mxv
 BYTE   W03
 BYTE   VOL   64*PreludeFF5_mvl/mxv
 BYTE   W03
 BYTE   VOL   63*PreludeFF5_mvl/mxv
 BYTE   W06
 BYTE   VOL   63*PreludeFF5_mvl/mxv
 BYTE   W03
 BYTE   VOL   62*PreludeFF5_mvl/mxv
 BYTE   W03
 BYTE   VOL   61*PreludeFF5_mvl/mxv
 BYTE   W03
 BYTE   VOL   60*PreludeFF5_mvl/mxv
 BYTE   W03
 BYTE   VOL   58*PreludeFF5_mvl/mxv
 BYTE   W03
 BYTE   VOL   58*PreludeFF5_mvl/mxv
 BYTE   W03
//  #10 //025   ----------------------------------------
 BYTE   VOL   57*PreludeFF5_mvl/mxv
 BYTE   W03
 BYTE   VOL   55*PreludeFF5_mvl/mxv
 BYTE   W03
 BYTE   VOL   64*PreludeFF5_mvl/mxv
 BYTE   N48  Gn3
 BYTE   W24
 BYTE   W03
 BYTE   VOL   63*PreludeFF5_mvl/mxv
 BYTE   W06
 BYTE   VOL   62*PreludeFF5_mvl/mxv
 BYTE   W03
 BYTE   VOL   60*PreludeFF5_mvl/mxv
 BYTE   W03
 BYTE   VOL   58*PreludeFF5_mvl/mxv
 BYTE   W03
 BYTE   VOL   55*PreludeFF5_mvl/mxv
 BYTE   W03
 BYTE   VOL   52*PreludeFF5_mvl/mxv
 BYTE   W03
 BYTE   VOL   64*PreludeFF5_mvl/mxv
 BYTE   N48  An3
 BYTE   W32
 BYTE   W01
 BYTE   VOL   63*PreludeFF5_mvl/mxv
 BYTE   W06
 BYTE   VOL   62*PreludeFF5_mvl/mxv
 BYTE   W03
//  #10 //026   ----------------------------------------
 BYTE   VOL   60*PreludeFF5_mvl/mxv
 BYTE   W03
 BYTE   VOL   57*PreludeFF5_mvl/mxv
 BYTE   W03
 BYTE   VOL   64*PreludeFF5_mvl/mxv
 BYTE   N72  Bn3  v036
 BYTE   W06
 BYTE   VOL   65*PreludeFF5_mvl/mxv
 BYTE   W03
 BYTE   VOL   66*PreludeFF5_mvl/mxv
 BYTE   W09
 BYTE   VOL   67*PreludeFF5_mvl/mxv
 BYTE   W03
 BYTE   VOL   67*PreludeFF5_mvl/mxv
 BYTE   W03
 BYTE   VOL   69*PreludeFF5_mvl/mxv
 BYTE   W03
 BYTE   VOL   70*PreludeFF5_mvl/mxv
 BYTE   W03
 BYTE   VOL   72*PreludeFF5_mvl/mxv
 BYTE   W03
 BYTE   VOL   73*PreludeFF5_mvl/mxv
 BYTE   W03
 BYTE   VOL   76*PreludeFF5_mvl/mxv
 BYTE   W12
 BYTE   VOL   75*PreludeFF5_mvl/mxv
 BYTE   W03
 BYTE   VOL   74*PreludeFF5_mvl/mxv
 BYTE   W03
 BYTE   VOL   73*PreludeFF5_mvl/mxv
 BYTE   W03
 BYTE   VOL   72*PreludeFF5_mvl/mxv
 BYTE   W03
 BYTE   VOL   70*PreludeFF5_mvl/mxv
 BYTE   W03
 BYTE   VOL   68*PreludeFF5_mvl/mxv
 BYTE   W03
 BYTE   VOL   66*PreludeFF5_mvl/mxv
 BYTE   W03
 BYTE   VOL   63*PreludeFF5_mvl/mxv
 BYTE   W03
 BYTE   VOL   64*PreludeFF5_mvl/mxv
 BYTE   N23  Cn4
 BYTE   W18
//  #10 //027   ----------------------------------------
 BYTE   W06
 BYTE   N48  Dn4  v032
 BYTE   W32
 BYTE   W01
 BYTE   VOL   63*PreludeFF5_mvl/mxv
 BYTE   W06
 BYTE   VOL   61*PreludeFF5_mvl/mxv
 BYTE   W03
 BYTE   VOL   58*PreludeFF5_mvl/mxv
 BYTE   W03
 BYTE   VOL   55*PreludeFF5_mvl/mxv
 BYTE   W03
 BYTE   VOL   64*PreludeFF5_mvl/mxv
 BYTE   N44  Bn3  v028
 BYTE   W30
 BYTE   VOL   63*PreludeFF5_mvl/mxv
 BYTE   W03
 BYTE   VOL   63*PreludeFF5_mvl/mxv
 BYTE   W03
 BYTE   VOL   62*PreludeFF5_mvl/mxv
 BYTE   W03
 BYTE   VOL   59*PreludeFF5_mvl/mxv
 BYTE   W03
//  #10 //028   ----------------------------------------
 BYTE   VOL   57*PreludeFF5_mvl/mxv
 BYTE   W03
 BYTE   VOL   53*PreludeFF5_mvl/mxv
 BYTE   W03
 BYTE   VOL   42*PreludeFF5_mvl/mxv
 BYTE   N96  Cn4  v036
 BYTE   W03
 BYTE   VOL   43*PreludeFF5_mvl/mxv
 BYTE   W06
 BYTE   VOL   44*PreludeFF5_mvl/mxv
 BYTE   W03
 BYTE   VOL   45*PreludeFF5_mvl/mxv
 BYTE   W03
 BYTE   VOL   47*PreludeFF5_mvl/mxv
 BYTE   W03
 BYTE   VOL   48*PreludeFF5_mvl/mxv
 BYTE   W03
 BYTE   VOL   50*PreludeFF5_mvl/mxv
 BYTE   W03
 BYTE   VOL   53*PreludeFF5_mvl/mxv
 BYTE   W03
 BYTE   VOL   55*PreludeFF5_mvl/mxv
 BYTE   W03
 BYTE   VOL   58*PreludeFF5_mvl/mxv
 BYTE   W03
 BYTE   VOL   62*PreludeFF5_mvl/mxv
 BYTE   W03
 BYTE   VOL   66*PreludeFF5_mvl/mxv
 BYTE   W03
 BYTE   VOL   69*PreludeFF5_mvl/mxv
 BYTE   W03
 BYTE   VOL   73*PreludeFF5_mvl/mxv
 BYTE   W09
 BYTE   VOL   72*PreludeFF5_mvl/mxv
 BYTE   W06
 BYTE   VOL   71*PreludeFF5_mvl/mxv
 BYTE   W03
 BYTE   VOL   70*PreludeFF5_mvl/mxv
 BYTE   W03
 BYTE   VOL   69*PreludeFF5_mvl/mxv
 BYTE   W03
 BYTE   VOL   67*PreludeFF5_mvl/mxv
 BYTE   W03
 BYTE   VOL   66*PreludeFF5_mvl/mxv
 BYTE   W03
 BYTE   VOL   64*PreludeFF5_mvl/mxv
 BYTE   W03
 BYTE   VOL   62*PreludeFF5_mvl/mxv
 BYTE   W03
 BYTE   VOL   60*PreludeFF5_mvl/mxv
 BYTE   W03
 BYTE   VOL   58*PreludeFF5_mvl/mxv
 BYTE   W03
 BYTE   VOL   55*PreludeFF5_mvl/mxv
 BYTE   W03
 BYTE   VOL   53*PreludeFF5_mvl/mxv
 BYTE   W03
//  #10 //029   ----------------------------------------
 BYTE   VOL   49*PreludeFF5_mvl/mxv
 BYTE   W01
 BYTE   VOL   48*PreludeFF5_mvl/mxv
 BYTE   W02
 BYTE   VOL   46*PreludeFF5_mvl/mxv
 BYTE   W01
 BYTE   VOL   45*PreludeFF5_mvl/mxv
 BYTE   W02
 BYTE   VOL   64*PreludeFF5_mvl/mxv
 BYTE   N24  Ds4
 BYTE   W24
 BYTE   Dn4  v032
 BYTE   W24
 BYTE   Cn4  v028
 BYTE   W24
 BYTE   Ds4
 BYTE   W18
//  #10 //030   ----------------------------------------
 BYTE   W03
 BYTE   VOL   61*PreludeFF5_mvl/mxv
 BYTE   W01
 BYTE   VOL   57*PreludeFF5_mvl/mxv
 BYTE   W02
 BYTE   VOL   38*PreludeFF5_mvl/mxv
 BYTE   N72  Dn4  v040
 BYTE   W01
 BYTE   VOL   38*PreludeFF5_mvl/mxv
 BYTE   W03
 BYTE   VOL   38*PreludeFF5_mvl/mxv
 BYTE   W02
 BYTE   VOL   39*PreludeFF5_mvl/mxv
 BYTE   W01
 BYTE   VOL   39*PreludeFF5_mvl/mxv
 BYTE   W02
 BYTE   VOL   40*PreludeFF5_mvl/mxv
 BYTE   W01
 BYTE   VOL   41*PreludeFF5_mvl/mxv
 BYTE   W02
 BYTE   VOL   42*PreludeFF5_mvl/mxv
 BYTE   W03
 BYTE   VOL   45*PreludeFF5_mvl/mxv
 BYTE   W03
 BYTE   VOL   48*PreludeFF5_mvl/mxv
 BYTE   W03
 BYTE   VOL   52*PreludeFF5_mvl/mxv
 BYTE   W03
 BYTE   VOL   56*PreludeFF5_mvl/mxv
 BYTE   W03
 BYTE   VOL   61*PreludeFF5_mvl/mxv
 BYTE   W03
 BYTE   VOL   67*PreludeFF5_mvl/mxv
 BYTE   W03
 BYTE   VOL   72*PreludeFF5_mvl/mxv
 BYTE   W03
 BYTE   VOL   76*PreludeFF5_mvl/mxv
 BYTE   W09
 BYTE   VOL   74*PreludeFF5_mvl/mxv
 BYTE   W03
 BYTE   VOL   72*PreludeFF5_mvl/mxv
 BYTE   W03
 BYTE   VOL   71*PreludeFF5_mvl/mxv
 BYTE   W03
 BYTE   VOL   68*PreludeFF5_mvl/mxv
 BYTE   W03
 BYTE   VOL   65*PreludeFF5_mvl/mxv
 BYTE   W03
 BYTE   VOL   62*PreludeFF5_mvl/mxv
 BYTE   W03
 BYTE   VOL   58*PreludeFF5_mvl/mxv
 BYTE   W03
 BYTE   VOL   53*PreludeFF5_mvl/mxv
 BYTE   W03
 BYTE   VOL   48*PreludeFF5_mvl/mxv
 BYTE   W03
 BYTE   VOL   64*PreludeFF5_mvl/mxv
 BYTE   N24  Ds4  v032
 BYTE   W18
//  #10 //031   ----------------------------------------
 BYTE   W06
 BYTE   N48  Fn4  v036
 BYTE   W24
 BYTE   VOL   63*PreludeFF5_mvl/mxv
 BYTE   W06
 BYTE   VOL   62*PreludeFF5_mvl/mxv
 BYTE   W03
 BYTE   VOL   60*PreludeFF5_mvl/mxv
 BYTE   W03
 BYTE   VOL   58*PreludeFF5_mvl/mxv
 BYTE   W03
 BYTE   VOL   55*PreludeFF5_mvl/mxv
 BYTE   W03
 BYTE   VOL   52*PreludeFF5_mvl/mxv
 BYTE   W03
 BYTE   VOL   48*PreludeFF5_mvl/mxv
 BYTE   W03
 BYTE   VOL   64*PreludeFF5_mvl/mxv
 BYTE   N44  Dn4  v020
 BYTE   W32
 BYTE   VOL   63*PreludeFF5_mvl/mxv
 BYTE   W04
 BYTE   VOL   62*PreludeFF5_mvl/mxv
 BYTE   W02
 BYTE   VOL   60*PreludeFF5_mvl/mxv
 BYTE   W01
 BYTE   VOL   58*PreludeFF5_mvl/mxv
 BYTE   W02
 BYTE   VOL   55*PreludeFF5_mvl/mxv
 BYTE   W01
//  #10 //032   ----------------------------------------
 BYTE   GoTo
  POIN2 Label_01FDD43B
 BYTE   FINE

//**************** Track 11 (Midi-Chn.10) ****************//

PreludeFF5_011:
//  #11 //000   ----------------------------------------
 BYTE   KEYSH   PreludeFF5_key+0
 BYTE   VOICE   41
 BYTE   VOL   56*PreludeFF5_mvl/mxv
 BYTE   PAN   c_v+56
 BYTE   W96
//  #11 //001   ----------------------------------------
 BYTE   W96
//  #11 //002   ----------------------------------------
 BYTE   W96
//  #11 //003   ----------------------------------------
 BYTE   W96
//  #11 //004   ----------------------------------------
 BYTE   W96
//  #11 //005   ----------------------------------------
 BYTE   W96
//  #11 //006   ----------------------------------------
 BYTE   W96
//  #11 //007   ----------------------------------------
 BYTE   W96
//  #11 //008   ----------------------------------------
 BYTE   W96
//  #11 //009   ----------------------------------------
 BYTE   W96
//  #11 //010   ----------------------------------------
 BYTE   W96
//  #11 //011   ----------------------------------------
 BYTE   W96
//  #11 //012   ----------------------------------------
 BYTE   W96
//  #11 //013   ----------------------------------------
 BYTE   W96
//  #11 //014   ----------------------------------------
 BYTE   W96
//  #11 //015   ----------------------------------------
 BYTE   W96
//  #11 //016   ----------------------------------------
Label_4A87C0:
 BYTE   W96
//  #11 //017   ----------------------------------------
 BYTE   W96
//  #11 //018   ----------------------------------------
 BYTE   W96
//  #11 //019   ----------------------------------------
 BYTE   W03
 BYTE   VOL   43*PreludeFF5_mvl/mxv
 BYTE   W02
 BYTE   BEND   c_v+5
 BYTE   W01
 BYTE   N24  Dn3  v016
 BYTE   W03
 BYTE   VOL   50*PreludeFF5_mvl/mxv
 BYTE   W03
 BYTE   VOL   56*PreludeFF5_mvl/mxv
 BYTE   W18
 BYTE   N24  Cn3
 BYTE   W24
 BYTE   Bn2
 BYTE   W24
 BYTE   N22  Dn3  v012
 BYTE   W18
//  #11 //020   ----------------------------------------
 BYTE   W04
 BYTE   TIE  Cn3  v016
 BYTE   W28
 BYTE   W01
 BYTE   VOL   55*PreludeFF5_mvl/mxv
 BYTE   W03
 BYTE   VOL   54*PreludeFF5_mvl/mxv
 BYTE   W03
 BYTE   VOL   53*PreludeFF5_mvl/mxv
 BYTE   W03
 BYTE   VOL   53*PreludeFF5_mvl/mxv
 BYTE   W03
 BYTE   VOL   51*PreludeFF5_mvl/mxv
 BYTE   W03
 BYTE   VOL   49*PreludeFF5_mvl/mxv
 BYTE   W03
 BYTE   VOL   48*PreludeFF5_mvl/mxv
 BYTE   W03
 BYTE   VOL   45*PreludeFF5_mvl/mxv
 BYTE   W03
 BYTE   VOL   43*PreludeFF5_mvl/mxv
 BYTE   W03
 BYTE   VOL   40*PreludeFF5_mvl/mxv
 BYTE   W03
 BYTE   VOL   37*PreludeFF5_mvl/mxv
 BYTE   W03
 BYTE   VOL   34*PreludeFF5_mvl/mxv
 BYTE   W03
 BYTE   VOL   30*PreludeFF5_mvl/mxv
 BYTE   W03
 BYTE   VOL   27*PreludeFF5_mvl/mxv
 BYTE   W03
 BYTE   VOL   23*PreludeFF5_mvl/mxv
 BYTE   W03
 BYTE   VOL   19*PreludeFF5_mvl/mxv
 BYTE   W03
 BYTE   VOL   14*PreludeFF5_mvl/mxv
 BYTE   W03
 BYTE   VOL   9*PreludeFF5_mvl/mxv
 BYTE   W03
 BYTE   VOL   4*PreludeFF5_mvl/mxv
 BYTE   W03
 BYTE   VOL   2*PreludeFF5_mvl/mxv
 BYTE   W03
 BYTE   VOL   2*PreludeFF5_mvl/mxv
 BYTE   W03
//  #11 //021   ----------------------------------------
 BYTE   VOL   2*PreludeFF5_mvl/mxv
 BYTE   W03
 BYTE   VOL   2*PreludeFF5_mvl/mxv
 BYTE   W02
 BYTE   EOT
 BYTE   W06
 BYTE   W84
 BYTE   W01
//  #11 //022   ----------------------------------------
Label_4A882C:
 BYTE   W92
 BYTE   W02
 BYTE   W02
 BYTE   PEND 
//  #11 //023   ----------------------------------------
 BYTE   VOL   56*PreludeFF5_mvl/mxv
 BYTE   W06
 BYTE   N24  En3  v020
 BYTE   W24
 BYTE   Dn3  v016
 BYTE   W24
 BYTE   Cn3  v020
 BYTE   W24
 BYTE   N22  Bn2  v016
 BYTE   W18
//  #11 //024   ----------------------------------------
 BYTE   W04
 BYTE   TIE  An2  v008
 BYTE   W05
 BYTE   VOL   54*PreludeFF5_mvl/mxv
 BYTE   W09
 BYTE   VOL   53*PreludeFF5_mvl/mxv
 BYTE   W03
 BYTE   VOL   53*PreludeFF5_mvl/mxv
 BYTE   W03
 BYTE   VOL   52*PreludeFF5_mvl/mxv
 BYTE   W03
 BYTE   VOL   51*PreludeFF5_mvl/mxv
 BYTE   W03
 BYTE   VOL   50*PreludeFF5_mvl/mxv
 BYTE   W03
 BYTE   VOL   49*PreludeFF5_mvl/mxv
 BYTE   W03
 BYTE   VOL   48*PreludeFF5_mvl/mxv
 BYTE   W03
 BYTE   VOL   46*PreludeFF5_mvl/mxv
 BYTE   W03
 BYTE   VOL   44*PreludeFF5_mvl/mxv
 BYTE   W03
 BYTE   VOL   43*PreludeFF5_mvl/mxv
 BYTE   W03
 BYTE   VOL   41*PreludeFF5_mvl/mxv
 BYTE   W03
 BYTE   VOL   39*PreludeFF5_mvl/mxv
 BYTE   W03
 BYTE   VOL   36*PreludeFF5_mvl/mxv
 BYTE   W03
 BYTE   VOL   34*PreludeFF5_mvl/mxv
 BYTE   W03
 BYTE   VOL   31*PreludeFF5_mvl/mxv
 BYTE   W03
 BYTE   VOL   29*PreludeFF5_mvl/mxv
 BYTE   W03
 BYTE   VOL   25*PreludeFF5_mvl/mxv
 BYTE   W03
 BYTE   VOL   23*PreludeFF5_mvl/mxv
 BYTE   W03
 BYTE   VOL   20*PreludeFF5_mvl/mxv
 BYTE   W03
 BYTE   VOL   16*PreludeFF5_mvl/mxv
 BYTE   W03
 BYTE   VOL   13*PreludeFF5_mvl/mxv
 BYTE   W03
 BYTE   VOL   9*PreludeFF5_mvl/mxv
 BYTE   W03
 BYTE   VOL   5*PreludeFF5_mvl/mxv
 BYTE   W03
 BYTE   VOL   2*PreludeFF5_mvl/mxv
 BYTE   W03
 BYTE   VOL   2*PreludeFF5_mvl/mxv
 BYTE   W03
 BYTE   VOL   2*PreludeFF5_mvl/mxv
 BYTE   W03
//  #11 //025   ----------------------------------------
 BYTE   VOL   2*PreludeFF5_mvl/mxv
 BYTE   W03
 BYTE   VOL   2*PreludeFF5_mvl/mxv
 BYTE   W02
 BYTE   EOT
 BYTE   W02
 BYTE   W88
 BYTE   W01
//  #11 //026   ----------------------------------------
 BYTE   W96
//  #11 //027   ----------------------------------------
 BYTE   W96
//  #11 //028   ----------------------------------------
 BYTE   PATT
  POIN2 Label_4A882C
//  #11 //029   ----------------------------------------
 BYTE   VOL   56*PreludeFF5_mvl/mxv
 BYTE   W06
 BYTE   N24  Gn3  v012
 BYTE   W24
 BYTE   Fn3  v008
 BYTE   W24
 BYTE   Ds3  v012
 BYTE   W24
 BYTE   N22  Gn3  v008
 BYTE   W18
//  #11 //030   ----------------------------------------
 BYTE   W04
 BYTE   TIE  Fn3
 BYTE   W44
 BYTE   VOL   55*PreludeFF5_mvl/mxv
 BYTE   W21
 BYTE   VOL   54*PreludeFF5_mvl/mxv
 BYTE   W09
 BYTE   VOL   53*PreludeFF5_mvl/mxv
 BYTE   W09
 BYTE   VOL   53*PreludeFF5_mvl/mxv
 BYTE   W03
 BYTE   VOL   52*PreludeFF5_mvl/mxv
 BYTE   W06
//  #11 //031   ----------------------------------------
 BYTE   W03
 BYTE   VOL   51*PreludeFF5_mvl/mxv
 BYTE   W03
 BYTE   VOL   50*PreludeFF5_mvl/mxv
 BYTE   W06
 BYTE   VOL   49*PreludeFF5_mvl/mxv
 BYTE   W03
 BYTE   VOL   48*PreludeFF5_mvl/mxv
 BYTE   W03
 BYTE   VOL   48*PreludeFF5_mvl/mxv
 BYTE   W03
 BYTE   VOL   47*PreludeFF5_mvl/mxv
 BYTE   W06
 BYTE   VOL   45*PreludeFF5_mvl/mxv
 BYTE   W06
 BYTE   VOL   44*PreludeFF5_mvl/mxv
 BYTE   W03
 BYTE   VOL   43*PreludeFF5_mvl/mxv
 BYTE   W03
 BYTE   VOL   42*PreludeFF5_mvl/mxv
 BYTE   W03
 BYTE   VOL   41*PreludeFF5_mvl/mxv
 BYTE   W03
 BYTE   VOL   40*PreludeFF5_mvl/mxv
 BYTE   W03
 BYTE   VOL   39*PreludeFF5_mvl/mxv
 BYTE   W03
 BYTE   VOL   39*PreludeFF5_mvl/mxv
 BYTE   W03
 BYTE   VOL   38*PreludeFF5_mvl/mxv
 BYTE   W03
 BYTE   VOL   36*PreludeFF5_mvl/mxv
 BYTE   W03
 BYTE   VOL   35*PreludeFF5_mvl/mxv
 BYTE   W03
 BYTE   VOL   34*PreludeFF5_mvl/mxv
 BYTE   W03
 BYTE   VOL   33*PreludeFF5_mvl/mxv
 BYTE   W03
 BYTE   VOL   32*PreludeFF5_mvl/mxv
 BYTE   W03
 BYTE   VOL   30*PreludeFF5_mvl/mxv
 BYTE   W03
 BYTE   VOL   29*PreludeFF5_mvl/mxv
 BYTE   W03
 BYTE   VOL   28*PreludeFF5_mvl/mxv
 BYTE   W03
 BYTE   VOL   27*PreludeFF5_mvl/mxv
 BYTE   W03
 BYTE   VOL   25*PreludeFF5_mvl/mxv
 BYTE   W03
 BYTE   VOL   24*PreludeFF5_mvl/mxv
 BYTE   W03
 BYTE   VOL   22*PreludeFF5_mvl/mxv
 BYTE   W03
 BYTE   VOL   21*PreludeFF5_mvl/mxv
 BYTE   W03
//  #11 //032   ----------------------------------------
 BYTE   EOT
 BYTE   Fn3
 BYTE   GoTo
  POIN2 Label_4A87C0
 BYTE   FINE

//******************************************************//
	ALIGN 4

PreludeFF5:
	BYTE	11	// NumTrks
	BYTE	0	// NumBlks
	BYTE	PreludeFF5_pri	// Priority
	BYTE	PreludeFF5_rev	// Reverb.
    
	POIN2	PreludeFF5_grp
    
	POIN2	PreludeFF5_001
	POIN2	PreludeFF5_002
	POIN2	PreludeFF5_003
	POIN2	PreludeFF5_004
	POIN2	PreludeFF5_005
	POIN2	PreludeFF5_006
	POIN2	PreludeFF5_007
	POIN2	PreludeFF5_008
	POIN2	PreludeFF5_009
	POIN2	PreludeFF5_010
	POIN2	PreludeFF5_011

	
