	.include "MPlayDef.s"

	.equ	SeptetteForTheDeadPrincess_grp, voicegroup000
	.equ	SeptetteForTheDeadPrincess_pri, 0
	.equ	SeptetteForTheDeadPrincess_rev, 0
	.equ	SeptetteForTheDeadPrincess_mvl, 127
	.equ	SeptetteForTheDeadPrincess_key, 0
	.equ	SeptetteForTheDeadPrincess_tbs, 1
	.equ	SeptetteForTheDeadPrincess_exg, 0
	.equ	SeptetteForTheDeadPrincess_cmp, 1

	.section .rodata
	.global	SeptetteForTheDeadPrincess
	.align	2


@**************** Track 1 (Midi-Chn.0) ****************@

SeptetteForTheDeadPrincess_001:
@ 000   ----------------------------------------
 .byte   KEYSH , SeptetteForTheDeadPrincess_key+0
 .byte   TEMPO , 500*SeptetteForTheDeadPrincess_tbs/2
 .byte   VOL , 42*SeptetteForTheDeadPrincess_mvl/mxv
 .byte   PAN , c_v+0
 .byte   VOICE , 10
 .byte   TEMPO , 144*SeptetteForTheDeadPrincess_tbs/2
Label_0_01EF9F6C:
 .byte   N24 ,Fs2 ,v100
 .byte   N24 ,Fs3
 .byte   W24
 .byte   N24
 .byte   N24 ,Fs4
 .byte   W24
 .byte   Dn4
 .byte   N24 ,Dn5
 .byte   W24
 .byte   N12 ,Cs4
 .byte   N12 ,Cs5
 .byte   W12
 .byte   En3
 .byte   N12 ,En4
 .byte   W12
 .byte   PEND 
@ 001   ----------------------------------------
 .byte   PATT
  .word Label_0_01EF9F6C
@ 002   ----------------------------------------
 .byte   PATT
  .word Label_0_01EF9F6C
@ 003   ----------------------------------------
 .byte   N24 ,Fs2 ,v100
 .byte   N24 ,Fs3
 .byte   W24
 .byte   N24
 .byte   N24 ,Fs4
 .byte   W36
 .byte   N36 ,Dn4
 .byte   N36 ,Dn5
 .byte   W36
@ 004   ----------------------------------------
 .byte   N24 ,Dn2
 .byte   N24 ,Dn3
 .byte   W24
 .byte   Fs3
 .byte   N24 ,Fs4
 .byte   W24
 .byte   Dn4
 .byte   N24 ,Dn5
 .byte   W24
 .byte   N12 ,Cs4
 .byte   N12 ,Cs5
 .byte   W12
 .byte   En3
 .byte   N12 ,En4
 .byte   W12
@ 005   ----------------------------------------
 .byte   N24 ,En2
 .byte   N24 ,En3
 .byte   W24
 .byte   Fs3
 .byte   N24 ,Fs4
 .byte   W24
 .byte   Dn4
 .byte   N24 ,Dn5
 .byte   W24
 .byte   N12 ,Cs4
 .byte   N12 ,Cs5
 .byte   W12
 .byte   En3
 .byte   N12 ,En4
 .byte   W12
@ 006   ----------------------------------------
 .byte   PATT
  .word Label_0_01EF9F6C
@ 007   ----------------------------------------
 .byte   N48 ,Fs2 ,v100
 .byte   N48 ,Fs3
 .byte   N48 ,Fs4
 .byte   W96
@ 008   ----------------------------------------
 .byte   W96
@ 009   ----------------------------------------
 .byte   W96
@ 010   ----------------------------------------
 .byte   W96
@ 011   ----------------------------------------
 .byte   W96
@ 012   ----------------------------------------
 .byte   W96
@ 013   ----------------------------------------
 .byte   W96
@ 014   ----------------------------------------
 .byte   W96
@ 015   ----------------------------------------
 .byte   W96
@ 016   ----------------------------------------
 .byte   W96
@ 017   ----------------------------------------
 .byte   W96
@ 018   ----------------------------------------
 .byte   W96
@ 019   ----------------------------------------
 .byte   W96
@ 020   ----------------------------------------
 .byte   W96
@ 021   ----------------------------------------
 .byte   W96
@ 022   ----------------------------------------
 .byte   W96
@ 023   ----------------------------------------
 .byte   W48
Label_0_01EF9FE6:
 .byte   W48
@ 024   ----------------------------------------
 .byte   W96
@ 025   ----------------------------------------
 .byte   W96
@ 026   ----------------------------------------
 .byte   W96
@ 027   ----------------------------------------
 .byte   W96
@ 028   ----------------------------------------
 .byte   W96
@ 029   ----------------------------------------
 .byte   W96
@ 030   ----------------------------------------
 .byte   W96
@ 031   ----------------------------------------
 .byte   W96
@ 032   ----------------------------------------
 .byte   W96
@ 033   ----------------------------------------
 .byte   W96
@ 034   ----------------------------------------
 .byte   W96
@ 035   ----------------------------------------
 .byte   W96
@ 036   ----------------------------------------
 .byte   W96
@ 037   ----------------------------------------
 .byte   W96
@ 038   ----------------------------------------
 .byte   W96
@ 039   ----------------------------------------
 .byte   W96
@ 040   ----------------------------------------
 .byte   W96
@ 041   ----------------------------------------
 .byte   W96
@ 042   ----------------------------------------
 .byte   W96
@ 043   ----------------------------------------
 .byte   W96
@ 044   ----------------------------------------
 .byte   W96
@ 045   ----------------------------------------
 .byte   W96
@ 046   ----------------------------------------
 .byte   W96
@ 047   ----------------------------------------
 .byte   W96
@ 048   ----------------------------------------
 .byte   W96
@ 049   ----------------------------------------
 .byte   W96
@ 050   ----------------------------------------
 .byte   W96
@ 051   ----------------------------------------
 .byte   W96
@ 052   ----------------------------------------
 .byte   W96
@ 053   ----------------------------------------
 .byte   W96
@ 054   ----------------------------------------
 .byte   W96
@ 055   ----------------------------------------
 .byte   W96
@ 056   ----------------------------------------
 .byte   W96
@ 057   ----------------------------------------
 .byte   W96
@ 058   ----------------------------------------
 .byte   W96
@ 059   ----------------------------------------
 .byte   W96
@ 060   ----------------------------------------
 .byte   W96
@ 061   ----------------------------------------
 .byte   W96
@ 062   ----------------------------------------
 .byte   W96
@ 063   ----------------------------------------
 .byte   W96
@ 064   ----------------------------------------
 .byte   W96
@ 065   ----------------------------------------
 .byte   W96
@ 066   ----------------------------------------
 .byte   W96
@ 067   ----------------------------------------
 .byte   W96
@ 068   ----------------------------------------
 .byte   W96
@ 069   ----------------------------------------
 .byte   W96
@ 070   ----------------------------------------
 .byte   W96
@ 071   ----------------------------------------
 .byte   W96
@ 072   ----------------------------------------
 .byte   W96
@ 073   ----------------------------------------
 .byte   W96
@ 074   ----------------------------------------
 .byte   W96
@ 075   ----------------------------------------
 .byte   W96
@ 076   ----------------------------------------
 .byte   W96
@ 077   ----------------------------------------
 .byte   W96
@ 078   ----------------------------------------
 .byte   W96
@ 079   ----------------------------------------
 .byte   W96
@ 080   ----------------------------------------
 .byte   W96
@ 081   ----------------------------------------
 .byte   W96
@ 082   ----------------------------------------
 .byte   W96
@ 083   ----------------------------------------
 .byte   W96
@ 084   ----------------------------------------
 .byte   W96
@ 085   ----------------------------------------
 .byte   W96
@ 086   ----------------------------------------
 .byte   W96
@ 087   ----------------------------------------
 .byte   W96
@ 088   ----------------------------------------
 .byte   W24
 .byte   GOTO
  .word Label_0_01EF9FE6
 .byte   FINE

@**************** Track 2 (Midi-Chn.1) ****************@

SeptetteForTheDeadPrincess_002:
@ 000   ----------------------------------------
 .byte   KEYSH , SeptetteForTheDeadPrincess_key+0
 .byte   VOL , 42*SeptetteForTheDeadPrincess_mvl/mxv
 .byte   PAN , c_v+0
 .byte   VOICE , 44
 .byte   W96
@ 001   ----------------------------------------
 .byte   W96
@ 002   ----------------------------------------
 .byte   W96
@ 003   ----------------------------------------
 .byte   W96
@ 004   ----------------------------------------
 .byte   W96
@ 005   ----------------------------------------
 .byte   W96
@ 006   ----------------------------------------
 .byte   W96
@ 007   ----------------------------------------
 .byte   W60
 .byte   N12 ,Gn2 ,v112
 .byte   W12
 .byte   Cn3
 .byte   W12
 .byte   Dn3
 .byte   W12
@ 008   ----------------------------------------
 .byte   N36 ,Ds3
 .byte   W36
 .byte   N12 ,Fn3
 .byte   W12
 .byte   N36 ,Dn3
 .byte   W36
 .byte   N12 ,Ds3
 .byte   W12
@ 009   ----------------------------------------
 .byte   N60 ,Cn3
 .byte   W60
 .byte   N12 ,Gn2
 .byte   W12
 .byte   Cn3
 .byte   W12
 .byte   Dn3
 .byte   W12
@ 010   ----------------------------------------
 .byte   N36 ,Ds3
 .byte   W36
 .byte   N12 ,Fn3
 .byte   W12
 .byte   N36 ,Dn3
 .byte   W36
 .byte   N12 ,As3
 .byte   W12
@ 011   ----------------------------------------
 .byte   N60 ,Gn3
 .byte   W60
 .byte   N12
 .byte   W12
 .byte   As3
 .byte   W12
 .byte   Cn4
 .byte   W12
@ 012   ----------------------------------------
 .byte   N24 ,Fn3
 .byte   W24
 .byte   N36
 .byte   W36
 .byte   N12
 .byte   W12
 .byte   Gn3
 .byte   W12
 .byte   As3
 .byte   W12
@ 013   ----------------------------------------
 .byte   N24 ,Ds3
 .byte   W24
 .byte   N36
 .byte   W36
 .byte   N12 ,Cn3
 .byte   W12
 .byte   N12
 .byte   W12
 .byte   Dn3
 .byte   W12
@ 014   ----------------------------------------
 .byte   N36 ,Ds3
 .byte   W36
 .byte   N12 ,Fn3
 .byte   W12
 .byte   N36 ,Dn3
 .byte   W36
 .byte   N12 ,As2
 .byte   W12
@ 015   ----------------------------------------
 .byte   N48 ,Cn3
 .byte   W48
 .byte   Dn3
 .byte   W48
@ 016   ----------------------------------------
 .byte   N60 ,Ds3
 .byte   W60
 .byte   N06 ,Dn3
 .byte   W06
 .byte   Ds3
 .byte   W06
 .byte   Dn3
 .byte   W06
 .byte   Cn3
 .byte   W06
 .byte   Gn2
 .byte   W06
 .byte   Gs2
 .byte   W06
@ 017   ----------------------------------------
 .byte   N96 ,An2
 .byte   W96
@ 018   ----------------------------------------
 .byte   W96
@ 019   ----------------------------------------
 .byte   W96
@ 020   ----------------------------------------
 .byte   W96
@ 021   ----------------------------------------
 .byte   W96
@ 022   ----------------------------------------
 .byte   N60 ,Ds4 ,v100
 .byte   N60 ,Ds5
 .byte   W60
 .byte   N06 ,Dn4
 .byte   N06 ,Dn5
 .byte   W06
 .byte   Cn4
 .byte   N06 ,Cn5
 .byte   W06
 .byte   As3
 .byte   N06 ,As4
 .byte   W06
 .byte   Gs3
 .byte   N06 ,Gs4
 .byte   W06
 .byte   Gn3
 .byte   N06 ,Gn4
 .byte   W06
 .byte   Fn3
 .byte   N06 ,Fn4
 .byte   W06
@ 023   ----------------------------------------
 .byte   N48 ,An3
 .byte   N48 ,An4
 .byte   W48
Label_1_01EFA0DA:
 .byte   W12
 .byte   N12 ,Gn2 ,v112
 .byte   N12 ,Gn3
 .byte   W12
 .byte   Cn3
 .byte   N12 ,Cn4
 .byte   W12
 .byte   Dn3
 .byte   N12 ,Dn4
 .byte   W12
@ 024   ----------------------------------------
Label_1_01EFA0E9:
 .byte   N36 ,Ds3 ,v112
 .byte   N36 ,Ds4
 .byte   W36
 .byte   N12 ,Fn3
 .byte   N12 ,Fn4
 .byte   W12
 .byte   N36 ,Dn3
 .byte   N36 ,Dn4
 .byte   W36
 .byte   N12 ,Ds3
 .byte   N12 ,Ds4
 .byte   W12
 .byte   PEND 
@ 025   ----------------------------------------
Label_1_01EFA0FF:
 .byte   N60 ,Cn3 ,v112
 .byte   N60 ,Cn4
 .byte   W60
 .byte   N12 ,Gn2
 .byte   N12 ,Gn3
 .byte   W12
 .byte   Cn3
 .byte   N12 ,Cn4
 .byte   W12
 .byte   Dn3
 .byte   N12 ,Dn4
 .byte   W12
 .byte   PEND 
@ 026   ----------------------------------------
Label_1_01EFA113:
 .byte   N36 ,Ds3 ,v112
 .byte   N36 ,Ds4
 .byte   W36
 .byte   N12 ,Fn3
 .byte   N12 ,Fn4
 .byte   W12
 .byte   N36 ,Dn3
 .byte   N36 ,Dn4
 .byte   W36
 .byte   N12 ,As3
 .byte   N12 ,As4
 .byte   W12
 .byte   PEND 
@ 027   ----------------------------------------
Label_1_01EFA129:
 .byte   N60 ,Gn3 ,v112
 .byte   N60 ,Gn4
 .byte   W60
 .byte   N12 ,Gn3
 .byte   N12 ,Gn4
 .byte   W12
 .byte   As3
 .byte   N12 ,As4
 .byte   W12
 .byte   Cn4
 .byte   N12 ,Cn5
 .byte   W12
 .byte   PEND 
@ 028   ----------------------------------------
Label_1_01EFA13D:
 .byte   N24 ,Fn3 ,v112
 .byte   N24 ,Fn4
 .byte   W24
 .byte   N36 ,Fn3
 .byte   N36 ,Fn4
 .byte   W36
 .byte   N12 ,Fn3
 .byte   N12 ,Fn4
 .byte   W12
 .byte   Gn3
 .byte   N12 ,Gn4
 .byte   W12
 .byte   As3
 .byte   N12 ,As4
 .byte   W12
 .byte   PEND 
@ 029   ----------------------------------------
Label_1_01EFA156:
 .byte   N24 ,Ds3 ,v112
 .byte   N24 ,Ds4
 .byte   W24
 .byte   N36 ,Ds3
 .byte   N36 ,Ds4
 .byte   W36
 .byte   N12 ,Cn3
 .byte   N12 ,Cn4
 .byte   W12
 .byte   Cn3
 .byte   N12 ,Cn4
 .byte   W12
 .byte   Dn3
 .byte   N12 ,Dn4
 .byte   W12
 .byte   PEND 
@ 030   ----------------------------------------
Label_1_01EFA16F:
 .byte   N36 ,Ds3 ,v112
 .byte   N36 ,Ds4
 .byte   W36
 .byte   N12 ,Fn3
 .byte   N12 ,Fn4
 .byte   W12
 .byte   N36 ,Dn3
 .byte   N36 ,Dn4
 .byte   W36
 .byte   N12 ,As2
 .byte   N12 ,As3
 .byte   W12
 .byte   PEND 
@ 031   ----------------------------------------
 .byte   N48 ,Cn3
 .byte   N48 ,Cn4
 .byte   W48
 .byte   N24 ,Dn3 ,v100
 .byte   N24 ,Dn4
 .byte   W12
 .byte   N12 ,Gn2
 .byte   N12 ,Gn3
 .byte   W12
 .byte   Cn3
 .byte   N12 ,Cn4
 .byte   W12
 .byte   Dn3
 .byte   N12 ,Dn4
 .byte   W12
@ 032   ----------------------------------------
 .byte   PATT
  .word Label_1_01EFA0E9
@ 033   ----------------------------------------
 .byte   PATT
  .word Label_1_01EFA0FF
@ 034   ----------------------------------------
 .byte   PATT
  .word Label_1_01EFA113
@ 035   ----------------------------------------
 .byte   PATT
  .word Label_1_01EFA129
@ 036   ----------------------------------------
 .byte   PATT
  .word Label_1_01EFA13D
@ 037   ----------------------------------------
 .byte   PATT
  .word Label_1_01EFA156
@ 038   ----------------------------------------
 .byte   PATT
  .word Label_1_01EFA16F
@ 039   ----------------------------------------
 .byte   N48 ,Cn3 ,v112
 .byte   N48 ,Cn4
 .byte   W48
 .byte   N12 ,Dn3 ,v100
 .byte   N12 ,Dn4
 .byte   W24
 .byte   As2 ,v120
 .byte   N12 ,As3
 .byte   W12
 .byte   Cs3
 .byte   N12 ,Cs4
 .byte   W12
@ 040   ----------------------------------------
 .byte   Ds4
 .byte   W12
 .byte   Cs4
 .byte   W12
 .byte   Ds4
 .byte   W12
 .byte   Cs4
 .byte   W12
 .byte   N18 ,Ds4
 .byte   W18
 .byte   Fs4
 .byte   W18
 .byte   N12 ,Fn4
 .byte   W12
@ 041   ----------------------------------------
 .byte   Ds4
 .byte   W12
 .byte   Cs4
 .byte   W12
 .byte   Ds4
 .byte   W12
 .byte   Cs4
 .byte   W12
 .byte   N18 ,Ds4
 .byte   W18
 .byte   As4
 .byte   W18
 .byte   N12 ,Gs4
 .byte   W12
@ 042   ----------------------------------------
 .byte   N18 ,Fs4
 .byte   W18
 .byte   Fn4
 .byte   W18
 .byte   N12 ,Ds4
 .byte   W12
 .byte   N18 ,Dn4
 .byte   W18
 .byte   As3
 .byte   W18
 .byte   N12 ,Gs3
 .byte   W12
@ 043   ----------------------------------------
 .byte   N72 ,As3
 .byte   W72
 .byte   N12 ,As2
 .byte   N12 ,As3
 .byte   W12
 .byte   Cs3
 .byte   N12 ,Cs4
 .byte   W12
@ 044   ----------------------------------------
 .byte   Ds3
 .byte   N12 ,Ds4
 .byte   W12
 .byte   Cs3
 .byte   N12 ,Cs4
 .byte   W12
 .byte   Ds3
 .byte   N12 ,Ds4
 .byte   W12
 .byte   Cs3
 .byte   N12 ,Cs4
 .byte   W12
 .byte   N18 ,Ds3
 .byte   N18 ,Ds4
 .byte   W18
 .byte   Fs3
 .byte   N18 ,Fs4
 .byte   W18
 .byte   N12 ,Fn3
 .byte   N12 ,Fn4
 .byte   W12
@ 045   ----------------------------------------
 .byte   Ds3
 .byte   N12 ,Ds4
 .byte   W12
 .byte   Cs3
 .byte   N12 ,Cs4
 .byte   W12
 .byte   Ds3
 .byte   N12 ,Ds4
 .byte   W12
 .byte   Cs3
 .byte   N12 ,Cs4
 .byte   W12
 .byte   N18 ,Ds3
 .byte   N18 ,Ds4
 .byte   W18
 .byte   As3
 .byte   N18 ,As4
 .byte   W18
 .byte   N12 ,Gs3
 .byte   N12 ,Gs4
 .byte   W12
@ 046   ----------------------------------------
 .byte   N18 ,Fs3
 .byte   N18 ,Fs4
 .byte   W18
 .byte   Fn3
 .byte   N18 ,Fn4
 .byte   W18
 .byte   N12 ,Ds3
 .byte   N12 ,Ds4
 .byte   W12
 .byte   N18 ,Fn3
 .byte   N18 ,Fn4
 .byte   W18
 .byte   Fs3
 .byte   N18 ,Fs4
 .byte   W18
 .byte   N12 ,Gs3
 .byte   N12 ,Gs4
 .byte   W12
@ 047   ----------------------------------------
 .byte   N24 ,As3
 .byte   N24 ,As4
 .byte   W36
 .byte   As3
 .byte   N24 ,As4
 .byte   W36
 .byte   N12 ,As3
 .byte   N12 ,As4
 .byte   W12
 .byte   As3
 .byte   N12 ,As4
 .byte   W12
@ 048   ----------------------------------------
Label_1_01EFA27B:
 .byte   W24
 .byte   N12 ,Dn4 ,v100
 .byte   N12 ,Gn4
 .byte   W12
 .byte   As4
 .byte   N12 ,Dn5
 .byte   W12
 .byte   N36 ,An4
 .byte   N36 ,Cn5
 .byte   W36
 .byte   N12 ,Gn4
 .byte   N12 ,As4
 .byte   W12
 .byte   PEND 
@ 049   ----------------------------------------
Label_1_01EFA291:
 .byte   N18 ,Fn4 ,v100
 .byte   N18 ,An4
 .byte   W18
 .byte   Dn4
 .byte   N18 ,Fn4
 .byte   W18
 .byte   N54 ,Ds4
 .byte   N84 ,Gn4
 .byte   W54
 .byte   N30 ,Dn4
 .byte   W06
 .byte   PEND 
@ 050   ----------------------------------------
 .byte   PATT
  .word Label_1_01EFA27B
@ 051   ----------------------------------------
Label_1_01EFA2A9:
 .byte   N18 ,Fn4 ,v100
 .byte   N18 ,An4
 .byte   W18
 .byte   Cn5
 .byte   N18 ,Fn5
 .byte   W18
 .byte   N54 ,As4
 .byte   N84 ,Dn5
 .byte   W54
 .byte   N30 ,An4
 .byte   W06
 .byte   PEND 
@ 052   ----------------------------------------
 .byte   PATT
  .word Label_1_01EFA27B
@ 053   ----------------------------------------
Label_1_01EFA2C1:
 .byte   N18 ,Fn4 ,v100
 .byte   N18 ,An4
 .byte   W18
 .byte   Dn4
 .byte   N18 ,Fn4
 .byte   W18
 .byte   N12 ,Ds4
 .byte   N12 ,Gn4
 .byte   W54
 .byte   N30 ,Dn4
 .byte   W06
 .byte   PEND 
@ 054   ----------------------------------------
Label_1_01EFA2D4:
 .byte   W24
 .byte   N12 ,Dn4 ,v100
 .byte   N12 ,Gn4
 .byte   W12
 .byte   Fn4
 .byte   N12 ,An4
 .byte   W12
 .byte   Gn4
 .byte   N12 ,As4
 .byte   W12
 .byte   Fn4
 .byte   N12 ,An4
 .byte   W12
 .byte   Dn4
 .byte   N12 ,Fn4
 .byte   W12
 .byte   N60 ,Dn4
 .byte   N60 ,Gn4
 .byte   W12
 .byte   PEND 
@ 055   ----------------------------------------
 .byte   W48
 .byte   N72 ,As4
 .byte   N72 ,Dn5
 .byte   W48
@ 056   ----------------------------------------
 .byte   PATT
  .word Label_1_01EFA27B
@ 057   ----------------------------------------
 .byte   PATT
  .word Label_1_01EFA291
@ 058   ----------------------------------------
 .byte   PATT
  .word Label_1_01EFA27B
@ 059   ----------------------------------------
 .byte   PATT
  .word Label_1_01EFA2A9
@ 060   ----------------------------------------
 .byte   PATT
  .word Label_1_01EFA27B
@ 061   ----------------------------------------
 .byte   PATT
  .word Label_1_01EFA2C1
@ 062   ----------------------------------------
 .byte   PATT
  .word Label_1_01EFA2D4
@ 063   ----------------------------------------
 .byte   W48
 .byte   N96 ,As4 ,v100
 .byte   N96 ,Dn5
 .byte   W48
@ 064   ----------------------------------------
 .byte   W48
 .byte   N36 ,An4 ,v072
 .byte   N36 ,Cn5
 .byte   W36
 .byte   N12 ,Gn4
 .byte   N12 ,As4
 .byte   W12
@ 065   ----------------------------------------
Label_1_01EFA32D:
 .byte   N18 ,Fn4 ,v072
 .byte   N18 ,An4
 .byte   W18
 .byte   Dn4
 .byte   N18 ,Fn4
 .byte   W18
 .byte   N84 ,Ds4
 .byte   N84 ,Gn4
 .byte   W60
 .byte   PEND 
@ 066   ----------------------------------------
Label_1_01EFA33D:
 .byte   W24
 .byte   N12 ,Dn4 ,v072
 .byte   N12 ,Gn4
 .byte   W12
 .byte   As4
 .byte   N12 ,Dn5
 .byte   W12
 .byte   N36 ,An4
 .byte   N36 ,Cn5
 .byte   W36
 .byte   N12 ,Gn4
 .byte   N12 ,As4
 .byte   W12
 .byte   PEND 
@ 067   ----------------------------------------
Label_1_01EFA353:
 .byte   N18 ,Fn4 ,v072
 .byte   N18 ,An4
 .byte   W18
 .byte   Cn5
 .byte   N18 ,Fn5
 .byte   W18
 .byte   N96 ,As4
 .byte   N96 ,Dn5
 .byte   W60
 .byte   PEND 
@ 068   ----------------------------------------
Label_1_01EFA363:
 .byte   W24
 .byte   N12 ,Dn4 ,v072
 .byte   N12 ,Gn4
 .byte   W12
 .byte   N48 ,As4
 .byte   TIE ,Dn5
 .byte   W12
 .byte   N36 ,An4
 .byte   N36 ,Cn5
 .byte   W36
 .byte   N12 ,Gn4
 .byte   N60 ,As4
 .byte   W12
 .byte   PEND 
@ 069   ----------------------------------------
Label_1_01EFA37A:
 .byte   N18 ,Fn4 ,v072
 .byte   N18 ,An4
 .byte   W18
 .byte   Dn4
 .byte   N18 ,Fn4
 .byte   W18
 .byte   N12 ,Ds4
 .byte   N12 ,Gn4
 .byte   W12
 .byte   PEND 
 .byte   EOT
 .byte   Dn5
 .byte   W48
@ 070   ----------------------------------------
Label_1_01EFA38D:
 .byte   W24
 .byte   N12 ,Dn4 ,v072
 .byte   N12 ,Gn4
 .byte   W12
 .byte   Fn4
 .byte   N12 ,An4
 .byte   W12
 .byte   Gn4
 .byte   N12 ,As4
 .byte   W12
 .byte   Fn4
 .byte   N12 ,An4
 .byte   W12
 .byte   Dn4
 .byte   N12 ,Fn4
 .byte   W12
 .byte   N60 ,Dn4
 .byte   N60 ,Gn4
 .byte   W12
 .byte   PEND 
@ 071   ----------------------------------------
 .byte   W48
 .byte   N72 ,As4
 .byte   N72 ,Dn5
 .byte   W48
@ 072   ----------------------------------------
 .byte   PATT
  .word Label_1_01EFA33D
@ 073   ----------------------------------------
 .byte   PATT
  .word Label_1_01EFA32D
@ 074   ----------------------------------------
 .byte   PATT
  .word Label_1_01EFA33D
@ 075   ----------------------------------------
 .byte   PATT
  .word Label_1_01EFA353
@ 076   ----------------------------------------
 .byte   PATT
  .word Label_1_01EFA363
@ 077   ----------------------------------------
 .byte   PATT
  .word Label_1_01EFA37A
@ 078   ----------------------------------------
 .byte   EOT
 .byte   Dn5
 .byte   W48
@ 079   ----------------------------------------
 .byte   PATT
  .word Label_1_01EFA38D
@ 080   ----------------------------------------
 .byte   W48
 .byte   N96 ,As4 ,v072
 .byte   N96 ,Dn5
 .byte   W48
@ 081   ----------------------------------------
 .byte   W48
 .byte   N60 ,Ds3 ,v112
 .byte   N60 ,Ds4
 .byte   W48
@ 082   ----------------------------------------
 .byte   W12
 .byte   N06 ,Dn3
 .byte   N06 ,Dn4
 .byte   W06
 .byte   Ds3
 .byte   N06 ,Ds4
 .byte   W06
 .byte   Dn3
 .byte   N06 ,Dn4
 .byte   W06
 .byte   Cn3
 .byte   N06 ,Cn4
 .byte   W06
 .byte   Gn2
 .byte   N06 ,Gn3
 .byte   W06
 .byte   Gs2
 .byte   N06 ,Gs3
 .byte   W06
 .byte   N96 ,An2
 .byte   N96 ,An3
 .byte   W48
@ 083   ----------------------------------------
 .byte   W96
@ 084   ----------------------------------------
 .byte   W96
@ 085   ----------------------------------------
 .byte   W96
@ 086   ----------------------------------------
 .byte   W96
@ 087   ----------------------------------------
 .byte   W48
 .byte   N60 ,Ds4 ,v100
 .byte   N60 ,Ds5
 .byte   W48
@ 088   ----------------------------------------
 .byte   W12
 .byte   N06 ,Dn4
 .byte   N06 ,Dn5
 .byte   W06
 .byte   Cn4
 .byte   N06 ,Cn5
 .byte   W06
 .byte   As3
 .byte   N06 ,As4
 .byte   W06
 .byte   Gs3
 .byte   N06 ,Gs4
 .byte   W06
 .byte   Gn3
 .byte   N06 ,Gn4
 .byte   W06
 .byte   Fn3
 .byte   N06 ,Fn4
 .byte   W06
 .byte   N48 ,An3
 .byte   N48 ,An4
 .byte   W48
@ 089   ----------------------------------------
 .byte   W24
 .byte   GOTO
  .word Label_1_01EFA0DA
 .byte   FINE

@**************** Track 3 (Midi-Chn.2) ****************@

SeptetteForTheDeadPrincess_003:
@ 000   ----------------------------------------
 .byte   KEYSH , SeptetteForTheDeadPrincess_key+0
 .byte   VOL , 42*SeptetteForTheDeadPrincess_mvl/mxv
 .byte   PAN , c_v+0
 .byte   VOICE , 1
Label_2_01EFA440:
 .byte   N36 ,Bn1 ,v100
 .byte   N36 ,Fs2
 .byte   W36
 .byte   Bn1
 .byte   N36 ,Fs2
 .byte   W36
 .byte   N24 ,Cn2
 .byte   N24 ,Gn2
 .byte   W24
 .byte   PEND 
@ 001   ----------------------------------------
 .byte   PATT
  .word Label_2_01EFA440
@ 002   ----------------------------------------
 .byte   PATT
  .word Label_2_01EFA440
@ 003   ----------------------------------------
 .byte   PATT
  .word Label_2_01EFA440
@ 004   ----------------------------------------
 .byte   N36 ,Gn1 ,v100
 .byte   N36 ,Dn2
 .byte   W36
 .byte   Gn1
 .byte   N36 ,Dn2
 .byte   W36
 .byte   N24 ,Gn1
 .byte   N24 ,Dn2
 .byte   W24
@ 005   ----------------------------------------
 .byte   N36 ,An1
 .byte   N36 ,En2
 .byte   W36
 .byte   An1
 .byte   N36 ,En2
 .byte   W36
 .byte   N24 ,An1
 .byte   N24 ,En2
 .byte   W24
@ 006   ----------------------------------------
 .byte   PATT
  .word Label_2_01EFA440
@ 007   ----------------------------------------
 .byte   N48 ,Bn1 ,v100
 .byte   N48 ,Fs2
 .byte   W96
@ 008   ----------------------------------------
 .byte   VOICE , 1
 .byte   N12 ,Gn3 ,v120
 .byte   W12
 .byte   N06 ,Ds4
 .byte   W06
 .byte   N12 ,Dn4
 .byte   W12
 .byte   N06 ,Fn3
 .byte   W06
 .byte   Gn3
 .byte   W06
 .byte   Fn3
 .byte   W06
 .byte   N12 ,Gn3
 .byte   W12
 .byte   N06 ,Ds4
 .byte   W06
 .byte   N12 ,Dn4
 .byte   W12
 .byte   N06 ,Fn3
 .byte   W06
 .byte   Ds3
 .byte   W06
 .byte   Fn3
 .byte   W06
@ 009   ----------------------------------------
 .byte   N12 ,Gn3
 .byte   W12
 .byte   N06 ,Ds4
 .byte   W06
 .byte   N12 ,Dn4
 .byte   W12
 .byte   Fn4
 .byte   W12
 .byte   N06 ,Gn4
 .byte   W06
 .byte   N12 ,Dn5
 .byte   W12
 .byte   N06 ,Gn4
 .byte   W06
 .byte   N12 ,Fn4
 .byte   W12
 .byte   N06 ,Gn4
 .byte   W06
 .byte   N12 ,Ds4
 .byte   W12
@ 010   ----------------------------------------
 .byte   Gn3
 .byte   W12
 .byte   N06 ,Ds4
 .byte   W06
 .byte   N12 ,Dn4
 .byte   W12
 .byte   N06 ,Fn3
 .byte   W06
 .byte   Gn3
 .byte   W06
 .byte   Fn3
 .byte   W06
 .byte   N12 ,Gn3
 .byte   W12
 .byte   N06 ,Ds4
 .byte   W06
 .byte   N12 ,Dn4
 .byte   W12
 .byte   N06 ,Fn3
 .byte   W06
 .byte   Ds3
 .byte   W06
 .byte   Fn3
 .byte   W06
@ 011   ----------------------------------------
 .byte   W12
 .byte   Ds4
 .byte   W06
 .byte   N12 ,Dn4
 .byte   W12
 .byte   As3
 .byte   W12
 .byte   N06 ,Cn4
 .byte   W18
 .byte   Ds4
 .byte   W06
 .byte   Dn4
 .byte   W06
 .byte   N12 ,As3
 .byte   W12
 .byte   N06 ,Ds4
 .byte   W06
 .byte   Dn4
 .byte   W06
@ 012   ----------------------------------------
 .byte   N12 ,Gn3
 .byte   W12
 .byte   N06 ,Cn4
 .byte   W06
 .byte   Gn3
 .byte   W06
 .byte   As3
 .byte   W06
 .byte   N12 ,Cn4
 .byte   W12
 .byte   N06 ,Ds4
 .byte   W06
 .byte   N12 ,Fn4
 .byte   W12
 .byte   N06 ,Cn4
 .byte   W06
 .byte   As3
 .byte   W06
 .byte   Gn3
 .byte   W06
 .byte   Ds4
 .byte   W06
 .byte   Fn4
 .byte   W06
 .byte   Cn4
 .byte   W06
@ 013   ----------------------------------------
 .byte   W12
 .byte   As3
 .byte   W06
 .byte   Gs3
 .byte   W06
 .byte   As3
 .byte   W06
 .byte   N12 ,Gs3
 .byte   W12
 .byte   N06 ,Ds3
 .byte   W06
 .byte   N12
 .byte   W12
 .byte   N06 ,Ds4
 .byte   W06
 .byte   N12 ,Fn4
 .byte   W12
 .byte   N06 ,Gn4
 .byte   W06
 .byte   As4
 .byte   W06
 .byte   Gn4
 .byte   W06
@ 014   ----------------------------------------
 .byte   N12 ,Fn4
 .byte   W12
 .byte   N06 ,Cn4
 .byte   W06
 .byte   Gs3
 .byte   W06
 .byte   Fn3
 .byte   W06
 .byte   Fn4
 .byte   W06
 .byte   N12 ,Cn4
 .byte   W12
 .byte   Gn4
 .byte   W12
 .byte   N06 ,Dn4
 .byte   W06
 .byte   Bn3
 .byte   W06
 .byte   N06
 .byte   W06
 .byte   Cn4
 .byte   W06
 .byte   N12 ,Dn4
 .byte   W12
@ 015   ----------------------------------------
 .byte   Gs4
 .byte   W12
 .byte   N06 ,Ds4
 .byte   W06
 .byte   Cn4
 .byte   W06
 .byte   Gs3
 .byte   W06
 .byte   Ds4
 .byte   W06
 .byte   N12 ,Gn4
 .byte   W12
 .byte   As4
 .byte   W12
 .byte   N06 ,Fn4
 .byte   W06
 .byte   Dn4
 .byte   W06
 .byte   Ds4
 .byte   W06
 .byte   Dn4
 .byte   W06
 .byte   N12 ,As3
 .byte   W12
@ 016   ----------------------------------------
Label_2_01EFA572:
 .byte   N06 ,Cn3 ,v120
 .byte   W06
 .byte   Dn3
 .byte   W06
 .byte   Ds3
 .byte   W06
 .byte   Gn3
 .byte   W06
 .byte   Cn4
 .byte   W06
 .byte   Dn4
 .byte   W06
 .byte   Ds4
 .byte   W06
 .byte   Gn4
 .byte   W06
 .byte   Cn3
 .byte   W06
 .byte   Dn3
 .byte   W06
 .byte   Ds3
 .byte   W06
 .byte   Gs3
 .byte   W06
 .byte   Cn4
 .byte   W06
 .byte   Dn4
 .byte   W06
 .byte   Ds4
 .byte   W06
 .byte   Gs4
 .byte   W06
 .byte   PEND 
@ 017   ----------------------------------------
Label_2_01EFA595:
 .byte   N06 ,Cn3 ,v120
 .byte   W06
 .byte   Dn3
 .byte   W06
 .byte   Ds3
 .byte   W06
 .byte   An3
 .byte   W06
 .byte   Cn4
 .byte   W06
 .byte   Dn4
 .byte   W06
 .byte   Ds4
 .byte   W06
 .byte   An4
 .byte   W06
 .byte   Cn3
 .byte   W06
 .byte   Dn3
 .byte   W06
 .byte   Ds3
 .byte   W06
 .byte   Gs3
 .byte   W06
 .byte   Cn4
 .byte   W06
 .byte   Dn4
 .byte   W06
 .byte   Ds4
 .byte   W06
 .byte   Gs4
 .byte   W06
 .byte   PEND 
@ 018   ----------------------------------------
 .byte   PATT
  .word Label_2_01EFA572
@ 019   ----------------------------------------
 .byte   PATT
  .word Label_2_01EFA595
@ 020   ----------------------------------------
 .byte   PATT
  .word Label_2_01EFA572
@ 021   ----------------------------------------
 .byte   PATT
  .word Label_2_01EFA595
@ 022   ----------------------------------------
 .byte   PATT
  .word Label_2_01EFA572
@ 023   ----------------------------------------
 .byte   W48
Label_2_01EFA5D2:
 .byte   W48
@ 024   ----------------------------------------
Label_2_01EFA5D3:
 .byte   N12 ,Gn3 ,v127
 .byte   W12
 .byte   N06 ,Ds4
 .byte   W06
 .byte   N12 ,Dn4
 .byte   W12
 .byte   N06 ,Fn3
 .byte   W06
 .byte   Gn3
 .byte   W06
 .byte   Fn3
 .byte   W06
 .byte   N12 ,Gn3
 .byte   W12
 .byte   N06 ,Ds4
 .byte   W06
 .byte   N12 ,Dn4
 .byte   W12
 .byte   N06 ,Fn3
 .byte   W06
 .byte   Ds3
 .byte   W06
 .byte   Fn3
 .byte   W06
 .byte   PEND 
@ 025   ----------------------------------------
Label_2_01EFA5F5:
 .byte   N12 ,Gn3 ,v127
 .byte   W12
 .byte   N06 ,Ds4
 .byte   W06
 .byte   N12 ,Dn4
 .byte   W12
 .byte   Fn4
 .byte   W12
 .byte   N06 ,Gn4
 .byte   W06
 .byte   N12 ,Dn5
 .byte   W12
 .byte   N06 ,Gn4
 .byte   W06
 .byte   N12 ,Fn4
 .byte   W12
 .byte   N06 ,Gn4
 .byte   W06
 .byte   N12 ,Ds4
 .byte   W12
 .byte   PEND 
@ 026   ----------------------------------------
 .byte   PATT
  .word Label_2_01EFA5D3
@ 027   ----------------------------------------
Label_2_01EFA619:
 .byte   W12
 .byte   N06 ,Ds4 ,v127
 .byte   W06
 .byte   N12 ,Dn4
 .byte   W12
 .byte   As3
 .byte   W12
 .byte   N06 ,Cn4
 .byte   W18
 .byte   Ds4
 .byte   W06
 .byte   Dn4
 .byte   W06
 .byte   N12 ,As3
 .byte   W12
 .byte   N06 ,Ds4
 .byte   W06
 .byte   Dn4
 .byte   W06
 .byte   PEND 
@ 028   ----------------------------------------
Label_2_01EFA633:
 .byte   N12 ,Gn3 ,v127
 .byte   W12
 .byte   N06 ,Cn4
 .byte   W06
 .byte   Gn3
 .byte   W06
 .byte   As3
 .byte   W06
 .byte   N12 ,Cn4
 .byte   W12
 .byte   N06 ,Ds4
 .byte   W06
 .byte   N12 ,Fn4
 .byte   W12
 .byte   N06 ,Cn4
 .byte   W06
 .byte   As3
 .byte   W06
 .byte   Gn3
 .byte   W06
 .byte   Ds4
 .byte   W06
 .byte   Fn4
 .byte   W06
 .byte   Cn4
 .byte   W06
 .byte   PEND 
@ 029   ----------------------------------------
Label_2_01EFA655:
 .byte   W12
 .byte   N06 ,As3 ,v127
 .byte   W06
 .byte   Gs3
 .byte   W06
 .byte   As3
 .byte   W06
 .byte   N12 ,Gs3
 .byte   W12
 .byte   N06 ,Ds3
 .byte   W06
 .byte   N12
 .byte   W12
 .byte   N06 ,Ds4
 .byte   W06
 .byte   N12 ,Fn4
 .byte   W12
 .byte   N06 ,Gn4
 .byte   W06
 .byte   As4
 .byte   W06
 .byte   Gn4
 .byte   W06
 .byte   PEND 
@ 030   ----------------------------------------
Label_2_01EFA674:
 .byte   N12 ,Fn4 ,v127
 .byte   W12
 .byte   N06 ,Cn4
 .byte   W06
 .byte   Gs3
 .byte   W06
 .byte   Fn3
 .byte   W06
 .byte   Fn4
 .byte   W06
 .byte   N12 ,Cn4
 .byte   W12
 .byte   Gn4
 .byte   W12
 .byte   N06 ,Dn4
 .byte   W06
 .byte   Bn3
 .byte   W06
 .byte   N06
 .byte   W06
 .byte   Cn4
 .byte   W06
 .byte   N12 ,Dn4
 .byte   W12
 .byte   PEND 
@ 031   ----------------------------------------
Label_2_01EFA693:
 .byte   N12 ,Gs4 ,v127
 .byte   W12
 .byte   N06 ,Ds4
 .byte   W06
 .byte   Cn4
 .byte   W06
 .byte   Gs3
 .byte   W06
 .byte   Ds4
 .byte   W06
 .byte   N12 ,Gn4
 .byte   W12
 .byte   As4
 .byte   W12
 .byte   N06 ,Fn4
 .byte   W06
 .byte   Dn4
 .byte   W06
 .byte   Ds4
 .byte   W06
 .byte   Dn4
 .byte   W06
 .byte   N12 ,As3
 .byte   W12
 .byte   PEND 
@ 032   ----------------------------------------
 .byte   PATT
  .word Label_2_01EFA5D3
@ 033   ----------------------------------------
 .byte   PATT
  .word Label_2_01EFA5F5
@ 034   ----------------------------------------
 .byte   PATT
  .word Label_2_01EFA5D3
@ 035   ----------------------------------------
 .byte   PATT
  .word Label_2_01EFA619
@ 036   ----------------------------------------
 .byte   PATT
  .word Label_2_01EFA633
@ 037   ----------------------------------------
 .byte   PATT
  .word Label_2_01EFA655
@ 038   ----------------------------------------
 .byte   PATT
  .word Label_2_01EFA674
@ 039   ----------------------------------------
 .byte   PATT
  .word Label_2_01EFA693
@ 040   ----------------------------------------
 .byte   W96
@ 041   ----------------------------------------
 .byte   W96
@ 042   ----------------------------------------
 .byte   W96
@ 043   ----------------------------------------
 .byte   W96
@ 044   ----------------------------------------
 .byte   W96
@ 045   ----------------------------------------
 .byte   W96
@ 046   ----------------------------------------
 .byte   W96
@ 047   ----------------------------------------
 .byte   W96
@ 048   ----------------------------------------
 .byte   W96
@ 049   ----------------------------------------
 .byte   W96
@ 050   ----------------------------------------
 .byte   W96
@ 051   ----------------------------------------
 .byte   W96
@ 052   ----------------------------------------
 .byte   W96
@ 053   ----------------------------------------
 .byte   W96
@ 054   ----------------------------------------
 .byte   W96
@ 055   ----------------------------------------
 .byte   W96
@ 056   ----------------------------------------
 .byte   W96
@ 057   ----------------------------------------
 .byte   W96
@ 058   ----------------------------------------
 .byte   W96
@ 059   ----------------------------------------
 .byte   W96
@ 060   ----------------------------------------
 .byte   W96
@ 061   ----------------------------------------
 .byte   W96
@ 062   ----------------------------------------
 .byte   W96
@ 063   ----------------------------------------
 .byte   W96
@ 064   ----------------------------------------
 .byte   N06 ,Gn4 ,v127
 .byte   W06
 .byte   As4
 .byte   W06
 .byte   Cn5
 .byte   W06
 .byte   Dn5
 .byte   W06
 .byte   N12 ,An4
 .byte   W12
 .byte   N06 ,Fn4
 .byte   W06
 .byte   Gn4
 .byte   W18
 .byte   N12 ,Fn4
 .byte   W12
 .byte   Gn4
 .byte   W12
 .byte   An4
 .byte   W12
@ 065   ----------------------------------------
 .byte   N06 ,Gn4
 .byte   W06
 .byte   Cn5
 .byte   W06
 .byte   As4
 .byte   W06
 .byte   Cn5
 .byte   W06
 .byte   An4
 .byte   W06
 .byte   Cn5
 .byte   W06
 .byte   Gn4
 .byte   W06
 .byte   As4
 .byte   W06
 .byte   N09 ,Gn4
 .byte   W08
 .byte   N01 ,Dn5
 .byte   W10
 .byte   N06 ,Cn5
 .byte   W06
 .byte   N09 ,Gn4
 .byte   W08
 .byte   N01 ,Dn5
 .byte   W10
 .byte   N06 ,Cn5
 .byte   W06
@ 066   ----------------------------------------
 .byte   An4
 .byte   W06
 .byte   As4
 .byte   W06
 .byte   Gn4
 .byte   W06
 .byte   An4
 .byte   W06
 .byte   Fn4
 .byte   W06
 .byte   Gn4
 .byte   W06
 .byte   Dn4
 .byte   W06
 .byte   Fn4
 .byte   W06
 .byte   N03 ,Dn4
 .byte   W02
 .byte   N01 ,Gn4
 .byte   W03
 .byte   N03 ,Dn4
 .byte   W03
 .byte   N04 ,Gn4
 .byte   W04
 .byte   N03 ,Dn4
 .byte   W03
 .byte   N02 ,Cn4
 .byte   W02
 .byte   N04 ,Dn4
 .byte   W04
 .byte   N03 ,Fn4
 .byte   W03
 .byte   N06 ,Gn4
 .byte   W06
 .byte   Cn4
 .byte   W06
 .byte   Dn4
 .byte   W06
 .byte   As3
 .byte   W06
@ 067   ----------------------------------------
 .byte   N09 ,Cn4
 .byte   W09
 .byte   An3
 .byte   W09
 .byte   N06 ,As3
 .byte   W06
 .byte   N09 ,Gn3
 .byte   W09
 .byte   An3
 .byte   W09
 .byte   N06 ,Fn3
 .byte   W06
 .byte   Gn3
 .byte   W06
 .byte   Fn3
 .byte   W06
 .byte   Dn3
 .byte   W06
 .byte   Fn3
 .byte   W06
 .byte   N12 ,Gn3
 .byte   W12
 .byte   Dn4
 .byte   W12
@ 068   ----------------------------------------
 .byte   N06 ,Cn4
 .byte   W06
 .byte   As3
 .byte   W06
 .byte   An3
 .byte   W06
 .byte   Fn3
 .byte   W06
 .byte   Gn3
 .byte   W06
 .byte   N06
 .byte   W06
 .byte   N06
 .byte   W06
 .byte   An3
 .byte   W06
 .byte   Gn3
 .byte   W06
 .byte   An3
 .byte   W06
 .byte   As3
 .byte   W06
 .byte   Cn4
 .byte   W06
 .byte   Dn4
 .byte   W06
 .byte   Fn4
 .byte   W06
 .byte   Gn4
 .byte   W06
 .byte   Dn4
 .byte   W06
@ 069   ----------------------------------------
 .byte   An4
 .byte   W06
 .byte   Dn4
 .byte   W06
 .byte   As4
 .byte   W06
 .byte   Cn5
 .byte   W06
 .byte   N03 ,An4
 .byte   W03
 .byte   As4
 .byte   W03
 .byte   Gn4
 .byte   W03
 .byte   An4
 .byte   W03
 .byte   N06 ,Fn4
 .byte   W06
 .byte   En4
 .byte   W06
 .byte   Cn4
 .byte   W06
 .byte   N05 ,As3
 .byte   W05
 .byte   N03 ,En3
 .byte   W03
 .byte   Gn3
 .byte   W03
 .byte   An3
 .byte   W03
 .byte   N04 ,As3
 .byte   W04
 .byte   N06 ,Cn4
 .byte   W06
 .byte   As3
 .byte   W06
 .byte   Cn4
 .byte   W06
 .byte   En4
 .byte   W06
@ 070   ----------------------------------------
 .byte   Gn4
 .byte   W06
 .byte   An4
 .byte   W06
 .byte   As4
 .byte   W06
 .byte   Cn5
 .byte   W06
 .byte   As4
 .byte   W06
 .byte   An4
 .byte   W06
 .byte   Gn4
 .byte   W06
 .byte   Fn4
 .byte   W06
 .byte   Gn4
 .byte   W06
 .byte   Fn4
 .byte   W06
 .byte   Dn4
 .byte   W06
 .byte   Gn4
 .byte   W06
 .byte   Fn4
 .byte   W06
 .byte   Dn4
 .byte   W06
 .byte   N12 ,Gn4
 .byte   W12
@ 071   ----------------------------------------
 .byte   N06 ,Dn5
 .byte   W06
 .byte   Cn5
 .byte   W06
 .byte   As4
 .byte   W06
 .byte   Dn5
 .byte   W06
 .byte   N12 ,Cn5
 .byte   W12
 .byte   An4
 .byte   W12
 .byte   N06 ,Dn4
 .byte   W06
 .byte   As3
 .byte   W06
 .byte   An3
 .byte   W06
 .byte   Gn3
 .byte   W06
 .byte   Dn3
 .byte   W06
 .byte   As2
 .byte   W06
 .byte   An2
 .byte   W06
 .byte   Gn2
 .byte   W06
@ 072   ----------------------------------------
 .byte   Dn2
 .byte   W06
 .byte   Gn2
 .byte   W06
 .byte   An2
 .byte   W06
 .byte   As2
 .byte   W06
 .byte   Dn3
 .byte   W06
 .byte   Gn3
 .byte   W06
 .byte   An3
 .byte   W06
 .byte   As3
 .byte   W18
 .byte   N12 ,Fn4
 .byte   N12 ,Fn5
 .byte   W12
 .byte   Gn4
 .byte   N12 ,Gn5
 .byte   W12
 .byte   An4
 .byte   N12 ,An5
 .byte   W12
@ 073   ----------------------------------------
 .byte   N06 ,Gn4
 .byte   N06 ,Gn5
 .byte   W06
 .byte   Cn5
 .byte   N06 ,Cn6
 .byte   W06
 .byte   As4
 .byte   N06 ,As5
 .byte   W06
 .byte   Cn5
 .byte   N06 ,Cn6
 .byte   W06
 .byte   An4
 .byte   N06 ,An5
 .byte   W06
 .byte   Cn5
 .byte   N06 ,Cn6
 .byte   W06
 .byte   Gn4
 .byte   N06 ,Gn5
 .byte   W06
 .byte   As4
 .byte   N06 ,As5
 .byte   W06
 .byte   N09 ,Gn4
 .byte   N09 ,Gn5
 .byte   W08
 .byte   N01 ,Dn5
 .byte   N09 ,Dn6
 .byte   W10
 .byte   N06 ,Cn5
 .byte   N06 ,Cn6
 .byte   W06
 .byte   N09 ,Gn4
 .byte   N09 ,Gn5
 .byte   W08
 .byte   N01 ,Dn5
 .byte   N09 ,Dn6
 .byte   W10
 .byte   N06 ,Cn5
 .byte   N06 ,Cn6
 .byte   W06
@ 074   ----------------------------------------
 .byte   An4
 .byte   N06 ,An5
 .byte   W06
 .byte   As4
 .byte   N06 ,As5
 .byte   W06
 .byte   Gn4
 .byte   N06 ,Gn5
 .byte   W06
 .byte   An4
 .byte   N06 ,An5
 .byte   W06
 .byte   Fn4
 .byte   N06 ,Fn5
 .byte   W06
 .byte   Gn4
 .byte   N06 ,Gn5
 .byte   W06
 .byte   Dn4
 .byte   N06 ,Dn5
 .byte   W06
 .byte   Fn4
 .byte   N06 ,Fn5
 .byte   W06
 .byte   N03 ,Dn4
 .byte   N03 ,Dn5
 .byte   W02
 .byte   N01 ,Gn4
 .byte   N03 ,Gn5
 .byte   W03
 .byte   Dn4
 .byte   N03 ,Dn5
 .byte   W03
 .byte   Gn4
 .byte   N03 ,Gn5
 .byte   W04
 .byte   Dn4
 .byte   N03 ,Dn5
 .byte   W03
 .byte   N02 ,Cn4
 .byte   N03 ,Cn5
 .byte   W02
 .byte   N01 ,Dn4
 .byte   N03 ,Dn5
 .byte   W04
 .byte   Fn4
 .byte   N03 ,Fn5
 .byte   W03
 .byte   N06 ,Gn4
 .byte   N06 ,Gn5
 .byte   W06
 .byte   Cn4
 .byte   N06 ,Cn5
 .byte   W06
 .byte   Dn4
 .byte   N06 ,Dn5
 .byte   W06
 .byte   As3
 .byte   N06 ,As4
 .byte   W06
@ 075   ----------------------------------------
 .byte   N09 ,Cn4
 .byte   N09 ,Cn5
 .byte   W09
 .byte   An3
 .byte   N09 ,An4
 .byte   W09
 .byte   N06 ,As3
 .byte   N06 ,As4
 .byte   W06
 .byte   N09 ,Gn3
 .byte   N09 ,Gn4
 .byte   W09
 .byte   An3
 .byte   N09 ,An4
 .byte   W09
 .byte   N06 ,Fn3
 .byte   N06 ,Fn4
 .byte   W06
 .byte   Gn3
 .byte   N06 ,Gn4
 .byte   W06
 .byte   Fn3
 .byte   N06 ,Fn4
 .byte   W06
 .byte   Dn3
 .byte   N06 ,Dn4
 .byte   W06
 .byte   Fn3
 .byte   N06 ,Fn4
 .byte   W06
 .byte   Gn3
 .byte   N06 ,Gn4
 .byte   W12
 .byte   Dn4
 .byte   N06 ,Dn5
 .byte   W12
@ 076   ----------------------------------------
 .byte   Cn4
 .byte   N06 ,Cn5
 .byte   W06
 .byte   As3
 .byte   N06 ,As4
 .byte   W06
 .byte   An3
 .byte   N06 ,An4
 .byte   W06
 .byte   Fn3
 .byte   N06 ,Fn4
 .byte   W06
 .byte   Gn3
 .byte   N06 ,Gn4
 .byte   W06
 .byte   Gn3
 .byte   N06 ,Gn4
 .byte   W06
 .byte   Gn3
 .byte   N06 ,Gn4
 .byte   W06
 .byte   An3
 .byte   N06 ,An4
 .byte   W06
 .byte   Gn3
 .byte   N06 ,Gn4
 .byte   W06
 .byte   An3
 .byte   N06 ,An4
 .byte   W06
 .byte   As3
 .byte   N06 ,As4
 .byte   W06
 .byte   Cn4
 .byte   N06 ,Cn5
 .byte   W06
 .byte   Dn4
 .byte   N06 ,Dn5
 .byte   W06
 .byte   Fn4
 .byte   N06 ,Fn5
 .byte   W06
 .byte   Gn4
 .byte   N06 ,Gn5
 .byte   W06
 .byte   Dn4
 .byte   N06 ,Dn5
 .byte   W06
@ 077   ----------------------------------------
 .byte   An4
 .byte   N06 ,An5
 .byte   W06
 .byte   Dn4
 .byte   N06 ,Dn5
 .byte   W06
 .byte   As4
 .byte   N06 ,As5
 .byte   W06
 .byte   Cn5
 .byte   N06 ,Cn6
 .byte   W06
 .byte   N03 ,An4
 .byte   N03 ,An5
 .byte   W03
 .byte   As4
 .byte   N03 ,As5
 .byte   W03
 .byte   Gn4
 .byte   N03 ,Gn5
 .byte   W03
 .byte   An4
 .byte   N03 ,An5
 .byte   W03
 .byte   N06 ,Fn4
 .byte   N06 ,Fn5
 .byte   W06
 .byte   En4
 .byte   N06 ,En5
 .byte   W06
 .byte   Cn4
 .byte   N06 ,Cn5
 .byte   W06
 .byte   N05 ,As3
 .byte   N06 ,As4
 .byte   W05
 .byte   N03 ,En3
 .byte   N03 ,En4
 .byte   W03
 .byte   Gn3
 .byte   N03 ,Gn4
 .byte   W03
 .byte   An3
 .byte   N03 ,An4
 .byte   W03
 .byte   As3
 .byte   N03 ,As4
 .byte   W04
 .byte   N06 ,Cn4
 .byte   N06 ,Cn5
 .byte   W06
 .byte   As3
 .byte   N06 ,As4
 .byte   W06
 .byte   Cn4
 .byte   N06 ,Cn5
 .byte   W06
 .byte   En4
 .byte   N06 ,En5
 .byte   W06
@ 078   ----------------------------------------
 .byte   Gn4
 .byte   N06 ,Gn5
 .byte   W06
 .byte   An4
 .byte   N06 ,An5
 .byte   W06
 .byte   As4
 .byte   N06 ,As5
 .byte   W06
 .byte   Cn5
 .byte   N06 ,Cn6
 .byte   W06
 .byte   As4
 .byte   N06 ,As5
 .byte   W06
 .byte   An4
 .byte   N06 ,An5
 .byte   W06
 .byte   Gn4
 .byte   N06 ,Gn5
 .byte   W06
 .byte   Fn4
 .byte   N06 ,Fn5
 .byte   W06
 .byte   Gn4
 .byte   N06 ,Gn5
 .byte   W06
 .byte   Fn4
 .byte   N06 ,Fn5
 .byte   W06
 .byte   Dn4
 .byte   N06 ,Dn5
 .byte   W06
 .byte   Gn4
 .byte   N06 ,Gn5
 .byte   W06
 .byte   Fn4
 .byte   N06 ,Fn5
 .byte   W06
 .byte   Dn4
 .byte   N06 ,Dn5
 .byte   W06
 .byte   N12 ,Gn4
 .byte   N12 ,Gn5
 .byte   W12
@ 079   ----------------------------------------
 .byte   N06 ,Dn5
 .byte   N06 ,Dn6
 .byte   W06
 .byte   Cn5
 .byte   N06 ,Cn6
 .byte   W06
 .byte   As4
 .byte   N06 ,As5
 .byte   W06
 .byte   Dn5
 .byte   N06 ,Dn6
 .byte   W06
 .byte   N12 ,Cn5
 .byte   N12 ,Cn6
 .byte   W12
 .byte   An4
 .byte   N12 ,An5
 .byte   W12
 .byte   N06 ,Gn4
 .byte   N06 ,Gn5
 .byte   W06
 .byte   An4
 .byte   N06 ,An5
 .byte   W06
 .byte   As4
 .byte   N06 ,As5
 .byte   W06
 .byte   Cn5
 .byte   N06 ,Cn6
 .byte   W06
 .byte   Dn5
 .byte   N06 ,Dn6
 .byte   W06
 .byte   An4
 .byte   N06 ,An5
 .byte   W06
 .byte   As4
 .byte   N06 ,As5
 .byte   W06
 .byte   Fn5
 .byte   N06 ,Fn6
 .byte   W06
@ 080   ----------------------------------------
 .byte   Dn5
 .byte   N06 ,Dn6
 .byte   W06
 .byte   Fn5
 .byte   N06 ,Fn6
 .byte   W06
 .byte   Dn5
 .byte   N06 ,Dn6
 .byte   W06
 .byte   Fn5
 .byte   N06 ,Fn6
 .byte   W06
 .byte   Gn5
 .byte   N06 ,Gn6
 .byte   W06
 .byte   Fn5
 .byte   N06 ,Fn6
 .byte   W06
 .byte   Cn5
 .byte   N06 ,Cn6
 .byte   W06
 .byte   Dn5
 .byte   N06 ,Dn6
 .byte   W06
 .byte   Cn3 ,v120
 .byte   W06
 .byte   Dn3
 .byte   W06
 .byte   Ds3
 .byte   W06
 .byte   Gn2
 .byte   N06 ,Gn3
 .byte   W06
 .byte   Cn4
 .byte   W06
 .byte   Dn4
 .byte   W06
 .byte   Ds4
 .byte   W06
 .byte   Gn4
 .byte   W06
@ 081   ----------------------------------------
Label_2_01EFAA2E:
 .byte   N06 ,Cn3 ,v120
 .byte   W06
 .byte   Dn3
 .byte   W06
 .byte   Ds3
 .byte   W06
 .byte   Gs3
 .byte   W06
 .byte   Cn4
 .byte   W06
 .byte   Dn4
 .byte   W06
 .byte   Ds4
 .byte   W06
 .byte   Gs4
 .byte   W06
 .byte   Cn3
 .byte   W06
 .byte   Dn3
 .byte   W06
 .byte   Ds3
 .byte   W06
 .byte   An3
 .byte   W06
 .byte   Cn4
 .byte   W06
 .byte   Dn4
 .byte   W06
 .byte   Ds4
 .byte   W06
 .byte   An4
 .byte   W06
 .byte   PEND 
@ 082   ----------------------------------------
Label_2_01EFAA51:
 .byte   N06 ,Cn3 ,v120
 .byte   W06
 .byte   Dn3
 .byte   W06
 .byte   Ds3
 .byte   W06
 .byte   Gs3
 .byte   W06
 .byte   Cn4
 .byte   W06
 .byte   Dn4
 .byte   W06
 .byte   Ds4
 .byte   W06
 .byte   Gs4
 .byte   W06
 .byte   Cn3
 .byte   W06
 .byte   Dn3
 .byte   W06
 .byte   Ds3
 .byte   W06
 .byte   Gn3
 .byte   W06
 .byte   Cn4
 .byte   W06
 .byte   Dn4
 .byte   W06
 .byte   Ds4
 .byte   W06
 .byte   Gn4
 .byte   W06
 .byte   PEND 
@ 083   ----------------------------------------
 .byte   PATT
  .word Label_2_01EFAA2E
@ 084   ----------------------------------------
 .byte   PATT
  .word Label_2_01EFAA51
@ 085   ----------------------------------------
 .byte   PATT
  .word Label_2_01EFAA2E
@ 086   ----------------------------------------
 .byte   PATT
  .word Label_2_01EFAA51
@ 087   ----------------------------------------
 .byte   N06 ,Cn3 ,v120
 .byte   W06
 .byte   Dn3
 .byte   W06
 .byte   Ds3
 .byte   W06
 .byte   Gs3
 .byte   W06
 .byte   Cn4
 .byte   W06
 .byte   Dn4
 .byte   W06
 .byte   Ds4
 .byte   W06
 .byte   Gs4
 .byte   W54
@ 088   ----------------------------------------
 .byte   W24
 .byte   GOTO
  .word Label_2_01EFA5D2
 .byte   FINE

@**************** Track 4 (Midi-Chn.3) ****************@

SeptetteForTheDeadPrincess_004:
@ 000   ----------------------------------------
 .byte   KEYSH , SeptetteForTheDeadPrincess_key+0
 .byte   VOL , 42*SeptetteForTheDeadPrincess_mvl/mxv
 .byte   PAN , c_v+0
 .byte   VOICE , 56
 .byte   W96
@ 001   ----------------------------------------
 .byte   W96
@ 002   ----------------------------------------
 .byte   W96
@ 003   ----------------------------------------
 .byte   W96
@ 004   ----------------------------------------
 .byte   W96
@ 005   ----------------------------------------
 .byte   W96
@ 006   ----------------------------------------
 .byte   W96
@ 007   ----------------------------------------
 .byte   W60
 .byte   N12 ,Gn2 ,v100
 .byte   W12
 .byte   Cn3
 .byte   W12
 .byte   Dn3
 .byte   W12
@ 008   ----------------------------------------
 .byte   N36 ,Ds3
 .byte   W36
 .byte   N12 ,Fn3
 .byte   W12
 .byte   N36 ,Dn3
 .byte   W36
 .byte   N12 ,Ds3
 .byte   W12
@ 009   ----------------------------------------
 .byte   N60 ,Cn3
 .byte   W60
 .byte   N12 ,Gn2
 .byte   W12
 .byte   Cn3
 .byte   W12
 .byte   Dn3
 .byte   W12
@ 010   ----------------------------------------
 .byte   N36 ,Ds3
 .byte   W36
 .byte   N12 ,Fn3
 .byte   W12
 .byte   N36 ,Dn3
 .byte   W36
 .byte   N12 ,As3
 .byte   W12
@ 011   ----------------------------------------
 .byte   N60 ,Gn3
 .byte   W60
 .byte   N12
 .byte   W12
 .byte   As3
 .byte   W12
 .byte   Cn4
 .byte   W12
@ 012   ----------------------------------------
 .byte   N24 ,Fn3
 .byte   W24
 .byte   N36
 .byte   W36
 .byte   N12
 .byte   W12
 .byte   Gn3
 .byte   W12
 .byte   As3
 .byte   W12
@ 013   ----------------------------------------
 .byte   N24 ,Ds3
 .byte   W24
 .byte   N36
 .byte   W36
 .byte   N12 ,Cn3
 .byte   W12
 .byte   N12
 .byte   W12
 .byte   Dn3
 .byte   W12
@ 014   ----------------------------------------
 .byte   N36 ,Ds3
 .byte   W36
 .byte   N12 ,Fn3
 .byte   W12
 .byte   N36 ,Dn3
 .byte   W36
 .byte   N12 ,As2
 .byte   W12
@ 015   ----------------------------------------
 .byte   N48 ,Cn3
 .byte   W48
 .byte   Dn3
 .byte   W48
@ 016   ----------------------------------------
 .byte   N60 ,Ds3
 .byte   W60
 .byte   N06 ,Dn3
 .byte   W06
 .byte   Ds3
 .byte   W06
 .byte   Dn3
 .byte   W06
 .byte   Cn3
 .byte   W06
 .byte   Gn2
 .byte   W06
 .byte   Gs2
 .byte   W06
@ 017   ----------------------------------------
 .byte   N96 ,An2
 .byte   W96
@ 018   ----------------------------------------
 .byte   W96
@ 019   ----------------------------------------
 .byte   W96
@ 020   ----------------------------------------
 .byte   W96
@ 021   ----------------------------------------
 .byte   W96
@ 022   ----------------------------------------
 .byte   N60 ,Ds4
 .byte   N60 ,Ds5
 .byte   W60
 .byte   N06 ,Dn4
 .byte   N06 ,Dn5
 .byte   W06
 .byte   Cn4
 .byte   N06 ,Cn5
 .byte   W06
 .byte   As3
 .byte   N06 ,As4
 .byte   W06
 .byte   Gs3
 .byte   N06 ,Gs4
 .byte   W06
 .byte   Gn3
 .byte   N06 ,Gn4
 .byte   W06
 .byte   Fn3
 .byte   N06 ,Fn4
 .byte   W06
@ 023   ----------------------------------------
 .byte   N48 ,An3
 .byte   N48 ,An4
 .byte   W48
Label_3_01EFAB4D:
 .byte   W12
 .byte   N12 ,Gn2 ,v112
 .byte   N12 ,Gn3
 .byte   W12
 .byte   Cn3
 .byte   N12 ,Cn4
 .byte   W12
 .byte   Dn3
 .byte   N12 ,Dn4
 .byte   W12
@ 024   ----------------------------------------
 .byte   N36 ,Ds3
 .byte   N36 ,Ds4
 .byte   W36
 .byte   N12 ,Fn3
 .byte   N12 ,Fn4
 .byte   W12
 .byte   N36 ,Dn3
 .byte   N36 ,Dn4
 .byte   W36
 .byte   N12 ,Ds3
 .byte   N12 ,Ds4
 .byte   W12
@ 025   ----------------------------------------
Label_3_01EFAB70:
 .byte   N60 ,Cn3 ,v112
 .byte   N60 ,Cn4
 .byte   W60
 .byte   N12 ,Gn2
 .byte   N12 ,Gn3
 .byte   W12
 .byte   Cn3
 .byte   N12 ,Cn4
 .byte   W12
 .byte   Dn3
 .byte   N12 ,Dn4
 .byte   W12
 .byte   PEND 
@ 026   ----------------------------------------
Label_3_01EFAB84:
 .byte   N36 ,Ds3 ,v112
 .byte   N36 ,Ds4
 .byte   W36
 .byte   N12 ,Fn3
 .byte   N12 ,Fn4
 .byte   W12
 .byte   N36 ,Dn3
 .byte   N36 ,Dn4
 .byte   W36
 .byte   N12 ,As3
 .byte   N12 ,As4
 .byte   W12
 .byte   PEND 
@ 027   ----------------------------------------
Label_3_01EFAB9A:
 .byte   N60 ,Gn3 ,v112
 .byte   N60 ,Gn4
 .byte   W60
 .byte   N12 ,Gn3
 .byte   N12 ,Gn4
 .byte   W12
 .byte   As3
 .byte   N12 ,As4
 .byte   W12
 .byte   Cn4
 .byte   N12 ,Cn5
 .byte   W12
 .byte   PEND 
@ 028   ----------------------------------------
Label_3_01EFABAE:
 .byte   N24 ,Fn3 ,v112
 .byte   N24 ,Fn4
 .byte   W24
 .byte   N36 ,Fn3
 .byte   N36 ,Fn4
 .byte   W36
 .byte   N12 ,Fn3
 .byte   N12 ,Fn4
 .byte   W12
 .byte   Gn3
 .byte   N12 ,Gn4
 .byte   W12
 .byte   As3
 .byte   N12 ,As4
 .byte   W12
 .byte   PEND 
@ 029   ----------------------------------------
Label_3_01EFABC7:
 .byte   N24 ,Ds3 ,v112
 .byte   N24 ,Ds4
 .byte   W24
 .byte   N36 ,Ds3
 .byte   N36 ,Ds4
 .byte   W36
 .byte   N12 ,Cn3
 .byte   N12 ,Cn4
 .byte   W12
 .byte   Cn3
 .byte   N12 ,Cn4
 .byte   W12
 .byte   Dn3
 .byte   N12 ,Dn4
 .byte   W12
 .byte   PEND 
@ 030   ----------------------------------------
Label_3_01EFABE0:
 .byte   N36 ,Ds3 ,v112
 .byte   N36 ,Ds4
 .byte   W36
 .byte   N12 ,Fn3
 .byte   N12 ,Fn4
 .byte   W12
 .byte   N36 ,Dn3
 .byte   N36 ,Dn4
 .byte   W36
 .byte   N12 ,As2
 .byte   N12 ,As3
 .byte   W12
 .byte   PEND 
@ 031   ----------------------------------------
 .byte   N48 ,Cn3
 .byte   N48 ,Cn4
 .byte   W48
 .byte   N24 ,Dn3 ,v100
 .byte   N24 ,Dn4
 .byte   W12
 .byte   N12 ,Gn2
 .byte   N12 ,Gn3
 .byte   W12
 .byte   Cn3
 .byte   N12 ,Cn4
 .byte   W12
 .byte   Dn3
 .byte   N12 ,Dn4
 .byte   W12
@ 032   ----------------------------------------
 .byte   N36 ,Ds3
 .byte   N36 ,Ds4
 .byte   W36
 .byte   N12 ,Fn3 ,v112
 .byte   N12 ,Fn4
 .byte   W12
 .byte   N36 ,Dn3
 .byte   N36 ,Dn4
 .byte   W36
 .byte   N12 ,Ds3
 .byte   N12 ,Ds4
 .byte   W12
@ 033   ----------------------------------------
 .byte   PATT
  .word Label_3_01EFAB70
@ 034   ----------------------------------------
 .byte   PATT
  .word Label_3_01EFAB84
@ 035   ----------------------------------------
 .byte   PATT
  .word Label_3_01EFAB9A
@ 036   ----------------------------------------
 .byte   PATT
  .word Label_3_01EFABAE
@ 037   ----------------------------------------
 .byte   PATT
  .word Label_3_01EFABC7
@ 038   ----------------------------------------
 .byte   PATT
  .word Label_3_01EFABE0
@ 039   ----------------------------------------
 .byte   N48 ,Cn3 ,v112
 .byte   N48 ,Cn4
 .byte   W48
 .byte   N12 ,Dn3 ,v100
 .byte   N12 ,Dn4
 .byte   W24
 .byte   As2
 .byte   N12 ,As3
 .byte   W12
 .byte   Cs3
 .byte   N12 ,Cs4
 .byte   W12
@ 040   ----------------------------------------
 .byte   Ds3
 .byte   W12
 .byte   Cs3
 .byte   W12
 .byte   Ds3
 .byte   W12
 .byte   Cs3
 .byte   W12
 .byte   N18 ,Ds3
 .byte   W18
 .byte   Fs3
 .byte   W18
 .byte   N12 ,Fn3
 .byte   W12
@ 041   ----------------------------------------
 .byte   Ds3
 .byte   W12
 .byte   Cs3
 .byte   W12
 .byte   Ds3
 .byte   W12
 .byte   Cs3
 .byte   W12
 .byte   N18 ,Ds3
 .byte   W18
 .byte   As3
 .byte   W18
 .byte   N12 ,Gs3
 .byte   W12
@ 042   ----------------------------------------
 .byte   N18 ,Fs3
 .byte   W18
 .byte   Fn3
 .byte   W18
 .byte   N12 ,Ds3
 .byte   W12
 .byte   N18 ,Dn3
 .byte   W18
 .byte   As2
 .byte   W18
 .byte   N12 ,Gs2
 .byte   W12
@ 043   ----------------------------------------
 .byte   N72 ,As2
 .byte   W72
 .byte   N12
 .byte   N12 ,As3
 .byte   W12
 .byte   Cs3
 .byte   N12 ,Cs4
 .byte   W12
@ 044   ----------------------------------------
 .byte   Ds3
 .byte   N12 ,Ds4
 .byte   W12
 .byte   Cs3
 .byte   N12 ,Cs4
 .byte   W12
 .byte   Ds3
 .byte   N12 ,Ds4
 .byte   W12
 .byte   Cs3
 .byte   N12 ,Cs4
 .byte   W12
 .byte   N18 ,Ds3
 .byte   N18 ,Ds4
 .byte   W18
 .byte   Fs3
 .byte   N18 ,Fs4
 .byte   W18
 .byte   N12 ,Fn3
 .byte   N12 ,Fn4
 .byte   W12
@ 045   ----------------------------------------
 .byte   Ds3
 .byte   N12 ,Ds4
 .byte   W12
 .byte   Cs3
 .byte   N12 ,Cs4
 .byte   W12
 .byte   Ds3
 .byte   N12 ,Ds4
 .byte   W12
 .byte   Cs3
 .byte   N12 ,Cs4
 .byte   W12
 .byte   N18 ,Ds3
 .byte   N18 ,Ds4
 .byte   W18
 .byte   As3
 .byte   N18 ,As4
 .byte   W18
 .byte   N12 ,Gs3
 .byte   N12 ,Gs4
 .byte   W12
@ 046   ----------------------------------------
 .byte   N18 ,Fs3
 .byte   N18 ,Fs4
 .byte   W18
 .byte   Fn3
 .byte   N18 ,Fn4
 .byte   W18
 .byte   N12 ,Ds3
 .byte   N12 ,Ds4
 .byte   W12
 .byte   N18 ,Fn3
 .byte   N18 ,Fn4
 .byte   W18
 .byte   Fs3
 .byte   N18 ,Fs4
 .byte   W18
 .byte   N12 ,Gs3
 .byte   N12 ,Gs4
 .byte   W12
@ 047   ----------------------------------------
 .byte   N24 ,As3
 .byte   N24 ,As4
 .byte   W36
 .byte   As3
 .byte   N24 ,As4
 .byte   W36
 .byte   N12 ,As3
 .byte   N12 ,As4
 .byte   W12
 .byte   As3
 .byte   N12 ,As4
 .byte   W12
@ 048   ----------------------------------------
Label_3_01EFACFA:
 .byte   W24
 .byte   N12 ,Dn3 ,v100
 .byte   N12 ,Gn3
 .byte   W12
 .byte   As3
 .byte   N12 ,Dn4
 .byte   W12
 .byte   N36 ,An3
 .byte   N36 ,Cn4
 .byte   W36
 .byte   N12 ,Gn3
 .byte   N12 ,As3
 .byte   W12
 .byte   PEND 
@ 049   ----------------------------------------
Label_3_01EFAD10:
 .byte   N18 ,Fn3 ,v100
 .byte   N18 ,An3
 .byte   W18
 .byte   Dn3
 .byte   N18 ,Fn3
 .byte   W18
 .byte   N54 ,Ds3
 .byte   N84 ,Gn3
 .byte   W54
 .byte   N30 ,Dn3
 .byte   W06
 .byte   PEND 
@ 050   ----------------------------------------
 .byte   PATT
  .word Label_3_01EFACFA
@ 051   ----------------------------------------
Label_3_01EFAD28:
 .byte   N18 ,Fn3 ,v100
 .byte   N18 ,An3
 .byte   W18
 .byte   Cn4
 .byte   N18 ,Fn4
 .byte   W18
 .byte   N54 ,As3
 .byte   N84 ,Dn4
 .byte   W54
 .byte   N30 ,An3
 .byte   W06
 .byte   PEND 
@ 052   ----------------------------------------
 .byte   PATT
  .word Label_3_01EFACFA
@ 053   ----------------------------------------
Label_3_01EFAD40:
 .byte   N18 ,Fn3 ,v100
 .byte   N18 ,An3
 .byte   W18
 .byte   Dn3
 .byte   N18 ,Fn3
 .byte   W18
 .byte   N12 ,Ds3
 .byte   N12 ,Gn3
 .byte   W54
 .byte   N30 ,Dn3
 .byte   W06
 .byte   PEND 
@ 054   ----------------------------------------
Label_3_01EFAD53:
 .byte   W24
 .byte   N12 ,Dn3 ,v100
 .byte   N12 ,Gn3
 .byte   W12
 .byte   Fn3
 .byte   N12 ,An3
 .byte   W12
 .byte   Gn3
 .byte   N12 ,As3
 .byte   W12
 .byte   Fn3
 .byte   N12 ,An3
 .byte   W12
 .byte   Dn3
 .byte   N12 ,Fn3
 .byte   W12
 .byte   N60 ,Dn3
 .byte   N60 ,Gn3
 .byte   W12
 .byte   PEND 
@ 055   ----------------------------------------
 .byte   W48
 .byte   N72 ,As3
 .byte   N72 ,Dn4
 .byte   W48
@ 056   ----------------------------------------
 .byte   PATT
  .word Label_3_01EFACFA
@ 057   ----------------------------------------
 .byte   PATT
  .word Label_3_01EFAD10
@ 058   ----------------------------------------
 .byte   PATT
  .word Label_3_01EFACFA
@ 059   ----------------------------------------
 .byte   PATT
  .word Label_3_01EFAD28
@ 060   ----------------------------------------
 .byte   PATT
  .word Label_3_01EFACFA
@ 061   ----------------------------------------
 .byte   PATT
  .word Label_3_01EFAD40
@ 062   ----------------------------------------
 .byte   PATT
  .word Label_3_01EFAD53
@ 063   ----------------------------------------
 .byte   W48
 .byte   N96 ,As3 ,v100
 .byte   N96 ,Dn4
 .byte   W48
@ 064   ----------------------------------------
 .byte   W48
 .byte   N36 ,An3 ,v060
 .byte   N36 ,Cn4
 .byte   W36
 .byte   N12 ,Gn3
 .byte   N12 ,As3
 .byte   W12
@ 065   ----------------------------------------
Label_3_01EFADAC:
 .byte   N18 ,Fn3 ,v060
 .byte   N18 ,An3
 .byte   W18
 .byte   Dn3
 .byte   N18 ,Fn3
 .byte   W18
 .byte   N84 ,Ds3
 .byte   N84 ,Gn3
 .byte   W60
 .byte   PEND 
@ 066   ----------------------------------------
Label_3_01EFADBC:
 .byte   W24
 .byte   N12 ,Dn3 ,v060
 .byte   N12 ,Gn3
 .byte   W12
 .byte   As3
 .byte   N12 ,Dn4
 .byte   W12
 .byte   N36 ,An3
 .byte   N36 ,Cn4
 .byte   W36
 .byte   N12 ,Gn3
 .byte   N12 ,As3
 .byte   W12
 .byte   PEND 
@ 067   ----------------------------------------
Label_3_01EFADD2:
 .byte   N18 ,Fn3 ,v060
 .byte   N18 ,An3
 .byte   W18
 .byte   Cn4
 .byte   N18 ,Fn4
 .byte   W18
 .byte   N96 ,As3
 .byte   N96 ,Dn4
 .byte   W60
 .byte   PEND 
@ 068   ----------------------------------------
Label_3_01EFADE2:
 .byte   W24
 .byte   N12 ,Dn3 ,v060
 .byte   N12 ,Gn3
 .byte   W12
 .byte   N48 ,As3
 .byte   TIE ,Dn4
 .byte   W12
 .byte   N36 ,An3
 .byte   N36 ,Cn4
 .byte   W36
 .byte   N12 ,Gn3
 .byte   N60 ,As3
 .byte   W12
 .byte   PEND 
@ 069   ----------------------------------------
Label_3_01EFADF9:
 .byte   N18 ,Fn3 ,v060
 .byte   N18 ,An3
 .byte   W18
 .byte   Dn3
 .byte   N18 ,Fn3
 .byte   W18
 .byte   N12 ,Ds3
 .byte   N12 ,Gn3
 .byte   W12
 .byte   PEND 
 .byte   EOT
 .byte   Dn4
 .byte   W48
@ 070   ----------------------------------------
Label_3_01EFAE0C:
 .byte   W24
 .byte   N12 ,Dn3 ,v060
 .byte   N12 ,Gn3
 .byte   W12
 .byte   Fn3
 .byte   N12 ,An3
 .byte   W12
 .byte   Gn3
 .byte   N12 ,As3
 .byte   W12
 .byte   Fn3
 .byte   N12 ,An3
 .byte   W12
 .byte   Dn3
 .byte   N12 ,Fn3
 .byte   W12
 .byte   N60 ,Dn3
 .byte   N60 ,Gn3
 .byte   W12
 .byte   PEND 
@ 071   ----------------------------------------
 .byte   W48
 .byte   N72 ,As3
 .byte   N72 ,Dn4
 .byte   W48
@ 072   ----------------------------------------
 .byte   PATT
  .word Label_3_01EFADBC
@ 073   ----------------------------------------
 .byte   PATT
  .word Label_3_01EFADAC
@ 074   ----------------------------------------
 .byte   PATT
  .word Label_3_01EFADBC
@ 075   ----------------------------------------
 .byte   PATT
  .word Label_3_01EFADD2
@ 076   ----------------------------------------
 .byte   PATT
  .word Label_3_01EFADE2
@ 077   ----------------------------------------
 .byte   PATT
  .word Label_3_01EFADF9
@ 078   ----------------------------------------
 .byte   EOT
 .byte   Dn4
 .byte   W48
@ 079   ----------------------------------------
 .byte   PATT
  .word Label_3_01EFAE0C
@ 080   ----------------------------------------
 .byte   W48
 .byte   N96 ,As3 ,v060
 .byte   N96 ,Dn4
 .byte   W48
@ 081   ----------------------------------------
 .byte   W48
 .byte   N60 ,Ds3 ,v112
 .byte   N60 ,Ds4
 .byte   W48
@ 082   ----------------------------------------
 .byte   W12
 .byte   N06 ,Dn3
 .byte   N06 ,Dn4
 .byte   W06
 .byte   Ds3
 .byte   N06 ,Ds4
 .byte   W06
 .byte   Dn3
 .byte   N06 ,Dn4
 .byte   W06
 .byte   Cn3
 .byte   N06 ,Cn4
 .byte   W06
 .byte   Gn2
 .byte   N06 ,Gn3
 .byte   W06
 .byte   Gs2
 .byte   N06 ,Gs3
 .byte   W06
 .byte   N96 ,An2
 .byte   N96 ,An3
 .byte   W48
@ 083   ----------------------------------------
 .byte   W96
@ 084   ----------------------------------------
 .byte   W96
@ 085   ----------------------------------------
 .byte   W96
@ 086   ----------------------------------------
 .byte   W96
@ 087   ----------------------------------------
 .byte   W48
 .byte   N60 ,Ds4 ,v100
 .byte   N60 ,Ds5
 .byte   W48
@ 088   ----------------------------------------
 .byte   W12
 .byte   N06 ,Dn4
 .byte   N06 ,Dn5
 .byte   W06
 .byte   Cn4
 .byte   N06 ,Cn5
 .byte   W06
 .byte   As3
 .byte   N06 ,As4
 .byte   W06
 .byte   Gs3
 .byte   N06 ,Gs4
 .byte   W06
 .byte   Gn3
 .byte   N06 ,Gn4
 .byte   W06
 .byte   Fn3
 .byte   N06 ,Fn4
 .byte   W06
 .byte   N48 ,An3
 .byte   N48 ,An4
 .byte   W48
@ 089   ----------------------------------------
 .byte   W24
 .byte   GOTO
  .word Label_3_01EFAB4D
 .byte   FINE

@**************** Track 5 (Midi-Chn.4) ****************@

SeptetteForTheDeadPrincess_005:
@ 000   ----------------------------------------
 .byte   KEYSH , SeptetteForTheDeadPrincess_key+0
 .byte   VOL , 42*SeptetteForTheDeadPrincess_mvl/mxv
 .byte   PAN , c_v+0
 .byte   VOICE , 0
 .byte   W96
@ 001   ----------------------------------------
 .byte   W96
@ 002   ----------------------------------------
 .byte   W96
@ 003   ----------------------------------------
 .byte   W96
@ 004   ----------------------------------------
 .byte   W96
@ 005   ----------------------------------------
 .byte   W96
@ 006   ----------------------------------------
 .byte   W96
@ 007   ----------------------------------------
 .byte   W96
@ 008   ----------------------------------------
Label_4_01EFAEC8:
 .byte   N48 ,Cn2 ,v120
 .byte   W12
 .byte   N12 ,Gn2
 .byte   W12
 .byte   Cn3
 .byte   W12
 .byte   Dn3
 .byte   W12
 .byte   N48 ,As1
 .byte   W12
 .byte   N12 ,Fn2
 .byte   W12
 .byte   As2
 .byte   W12
 .byte   Cn3
 .byte   W12
 .byte   PEND 
@ 009   ----------------------------------------
 .byte   N96 ,Gs1
 .byte   W12
 .byte   N12 ,Ds2
 .byte   W12
 .byte   Gn2
 .byte   W12
 .byte   As2
 .byte   W12
 .byte   Gn2
 .byte   W12
 .byte   Ds2
 .byte   W12
 .byte   As2
 .byte   W12
 .byte   Fn2
 .byte   W12
@ 010   ----------------------------------------
 .byte   PATT
  .word Label_4_01EFAEC8
@ 011   ----------------------------------------
 .byte   N96 ,An1 ,v120
 .byte   W12
 .byte   N12 ,Fn2
 .byte   W12
 .byte   An2
 .byte   W12
 .byte   Cn3
 .byte   W12
 .byte   Dn3
 .byte   W12
 .byte   Ds3
 .byte   W12
 .byte   Fn3
 .byte   W12
 .byte   Dn3
 .byte   W12
@ 012   ----------------------------------------
 .byte   N96 ,Fn1
 .byte   W12
 .byte   N12 ,Fn2
 .byte   W12
 .byte   Gn2
 .byte   W12
 .byte   Cn3
 .byte   W12
 .byte   N18 ,Gs2
 .byte   W18
 .byte   Gn2
 .byte   W18
 .byte   N12 ,Fn2
 .byte   W12
@ 013   ----------------------------------------
 .byte   N96 ,Ds1
 .byte   W12
 .byte   N12 ,Ds2
 .byte   W12
 .byte   Fn2
 .byte   W12
 .byte   As2
 .byte   W12
 .byte   N06 ,As3
 .byte   W06
 .byte   Gn3
 .byte   W06
 .byte   Fn3
 .byte   W06
 .byte   Ds3
 .byte   W06
 .byte   As2
 .byte   W06
 .byte   Gn2
 .byte   W06
 .byte   Fn2
 .byte   W06
 .byte   Ds2
 .byte   W06
@ 014   ----------------------------------------
 .byte   N48 ,Fn1
 .byte   W06
 .byte   N06 ,Gn1
 .byte   W06
 .byte   Gs1
 .byte   W06
 .byte   Cn2
 .byte   W06
 .byte   Fn2
 .byte   W06
 .byte   Gn2
 .byte   W06
 .byte   Gs2
 .byte   W06
 .byte   Cn3
 .byte   W06
 .byte   N48 ,Gn1
 .byte   W06
 .byte   N06 ,An1
 .byte   W06
 .byte   As1
 .byte   W06
 .byte   Dn2
 .byte   W06
 .byte   Gn2
 .byte   W06
 .byte   An2
 .byte   W06
 .byte   As2
 .byte   W06
 .byte   Dn3
 .byte   W06
@ 015   ----------------------------------------
 .byte   N48 ,Gs1
 .byte   W06
 .byte   N06 ,As1
 .byte   W06
 .byte   Bn1
 .byte   W06
 .byte   Ds2
 .byte   W06
 .byte   Gs2
 .byte   W06
 .byte   As2
 .byte   W06
 .byte   Bn2
 .byte   W06
 .byte   Ds3
 .byte   W06
 .byte   N48 ,As1
 .byte   W06
 .byte   N06 ,Cn2
 .byte   W06
 .byte   Cs2
 .byte   W06
 .byte   Fn2
 .byte   W06
 .byte   As2
 .byte   W06
 .byte   Cn3
 .byte   W06
 .byte   Cs3
 .byte   W06
 .byte   Fn3
 .byte   W06
@ 016   ----------------------------------------
 .byte   N24 ,Cn2 ,v080
 .byte   W12
 .byte   N12 ,Gn2
 .byte   W12
 .byte   Cn2
 .byte   W12
 .byte   Gn2
 .byte   W12
 .byte   Cn2
 .byte   W12
 .byte   Gs2
 .byte   W12
 .byte   Cn2
 .byte   W12
 .byte   Gs2
 .byte   W12
@ 017   ----------------------------------------
 .byte   N24 ,Cn2
 .byte   W12
 .byte   N12 ,An2
 .byte   W12
 .byte   Cn2
 .byte   W12
 .byte   An2
 .byte   W12
 .byte   Cn2
 .byte   W12
 .byte   Gs2
 .byte   W12
 .byte   Cn2
 .byte   W12
 .byte   Gs2
 .byte   W12
@ 018   ----------------------------------------
Label_4_01EFAFA2:
 .byte   N24 ,Cn2 ,v100
 .byte   W12
 .byte   N12 ,Gn2
 .byte   W12
 .byte   Cn2
 .byte   W12
 .byte   Gn2
 .byte   W12
 .byte   Cn2
 .byte   W12
 .byte   Gs2
 .byte   W12
 .byte   Cn2
 .byte   W12
 .byte   Gs2
 .byte   W12
 .byte   PEND 
@ 019   ----------------------------------------
Label_4_01EFAFB6:
 .byte   N24 ,Cn2 ,v100
 .byte   W12
 .byte   N12 ,An2
 .byte   W12
 .byte   Cn2
 .byte   W12
 .byte   An2
 .byte   W12
 .byte   Cn2
 .byte   W12
 .byte   Gs2
 .byte   W12
 .byte   Cn2
 .byte   W12
 .byte   Gs2
 .byte   W12
 .byte   PEND 
@ 020   ----------------------------------------
 .byte   PATT
  .word Label_4_01EFAFA2
@ 021   ----------------------------------------
 .byte   PATT
  .word Label_4_01EFAFB6
@ 022   ----------------------------------------
 .byte   PATT
  .word Label_4_01EFAFA2
@ 023   ----------------------------------------
 .byte   N48 ,An2 ,v100
 .byte   W48
Label_4_01EFAFDD:
 .byte   W48
@ 024   ----------------------------------------
Label_4_01EFAFDE:
 .byte   N48 ,Cn2 ,v127
 .byte   W12
 .byte   N12 ,Gn2
 .byte   W12
 .byte   Cn3
 .byte   W12
 .byte   Dn3
 .byte   W12
 .byte   N48 ,As1
 .byte   W12
 .byte   N12 ,Fn2
 .byte   W12
 .byte   As2
 .byte   W12
 .byte   Cn3
 .byte   W12
 .byte   PEND 
@ 025   ----------------------------------------
Label_4_01EFAFF4:
 .byte   N96 ,Gs1 ,v127
 .byte   W12
 .byte   N12 ,Ds2
 .byte   W12
 .byte   Gn2
 .byte   W12
 .byte   As2
 .byte   W12
 .byte   Gn2
 .byte   W12
 .byte   Ds2
 .byte   W12
 .byte   As2
 .byte   W12
 .byte   Fn2
 .byte   W12
 .byte   PEND 
@ 026   ----------------------------------------
 .byte   PATT
  .word Label_4_01EFAFDE
@ 027   ----------------------------------------
Label_4_01EFB00D:
 .byte   N96 ,An1 ,v127
 .byte   W12
 .byte   N12 ,Fn2
 .byte   W12
 .byte   An2
 .byte   W12
 .byte   Cn3
 .byte   W12
 .byte   Dn3
 .byte   W12
 .byte   Ds3
 .byte   W12
 .byte   Fn3
 .byte   W12
 .byte   Dn3
 .byte   W12
 .byte   PEND 
@ 028   ----------------------------------------
Label_4_01EFB021:
 .byte   N96 ,Fn1 ,v127
 .byte   W12
 .byte   N12 ,Fn2
 .byte   W12
 .byte   Gn2
 .byte   W12
 .byte   Cn3
 .byte   W12
 .byte   N18 ,Gs2
 .byte   W18
 .byte   Gn2
 .byte   W18
 .byte   N12 ,Fn2
 .byte   W12
 .byte   PEND 
@ 029   ----------------------------------------
Label_4_01EFB035:
 .byte   N96 ,Ds1 ,v127
 .byte   W12
 .byte   N12 ,Ds2
 .byte   W12
 .byte   Fn2
 .byte   W12
 .byte   As2
 .byte   W12
 .byte   N06 ,As3
 .byte   W06
 .byte   Gn3
 .byte   W06
 .byte   Fn3
 .byte   W06
 .byte   Ds3
 .byte   W06
 .byte   As2
 .byte   W06
 .byte   Gn2
 .byte   W06
 .byte   Fn2
 .byte   W06
 .byte   Ds2
 .byte   W06
 .byte   PEND 
@ 030   ----------------------------------------
Label_4_01EFB052:
 .byte   N48 ,Fn1 ,v127
 .byte   W06
 .byte   N06 ,Gn1
 .byte   W06
 .byte   Gs1
 .byte   W06
 .byte   Cn2
 .byte   W06
 .byte   Fn2
 .byte   W06
 .byte   Gn2
 .byte   W06
 .byte   Gs2
 .byte   W06
 .byte   Cn3
 .byte   W06
 .byte   N48 ,Gn1
 .byte   W06
 .byte   N06 ,An1
 .byte   W06
 .byte   As1
 .byte   W06
 .byte   Dn2
 .byte   W06
 .byte   Gn2
 .byte   W06
 .byte   An2
 .byte   W06
 .byte   As2
 .byte   W06
 .byte   Dn3
 .byte   W06
 .byte   PEND 
@ 031   ----------------------------------------
Label_4_01EFB078:
 .byte   N48 ,Gs1 ,v127
 .byte   W06
 .byte   N06 ,As1
 .byte   W06
 .byte   Bn1
 .byte   W06
 .byte   Ds2
 .byte   W06
 .byte   Gs2
 .byte   W06
 .byte   As2
 .byte   W06
 .byte   Bn2
 .byte   W06
 .byte   Ds3
 .byte   W06
 .byte   N48 ,As1
 .byte   W06
 .byte   N06 ,Cn2
 .byte   W06
 .byte   Cs2
 .byte   W06
 .byte   Fn2
 .byte   W06
 .byte   As2
 .byte   W06
 .byte   Cn3
 .byte   W06
 .byte   Cs3
 .byte   W06
 .byte   Fn3
 .byte   W06
 .byte   PEND 
@ 032   ----------------------------------------
 .byte   PATT
  .word Label_4_01EFAFDE
@ 033   ----------------------------------------
 .byte   PATT
  .word Label_4_01EFAFF4
@ 034   ----------------------------------------
 .byte   PATT
  .word Label_4_01EFAFDE
@ 035   ----------------------------------------
 .byte   PATT
  .word Label_4_01EFB00D
@ 036   ----------------------------------------
 .byte   PATT
  .word Label_4_01EFB021
@ 037   ----------------------------------------
 .byte   PATT
  .word Label_4_01EFB035
@ 038   ----------------------------------------
 .byte   PATT
  .word Label_4_01EFB052
@ 039   ----------------------------------------
 .byte   PATT
  .word Label_4_01EFB078
@ 040   ----------------------------------------
 .byte   W96
@ 041   ----------------------------------------
 .byte   W96
@ 042   ----------------------------------------
 .byte   W96
@ 043   ----------------------------------------
 .byte   W96
@ 044   ----------------------------------------
 .byte   W96
@ 045   ----------------------------------------
 .byte   W96
@ 046   ----------------------------------------
 .byte   W96
@ 047   ----------------------------------------
 .byte   W96
@ 048   ----------------------------------------
 .byte   W96
@ 049   ----------------------------------------
 .byte   W96
@ 050   ----------------------------------------
 .byte   W96
@ 051   ----------------------------------------
 .byte   W96
@ 052   ----------------------------------------
 .byte   W96
@ 053   ----------------------------------------
 .byte   W96
@ 054   ----------------------------------------
 .byte   W96
@ 055   ----------------------------------------
 .byte   W96
@ 056   ----------------------------------------
 .byte   W96
@ 057   ----------------------------------------
 .byte   W96
@ 058   ----------------------------------------
 .byte   W96
@ 059   ----------------------------------------
 .byte   W96
@ 060   ----------------------------------------
 .byte   W96
@ 061   ----------------------------------------
 .byte   W96
@ 062   ----------------------------------------
 .byte   W96
@ 063   ----------------------------------------
 .byte   W96
@ 064   ----------------------------------------
 .byte   N06 ,Gn3 ,v127
 .byte   N06 ,Gn4
 .byte   W06
 .byte   As3
 .byte   N06 ,As4
 .byte   W06
 .byte   Cn4
 .byte   N06 ,Cn5
 .byte   W06
 .byte   Dn4
 .byte   N06 ,Dn5
 .byte   W06
 .byte   N12 ,An3
 .byte   N12 ,An4
 .byte   W12
 .byte   N06 ,Fn3
 .byte   N06 ,Fn4
 .byte   W06
 .byte   Gn3
 .byte   N06 ,Gn4
 .byte   W18
 .byte   N12 ,Fn3
 .byte   N12 ,Fn4
 .byte   W12
 .byte   Gn3
 .byte   N12 ,Gn4
 .byte   W12
 .byte   An3
 .byte   N12 ,An4
 .byte   W12
@ 065   ----------------------------------------
Label_4_01EFB10B:
 .byte   N06 ,Gn3 ,v127
 .byte   N06 ,Gn4
 .byte   W06
 .byte   Cn4
 .byte   N06 ,Cn5
 .byte   W06
 .byte   As3
 .byte   N06 ,As4
 .byte   W06
 .byte   Cn4
 .byte   N06 ,Cn5
 .byte   W06
 .byte   An3
 .byte   N06 ,An4
 .byte   W06
 .byte   Cn4
 .byte   N06 ,Cn5
 .byte   W06
 .byte   Gn3
 .byte   N06 ,Gn4
 .byte   W06
 .byte   As3
 .byte   N06 ,As4
 .byte   W06
 .byte   N09 ,Gn3
 .byte   N09 ,Gn4
 .byte   W08
 .byte   N01 ,Dn4
 .byte   N09 ,Dn5
 .byte   W10
 .byte   N06 ,Cn4
 .byte   N06 ,Cn5
 .byte   W06
 .byte   N09 ,Gn3
 .byte   N09 ,Gn4
 .byte   W08
 .byte   N01 ,Dn4
 .byte   N09 ,Dn5
 .byte   W10
 .byte   N06 ,Cn4
 .byte   N06 ,Cn5
 .byte   W06
 .byte   PEND 
@ 066   ----------------------------------------
Label_4_01EFB14C:
 .byte   N06 ,An3 ,v127
 .byte   N06 ,An4
 .byte   W06
 .byte   As3
 .byte   N06 ,As4
 .byte   W06
 .byte   Gn3
 .byte   N06 ,Gn4
 .byte   W06
 .byte   An3
 .byte   N06 ,An4
 .byte   W06
 .byte   Fn3
 .byte   N06 ,Fn4
 .byte   W06
 .byte   Gn3
 .byte   N06 ,Gn4
 .byte   W06
 .byte   Dn3
 .byte   N06 ,Dn4
 .byte   W06
 .byte   Fn3
 .byte   N06 ,Fn4
 .byte   W06
 .byte   N03 ,Dn3
 .byte   N03 ,Dn4
 .byte   W02
 .byte   N01 ,Gn3
 .byte   N03 ,Gn4
 .byte   W03
 .byte   Dn3
 .byte   N03 ,Dn4
 .byte   W03
 .byte   Gn3
 .byte   N03 ,Gn4
 .byte   W04
 .byte   Dn3
 .byte   N03 ,Dn4
 .byte   W03
 .byte   N02 ,Cn3
 .byte   N03 ,Cn4
 .byte   W02
 .byte   N01 ,Dn3
 .byte   N03 ,Dn4
 .byte   W04
 .byte   Fn3
 .byte   N03 ,Fn4
 .byte   W03
 .byte   N06 ,Gn3
 .byte   N06 ,Gn4
 .byte   W06
 .byte   Cn3
 .byte   N06 ,Cn4
 .byte   W06
 .byte   Dn3
 .byte   N06 ,Dn4
 .byte   W06
 .byte   As2
 .byte   N06 ,As3
 .byte   W06
 .byte   PEND 
@ 067   ----------------------------------------
Label_4_01EFB1A4:
 .byte   N09 ,Cn3 ,v127
 .byte   N09 ,Cn4
 .byte   W09
 .byte   An2
 .byte   N09 ,An3
 .byte   W09
 .byte   N06 ,As2
 .byte   N06 ,As3
 .byte   W06
 .byte   N09 ,Gn2
 .byte   N09 ,Gn3
 .byte   W09
 .byte   An2
 .byte   N09 ,An3
 .byte   W09
 .byte   N06 ,Fn2
 .byte   N06 ,Fn3
 .byte   W06
 .byte   Gn2
 .byte   N06 ,Gn3
 .byte   W06
 .byte   Fn2
 .byte   N06 ,Fn3
 .byte   W06
 .byte   Dn2
 .byte   N06 ,Dn3
 .byte   W06
 .byte   Fn2
 .byte   N06 ,Fn3
 .byte   W06
 .byte   Gn2
 .byte   N06 ,Gn3
 .byte   W12
 .byte   Dn3
 .byte   N06 ,Dn4
 .byte   W12
 .byte   PEND 
@ 068   ----------------------------------------
Label_4_01EFB1DA:
 .byte   N06 ,Cn3 ,v127
 .byte   N06 ,Cn4
 .byte   W06
 .byte   As2
 .byte   N06 ,As3
 .byte   W06
 .byte   An2
 .byte   N06 ,An3
 .byte   W06
 .byte   Fn2
 .byte   N06 ,Fn3
 .byte   W06
 .byte   Gn2
 .byte   N06 ,Gn3
 .byte   W06
 .byte   Gn2
 .byte   N06 ,Gn3
 .byte   W06
 .byte   Gn2
 .byte   N06 ,Gn3
 .byte   W06
 .byte   An2
 .byte   N06 ,An3
 .byte   W06
 .byte   Gn2
 .byte   N06 ,Gn3
 .byte   W06
 .byte   An2
 .byte   N06 ,An3
 .byte   W06
 .byte   As2
 .byte   N06 ,As3
 .byte   W06
 .byte   Cn3
 .byte   N06 ,Cn4
 .byte   W06
 .byte   Dn3
 .byte   N06 ,Dn4
 .byte   W06
 .byte   Fn3
 .byte   N06 ,Fn4
 .byte   W06
 .byte   Gn3
 .byte   N06 ,Gn4
 .byte   W06
 .byte   Dn3
 .byte   N06 ,Dn4
 .byte   W06
 .byte   PEND 
@ 069   ----------------------------------------
Label_4_01EFB21D:
 .byte   N06 ,An3 ,v127
 .byte   N06 ,An4
 .byte   W06
 .byte   Dn3
 .byte   N06 ,Dn4
 .byte   W06
 .byte   As3
 .byte   N06 ,As4
 .byte   W06
 .byte   Cn4
 .byte   N06 ,Cn5
 .byte   W06
 .byte   N03 ,An3
 .byte   N03 ,An4
 .byte   W03
 .byte   As3
 .byte   N03 ,As4
 .byte   W03
 .byte   Gn3
 .byte   N03 ,Gn4
 .byte   W03
 .byte   An3
 .byte   N03 ,An4
 .byte   W03
 .byte   N06 ,Fn3
 .byte   N06 ,Fn4
 .byte   W06
 .byte   En3
 .byte   N06 ,En4
 .byte   W06
 .byte   Cn3
 .byte   N06 ,Cn4
 .byte   W06
 .byte   N05 ,As2
 .byte   N06 ,As3
 .byte   W05
 .byte   N03 ,En2
 .byte   N03 ,En3
 .byte   W03
 .byte   Gn2
 .byte   N03 ,Gn3
 .byte   W03
 .byte   An2
 .byte   N03 ,An3
 .byte   W03
 .byte   As2
 .byte   N03 ,As3
 .byte   W04
 .byte   N06 ,Cn3
 .byte   N06 ,Cn4
 .byte   W06
 .byte   As2
 .byte   N06 ,As3
 .byte   W06
 .byte   Cn3
 .byte   N06 ,Cn4
 .byte   W06
 .byte   En3
 .byte   N06 ,En4
 .byte   W06
 .byte   PEND 
@ 070   ----------------------------------------
Label_4_01EFB275:
 .byte   N06 ,Gn3 ,v127
 .byte   N06 ,Gn4
 .byte   W06
 .byte   An3
 .byte   N06 ,An4
 .byte   W06
 .byte   As3
 .byte   N06 ,As4
 .byte   W06
 .byte   Cn4
 .byte   N06 ,Cn5
 .byte   W06
 .byte   As3
 .byte   N06 ,As4
 .byte   W06
 .byte   An3
 .byte   N06 ,An4
 .byte   W06
 .byte   Gn3
 .byte   N06 ,Gn4
 .byte   W06
 .byte   Fn3
 .byte   N06 ,Fn4
 .byte   W06
 .byte   Gn3
 .byte   N06 ,Gn4
 .byte   W06
 .byte   Fn3
 .byte   N06 ,Fn4
 .byte   W06
 .byte   Dn3
 .byte   N06 ,Dn4
 .byte   W06
 .byte   Gn3
 .byte   N06 ,Gn4
 .byte   W06
 .byte   Fn3
 .byte   N06 ,Fn4
 .byte   W06
 .byte   Dn3
 .byte   N06 ,Dn4
 .byte   W06
 .byte   N12 ,Gn3
 .byte   N12 ,Gn4
 .byte   W12
 .byte   PEND 
@ 071   ----------------------------------------
 .byte   N06 ,Dn4
 .byte   N06 ,Dn5
 .byte   W06
 .byte   Cn4
 .byte   N06 ,Cn5
 .byte   W06
 .byte   As3
 .byte   N06 ,As4
 .byte   W06
 .byte   Dn4
 .byte   N06 ,Dn5
 .byte   W06
 .byte   N12 ,Cn4
 .byte   N12 ,Cn5
 .byte   W12
 .byte   An3
 .byte   N12 ,An4
 .byte   W12
 .byte   N06 ,Dn3
 .byte   N06 ,Dn4
 .byte   W06
 .byte   As2
 .byte   N06 ,As3
 .byte   W06
 .byte   An2
 .byte   N06 ,An3
 .byte   W06
 .byte   Gn2
 .byte   N06 ,Gn3
 .byte   W06
 .byte   Dn2
 .byte   N06 ,Dn3
 .byte   W06
 .byte   As1
 .byte   N06 ,As2
 .byte   W06
 .byte   An1
 .byte   N06 ,An2
 .byte   W06
 .byte   Gn1
 .byte   N06 ,Gn2
 .byte   W06
@ 072   ----------------------------------------
 .byte   Dn1
 .byte   N06 ,Dn2
 .byte   W06
 .byte   Gn1
 .byte   N06 ,Gn2
 .byte   W06
 .byte   An1
 .byte   N06 ,An2
 .byte   W06
 .byte   As1
 .byte   N06 ,As2
 .byte   W06
 .byte   Dn2
 .byte   N06 ,Dn3
 .byte   W06
 .byte   Gn2
 .byte   N06 ,Gn3
 .byte   W06
 .byte   An2
 .byte   N06 ,An3
 .byte   W06
 .byte   As2
 .byte   N06 ,As3
 .byte   W18
 .byte   N12 ,Fn3
 .byte   N12 ,Fn4
 .byte   W12
 .byte   Gn3
 .byte   N12 ,Gn4
 .byte   W12
 .byte   An3
 .byte   N12 ,An4
 .byte   W12
@ 073   ----------------------------------------
 .byte   PATT
  .word Label_4_01EFB10B
@ 074   ----------------------------------------
 .byte   PATT
  .word Label_4_01EFB14C
@ 075   ----------------------------------------
 .byte   PATT
  .word Label_4_01EFB1A4
@ 076   ----------------------------------------
 .byte   PATT
  .word Label_4_01EFB1DA
@ 077   ----------------------------------------
 .byte   PATT
  .word Label_4_01EFB21D
@ 078   ----------------------------------------
 .byte   PATT
  .word Label_4_01EFB275
@ 079   ----------------------------------------
 .byte   N06 ,Dn4 ,v127
 .byte   N06 ,Dn5
 .byte   W06
 .byte   Cn4
 .byte   N06 ,Cn5
 .byte   W06
 .byte   As3
 .byte   N06 ,As4
 .byte   W06
 .byte   Dn4
 .byte   N06 ,Dn5
 .byte   W06
 .byte   N12 ,Cn4
 .byte   N12 ,Cn5
 .byte   W12
 .byte   An3
 .byte   N12 ,An4
 .byte   W12
 .byte   N06 ,Gn3
 .byte   N06 ,Gn4
 .byte   W06
 .byte   An3
 .byte   N06 ,An4
 .byte   W06
 .byte   As3
 .byte   N06 ,As4
 .byte   W06
 .byte   Cn4
 .byte   N06 ,Cn5
 .byte   W06
 .byte   Dn4
 .byte   N06 ,Dn5
 .byte   W06
 .byte   An3
 .byte   N06 ,An4
 .byte   W06
 .byte   As3
 .byte   N06 ,As4
 .byte   W06
 .byte   Fn4
 .byte   N06 ,Fn5
 .byte   W06
@ 080   ----------------------------------------
 .byte   Dn4
 .byte   N06 ,Dn5
 .byte   W06
 .byte   Fn4
 .byte   N06 ,Fn5
 .byte   W06
 .byte   Dn4
 .byte   N06 ,Dn5
 .byte   W06
 .byte   Fn4
 .byte   N06 ,Fn5
 .byte   W06
 .byte   Gn4
 .byte   N06 ,Gn5
 .byte   W06
 .byte   Fn4
 .byte   N06 ,Fn5
 .byte   W06
 .byte   Cn4
 .byte   N06 ,Cn5
 .byte   W06
 .byte   Dn4
 .byte   N06 ,Dn5
 .byte   W06
 .byte   N24 ,Cn2 ,v080
 .byte   W12
 .byte   N12 ,Gn2
 .byte   W12
 .byte   Cn2
 .byte   W12
 .byte   Gn2
 .byte   W12
@ 081   ----------------------------------------
 .byte   Cn2
 .byte   W12
 .byte   Gs2
 .byte   W12
 .byte   Cn2
 .byte   W12
 .byte   Gs2
 .byte   W12
 .byte   N24 ,Cn2
 .byte   W12
 .byte   N12 ,An2
 .byte   W12
 .byte   Cn2
 .byte   W12
 .byte   An2
 .byte   W12
@ 082   ----------------------------------------
 .byte   Cn2
 .byte   W12
 .byte   Gs2
 .byte   W12
 .byte   Cn2
 .byte   W12
 .byte   Gs2
 .byte   W12
 .byte   N24 ,Cn2 ,v100
 .byte   W12
 .byte   N12 ,Gn2
 .byte   W12
 .byte   Cn2
 .byte   W12
 .byte   Gn2
 .byte   W12
@ 083   ----------------------------------------
Label_4_01EFB3C7:
 .byte   N12 ,Cn2 ,v100
 .byte   W12
 .byte   Gs2
 .byte   W12
 .byte   Cn2
 .byte   W12
 .byte   Gs2
 .byte   W12
 .byte   N24 ,Cn2
 .byte   W12
 .byte   N12 ,An2
 .byte   W12
 .byte   Cn2
 .byte   W12
 .byte   An2
 .byte   W12
 .byte   PEND 
@ 084   ----------------------------------------
Label_4_01EFB3DC:
 .byte   N12 ,Cn2 ,v100
 .byte   W12
 .byte   Gs2
 .byte   W12
 .byte   Cn2
 .byte   W12
 .byte   Gs2
 .byte   W12
 .byte   N24 ,Cn2
 .byte   W12
 .byte   N12 ,Gn2
 .byte   W12
 .byte   Cn2
 .byte   W12
 .byte   Gn2
 .byte   W12
 .byte   PEND 
@ 085   ----------------------------------------
 .byte   PATT
  .word Label_4_01EFB3C7
@ 086   ----------------------------------------
 .byte   PATT
  .word Label_4_01EFB3DC
@ 087   ----------------------------------------
 .byte   N12 ,Cn2 ,v100
 .byte   W12
 .byte   Gs2
 .byte   W12
 .byte   Cn2
 .byte   W12
 .byte   Gs2
 .byte   W12
 .byte   N48 ,An2
 .byte   W48
@ 088   ----------------------------------------
 .byte   W24
 .byte   GOTO
  .word Label_4_01EFAFDD
 .byte   FINE

@**************** Track 6 (Midi-Chn.5) ****************@

SeptetteForTheDeadPrincess_006:
@ 000   ----------------------------------------
 .byte   KEYSH , SeptetteForTheDeadPrincess_key+0
 .byte   VOL , 42*SeptetteForTheDeadPrincess_mvl/mxv
 .byte   PAN , c_v+0
 .byte   VOICE , 36
 .byte   W96
@ 001   ----------------------------------------
 .byte   W96
@ 002   ----------------------------------------
 .byte   W96
@ 003   ----------------------------------------
 .byte   W96
@ 004   ----------------------------------------
 .byte   W96
@ 005   ----------------------------------------
 .byte   W96
@ 006   ----------------------------------------
 .byte   W96
@ 007   ----------------------------------------
 .byte   W96
@ 008   ----------------------------------------
Label_5_01EFB424:
 .byte   N48 ,Cn1 ,v100
 .byte   W48
 .byte   As0
 .byte   W48
 .byte   PEND 
@ 009   ----------------------------------------
 .byte   N96 ,Gs0
 .byte   W96
@ 010   ----------------------------------------
 .byte   PATT
  .word Label_5_01EFB424
@ 011   ----------------------------------------
 .byte   N96 ,An0 ,v100
 .byte   W96
@ 012   ----------------------------------------
 .byte   Fn0
 .byte   W96
@ 013   ----------------------------------------
 .byte   Ds0
 .byte   W96
@ 014   ----------------------------------------
 .byte   N48 ,Fn0
 .byte   W48
 .byte   Gn0
 .byte   W48
@ 015   ----------------------------------------
 .byte   Gs0
 .byte   W48
 .byte   As0
 .byte   W48
@ 016   ----------------------------------------
 .byte   VOICE , 32
 .byte   N12 ,Cn1 ,v080
 .byte   W12
 .byte   Gn1
 .byte   W12
 .byte   Cn1
 .byte   W12
 .byte   Gn1
 .byte   W12
 .byte   Cn1
 .byte   W12
 .byte   Gs1
 .byte   W12
 .byte   Cn1
 .byte   W12
 .byte   Gs1
 .byte   W12
@ 017   ----------------------------------------
 .byte   Cn1
 .byte   W12
 .byte   An1
 .byte   W12
 .byte   Cn1
 .byte   W12
 .byte   An1
 .byte   W12
 .byte   Cn1
 .byte   W12
 .byte   Gs1
 .byte   W12
 .byte   Cn1
 .byte   W12
 .byte   Gs1
 .byte   W12
@ 018   ----------------------------------------
Label_5_01EFB468:
 .byte   N12 ,Cn1 ,v100
 .byte   W12
 .byte   Gn1
 .byte   W12
 .byte   Cn1
 .byte   W12
 .byte   Gn1
 .byte   W12
 .byte   Cn1
 .byte   W12
 .byte   Gs1
 .byte   W12
 .byte   Cn1
 .byte   W12
 .byte   Gs1
 .byte   W12
 .byte   PEND 
@ 019   ----------------------------------------
Label_5_01EFB47B:
 .byte   N12 ,Cn1 ,v100
 .byte   W12
 .byte   An1
 .byte   W12
 .byte   Cn1
 .byte   W12
 .byte   An1
 .byte   W12
 .byte   Cn1
 .byte   W12
 .byte   Gs1
 .byte   W12
 .byte   Cn1
 .byte   W12
 .byte   Gs1
 .byte   W12
 .byte   PEND 
@ 020   ----------------------------------------
 .byte   PATT
  .word Label_5_01EFB468
@ 021   ----------------------------------------
 .byte   PATT
  .word Label_5_01EFB47B
@ 022   ----------------------------------------
 .byte   PATT
  .word Label_5_01EFB468
@ 023   ----------------------------------------
 .byte   N48 ,An1 ,v100
 .byte   W48
Label_5_01EFB4A1:
 .byte   W48
@ 024   ----------------------------------------
Label_5_01EFB4A2:
 .byte   N12 ,Cn1 ,v100
 .byte   W12
 .byte   Gn1
 .byte   W12
 .byte   Cn1
 .byte   W12
 .byte   Gn1
 .byte   W12
 .byte   As0
 .byte   W12
 .byte   Fn1
 .byte   W12
 .byte   As0
 .byte   W12
 .byte   Fn1
 .byte   W12
 .byte   PEND 
@ 025   ----------------------------------------
Label_5_01EFB4B5:
 .byte   N12 ,Gs0 ,v100
 .byte   W12
 .byte   Ds1
 .byte   W12
 .byte   Gs0
 .byte   W12
 .byte   Ds1
 .byte   W12
 .byte   Gs0
 .byte   W12
 .byte   Ds1
 .byte   W12
 .byte   Gs0
 .byte   W12
 .byte   Ds1
 .byte   W12
 .byte   PEND 
@ 026   ----------------------------------------
Label_5_01EFB4C8:
 .byte   N12 ,Cn1 ,v100
 .byte   W12
 .byte   Gn1
 .byte   W12
 .byte   Cn1
 .byte   W12
 .byte   Gn1
 .byte   W12
 .byte   As0
 .byte   W12
 .byte   Gn1
 .byte   W12
 .byte   As0
 .byte   W12
 .byte   Gn1
 .byte   W12
 .byte   PEND 
@ 027   ----------------------------------------
Label_5_01EFB4DB:
 .byte   N12 ,An0 ,v100
 .byte   W12
 .byte   Fn1
 .byte   W12
 .byte   An0
 .byte   W12
 .byte   Fn1
 .byte   W12
 .byte   An0
 .byte   W12
 .byte   Fn1
 .byte   W12
 .byte   An0
 .byte   W12
 .byte   Fn1
 .byte   W12
 .byte   PEND 
@ 028   ----------------------------------------
Label_5_01EFB4EE:
 .byte   N12 ,Fn0 ,v100
 .byte   W12
 .byte   Cn1
 .byte   W12
 .byte   Fn0
 .byte   W12
 .byte   Cn1
 .byte   W12
 .byte   Fn0
 .byte   W12
 .byte   Cn1
 .byte   W12
 .byte   Fn0
 .byte   W12
 .byte   Cn1
 .byte   W12
 .byte   PEND 
@ 029   ----------------------------------------
Label_5_01EFB501:
 .byte   N12 ,Ds0 ,v100
 .byte   W12
 .byte   As0
 .byte   W12
 .byte   Ds0
 .byte   W12
 .byte   As0
 .byte   W12
 .byte   Ds0
 .byte   W12
 .byte   As0
 .byte   W12
 .byte   Ds0
 .byte   W12
 .byte   As0
 .byte   W12
 .byte   PEND 
@ 030   ----------------------------------------
Label_5_01EFB514:
 .byte   N12 ,Fn0 ,v100
 .byte   W12
 .byte   Cn1
 .byte   W12
 .byte   Fn0
 .byte   W12
 .byte   Cn1
 .byte   W12
 .byte   Gn0
 .byte   W12
 .byte   Dn1
 .byte   W12
 .byte   Gn0
 .byte   W12
 .byte   Dn1
 .byte   W12
 .byte   PEND 
@ 031   ----------------------------------------
 .byte   Gs0
 .byte   W12
 .byte   Ds1
 .byte   W12
 .byte   Gs0
 .byte   W12
 .byte   Ds1
 .byte   W12
 .byte   As0
 .byte   W12
 .byte   Fn1
 .byte   W12
 .byte   As0
 .byte   W12
 .byte   Fn1
 .byte   W12
@ 032   ----------------------------------------
 .byte   PATT
  .word Label_5_01EFB4A2
@ 033   ----------------------------------------
 .byte   PATT
  .word Label_5_01EFB4B5
@ 034   ----------------------------------------
 .byte   PATT
  .word Label_5_01EFB4C8
@ 035   ----------------------------------------
 .byte   PATT
  .word Label_5_01EFB4DB
@ 036   ----------------------------------------
 .byte   PATT
  .word Label_5_01EFB4EE
@ 037   ----------------------------------------
 .byte   PATT
  .word Label_5_01EFB501
@ 038   ----------------------------------------
 .byte   PATT
  .word Label_5_01EFB514
@ 039   ----------------------------------------
 .byte   N12 ,Gs0 ,v100
 .byte   W12
 .byte   Ds1
 .byte   W12
 .byte   Gs0
 .byte   W12
 .byte   Ds1
 .byte   W12
 .byte   As0
 .byte   W12
 .byte   Fn1
 .byte   W12
 .byte   As1
 .byte   W12
 .byte   Cs2
 .byte   W12
@ 040   ----------------------------------------
 .byte   VOICE , 36
 .byte   N06 ,Bn0 ,v080
 .byte   N06 ,Fs1
 .byte   W12
 .byte   Bn0
 .byte   N06 ,Fs1
 .byte   W12
 .byte   Bn0
 .byte   N06 ,Fs1
 .byte   W12
 .byte   Bn0
 .byte   N06 ,Fs1
 .byte   W12
 .byte   Bn0
 .byte   N06 ,Fs1
 .byte   W12
 .byte   Bn0
 .byte   N06 ,Fs1
 .byte   W12
 .byte   Bn0
 .byte   N06 ,Fs1
 .byte   W12
 .byte   Bn0
 .byte   N06 ,Fs1
 .byte   W12
@ 041   ----------------------------------------
 .byte   Cs1
 .byte   N06 ,Gs1
 .byte   W12
 .byte   Cs1
 .byte   N06 ,Gs1
 .byte   W12
 .byte   Cs1
 .byte   N06 ,Gs1
 .byte   W12
 .byte   Cs1
 .byte   N06 ,Gs1
 .byte   W12
 .byte   Cs1
 .byte   N06 ,Gs1
 .byte   W12
 .byte   Cs1
 .byte   N06 ,Gs1
 .byte   W12
 .byte   Cs1
 .byte   N06 ,Gs1
 .byte   W12
 .byte   Cs1
 .byte   N06 ,Gs1
 .byte   W12
@ 042   ----------------------------------------
 .byte   Dn1
 .byte   N06 ,Gs1
 .byte   W12
 .byte   Dn1
 .byte   N06 ,Gs1
 .byte   W12
 .byte   Dn1
 .byte   N06 ,Gs1
 .byte   W12
 .byte   Dn1
 .byte   N06 ,Gs1
 .byte   W12
 .byte   Dn1
 .byte   N06 ,Gs1
 .byte   W12
 .byte   Dn1
 .byte   N06 ,Gs1
 .byte   W12
 .byte   Dn1
 .byte   N06 ,Gs1
 .byte   W12
 .byte   Dn1
 .byte   N06 ,Gs1
 .byte   W12
@ 043   ----------------------------------------
 .byte   Ds1
 .byte   N06 ,As1
 .byte   W12
 .byte   Ds1
 .byte   N06 ,As1
 .byte   W12
 .byte   Ds1
 .byte   N06 ,As1
 .byte   W12
 .byte   Ds1
 .byte   N06 ,As1
 .byte   W12
 .byte   Ds1
 .byte   N06 ,As1
 .byte   W12
 .byte   Ds1
 .byte   N06 ,As1
 .byte   W12
 .byte   Ds1
 .byte   N06 ,As1
 .byte   W12
 .byte   Ds1
 .byte   N06 ,As1
 .byte   W12
@ 044   ----------------------------------------
 .byte   Bn0 ,v100
 .byte   N06 ,Fs1
 .byte   W12
 .byte   Bn0
 .byte   N06 ,Fs1
 .byte   W12
 .byte   Bn0
 .byte   N06 ,Fs1
 .byte   W12
 .byte   Bn0
 .byte   N06 ,Fs1
 .byte   W12
 .byte   Bn0
 .byte   N06 ,Fs1
 .byte   W12
 .byte   Bn0
 .byte   N06 ,Fs1
 .byte   W12
 .byte   Bn0
 .byte   N06 ,Fs1
 .byte   W12
 .byte   Bn0
 .byte   N06 ,Fs1
 .byte   W12
@ 045   ----------------------------------------
 .byte   Cs1
 .byte   N06 ,Gs1
 .byte   W12
 .byte   Cs1
 .byte   N06 ,Gs1
 .byte   W12
 .byte   Cs1
 .byte   N06 ,Gs1
 .byte   W12
 .byte   Cs1
 .byte   N06 ,Gs1
 .byte   W12
 .byte   Cs1
 .byte   N06 ,Gs1
 .byte   W12
 .byte   Cs1
 .byte   N06 ,Gs1
 .byte   W12
 .byte   Cs1
 .byte   N06 ,Gs1
 .byte   W12
 .byte   Cs1
 .byte   N06 ,Gs1
 .byte   W12
@ 046   ----------------------------------------
 .byte   Dn1
 .byte   N06 ,Gs1
 .byte   W12
 .byte   Dn1
 .byte   N06 ,Gs1
 .byte   W12
 .byte   Dn1
 .byte   N06 ,Gs1
 .byte   W12
 .byte   Dn1
 .byte   N06 ,Gs1
 .byte   W12
 .byte   Dn1
 .byte   N06 ,Gs1
 .byte   W12
 .byte   Dn1
 .byte   N06 ,Gs1
 .byte   W12
 .byte   Dn1
 .byte   N06 ,Gs1
 .byte   W12
 .byte   Dn1
 .byte   N06 ,Gs1
 .byte   W12
@ 047   ----------------------------------------
 .byte   N24 ,As0
 .byte   N24 ,Ds1
 .byte   W36
 .byte   As0
 .byte   N24 ,Ds1
 .byte   W36
 .byte   N12 ,As0
 .byte   N12 ,Ds1
 .byte   W12
 .byte   As0
 .byte   N12 ,Ds1
 .byte   W12
@ 048   ----------------------------------------
 .byte   W48
 .byte   N06 ,Ds2 ,v120
 .byte   W06
 .byte   Gn2
 .byte   W06
 .byte   As2
 .byte   W06
 .byte   Gn2
 .byte   W06
 .byte   As2
 .byte   W06
 .byte   Ds2
 .byte   W06
 .byte   Gn2
 .byte   W06
 .byte   As2
 .byte   W06
@ 049   ----------------------------------------
Label_5_01EFB676:
 .byte   N06 ,Ds2 ,v120
 .byte   W06
 .byte   Gn2
 .byte   W06
 .byte   As2
 .byte   W06
 .byte   Gn2
 .byte   W06
 .byte   As2
 .byte   W06
 .byte   Ds2
 .byte   W06
 .byte   Gn2
 .byte   W06
 .byte   As2
 .byte   W06
 .byte   Ds2
 .byte   W06
 .byte   N06
 .byte   W06
 .byte   As2
 .byte   W06
 .byte   Ds2
 .byte   W06
 .byte   N06
 .byte   W06
 .byte   As2
 .byte   W06
 .byte   Ds2
 .byte   W06
 .byte   N06
 .byte   W06
 .byte   PEND 
@ 050   ----------------------------------------
Label_5_01EFB699:
 .byte   N06 ,As2 ,v120
 .byte   W06
 .byte   Ds2
 .byte   W06
 .byte   N06
 .byte   W06
 .byte   As2
 .byte   W06
 .byte   Fn2
 .byte   W06
 .byte   N06
 .byte   W06
 .byte   Cn3
 .byte   W06
 .byte   Fn2
 .byte   W06
 .byte   Gn2
 .byte   W06
 .byte   N06
 .byte   W06
 .byte   Dn3
 .byte   W06
 .byte   As2
 .byte   W06
 .byte   Dn3
 .byte   W06
 .byte   Fn3
 .byte   W06
 .byte   Dn3
 .byte   W06
 .byte   As2
 .byte   W06
 .byte   PEND 
@ 051   ----------------------------------------
Label_5_01EFB6BC:
 .byte   N06 ,As2 ,v120
 .byte   W06
 .byte   Dn3
 .byte   W06
 .byte   Gn2
 .byte   W06
 .byte   Dn3
 .byte   W06
 .byte   As2
 .byte   W06
 .byte   Dn3
 .byte   W06
 .byte   Gn2
 .byte   W06
 .byte   Dn3
 .byte   W06
 .byte   Gn2
 .byte   W06
 .byte   As2
 .byte   W06
 .byte   Dn3
 .byte   W06
 .byte   Gn2
 .byte   W06
 .byte   N06
 .byte   W06
 .byte   Dn3
 .byte   W06
 .byte   As2
 .byte   W06
 .byte   Dn3
 .byte   W06
 .byte   PEND 
@ 052   ----------------------------------------
Label_5_01EFB6DF:
 .byte   N06 ,Gn2 ,v120
 .byte   W06
 .byte   Dn3
 .byte   W06
 .byte   As2
 .byte   W06
 .byte   Dn3
 .byte   W06
 .byte   Gn2
 .byte   W06
 .byte   Dn3
 .byte   W06
 .byte   As2
 .byte   W06
 .byte   Dn3
 .byte   W06
 .byte   Fn2
 .byte   W06
 .byte   Cn3
 .byte   W06
 .byte   An2
 .byte   W06
 .byte   Cn3
 .byte   W06
 .byte   Fn2
 .byte   W06
 .byte   An2
 .byte   W06
 .byte   Cn3
 .byte   W06
 .byte   An2
 .byte   W06
 .byte   PEND 
@ 053   ----------------------------------------
Label_5_01EFB702:
 .byte   N06 ,An2 ,v120
 .byte   W06
 .byte   Cn3
 .byte   W06
 .byte   An2
 .byte   W06
 .byte   Cn3
 .byte   W06
 .byte   An2
 .byte   W06
 .byte   Cn3
 .byte   W06
 .byte   Ds2
 .byte   W06
 .byte   Cn3
 .byte   W06
 .byte   Ds2
 .byte   W06
 .byte   Cn3
 .byte   W06
 .byte   An2
 .byte   W06
 .byte   Cn3
 .byte   W06
 .byte   Ds2
 .byte   W06
 .byte   An2
 .byte   W06
 .byte   Cn3
 .byte   W06
 .byte   Ds2
 .byte   W06
 .byte   PEND 
@ 054   ----------------------------------------
Label_5_01EFB725:
 .byte   N06 ,An2 ,v120
 .byte   W06
 .byte   Cn3
 .byte   W06
 .byte   Ds2
 .byte   W06
 .byte   Cn3
 .byte   W06
 .byte   N12 ,An2
 .byte   W12
 .byte   N06 ,Ds2
 .byte   N06 ,Cn3
 .byte   W06
 .byte   An2
 .byte   W06
 .byte   Ds2
 .byte   W06
 .byte   N06
 .byte   W06
 .byte   As2
 .byte   W06
 .byte   Ds2
 .byte   W06
 .byte   Gn2
 .byte   W06
 .byte   As2
 .byte   W06
 .byte   Ds2
 .byte   W06
 .byte   As2
 .byte   W06
 .byte   PEND 
@ 055   ----------------------------------------
Label_5_01EFB74A:
 .byte   N06 ,Fn2 ,v120
 .byte   W06
 .byte   An2
 .byte   W06
 .byte   Cn3
 .byte   W06
 .byte   An2
 .byte   W06
 .byte   Cn3
 .byte   W06
 .byte   Fn3
 .byte   W06
 .byte   Cn3
 .byte   W06
 .byte   An2
 .byte   W06
 .byte   Gn2
 .byte   W06
 .byte   N06
 .byte   W06
 .byte   Dn3
 .byte   W06
 .byte   Gn2
 .byte   W06
 .byte   N06
 .byte   W06
 .byte   Dn3
 .byte   W06
 .byte   Gn2
 .byte   W06
 .byte   Dn3
 .byte   W06
 .byte   PEND 
@ 056   ----------------------------------------
Label_5_01EFB76D:
 .byte   N06 ,Gn2 ,v120
 .byte   W06
 .byte   N06
 .byte   W06
 .byte   Dn3
 .byte   W06
 .byte   Gn2
 .byte   W06
 .byte   Dn3
 .byte   W06
 .byte   N06
 .byte   W06
 .byte   Fn2
 .byte   W06
 .byte   Cn3
 .byte   W06
 .byte   Ds2
 .byte   W06
 .byte   Gn2
 .byte   W06
 .byte   As2
 .byte   W06
 .byte   Gn2
 .byte   W06
 .byte   As2
 .byte   W06
 .byte   Ds2
 .byte   W06
 .byte   Gn2
 .byte   W06
 .byte   As2
 .byte   W06
 .byte   PEND 
@ 057   ----------------------------------------
 .byte   PATT
  .word Label_5_01EFB676
@ 058   ----------------------------------------
 .byte   PATT
  .word Label_5_01EFB699
@ 059   ----------------------------------------
 .byte   PATT
  .word Label_5_01EFB6BC
@ 060   ----------------------------------------
 .byte   PATT
  .word Label_5_01EFB6DF
@ 061   ----------------------------------------
 .byte   PATT
  .word Label_5_01EFB702
@ 062   ----------------------------------------
 .byte   PATT
  .word Label_5_01EFB725
@ 063   ----------------------------------------
 .byte   PATT
  .word Label_5_01EFB74A
@ 064   ----------------------------------------
 .byte   PATT
  .word Label_5_01EFB76D
@ 065   ----------------------------------------
 .byte   PATT
  .word Label_5_01EFB676
@ 066   ----------------------------------------
 .byte   PATT
  .word Label_5_01EFB699
@ 067   ----------------------------------------
 .byte   PATT
  .word Label_5_01EFB6BC
@ 068   ----------------------------------------
 .byte   PATT
  .word Label_5_01EFB6DF
@ 069   ----------------------------------------
 .byte   PATT
  .word Label_5_01EFB702
@ 070   ----------------------------------------
 .byte   PATT
  .word Label_5_01EFB725
@ 071   ----------------------------------------
 .byte   PATT
  .word Label_5_01EFB74A
@ 072   ----------------------------------------
 .byte   PATT
  .word Label_5_01EFB76D
@ 073   ----------------------------------------
 .byte   PATT
  .word Label_5_01EFB676
@ 074   ----------------------------------------
 .byte   PATT
  .word Label_5_01EFB699
@ 075   ----------------------------------------
 .byte   PATT
  .word Label_5_01EFB6BC
@ 076   ----------------------------------------
 .byte   PATT
  .word Label_5_01EFB6DF
@ 077   ----------------------------------------
 .byte   PATT
  .word Label_5_01EFB702
@ 078   ----------------------------------------
 .byte   PATT
  .word Label_5_01EFB725
@ 079   ----------------------------------------
 .byte   PATT
  .word Label_5_01EFB74A
@ 080   ----------------------------------------
 .byte   N06 ,Gn2 ,v120
 .byte   W06
 .byte   N06
 .byte   W06
 .byte   Dn3
 .byte   W06
 .byte   Gn2
 .byte   W06
 .byte   Dn3
 .byte   W06
 .byte   N06
 .byte   W06
 .byte   Fn2
 .byte   W06
 .byte   Cn3
 .byte   W06
 .byte   VOICE , 32
 .byte   N12 ,Cn1 ,v080
 .byte   W12
 .byte   Gn1
 .byte   W12
 .byte   Cn1
 .byte   W12
 .byte   Gn1
 .byte   W12
@ 081   ----------------------------------------
 .byte   Cn1
 .byte   W12
 .byte   Gs1
 .byte   W12
 .byte   Cn1
 .byte   W12
 .byte   Gs1
 .byte   W12
 .byte   Cn1
 .byte   W12
 .byte   An1
 .byte   W12
 .byte   Cn1
 .byte   W12
 .byte   An1
 .byte   W12
@ 082   ----------------------------------------
 .byte   Cn1
 .byte   W12
 .byte   Gs1
 .byte   W12
 .byte   Cn1
 .byte   W12
 .byte   Gs1
 .byte   W12
 .byte   Cn1 ,v100
 .byte   W12
 .byte   Gn1
 .byte   W12
 .byte   Cn1
 .byte   W12
 .byte   Gn1
 .byte   W12
@ 083   ----------------------------------------
Label_5_01EFB842:
 .byte   N12 ,Cn1 ,v100
 .byte   W12
 .byte   Gs1
 .byte   W12
 .byte   Cn1
 .byte   W12
 .byte   Gs1
 .byte   W12
 .byte   Cn1
 .byte   W12
 .byte   An1
 .byte   W12
 .byte   Cn1
 .byte   W12
 .byte   An1
 .byte   W12
 .byte   PEND 
@ 084   ----------------------------------------
Label_5_01EFB855:
 .byte   N12 ,Cn1 ,v100
 .byte   W12
 .byte   Gs1
 .byte   W12
 .byte   Cn1
 .byte   W12
 .byte   Gs1
 .byte   W12
 .byte   Cn1
 .byte   W12
 .byte   Gn1
 .byte   W12
 .byte   Cn1
 .byte   W12
 .byte   Gn1
 .byte   W12
 .byte   PEND 
@ 085   ----------------------------------------
 .byte   PATT
  .word Label_5_01EFB842
@ 086   ----------------------------------------
 .byte   PATT
  .word Label_5_01EFB855
@ 087   ----------------------------------------
 .byte   N12 ,Cn1 ,v100
 .byte   W12
 .byte   Gs1
 .byte   W12
 .byte   Cn1
 .byte   W12
 .byte   Gs1
 .byte   W12
 .byte   N48 ,An1
 .byte   W48
@ 088   ----------------------------------------
 .byte   W24
 .byte   GOTO
  .word Label_5_01EFB4A1
 .byte   FINE

@**************** Track 7 (Midi-Chn.6) ****************@

SeptetteForTheDeadPrincess_007:
@ 000   ----------------------------------------
 .byte   KEYSH , SeptetteForTheDeadPrincess_key+0
 .byte   VOL , 42*SeptetteForTheDeadPrincess_mvl/mxv
 .byte   PAN , c_v+0
 .byte   VOICE , 62
 .byte   W96
@ 001   ----------------------------------------
 .byte   W96
@ 002   ----------------------------------------
 .byte   W96
@ 003   ----------------------------------------
 .byte   W96
@ 004   ----------------------------------------
 .byte   W96
@ 005   ----------------------------------------
 .byte   W96
@ 006   ----------------------------------------
 .byte   W96
@ 007   ----------------------------------------
 .byte   W96
@ 008   ----------------------------------------
 .byte   W96
@ 009   ----------------------------------------
 .byte   W96
@ 010   ----------------------------------------
 .byte   W96
@ 011   ----------------------------------------
 .byte   W96
@ 012   ----------------------------------------
 .byte   W96
@ 013   ----------------------------------------
 .byte   W96
@ 014   ----------------------------------------
 .byte   W96
@ 015   ----------------------------------------
 .byte   W96
@ 016   ----------------------------------------
 .byte   W96
@ 017   ----------------------------------------
 .byte   W96
@ 018   ----------------------------------------
 .byte   W96
@ 019   ----------------------------------------
 .byte   W96
@ 020   ----------------------------------------
 .byte   W96
@ 021   ----------------------------------------
 .byte   W96
@ 022   ----------------------------------------
 .byte   W96
@ 023   ----------------------------------------
 .byte   W48
Label_6_01EFB8AC:
 .byte   W48
@ 024   ----------------------------------------
 .byte   W96
@ 025   ----------------------------------------
 .byte   W96
@ 026   ----------------------------------------
 .byte   W96
@ 027   ----------------------------------------
 .byte   W96
@ 028   ----------------------------------------
 .byte   W96
@ 029   ----------------------------------------
 .byte   W96
@ 030   ----------------------------------------
 .byte   W96
@ 031   ----------------------------------------
 .byte   W60
 .byte   N24 ,Dn3 ,v127
 .byte   N24 ,Dn4
 .byte   W24
 .byte   N12 ,Fn3
 .byte   N12 ,Fn4
 .byte   W12
@ 032   ----------------------------------------
 .byte   N36 ,Gn3
 .byte   N36 ,Gn4
 .byte   W36
 .byte   N12 ,As3
 .byte   N12 ,As4
 .byte   W12
 .byte   N36 ,Fn3
 .byte   N36 ,Fn4
 .byte   W36
 .byte   N12 ,Gn3
 .byte   N12 ,Gn4
 .byte   W12
@ 033   ----------------------------------------
 .byte   N60 ,Ds3
 .byte   N60 ,Ds4
 .byte   W60
 .byte   N12 ,Ds3
 .byte   N12 ,Ds4
 .byte   W12
 .byte   Ds3
 .byte   N12 ,Ds4
 .byte   W12
 .byte   Fn3
 .byte   N12 ,Fn4
 .byte   W12
@ 034   ----------------------------------------
 .byte   N36 ,Gn3
 .byte   N36 ,Gn4
 .byte   W36
 .byte   N24 ,As3
 .byte   N24 ,As4
 .byte   W24
 .byte   N12 ,Cn4
 .byte   N12 ,Cn5
 .byte   W12
 .byte   As3
 .byte   N12 ,As4
 .byte   W12
 .byte   As3
 .byte   N12 ,As4
 .byte   W12
@ 035   ----------------------------------------
 .byte   N60 ,An3
 .byte   N60 ,An4
 .byte   W60
 .byte   N12 ,Cn4
 .byte   N12 ,Cn5
 .byte   W12
 .byte   Dn4
 .byte   N12 ,Dn5
 .byte   W12
 .byte   Ds4
 .byte   N12 ,Ds5
 .byte   W12
@ 036   ----------------------------------------
 .byte   N24 ,Gs3
 .byte   N24 ,Gs4
 .byte   W24
 .byte   N36 ,Gs3
 .byte   N36 ,Gs4
 .byte   W36
 .byte   N12 ,Gs3
 .byte   N12 ,Gs4
 .byte   W12
 .byte   As3
 .byte   N12 ,As4
 .byte   W12
 .byte   Dn4
 .byte   N12 ,Dn5
 .byte   W12
@ 037   ----------------------------------------
 .byte   N24 ,Gn3
 .byte   N24 ,Gn4
 .byte   W24
 .byte   N36 ,Gn3
 .byte   N36 ,Gn4
 .byte   W36
 .byte   N12 ,Ds3
 .byte   N12 ,Ds4
 .byte   W12
 .byte   Ds3
 .byte   N12 ,Ds4
 .byte   W12
 .byte   Fn3
 .byte   N12 ,Fn4
 .byte   W12
@ 038   ----------------------------------------
 .byte   N36 ,Gn3
 .byte   N36 ,Gn4
 .byte   W36
 .byte   N12 ,As3
 .byte   N12 ,As4
 .byte   W12
 .byte   N36 ,Fn3
 .byte   N36 ,Fn4
 .byte   W36
 .byte   N12 ,Dn3
 .byte   N12 ,Dn4
 .byte   W12
@ 039   ----------------------------------------
 .byte   N48 ,Ds3
 .byte   N48 ,Ds4
 .byte   W48
 .byte   Fn3
 .byte   N48 ,Fn4
 .byte   W48
@ 040   ----------------------------------------
 .byte   W96
@ 041   ----------------------------------------
 .byte   W96
@ 042   ----------------------------------------
 .byte   W96
@ 043   ----------------------------------------
 .byte   W96
@ 044   ----------------------------------------
 .byte   W96
@ 045   ----------------------------------------
 .byte   W96
@ 046   ----------------------------------------
 .byte   W96
@ 047   ----------------------------------------
 .byte   N24 ,As3 ,v100
 .byte   N24 ,As4
 .byte   W36
 .byte   As3
 .byte   N24 ,As4
 .byte   W36
 .byte   N12 ,As3
 .byte   N12 ,As4
 .byte   W12
 .byte   As3
 .byte   N12 ,As4
 .byte   W12
@ 048   ----------------------------------------
Label_6_01EFB974:
 .byte   W24
 .byte   N12 ,Dn3 ,v100
 .byte   N12 ,Gn3
 .byte   W12
 .byte   As3
 .byte   N12 ,Dn4
 .byte   W12
 .byte   N36 ,An3
 .byte   N36 ,Cn4
 .byte   W36
 .byte   N12 ,Gn3
 .byte   N12 ,As3
 .byte   W12
 .byte   PEND 
@ 049   ----------------------------------------
Label_6_01EFB98A:
 .byte   N18 ,Fn3 ,v100
 .byte   N18 ,An3
 .byte   W18
 .byte   Dn3
 .byte   N18 ,Fn3
 .byte   W18
 .byte   N84 ,Ds3
 .byte   N84 ,Gn3
 .byte   W60
 .byte   PEND 
@ 050   ----------------------------------------
 .byte   PATT
  .word Label_6_01EFB974
@ 051   ----------------------------------------
Label_6_01EFB99F:
 .byte   N18 ,Fn3 ,v100
 .byte   N18 ,An3
 .byte   W18
 .byte   Cn4
 .byte   N18 ,Fn4
 .byte   W18
 .byte   N96 ,As3
 .byte   N96 ,Dn4
 .byte   W60
 .byte   PEND 
@ 052   ----------------------------------------
Label_6_01EFB9AF:
 .byte   W24
 .byte   N12 ,Dn3 ,v100
 .byte   N12 ,Gn3
 .byte   W12
 .byte   N48 ,As3
 .byte   TIE ,Dn4
 .byte   W12
 .byte   N36 ,An3
 .byte   N36 ,Cn4
 .byte   W36
 .byte   N12 ,Gn3
 .byte   N60 ,As3
 .byte   W12
 .byte   PEND 
@ 053   ----------------------------------------
Label_6_01EFB9C6:
 .byte   N18 ,Fn3 ,v100
 .byte   N18 ,An3
 .byte   W18
 .byte   Dn3
 .byte   N18 ,Fn3
 .byte   W18
 .byte   N12 ,Ds3
 .byte   N12 ,Gn3
 .byte   W12
 .byte   PEND 
 .byte   EOT
 .byte   Dn4
 .byte   W48
@ 054   ----------------------------------------
Label_6_01EFB9D9:
 .byte   W24
 .byte   N12 ,Dn3 ,v100
 .byte   N12 ,Gn3
 .byte   W12
 .byte   Fn3
 .byte   N12 ,An3
 .byte   W12
 .byte   Gn3
 .byte   N12 ,As3
 .byte   W12
 .byte   Fn3
 .byte   N12 ,An3
 .byte   W12
 .byte   Dn3
 .byte   N12 ,Fn3
 .byte   W12
 .byte   N60 ,Dn3
 .byte   N60 ,Gn3
 .byte   W12
 .byte   PEND 
@ 055   ----------------------------------------
 .byte   W48
 .byte   N72 ,As3
 .byte   N72 ,Dn4
 .byte   W48
@ 056   ----------------------------------------
 .byte   PATT
  .word Label_6_01EFB974
@ 057   ----------------------------------------
 .byte   PATT
  .word Label_6_01EFB98A
@ 058   ----------------------------------------
 .byte   PATT
  .word Label_6_01EFB974
@ 059   ----------------------------------------
 .byte   PATT
  .word Label_6_01EFB99F
@ 060   ----------------------------------------
 .byte   PATT
  .word Label_6_01EFB9AF
@ 061   ----------------------------------------
 .byte   PATT
  .word Label_6_01EFB9C6
@ 062   ----------------------------------------
 .byte   EOT
 .byte   Dn4
 .byte   W48
@ 063   ----------------------------------------
 .byte   PATT
  .word Label_6_01EFB9D9
@ 064   ----------------------------------------
 .byte   W48
 .byte   N96 ,As3 ,v100
 .byte   N96 ,Dn4
 .byte   W48
@ 065   ----------------------------------------
 .byte   W48
 .byte   N36 ,An3 ,v060
 .byte   N36 ,Cn4
 .byte   W36
 .byte   N12 ,Gn3
 .byte   N12 ,As3
 .byte   W12
@ 066   ----------------------------------------
Label_6_01EFBA35:
 .byte   N18 ,Fn3 ,v060
 .byte   N18 ,An3
 .byte   W18
 .byte   Dn3
 .byte   N18 ,Fn3
 .byte   W18
 .byte   N84 ,Ds3
 .byte   N84 ,Gn3
 .byte   W60
 .byte   PEND 
@ 067   ----------------------------------------
Label_6_01EFBA45:
 .byte   W24
 .byte   N12 ,Dn3 ,v060
 .byte   N12 ,Gn3
 .byte   W12
 .byte   As3
 .byte   N12 ,Dn4
 .byte   W12
 .byte   N36 ,An3
 .byte   N36 ,Cn4
 .byte   W36
 .byte   N12 ,Gn3
 .byte   N12 ,As3
 .byte   W12
 .byte   PEND 
@ 068   ----------------------------------------
Label_6_01EFBA5B:
 .byte   N18 ,Fn3 ,v060
 .byte   N18 ,An3
 .byte   W18
 .byte   Cn4
 .byte   N18 ,Fn4
 .byte   W18
 .byte   N96 ,As3
 .byte   N96 ,Dn4
 .byte   W60
 .byte   PEND 
@ 069   ----------------------------------------
Label_6_01EFBA6B:
 .byte   W24
 .byte   N12 ,Dn3 ,v060
 .byte   N12 ,Gn3
 .byte   W12
 .byte   N48 ,As3
 .byte   TIE ,Dn4
 .byte   W12
 .byte   N36 ,An3
 .byte   N36 ,Cn4
 .byte   W36
 .byte   N12 ,Gn3
 .byte   N60 ,As3
 .byte   W12
 .byte   PEND 
@ 070   ----------------------------------------
Label_6_01EFBA82:
 .byte   N18 ,Fn3 ,v060
 .byte   N18 ,An3
 .byte   W18
 .byte   Dn3
 .byte   N18 ,Fn3
 .byte   W18
 .byte   N12 ,Ds3
 .byte   N12 ,Gn3
 .byte   W12
 .byte   PEND 
 .byte   EOT
 .byte   Dn4
 .byte   W48
@ 071   ----------------------------------------
Label_6_01EFBA95:
 .byte   W24
 .byte   N12 ,Dn3 ,v060
 .byte   N12 ,Gn3
 .byte   W12
 .byte   Fn3
 .byte   N12 ,An3
 .byte   W12
 .byte   Gn3
 .byte   N12 ,As3
 .byte   W12
 .byte   Fn3
 .byte   N12 ,An3
 .byte   W12
 .byte   Dn3
 .byte   N12 ,Fn3
 .byte   W12
 .byte   N60 ,Dn3
 .byte   N60 ,Gn3
 .byte   W12
 .byte   PEND 
@ 072   ----------------------------------------
 .byte   W48
 .byte   N72 ,As3
 .byte   N72 ,Dn4
 .byte   W48
@ 073   ----------------------------------------
 .byte   PATT
  .word Label_6_01EFBA45
@ 074   ----------------------------------------
 .byte   PATT
  .word Label_6_01EFBA35
@ 075   ----------------------------------------
 .byte   PATT
  .word Label_6_01EFBA45
@ 076   ----------------------------------------
 .byte   PATT
  .word Label_6_01EFBA5B
@ 077   ----------------------------------------
 .byte   PATT
  .word Label_6_01EFBA6B
@ 078   ----------------------------------------
 .byte   PATT
  .word Label_6_01EFBA82
@ 079   ----------------------------------------
 .byte   EOT
 .byte   Dn4
 .byte   W48
@ 080   ----------------------------------------
 .byte   PATT
  .word Label_6_01EFBA95
@ 081   ----------------------------------------
 .byte   W48
 .byte   N96 ,As3 ,v060
 .byte   N96 ,Dn4
 .byte   W48
@ 082   ----------------------------------------
 .byte   W96
@ 083   ----------------------------------------
 .byte   W96
@ 084   ----------------------------------------
 .byte   W96
@ 085   ----------------------------------------
 .byte   W96
@ 086   ----------------------------------------
 .byte   W96
@ 087   ----------------------------------------
 .byte   W96
@ 088   ----------------------------------------
 .byte   W96
@ 089   ----------------------------------------
 .byte   W96
@ 090   ----------------------------------------
 .byte   W24
 .byte   GOTO
  .word Label_6_01EFB8AC
 .byte   FINE

@**************** Track 8 (Midi-Chn.7) ****************@

SeptetteForTheDeadPrincess_008:
@ 000   ----------------------------------------
 .byte   KEYSH , SeptetteForTheDeadPrincess_key+0
 .byte   VOL , 42*SeptetteForTheDeadPrincess_mvl/mxv
 .byte   PAN , c_v+0
 .byte   VOICE , 52
Label_7_01EFBB00:
 .byte   N72 ,Fs3 ,v080
 .byte   W72
 .byte   N24 ,Gn3
 .byte   W24
 .byte   PEND 
@ 001   ----------------------------------------
 .byte   PATT
  .word Label_7_01EFBB00
@ 002   ----------------------------------------
 .byte   PATT
  .word Label_7_01EFBB00
@ 003   ----------------------------------------
 .byte   PATT
  .word Label_7_01EFBB00
@ 004   ----------------------------------------
 .byte   N96 ,Dn3 ,v080
 .byte   W96
@ 005   ----------------------------------------
 .byte   En3
 .byte   W96
@ 006   ----------------------------------------
 .byte   PATT
  .word Label_7_01EFBB00
@ 007   ----------------------------------------
 .byte   N48 ,Fs3 ,v080
 .byte   W96
@ 008   ----------------------------------------
 .byte   W96
@ 009   ----------------------------------------
 .byte   W96
@ 010   ----------------------------------------
 .byte   W96
@ 011   ----------------------------------------
 .byte   W96
@ 012   ----------------------------------------
 .byte   W96
@ 013   ----------------------------------------
 .byte   W96
@ 014   ----------------------------------------
 .byte   W96
@ 015   ----------------------------------------
 .byte   W96
@ 016   ----------------------------------------
 .byte   W96
@ 017   ----------------------------------------
 .byte   W96
@ 018   ----------------------------------------
 .byte   W96
@ 019   ----------------------------------------
 .byte   W96
@ 020   ----------------------------------------
 .byte   W96
@ 021   ----------------------------------------
 .byte   W96
@ 022   ----------------------------------------
 .byte   W96
@ 023   ----------------------------------------
 .byte   W48
Label_7_01EFBB36:
 .byte   W48
@ 024   ----------------------------------------
Label_7_01EFBB37:
 .byte   N48 ,Cn3 ,v080
 .byte   N48 ,Gn3
 .byte   W48
 .byte   As2
 .byte   N48 ,Fn3
 .byte   W48
 .byte   PEND 
@ 025   ----------------------------------------
 .byte   N96 ,Gs2
 .byte   N96 ,Ds3
 .byte   W96
@ 026   ----------------------------------------
 .byte   PATT
  .word Label_7_01EFBB37
@ 027   ----------------------------------------
 .byte   N96 ,An2 ,v080
 .byte   N96 ,Gn3
 .byte   W96
@ 028   ----------------------------------------
 .byte   As2
 .byte   N96 ,Fn3
 .byte   W96
@ 029   ----------------------------------------
 .byte   Gs2
 .byte   N96 ,Ds3
 .byte   W96
@ 030   ----------------------------------------
Label_7_01EFBB5A:
 .byte   N48 ,Fn2 ,v080
 .byte   N48 ,As2
 .byte   W48
 .byte   Gn2
 .byte   N48 ,Cn3
 .byte   W48
 .byte   PEND 
@ 031   ----------------------------------------
Label_7_01EFBB65:
 .byte   N48 ,Gs2 ,v080
 .byte   N48 ,Cn3
 .byte   W48
 .byte   As2
 .byte   N48 ,Dn3
 .byte   W48
 .byte   PEND 
@ 032   ----------------------------------------
 .byte   PATT
  .word Label_7_01EFBB37
@ 033   ----------------------------------------
 .byte   N96 ,Gs2 ,v080
 .byte   N96 ,Ds3
 .byte   W96
@ 034   ----------------------------------------
 .byte   PATT
  .word Label_7_01EFBB37
@ 035   ----------------------------------------
 .byte   N96 ,An2 ,v080
 .byte   N96 ,Gn3
 .byte   W96
@ 036   ----------------------------------------
 .byte   As2
 .byte   N96 ,Fn3
 .byte   W96
@ 037   ----------------------------------------
 .byte   Gs2
 .byte   N96 ,Ds3
 .byte   W96
@ 038   ----------------------------------------
 .byte   PATT
  .word Label_7_01EFBB5A
@ 039   ----------------------------------------
 .byte   PATT
  .word Label_7_01EFBB65
@ 040   ----------------------------------------
 .byte   N96 ,Bn1 ,v100
 .byte   W96
@ 041   ----------------------------------------
 .byte   Cs2
 .byte   W96
@ 042   ----------------------------------------
 .byte   Dn2
 .byte   W96
@ 043   ----------------------------------------
 .byte   Ds2
 .byte   W96
@ 044   ----------------------------------------
 .byte   Bn1
 .byte   N96 ,Fs2
 .byte   W96
@ 045   ----------------------------------------
 .byte   Cs2
 .byte   N96 ,Gs2
 .byte   W96
@ 046   ----------------------------------------
 .byte   Dn2
 .byte   N96 ,Gs2
 .byte   W96
@ 047   ----------------------------------------
 .byte   N24 ,Ds2
 .byte   N24 ,As2
 .byte   W36
 .byte   Ds2
 .byte   N24 ,As2
 .byte   W36
 .byte   N12 ,Ds2
 .byte   N12 ,As2
 .byte   W12
 .byte   Ds2
 .byte   N12 ,As2
 .byte   W12
@ 048   ----------------------------------------
 .byte   W48
 .byte   N96 ,Ds2 ,v080
 .byte   N96 ,As2
 .byte   W48
@ 049   ----------------------------------------
Label_7_01EFBBC7:
 .byte   W48
 .byte   N72 ,Ds2 ,v080
 .byte   N72 ,As2
 .byte   W48
 .byte   PEND 
@ 050   ----------------------------------------
Label_7_01EFBBCF:
 .byte   W24
 .byte   N24 ,Fn2 ,v080
 .byte   N24 ,Cn3
 .byte   W24
 .byte   N96 ,Gn2
 .byte   N96 ,Dn3
 .byte   W48
 .byte   PEND 
@ 051   ----------------------------------------
Label_7_01EFBBDC:
 .byte   W48
 .byte   N96 ,Gn2 ,v080
 .byte   N96 ,Dn3
 .byte   W48
 .byte   PEND 
@ 052   ----------------------------------------
Label_7_01EFBBE4:
 .byte   W48
 .byte   N96 ,Fn2 ,v080
 .byte   N96 ,Cn3
 .byte   W48
 .byte   PEND 
@ 053   ----------------------------------------
 .byte   PATT
  .word Label_7_01EFBBE4
@ 054   ----------------------------------------
Label_7_01EFBBF1:
 .byte   W48
 .byte   N48 ,Ds2 ,v080
 .byte   N48 ,As2
 .byte   W48
 .byte   PEND 
@ 055   ----------------------------------------
Label_7_01EFBBF9:
 .byte   N48 ,Fn2 ,v080
 .byte   N48 ,Cn3
 .byte   W48
 .byte   N72 ,Gn2
 .byte   N72 ,Dn3
 .byte   W48
 .byte   PEND 
@ 056   ----------------------------------------
 .byte   W24
 .byte   N24 ,Fn2
 .byte   N24 ,Cn3
 .byte   W24
 .byte   N96 ,Ds2
 .byte   N96 ,As2
 .byte   W48
@ 057   ----------------------------------------
 .byte   PATT
  .word Label_7_01EFBBC7
@ 058   ----------------------------------------
 .byte   PATT
  .word Label_7_01EFBBCF
@ 059   ----------------------------------------
 .byte   PATT
  .word Label_7_01EFBBDC
@ 060   ----------------------------------------
 .byte   PATT
  .word Label_7_01EFBBE4
@ 061   ----------------------------------------
 .byte   PATT
  .word Label_7_01EFBBE4
@ 062   ----------------------------------------
 .byte   PATT
  .word Label_7_01EFBBF1
@ 063   ----------------------------------------
 .byte   PATT
  .word Label_7_01EFBBF9
@ 064   ----------------------------------------
 .byte   W24
 .byte   N24 ,Fn2 ,v080
 .byte   N24 ,Cn3
 .byte   W24
 .byte   N96 ,Ds2 ,v060
 .byte   N96 ,As2
 .byte   W48
@ 065   ----------------------------------------
Label_7_01EFBC40:
 .byte   W48
 .byte   N72 ,Ds2 ,v060
 .byte   N72 ,As2
 .byte   W48
 .byte   PEND 
@ 066   ----------------------------------------
Label_7_01EFBC48:
 .byte   W24
 .byte   N24 ,Fn2 ,v060
 .byte   N24 ,Cn3
 .byte   W24
 .byte   N96 ,Gn2
 .byte   N96 ,Dn3
 .byte   W48
 .byte   PEND 
@ 067   ----------------------------------------
Label_7_01EFBC55:
 .byte   W48
 .byte   N96 ,Gn2 ,v060
 .byte   N96 ,Dn3
 .byte   W48
 .byte   PEND 
@ 068   ----------------------------------------
Label_7_01EFBC5D:
 .byte   W48
 .byte   N96 ,Fn2 ,v060
 .byte   N96 ,Cn3
 .byte   W48
 .byte   PEND 
@ 069   ----------------------------------------
 .byte   PATT
  .word Label_7_01EFBC5D
@ 070   ----------------------------------------
Label_7_01EFBC6A:
 .byte   W48
 .byte   N48 ,Ds2 ,v060
 .byte   N48 ,As2
 .byte   W48
 .byte   PEND 
@ 071   ----------------------------------------
Label_7_01EFBC72:
 .byte   N48 ,Fn2 ,v060
 .byte   N48 ,Cn3
 .byte   W48
 .byte   N72 ,Gn2
 .byte   N72 ,Dn3
 .byte   W48
 .byte   PEND 
@ 072   ----------------------------------------
 .byte   W24
 .byte   N24 ,Fn2
 .byte   N24 ,Cn3
 .byte   W24
 .byte   N96 ,Ds2
 .byte   N96 ,As2
 .byte   W48
@ 073   ----------------------------------------
 .byte   PATT
  .word Label_7_01EFBC40
@ 074   ----------------------------------------
 .byte   PATT
  .word Label_7_01EFBC48
@ 075   ----------------------------------------
 .byte   PATT
  .word Label_7_01EFBC55
@ 076   ----------------------------------------
 .byte   PATT
  .word Label_7_01EFBC5D
@ 077   ----------------------------------------
 .byte   PATT
  .word Label_7_01EFBC5D
@ 078   ----------------------------------------
 .byte   PATT
  .word Label_7_01EFBC6A
@ 079   ----------------------------------------
 .byte   PATT
  .word Label_7_01EFBC72
@ 080   ----------------------------------------
 .byte   W24
 .byte   N24 ,Fn2 ,v060
 .byte   N24 ,Cn3
 .byte   W72
@ 081   ----------------------------------------
 .byte   W96
@ 082   ----------------------------------------
 .byte   W96
@ 083   ----------------------------------------
 .byte   W96
@ 084   ----------------------------------------
 .byte   W96
@ 085   ----------------------------------------
 .byte   W96
@ 086   ----------------------------------------
 .byte   W96
@ 087   ----------------------------------------
 .byte   W96
@ 088   ----------------------------------------
 .byte   W24
 .byte   GOTO
  .word Label_7_01EFBB36
 .byte   FINE

@**************** Track 9 (Midi-Chn.8) ****************@

SeptetteForTheDeadPrincess_009:
@ 000   ----------------------------------------
 .byte   KEYSH , SeptetteForTheDeadPrincess_key+0
 .byte   VOL , 42*SeptetteForTheDeadPrincess_mvl/mxv
 .byte   PAN , c_v+0
 .byte   VOICE , 124
 .byte   N06 ,Dn1 ,v080
 .byte   W06
 .byte   Gs1
 .byte   W06
 .byte   Dn1
 .byte   W06
 .byte   Gs1
 .byte   W06
 .byte   Dn1
 .byte   W06
 .byte   Gs1
 .byte   W06
 .byte   Dn1
 .byte   W06
 .byte   Gs1
 .byte   W06
 .byte   Dn1
 .byte   W06
 .byte   Gs1
 .byte   W06
 .byte   Dn1
 .byte   W06
 .byte   Gs1
 .byte   W06
 .byte   Dn1
 .byte   W06
 .byte   Gs1
 .byte   W06
 .byte   Dn1
 .byte   W06
 .byte   Gs1
 .byte   W06
@ 001   ----------------------------------------
 .byte   N12 ,Dn1
 .byte   W12
 .byte   As1
 .byte   W12
 .byte   N06 ,Dn1
 .byte   W06
 .byte   Gs1
 .byte   W06
 .byte   Dn1
 .byte   W06
 .byte   Gs1
 .byte   W06
 .byte   Dn1
 .byte   W06
 .byte   Gs1
 .byte   W06
 .byte   Dn1
 .byte   W06
 .byte   Gs1
 .byte   W06
 .byte   As1
 .byte   N06 ,Gn2
 .byte   W12
 .byte   As1
 .byte   N06 ,Gn2
 .byte   W12
@ 002   ----------------------------------------
Label_8_01EFBD10:
 .byte   N06 ,Dn1 ,v080
 .byte   W12
 .byte   N12 ,As1
 .byte   W12
 .byte   N06 ,Dn1
 .byte   W06
 .byte   Gs1
 .byte   W06
 .byte   Dn1
 .byte   W06
 .byte   Gs1
 .byte   W06
 .byte   Dn1
 .byte   W06
 .byte   Gs1
 .byte   W06
 .byte   Dn1
 .byte   W06
 .byte   Gs1
 .byte   W06
 .byte   Dn1
 .byte   W06
 .byte   Gs1
 .byte   W06
 .byte   Dn1
 .byte   W06
 .byte   Gs1
 .byte   W06
 .byte   PEND 
@ 003   ----------------------------------------
 .byte   N12 ,Dn1
 .byte   W12
 .byte   As1
 .byte   W12
 .byte   N06 ,Dn1
 .byte   W06
 .byte   Gs1
 .byte   W06
 .byte   Dn1
 .byte   W06
 .byte   Gs1
 .byte   W06
 .byte   Dn1
 .byte   W06
 .byte   Gs1
 .byte   W06
 .byte   Dn1
 .byte   N06 ,Cn3 ,v100
 .byte   W06
 .byte   Gs1 ,v080
 .byte   N06 ,Cn3 ,v100
 .byte   W06
 .byte   As1 ,v080
 .byte   N06 ,Gn2
 .byte   N06 ,Cs3 ,v100
 .byte   W12
 .byte   As1 ,v080
 .byte   N06 ,Gn2
 .byte   N06 ,Cn3 ,v100
 .byte   W12
@ 004   ----------------------------------------
 .byte   Dn1 ,v080
 .byte   N06 ,Cn3 ,v100
 .byte   W12
 .byte   N12 ,As1 ,v080
 .byte   W12
 .byte   N06 ,Dn1
 .byte   W06
 .byte   Gs1
 .byte   W06
 .byte   Dn1
 .byte   N06 ,Cn3 ,v100
 .byte   W06
 .byte   Gs1 ,v080
 .byte   W06
 .byte   Dn1
 .byte   W06
 .byte   Gs1
 .byte   W06
 .byte   Dn1
 .byte   W06
 .byte   Gs1
 .byte   W06
 .byte   Dn1
 .byte   N06 ,Cn3 ,v100
 .byte   W06
 .byte   Gs1 ,v080
 .byte   W06
 .byte   Dn1
 .byte   W06
 .byte   Gs1
 .byte   W06
@ 005   ----------------------------------------
 .byte   N12 ,Dn1
 .byte   W12
 .byte   N06 ,As1
 .byte   N06 ,Cn3 ,v100
 .byte   W12
 .byte   Dn1 ,v080
 .byte   N06 ,Cn3 ,v100
 .byte   W06
 .byte   Gs1 ,v080
 .byte   W06
 .byte   Dn1
 .byte   N06 ,Cn3 ,v100
 .byte   W06
 .byte   Gs1 ,v080
 .byte   W06
 .byte   Dn1
 .byte   W06
 .byte   Gs1
 .byte   W06
 .byte   Dn1
 .byte   W06
 .byte   Gs1
 .byte   W06
 .byte   As1
 .byte   N06 ,Gn2
 .byte   N06 ,Cn3 ,v100
 .byte   W06
 .byte   N06
 .byte   W06
 .byte   As1 ,v080
 .byte   N06 ,Gn2
 .byte   N06 ,Cn3 ,v100
 .byte   W12
@ 006   ----------------------------------------
 .byte   PATT
  .word Label_8_01EFBD10
@ 007   ----------------------------------------
 .byte   N06 ,Dn1 ,v080
 .byte   W12
 .byte   N12 ,As1
 .byte   W12
 .byte   N06 ,Dn1
 .byte   W06
 .byte   Gs1
 .byte   W06
 .byte   Dn1
 .byte   W06
 .byte   Gs1
 .byte   W06
 .byte   N12 ,Dn1
 .byte   W12
 .byte   N06 ,As1
 .byte   W06
 .byte   Cn1
 .byte   N06 ,Cn3 ,v100
 .byte   W06
 .byte   Cn1 ,v080
 .byte   N06 ,Dn1
 .byte   N06 ,Cn3 ,v100
 .byte   W06
 .byte   Gs1 ,v080
 .byte   N06 ,Cn3 ,v100
 .byte   W06
 .byte   Dn1 ,v080
 .byte   W06
 .byte   Cn1
 .byte   N06 ,Gs1
 .byte   N06 ,Cn3 ,v100
 .byte   W06
@ 008   ----------------------------------------
Label_8_01EFBDF4:
 .byte   N06 ,Cn1 ,v080
 .byte   N06 ,Cn3 ,v100
 .byte   W18
 .byte   N06
 .byte   W06
 .byte   Cn1 ,v080
 .byte   W06
 .byte   N12 ,Cn3 ,v100
 .byte   W12
 .byte   N06
 .byte   W06
 .byte   Cn1 ,v080
 .byte   N06 ,Dn1
 .byte   N06 ,Cn3 ,v100
 .byte   W06
 .byte   Dn1 ,v080
 .byte   W06
 .byte   As1
 .byte   W06
 .byte   Cn3 ,v100
 .byte   W06
 .byte   Cn1 ,v080
 .byte   N06 ,Dn1
 .byte   W06
 .byte   N06
 .byte   N06 ,Cn3 ,v100
 .byte   W06
 .byte   As1 ,v080
 .byte   W06
 .byte   Cn3 ,v100
 .byte   W06
 .byte   PEND 
@ 009   ----------------------------------------
Label_8_01EFBE27:
 .byte   N06 ,Cn1 ,v080
 .byte   N06 ,Cn3 ,v100
 .byte   W18
 .byte   Cn1 ,v080
 .byte   N06 ,Cn3 ,v100
 .byte   W06
 .byte   Cn1 ,v080
 .byte   W06
 .byte   N12 ,Cn3 ,v100
 .byte   W12
 .byte   N06
 .byte   W06
 .byte   Cn1 ,v080
 .byte   N06 ,Dn1
 .byte   N06 ,Cn3 ,v100
 .byte   W06
 .byte   Dn1 ,v080
 .byte   W06
 .byte   As1
 .byte   W06
 .byte   Cn1
 .byte   N06 ,Cn3 ,v100
 .byte   W06
 .byte   Cn1 ,v080
 .byte   N06 ,Dn1
 .byte   W06
 .byte   N06
 .byte   N06 ,Cn3 ,v100
 .byte   W06
 .byte   As1 ,v080
 .byte   W06
 .byte   Cn3 ,v100
 .byte   W06
 .byte   PEND 
@ 010   ----------------------------------------
 .byte   PATT
  .word Label_8_01EFBDF4
@ 011   ----------------------------------------
 .byte   PATT
  .word Label_8_01EFBE27
@ 012   ----------------------------------------
 .byte   PATT
  .word Label_8_01EFBDF4
@ 013   ----------------------------------------
 .byte   N06 ,Cn1 ,v080
 .byte   N06 ,Cn3 ,v100
 .byte   W18
 .byte   Cn1 ,v080
 .byte   N06 ,Cn3 ,v100
 .byte   W06
 .byte   Cn1 ,v080
 .byte   W06
 .byte   N12 ,Cn3 ,v100
 .byte   W12
 .byte   N06
 .byte   W06
 .byte   Cn1 ,v080
 .byte   N06 ,Dn1
 .byte   N06 ,Cn3 ,v100
 .byte   W06
 .byte   Dn1 ,v080
 .byte   W06
 .byte   Dn1
 .byte   N06 ,As1
 .byte   W06
 .byte   Cn1
 .byte   N06 ,Dn1
 .byte   N06 ,Cn3 ,v100
 .byte   W06
 .byte   Cn1 ,v080
 .byte   N06 ,Dn1
 .byte   W06
 .byte   N06
 .byte   N06 ,Cn3 ,v100
 .byte   W06
 .byte   Dn1 ,v080
 .byte   N06 ,As1
 .byte   W06
 .byte   Cn3 ,v100
 .byte   W06
@ 014   ----------------------------------------
 .byte   Cn1 ,v080
 .byte   N06 ,Cn3 ,v100
 .byte   W18
 .byte   Cn1 ,v080
 .byte   N06 ,Cn3 ,v100
 .byte   W12
 .byte   N06
 .byte   W12
 .byte   N06
 .byte   W06
 .byte   Cn1 ,v080
 .byte   N06 ,Dn1
 .byte   N06 ,Cn3 ,v100
 .byte   W06
 .byte   Dn1 ,v080
 .byte   W06
 .byte   As1
 .byte   W06
 .byte   Cn3 ,v100
 .byte   W06
 .byte   Dn1 ,v080
 .byte   W06
 .byte   N06
 .byte   N06 ,Cn3 ,v100
 .byte   W06
 .byte   As1 ,v080
 .byte   W06
 .byte   Cn3 ,v100
 .byte   W06
@ 015   ----------------------------------------
 .byte   Cn1 ,v080
 .byte   N06 ,Cn3 ,v100
 .byte   W18
 .byte   Cn1 ,v080
 .byte   N06 ,Cn3 ,v100
 .byte   W12
 .byte   N06
 .byte   W12
 .byte   N06
 .byte   W06
 .byte   Cn1 ,v080
 .byte   N06 ,Dn1
 .byte   N06 ,Dn1
 .byte   N06 ,Cn3 ,v100
 .byte   W06
 .byte   Dn1 ,v080
 .byte   N06 ,Dn1
 .byte   W06
 .byte   Dn1
 .byte   N06 ,As1
 .byte   W06
 .byte   Dn1
 .byte   N06 ,Cn3 ,v100
 .byte   W06
 .byte   Dn1 ,v080
 .byte   N06 ,Dn1
 .byte   W06
 .byte   N06
 .byte   N06 ,Cn3 ,v100
 .byte   W06
 .byte   Dn1 ,v080
 .byte   N06 ,As1
 .byte   W06
 .byte   Cn3 ,v100
 .byte   W06
@ 016   ----------------------------------------
 .byte   Cn1 ,v080
 .byte   N06 ,Dn1
 .byte   N06 ,Cn3 ,v100
 .byte   W12
 .byte   As1 ,v080
 .byte   W06
 .byte   Cn1
 .byte   W06
 .byte   Dn1
 .byte   W06
 .byte   N06
 .byte   W06
 .byte   Cn1
 .byte   W06
 .byte   As1
 .byte   W06
 .byte   Cn1
 .byte   N06 ,Dn1
 .byte   W12
 .byte   As1
 .byte   W06
 .byte   Cn1
 .byte   W06
 .byte   N12 ,Dn1
 .byte   W12
 .byte   N06 ,Cn1
 .byte   N06 ,As1
 .byte   W12
@ 017   ----------------------------------------
Label_8_01EFBF3A:
 .byte   N06 ,Cn1 ,v080
 .byte   N06 ,Dn1
 .byte   W12
 .byte   As1
 .byte   W06
 .byte   Cn1
 .byte   W06
 .byte   Dn1
 .byte   W06
 .byte   N06
 .byte   W06
 .byte   Cn1
 .byte   W06
 .byte   As1
 .byte   W06
 .byte   Cn1
 .byte   N06 ,Dn1
 .byte   W12
 .byte   As1
 .byte   W06
 .byte   Cn1
 .byte   W06
 .byte   N12 ,Dn1
 .byte   W12
 .byte   N06 ,Cn1
 .byte   N06 ,As1
 .byte   W12
 .byte   PEND 
@ 018   ----------------------------------------
 .byte   PATT
  .word Label_8_01EFBF3A
@ 019   ----------------------------------------
 .byte   N06 ,Cn1 ,v080
 .byte   N06 ,Dn1
 .byte   W12
 .byte   As1
 .byte   W06
 .byte   Cn1
 .byte   W06
 .byte   Dn1
 .byte   W06
 .byte   N06
 .byte   W06
 .byte   Cn1
 .byte   W06
 .byte   As1
 .byte   W06
 .byte   Cn1
 .byte   N06 ,Dn1
 .byte   W12
 .byte   Dn1
 .byte   N06 ,As1
 .byte   W06
 .byte   Cn1
 .byte   W06
 .byte   Dn1
 .byte   N06 ,Dn1
 .byte   W06
 .byte   Dn1
 .byte   W06
 .byte   Cn1
 .byte   N06 ,As1
 .byte   W06
 .byte   Dn1
 .byte   W06
@ 020   ----------------------------------------
Label_8_01EFBF8A:
 .byte   N06 ,Cn1 ,v080
 .byte   N06 ,Dn1
 .byte   W12
 .byte   As1
 .byte   W06
 .byte   Cn1
 .byte   W06
 .byte   Dn1
 .byte   N06 ,Dn1
 .byte   W06
 .byte   N06
 .byte   W06
 .byte   Cn1
 .byte   W06
 .byte   As1
 .byte   W06
 .byte   Cn1
 .byte   N06 ,Dn1
 .byte   W12
 .byte   As1
 .byte   W06
 .byte   Cn1
 .byte   W06
 .byte   Dn1
 .byte   N06 ,Dn1
 .byte   W12
 .byte   Cn1
 .byte   N06 ,As1
 .byte   W12
 .byte   PEND 
@ 021   ----------------------------------------
 .byte   PATT
  .word Label_8_01EFBF8A
@ 022   ----------------------------------------
 .byte   PATT
  .word Label_8_01EFBF8A
@ 023   ----------------------------------------
 .byte   N06 ,Cn1 ,v080
 .byte   N06 ,Dn1
 .byte   N06 ,As1
 .byte   N06 ,Gn2
 .byte   W48
Label_8_01EFBFC3:
 .byte   W12
 .byte   N18 ,Cn1 ,v080
 .byte   W18
 .byte   N06
 .byte   W06
 .byte   Dn1
 .byte   W06
 .byte   N06
 .byte   W06
@ 024   ----------------------------------------
Label_8_01EFBFCE:
 .byte   N06 ,Cn1 ,v080
 .byte   N06 ,Cn3 ,v100
 .byte   W18
 .byte   N06
 .byte   W06
 .byte   Cn1 ,v080
 .byte   N06 ,Dn1
 .byte   W06
 .byte   N12 ,Cn3 ,v100
 .byte   W12
 .byte   N06
 .byte   W06
 .byte   Cn1 ,v080
 .byte   N06 ,Dn1
 .byte   N06 ,Cn3 ,v100
 .byte   W06
 .byte   Dn1 ,v080
 .byte   W06
 .byte   As1
 .byte   W06
 .byte   Cn3 ,v100
 .byte   W06
 .byte   Cn1 ,v080
 .byte   N06 ,Dn1
 .byte   N06 ,Dn1
 .byte   W06
 .byte   N06
 .byte   N06 ,Cn3 ,v100
 .byte   W06
 .byte   As1 ,v080
 .byte   W06
 .byte   Cn3 ,v100
 .byte   W06
 .byte   PEND 
@ 025   ----------------------------------------
Label_8_01EFC005:
 .byte   N06 ,Cn1 ,v080
 .byte   N06 ,Cn3 ,v100
 .byte   W18
 .byte   Cn1 ,v080
 .byte   N06 ,Cn3 ,v100
 .byte   W06
 .byte   Cn1 ,v080
 .byte   N06 ,Dn1
 .byte   W06
 .byte   N12 ,Cn3 ,v100
 .byte   W12
 .byte   N06
 .byte   W06
 .byte   Cn1 ,v080
 .byte   N06 ,Dn1
 .byte   N06 ,Cn3 ,v100
 .byte   W06
 .byte   Dn1 ,v080
 .byte   W06
 .byte   As1
 .byte   W06
 .byte   Cn1
 .byte   N06 ,Cn3 ,v100
 .byte   W06
 .byte   Cn1 ,v080
 .byte   N06 ,Dn1
 .byte   N06 ,Dn1
 .byte   W06
 .byte   N06
 .byte   N06 ,Cn3 ,v100
 .byte   W06
 .byte   As1 ,v080
 .byte   W06
 .byte   Cn3 ,v100
 .byte   W06
 .byte   PEND 
@ 026   ----------------------------------------
 .byte   PATT
  .word Label_8_01EFBFCE
@ 027   ----------------------------------------
 .byte   PATT
  .word Label_8_01EFC005
@ 028   ----------------------------------------
 .byte   PATT
  .word Label_8_01EFBFCE
@ 029   ----------------------------------------
 .byte   PATT
  .word Label_8_01EFC005
@ 030   ----------------------------------------
 .byte   PATT
  .word Label_8_01EFBFCE
@ 031   ----------------------------------------
 .byte   PATT
  .word Label_8_01EFC005
@ 032   ----------------------------------------
 .byte   PATT
  .word Label_8_01EFBFCE
@ 033   ----------------------------------------
 .byte   PATT
  .word Label_8_01EFC005
@ 034   ----------------------------------------
 .byte   PATT
  .word Label_8_01EFBFCE
@ 035   ----------------------------------------
 .byte   PATT
  .word Label_8_01EFC005
@ 036   ----------------------------------------
 .byte   PATT
  .word Label_8_01EFBFCE
@ 037   ----------------------------------------
 .byte   PATT
  .word Label_8_01EFC005
@ 038   ----------------------------------------
 .byte   PATT
  .word Label_8_01EFBFCE
@ 039   ----------------------------------------
 .byte   PATT
  .word Label_8_01EFC005
@ 040   ----------------------------------------
 .byte   N06 ,Cn3 ,v100
 .byte   W96
@ 041   ----------------------------------------
 .byte   W96
@ 042   ----------------------------------------
 .byte   W96
@ 043   ----------------------------------------
 .byte   W72
 .byte   Dn1 ,v080
 .byte   W06
 .byte   N06
 .byte   W12
 .byte   N06
 .byte   W06
@ 044   ----------------------------------------
 .byte   Cn1
 .byte   N06 ,Dn1
 .byte   W12
 .byte   Cn1
 .byte   N06 ,Dn1
 .byte   W12
 .byte   Cn1
 .byte   N06 ,Dn1
 .byte   N06 ,Dn1
 .byte   W06
 .byte   Dn1
 .byte   N06 ,Dn1
 .byte   W06
 .byte   Cn1
 .byte   N06 ,Dn1
 .byte   N06 ,Dn1
 .byte   W12
 .byte   Cn1
 .byte   N06 ,Dn1
 .byte   W12
 .byte   Cn1
 .byte   N06 ,Dn1
 .byte   W06
 .byte   Dn1
 .byte   W06
 .byte   Cn1
 .byte   N06 ,Dn1
 .byte   W06
 .byte   N06
 .byte   W06
 .byte   Cn1
 .byte   N06 ,Dn1
 .byte   N06 ,Dn1
 .byte   W06
 .byte   N06
 .byte   W06
@ 045   ----------------------------------------
Label_8_01EFC0C6:
 .byte   N06 ,Cn1 ,v080
 .byte   N06 ,Dn1
 .byte   W12
 .byte   Cn1
 .byte   N06 ,Dn1
 .byte   N06 ,Dn1
 .byte   W06
 .byte   Dn1
 .byte   W06
 .byte   Cn1
 .byte   N06 ,Dn1
 .byte   N06 ,Dn1
 .byte   W06
 .byte   Dn1
 .byte   N06 ,Dn1
 .byte   W06
 .byte   Cn1
 .byte   N06 ,Dn1
 .byte   N06 ,Dn1
 .byte   W12
 .byte   Cn1
 .byte   N06 ,Dn1
 .byte   N06 ,Dn1
 .byte   W12
 .byte   Cn1
 .byte   N06 ,Dn1
 .byte   N06 ,Dn1
 .byte   W12
 .byte   Cn1
 .byte   N06 ,Dn1
 .byte   N06 ,Dn1
 .byte   W06
 .byte   Dn1
 .byte   N06 ,Dn1
 .byte   W06
 .byte   Cn1
 .byte   N06 ,Dn1
 .byte   N06 ,Dn1
 .byte   W06
 .byte   N06
 .byte   W06
 .byte   PEND 
@ 046   ----------------------------------------
 .byte   PATT
  .word Label_8_01EFC0C6
@ 047   ----------------------------------------
 .byte   N06 ,Cn1 ,v080
 .byte   N06 ,Dn1
 .byte   N06 ,Dn1
 .byte   W12
 .byte   Cn1
 .byte   N06 ,Dn1
 .byte   W12
 .byte   Cn1
 .byte   N06 ,Dn1
 .byte   W06
 .byte   N06
 .byte   W06
 .byte   Cn1
 .byte   N06 ,Dn1
 .byte   W12
 .byte   Cn1
 .byte   N06 ,Dn1
 .byte   W12
 .byte   Cn1
 .byte   N06 ,Dn1
 .byte   W12
 .byte   Cn1
 .byte   N06 ,Dn1
 .byte   W06
 .byte   N06
 .byte   W06
 .byte   Cn1
 .byte   N06 ,Dn1
 .byte   W06
 .byte   N06
 .byte   W06
@ 048   ----------------------------------------
 .byte   N48 ,Cn1
 .byte   W48
 .byte   N06
 .byte   N06 ,Dn1
 .byte   W06
 .byte   N06
 .byte   W06
 .byte   Dn1
 .byte   W06
 .byte   Dn1
 .byte   W06
 .byte   As1
 .byte   W06
 .byte   Cn1
 .byte   W06
 .byte   Dn1
 .byte   N06 ,Fs1
 .byte   W06
 .byte   N06
 .byte   W06
@ 049   ----------------------------------------
Label_8_01EFC14F:
 .byte   N06 ,Cn1 ,v080
 .byte   W06
 .byte   Dn1
 .byte   W06
 .byte   Dn1
 .byte   N06 ,Dn1
 .byte   W12
 .byte   Cn1
 .byte   N06 ,Dn1
 .byte   W06
 .byte   N06
 .byte   W06
 .byte   Dn1
 .byte   W06
 .byte   Dn1
 .byte   W06
 .byte   Cn1
 .byte   N06 ,Dn1
 .byte   W06
 .byte   N06
 .byte   W06
 .byte   Dn1
 .byte   W06
 .byte   Dn1
 .byte   W06
 .byte   As1
 .byte   W06
 .byte   Cn1
 .byte   W06
 .byte   Dn1
 .byte   N06 ,Dn1
 .byte   W06
 .byte   N06
 .byte   W06
 .byte   PEND 
@ 050   ----------------------------------------
Label_8_01EFC178:
 .byte   N06 ,Cn1 ,v080
 .byte   W06
 .byte   Dn1
 .byte   N06 ,Dn1
 .byte   W06
 .byte   Dn1
 .byte   N06 ,Dn1
 .byte   W12
 .byte   Cn1
 .byte   N06 ,Dn1
 .byte   W06
 .byte   N06
 .byte   W06
 .byte   Dn1
 .byte   W06
 .byte   Dn1
 .byte   W06
 .byte   Cn1
 .byte   N06 ,Dn1
 .byte   W06
 .byte   N06
 .byte   W06
 .byte   Dn1
 .byte   W06
 .byte   Dn1
 .byte   W06
 .byte   As1
 .byte   W06
 .byte   Cn1
 .byte   W06
 .byte   Dn1
 .byte   N06 ,Dn1
 .byte   W06
 .byte   N06
 .byte   W06
 .byte   PEND 
@ 051   ----------------------------------------
 .byte   PATT
  .word Label_8_01EFC14F
@ 052   ----------------------------------------
 .byte   PATT
  .word Label_8_01EFC178
@ 053   ----------------------------------------
 .byte   PATT
  .word Label_8_01EFC14F
@ 054   ----------------------------------------
 .byte   PATT
  .word Label_8_01EFC178
@ 055   ----------------------------------------
 .byte   PATT
  .word Label_8_01EFC14F
@ 056   ----------------------------------------
 .byte   PATT
  .word Label_8_01EFC178
@ 057   ----------------------------------------
 .byte   PATT
  .word Label_8_01EFC14F
@ 058   ----------------------------------------
 .byte   PATT
  .word Label_8_01EFC178
@ 059   ----------------------------------------
 .byte   PATT
  .word Label_8_01EFC14F
@ 060   ----------------------------------------
 .byte   PATT
  .word Label_8_01EFC178
@ 061   ----------------------------------------
 .byte   PATT
  .word Label_8_01EFC14F
@ 062   ----------------------------------------
 .byte   PATT
  .word Label_8_01EFC178
@ 063   ----------------------------------------
 .byte   PATT
  .word Label_8_01EFC14F
@ 064   ----------------------------------------
 .byte   PATT
  .word Label_8_01EFC178
@ 065   ----------------------------------------
 .byte   PATT
  .word Label_8_01EFC14F
@ 066   ----------------------------------------
 .byte   PATT
  .word Label_8_01EFC178
@ 067   ----------------------------------------
 .byte   PATT
  .word Label_8_01EFC14F
@ 068   ----------------------------------------
 .byte   PATT
  .word Label_8_01EFC178
@ 069   ----------------------------------------
 .byte   PATT
  .word Label_8_01EFC14F
@ 070   ----------------------------------------
 .byte   PATT
  .word Label_8_01EFC178
@ 071   ----------------------------------------
 .byte   PATT
  .word Label_8_01EFC14F
@ 072   ----------------------------------------
 .byte   PATT
  .word Label_8_01EFC178
@ 073   ----------------------------------------
 .byte   PATT
  .word Label_8_01EFC14F
@ 074   ----------------------------------------
 .byte   PATT
  .word Label_8_01EFC178
@ 075   ----------------------------------------
 .byte   PATT
  .word Label_8_01EFC14F
@ 076   ----------------------------------------
 .byte   PATT
  .word Label_8_01EFC178
@ 077   ----------------------------------------
 .byte   N06 ,Cn1 ,v080
 .byte   W06
 .byte   Dn1
 .byte   W06
 .byte   Dn1
 .byte   N06 ,Dn1
 .byte   W12
 .byte   Cn1
 .byte   N06 ,Dn1
 .byte   W06
 .byte   N06
 .byte   W06
 .byte   Dn1
 .byte   W06
 .byte   Dn1
 .byte   W06
 .byte   Cn1
 .byte   N06 ,Dn1
 .byte   W06
 .byte   N06
 .byte   W06
 .byte   Dn1
 .byte   W06
 .byte   Dn1
 .byte   W06
 .byte   Dn1 ,v100
 .byte   N06 ,As1 ,v080
 .byte   W06
 .byte   Cn1
 .byte   N06 ,Dn1 ,v100
 .byte   W06
 .byte   N06
 .byte   N06 ,Dn1 ,v080
 .byte   W06
 .byte   N06
 .byte   W06
@ 078   ----------------------------------------
 .byte   Cn1
 .byte   W06
 .byte   Dn1
 .byte   W06
 .byte   Dn1 ,v100
 .byte   N06 ,Dn1 ,v080
 .byte   W06
 .byte   Dn1 ,v100
 .byte   W06
 .byte   Cn1 ,v080
 .byte   N06 ,Dn1
 .byte   W06
 .byte   Dn1 ,v100
 .byte   N06 ,Dn1 ,v080
 .byte   W06
 .byte   Dn1 ,v100
 .byte   W06
 .byte   Dn1 ,v080
 .byte   W06
 .byte   Cn1
 .byte   N06 ,Dn1 ,v080
 .byte   W06
 .byte   N06
 .byte   W12
 .byte   N06 ,Dn1 ,v080
 .byte   W06
 .byte   As1
 .byte   W06
 .byte   Cn1
 .byte   W06
 .byte   N06 ,Fs1 ,v080
 .byte   W06
 .byte   N06
 .byte   W06
@ 079   ----------------------------------------
 .byte   Cn1
 .byte   N06 ,Dn1 ,v100
 .byte   W06
 .byte   Dn1 ,v080
 .byte   W06
 .byte   N06
 .byte   W12
 .byte   Cn1
 .byte   N06 ,Fs1 ,v080
 .byte   W06
 .byte   N06 ,Dn1 ,v080
 .byte   W06
 .byte   Dn1 ,v100
 .byte   W06
 .byte   N06
 .byte   N06 ,Fs1 ,v080
 .byte   W06
 .byte   Cn1
 .byte   N06 ,Dn1 ,v100
 .byte   N06 ,Fs1 ,v080
 .byte   W06
 .byte   N06
 .byte   W12
 .byte   N06
 .byte   W06
 .byte   Dn1 ,v100
 .byte   N06 ,As1 ,v080
 .byte   W06
 .byte   Cn1
 .byte   W06
 .byte   Fs1
 .byte   W06
 .byte   N06
 .byte   W06
@ 080   ----------------------------------------
 .byte   Cn1
 .byte   W06
 .byte   Fs1
 .byte   W06
 .byte   Dn1 ,v100
 .byte   N06 ,Fs1 ,v080
 .byte   W06
 .byte   Dn1 ,v100
 .byte   W06
 .byte   Cn1 ,v080
 .byte   N06 ,Dn1 ,v100
 .byte   N06 ,Fs1 ,v080
 .byte   W06
 .byte   Dn1 ,v100
 .byte   N06 ,Fs1 ,v080
 .byte   W06
 .byte   Dn1 ,v100
 .byte   W06
 .byte   Fs1 ,v080
 .byte   W06
 .byte   Cn1
 .byte   N06 ,Fs1
 .byte   W12
 .byte   As1
 .byte   W06
 .byte   Cn1
 .byte   W06
 .byte   Fs1
 .byte   W06
 .byte   N06
 .byte   W06
 .byte   Cn1
 .byte   W06
 .byte   As1
 .byte   W06
@ 081   ----------------------------------------
Label_8_01EFC2F9:
 .byte   N06 ,Cn1 ,v080
 .byte   N06 ,Fs1
 .byte   W12
 .byte   As1
 .byte   W06
 .byte   Cn1
 .byte   W06
 .byte   N12 ,Fs1
 .byte   W12
 .byte   N06 ,Cn1
 .byte   N06 ,As1
 .byte   W12
 .byte   Cn1
 .byte   N06 ,Fs1
 .byte   W12
 .byte   As1
 .byte   W06
 .byte   Cn1
 .byte   W06
 .byte   Fs1
 .byte   W06
 .byte   N06
 .byte   W06
 .byte   Cn1
 .byte   W06
 .byte   As1
 .byte   W06
 .byte   PEND 
@ 082   ----------------------------------------
 .byte   PATT
  .word Label_8_01EFC2F9
@ 083   ----------------------------------------
 .byte   PATT
  .word Label_8_01EFC2F9
@ 084   ----------------------------------------
 .byte   N06 ,Cn1 ,v080
 .byte   N06 ,Fs1
 .byte   W12
 .byte   Dn1
 .byte   N06 ,As1
 .byte   W06
 .byte   Cn1
 .byte   W06
 .byte   Dn1
 .byte   N06 ,Fs1
 .byte   W06
 .byte   Dn1
 .byte   W06
 .byte   Cn1
 .byte   N06 ,As1
 .byte   W06
 .byte   Dn1
 .byte   W06
 .byte   Cn1
 .byte   N06 ,Fs1
 .byte   W12
 .byte   As1
 .byte   W06
 .byte   Cn1
 .byte   W06
 .byte   Dn1
 .byte   N06 ,Fs1
 .byte   W06
 .byte   N06
 .byte   W06
 .byte   Cn1
 .byte   W06
 .byte   As1
 .byte   W06
@ 085   ----------------------------------------
Label_8_01EFC350:
 .byte   N06 ,Cn1 ,v080
 .byte   N06 ,Fs1
 .byte   W12
 .byte   As1
 .byte   W06
 .byte   Cn1
 .byte   W06
 .byte   Dn1
 .byte   N06 ,Fs1
 .byte   W12
 .byte   Cn1
 .byte   N06 ,As1
 .byte   W12
 .byte   Cn1
 .byte   N06 ,Fs1
 .byte   W12
 .byte   As1
 .byte   W06
 .byte   Cn1
 .byte   W06
 .byte   Dn1
 .byte   N06 ,Fs1
 .byte   W06
 .byte   N06
 .byte   W06
 .byte   Cn1
 .byte   W06
 .byte   As1
 .byte   W06
 .byte   PEND 
@ 086   ----------------------------------------
 .byte   PATT
  .word Label_8_01EFC350
@ 087   ----------------------------------------
 .byte   N06 ,Cn1 ,v080
 .byte   N06 ,Fs1
 .byte   W12
 .byte   As1
 .byte   W06
 .byte   Cn1
 .byte   W06
 .byte   Dn1
 .byte   N06 ,Fs1
 .byte   W12
 .byte   Cn1
 .byte   N06 ,As1
 .byte   W12
 .byte   Cn1
 .byte   N06 ,Fs1
 .byte   N06 ,As1
 .byte   N06 ,Gn2
 .byte   W48
@ 088   ----------------------------------------
 .byte   W24
 .byte   GOTO
  .word Label_8_01EFBFC3
 .byte   FINE

@******************************************************@
	.align	2

SeptetteForTheDeadPrincess:
	.byte	9	@ NumTrks
	.byte	0	@ NumBlks
	.byte	SeptetteForTheDeadPrincess_pri	@ Priority
	.byte	SeptetteForTheDeadPrincess_rev	@ Reverb.
    
	.word	SeptetteForTheDeadPrincess_grp
    
	.word	SeptetteForTheDeadPrincess_001
	.word	SeptetteForTheDeadPrincess_002
	.word	SeptetteForTheDeadPrincess_003
	.word	SeptetteForTheDeadPrincess_004
	.word	SeptetteForTheDeadPrincess_005
	.word	SeptetteForTheDeadPrincess_006
	.word	SeptetteForTheDeadPrincess_007
	.word	SeptetteForTheDeadPrincess_008
	.word	SeptetteForTheDeadPrincess_009

	.end
