//Event file generated from Sappy .s format.
	#include "MPlayDef.event"

	#define	SeptetteForTheDeadPrincess_grp  voicegroup000
	#define	SeptetteForTheDeadPrincess_pri  0
	#define	SeptetteForTheDeadPrincess_rev  0
	#define	SeptetteForTheDeadPrincess_mvl  127
	#define	SeptetteForTheDeadPrincess_key  0
	#define	SeptetteForTheDeadPrincess_tbs  1
	#define	SeptetteForTheDeadPrincess_exg  0
	#define	SeptetteForTheDeadPrincess_cmp  1

	// .rodata
	//	SeptetteForTheDeadPrincess
	ALIGN 4


//**************** Track 1 (Midi-Chn.0) ****************//

SeptetteForTheDeadPrincess_001:
// 000   ----------------------------------------
 BYTE   KEYSH   SeptetteForTheDeadPrincess_key+0
 BYTE   TEMPO   500*SeptetteForTheDeadPrincess_tbs/2
 BYTE   VOL   42*SeptetteForTheDeadPrincess_mvl/mxv
 BYTE   PAN   c_v+0
 BYTE   VOICE   10
 BYTE   TEMPO   144*SeptetteForTheDeadPrincess_tbs/2
Label_0_01EF9F6C:
 BYTE   N24  Fs2  v100
 BYTE   N24  Fs3
 BYTE   W24
 BYTE   N24
 BYTE   N24  Fs4
 BYTE   W24
 BYTE   Dn4
 BYTE   N24  Dn5
 BYTE   W24
 BYTE   N12  Cs4
 BYTE   N12  Cs5
 BYTE   W12
 BYTE   En3
 BYTE   N12  En4
 BYTE   W12
 BYTE   PEND 
// 001   ----------------------------------------
 BYTE   PATT
  POIN2 Label_0_01EF9F6C
// 002   ----------------------------------------
 BYTE   PATT
  POIN2 Label_0_01EF9F6C
// 003   ----------------------------------------
 BYTE   N24  Fs2  v100
 BYTE   N24  Fs3
 BYTE   W24
 BYTE   N24
 BYTE   N24  Fs4
 BYTE   W36
 BYTE   N36  Dn4
 BYTE   N36  Dn5
 BYTE   W36
// 004   ----------------------------------------
 BYTE   N24  Dn2
 BYTE   N24  Dn3
 BYTE   W24
 BYTE   Fs3
 BYTE   N24  Fs4
 BYTE   W24
 BYTE   Dn4
 BYTE   N24  Dn5
 BYTE   W24
 BYTE   N12  Cs4
 BYTE   N12  Cs5
 BYTE   W12
 BYTE   En3
 BYTE   N12  En4
 BYTE   W12
// 005   ----------------------------------------
 BYTE   N24  En2
 BYTE   N24  En3
 BYTE   W24
 BYTE   Fs3
 BYTE   N24  Fs4
 BYTE   W24
 BYTE   Dn4
 BYTE   N24  Dn5
 BYTE   W24
 BYTE   N12  Cs4
 BYTE   N12  Cs5
 BYTE   W12
 BYTE   En3
 BYTE   N12  En4
 BYTE   W12
// 006   ----------------------------------------
 BYTE   PATT
  POIN2 Label_0_01EF9F6C
// 007   ----------------------------------------
 BYTE   N48  Fs2  v100
 BYTE   N48  Fs3
 BYTE   N48  Fs4
 BYTE   W96
// 008   ----------------------------------------
 BYTE   W96
// 009   ----------------------------------------
 BYTE   W96
// 010   ----------------------------------------
 BYTE   W96
// 011   ----------------------------------------
 BYTE   W96
// 012   ----------------------------------------
 BYTE   W96
// 013   ----------------------------------------
 BYTE   W96
// 014   ----------------------------------------
 BYTE   W96
// 015   ----------------------------------------
 BYTE   W96
// 016   ----------------------------------------
 BYTE   W96
// 017   ----------------------------------------
 BYTE   W96
// 018   ----------------------------------------
 BYTE   W96
// 019   ----------------------------------------
 BYTE   W96
// 020   ----------------------------------------
 BYTE   W96
// 021   ----------------------------------------
 BYTE   W96
// 022   ----------------------------------------
 BYTE   W96
// 023   ----------------------------------------
 BYTE   W48
Label_0_01EF9FE6:
 BYTE   W48
// 024   ----------------------------------------
 BYTE   W96
// 025   ----------------------------------------
 BYTE   W96
// 026   ----------------------------------------
 BYTE   W96
// 027   ----------------------------------------
 BYTE   W96
// 028   ----------------------------------------
 BYTE   W96
// 029   ----------------------------------------
 BYTE   W96
// 030   ----------------------------------------
 BYTE   W96
// 031   ----------------------------------------
 BYTE   W96
// 032   ----------------------------------------
 BYTE   W96
// 033   ----------------------------------------
 BYTE   W96
// 034   ----------------------------------------
 BYTE   W96
// 035   ----------------------------------------
 BYTE   W96
// 036   ----------------------------------------
 BYTE   W96
// 037   ----------------------------------------
 BYTE   W96
// 038   ----------------------------------------
 BYTE   W96
// 039   ----------------------------------------
 BYTE   W96
// 040   ----------------------------------------
 BYTE   W96
// 041   ----------------------------------------
 BYTE   W96
// 042   ----------------------------------------
 BYTE   W96
// 043   ----------------------------------------
 BYTE   W96
// 044   ----------------------------------------
 BYTE   W96
// 045   ----------------------------------------
 BYTE   W96
// 046   ----------------------------------------
 BYTE   W96
// 047   ----------------------------------------
 BYTE   W96
// 048   ----------------------------------------
 BYTE   W96
// 049   ----------------------------------------
 BYTE   W96
// 050   ----------------------------------------
 BYTE   W96
// 051   ----------------------------------------
 BYTE   W96
// 052   ----------------------------------------
 BYTE   W96
// 053   ----------------------------------------
 BYTE   W96
// 054   ----------------------------------------
 BYTE   W96
// 055   ----------------------------------------
 BYTE   W96
// 056   ----------------------------------------
 BYTE   W96
// 057   ----------------------------------------
 BYTE   W96
// 058   ----------------------------------------
 BYTE   W96
// 059   ----------------------------------------
 BYTE   W96
// 060   ----------------------------------------
 BYTE   W96
// 061   ----------------------------------------
 BYTE   W96
// 062   ----------------------------------------
 BYTE   W96
// 063   ----------------------------------------
 BYTE   W96
// 064   ----------------------------------------
 BYTE   W96
// 065   ----------------------------------------
 BYTE   W96
// 066   ----------------------------------------
 BYTE   W96
// 067   ----------------------------------------
 BYTE   W96
// 068   ----------------------------------------
 BYTE   W96
// 069   ----------------------------------------
 BYTE   W96
// 070   ----------------------------------------
 BYTE   W96
// 071   ----------------------------------------
 BYTE   W96
// 072   ----------------------------------------
 BYTE   W96
// 073   ----------------------------------------
 BYTE   W96
// 074   ----------------------------------------
 BYTE   W96
// 075   ----------------------------------------
 BYTE   W96
// 076   ----------------------------------------
 BYTE   W96
// 077   ----------------------------------------
 BYTE   W96
// 078   ----------------------------------------
 BYTE   W96
// 079   ----------------------------------------
 BYTE   W96
// 080   ----------------------------------------
 BYTE   W96
// 081   ----------------------------------------
 BYTE   W96
// 082   ----------------------------------------
 BYTE   W96
// 083   ----------------------------------------
 BYTE   W96
// 084   ----------------------------------------
 BYTE   W96
// 085   ----------------------------------------
 BYTE   W96
// 086   ----------------------------------------
 BYTE   W96
// 087   ----------------------------------------
 BYTE   W96
// 088   ----------------------------------------
 BYTE   W24
 BYTE   GoTo
  POIN2 Label_0_01EF9FE6
 BYTE   FINE

//**************** Track 2 (Midi-Chn.1) ****************//

SeptetteForTheDeadPrincess_002:
// 000   ----------------------------------------
 BYTE   KEYSH   SeptetteForTheDeadPrincess_key+0
 BYTE   VOL   42*SeptetteForTheDeadPrincess_mvl/mxv
 BYTE   PAN   c_v+0
 BYTE   VOICE   44
 BYTE   W96
// 001   ----------------------------------------
 BYTE   W96
// 002   ----------------------------------------
 BYTE   W96
// 003   ----------------------------------------
 BYTE   W96
// 004   ----------------------------------------
 BYTE   W96
// 005   ----------------------------------------
 BYTE   W96
// 006   ----------------------------------------
 BYTE   W96
// 007   ----------------------------------------
 BYTE   W60
 BYTE   N12  Gn2  v112
 BYTE   W12
 BYTE   Cn3
 BYTE   W12
 BYTE   Dn3
 BYTE   W12
// 008   ----------------------------------------
 BYTE   N36  Ds3
 BYTE   W36
 BYTE   N12  Fn3
 BYTE   W12
 BYTE   N36  Dn3
 BYTE   W36
 BYTE   N12  Ds3
 BYTE   W12
// 009   ----------------------------------------
 BYTE   N60  Cn3
 BYTE   W60
 BYTE   N12  Gn2
 BYTE   W12
 BYTE   Cn3
 BYTE   W12
 BYTE   Dn3
 BYTE   W12
// 010   ----------------------------------------
 BYTE   N36  Ds3
 BYTE   W36
 BYTE   N12  Fn3
 BYTE   W12
 BYTE   N36  Dn3
 BYTE   W36
 BYTE   N12  As3
 BYTE   W12
// 011   ----------------------------------------
 BYTE   N60  Gn3
 BYTE   W60
 BYTE   N12
 BYTE   W12
 BYTE   As3
 BYTE   W12
 BYTE   Cn4
 BYTE   W12
// 012   ----------------------------------------
 BYTE   N24  Fn3
 BYTE   W24
 BYTE   N36
 BYTE   W36
 BYTE   N12
 BYTE   W12
 BYTE   Gn3
 BYTE   W12
 BYTE   As3
 BYTE   W12
// 013   ----------------------------------------
 BYTE   N24  Ds3
 BYTE   W24
 BYTE   N36
 BYTE   W36
 BYTE   N12  Cn3
 BYTE   W12
 BYTE   N12
 BYTE   W12
 BYTE   Dn3
 BYTE   W12
// 014   ----------------------------------------
 BYTE   N36  Ds3
 BYTE   W36
 BYTE   N12  Fn3
 BYTE   W12
 BYTE   N36  Dn3
 BYTE   W36
 BYTE   N12  As2
 BYTE   W12
// 015   ----------------------------------------
 BYTE   N48  Cn3
 BYTE   W48
 BYTE   Dn3
 BYTE   W48
// 016   ----------------------------------------
 BYTE   N60  Ds3
 BYTE   W60
 BYTE   N06  Dn3
 BYTE   W06
 BYTE   Ds3
 BYTE   W06
 BYTE   Dn3
 BYTE   W06
 BYTE   Cn3
 BYTE   W06
 BYTE   Gn2
 BYTE   W06
 BYTE   Gs2
 BYTE   W06
// 017   ----------------------------------------
 BYTE   N96  An2
 BYTE   W96
// 018   ----------------------------------------
 BYTE   W96
// 019   ----------------------------------------
 BYTE   W96
// 020   ----------------------------------------
 BYTE   W96
// 021   ----------------------------------------
 BYTE   W96
// 022   ----------------------------------------
 BYTE   N60  Ds4  v100
 BYTE   N60  Ds5
 BYTE   W60
 BYTE   N06  Dn4
 BYTE   N06  Dn5
 BYTE   W06
 BYTE   Cn4
 BYTE   N06  Cn5
 BYTE   W06
 BYTE   As3
 BYTE   N06  As4
 BYTE   W06
 BYTE   Gs3
 BYTE   N06  Gs4
 BYTE   W06
 BYTE   Gn3
 BYTE   N06  Gn4
 BYTE   W06
 BYTE   Fn3
 BYTE   N06  Fn4
 BYTE   W06
// 023   ----------------------------------------
 BYTE   N48  An3
 BYTE   N48  An4
 BYTE   W48
Label_1_01EFA0DA:
 BYTE   W12
 BYTE   N12  Gn2  v112
 BYTE   N12  Gn3
 BYTE   W12
 BYTE   Cn3
 BYTE   N12  Cn4
 BYTE   W12
 BYTE   Dn3
 BYTE   N12  Dn4
 BYTE   W12
// 024   ----------------------------------------
Label_1_01EFA0E9:
 BYTE   N36  Ds3  v112
 BYTE   N36  Ds4
 BYTE   W36
 BYTE   N12  Fn3
 BYTE   N12  Fn4
 BYTE   W12
 BYTE   N36  Dn3
 BYTE   N36  Dn4
 BYTE   W36
 BYTE   N12  Ds3
 BYTE   N12  Ds4
 BYTE   W12
 BYTE   PEND 
// 025   ----------------------------------------
Label_1_01EFA0FF:
 BYTE   N60  Cn3  v112
 BYTE   N60  Cn4
 BYTE   W60
 BYTE   N12  Gn2
 BYTE   N12  Gn3
 BYTE   W12
 BYTE   Cn3
 BYTE   N12  Cn4
 BYTE   W12
 BYTE   Dn3
 BYTE   N12  Dn4
 BYTE   W12
 BYTE   PEND 
// 026   ----------------------------------------
Label_1_01EFA113:
 BYTE   N36  Ds3  v112
 BYTE   N36  Ds4
 BYTE   W36
 BYTE   N12  Fn3
 BYTE   N12  Fn4
 BYTE   W12
 BYTE   N36  Dn3
 BYTE   N36  Dn4
 BYTE   W36
 BYTE   N12  As3
 BYTE   N12  As4
 BYTE   W12
 BYTE   PEND 
// 027   ----------------------------------------
Label_1_01EFA129:
 BYTE   N60  Gn3  v112
 BYTE   N60  Gn4
 BYTE   W60
 BYTE   N12  Gn3
 BYTE   N12  Gn4
 BYTE   W12
 BYTE   As3
 BYTE   N12  As4
 BYTE   W12
 BYTE   Cn4
 BYTE   N12  Cn5
 BYTE   W12
 BYTE   PEND 
// 028   ----------------------------------------
Label_1_01EFA13D:
 BYTE   N24  Fn3  v112
 BYTE   N24  Fn4
 BYTE   W24
 BYTE   N36  Fn3
 BYTE   N36  Fn4
 BYTE   W36
 BYTE   N12  Fn3
 BYTE   N12  Fn4
 BYTE   W12
 BYTE   Gn3
 BYTE   N12  Gn4
 BYTE   W12
 BYTE   As3
 BYTE   N12  As4
 BYTE   W12
 BYTE   PEND 
// 029   ----------------------------------------
Label_1_01EFA156:
 BYTE   N24  Ds3  v112
 BYTE   N24  Ds4
 BYTE   W24
 BYTE   N36  Ds3
 BYTE   N36  Ds4
 BYTE   W36
 BYTE   N12  Cn3
 BYTE   N12  Cn4
 BYTE   W12
 BYTE   Cn3
 BYTE   N12  Cn4
 BYTE   W12
 BYTE   Dn3
 BYTE   N12  Dn4
 BYTE   W12
 BYTE   PEND 
// 030   ----------------------------------------
Label_1_01EFA16F:
 BYTE   N36  Ds3  v112
 BYTE   N36  Ds4
 BYTE   W36
 BYTE   N12  Fn3
 BYTE   N12  Fn4
 BYTE   W12
 BYTE   N36  Dn3
 BYTE   N36  Dn4
 BYTE   W36
 BYTE   N12  As2
 BYTE   N12  As3
 BYTE   W12
 BYTE   PEND 
// 031   ----------------------------------------
 BYTE   N48  Cn3
 BYTE   N48  Cn4
 BYTE   W48
 BYTE   N24  Dn3  v100
 BYTE   N24  Dn4
 BYTE   W12
 BYTE   N12  Gn2
 BYTE   N12  Gn3
 BYTE   W12
 BYTE   Cn3
 BYTE   N12  Cn4
 BYTE   W12
 BYTE   Dn3
 BYTE   N12  Dn4
 BYTE   W12
// 032   ----------------------------------------
 BYTE   PATT
  POIN2 Label_1_01EFA0E9
// 033   ----------------------------------------
 BYTE   PATT
  POIN2 Label_1_01EFA0FF
// 034   ----------------------------------------
 BYTE   PATT
  POIN2 Label_1_01EFA113
// 035   ----------------------------------------
 BYTE   PATT
  POIN2 Label_1_01EFA129
// 036   ----------------------------------------
 BYTE   PATT
  POIN2 Label_1_01EFA13D
// 037   ----------------------------------------
 BYTE   PATT
  POIN2 Label_1_01EFA156
// 038   ----------------------------------------
 BYTE   PATT
  POIN2 Label_1_01EFA16F
// 039   ----------------------------------------
 BYTE   N48  Cn3  v112
 BYTE   N48  Cn4
 BYTE   W48
 BYTE   N12  Dn3  v100
 BYTE   N12  Dn4
 BYTE   W24
 BYTE   As2  v120
 BYTE   N12  As3
 BYTE   W12
 BYTE   Cs3
 BYTE   N12  Cs4
 BYTE   W12
// 040   ----------------------------------------
 BYTE   Ds4
 BYTE   W12
 BYTE   Cs4
 BYTE   W12
 BYTE   Ds4
 BYTE   W12
 BYTE   Cs4
 BYTE   W12
 BYTE   N18  Ds4
 BYTE   W18
 BYTE   Fs4
 BYTE   W18
 BYTE   N12  Fn4
 BYTE   W12
// 041   ----------------------------------------
 BYTE   Ds4
 BYTE   W12
 BYTE   Cs4
 BYTE   W12
 BYTE   Ds4
 BYTE   W12
 BYTE   Cs4
 BYTE   W12
 BYTE   N18  Ds4
 BYTE   W18
 BYTE   As4
 BYTE   W18
 BYTE   N12  Gs4
 BYTE   W12
// 042   ----------------------------------------
 BYTE   N18  Fs4
 BYTE   W18
 BYTE   Fn4
 BYTE   W18
 BYTE   N12  Ds4
 BYTE   W12
 BYTE   N18  Dn4
 BYTE   W18
 BYTE   As3
 BYTE   W18
 BYTE   N12  Gs3
 BYTE   W12
// 043   ----------------------------------------
 BYTE   N72  As3
 BYTE   W72
 BYTE   N12  As2
 BYTE   N12  As3
 BYTE   W12
 BYTE   Cs3
 BYTE   N12  Cs4
 BYTE   W12
// 044   ----------------------------------------
 BYTE   Ds3
 BYTE   N12  Ds4
 BYTE   W12
 BYTE   Cs3
 BYTE   N12  Cs4
 BYTE   W12
 BYTE   Ds3
 BYTE   N12  Ds4
 BYTE   W12
 BYTE   Cs3
 BYTE   N12  Cs4
 BYTE   W12
 BYTE   N18  Ds3
 BYTE   N18  Ds4
 BYTE   W18
 BYTE   Fs3
 BYTE   N18  Fs4
 BYTE   W18
 BYTE   N12  Fn3
 BYTE   N12  Fn4
 BYTE   W12
// 045   ----------------------------------------
 BYTE   Ds3
 BYTE   N12  Ds4
 BYTE   W12
 BYTE   Cs3
 BYTE   N12  Cs4
 BYTE   W12
 BYTE   Ds3
 BYTE   N12  Ds4
 BYTE   W12
 BYTE   Cs3
 BYTE   N12  Cs4
 BYTE   W12
 BYTE   N18  Ds3
 BYTE   N18  Ds4
 BYTE   W18
 BYTE   As3
 BYTE   N18  As4
 BYTE   W18
 BYTE   N12  Gs3
 BYTE   N12  Gs4
 BYTE   W12
// 046   ----------------------------------------
 BYTE   N18  Fs3
 BYTE   N18  Fs4
 BYTE   W18
 BYTE   Fn3
 BYTE   N18  Fn4
 BYTE   W18
 BYTE   N12  Ds3
 BYTE   N12  Ds4
 BYTE   W12
 BYTE   N18  Fn3
 BYTE   N18  Fn4
 BYTE   W18
 BYTE   Fs3
 BYTE   N18  Fs4
 BYTE   W18
 BYTE   N12  Gs3
 BYTE   N12  Gs4
 BYTE   W12
// 047   ----------------------------------------
 BYTE   N24  As3
 BYTE   N24  As4
 BYTE   W36
 BYTE   As3
 BYTE   N24  As4
 BYTE   W36
 BYTE   N12  As3
 BYTE   N12  As4
 BYTE   W12
 BYTE   As3
 BYTE   N12  As4
 BYTE   W12
// 048   ----------------------------------------
Label_1_01EFA27B:
 BYTE   W24
 BYTE   N12  Dn4  v100
 BYTE   N12  Gn4
 BYTE   W12
 BYTE   As4
 BYTE   N12  Dn5
 BYTE   W12
 BYTE   N36  An4
 BYTE   N36  Cn5
 BYTE   W36
 BYTE   N12  Gn4
 BYTE   N12  As4
 BYTE   W12
 BYTE   PEND 
// 049   ----------------------------------------
Label_1_01EFA291:
 BYTE   N18  Fn4  v100
 BYTE   N18  An4
 BYTE   W18
 BYTE   Dn4
 BYTE   N18  Fn4
 BYTE   W18
 BYTE   N54  Ds4
 BYTE   N84  Gn4
 BYTE   W54
 BYTE   N30  Dn4
 BYTE   W06
 BYTE   PEND 
// 050   ----------------------------------------
 BYTE   PATT
  POIN2 Label_1_01EFA27B
// 051   ----------------------------------------
Label_1_01EFA2A9:
 BYTE   N18  Fn4  v100
 BYTE   N18  An4
 BYTE   W18
 BYTE   Cn5
 BYTE   N18  Fn5
 BYTE   W18
 BYTE   N54  As4
 BYTE   N84  Dn5
 BYTE   W54
 BYTE   N30  An4
 BYTE   W06
 BYTE   PEND 
// 052   ----------------------------------------
 BYTE   PATT
  POIN2 Label_1_01EFA27B
// 053   ----------------------------------------
Label_1_01EFA2C1:
 BYTE   N18  Fn4  v100
 BYTE   N18  An4
 BYTE   W18
 BYTE   Dn4
 BYTE   N18  Fn4
 BYTE   W18
 BYTE   N12  Ds4
 BYTE   N12  Gn4
 BYTE   W54
 BYTE   N30  Dn4
 BYTE   W06
 BYTE   PEND 
// 054   ----------------------------------------
Label_1_01EFA2D4:
 BYTE   W24
 BYTE   N12  Dn4  v100
 BYTE   N12  Gn4
 BYTE   W12
 BYTE   Fn4
 BYTE   N12  An4
 BYTE   W12
 BYTE   Gn4
 BYTE   N12  As4
 BYTE   W12
 BYTE   Fn4
 BYTE   N12  An4
 BYTE   W12
 BYTE   Dn4
 BYTE   N12  Fn4
 BYTE   W12
 BYTE   N60  Dn4
 BYTE   N60  Gn4
 BYTE   W12
 BYTE   PEND 
// 055   ----------------------------------------
 BYTE   W48
 BYTE   N72  As4
 BYTE   N72  Dn5
 BYTE   W48
// 056   ----------------------------------------
 BYTE   PATT
  POIN2 Label_1_01EFA27B
// 057   ----------------------------------------
 BYTE   PATT
  POIN2 Label_1_01EFA291
// 058   ----------------------------------------
 BYTE   PATT
  POIN2 Label_1_01EFA27B
// 059   ----------------------------------------
 BYTE   PATT
  POIN2 Label_1_01EFA2A9
// 060   ----------------------------------------
 BYTE   PATT
  POIN2 Label_1_01EFA27B
// 061   ----------------------------------------
 BYTE   PATT
  POIN2 Label_1_01EFA2C1
// 062   ----------------------------------------
 BYTE   PATT
  POIN2 Label_1_01EFA2D4
// 063   ----------------------------------------
 BYTE   W48
 BYTE   N96  As4  v100
 BYTE   N96  Dn5
 BYTE   W48
// 064   ----------------------------------------
 BYTE   W48
 BYTE   N36  An4  v072
 BYTE   N36  Cn5
 BYTE   W36
 BYTE   N12  Gn4
 BYTE   N12  As4
 BYTE   W12
// 065   ----------------------------------------
Label_1_01EFA32D:
 BYTE   N18  Fn4  v072
 BYTE   N18  An4
 BYTE   W18
 BYTE   Dn4
 BYTE   N18  Fn4
 BYTE   W18
 BYTE   N84  Ds4
 BYTE   N84  Gn4
 BYTE   W60
 BYTE   PEND 
// 066   ----------------------------------------
Label_1_01EFA33D:
 BYTE   W24
 BYTE   N12  Dn4  v072
 BYTE   N12  Gn4
 BYTE   W12
 BYTE   As4
 BYTE   N12  Dn5
 BYTE   W12
 BYTE   N36  An4
 BYTE   N36  Cn5
 BYTE   W36
 BYTE   N12  Gn4
 BYTE   N12  As4
 BYTE   W12
 BYTE   PEND 
// 067   ----------------------------------------
Label_1_01EFA353:
 BYTE   N18  Fn4  v072
 BYTE   N18  An4
 BYTE   W18
 BYTE   Cn5
 BYTE   N18  Fn5
 BYTE   W18
 BYTE   N96  As4
 BYTE   N96  Dn5
 BYTE   W60
 BYTE   PEND 
// 068   ----------------------------------------
Label_1_01EFA363:
 BYTE   W24
 BYTE   N12  Dn4  v072
 BYTE   N12  Gn4
 BYTE   W12
 BYTE   N48  As4
 BYTE   TIE  Dn5
 BYTE   W12
 BYTE   N36  An4
 BYTE   N36  Cn5
 BYTE   W36
 BYTE   N12  Gn4
 BYTE   N60  As4
 BYTE   W12
 BYTE   PEND 
// 069   ----------------------------------------
Label_1_01EFA37A:
 BYTE   N18  Fn4  v072
 BYTE   N18  An4
 BYTE   W18
 BYTE   Dn4
 BYTE   N18  Fn4
 BYTE   W18
 BYTE   N12  Ds4
 BYTE   N12  Gn4
 BYTE   W12
 BYTE   PEND 
 BYTE   EOT
 BYTE   Dn5
 BYTE   W48
// 070   ----------------------------------------
Label_1_01EFA38D:
 BYTE   W24
 BYTE   N12  Dn4  v072
 BYTE   N12  Gn4
 BYTE   W12
 BYTE   Fn4
 BYTE   N12  An4
 BYTE   W12
 BYTE   Gn4
 BYTE   N12  As4
 BYTE   W12
 BYTE   Fn4
 BYTE   N12  An4
 BYTE   W12
 BYTE   Dn4
 BYTE   N12  Fn4
 BYTE   W12
 BYTE   N60  Dn4
 BYTE   N60  Gn4
 BYTE   W12
 BYTE   PEND 
// 071   ----------------------------------------
 BYTE   W48
 BYTE   N72  As4
 BYTE   N72  Dn5
 BYTE   W48
// 072   ----------------------------------------
 BYTE   PATT
  POIN2 Label_1_01EFA33D
// 073   ----------------------------------------
 BYTE   PATT
  POIN2 Label_1_01EFA32D
// 074   ----------------------------------------
 BYTE   PATT
  POIN2 Label_1_01EFA33D
// 075   ----------------------------------------
 BYTE   PATT
  POIN2 Label_1_01EFA353
// 076   ----------------------------------------
 BYTE   PATT
  POIN2 Label_1_01EFA363
// 077   ----------------------------------------
 BYTE   PATT
  POIN2 Label_1_01EFA37A
// 078   ----------------------------------------
 BYTE   EOT
 BYTE   Dn5
 BYTE   W48
// 079   ----------------------------------------
 BYTE   PATT
  POIN2 Label_1_01EFA38D
// 080   ----------------------------------------
 BYTE   W48
 BYTE   N96  As4  v072
 BYTE   N96  Dn5
 BYTE   W48
// 081   ----------------------------------------
 BYTE   W48
 BYTE   N60  Ds3  v112
 BYTE   N60  Ds4
 BYTE   W48
// 082   ----------------------------------------
 BYTE   W12
 BYTE   N06  Dn3
 BYTE   N06  Dn4
 BYTE   W06
 BYTE   Ds3
 BYTE   N06  Ds4
 BYTE   W06
 BYTE   Dn3
 BYTE   N06  Dn4
 BYTE   W06
 BYTE   Cn3
 BYTE   N06  Cn4
 BYTE   W06
 BYTE   Gn2
 BYTE   N06  Gn3
 BYTE   W06
 BYTE   Gs2
 BYTE   N06  Gs3
 BYTE   W06
 BYTE   N96  An2
 BYTE   N96  An3
 BYTE   W48
// 083   ----------------------------------------
 BYTE   W96
// 084   ----------------------------------------
 BYTE   W96
// 085   ----------------------------------------
 BYTE   W96
// 086   ----------------------------------------
 BYTE   W96
// 087   ----------------------------------------
 BYTE   W48
 BYTE   N60  Ds4  v100
 BYTE   N60  Ds5
 BYTE   W48
// 088   ----------------------------------------
 BYTE   W12
 BYTE   N06  Dn4
 BYTE   N06  Dn5
 BYTE   W06
 BYTE   Cn4
 BYTE   N06  Cn5
 BYTE   W06
 BYTE   As3
 BYTE   N06  As4
 BYTE   W06
 BYTE   Gs3
 BYTE   N06  Gs4
 BYTE   W06
 BYTE   Gn3
 BYTE   N06  Gn4
 BYTE   W06
 BYTE   Fn3
 BYTE   N06  Fn4
 BYTE   W06
 BYTE   N48  An3
 BYTE   N48  An4
 BYTE   W48
// 089   ----------------------------------------
 BYTE   W24
 BYTE   GoTo
  POIN2 Label_1_01EFA0DA
 BYTE   FINE

//**************** Track 3 (Midi-Chn.2) ****************//

SeptetteForTheDeadPrincess_003:
// 000   ----------------------------------------
 BYTE   KEYSH   SeptetteForTheDeadPrincess_key+0
 BYTE   VOL   42*SeptetteForTheDeadPrincess_mvl/mxv
 BYTE   PAN   c_v+0
 BYTE   VOICE   1
Label_2_01EFA440:
 BYTE   N36  Bn1  v100
 BYTE   N36  Fs2
 BYTE   W36
 BYTE   Bn1
 BYTE   N36  Fs2
 BYTE   W36
 BYTE   N24  Cn2
 BYTE   N24  Gn2
 BYTE   W24
 BYTE   PEND 
// 001   ----------------------------------------
 BYTE   PATT
  POIN2 Label_2_01EFA440
// 002   ----------------------------------------
 BYTE   PATT
  POIN2 Label_2_01EFA440
// 003   ----------------------------------------
 BYTE   PATT
  POIN2 Label_2_01EFA440
// 004   ----------------------------------------
 BYTE   N36  Gn1  v100
 BYTE   N36  Dn2
 BYTE   W36
 BYTE   Gn1
 BYTE   N36  Dn2
 BYTE   W36
 BYTE   N24  Gn1
 BYTE   N24  Dn2
 BYTE   W24
// 005   ----------------------------------------
 BYTE   N36  An1
 BYTE   N36  En2
 BYTE   W36
 BYTE   An1
 BYTE   N36  En2
 BYTE   W36
 BYTE   N24  An1
 BYTE   N24  En2
 BYTE   W24
// 006   ----------------------------------------
 BYTE   PATT
  POIN2 Label_2_01EFA440
// 007   ----------------------------------------
 BYTE   N48  Bn1  v100
 BYTE   N48  Fs2
 BYTE   W96
// 008   ----------------------------------------
 BYTE   VOICE   1
 BYTE   N12  Gn3  v120
 BYTE   W12
 BYTE   N06  Ds4
 BYTE   W06
 BYTE   N12  Dn4
 BYTE   W12
 BYTE   N06  Fn3
 BYTE   W06
 BYTE   Gn3
 BYTE   W06
 BYTE   Fn3
 BYTE   W06
 BYTE   N12  Gn3
 BYTE   W12
 BYTE   N06  Ds4
 BYTE   W06
 BYTE   N12  Dn4
 BYTE   W12
 BYTE   N06  Fn3
 BYTE   W06
 BYTE   Ds3
 BYTE   W06
 BYTE   Fn3
 BYTE   W06
// 009   ----------------------------------------
 BYTE   N12  Gn3
 BYTE   W12
 BYTE   N06  Ds4
 BYTE   W06
 BYTE   N12  Dn4
 BYTE   W12
 BYTE   Fn4
 BYTE   W12
 BYTE   N06  Gn4
 BYTE   W06
 BYTE   N12  Dn5
 BYTE   W12
 BYTE   N06  Gn4
 BYTE   W06
 BYTE   N12  Fn4
 BYTE   W12
 BYTE   N06  Gn4
 BYTE   W06
 BYTE   N12  Ds4
 BYTE   W12
// 010   ----------------------------------------
 BYTE   Gn3
 BYTE   W12
 BYTE   N06  Ds4
 BYTE   W06
 BYTE   N12  Dn4
 BYTE   W12
 BYTE   N06  Fn3
 BYTE   W06
 BYTE   Gn3
 BYTE   W06
 BYTE   Fn3
 BYTE   W06
 BYTE   N12  Gn3
 BYTE   W12
 BYTE   N06  Ds4
 BYTE   W06
 BYTE   N12  Dn4
 BYTE   W12
 BYTE   N06  Fn3
 BYTE   W06
 BYTE   Ds3
 BYTE   W06
 BYTE   Fn3
 BYTE   W06
// 011   ----------------------------------------
 BYTE   W12
 BYTE   Ds4
 BYTE   W06
 BYTE   N12  Dn4
 BYTE   W12
 BYTE   As3
 BYTE   W12
 BYTE   N06  Cn4
 BYTE   W18
 BYTE   Ds4
 BYTE   W06
 BYTE   Dn4
 BYTE   W06
 BYTE   N12  As3
 BYTE   W12
 BYTE   N06  Ds4
 BYTE   W06
 BYTE   Dn4
 BYTE   W06
// 012   ----------------------------------------
 BYTE   N12  Gn3
 BYTE   W12
 BYTE   N06  Cn4
 BYTE   W06
 BYTE   Gn3
 BYTE   W06
 BYTE   As3
 BYTE   W06
 BYTE   N12  Cn4
 BYTE   W12
 BYTE   N06  Ds4
 BYTE   W06
 BYTE   N12  Fn4
 BYTE   W12
 BYTE   N06  Cn4
 BYTE   W06
 BYTE   As3
 BYTE   W06
 BYTE   Gn3
 BYTE   W06
 BYTE   Ds4
 BYTE   W06
 BYTE   Fn4
 BYTE   W06
 BYTE   Cn4
 BYTE   W06
// 013   ----------------------------------------
 BYTE   W12
 BYTE   As3
 BYTE   W06
 BYTE   Gs3
 BYTE   W06
 BYTE   As3
 BYTE   W06
 BYTE   N12  Gs3
 BYTE   W12
 BYTE   N06  Ds3
 BYTE   W06
 BYTE   N12
 BYTE   W12
 BYTE   N06  Ds4
 BYTE   W06
 BYTE   N12  Fn4
 BYTE   W12
 BYTE   N06  Gn4
 BYTE   W06
 BYTE   As4
 BYTE   W06
 BYTE   Gn4
 BYTE   W06
// 014   ----------------------------------------
 BYTE   N12  Fn4
 BYTE   W12
 BYTE   N06  Cn4
 BYTE   W06
 BYTE   Gs3
 BYTE   W06
 BYTE   Fn3
 BYTE   W06
 BYTE   Fn4
 BYTE   W06
 BYTE   N12  Cn4
 BYTE   W12
 BYTE   Gn4
 BYTE   W12
 BYTE   N06  Dn4
 BYTE   W06
 BYTE   Bn3
 BYTE   W06
 BYTE   N06
 BYTE   W06
 BYTE   Cn4
 BYTE   W06
 BYTE   N12  Dn4
 BYTE   W12
// 015   ----------------------------------------
 BYTE   Gs4
 BYTE   W12
 BYTE   N06  Ds4
 BYTE   W06
 BYTE   Cn4
 BYTE   W06
 BYTE   Gs3
 BYTE   W06
 BYTE   Ds4
 BYTE   W06
 BYTE   N12  Gn4
 BYTE   W12
 BYTE   As4
 BYTE   W12
 BYTE   N06  Fn4
 BYTE   W06
 BYTE   Dn4
 BYTE   W06
 BYTE   Ds4
 BYTE   W06
 BYTE   Dn4
 BYTE   W06
 BYTE   N12  As3
 BYTE   W12
// 016   ----------------------------------------
Label_2_01EFA572:
 BYTE   N06  Cn3  v120
 BYTE   W06
 BYTE   Dn3
 BYTE   W06
 BYTE   Ds3
 BYTE   W06
 BYTE   Gn3
 BYTE   W06
 BYTE   Cn4
 BYTE   W06
 BYTE   Dn4
 BYTE   W06
 BYTE   Ds4
 BYTE   W06
 BYTE   Gn4
 BYTE   W06
 BYTE   Cn3
 BYTE   W06
 BYTE   Dn3
 BYTE   W06
 BYTE   Ds3
 BYTE   W06
 BYTE   Gs3
 BYTE   W06
 BYTE   Cn4
 BYTE   W06
 BYTE   Dn4
 BYTE   W06
 BYTE   Ds4
 BYTE   W06
 BYTE   Gs4
 BYTE   W06
 BYTE   PEND 
// 017   ----------------------------------------
Label_2_01EFA595:
 BYTE   N06  Cn3  v120
 BYTE   W06
 BYTE   Dn3
 BYTE   W06
 BYTE   Ds3
 BYTE   W06
 BYTE   An3
 BYTE   W06
 BYTE   Cn4
 BYTE   W06
 BYTE   Dn4
 BYTE   W06
 BYTE   Ds4
 BYTE   W06
 BYTE   An4
 BYTE   W06
 BYTE   Cn3
 BYTE   W06
 BYTE   Dn3
 BYTE   W06
 BYTE   Ds3
 BYTE   W06
 BYTE   Gs3
 BYTE   W06
 BYTE   Cn4
 BYTE   W06
 BYTE   Dn4
 BYTE   W06
 BYTE   Ds4
 BYTE   W06
 BYTE   Gs4
 BYTE   W06
 BYTE   PEND 
// 018   ----------------------------------------
 BYTE   PATT
  POIN2 Label_2_01EFA572
// 019   ----------------------------------------
 BYTE   PATT
  POIN2 Label_2_01EFA595
// 020   ----------------------------------------
 BYTE   PATT
  POIN2 Label_2_01EFA572
// 021   ----------------------------------------
 BYTE   PATT
  POIN2 Label_2_01EFA595
// 022   ----------------------------------------
 BYTE   PATT
  POIN2 Label_2_01EFA572
// 023   ----------------------------------------
 BYTE   W48
Label_2_01EFA5D2:
 BYTE   W48
// 024   ----------------------------------------
Label_2_01EFA5D3:
 BYTE   N12  Gn3  v127
 BYTE   W12
 BYTE   N06  Ds4
 BYTE   W06
 BYTE   N12  Dn4
 BYTE   W12
 BYTE   N06  Fn3
 BYTE   W06
 BYTE   Gn3
 BYTE   W06
 BYTE   Fn3
 BYTE   W06
 BYTE   N12  Gn3
 BYTE   W12
 BYTE   N06  Ds4
 BYTE   W06
 BYTE   N12  Dn4
 BYTE   W12
 BYTE   N06  Fn3
 BYTE   W06
 BYTE   Ds3
 BYTE   W06
 BYTE   Fn3
 BYTE   W06
 BYTE   PEND 
// 025   ----------------------------------------
Label_2_01EFA5F5:
 BYTE   N12  Gn3  v127
 BYTE   W12
 BYTE   N06  Ds4
 BYTE   W06
 BYTE   N12  Dn4
 BYTE   W12
 BYTE   Fn4
 BYTE   W12
 BYTE   N06  Gn4
 BYTE   W06
 BYTE   N12  Dn5
 BYTE   W12
 BYTE   N06  Gn4
 BYTE   W06
 BYTE   N12  Fn4
 BYTE   W12
 BYTE   N06  Gn4
 BYTE   W06
 BYTE   N12  Ds4
 BYTE   W12
 BYTE   PEND 
// 026   ----------------------------------------
 BYTE   PATT
  POIN2 Label_2_01EFA5D3
// 027   ----------------------------------------
Label_2_01EFA619:
 BYTE   W12
 BYTE   N06  Ds4  v127
 BYTE   W06
 BYTE   N12  Dn4
 BYTE   W12
 BYTE   As3
 BYTE   W12
 BYTE   N06  Cn4
 BYTE   W18
 BYTE   Ds4
 BYTE   W06
 BYTE   Dn4
 BYTE   W06
 BYTE   N12  As3
 BYTE   W12
 BYTE   N06  Ds4
 BYTE   W06
 BYTE   Dn4
 BYTE   W06
 BYTE   PEND 
// 028   ----------------------------------------
Label_2_01EFA633:
 BYTE   N12  Gn3  v127
 BYTE   W12
 BYTE   N06  Cn4
 BYTE   W06
 BYTE   Gn3
 BYTE   W06
 BYTE   As3
 BYTE   W06
 BYTE   N12  Cn4
 BYTE   W12
 BYTE   N06  Ds4
 BYTE   W06
 BYTE   N12  Fn4
 BYTE   W12
 BYTE   N06  Cn4
 BYTE   W06
 BYTE   As3
 BYTE   W06
 BYTE   Gn3
 BYTE   W06
 BYTE   Ds4
 BYTE   W06
 BYTE   Fn4
 BYTE   W06
 BYTE   Cn4
 BYTE   W06
 BYTE   PEND 
// 029   ----------------------------------------
Label_2_01EFA655:
 BYTE   W12
 BYTE   N06  As3  v127
 BYTE   W06
 BYTE   Gs3
 BYTE   W06
 BYTE   As3
 BYTE   W06
 BYTE   N12  Gs3
 BYTE   W12
 BYTE   N06  Ds3
 BYTE   W06
 BYTE   N12
 BYTE   W12
 BYTE   N06  Ds4
 BYTE   W06
 BYTE   N12  Fn4
 BYTE   W12
 BYTE   N06  Gn4
 BYTE   W06
 BYTE   As4
 BYTE   W06
 BYTE   Gn4
 BYTE   W06
 BYTE   PEND 
// 030   ----------------------------------------
Label_2_01EFA674:
 BYTE   N12  Fn4  v127
 BYTE   W12
 BYTE   N06  Cn4
 BYTE   W06
 BYTE   Gs3
 BYTE   W06
 BYTE   Fn3
 BYTE   W06
 BYTE   Fn4
 BYTE   W06
 BYTE   N12  Cn4
 BYTE   W12
 BYTE   Gn4
 BYTE   W12
 BYTE   N06  Dn4
 BYTE   W06
 BYTE   Bn3
 BYTE   W06
 BYTE   N06
 BYTE   W06
 BYTE   Cn4
 BYTE   W06
 BYTE   N12  Dn4
 BYTE   W12
 BYTE   PEND 
// 031   ----------------------------------------
Label_2_01EFA693:
 BYTE   N12  Gs4  v127
 BYTE   W12
 BYTE   N06  Ds4
 BYTE   W06
 BYTE   Cn4
 BYTE   W06
 BYTE   Gs3
 BYTE   W06
 BYTE   Ds4
 BYTE   W06
 BYTE   N12  Gn4
 BYTE   W12
 BYTE   As4
 BYTE   W12
 BYTE   N06  Fn4
 BYTE   W06
 BYTE   Dn4
 BYTE   W06
 BYTE   Ds4
 BYTE   W06
 BYTE   Dn4
 BYTE   W06
 BYTE   N12  As3
 BYTE   W12
 BYTE   PEND 
// 032   ----------------------------------------
 BYTE   PATT
  POIN2 Label_2_01EFA5D3
// 033   ----------------------------------------
 BYTE   PATT
  POIN2 Label_2_01EFA5F5
// 034   ----------------------------------------
 BYTE   PATT
  POIN2 Label_2_01EFA5D3
// 035   ----------------------------------------
 BYTE   PATT
  POIN2 Label_2_01EFA619
// 036   ----------------------------------------
 BYTE   PATT
  POIN2 Label_2_01EFA633
// 037   ----------------------------------------
 BYTE   PATT
  POIN2 Label_2_01EFA655
// 038   ----------------------------------------
 BYTE   PATT
  POIN2 Label_2_01EFA674
// 039   ----------------------------------------
 BYTE   PATT
  POIN2 Label_2_01EFA693
// 040   ----------------------------------------
 BYTE   W96
// 041   ----------------------------------------
 BYTE   W96
// 042   ----------------------------------------
 BYTE   W96
// 043   ----------------------------------------
 BYTE   W96
// 044   ----------------------------------------
 BYTE   W96
// 045   ----------------------------------------
 BYTE   W96
// 046   ----------------------------------------
 BYTE   W96
// 047   ----------------------------------------
 BYTE   W96
// 048   ----------------------------------------
 BYTE   W96
// 049   ----------------------------------------
 BYTE   W96
// 050   ----------------------------------------
 BYTE   W96
// 051   ----------------------------------------
 BYTE   W96
// 052   ----------------------------------------
 BYTE   W96
// 053   ----------------------------------------
 BYTE   W96
// 054   ----------------------------------------
 BYTE   W96
// 055   ----------------------------------------
 BYTE   W96
// 056   ----------------------------------------
 BYTE   W96
// 057   ----------------------------------------
 BYTE   W96
// 058   ----------------------------------------
 BYTE   W96
// 059   ----------------------------------------
 BYTE   W96
// 060   ----------------------------------------
 BYTE   W96
// 061   ----------------------------------------
 BYTE   W96
// 062   ----------------------------------------
 BYTE   W96
// 063   ----------------------------------------
 BYTE   W96
// 064   ----------------------------------------
 BYTE   N06  Gn4  v127
 BYTE   W06
 BYTE   As4
 BYTE   W06
 BYTE   Cn5
 BYTE   W06
 BYTE   Dn5
 BYTE   W06
 BYTE   N12  An4
 BYTE   W12
 BYTE   N06  Fn4
 BYTE   W06
 BYTE   Gn4
 BYTE   W18
 BYTE   N12  Fn4
 BYTE   W12
 BYTE   Gn4
 BYTE   W12
 BYTE   An4
 BYTE   W12
// 065   ----------------------------------------
 BYTE   N06  Gn4
 BYTE   W06
 BYTE   Cn5
 BYTE   W06
 BYTE   As4
 BYTE   W06
 BYTE   Cn5
 BYTE   W06
 BYTE   An4
 BYTE   W06
 BYTE   Cn5
 BYTE   W06
 BYTE   Gn4
 BYTE   W06
 BYTE   As4
 BYTE   W06
 BYTE   N09  Gn4
 BYTE   W08
 BYTE   N01  Dn5
 BYTE   W10
 BYTE   N06  Cn5
 BYTE   W06
 BYTE   N09  Gn4
 BYTE   W08
 BYTE   N01  Dn5
 BYTE   W10
 BYTE   N06  Cn5
 BYTE   W06
// 066   ----------------------------------------
 BYTE   An4
 BYTE   W06
 BYTE   As4
 BYTE   W06
 BYTE   Gn4
 BYTE   W06
 BYTE   An4
 BYTE   W06
 BYTE   Fn4
 BYTE   W06
 BYTE   Gn4
 BYTE   W06
 BYTE   Dn4
 BYTE   W06
 BYTE   Fn4
 BYTE   W06
 BYTE   N03  Dn4
 BYTE   W02
 BYTE   N01  Gn4
 BYTE   W03
 BYTE   N03  Dn4
 BYTE   W03
 BYTE   N04  Gn4
 BYTE   W04
 BYTE   N03  Dn4
 BYTE   W03
 BYTE   N02  Cn4
 BYTE   W02
 BYTE   N04  Dn4
 BYTE   W04
 BYTE   N03  Fn4
 BYTE   W03
 BYTE   N06  Gn4
 BYTE   W06
 BYTE   Cn4
 BYTE   W06
 BYTE   Dn4
 BYTE   W06
 BYTE   As3
 BYTE   W06
// 067   ----------------------------------------
 BYTE   N09  Cn4
 BYTE   W09
 BYTE   An3
 BYTE   W09
 BYTE   N06  As3
 BYTE   W06
 BYTE   N09  Gn3
 BYTE   W09
 BYTE   An3
 BYTE   W09
 BYTE   N06  Fn3
 BYTE   W06
 BYTE   Gn3
 BYTE   W06
 BYTE   Fn3
 BYTE   W06
 BYTE   Dn3
 BYTE   W06
 BYTE   Fn3
 BYTE   W06
 BYTE   N12  Gn3
 BYTE   W12
 BYTE   Dn4
 BYTE   W12
// 068   ----------------------------------------
 BYTE   N06  Cn4
 BYTE   W06
 BYTE   As3
 BYTE   W06
 BYTE   An3
 BYTE   W06
 BYTE   Fn3
 BYTE   W06
 BYTE   Gn3
 BYTE   W06
 BYTE   N06
 BYTE   W06
 BYTE   N06
 BYTE   W06
 BYTE   An3
 BYTE   W06
 BYTE   Gn3
 BYTE   W06
 BYTE   An3
 BYTE   W06
 BYTE   As3
 BYTE   W06
 BYTE   Cn4
 BYTE   W06
 BYTE   Dn4
 BYTE   W06
 BYTE   Fn4
 BYTE   W06
 BYTE   Gn4
 BYTE   W06
 BYTE   Dn4
 BYTE   W06
// 069   ----------------------------------------
 BYTE   An4
 BYTE   W06
 BYTE   Dn4
 BYTE   W06
 BYTE   As4
 BYTE   W06
 BYTE   Cn5
 BYTE   W06
 BYTE   N03  An4
 BYTE   W03
 BYTE   As4
 BYTE   W03
 BYTE   Gn4
 BYTE   W03
 BYTE   An4
 BYTE   W03
 BYTE   N06  Fn4
 BYTE   W06
 BYTE   En4
 BYTE   W06
 BYTE   Cn4
 BYTE   W06
 BYTE   N05  As3
 BYTE   W05
 BYTE   N03  En3
 BYTE   W03
 BYTE   Gn3
 BYTE   W03
 BYTE   An3
 BYTE   W03
 BYTE   N04  As3
 BYTE   W04
 BYTE   N06  Cn4
 BYTE   W06
 BYTE   As3
 BYTE   W06
 BYTE   Cn4
 BYTE   W06
 BYTE   En4
 BYTE   W06
// 070   ----------------------------------------
 BYTE   Gn4
 BYTE   W06
 BYTE   An4
 BYTE   W06
 BYTE   As4
 BYTE   W06
 BYTE   Cn5
 BYTE   W06
 BYTE   As4
 BYTE   W06
 BYTE   An4
 BYTE   W06
 BYTE   Gn4
 BYTE   W06
 BYTE   Fn4
 BYTE   W06
 BYTE   Gn4
 BYTE   W06
 BYTE   Fn4
 BYTE   W06
 BYTE   Dn4
 BYTE   W06
 BYTE   Gn4
 BYTE   W06
 BYTE   Fn4
 BYTE   W06
 BYTE   Dn4
 BYTE   W06
 BYTE   N12  Gn4
 BYTE   W12
// 071   ----------------------------------------
 BYTE   N06  Dn5
 BYTE   W06
 BYTE   Cn5
 BYTE   W06
 BYTE   As4
 BYTE   W06
 BYTE   Dn5
 BYTE   W06
 BYTE   N12  Cn5
 BYTE   W12
 BYTE   An4
 BYTE   W12
 BYTE   N06  Dn4
 BYTE   W06
 BYTE   As3
 BYTE   W06
 BYTE   An3
 BYTE   W06
 BYTE   Gn3
 BYTE   W06
 BYTE   Dn3
 BYTE   W06
 BYTE   As2
 BYTE   W06
 BYTE   An2
 BYTE   W06
 BYTE   Gn2
 BYTE   W06
// 072   ----------------------------------------
 BYTE   Dn2
 BYTE   W06
 BYTE   Gn2
 BYTE   W06
 BYTE   An2
 BYTE   W06
 BYTE   As2
 BYTE   W06
 BYTE   Dn3
 BYTE   W06
 BYTE   Gn3
 BYTE   W06
 BYTE   An3
 BYTE   W06
 BYTE   As3
 BYTE   W18
 BYTE   N12  Fn4
 BYTE   N12  Fn5
 BYTE   W12
 BYTE   Gn4
 BYTE   N12  Gn5
 BYTE   W12
 BYTE   An4
 BYTE   N12  An5
 BYTE   W12
// 073   ----------------------------------------
 BYTE   N06  Gn4
 BYTE   N06  Gn5
 BYTE   W06
 BYTE   Cn5
 BYTE   N06  Cn6
 BYTE   W06
 BYTE   As4
 BYTE   N06  As5
 BYTE   W06
 BYTE   Cn5
 BYTE   N06  Cn6
 BYTE   W06
 BYTE   An4
 BYTE   N06  An5
 BYTE   W06
 BYTE   Cn5
 BYTE   N06  Cn6
 BYTE   W06
 BYTE   Gn4
 BYTE   N06  Gn5
 BYTE   W06
 BYTE   As4
 BYTE   N06  As5
 BYTE   W06
 BYTE   N09  Gn4
 BYTE   N09  Gn5
 BYTE   W08
 BYTE   N01  Dn5
 BYTE   N09  Dn6
 BYTE   W10
 BYTE   N06  Cn5
 BYTE   N06  Cn6
 BYTE   W06
 BYTE   N09  Gn4
 BYTE   N09  Gn5
 BYTE   W08
 BYTE   N01  Dn5
 BYTE   N09  Dn6
 BYTE   W10
 BYTE   N06  Cn5
 BYTE   N06  Cn6
 BYTE   W06
// 074   ----------------------------------------
 BYTE   An4
 BYTE   N06  An5
 BYTE   W06
 BYTE   As4
 BYTE   N06  As5
 BYTE   W06
 BYTE   Gn4
 BYTE   N06  Gn5
 BYTE   W06
 BYTE   An4
 BYTE   N06  An5
 BYTE   W06
 BYTE   Fn4
 BYTE   N06  Fn5
 BYTE   W06
 BYTE   Gn4
 BYTE   N06  Gn5
 BYTE   W06
 BYTE   Dn4
 BYTE   N06  Dn5
 BYTE   W06
 BYTE   Fn4
 BYTE   N06  Fn5
 BYTE   W06
 BYTE   N03  Dn4
 BYTE   N03  Dn5
 BYTE   W02
 BYTE   N01  Gn4
 BYTE   N03  Gn5
 BYTE   W03
 BYTE   Dn4
 BYTE   N03  Dn5
 BYTE   W03
 BYTE   Gn4
 BYTE   N03  Gn5
 BYTE   W04
 BYTE   Dn4
 BYTE   N03  Dn5
 BYTE   W03
 BYTE   N02  Cn4
 BYTE   N03  Cn5
 BYTE   W02
 BYTE   N01  Dn4
 BYTE   N03  Dn5
 BYTE   W04
 BYTE   Fn4
 BYTE   N03  Fn5
 BYTE   W03
 BYTE   N06  Gn4
 BYTE   N06  Gn5
 BYTE   W06
 BYTE   Cn4
 BYTE   N06  Cn5
 BYTE   W06
 BYTE   Dn4
 BYTE   N06  Dn5
 BYTE   W06
 BYTE   As3
 BYTE   N06  As4
 BYTE   W06
// 075   ----------------------------------------
 BYTE   N09  Cn4
 BYTE   N09  Cn5
 BYTE   W09
 BYTE   An3
 BYTE   N09  An4
 BYTE   W09
 BYTE   N06  As3
 BYTE   N06  As4
 BYTE   W06
 BYTE   N09  Gn3
 BYTE   N09  Gn4
 BYTE   W09
 BYTE   An3
 BYTE   N09  An4
 BYTE   W09
 BYTE   N06  Fn3
 BYTE   N06  Fn4
 BYTE   W06
 BYTE   Gn3
 BYTE   N06  Gn4
 BYTE   W06
 BYTE   Fn3
 BYTE   N06  Fn4
 BYTE   W06
 BYTE   Dn3
 BYTE   N06  Dn4
 BYTE   W06
 BYTE   Fn3
 BYTE   N06  Fn4
 BYTE   W06
 BYTE   Gn3
 BYTE   N06  Gn4
 BYTE   W12
 BYTE   Dn4
 BYTE   N06  Dn5
 BYTE   W12
// 076   ----------------------------------------
 BYTE   Cn4
 BYTE   N06  Cn5
 BYTE   W06
 BYTE   As3
 BYTE   N06  As4
 BYTE   W06
 BYTE   An3
 BYTE   N06  An4
 BYTE   W06
 BYTE   Fn3
 BYTE   N06  Fn4
 BYTE   W06
 BYTE   Gn3
 BYTE   N06  Gn4
 BYTE   W06
 BYTE   Gn3
 BYTE   N06  Gn4
 BYTE   W06
 BYTE   Gn3
 BYTE   N06  Gn4
 BYTE   W06
 BYTE   An3
 BYTE   N06  An4
 BYTE   W06
 BYTE   Gn3
 BYTE   N06  Gn4
 BYTE   W06
 BYTE   An3
 BYTE   N06  An4
 BYTE   W06
 BYTE   As3
 BYTE   N06  As4
 BYTE   W06
 BYTE   Cn4
 BYTE   N06  Cn5
 BYTE   W06
 BYTE   Dn4
 BYTE   N06  Dn5
 BYTE   W06
 BYTE   Fn4
 BYTE   N06  Fn5
 BYTE   W06
 BYTE   Gn4
 BYTE   N06  Gn5
 BYTE   W06
 BYTE   Dn4
 BYTE   N06  Dn5
 BYTE   W06
// 077   ----------------------------------------
 BYTE   An4
 BYTE   N06  An5
 BYTE   W06
 BYTE   Dn4
 BYTE   N06  Dn5
 BYTE   W06
 BYTE   As4
 BYTE   N06  As5
 BYTE   W06
 BYTE   Cn5
 BYTE   N06  Cn6
 BYTE   W06
 BYTE   N03  An4
 BYTE   N03  An5
 BYTE   W03
 BYTE   As4
 BYTE   N03  As5
 BYTE   W03
 BYTE   Gn4
 BYTE   N03  Gn5
 BYTE   W03
 BYTE   An4
 BYTE   N03  An5
 BYTE   W03
 BYTE   N06  Fn4
 BYTE   N06  Fn5
 BYTE   W06
 BYTE   En4
 BYTE   N06  En5
 BYTE   W06
 BYTE   Cn4
 BYTE   N06  Cn5
 BYTE   W06
 BYTE   N05  As3
 BYTE   N06  As4
 BYTE   W05
 BYTE   N03  En3
 BYTE   N03  En4
 BYTE   W03
 BYTE   Gn3
 BYTE   N03  Gn4
 BYTE   W03
 BYTE   An3
 BYTE   N03  An4
 BYTE   W03
 BYTE   As3
 BYTE   N03  As4
 BYTE   W04
 BYTE   N06  Cn4
 BYTE   N06  Cn5
 BYTE   W06
 BYTE   As3
 BYTE   N06  As4
 BYTE   W06
 BYTE   Cn4
 BYTE   N06  Cn5
 BYTE   W06
 BYTE   En4
 BYTE   N06  En5
 BYTE   W06
// 078   ----------------------------------------
 BYTE   Gn4
 BYTE   N06  Gn5
 BYTE   W06
 BYTE   An4
 BYTE   N06  An5
 BYTE   W06
 BYTE   As4
 BYTE   N06  As5
 BYTE   W06
 BYTE   Cn5
 BYTE   N06  Cn6
 BYTE   W06
 BYTE   As4
 BYTE   N06  As5
 BYTE   W06
 BYTE   An4
 BYTE   N06  An5
 BYTE   W06
 BYTE   Gn4
 BYTE   N06  Gn5
 BYTE   W06
 BYTE   Fn4
 BYTE   N06  Fn5
 BYTE   W06
 BYTE   Gn4
 BYTE   N06  Gn5
 BYTE   W06
 BYTE   Fn4
 BYTE   N06  Fn5
 BYTE   W06
 BYTE   Dn4
 BYTE   N06  Dn5
 BYTE   W06
 BYTE   Gn4
 BYTE   N06  Gn5
 BYTE   W06
 BYTE   Fn4
 BYTE   N06  Fn5
 BYTE   W06
 BYTE   Dn4
 BYTE   N06  Dn5
 BYTE   W06
 BYTE   N12  Gn4
 BYTE   N12  Gn5
 BYTE   W12
// 079   ----------------------------------------
 BYTE   N06  Dn5
 BYTE   N06  Dn6
 BYTE   W06
 BYTE   Cn5
 BYTE   N06  Cn6
 BYTE   W06
 BYTE   As4
 BYTE   N06  As5
 BYTE   W06
 BYTE   Dn5
 BYTE   N06  Dn6
 BYTE   W06
 BYTE   N12  Cn5
 BYTE   N12  Cn6
 BYTE   W12
 BYTE   An4
 BYTE   N12  An5
 BYTE   W12
 BYTE   N06  Gn4
 BYTE   N06  Gn5
 BYTE   W06
 BYTE   An4
 BYTE   N06  An5
 BYTE   W06
 BYTE   As4
 BYTE   N06  As5
 BYTE   W06
 BYTE   Cn5
 BYTE   N06  Cn6
 BYTE   W06
 BYTE   Dn5
 BYTE   N06  Dn6
 BYTE   W06
 BYTE   An4
 BYTE   N06  An5
 BYTE   W06
 BYTE   As4
 BYTE   N06  As5
 BYTE   W06
 BYTE   Fn5
 BYTE   N06  Fn6
 BYTE   W06
// 080   ----------------------------------------
 BYTE   Dn5
 BYTE   N06  Dn6
 BYTE   W06
 BYTE   Fn5
 BYTE   N06  Fn6
 BYTE   W06
 BYTE   Dn5
 BYTE   N06  Dn6
 BYTE   W06
 BYTE   Fn5
 BYTE   N06  Fn6
 BYTE   W06
 BYTE   Gn5
 BYTE   N06  Gn6
 BYTE   W06
 BYTE   Fn5
 BYTE   N06  Fn6
 BYTE   W06
 BYTE   Cn5
 BYTE   N06  Cn6
 BYTE   W06
 BYTE   Dn5
 BYTE   N06  Dn6
 BYTE   W06
 BYTE   Cn3  v120
 BYTE   W06
 BYTE   Dn3
 BYTE   W06
 BYTE   Ds3
 BYTE   W06
 BYTE   Gn2
 BYTE   N06  Gn3
 BYTE   W06
 BYTE   Cn4
 BYTE   W06
 BYTE   Dn4
 BYTE   W06
 BYTE   Ds4
 BYTE   W06
 BYTE   Gn4
 BYTE   W06
// 081   ----------------------------------------
Label_2_01EFAA2E:
 BYTE   N06  Cn3  v120
 BYTE   W06
 BYTE   Dn3
 BYTE   W06
 BYTE   Ds3
 BYTE   W06
 BYTE   Gs3
 BYTE   W06
 BYTE   Cn4
 BYTE   W06
 BYTE   Dn4
 BYTE   W06
 BYTE   Ds4
 BYTE   W06
 BYTE   Gs4
 BYTE   W06
 BYTE   Cn3
 BYTE   W06
 BYTE   Dn3
 BYTE   W06
 BYTE   Ds3
 BYTE   W06
 BYTE   An3
 BYTE   W06
 BYTE   Cn4
 BYTE   W06
 BYTE   Dn4
 BYTE   W06
 BYTE   Ds4
 BYTE   W06
 BYTE   An4
 BYTE   W06
 BYTE   PEND 
// 082   ----------------------------------------
Label_2_01EFAA51:
 BYTE   N06  Cn3  v120
 BYTE   W06
 BYTE   Dn3
 BYTE   W06
 BYTE   Ds3
 BYTE   W06
 BYTE   Gs3
 BYTE   W06
 BYTE   Cn4
 BYTE   W06
 BYTE   Dn4
 BYTE   W06
 BYTE   Ds4
 BYTE   W06
 BYTE   Gs4
 BYTE   W06
 BYTE   Cn3
 BYTE   W06
 BYTE   Dn3
 BYTE   W06
 BYTE   Ds3
 BYTE   W06
 BYTE   Gn3
 BYTE   W06
 BYTE   Cn4
 BYTE   W06
 BYTE   Dn4
 BYTE   W06
 BYTE   Ds4
 BYTE   W06
 BYTE   Gn4
 BYTE   W06
 BYTE   PEND 
// 083   ----------------------------------------
 BYTE   PATT
  POIN2 Label_2_01EFAA2E
// 084   ----------------------------------------
 BYTE   PATT
  POIN2 Label_2_01EFAA51
// 085   ----------------------------------------
 BYTE   PATT
  POIN2 Label_2_01EFAA2E
// 086   ----------------------------------------
 BYTE   PATT
  POIN2 Label_2_01EFAA51
// 087   ----------------------------------------
 BYTE   N06  Cn3  v120
 BYTE   W06
 BYTE   Dn3
 BYTE   W06
 BYTE   Ds3
 BYTE   W06
 BYTE   Gs3
 BYTE   W06
 BYTE   Cn4
 BYTE   W06
 BYTE   Dn4
 BYTE   W06
 BYTE   Ds4
 BYTE   W06
 BYTE   Gs4
 BYTE   W54
// 088   ----------------------------------------
 BYTE   W24
 BYTE   GoTo
  POIN2 Label_2_01EFA5D2
 BYTE   FINE

//**************** Track 4 (Midi-Chn.3) ****************//

SeptetteForTheDeadPrincess_004:
// 000   ----------------------------------------
 BYTE   KEYSH   SeptetteForTheDeadPrincess_key+0
 BYTE   VOL   42*SeptetteForTheDeadPrincess_mvl/mxv
 BYTE   PAN   c_v+0
 BYTE   VOICE   56
 BYTE   W96
// 001   ----------------------------------------
 BYTE   W96
// 002   ----------------------------------------
 BYTE   W96
// 003   ----------------------------------------
 BYTE   W96
// 004   ----------------------------------------
 BYTE   W96
// 005   ----------------------------------------
 BYTE   W96
// 006   ----------------------------------------
 BYTE   W96
// 007   ----------------------------------------
 BYTE   W60
 BYTE   N12  Gn2  v100
 BYTE   W12
 BYTE   Cn3
 BYTE   W12
 BYTE   Dn3
 BYTE   W12
// 008   ----------------------------------------
 BYTE   N36  Ds3
 BYTE   W36
 BYTE   N12  Fn3
 BYTE   W12
 BYTE   N36  Dn3
 BYTE   W36
 BYTE   N12  Ds3
 BYTE   W12
// 009   ----------------------------------------
 BYTE   N60  Cn3
 BYTE   W60
 BYTE   N12  Gn2
 BYTE   W12
 BYTE   Cn3
 BYTE   W12
 BYTE   Dn3
 BYTE   W12
// 010   ----------------------------------------
 BYTE   N36  Ds3
 BYTE   W36
 BYTE   N12  Fn3
 BYTE   W12
 BYTE   N36  Dn3
 BYTE   W36
 BYTE   N12  As3
 BYTE   W12
// 011   ----------------------------------------
 BYTE   N60  Gn3
 BYTE   W60
 BYTE   N12
 BYTE   W12
 BYTE   As3
 BYTE   W12
 BYTE   Cn4
 BYTE   W12
// 012   ----------------------------------------
 BYTE   N24  Fn3
 BYTE   W24
 BYTE   N36
 BYTE   W36
 BYTE   N12
 BYTE   W12
 BYTE   Gn3
 BYTE   W12
 BYTE   As3
 BYTE   W12
// 013   ----------------------------------------
 BYTE   N24  Ds3
 BYTE   W24
 BYTE   N36
 BYTE   W36
 BYTE   N12  Cn3
 BYTE   W12
 BYTE   N12
 BYTE   W12
 BYTE   Dn3
 BYTE   W12
// 014   ----------------------------------------
 BYTE   N36  Ds3
 BYTE   W36
 BYTE   N12  Fn3
 BYTE   W12
 BYTE   N36  Dn3
 BYTE   W36
 BYTE   N12  As2
 BYTE   W12
// 015   ----------------------------------------
 BYTE   N48  Cn3
 BYTE   W48
 BYTE   Dn3
 BYTE   W48
// 016   ----------------------------------------
 BYTE   N60  Ds3
 BYTE   W60
 BYTE   N06  Dn3
 BYTE   W06
 BYTE   Ds3
 BYTE   W06
 BYTE   Dn3
 BYTE   W06
 BYTE   Cn3
 BYTE   W06
 BYTE   Gn2
 BYTE   W06
 BYTE   Gs2
 BYTE   W06
// 017   ----------------------------------------
 BYTE   N96  An2
 BYTE   W96
// 018   ----------------------------------------
 BYTE   W96
// 019   ----------------------------------------
 BYTE   W96
// 020   ----------------------------------------
 BYTE   W96
// 021   ----------------------------------------
 BYTE   W96
// 022   ----------------------------------------
 BYTE   N60  Ds4
 BYTE   N60  Ds5
 BYTE   W60
 BYTE   N06  Dn4
 BYTE   N06  Dn5
 BYTE   W06
 BYTE   Cn4
 BYTE   N06  Cn5
 BYTE   W06
 BYTE   As3
 BYTE   N06  As4
 BYTE   W06
 BYTE   Gs3
 BYTE   N06  Gs4
 BYTE   W06
 BYTE   Gn3
 BYTE   N06  Gn4
 BYTE   W06
 BYTE   Fn3
 BYTE   N06  Fn4
 BYTE   W06
// 023   ----------------------------------------
 BYTE   N48  An3
 BYTE   N48  An4
 BYTE   W48
Label_3_01EFAB4D:
 BYTE   W12
 BYTE   N12  Gn2  v112
 BYTE   N12  Gn3
 BYTE   W12
 BYTE   Cn3
 BYTE   N12  Cn4
 BYTE   W12
 BYTE   Dn3
 BYTE   N12  Dn4
 BYTE   W12
// 024   ----------------------------------------
 BYTE   N36  Ds3
 BYTE   N36  Ds4
 BYTE   W36
 BYTE   N12  Fn3
 BYTE   N12  Fn4
 BYTE   W12
 BYTE   N36  Dn3
 BYTE   N36  Dn4
 BYTE   W36
 BYTE   N12  Ds3
 BYTE   N12  Ds4
 BYTE   W12
// 025   ----------------------------------------
Label_3_01EFAB70:
 BYTE   N60  Cn3  v112
 BYTE   N60  Cn4
 BYTE   W60
 BYTE   N12  Gn2
 BYTE   N12  Gn3
 BYTE   W12
 BYTE   Cn3
 BYTE   N12  Cn4
 BYTE   W12
 BYTE   Dn3
 BYTE   N12  Dn4
 BYTE   W12
 BYTE   PEND 
// 026   ----------------------------------------
Label_3_01EFAB84:
 BYTE   N36  Ds3  v112
 BYTE   N36  Ds4
 BYTE   W36
 BYTE   N12  Fn3
 BYTE   N12  Fn4
 BYTE   W12
 BYTE   N36  Dn3
 BYTE   N36  Dn4
 BYTE   W36
 BYTE   N12  As3
 BYTE   N12  As4
 BYTE   W12
 BYTE   PEND 
// 027   ----------------------------------------
Label_3_01EFAB9A:
 BYTE   N60  Gn3  v112
 BYTE   N60  Gn4
 BYTE   W60
 BYTE   N12  Gn3
 BYTE   N12  Gn4
 BYTE   W12
 BYTE   As3
 BYTE   N12  As4
 BYTE   W12
 BYTE   Cn4
 BYTE   N12  Cn5
 BYTE   W12
 BYTE   PEND 
// 028   ----------------------------------------
Label_3_01EFABAE:
 BYTE   N24  Fn3  v112
 BYTE   N24  Fn4
 BYTE   W24
 BYTE   N36  Fn3
 BYTE   N36  Fn4
 BYTE   W36
 BYTE   N12  Fn3
 BYTE   N12  Fn4
 BYTE   W12
 BYTE   Gn3
 BYTE   N12  Gn4
 BYTE   W12
 BYTE   As3
 BYTE   N12  As4
 BYTE   W12
 BYTE   PEND 
// 029   ----------------------------------------
Label_3_01EFABC7:
 BYTE   N24  Ds3  v112
 BYTE   N24  Ds4
 BYTE   W24
 BYTE   N36  Ds3
 BYTE   N36  Ds4
 BYTE   W36
 BYTE   N12  Cn3
 BYTE   N12  Cn4
 BYTE   W12
 BYTE   Cn3
 BYTE   N12  Cn4
 BYTE   W12
 BYTE   Dn3
 BYTE   N12  Dn4
 BYTE   W12
 BYTE   PEND 
// 030   ----------------------------------------
Label_3_01EFABE0:
 BYTE   N36  Ds3  v112
 BYTE   N36  Ds4
 BYTE   W36
 BYTE   N12  Fn3
 BYTE   N12  Fn4
 BYTE   W12
 BYTE   N36  Dn3
 BYTE   N36  Dn4
 BYTE   W36
 BYTE   N12  As2
 BYTE   N12  As3
 BYTE   W12
 BYTE   PEND 
// 031   ----------------------------------------
 BYTE   N48  Cn3
 BYTE   N48  Cn4
 BYTE   W48
 BYTE   N24  Dn3  v100
 BYTE   N24  Dn4
 BYTE   W12
 BYTE   N12  Gn2
 BYTE   N12  Gn3
 BYTE   W12
 BYTE   Cn3
 BYTE   N12  Cn4
 BYTE   W12
 BYTE   Dn3
 BYTE   N12  Dn4
 BYTE   W12
// 032   ----------------------------------------
 BYTE   N36  Ds3
 BYTE   N36  Ds4
 BYTE   W36
 BYTE   N12  Fn3  v112
 BYTE   N12  Fn4
 BYTE   W12
 BYTE   N36  Dn3
 BYTE   N36  Dn4
 BYTE   W36
 BYTE   N12  Ds3
 BYTE   N12  Ds4
 BYTE   W12
// 033   ----------------------------------------
 BYTE   PATT
  POIN2 Label_3_01EFAB70
// 034   ----------------------------------------
 BYTE   PATT
  POIN2 Label_3_01EFAB84
// 035   ----------------------------------------
 BYTE   PATT
  POIN2 Label_3_01EFAB9A
// 036   ----------------------------------------
 BYTE   PATT
  POIN2 Label_3_01EFABAE
// 037   ----------------------------------------
 BYTE   PATT
  POIN2 Label_3_01EFABC7
// 038   ----------------------------------------
 BYTE   PATT
  POIN2 Label_3_01EFABE0
// 039   ----------------------------------------
 BYTE   N48  Cn3  v112
 BYTE   N48  Cn4
 BYTE   W48
 BYTE   N12  Dn3  v100
 BYTE   N12  Dn4
 BYTE   W24
 BYTE   As2
 BYTE   N12  As3
 BYTE   W12
 BYTE   Cs3
 BYTE   N12  Cs4
 BYTE   W12
// 040   ----------------------------------------
 BYTE   Ds3
 BYTE   W12
 BYTE   Cs3
 BYTE   W12
 BYTE   Ds3
 BYTE   W12
 BYTE   Cs3
 BYTE   W12
 BYTE   N18  Ds3
 BYTE   W18
 BYTE   Fs3
 BYTE   W18
 BYTE   N12  Fn3
 BYTE   W12
// 041   ----------------------------------------
 BYTE   Ds3
 BYTE   W12
 BYTE   Cs3
 BYTE   W12
 BYTE   Ds3
 BYTE   W12
 BYTE   Cs3
 BYTE   W12
 BYTE   N18  Ds3
 BYTE   W18
 BYTE   As3
 BYTE   W18
 BYTE   N12  Gs3
 BYTE   W12
// 042   ----------------------------------------
 BYTE   N18  Fs3
 BYTE   W18
 BYTE   Fn3
 BYTE   W18
 BYTE   N12  Ds3
 BYTE   W12
 BYTE   N18  Dn3
 BYTE   W18
 BYTE   As2
 BYTE   W18
 BYTE   N12  Gs2
 BYTE   W12
// 043   ----------------------------------------
 BYTE   N72  As2
 BYTE   W72
 BYTE   N12
 BYTE   N12  As3
 BYTE   W12
 BYTE   Cs3
 BYTE   N12  Cs4
 BYTE   W12
// 044   ----------------------------------------
 BYTE   Ds3
 BYTE   N12  Ds4
 BYTE   W12
 BYTE   Cs3
 BYTE   N12  Cs4
 BYTE   W12
 BYTE   Ds3
 BYTE   N12  Ds4
 BYTE   W12
 BYTE   Cs3
 BYTE   N12  Cs4
 BYTE   W12
 BYTE   N18  Ds3
 BYTE   N18  Ds4
 BYTE   W18
 BYTE   Fs3
 BYTE   N18  Fs4
 BYTE   W18
 BYTE   N12  Fn3
 BYTE   N12  Fn4
 BYTE   W12
// 045   ----------------------------------------
 BYTE   Ds3
 BYTE   N12  Ds4
 BYTE   W12
 BYTE   Cs3
 BYTE   N12  Cs4
 BYTE   W12
 BYTE   Ds3
 BYTE   N12  Ds4
 BYTE   W12
 BYTE   Cs3
 BYTE   N12  Cs4
 BYTE   W12
 BYTE   N18  Ds3
 BYTE   N18  Ds4
 BYTE   W18
 BYTE   As3
 BYTE   N18  As4
 BYTE   W18
 BYTE   N12  Gs3
 BYTE   N12  Gs4
 BYTE   W12
// 046   ----------------------------------------
 BYTE   N18  Fs3
 BYTE   N18  Fs4
 BYTE   W18
 BYTE   Fn3
 BYTE   N18  Fn4
 BYTE   W18
 BYTE   N12  Ds3
 BYTE   N12  Ds4
 BYTE   W12
 BYTE   N18  Fn3
 BYTE   N18  Fn4
 BYTE   W18
 BYTE   Fs3
 BYTE   N18  Fs4
 BYTE   W18
 BYTE   N12  Gs3
 BYTE   N12  Gs4
 BYTE   W12
// 047   ----------------------------------------
 BYTE   N24  As3
 BYTE   N24  As4
 BYTE   W36
 BYTE   As3
 BYTE   N24  As4
 BYTE   W36
 BYTE   N12  As3
 BYTE   N12  As4
 BYTE   W12
 BYTE   As3
 BYTE   N12  As4
 BYTE   W12
// 048   ----------------------------------------
Label_3_01EFACFA:
 BYTE   W24
 BYTE   N12  Dn3  v100
 BYTE   N12  Gn3
 BYTE   W12
 BYTE   As3
 BYTE   N12  Dn4
 BYTE   W12
 BYTE   N36  An3
 BYTE   N36  Cn4
 BYTE   W36
 BYTE   N12  Gn3
 BYTE   N12  As3
 BYTE   W12
 BYTE   PEND 
// 049   ----------------------------------------
Label_3_01EFAD10:
 BYTE   N18  Fn3  v100
 BYTE   N18  An3
 BYTE   W18
 BYTE   Dn3
 BYTE   N18  Fn3
 BYTE   W18
 BYTE   N54  Ds3
 BYTE   N84  Gn3
 BYTE   W54
 BYTE   N30  Dn3
 BYTE   W06
 BYTE   PEND 
// 050   ----------------------------------------
 BYTE   PATT
  POIN2 Label_3_01EFACFA
// 051   ----------------------------------------
Label_3_01EFAD28:
 BYTE   N18  Fn3  v100
 BYTE   N18  An3
 BYTE   W18
 BYTE   Cn4
 BYTE   N18  Fn4
 BYTE   W18
 BYTE   N54  As3
 BYTE   N84  Dn4
 BYTE   W54
 BYTE   N30  An3
 BYTE   W06
 BYTE   PEND 
// 052   ----------------------------------------
 BYTE   PATT
  POIN2 Label_3_01EFACFA
// 053   ----------------------------------------
Label_3_01EFAD40:
 BYTE   N18  Fn3  v100
 BYTE   N18  An3
 BYTE   W18
 BYTE   Dn3
 BYTE   N18  Fn3
 BYTE   W18
 BYTE   N12  Ds3
 BYTE   N12  Gn3
 BYTE   W54
 BYTE   N30  Dn3
 BYTE   W06
 BYTE   PEND 
// 054   ----------------------------------------
Label_3_01EFAD53:
 BYTE   W24
 BYTE   N12  Dn3  v100
 BYTE   N12  Gn3
 BYTE   W12
 BYTE   Fn3
 BYTE   N12  An3
 BYTE   W12
 BYTE   Gn3
 BYTE   N12  As3
 BYTE   W12
 BYTE   Fn3
 BYTE   N12  An3
 BYTE   W12
 BYTE   Dn3
 BYTE   N12  Fn3
 BYTE   W12
 BYTE   N60  Dn3
 BYTE   N60  Gn3
 BYTE   W12
 BYTE   PEND 
// 055   ----------------------------------------
 BYTE   W48
 BYTE   N72  As3
 BYTE   N72  Dn4
 BYTE   W48
// 056   ----------------------------------------
 BYTE   PATT
  POIN2 Label_3_01EFACFA
// 057   ----------------------------------------
 BYTE   PATT
  POIN2 Label_3_01EFAD10
// 058   ----------------------------------------
 BYTE   PATT
  POIN2 Label_3_01EFACFA
// 059   ----------------------------------------
 BYTE   PATT
  POIN2 Label_3_01EFAD28
// 060   ----------------------------------------
 BYTE   PATT
  POIN2 Label_3_01EFACFA
// 061   ----------------------------------------
 BYTE   PATT
  POIN2 Label_3_01EFAD40
// 062   ----------------------------------------
 BYTE   PATT
  POIN2 Label_3_01EFAD53
// 063   ----------------------------------------
 BYTE   W48
 BYTE   N96  As3  v100
 BYTE   N96  Dn4
 BYTE   W48
// 064   ----------------------------------------
 BYTE   W48
 BYTE   N36  An3  v060
 BYTE   N36  Cn4
 BYTE   W36
 BYTE   N12  Gn3
 BYTE   N12  As3
 BYTE   W12
// 065   ----------------------------------------
Label_3_01EFADAC:
 BYTE   N18  Fn3  v060
 BYTE   N18  An3
 BYTE   W18
 BYTE   Dn3
 BYTE   N18  Fn3
 BYTE   W18
 BYTE   N84  Ds3
 BYTE   N84  Gn3
 BYTE   W60
 BYTE   PEND 
// 066   ----------------------------------------
Label_3_01EFADBC:
 BYTE   W24
 BYTE   N12  Dn3  v060
 BYTE   N12  Gn3
 BYTE   W12
 BYTE   As3
 BYTE   N12  Dn4
 BYTE   W12
 BYTE   N36  An3
 BYTE   N36  Cn4
 BYTE   W36
 BYTE   N12  Gn3
 BYTE   N12  As3
 BYTE   W12
 BYTE   PEND 
// 067   ----------------------------------------
Label_3_01EFADD2:
 BYTE   N18  Fn3  v060
 BYTE   N18  An3
 BYTE   W18
 BYTE   Cn4
 BYTE   N18  Fn4
 BYTE   W18
 BYTE   N96  As3
 BYTE   N96  Dn4
 BYTE   W60
 BYTE   PEND 
// 068   ----------------------------------------
Label_3_01EFADE2:
 BYTE   W24
 BYTE   N12  Dn3  v060
 BYTE   N12  Gn3
 BYTE   W12
 BYTE   N48  As3
 BYTE   TIE  Dn4
 BYTE   W12
 BYTE   N36  An3
 BYTE   N36  Cn4
 BYTE   W36
 BYTE   N12  Gn3
 BYTE   N60  As3
 BYTE   W12
 BYTE   PEND 
// 069   ----------------------------------------
Label_3_01EFADF9:
 BYTE   N18  Fn3  v060
 BYTE   N18  An3
 BYTE   W18
 BYTE   Dn3
 BYTE   N18  Fn3
 BYTE   W18
 BYTE   N12  Ds3
 BYTE   N12  Gn3
 BYTE   W12
 BYTE   PEND 
 BYTE   EOT
 BYTE   Dn4
 BYTE   W48
// 070   ----------------------------------------
Label_3_01EFAE0C:
 BYTE   W24
 BYTE   N12  Dn3  v060
 BYTE   N12  Gn3
 BYTE   W12
 BYTE   Fn3
 BYTE   N12  An3
 BYTE   W12
 BYTE   Gn3
 BYTE   N12  As3
 BYTE   W12
 BYTE   Fn3
 BYTE   N12  An3
 BYTE   W12
 BYTE   Dn3
 BYTE   N12  Fn3
 BYTE   W12
 BYTE   N60  Dn3
 BYTE   N60  Gn3
 BYTE   W12
 BYTE   PEND 
// 071   ----------------------------------------
 BYTE   W48
 BYTE   N72  As3
 BYTE   N72  Dn4
 BYTE   W48
// 072   ----------------------------------------
 BYTE   PATT
  POIN2 Label_3_01EFADBC
// 073   ----------------------------------------
 BYTE   PATT
  POIN2 Label_3_01EFADAC
// 074   ----------------------------------------
 BYTE   PATT
  POIN2 Label_3_01EFADBC
// 075   ----------------------------------------
 BYTE   PATT
  POIN2 Label_3_01EFADD2
// 076   ----------------------------------------
 BYTE   PATT
  POIN2 Label_3_01EFADE2
// 077   ----------------------------------------
 BYTE   PATT
  POIN2 Label_3_01EFADF9
// 078   ----------------------------------------
 BYTE   EOT
 BYTE   Dn4
 BYTE   W48
// 079   ----------------------------------------
 BYTE   PATT
  POIN2 Label_3_01EFAE0C
// 080   ----------------------------------------
 BYTE   W48
 BYTE   N96  As3  v060
 BYTE   N96  Dn4
 BYTE   W48
// 081   ----------------------------------------
 BYTE   W48
 BYTE   N60  Ds3  v112
 BYTE   N60  Ds4
 BYTE   W48
// 082   ----------------------------------------
 BYTE   W12
 BYTE   N06  Dn3
 BYTE   N06  Dn4
 BYTE   W06
 BYTE   Ds3
 BYTE   N06  Ds4
 BYTE   W06
 BYTE   Dn3
 BYTE   N06  Dn4
 BYTE   W06
 BYTE   Cn3
 BYTE   N06  Cn4
 BYTE   W06
 BYTE   Gn2
 BYTE   N06  Gn3
 BYTE   W06
 BYTE   Gs2
 BYTE   N06  Gs3
 BYTE   W06
 BYTE   N96  An2
 BYTE   N96  An3
 BYTE   W48
// 083   ----------------------------------------
 BYTE   W96
// 084   ----------------------------------------
 BYTE   W96
// 085   ----------------------------------------
 BYTE   W96
// 086   ----------------------------------------
 BYTE   W96
// 087   ----------------------------------------
 BYTE   W48
 BYTE   N60  Ds4  v100
 BYTE   N60  Ds5
 BYTE   W48
// 088   ----------------------------------------
 BYTE   W12
 BYTE   N06  Dn4
 BYTE   N06  Dn5
 BYTE   W06
 BYTE   Cn4
 BYTE   N06  Cn5
 BYTE   W06
 BYTE   As3
 BYTE   N06  As4
 BYTE   W06
 BYTE   Gs3
 BYTE   N06  Gs4
 BYTE   W06
 BYTE   Gn3
 BYTE   N06  Gn4
 BYTE   W06
 BYTE   Fn3
 BYTE   N06  Fn4
 BYTE   W06
 BYTE   N48  An3
 BYTE   N48  An4
 BYTE   W48
// 089   ----------------------------------------
 BYTE   W24
 BYTE   GoTo
  POIN2 Label_3_01EFAB4D
 BYTE   FINE

//**************** Track 5 (Midi-Chn.4) ****************//

SeptetteForTheDeadPrincess_005:
// 000   ----------------------------------------
 BYTE   KEYSH   SeptetteForTheDeadPrincess_key+0
 BYTE   VOL   42*SeptetteForTheDeadPrincess_mvl/mxv
 BYTE   PAN   c_v+0
 BYTE   VOICE   0
 BYTE   W96
// 001   ----------------------------------------
 BYTE   W96
// 002   ----------------------------------------
 BYTE   W96
// 003   ----------------------------------------
 BYTE   W96
// 004   ----------------------------------------
 BYTE   W96
// 005   ----------------------------------------
 BYTE   W96
// 006   ----------------------------------------
 BYTE   W96
// 007   ----------------------------------------
 BYTE   W96
// 008   ----------------------------------------
Label_4_01EFAEC8:
 BYTE   N48  Cn2  v120
 BYTE   W12
 BYTE   N12  Gn2
 BYTE   W12
 BYTE   Cn3
 BYTE   W12
 BYTE   Dn3
 BYTE   W12
 BYTE   N48  As1
 BYTE   W12
 BYTE   N12  Fn2
 BYTE   W12
 BYTE   As2
 BYTE   W12
 BYTE   Cn3
 BYTE   W12
 BYTE   PEND 
// 009   ----------------------------------------
 BYTE   N96  Gs1
 BYTE   W12
 BYTE   N12  Ds2
 BYTE   W12
 BYTE   Gn2
 BYTE   W12
 BYTE   As2
 BYTE   W12
 BYTE   Gn2
 BYTE   W12
 BYTE   Ds2
 BYTE   W12
 BYTE   As2
 BYTE   W12
 BYTE   Fn2
 BYTE   W12
// 010   ----------------------------------------
 BYTE   PATT
  POIN2 Label_4_01EFAEC8
// 011   ----------------------------------------
 BYTE   N96  An1  v120
 BYTE   W12
 BYTE   N12  Fn2
 BYTE   W12
 BYTE   An2
 BYTE   W12
 BYTE   Cn3
 BYTE   W12
 BYTE   Dn3
 BYTE   W12
 BYTE   Ds3
 BYTE   W12
 BYTE   Fn3
 BYTE   W12
 BYTE   Dn3
 BYTE   W12
// 012   ----------------------------------------
 BYTE   N96  Fn1
 BYTE   W12
 BYTE   N12  Fn2
 BYTE   W12
 BYTE   Gn2
 BYTE   W12
 BYTE   Cn3
 BYTE   W12
 BYTE   N18  Gs2
 BYTE   W18
 BYTE   Gn2
 BYTE   W18
 BYTE   N12  Fn2
 BYTE   W12
// 013   ----------------------------------------
 BYTE   N96  Ds1
 BYTE   W12
 BYTE   N12  Ds2
 BYTE   W12
 BYTE   Fn2
 BYTE   W12
 BYTE   As2
 BYTE   W12
 BYTE   N06  As3
 BYTE   W06
 BYTE   Gn3
 BYTE   W06
 BYTE   Fn3
 BYTE   W06
 BYTE   Ds3
 BYTE   W06
 BYTE   As2
 BYTE   W06
 BYTE   Gn2
 BYTE   W06
 BYTE   Fn2
 BYTE   W06
 BYTE   Ds2
 BYTE   W06
// 014   ----------------------------------------
 BYTE   N48  Fn1
 BYTE   W06
 BYTE   N06  Gn1
 BYTE   W06
 BYTE   Gs1
 BYTE   W06
 BYTE   Cn2
 BYTE   W06
 BYTE   Fn2
 BYTE   W06
 BYTE   Gn2
 BYTE   W06
 BYTE   Gs2
 BYTE   W06
 BYTE   Cn3
 BYTE   W06
 BYTE   N48  Gn1
 BYTE   W06
 BYTE   N06  An1
 BYTE   W06
 BYTE   As1
 BYTE   W06
 BYTE   Dn2
 BYTE   W06
 BYTE   Gn2
 BYTE   W06
 BYTE   An2
 BYTE   W06
 BYTE   As2
 BYTE   W06
 BYTE   Dn3
 BYTE   W06
// 015   ----------------------------------------
 BYTE   N48  Gs1
 BYTE   W06
 BYTE   N06  As1
 BYTE   W06
 BYTE   Bn1
 BYTE   W06
 BYTE   Ds2
 BYTE   W06
 BYTE   Gs2
 BYTE   W06
 BYTE   As2
 BYTE   W06
 BYTE   Bn2
 BYTE   W06
 BYTE   Ds3
 BYTE   W06
 BYTE   N48  As1
 BYTE   W06
 BYTE   N06  Cn2
 BYTE   W06
 BYTE   Cs2
 BYTE   W06
 BYTE   Fn2
 BYTE   W06
 BYTE   As2
 BYTE   W06
 BYTE   Cn3
 BYTE   W06
 BYTE   Cs3
 BYTE   W06
 BYTE   Fn3
 BYTE   W06
// 016   ----------------------------------------
 BYTE   N24  Cn2  v080
 BYTE   W12
 BYTE   N12  Gn2
 BYTE   W12
 BYTE   Cn2
 BYTE   W12
 BYTE   Gn2
 BYTE   W12
 BYTE   Cn2
 BYTE   W12
 BYTE   Gs2
 BYTE   W12
 BYTE   Cn2
 BYTE   W12
 BYTE   Gs2
 BYTE   W12
// 017   ----------------------------------------
 BYTE   N24  Cn2
 BYTE   W12
 BYTE   N12  An2
 BYTE   W12
 BYTE   Cn2
 BYTE   W12
 BYTE   An2
 BYTE   W12
 BYTE   Cn2
 BYTE   W12
 BYTE   Gs2
 BYTE   W12
 BYTE   Cn2
 BYTE   W12
 BYTE   Gs2
 BYTE   W12
// 018   ----------------------------------------
Label_4_01EFAFA2:
 BYTE   N24  Cn2  v100
 BYTE   W12
 BYTE   N12  Gn2
 BYTE   W12
 BYTE   Cn2
 BYTE   W12
 BYTE   Gn2
 BYTE   W12
 BYTE   Cn2
 BYTE   W12
 BYTE   Gs2
 BYTE   W12
 BYTE   Cn2
 BYTE   W12
 BYTE   Gs2
 BYTE   W12
 BYTE   PEND 
// 019   ----------------------------------------
Label_4_01EFAFB6:
 BYTE   N24  Cn2  v100
 BYTE   W12
 BYTE   N12  An2
 BYTE   W12
 BYTE   Cn2
 BYTE   W12
 BYTE   An2
 BYTE   W12
 BYTE   Cn2
 BYTE   W12
 BYTE   Gs2
 BYTE   W12
 BYTE   Cn2
 BYTE   W12
 BYTE   Gs2
 BYTE   W12
 BYTE   PEND 
// 020   ----------------------------------------
 BYTE   PATT
  POIN2 Label_4_01EFAFA2
// 021   ----------------------------------------
 BYTE   PATT
  POIN2 Label_4_01EFAFB6
// 022   ----------------------------------------
 BYTE   PATT
  POIN2 Label_4_01EFAFA2
// 023   ----------------------------------------
 BYTE   N48  An2  v100
 BYTE   W48
Label_4_01EFAFDD:
 BYTE   W48
// 024   ----------------------------------------
Label_4_01EFAFDE:
 BYTE   N48  Cn2  v127
 BYTE   W12
 BYTE   N12  Gn2
 BYTE   W12
 BYTE   Cn3
 BYTE   W12
 BYTE   Dn3
 BYTE   W12
 BYTE   N48  As1
 BYTE   W12
 BYTE   N12  Fn2
 BYTE   W12
 BYTE   As2
 BYTE   W12
 BYTE   Cn3
 BYTE   W12
 BYTE   PEND 
// 025   ----------------------------------------
Label_4_01EFAFF4:
 BYTE   N96  Gs1  v127
 BYTE   W12
 BYTE   N12  Ds2
 BYTE   W12
 BYTE   Gn2
 BYTE   W12
 BYTE   As2
 BYTE   W12
 BYTE   Gn2
 BYTE   W12
 BYTE   Ds2
 BYTE   W12
 BYTE   As2
 BYTE   W12
 BYTE   Fn2
 BYTE   W12
 BYTE   PEND 
// 026   ----------------------------------------
 BYTE   PATT
  POIN2 Label_4_01EFAFDE
// 027   ----------------------------------------
Label_4_01EFB00D:
 BYTE   N96  An1  v127
 BYTE   W12
 BYTE   N12  Fn2
 BYTE   W12
 BYTE   An2
 BYTE   W12
 BYTE   Cn3
 BYTE   W12
 BYTE   Dn3
 BYTE   W12
 BYTE   Ds3
 BYTE   W12
 BYTE   Fn3
 BYTE   W12
 BYTE   Dn3
 BYTE   W12
 BYTE   PEND 
// 028   ----------------------------------------
Label_4_01EFB021:
 BYTE   N96  Fn1  v127
 BYTE   W12
 BYTE   N12  Fn2
 BYTE   W12
 BYTE   Gn2
 BYTE   W12
 BYTE   Cn3
 BYTE   W12
 BYTE   N18  Gs2
 BYTE   W18
 BYTE   Gn2
 BYTE   W18
 BYTE   N12  Fn2
 BYTE   W12
 BYTE   PEND 
// 029   ----------------------------------------
Label_4_01EFB035:
 BYTE   N96  Ds1  v127
 BYTE   W12
 BYTE   N12  Ds2
 BYTE   W12
 BYTE   Fn2
 BYTE   W12
 BYTE   As2
 BYTE   W12
 BYTE   N06  As3
 BYTE   W06
 BYTE   Gn3
 BYTE   W06
 BYTE   Fn3
 BYTE   W06
 BYTE   Ds3
 BYTE   W06
 BYTE   As2
 BYTE   W06
 BYTE   Gn2
 BYTE   W06
 BYTE   Fn2
 BYTE   W06
 BYTE   Ds2
 BYTE   W06
 BYTE   PEND 
// 030   ----------------------------------------
Label_4_01EFB052:
 BYTE   N48  Fn1  v127
 BYTE   W06
 BYTE   N06  Gn1
 BYTE   W06
 BYTE   Gs1
 BYTE   W06
 BYTE   Cn2
 BYTE   W06
 BYTE   Fn2
 BYTE   W06
 BYTE   Gn2
 BYTE   W06
 BYTE   Gs2
 BYTE   W06
 BYTE   Cn3
 BYTE   W06
 BYTE   N48  Gn1
 BYTE   W06
 BYTE   N06  An1
 BYTE   W06
 BYTE   As1
 BYTE   W06
 BYTE   Dn2
 BYTE   W06
 BYTE   Gn2
 BYTE   W06
 BYTE   An2
 BYTE   W06
 BYTE   As2
 BYTE   W06
 BYTE   Dn3
 BYTE   W06
 BYTE   PEND 
// 031   ----------------------------------------
Label_4_01EFB078:
 BYTE   N48  Gs1  v127
 BYTE   W06
 BYTE   N06  As1
 BYTE   W06
 BYTE   Bn1
 BYTE   W06
 BYTE   Ds2
 BYTE   W06
 BYTE   Gs2
 BYTE   W06
 BYTE   As2
 BYTE   W06
 BYTE   Bn2
 BYTE   W06
 BYTE   Ds3
 BYTE   W06
 BYTE   N48  As1
 BYTE   W06
 BYTE   N06  Cn2
 BYTE   W06
 BYTE   Cs2
 BYTE   W06
 BYTE   Fn2
 BYTE   W06
 BYTE   As2
 BYTE   W06
 BYTE   Cn3
 BYTE   W06
 BYTE   Cs3
 BYTE   W06
 BYTE   Fn3
 BYTE   W06
 BYTE   PEND 
// 032   ----------------------------------------
 BYTE   PATT
  POIN2 Label_4_01EFAFDE
// 033   ----------------------------------------
 BYTE   PATT
  POIN2 Label_4_01EFAFF4
// 034   ----------------------------------------
 BYTE   PATT
  POIN2 Label_4_01EFAFDE
// 035   ----------------------------------------
 BYTE   PATT
  POIN2 Label_4_01EFB00D
// 036   ----------------------------------------
 BYTE   PATT
  POIN2 Label_4_01EFB021
// 037   ----------------------------------------
 BYTE   PATT
  POIN2 Label_4_01EFB035
// 038   ----------------------------------------
 BYTE   PATT
  POIN2 Label_4_01EFB052
// 039   ----------------------------------------
 BYTE   PATT
  POIN2 Label_4_01EFB078
// 040   ----------------------------------------
 BYTE   W96
// 041   ----------------------------------------
 BYTE   W96
// 042   ----------------------------------------
 BYTE   W96
// 043   ----------------------------------------
 BYTE   W96
// 044   ----------------------------------------
 BYTE   W96
// 045   ----------------------------------------
 BYTE   W96
// 046   ----------------------------------------
 BYTE   W96
// 047   ----------------------------------------
 BYTE   W96
// 048   ----------------------------------------
 BYTE   W96
// 049   ----------------------------------------
 BYTE   W96
// 050   ----------------------------------------
 BYTE   W96
// 051   ----------------------------------------
 BYTE   W96
// 052   ----------------------------------------
 BYTE   W96
// 053   ----------------------------------------
 BYTE   W96
// 054   ----------------------------------------
 BYTE   W96
// 055   ----------------------------------------
 BYTE   W96
// 056   ----------------------------------------
 BYTE   W96
// 057   ----------------------------------------
 BYTE   W96
// 058   ----------------------------------------
 BYTE   W96
// 059   ----------------------------------------
 BYTE   W96
// 060   ----------------------------------------
 BYTE   W96
// 061   ----------------------------------------
 BYTE   W96
// 062   ----------------------------------------
 BYTE   W96
// 063   ----------------------------------------
 BYTE   W96
// 064   ----------------------------------------
 BYTE   N06  Gn3  v127
 BYTE   N06  Gn4
 BYTE   W06
 BYTE   As3
 BYTE   N06  As4
 BYTE   W06
 BYTE   Cn4
 BYTE   N06  Cn5
 BYTE   W06
 BYTE   Dn4
 BYTE   N06  Dn5
 BYTE   W06
 BYTE   N12  An3
 BYTE   N12  An4
 BYTE   W12
 BYTE   N06  Fn3
 BYTE   N06  Fn4
 BYTE   W06
 BYTE   Gn3
 BYTE   N06  Gn4
 BYTE   W18
 BYTE   N12  Fn3
 BYTE   N12  Fn4
 BYTE   W12
 BYTE   Gn3
 BYTE   N12  Gn4
 BYTE   W12
 BYTE   An3
 BYTE   N12  An4
 BYTE   W12
// 065   ----------------------------------------
Label_4_01EFB10B:
 BYTE   N06  Gn3  v127
 BYTE   N06  Gn4
 BYTE   W06
 BYTE   Cn4
 BYTE   N06  Cn5
 BYTE   W06
 BYTE   As3
 BYTE   N06  As4
 BYTE   W06
 BYTE   Cn4
 BYTE   N06  Cn5
 BYTE   W06
 BYTE   An3
 BYTE   N06  An4
 BYTE   W06
 BYTE   Cn4
 BYTE   N06  Cn5
 BYTE   W06
 BYTE   Gn3
 BYTE   N06  Gn4
 BYTE   W06
 BYTE   As3
 BYTE   N06  As4
 BYTE   W06
 BYTE   N09  Gn3
 BYTE   N09  Gn4
 BYTE   W08
 BYTE   N01  Dn4
 BYTE   N09  Dn5
 BYTE   W10
 BYTE   N06  Cn4
 BYTE   N06  Cn5
 BYTE   W06
 BYTE   N09  Gn3
 BYTE   N09  Gn4
 BYTE   W08
 BYTE   N01  Dn4
 BYTE   N09  Dn5
 BYTE   W10
 BYTE   N06  Cn4
 BYTE   N06  Cn5
 BYTE   W06
 BYTE   PEND 
// 066   ----------------------------------------
Label_4_01EFB14C:
 BYTE   N06  An3  v127
 BYTE   N06  An4
 BYTE   W06
 BYTE   As3
 BYTE   N06  As4
 BYTE   W06
 BYTE   Gn3
 BYTE   N06  Gn4
 BYTE   W06
 BYTE   An3
 BYTE   N06  An4
 BYTE   W06
 BYTE   Fn3
 BYTE   N06  Fn4
 BYTE   W06
 BYTE   Gn3
 BYTE   N06  Gn4
 BYTE   W06
 BYTE   Dn3
 BYTE   N06  Dn4
 BYTE   W06
 BYTE   Fn3
 BYTE   N06  Fn4
 BYTE   W06
 BYTE   N03  Dn3
 BYTE   N03  Dn4
 BYTE   W02
 BYTE   N01  Gn3
 BYTE   N03  Gn4
 BYTE   W03
 BYTE   Dn3
 BYTE   N03  Dn4
 BYTE   W03
 BYTE   Gn3
 BYTE   N03  Gn4
 BYTE   W04
 BYTE   Dn3
 BYTE   N03  Dn4
 BYTE   W03
 BYTE   N02  Cn3
 BYTE   N03  Cn4
 BYTE   W02
 BYTE   N01  Dn3
 BYTE   N03  Dn4
 BYTE   W04
 BYTE   Fn3
 BYTE   N03  Fn4
 BYTE   W03
 BYTE   N06  Gn3
 BYTE   N06  Gn4
 BYTE   W06
 BYTE   Cn3
 BYTE   N06  Cn4
 BYTE   W06
 BYTE   Dn3
 BYTE   N06  Dn4
 BYTE   W06
 BYTE   As2
 BYTE   N06  As3
 BYTE   W06
 BYTE   PEND 
// 067   ----------------------------------------
Label_4_01EFB1A4:
 BYTE   N09  Cn3  v127
 BYTE   N09  Cn4
 BYTE   W09
 BYTE   An2
 BYTE   N09  An3
 BYTE   W09
 BYTE   N06  As2
 BYTE   N06  As3
 BYTE   W06
 BYTE   N09  Gn2
 BYTE   N09  Gn3
 BYTE   W09
 BYTE   An2
 BYTE   N09  An3
 BYTE   W09
 BYTE   N06  Fn2
 BYTE   N06  Fn3
 BYTE   W06
 BYTE   Gn2
 BYTE   N06  Gn3
 BYTE   W06
 BYTE   Fn2
 BYTE   N06  Fn3
 BYTE   W06
 BYTE   Dn2
 BYTE   N06  Dn3
 BYTE   W06
 BYTE   Fn2
 BYTE   N06  Fn3
 BYTE   W06
 BYTE   Gn2
 BYTE   N06  Gn3
 BYTE   W12
 BYTE   Dn3
 BYTE   N06  Dn4
 BYTE   W12
 BYTE   PEND 
// 068   ----------------------------------------
Label_4_01EFB1DA:
 BYTE   N06  Cn3  v127
 BYTE   N06  Cn4
 BYTE   W06
 BYTE   As2
 BYTE   N06  As3
 BYTE   W06
 BYTE   An2
 BYTE   N06  An3
 BYTE   W06
 BYTE   Fn2
 BYTE   N06  Fn3
 BYTE   W06
 BYTE   Gn2
 BYTE   N06  Gn3
 BYTE   W06
 BYTE   Gn2
 BYTE   N06  Gn3
 BYTE   W06
 BYTE   Gn2
 BYTE   N06  Gn3
 BYTE   W06
 BYTE   An2
 BYTE   N06  An3
 BYTE   W06
 BYTE   Gn2
 BYTE   N06  Gn3
 BYTE   W06
 BYTE   An2
 BYTE   N06  An3
 BYTE   W06
 BYTE   As2
 BYTE   N06  As3
 BYTE   W06
 BYTE   Cn3
 BYTE   N06  Cn4
 BYTE   W06
 BYTE   Dn3
 BYTE   N06  Dn4
 BYTE   W06
 BYTE   Fn3
 BYTE   N06  Fn4
 BYTE   W06
 BYTE   Gn3
 BYTE   N06  Gn4
 BYTE   W06
 BYTE   Dn3
 BYTE   N06  Dn4
 BYTE   W06
 BYTE   PEND 
// 069   ----------------------------------------
Label_4_01EFB21D:
 BYTE   N06  An3  v127
 BYTE   N06  An4
 BYTE   W06
 BYTE   Dn3
 BYTE   N06  Dn4
 BYTE   W06
 BYTE   As3
 BYTE   N06  As4
 BYTE   W06
 BYTE   Cn4
 BYTE   N06  Cn5
 BYTE   W06
 BYTE   N03  An3
 BYTE   N03  An4
 BYTE   W03
 BYTE   As3
 BYTE   N03  As4
 BYTE   W03
 BYTE   Gn3
 BYTE   N03  Gn4
 BYTE   W03
 BYTE   An3
 BYTE   N03  An4
 BYTE   W03
 BYTE   N06  Fn3
 BYTE   N06  Fn4
 BYTE   W06
 BYTE   En3
 BYTE   N06  En4
 BYTE   W06
 BYTE   Cn3
 BYTE   N06  Cn4
 BYTE   W06
 BYTE   N05  As2
 BYTE   N06  As3
 BYTE   W05
 BYTE   N03  En2
 BYTE   N03  En3
 BYTE   W03
 BYTE   Gn2
 BYTE   N03  Gn3
 BYTE   W03
 BYTE   An2
 BYTE   N03  An3
 BYTE   W03
 BYTE   As2
 BYTE   N03  As3
 BYTE   W04
 BYTE   N06  Cn3
 BYTE   N06  Cn4
 BYTE   W06
 BYTE   As2
 BYTE   N06  As3
 BYTE   W06
 BYTE   Cn3
 BYTE   N06  Cn4
 BYTE   W06
 BYTE   En3
 BYTE   N06  En4
 BYTE   W06
 BYTE   PEND 
// 070   ----------------------------------------
Label_4_01EFB275:
 BYTE   N06  Gn3  v127
 BYTE   N06  Gn4
 BYTE   W06
 BYTE   An3
 BYTE   N06  An4
 BYTE   W06
 BYTE   As3
 BYTE   N06  As4
 BYTE   W06
 BYTE   Cn4
 BYTE   N06  Cn5
 BYTE   W06
 BYTE   As3
 BYTE   N06  As4
 BYTE   W06
 BYTE   An3
 BYTE   N06  An4
 BYTE   W06
 BYTE   Gn3
 BYTE   N06  Gn4
 BYTE   W06
 BYTE   Fn3
 BYTE   N06  Fn4
 BYTE   W06
 BYTE   Gn3
 BYTE   N06  Gn4
 BYTE   W06
 BYTE   Fn3
 BYTE   N06  Fn4
 BYTE   W06
 BYTE   Dn3
 BYTE   N06  Dn4
 BYTE   W06
 BYTE   Gn3
 BYTE   N06  Gn4
 BYTE   W06
 BYTE   Fn3
 BYTE   N06  Fn4
 BYTE   W06
 BYTE   Dn3
 BYTE   N06  Dn4
 BYTE   W06
 BYTE   N12  Gn3
 BYTE   N12  Gn4
 BYTE   W12
 BYTE   PEND 
// 071   ----------------------------------------
 BYTE   N06  Dn4
 BYTE   N06  Dn5
 BYTE   W06
 BYTE   Cn4
 BYTE   N06  Cn5
 BYTE   W06
 BYTE   As3
 BYTE   N06  As4
 BYTE   W06
 BYTE   Dn4
 BYTE   N06  Dn5
 BYTE   W06
 BYTE   N12  Cn4
 BYTE   N12  Cn5
 BYTE   W12
 BYTE   An3
 BYTE   N12  An4
 BYTE   W12
 BYTE   N06  Dn3
 BYTE   N06  Dn4
 BYTE   W06
 BYTE   As2
 BYTE   N06  As3
 BYTE   W06
 BYTE   An2
 BYTE   N06  An3
 BYTE   W06
 BYTE   Gn2
 BYTE   N06  Gn3
 BYTE   W06
 BYTE   Dn2
 BYTE   N06  Dn3
 BYTE   W06
 BYTE   As1
 BYTE   N06  As2
 BYTE   W06
 BYTE   An1
 BYTE   N06  An2
 BYTE   W06
 BYTE   Gn1
 BYTE   N06  Gn2
 BYTE   W06
// 072   ----------------------------------------
 BYTE   Dn1
 BYTE   N06  Dn2
 BYTE   W06
 BYTE   Gn1
 BYTE   N06  Gn2
 BYTE   W06
 BYTE   An1
 BYTE   N06  An2
 BYTE   W06
 BYTE   As1
 BYTE   N06  As2
 BYTE   W06
 BYTE   Dn2
 BYTE   N06  Dn3
 BYTE   W06
 BYTE   Gn2
 BYTE   N06  Gn3
 BYTE   W06
 BYTE   An2
 BYTE   N06  An3
 BYTE   W06
 BYTE   As2
 BYTE   N06  As3
 BYTE   W18
 BYTE   N12  Fn3
 BYTE   N12  Fn4
 BYTE   W12
 BYTE   Gn3
 BYTE   N12  Gn4
 BYTE   W12
 BYTE   An3
 BYTE   N12  An4
 BYTE   W12
// 073   ----------------------------------------
 BYTE   PATT
  POIN2 Label_4_01EFB10B
// 074   ----------------------------------------
 BYTE   PATT
  POIN2 Label_4_01EFB14C
// 075   ----------------------------------------
 BYTE   PATT
  POIN2 Label_4_01EFB1A4
// 076   ----------------------------------------
 BYTE   PATT
  POIN2 Label_4_01EFB1DA
// 077   ----------------------------------------
 BYTE   PATT
  POIN2 Label_4_01EFB21D
// 078   ----------------------------------------
 BYTE   PATT
  POIN2 Label_4_01EFB275
// 079   ----------------------------------------
 BYTE   N06  Dn4  v127
 BYTE   N06  Dn5
 BYTE   W06
 BYTE   Cn4
 BYTE   N06  Cn5
 BYTE   W06
 BYTE   As3
 BYTE   N06  As4
 BYTE   W06
 BYTE   Dn4
 BYTE   N06  Dn5
 BYTE   W06
 BYTE   N12  Cn4
 BYTE   N12  Cn5
 BYTE   W12
 BYTE   An3
 BYTE   N12  An4
 BYTE   W12
 BYTE   N06  Gn3
 BYTE   N06  Gn4
 BYTE   W06
 BYTE   An3
 BYTE   N06  An4
 BYTE   W06
 BYTE   As3
 BYTE   N06  As4
 BYTE   W06
 BYTE   Cn4
 BYTE   N06  Cn5
 BYTE   W06
 BYTE   Dn4
 BYTE   N06  Dn5
 BYTE   W06
 BYTE   An3
 BYTE   N06  An4
 BYTE   W06
 BYTE   As3
 BYTE   N06  As4
 BYTE   W06
 BYTE   Fn4
 BYTE   N06  Fn5
 BYTE   W06
// 080   ----------------------------------------
 BYTE   Dn4
 BYTE   N06  Dn5
 BYTE   W06
 BYTE   Fn4
 BYTE   N06  Fn5
 BYTE   W06
 BYTE   Dn4
 BYTE   N06  Dn5
 BYTE   W06
 BYTE   Fn4
 BYTE   N06  Fn5
 BYTE   W06
 BYTE   Gn4
 BYTE   N06  Gn5
 BYTE   W06
 BYTE   Fn4
 BYTE   N06  Fn5
 BYTE   W06
 BYTE   Cn4
 BYTE   N06  Cn5
 BYTE   W06
 BYTE   Dn4
 BYTE   N06  Dn5
 BYTE   W06
 BYTE   N24  Cn2  v080
 BYTE   W12
 BYTE   N12  Gn2
 BYTE   W12
 BYTE   Cn2
 BYTE   W12
 BYTE   Gn2
 BYTE   W12
// 081   ----------------------------------------
 BYTE   Cn2
 BYTE   W12
 BYTE   Gs2
 BYTE   W12
 BYTE   Cn2
 BYTE   W12
 BYTE   Gs2
 BYTE   W12
 BYTE   N24  Cn2
 BYTE   W12
 BYTE   N12  An2
 BYTE   W12
 BYTE   Cn2
 BYTE   W12
 BYTE   An2
 BYTE   W12
// 082   ----------------------------------------
 BYTE   Cn2
 BYTE   W12
 BYTE   Gs2
 BYTE   W12
 BYTE   Cn2
 BYTE   W12
 BYTE   Gs2
 BYTE   W12
 BYTE   N24  Cn2  v100
 BYTE   W12
 BYTE   N12  Gn2
 BYTE   W12
 BYTE   Cn2
 BYTE   W12
 BYTE   Gn2
 BYTE   W12
// 083   ----------------------------------------
Label_4_01EFB3C7:
 BYTE   N12  Cn2  v100
 BYTE   W12
 BYTE   Gs2
 BYTE   W12
 BYTE   Cn2
 BYTE   W12
 BYTE   Gs2
 BYTE   W12
 BYTE   N24  Cn2
 BYTE   W12
 BYTE   N12  An2
 BYTE   W12
 BYTE   Cn2
 BYTE   W12
 BYTE   An2
 BYTE   W12
 BYTE   PEND 
// 084   ----------------------------------------
Label_4_01EFB3DC:
 BYTE   N12  Cn2  v100
 BYTE   W12
 BYTE   Gs2
 BYTE   W12
 BYTE   Cn2
 BYTE   W12
 BYTE   Gs2
 BYTE   W12
 BYTE   N24  Cn2
 BYTE   W12
 BYTE   N12  Gn2
 BYTE   W12
 BYTE   Cn2
 BYTE   W12
 BYTE   Gn2
 BYTE   W12
 BYTE   PEND 
// 085   ----------------------------------------
 BYTE   PATT
  POIN2 Label_4_01EFB3C7
// 086   ----------------------------------------
 BYTE   PATT
  POIN2 Label_4_01EFB3DC
// 087   ----------------------------------------
 BYTE   N12  Cn2  v100
 BYTE   W12
 BYTE   Gs2
 BYTE   W12
 BYTE   Cn2
 BYTE   W12
 BYTE   Gs2
 BYTE   W12
 BYTE   N48  An2
 BYTE   W48
// 088   ----------------------------------------
 BYTE   W24
 BYTE   GoTo
  POIN2 Label_4_01EFAFDD
 BYTE   FINE

//**************** Track 6 (Midi-Chn.5) ****************//

SeptetteForTheDeadPrincess_006:
// 000   ----------------------------------------
 BYTE   KEYSH   SeptetteForTheDeadPrincess_key+0
 BYTE   VOL   42*SeptetteForTheDeadPrincess_mvl/mxv
 BYTE   PAN   c_v+0
 BYTE   VOICE   36
 BYTE   W96
// 001   ----------------------------------------
 BYTE   W96
// 002   ----------------------------------------
 BYTE   W96
// 003   ----------------------------------------
 BYTE   W96
// 004   ----------------------------------------
 BYTE   W96
// 005   ----------------------------------------
 BYTE   W96
// 006   ----------------------------------------
 BYTE   W96
// 007   ----------------------------------------
 BYTE   W96
// 008   ----------------------------------------
Label_5_01EFB424:
 BYTE   N48  Cn1  v100
 BYTE   W48
 BYTE   As0
 BYTE   W48
 BYTE   PEND 
// 009   ----------------------------------------
 BYTE   N96  Gs0
 BYTE   W96
// 010   ----------------------------------------
 BYTE   PATT
  POIN2 Label_5_01EFB424
// 011   ----------------------------------------
 BYTE   N96  An0  v100
 BYTE   W96
// 012   ----------------------------------------
 BYTE   Fn0
 BYTE   W96
// 013   ----------------------------------------
 BYTE   Ds0
 BYTE   W96
// 014   ----------------------------------------
 BYTE   N48  Fn0
 BYTE   W48
 BYTE   Gn0
 BYTE   W48
// 015   ----------------------------------------
 BYTE   Gs0
 BYTE   W48
 BYTE   As0
 BYTE   W48
// 016   ----------------------------------------
 BYTE   VOICE   32
 BYTE   N12  Cn1  v080
 BYTE   W12
 BYTE   Gn1
 BYTE   W12
 BYTE   Cn1
 BYTE   W12
 BYTE   Gn1
 BYTE   W12
 BYTE   Cn1
 BYTE   W12
 BYTE   Gs1
 BYTE   W12
 BYTE   Cn1
 BYTE   W12
 BYTE   Gs1
 BYTE   W12
// 017   ----------------------------------------
 BYTE   Cn1
 BYTE   W12
 BYTE   An1
 BYTE   W12
 BYTE   Cn1
 BYTE   W12
 BYTE   An1
 BYTE   W12
 BYTE   Cn1
 BYTE   W12
 BYTE   Gs1
 BYTE   W12
 BYTE   Cn1
 BYTE   W12
 BYTE   Gs1
 BYTE   W12
// 018   ----------------------------------------
Label_5_01EFB468:
 BYTE   N12  Cn1  v100
 BYTE   W12
 BYTE   Gn1
 BYTE   W12
 BYTE   Cn1
 BYTE   W12
 BYTE   Gn1
 BYTE   W12
 BYTE   Cn1
 BYTE   W12
 BYTE   Gs1
 BYTE   W12
 BYTE   Cn1
 BYTE   W12
 BYTE   Gs1
 BYTE   W12
 BYTE   PEND 
// 019   ----------------------------------------
Label_5_01EFB47B:
 BYTE   N12  Cn1  v100
 BYTE   W12
 BYTE   An1
 BYTE   W12
 BYTE   Cn1
 BYTE   W12
 BYTE   An1
 BYTE   W12
 BYTE   Cn1
 BYTE   W12
 BYTE   Gs1
 BYTE   W12
 BYTE   Cn1
 BYTE   W12
 BYTE   Gs1
 BYTE   W12
 BYTE   PEND 
// 020   ----------------------------------------
 BYTE   PATT
  POIN2 Label_5_01EFB468
// 021   ----------------------------------------
 BYTE   PATT
  POIN2 Label_5_01EFB47B
// 022   ----------------------------------------
 BYTE   PATT
  POIN2 Label_5_01EFB468
// 023   ----------------------------------------
 BYTE   N48  An1  v100
 BYTE   W48
Label_5_01EFB4A1:
 BYTE   W48
// 024   ----------------------------------------
Label_5_01EFB4A2:
 BYTE   N12  Cn1  v100
 BYTE   W12
 BYTE   Gn1
 BYTE   W12
 BYTE   Cn1
 BYTE   W12
 BYTE   Gn1
 BYTE   W12
 BYTE   As0
 BYTE   W12
 BYTE   Fn1
 BYTE   W12
 BYTE   As0
 BYTE   W12
 BYTE   Fn1
 BYTE   W12
 BYTE   PEND 
// 025   ----------------------------------------
Label_5_01EFB4B5:
 BYTE   N12  Gs0  v100
 BYTE   W12
 BYTE   Ds1
 BYTE   W12
 BYTE   Gs0
 BYTE   W12
 BYTE   Ds1
 BYTE   W12
 BYTE   Gs0
 BYTE   W12
 BYTE   Ds1
 BYTE   W12
 BYTE   Gs0
 BYTE   W12
 BYTE   Ds1
 BYTE   W12
 BYTE   PEND 
// 026   ----------------------------------------
Label_5_01EFB4C8:
 BYTE   N12  Cn1  v100
 BYTE   W12
 BYTE   Gn1
 BYTE   W12
 BYTE   Cn1
 BYTE   W12
 BYTE   Gn1
 BYTE   W12
 BYTE   As0
 BYTE   W12
 BYTE   Gn1
 BYTE   W12
 BYTE   As0
 BYTE   W12
 BYTE   Gn1
 BYTE   W12
 BYTE   PEND 
// 027   ----------------------------------------
Label_5_01EFB4DB:
 BYTE   N12  An0  v100
 BYTE   W12
 BYTE   Fn1
 BYTE   W12
 BYTE   An0
 BYTE   W12
 BYTE   Fn1
 BYTE   W12
 BYTE   An0
 BYTE   W12
 BYTE   Fn1
 BYTE   W12
 BYTE   An0
 BYTE   W12
 BYTE   Fn1
 BYTE   W12
 BYTE   PEND 
// 028   ----------------------------------------
Label_5_01EFB4EE:
 BYTE   N12  Fn0  v100
 BYTE   W12
 BYTE   Cn1
 BYTE   W12
 BYTE   Fn0
 BYTE   W12
 BYTE   Cn1
 BYTE   W12
 BYTE   Fn0
 BYTE   W12
 BYTE   Cn1
 BYTE   W12
 BYTE   Fn0
 BYTE   W12
 BYTE   Cn1
 BYTE   W12
 BYTE   PEND 
// 029   ----------------------------------------
Label_5_01EFB501:
 BYTE   N12  Ds0  v100
 BYTE   W12
 BYTE   As0
 BYTE   W12
 BYTE   Ds0
 BYTE   W12
 BYTE   As0
 BYTE   W12
 BYTE   Ds0
 BYTE   W12
 BYTE   As0
 BYTE   W12
 BYTE   Ds0
 BYTE   W12
 BYTE   As0
 BYTE   W12
 BYTE   PEND 
// 030   ----------------------------------------
Label_5_01EFB514:
 BYTE   N12  Fn0  v100
 BYTE   W12
 BYTE   Cn1
 BYTE   W12
 BYTE   Fn0
 BYTE   W12
 BYTE   Cn1
 BYTE   W12
 BYTE   Gn0
 BYTE   W12
 BYTE   Dn1
 BYTE   W12
 BYTE   Gn0
 BYTE   W12
 BYTE   Dn1
 BYTE   W12
 BYTE   PEND 
// 031   ----------------------------------------
 BYTE   Gs0
 BYTE   W12
 BYTE   Ds1
 BYTE   W12
 BYTE   Gs0
 BYTE   W12
 BYTE   Ds1
 BYTE   W12
 BYTE   As0
 BYTE   W12
 BYTE   Fn1
 BYTE   W12
 BYTE   As0
 BYTE   W12
 BYTE   Fn1
 BYTE   W12
// 032   ----------------------------------------
 BYTE   PATT
  POIN2 Label_5_01EFB4A2
// 033   ----------------------------------------
 BYTE   PATT
  POIN2 Label_5_01EFB4B5
// 034   ----------------------------------------
 BYTE   PATT
  POIN2 Label_5_01EFB4C8
// 035   ----------------------------------------
 BYTE   PATT
  POIN2 Label_5_01EFB4DB
// 036   ----------------------------------------
 BYTE   PATT
  POIN2 Label_5_01EFB4EE
// 037   ----------------------------------------
 BYTE   PATT
  POIN2 Label_5_01EFB501
// 038   ----------------------------------------
 BYTE   PATT
  POIN2 Label_5_01EFB514
// 039   ----------------------------------------
 BYTE   N12  Gs0  v100
 BYTE   W12
 BYTE   Ds1
 BYTE   W12
 BYTE   Gs0
 BYTE   W12
 BYTE   Ds1
 BYTE   W12
 BYTE   As0
 BYTE   W12
 BYTE   Fn1
 BYTE   W12
 BYTE   As1
 BYTE   W12
 BYTE   Cs2
 BYTE   W12
// 040   ----------------------------------------
 BYTE   VOICE   36
 BYTE   N06  Bn0  v080
 BYTE   N06  Fs1
 BYTE   W12
 BYTE   Bn0
 BYTE   N06  Fs1
 BYTE   W12
 BYTE   Bn0
 BYTE   N06  Fs1
 BYTE   W12
 BYTE   Bn0
 BYTE   N06  Fs1
 BYTE   W12
 BYTE   Bn0
 BYTE   N06  Fs1
 BYTE   W12
 BYTE   Bn0
 BYTE   N06  Fs1
 BYTE   W12
 BYTE   Bn0
 BYTE   N06  Fs1
 BYTE   W12
 BYTE   Bn0
 BYTE   N06  Fs1
 BYTE   W12
// 041   ----------------------------------------
 BYTE   Cs1
 BYTE   N06  Gs1
 BYTE   W12
 BYTE   Cs1
 BYTE   N06  Gs1
 BYTE   W12
 BYTE   Cs1
 BYTE   N06  Gs1
 BYTE   W12
 BYTE   Cs1
 BYTE   N06  Gs1
 BYTE   W12
 BYTE   Cs1
 BYTE   N06  Gs1
 BYTE   W12
 BYTE   Cs1
 BYTE   N06  Gs1
 BYTE   W12
 BYTE   Cs1
 BYTE   N06  Gs1
 BYTE   W12
 BYTE   Cs1
 BYTE   N06  Gs1
 BYTE   W12
// 042   ----------------------------------------
 BYTE   Dn1
 BYTE   N06  Gs1
 BYTE   W12
 BYTE   Dn1
 BYTE   N06  Gs1
 BYTE   W12
 BYTE   Dn1
 BYTE   N06  Gs1
 BYTE   W12
 BYTE   Dn1
 BYTE   N06  Gs1
 BYTE   W12
 BYTE   Dn1
 BYTE   N06  Gs1
 BYTE   W12
 BYTE   Dn1
 BYTE   N06  Gs1
 BYTE   W12
 BYTE   Dn1
 BYTE   N06  Gs1
 BYTE   W12
 BYTE   Dn1
 BYTE   N06  Gs1
 BYTE   W12
// 043   ----------------------------------------
 BYTE   Ds1
 BYTE   N06  As1
 BYTE   W12
 BYTE   Ds1
 BYTE   N06  As1
 BYTE   W12
 BYTE   Ds1
 BYTE   N06  As1
 BYTE   W12
 BYTE   Ds1
 BYTE   N06  As1
 BYTE   W12
 BYTE   Ds1
 BYTE   N06  As1
 BYTE   W12
 BYTE   Ds1
 BYTE   N06  As1
 BYTE   W12
 BYTE   Ds1
 BYTE   N06  As1
 BYTE   W12
 BYTE   Ds1
 BYTE   N06  As1
 BYTE   W12
// 044   ----------------------------------------
 BYTE   Bn0  v100
 BYTE   N06  Fs1
 BYTE   W12
 BYTE   Bn0
 BYTE   N06  Fs1
 BYTE   W12
 BYTE   Bn0
 BYTE   N06  Fs1
 BYTE   W12
 BYTE   Bn0
 BYTE   N06  Fs1
 BYTE   W12
 BYTE   Bn0
 BYTE   N06  Fs1
 BYTE   W12
 BYTE   Bn0
 BYTE   N06  Fs1
 BYTE   W12
 BYTE   Bn0
 BYTE   N06  Fs1
 BYTE   W12
 BYTE   Bn0
 BYTE   N06  Fs1
 BYTE   W12
// 045   ----------------------------------------
 BYTE   Cs1
 BYTE   N06  Gs1
 BYTE   W12
 BYTE   Cs1
 BYTE   N06  Gs1
 BYTE   W12
 BYTE   Cs1
 BYTE   N06  Gs1
 BYTE   W12
 BYTE   Cs1
 BYTE   N06  Gs1
 BYTE   W12
 BYTE   Cs1
 BYTE   N06  Gs1
 BYTE   W12
 BYTE   Cs1
 BYTE   N06  Gs1
 BYTE   W12
 BYTE   Cs1
 BYTE   N06  Gs1
 BYTE   W12
 BYTE   Cs1
 BYTE   N06  Gs1
 BYTE   W12
// 046   ----------------------------------------
 BYTE   Dn1
 BYTE   N06  Gs1
 BYTE   W12
 BYTE   Dn1
 BYTE   N06  Gs1
 BYTE   W12
 BYTE   Dn1
 BYTE   N06  Gs1
 BYTE   W12
 BYTE   Dn1
 BYTE   N06  Gs1
 BYTE   W12
 BYTE   Dn1
 BYTE   N06  Gs1
 BYTE   W12
 BYTE   Dn1
 BYTE   N06  Gs1
 BYTE   W12
 BYTE   Dn1
 BYTE   N06  Gs1
 BYTE   W12
 BYTE   Dn1
 BYTE   N06  Gs1
 BYTE   W12
// 047   ----------------------------------------
 BYTE   N24  As0
 BYTE   N24  Ds1
 BYTE   W36
 BYTE   As0
 BYTE   N24  Ds1
 BYTE   W36
 BYTE   N12  As0
 BYTE   N12  Ds1
 BYTE   W12
 BYTE   As0
 BYTE   N12  Ds1
 BYTE   W12
// 048   ----------------------------------------
 BYTE   W48
 BYTE   N06  Ds2  v120
 BYTE   W06
 BYTE   Gn2
 BYTE   W06
 BYTE   As2
 BYTE   W06
 BYTE   Gn2
 BYTE   W06
 BYTE   As2
 BYTE   W06
 BYTE   Ds2
 BYTE   W06
 BYTE   Gn2
 BYTE   W06
 BYTE   As2
 BYTE   W06
// 049   ----------------------------------------
Label_5_01EFB676:
 BYTE   N06  Ds2  v120
 BYTE   W06
 BYTE   Gn2
 BYTE   W06
 BYTE   As2
 BYTE   W06
 BYTE   Gn2
 BYTE   W06
 BYTE   As2
 BYTE   W06
 BYTE   Ds2
 BYTE   W06
 BYTE   Gn2
 BYTE   W06
 BYTE   As2
 BYTE   W06
 BYTE   Ds2
 BYTE   W06
 BYTE   N06
 BYTE   W06
 BYTE   As2
 BYTE   W06
 BYTE   Ds2
 BYTE   W06
 BYTE   N06
 BYTE   W06
 BYTE   As2
 BYTE   W06
 BYTE   Ds2
 BYTE   W06
 BYTE   N06
 BYTE   W06
 BYTE   PEND 
// 050   ----------------------------------------
Label_5_01EFB699:
 BYTE   N06  As2  v120
 BYTE   W06
 BYTE   Ds2
 BYTE   W06
 BYTE   N06
 BYTE   W06
 BYTE   As2
 BYTE   W06
 BYTE   Fn2
 BYTE   W06
 BYTE   N06
 BYTE   W06
 BYTE   Cn3
 BYTE   W06
 BYTE   Fn2
 BYTE   W06
 BYTE   Gn2
 BYTE   W06
 BYTE   N06
 BYTE   W06
 BYTE   Dn3
 BYTE   W06
 BYTE   As2
 BYTE   W06
 BYTE   Dn3
 BYTE   W06
 BYTE   Fn3
 BYTE   W06
 BYTE   Dn3
 BYTE   W06
 BYTE   As2
 BYTE   W06
 BYTE   PEND 
// 051   ----------------------------------------
Label_5_01EFB6BC:
 BYTE   N06  As2  v120
 BYTE   W06
 BYTE   Dn3
 BYTE   W06
 BYTE   Gn2
 BYTE   W06
 BYTE   Dn3
 BYTE   W06
 BYTE   As2
 BYTE   W06
 BYTE   Dn3
 BYTE   W06
 BYTE   Gn2
 BYTE   W06
 BYTE   Dn3
 BYTE   W06
 BYTE   Gn2
 BYTE   W06
 BYTE   As2
 BYTE   W06
 BYTE   Dn3
 BYTE   W06
 BYTE   Gn2
 BYTE   W06
 BYTE   N06
 BYTE   W06
 BYTE   Dn3
 BYTE   W06
 BYTE   As2
 BYTE   W06
 BYTE   Dn3
 BYTE   W06
 BYTE   PEND 
// 052   ----------------------------------------
Label_5_01EFB6DF:
 BYTE   N06  Gn2  v120
 BYTE   W06
 BYTE   Dn3
 BYTE   W06
 BYTE   As2
 BYTE   W06
 BYTE   Dn3
 BYTE   W06
 BYTE   Gn2
 BYTE   W06
 BYTE   Dn3
 BYTE   W06
 BYTE   As2
 BYTE   W06
 BYTE   Dn3
 BYTE   W06
 BYTE   Fn2
 BYTE   W06
 BYTE   Cn3
 BYTE   W06
 BYTE   An2
 BYTE   W06
 BYTE   Cn3
 BYTE   W06
 BYTE   Fn2
 BYTE   W06
 BYTE   An2
 BYTE   W06
 BYTE   Cn3
 BYTE   W06
 BYTE   An2
 BYTE   W06
 BYTE   PEND 
// 053   ----------------------------------------
Label_5_01EFB702:
 BYTE   N06  An2  v120
 BYTE   W06
 BYTE   Cn3
 BYTE   W06
 BYTE   An2
 BYTE   W06
 BYTE   Cn3
 BYTE   W06
 BYTE   An2
 BYTE   W06
 BYTE   Cn3
 BYTE   W06
 BYTE   Ds2
 BYTE   W06
 BYTE   Cn3
 BYTE   W06
 BYTE   Ds2
 BYTE   W06
 BYTE   Cn3
 BYTE   W06
 BYTE   An2
 BYTE   W06
 BYTE   Cn3
 BYTE   W06
 BYTE   Ds2
 BYTE   W06
 BYTE   An2
 BYTE   W06
 BYTE   Cn3
 BYTE   W06
 BYTE   Ds2
 BYTE   W06
 BYTE   PEND 
// 054   ----------------------------------------
Label_5_01EFB725:
 BYTE   N06  An2  v120
 BYTE   W06
 BYTE   Cn3
 BYTE   W06
 BYTE   Ds2
 BYTE   W06
 BYTE   Cn3
 BYTE   W06
 BYTE   N12  An2
 BYTE   W12
 BYTE   N06  Ds2
 BYTE   N06  Cn3
 BYTE   W06
 BYTE   An2
 BYTE   W06
 BYTE   Ds2
 BYTE   W06
 BYTE   N06
 BYTE   W06
 BYTE   As2
 BYTE   W06
 BYTE   Ds2
 BYTE   W06
 BYTE   Gn2
 BYTE   W06
 BYTE   As2
 BYTE   W06
 BYTE   Ds2
 BYTE   W06
 BYTE   As2
 BYTE   W06
 BYTE   PEND 
// 055   ----------------------------------------
Label_5_01EFB74A:
 BYTE   N06  Fn2  v120
 BYTE   W06
 BYTE   An2
 BYTE   W06
 BYTE   Cn3
 BYTE   W06
 BYTE   An2
 BYTE   W06
 BYTE   Cn3
 BYTE   W06
 BYTE   Fn3
 BYTE   W06
 BYTE   Cn3
 BYTE   W06
 BYTE   An2
 BYTE   W06
 BYTE   Gn2
 BYTE   W06
 BYTE   N06
 BYTE   W06
 BYTE   Dn3
 BYTE   W06
 BYTE   Gn2
 BYTE   W06
 BYTE   N06
 BYTE   W06
 BYTE   Dn3
 BYTE   W06
 BYTE   Gn2
 BYTE   W06
 BYTE   Dn3
 BYTE   W06
 BYTE   PEND 
// 056   ----------------------------------------
Label_5_01EFB76D:
 BYTE   N06  Gn2  v120
 BYTE   W06
 BYTE   N06
 BYTE   W06
 BYTE   Dn3
 BYTE   W06
 BYTE   Gn2
 BYTE   W06
 BYTE   Dn3
 BYTE   W06
 BYTE   N06
 BYTE   W06
 BYTE   Fn2
 BYTE   W06
 BYTE   Cn3
 BYTE   W06
 BYTE   Ds2
 BYTE   W06
 BYTE   Gn2
 BYTE   W06
 BYTE   As2
 BYTE   W06
 BYTE   Gn2
 BYTE   W06
 BYTE   As2
 BYTE   W06
 BYTE   Ds2
 BYTE   W06
 BYTE   Gn2
 BYTE   W06
 BYTE   As2
 BYTE   W06
 BYTE   PEND 
// 057   ----------------------------------------
 BYTE   PATT
  POIN2 Label_5_01EFB676
// 058   ----------------------------------------
 BYTE   PATT
  POIN2 Label_5_01EFB699
// 059   ----------------------------------------
 BYTE   PATT
  POIN2 Label_5_01EFB6BC
// 060   ----------------------------------------
 BYTE   PATT
  POIN2 Label_5_01EFB6DF
// 061   ----------------------------------------
 BYTE   PATT
  POIN2 Label_5_01EFB702
// 062   ----------------------------------------
 BYTE   PATT
  POIN2 Label_5_01EFB725
// 063   ----------------------------------------
 BYTE   PATT
  POIN2 Label_5_01EFB74A
// 064   ----------------------------------------
 BYTE   PATT
  POIN2 Label_5_01EFB76D
// 065   ----------------------------------------
 BYTE   PATT
  POIN2 Label_5_01EFB676
// 066   ----------------------------------------
 BYTE   PATT
  POIN2 Label_5_01EFB699
// 067   ----------------------------------------
 BYTE   PATT
  POIN2 Label_5_01EFB6BC
// 068   ----------------------------------------
 BYTE   PATT
  POIN2 Label_5_01EFB6DF
// 069   ----------------------------------------
 BYTE   PATT
  POIN2 Label_5_01EFB702
// 070   ----------------------------------------
 BYTE   PATT
  POIN2 Label_5_01EFB725
// 071   ----------------------------------------
 BYTE   PATT
  POIN2 Label_5_01EFB74A
// 072   ----------------------------------------
 BYTE   PATT
  POIN2 Label_5_01EFB76D
// 073   ----------------------------------------
 BYTE   PATT
  POIN2 Label_5_01EFB676
// 074   ----------------------------------------
 BYTE   PATT
  POIN2 Label_5_01EFB699
// 075   ----------------------------------------
 BYTE   PATT
  POIN2 Label_5_01EFB6BC
// 076   ----------------------------------------
 BYTE   PATT
  POIN2 Label_5_01EFB6DF
// 077   ----------------------------------------
 BYTE   PATT
  POIN2 Label_5_01EFB702
// 078   ----------------------------------------
 BYTE   PATT
  POIN2 Label_5_01EFB725
// 079   ----------------------------------------
 BYTE   PATT
  POIN2 Label_5_01EFB74A
// 080   ----------------------------------------
 BYTE   N06  Gn2  v120
 BYTE   W06
 BYTE   N06
 BYTE   W06
 BYTE   Dn3
 BYTE   W06
 BYTE   Gn2
 BYTE   W06
 BYTE   Dn3
 BYTE   W06
 BYTE   N06
 BYTE   W06
 BYTE   Fn2
 BYTE   W06
 BYTE   Cn3
 BYTE   W06
 BYTE   VOICE   32
 BYTE   N12  Cn1  v080
 BYTE   W12
 BYTE   Gn1
 BYTE   W12
 BYTE   Cn1
 BYTE   W12
 BYTE   Gn1
 BYTE   W12
// 081   ----------------------------------------
 BYTE   Cn1
 BYTE   W12
 BYTE   Gs1
 BYTE   W12
 BYTE   Cn1
 BYTE   W12
 BYTE   Gs1
 BYTE   W12
 BYTE   Cn1
 BYTE   W12
 BYTE   An1
 BYTE   W12
 BYTE   Cn1
 BYTE   W12
 BYTE   An1
 BYTE   W12
// 082   ----------------------------------------
 BYTE   Cn1
 BYTE   W12
 BYTE   Gs1
 BYTE   W12
 BYTE   Cn1
 BYTE   W12
 BYTE   Gs1
 BYTE   W12
 BYTE   Cn1  v100
 BYTE   W12
 BYTE   Gn1
 BYTE   W12
 BYTE   Cn1
 BYTE   W12
 BYTE   Gn1
 BYTE   W12
// 083   ----------------------------------------
Label_5_01EFB842:
 BYTE   N12  Cn1  v100
 BYTE   W12
 BYTE   Gs1
 BYTE   W12
 BYTE   Cn1
 BYTE   W12
 BYTE   Gs1
 BYTE   W12
 BYTE   Cn1
 BYTE   W12
 BYTE   An1
 BYTE   W12
 BYTE   Cn1
 BYTE   W12
 BYTE   An1
 BYTE   W12
 BYTE   PEND 
// 084   ----------------------------------------
Label_5_01EFB855:
 BYTE   N12  Cn1  v100
 BYTE   W12
 BYTE   Gs1
 BYTE   W12
 BYTE   Cn1
 BYTE   W12
 BYTE   Gs1
 BYTE   W12
 BYTE   Cn1
 BYTE   W12
 BYTE   Gn1
 BYTE   W12
 BYTE   Cn1
 BYTE   W12
 BYTE   Gn1
 BYTE   W12
 BYTE   PEND 
// 085   ----------------------------------------
 BYTE   PATT
  POIN2 Label_5_01EFB842
// 086   ----------------------------------------
 BYTE   PATT
  POIN2 Label_5_01EFB855
// 087   ----------------------------------------
 BYTE   N12  Cn1  v100
 BYTE   W12
 BYTE   Gs1
 BYTE   W12
 BYTE   Cn1
 BYTE   W12
 BYTE   Gs1
 BYTE   W12
 BYTE   N48  An1
 BYTE   W48
// 088   ----------------------------------------
 BYTE   W24
 BYTE   GoTo
  POIN2 Label_5_01EFB4A1
 BYTE   FINE

//**************** Track 7 (Midi-Chn.6) ****************//

SeptetteForTheDeadPrincess_007:
// 000   ----------------------------------------
 BYTE   KEYSH   SeptetteForTheDeadPrincess_key+0
 BYTE   VOL   42*SeptetteForTheDeadPrincess_mvl/mxv
 BYTE   PAN   c_v+0
 BYTE   VOICE   62
 BYTE   W96
// 001   ----------------------------------------
 BYTE   W96
// 002   ----------------------------------------
 BYTE   W96
// 003   ----------------------------------------
 BYTE   W96
// 004   ----------------------------------------
 BYTE   W96
// 005   ----------------------------------------
 BYTE   W96
// 006   ----------------------------------------
 BYTE   W96
// 007   ----------------------------------------
 BYTE   W96
// 008   ----------------------------------------
 BYTE   W96
// 009   ----------------------------------------
 BYTE   W96
// 010   ----------------------------------------
 BYTE   W96
// 011   ----------------------------------------
 BYTE   W96
// 012   ----------------------------------------
 BYTE   W96
// 013   ----------------------------------------
 BYTE   W96
// 014   ----------------------------------------
 BYTE   W96
// 015   ----------------------------------------
 BYTE   W96
// 016   ----------------------------------------
 BYTE   W96
// 017   ----------------------------------------
 BYTE   W96
// 018   ----------------------------------------
 BYTE   W96
// 019   ----------------------------------------
 BYTE   W96
// 020   ----------------------------------------
 BYTE   W96
// 021   ----------------------------------------
 BYTE   W96
// 022   ----------------------------------------
 BYTE   W96
// 023   ----------------------------------------
 BYTE   W48
Label_6_01EFB8AC:
 BYTE   W48
// 024   ----------------------------------------
 BYTE   W96
// 025   ----------------------------------------
 BYTE   W96
// 026   ----------------------------------------
 BYTE   W96
// 027   ----------------------------------------
 BYTE   W96
// 028   ----------------------------------------
 BYTE   W96
// 029   ----------------------------------------
 BYTE   W96
// 030   ----------------------------------------
 BYTE   W96
// 031   ----------------------------------------
 BYTE   W60
 BYTE   N24  Dn3  v127
 BYTE   N24  Dn4
 BYTE   W24
 BYTE   N12  Fn3
 BYTE   N12  Fn4
 BYTE   W12
// 032   ----------------------------------------
 BYTE   N36  Gn3
 BYTE   N36  Gn4
 BYTE   W36
 BYTE   N12  As3
 BYTE   N12  As4
 BYTE   W12
 BYTE   N36  Fn3
 BYTE   N36  Fn4
 BYTE   W36
 BYTE   N12  Gn3
 BYTE   N12  Gn4
 BYTE   W12
// 033   ----------------------------------------
 BYTE   N60  Ds3
 BYTE   N60  Ds4
 BYTE   W60
 BYTE   N12  Ds3
 BYTE   N12  Ds4
 BYTE   W12
 BYTE   Ds3
 BYTE   N12  Ds4
 BYTE   W12
 BYTE   Fn3
 BYTE   N12  Fn4
 BYTE   W12
// 034   ----------------------------------------
 BYTE   N36  Gn3
 BYTE   N36  Gn4
 BYTE   W36
 BYTE   N24  As3
 BYTE   N24  As4
 BYTE   W24
 BYTE   N12  Cn4
 BYTE   N12  Cn5
 BYTE   W12
 BYTE   As3
 BYTE   N12  As4
 BYTE   W12
 BYTE   As3
 BYTE   N12  As4
 BYTE   W12
// 035   ----------------------------------------
 BYTE   N60  An3
 BYTE   N60  An4
 BYTE   W60
 BYTE   N12  Cn4
 BYTE   N12  Cn5
 BYTE   W12
 BYTE   Dn4
 BYTE   N12  Dn5
 BYTE   W12
 BYTE   Ds4
 BYTE   N12  Ds5
 BYTE   W12
// 036   ----------------------------------------
 BYTE   N24  Gs3
 BYTE   N24  Gs4
 BYTE   W24
 BYTE   N36  Gs3
 BYTE   N36  Gs4
 BYTE   W36
 BYTE   N12  Gs3
 BYTE   N12  Gs4
 BYTE   W12
 BYTE   As3
 BYTE   N12  As4
 BYTE   W12
 BYTE   Dn4
 BYTE   N12  Dn5
 BYTE   W12
// 037   ----------------------------------------
 BYTE   N24  Gn3
 BYTE   N24  Gn4
 BYTE   W24
 BYTE   N36  Gn3
 BYTE   N36  Gn4
 BYTE   W36
 BYTE   N12  Ds3
 BYTE   N12  Ds4
 BYTE   W12
 BYTE   Ds3
 BYTE   N12  Ds4
 BYTE   W12
 BYTE   Fn3
 BYTE   N12  Fn4
 BYTE   W12
// 038   ----------------------------------------
 BYTE   N36  Gn3
 BYTE   N36  Gn4
 BYTE   W36
 BYTE   N12  As3
 BYTE   N12  As4
 BYTE   W12
 BYTE   N36  Fn3
 BYTE   N36  Fn4
 BYTE   W36
 BYTE   N12  Dn3
 BYTE   N12  Dn4
 BYTE   W12
// 039   ----------------------------------------
 BYTE   N48  Ds3
 BYTE   N48  Ds4
 BYTE   W48
 BYTE   Fn3
 BYTE   N48  Fn4
 BYTE   W48
// 040   ----------------------------------------
 BYTE   W96
// 041   ----------------------------------------
 BYTE   W96
// 042   ----------------------------------------
 BYTE   W96
// 043   ----------------------------------------
 BYTE   W96
// 044   ----------------------------------------
 BYTE   W96
// 045   ----------------------------------------
 BYTE   W96
// 046   ----------------------------------------
 BYTE   W96
// 047   ----------------------------------------
 BYTE   N24  As3  v100
 BYTE   N24  As4
 BYTE   W36
 BYTE   As3
 BYTE   N24  As4
 BYTE   W36
 BYTE   N12  As3
 BYTE   N12  As4
 BYTE   W12
 BYTE   As3
 BYTE   N12  As4
 BYTE   W12
// 048   ----------------------------------------
Label_6_01EFB974:
 BYTE   W24
 BYTE   N12  Dn3  v100
 BYTE   N12  Gn3
 BYTE   W12
 BYTE   As3
 BYTE   N12  Dn4
 BYTE   W12
 BYTE   N36  An3
 BYTE   N36  Cn4
 BYTE   W36
 BYTE   N12  Gn3
 BYTE   N12  As3
 BYTE   W12
 BYTE   PEND 
// 049   ----------------------------------------
Label_6_01EFB98A:
 BYTE   N18  Fn3  v100
 BYTE   N18  An3
 BYTE   W18
 BYTE   Dn3
 BYTE   N18  Fn3
 BYTE   W18
 BYTE   N84  Ds3
 BYTE   N84  Gn3
 BYTE   W60
 BYTE   PEND 
// 050   ----------------------------------------
 BYTE   PATT
  POIN2 Label_6_01EFB974
// 051   ----------------------------------------
Label_6_01EFB99F:
 BYTE   N18  Fn3  v100
 BYTE   N18  An3
 BYTE   W18
 BYTE   Cn4
 BYTE   N18  Fn4
 BYTE   W18
 BYTE   N96  As3
 BYTE   N96  Dn4
 BYTE   W60
 BYTE   PEND 
// 052   ----------------------------------------
Label_6_01EFB9AF:
 BYTE   W24
 BYTE   N12  Dn3  v100
 BYTE   N12  Gn3
 BYTE   W12
 BYTE   N48  As3
 BYTE   TIE  Dn4
 BYTE   W12
 BYTE   N36  An3
 BYTE   N36  Cn4
 BYTE   W36
 BYTE   N12  Gn3
 BYTE   N60  As3
 BYTE   W12
 BYTE   PEND 
// 053   ----------------------------------------
Label_6_01EFB9C6:
 BYTE   N18  Fn3  v100
 BYTE   N18  An3
 BYTE   W18
 BYTE   Dn3
 BYTE   N18  Fn3
 BYTE   W18
 BYTE   N12  Ds3
 BYTE   N12  Gn3
 BYTE   W12
 BYTE   PEND 
 BYTE   EOT
 BYTE   Dn4
 BYTE   W48
// 054   ----------------------------------------
Label_6_01EFB9D9:
 BYTE   W24
 BYTE   N12  Dn3  v100
 BYTE   N12  Gn3
 BYTE   W12
 BYTE   Fn3
 BYTE   N12  An3
 BYTE   W12
 BYTE   Gn3
 BYTE   N12  As3
 BYTE   W12
 BYTE   Fn3
 BYTE   N12  An3
 BYTE   W12
 BYTE   Dn3
 BYTE   N12  Fn3
 BYTE   W12
 BYTE   N60  Dn3
 BYTE   N60  Gn3
 BYTE   W12
 BYTE   PEND 
// 055   ----------------------------------------
 BYTE   W48
 BYTE   N72  As3
 BYTE   N72  Dn4
 BYTE   W48
// 056   ----------------------------------------
 BYTE   PATT
  POIN2 Label_6_01EFB974
// 057   ----------------------------------------
 BYTE   PATT
  POIN2 Label_6_01EFB98A
// 058   ----------------------------------------
 BYTE   PATT
  POIN2 Label_6_01EFB974
// 059   ----------------------------------------
 BYTE   PATT
  POIN2 Label_6_01EFB99F
// 060   ----------------------------------------
 BYTE   PATT
  POIN2 Label_6_01EFB9AF
// 061   ----------------------------------------
 BYTE   PATT
  POIN2 Label_6_01EFB9C6
// 062   ----------------------------------------
 BYTE   EOT
 BYTE   Dn4
 BYTE   W48
// 063   ----------------------------------------
 BYTE   PATT
  POIN2 Label_6_01EFB9D9
// 064   ----------------------------------------
 BYTE   W48
 BYTE   N96  As3  v100
 BYTE   N96  Dn4
 BYTE   W48
// 065   ----------------------------------------
 BYTE   W48
 BYTE   N36  An3  v060
 BYTE   N36  Cn4
 BYTE   W36
 BYTE   N12  Gn3
 BYTE   N12  As3
 BYTE   W12
// 066   ----------------------------------------
Label_6_01EFBA35:
 BYTE   N18  Fn3  v060
 BYTE   N18  An3
 BYTE   W18
 BYTE   Dn3
 BYTE   N18  Fn3
 BYTE   W18
 BYTE   N84  Ds3
 BYTE   N84  Gn3
 BYTE   W60
 BYTE   PEND 
// 067   ----------------------------------------
Label_6_01EFBA45:
 BYTE   W24
 BYTE   N12  Dn3  v060
 BYTE   N12  Gn3
 BYTE   W12
 BYTE   As3
 BYTE   N12  Dn4
 BYTE   W12
 BYTE   N36  An3
 BYTE   N36  Cn4
 BYTE   W36
 BYTE   N12  Gn3
 BYTE   N12  As3
 BYTE   W12
 BYTE   PEND 
// 068   ----------------------------------------
Label_6_01EFBA5B:
 BYTE   N18  Fn3  v060
 BYTE   N18  An3
 BYTE   W18
 BYTE   Cn4
 BYTE   N18  Fn4
 BYTE   W18
 BYTE   N96  As3
 BYTE   N96  Dn4
 BYTE   W60
 BYTE   PEND 
// 069   ----------------------------------------
Label_6_01EFBA6B:
 BYTE   W24
 BYTE   N12  Dn3  v060
 BYTE   N12  Gn3
 BYTE   W12
 BYTE   N48  As3
 BYTE   TIE  Dn4
 BYTE   W12
 BYTE   N36  An3
 BYTE   N36  Cn4
 BYTE   W36
 BYTE   N12  Gn3
 BYTE   N60  As3
 BYTE   W12
 BYTE   PEND 
// 070   ----------------------------------------
Label_6_01EFBA82:
 BYTE   N18  Fn3  v060
 BYTE   N18  An3
 BYTE   W18
 BYTE   Dn3
 BYTE   N18  Fn3
 BYTE   W18
 BYTE   N12  Ds3
 BYTE   N12  Gn3
 BYTE   W12
 BYTE   PEND 
 BYTE   EOT
 BYTE   Dn4
 BYTE   W48
// 071   ----------------------------------------
Label_6_01EFBA95:
 BYTE   W24
 BYTE   N12  Dn3  v060
 BYTE   N12  Gn3
 BYTE   W12
 BYTE   Fn3
 BYTE   N12  An3
 BYTE   W12
 BYTE   Gn3
 BYTE   N12  As3
 BYTE   W12
 BYTE   Fn3
 BYTE   N12  An3
 BYTE   W12
 BYTE   Dn3
 BYTE   N12  Fn3
 BYTE   W12
 BYTE   N60  Dn3
 BYTE   N60  Gn3
 BYTE   W12
 BYTE   PEND 
// 072   ----------------------------------------
 BYTE   W48
 BYTE   N72  As3
 BYTE   N72  Dn4
 BYTE   W48
// 073   ----------------------------------------
 BYTE   PATT
  POIN2 Label_6_01EFBA45
// 074   ----------------------------------------
 BYTE   PATT
  POIN2 Label_6_01EFBA35
// 075   ----------------------------------------
 BYTE   PATT
  POIN2 Label_6_01EFBA45
// 076   ----------------------------------------
 BYTE   PATT
  POIN2 Label_6_01EFBA5B
// 077   ----------------------------------------
 BYTE   PATT
  POIN2 Label_6_01EFBA6B
// 078   ----------------------------------------
 BYTE   PATT
  POIN2 Label_6_01EFBA82
// 079   ----------------------------------------
 BYTE   EOT
 BYTE   Dn4
 BYTE   W48
// 080   ----------------------------------------
 BYTE   PATT
  POIN2 Label_6_01EFBA95
// 081   ----------------------------------------
 BYTE   W48
 BYTE   N96  As3  v060
 BYTE   N96  Dn4
 BYTE   W48
// 082   ----------------------------------------
 BYTE   W96
// 083   ----------------------------------------
 BYTE   W96
// 084   ----------------------------------------
 BYTE   W96
// 085   ----------------------------------------
 BYTE   W96
// 086   ----------------------------------------
 BYTE   W96
// 087   ----------------------------------------
 BYTE   W96
// 088   ----------------------------------------
 BYTE   W96
// 089   ----------------------------------------
 BYTE   W96
// 090   ----------------------------------------
 BYTE   W24
 BYTE   GoTo
  POIN2 Label_6_01EFB8AC
 BYTE   FINE

//**************** Track 8 (Midi-Chn.7) ****************//

SeptetteForTheDeadPrincess_008:
// 000   ----------------------------------------
 BYTE   KEYSH   SeptetteForTheDeadPrincess_key+0
 BYTE   VOL   42*SeptetteForTheDeadPrincess_mvl/mxv
 BYTE   PAN   c_v+0
 BYTE   VOICE   52
Label_7_01EFBB00:
 BYTE   N72  Fs3  v080
 BYTE   W72
 BYTE   N24  Gn3
 BYTE   W24
 BYTE   PEND 
// 001   ----------------------------------------
 BYTE   PATT
  POIN2 Label_7_01EFBB00
// 002   ----------------------------------------
 BYTE   PATT
  POIN2 Label_7_01EFBB00
// 003   ----------------------------------------
 BYTE   PATT
  POIN2 Label_7_01EFBB00
// 004   ----------------------------------------
 BYTE   N96  Dn3  v080
 BYTE   W96
// 005   ----------------------------------------
 BYTE   En3
 BYTE   W96
// 006   ----------------------------------------
 BYTE   PATT
  POIN2 Label_7_01EFBB00
// 007   ----------------------------------------
 BYTE   N48  Fs3  v080
 BYTE   W96
// 008   ----------------------------------------
 BYTE   W96
// 009   ----------------------------------------
 BYTE   W96
// 010   ----------------------------------------
 BYTE   W96
// 011   ----------------------------------------
 BYTE   W96
// 012   ----------------------------------------
 BYTE   W96
// 013   ----------------------------------------
 BYTE   W96
// 014   ----------------------------------------
 BYTE   W96
// 015   ----------------------------------------
 BYTE   W96
// 016   ----------------------------------------
 BYTE   W96
// 017   ----------------------------------------
 BYTE   W96
// 018   ----------------------------------------
 BYTE   W96
// 019   ----------------------------------------
 BYTE   W96
// 020   ----------------------------------------
 BYTE   W96
// 021   ----------------------------------------
 BYTE   W96
// 022   ----------------------------------------
 BYTE   W96
// 023   ----------------------------------------
 BYTE   W48
Label_7_01EFBB36:
 BYTE   W48
// 024   ----------------------------------------
Label_7_01EFBB37:
 BYTE   N48  Cn3  v080
 BYTE   N48  Gn3
 BYTE   W48
 BYTE   As2
 BYTE   N48  Fn3
 BYTE   W48
 BYTE   PEND 
// 025   ----------------------------------------
 BYTE   N96  Gs2
 BYTE   N96  Ds3
 BYTE   W96
// 026   ----------------------------------------
 BYTE   PATT
  POIN2 Label_7_01EFBB37
// 027   ----------------------------------------
 BYTE   N96  An2  v080
 BYTE   N96  Gn3
 BYTE   W96
// 028   ----------------------------------------
 BYTE   As2
 BYTE   N96  Fn3
 BYTE   W96
// 029   ----------------------------------------
 BYTE   Gs2
 BYTE   N96  Ds3
 BYTE   W96
// 030   ----------------------------------------
Label_7_01EFBB5A:
 BYTE   N48  Fn2  v080
 BYTE   N48  As2
 BYTE   W48
 BYTE   Gn2
 BYTE   N48  Cn3
 BYTE   W48
 BYTE   PEND 
// 031   ----------------------------------------
Label_7_01EFBB65:
 BYTE   N48  Gs2  v080
 BYTE   N48  Cn3
 BYTE   W48
 BYTE   As2
 BYTE   N48  Dn3
 BYTE   W48
 BYTE   PEND 
// 032   ----------------------------------------
 BYTE   PATT
  POIN2 Label_7_01EFBB37
// 033   ----------------------------------------
 BYTE   N96  Gs2  v080
 BYTE   N96  Ds3
 BYTE   W96
// 034   ----------------------------------------
 BYTE   PATT
  POIN2 Label_7_01EFBB37
// 035   ----------------------------------------
 BYTE   N96  An2  v080
 BYTE   N96  Gn3
 BYTE   W96
// 036   ----------------------------------------
 BYTE   As2
 BYTE   N96  Fn3
 BYTE   W96
// 037   ----------------------------------------
 BYTE   Gs2
 BYTE   N96  Ds3
 BYTE   W96
// 038   ----------------------------------------
 BYTE   PATT
  POIN2 Label_7_01EFBB5A
// 039   ----------------------------------------
 BYTE   PATT
  POIN2 Label_7_01EFBB65
// 040   ----------------------------------------
 BYTE   N96  Bn1  v100
 BYTE   W96
// 041   ----------------------------------------
 BYTE   Cs2
 BYTE   W96
// 042   ----------------------------------------
 BYTE   Dn2
 BYTE   W96
// 043   ----------------------------------------
 BYTE   Ds2
 BYTE   W96
// 044   ----------------------------------------
 BYTE   Bn1
 BYTE   N96  Fs2
 BYTE   W96
// 045   ----------------------------------------
 BYTE   Cs2
 BYTE   N96  Gs2
 BYTE   W96
// 046   ----------------------------------------
 BYTE   Dn2
 BYTE   N96  Gs2
 BYTE   W96
// 047   ----------------------------------------
 BYTE   N24  Ds2
 BYTE   N24  As2
 BYTE   W36
 BYTE   Ds2
 BYTE   N24  As2
 BYTE   W36
 BYTE   N12  Ds2
 BYTE   N12  As2
 BYTE   W12
 BYTE   Ds2
 BYTE   N12  As2
 BYTE   W12
// 048   ----------------------------------------
 BYTE   W48
 BYTE   N96  Ds2  v080
 BYTE   N96  As2
 BYTE   W48
// 049   ----------------------------------------
Label_7_01EFBBC7:
 BYTE   W48
 BYTE   N72  Ds2  v080
 BYTE   N72  As2
 BYTE   W48
 BYTE   PEND 
// 050   ----------------------------------------
Label_7_01EFBBCF:
 BYTE   W24
 BYTE   N24  Fn2  v080
 BYTE   N24  Cn3
 BYTE   W24
 BYTE   N96  Gn2
 BYTE   N96  Dn3
 BYTE   W48
 BYTE   PEND 
// 051   ----------------------------------------
Label_7_01EFBBDC:
 BYTE   W48
 BYTE   N96  Gn2  v080
 BYTE   N96  Dn3
 BYTE   W48
 BYTE   PEND 
// 052   ----------------------------------------
Label_7_01EFBBE4:
 BYTE   W48
 BYTE   N96  Fn2  v080
 BYTE   N96  Cn3
 BYTE   W48
 BYTE   PEND 
// 053   ----------------------------------------
 BYTE   PATT
  POIN2 Label_7_01EFBBE4
// 054   ----------------------------------------
Label_7_01EFBBF1:
 BYTE   W48
 BYTE   N48  Ds2  v080
 BYTE   N48  As2
 BYTE   W48
 BYTE   PEND 
// 055   ----------------------------------------
Label_7_01EFBBF9:
 BYTE   N48  Fn2  v080
 BYTE   N48  Cn3
 BYTE   W48
 BYTE   N72  Gn2
 BYTE   N72  Dn3
 BYTE   W48
 BYTE   PEND 
// 056   ----------------------------------------
 BYTE   W24
 BYTE   N24  Fn2
 BYTE   N24  Cn3
 BYTE   W24
 BYTE   N96  Ds2
 BYTE   N96  As2
 BYTE   W48
// 057   ----------------------------------------
 BYTE   PATT
  POIN2 Label_7_01EFBBC7
// 058   ----------------------------------------
 BYTE   PATT
  POIN2 Label_7_01EFBBCF
// 059   ----------------------------------------
 BYTE   PATT
  POIN2 Label_7_01EFBBDC
// 060   ----------------------------------------
 BYTE   PATT
  POIN2 Label_7_01EFBBE4
// 061   ----------------------------------------
 BYTE   PATT
  POIN2 Label_7_01EFBBE4
// 062   ----------------------------------------
 BYTE   PATT
  POIN2 Label_7_01EFBBF1
// 063   ----------------------------------------
 BYTE   PATT
  POIN2 Label_7_01EFBBF9
// 064   ----------------------------------------
 BYTE   W24
 BYTE   N24  Fn2  v080
 BYTE   N24  Cn3
 BYTE   W24
 BYTE   N96  Ds2  v060
 BYTE   N96  As2
 BYTE   W48
// 065   ----------------------------------------
Label_7_01EFBC40:
 BYTE   W48
 BYTE   N72  Ds2  v060
 BYTE   N72  As2
 BYTE   W48
 BYTE   PEND 
// 066   ----------------------------------------
Label_7_01EFBC48:
 BYTE   W24
 BYTE   N24  Fn2  v060
 BYTE   N24  Cn3
 BYTE   W24
 BYTE   N96  Gn2
 BYTE   N96  Dn3
 BYTE   W48
 BYTE   PEND 
// 067   ----------------------------------------
Label_7_01EFBC55:
 BYTE   W48
 BYTE   N96  Gn2  v060
 BYTE   N96  Dn3
 BYTE   W48
 BYTE   PEND 
// 068   ----------------------------------------
Label_7_01EFBC5D:
 BYTE   W48
 BYTE   N96  Fn2  v060
 BYTE   N96  Cn3
 BYTE   W48
 BYTE   PEND 
// 069   ----------------------------------------
 BYTE   PATT
  POIN2 Label_7_01EFBC5D
// 070   ----------------------------------------
Label_7_01EFBC6A:
 BYTE   W48
 BYTE   N48  Ds2  v060
 BYTE   N48  As2
 BYTE   W48
 BYTE   PEND 
// 071   ----------------------------------------
Label_7_01EFBC72:
 BYTE   N48  Fn2  v060
 BYTE   N48  Cn3
 BYTE   W48
 BYTE   N72  Gn2
 BYTE   N72  Dn3
 BYTE   W48
 BYTE   PEND 
// 072   ----------------------------------------
 BYTE   W24
 BYTE   N24  Fn2
 BYTE   N24  Cn3
 BYTE   W24
 BYTE   N96  Ds2
 BYTE   N96  As2
 BYTE   W48
// 073   ----------------------------------------
 BYTE   PATT
  POIN2 Label_7_01EFBC40
// 074   ----------------------------------------
 BYTE   PATT
  POIN2 Label_7_01EFBC48
// 075   ----------------------------------------
 BYTE   PATT
  POIN2 Label_7_01EFBC55
// 076   ----------------------------------------
 BYTE   PATT
  POIN2 Label_7_01EFBC5D
// 077   ----------------------------------------
 BYTE   PATT
  POIN2 Label_7_01EFBC5D
// 078   ----------------------------------------
 BYTE   PATT
  POIN2 Label_7_01EFBC6A
// 079   ----------------------------------------
 BYTE   PATT
  POIN2 Label_7_01EFBC72
// 080   ----------------------------------------
 BYTE   W24
 BYTE   N24  Fn2  v060
 BYTE   N24  Cn3
 BYTE   W72
// 081   ----------------------------------------
 BYTE   W96
// 082   ----------------------------------------
 BYTE   W96
// 083   ----------------------------------------
 BYTE   W96
// 084   ----------------------------------------
 BYTE   W96
// 085   ----------------------------------------
 BYTE   W96
// 086   ----------------------------------------
 BYTE   W96
// 087   ----------------------------------------
 BYTE   W96
// 088   ----------------------------------------
 BYTE   W24
 BYTE   GoTo
  POIN2 Label_7_01EFBB36
 BYTE   FINE

//**************** Track 9 (Midi-Chn.8) ****************//

SeptetteForTheDeadPrincess_009:
// 000   ----------------------------------------
 BYTE   KEYSH   SeptetteForTheDeadPrincess_key+0
 BYTE   VOL   42*SeptetteForTheDeadPrincess_mvl/mxv
 BYTE   PAN   c_v+0
 BYTE   VOICE   124
 BYTE   N06  Dn1  v080
 BYTE   W06
 BYTE   Gs1
 BYTE   W06
 BYTE   Dn1
 BYTE   W06
 BYTE   Gs1
 BYTE   W06
 BYTE   Dn1
 BYTE   W06
 BYTE   Gs1
 BYTE   W06
 BYTE   Dn1
 BYTE   W06
 BYTE   Gs1
 BYTE   W06
 BYTE   Dn1
 BYTE   W06
 BYTE   Gs1
 BYTE   W06
 BYTE   Dn1
 BYTE   W06
 BYTE   Gs1
 BYTE   W06
 BYTE   Dn1
 BYTE   W06
 BYTE   Gs1
 BYTE   W06
 BYTE   Dn1
 BYTE   W06
 BYTE   Gs1
 BYTE   W06
// 001   ----------------------------------------
 BYTE   N12  Dn1
 BYTE   W12
 BYTE   As1
 BYTE   W12
 BYTE   N06  Dn1
 BYTE   W06
 BYTE   Gs1
 BYTE   W06
 BYTE   Dn1
 BYTE   W06
 BYTE   Gs1
 BYTE   W06
 BYTE   Dn1
 BYTE   W06
 BYTE   Gs1
 BYTE   W06
 BYTE   Dn1
 BYTE   W06
 BYTE   Gs1
 BYTE   W06
 BYTE   As1
 BYTE   N06  Gn2
 BYTE   W12
 BYTE   As1
 BYTE   N06  Gn2
 BYTE   W12
// 002   ----------------------------------------
Label_8_01EFBD10:
 BYTE   N06  Dn1  v080
 BYTE   W12
 BYTE   N12  As1
 BYTE   W12
 BYTE   N06  Dn1
 BYTE   W06
 BYTE   Gs1
 BYTE   W06
 BYTE   Dn1
 BYTE   W06
 BYTE   Gs1
 BYTE   W06
 BYTE   Dn1
 BYTE   W06
 BYTE   Gs1
 BYTE   W06
 BYTE   Dn1
 BYTE   W06
 BYTE   Gs1
 BYTE   W06
 BYTE   Dn1
 BYTE   W06
 BYTE   Gs1
 BYTE   W06
 BYTE   Dn1
 BYTE   W06
 BYTE   Gs1
 BYTE   W06
 BYTE   PEND 
// 003   ----------------------------------------
 BYTE   N12  Dn1
 BYTE   W12
 BYTE   As1
 BYTE   W12
 BYTE   N06  Dn1
 BYTE   W06
 BYTE   Gs1
 BYTE   W06
 BYTE   Dn1
 BYTE   W06
 BYTE   Gs1
 BYTE   W06
 BYTE   Dn1
 BYTE   W06
 BYTE   Gs1
 BYTE   W06
 BYTE   Dn1
 BYTE   N06  Cn3  v100
 BYTE   W06
 BYTE   Gs1  v080
 BYTE   N06  Cn3  v100
 BYTE   W06
 BYTE   As1  v080
 BYTE   N06  Gn2
 BYTE   N06  Cs3  v100
 BYTE   W12
 BYTE   As1  v080
 BYTE   N06  Gn2
 BYTE   N06  Cn3  v100
 BYTE   W12
// 004   ----------------------------------------
 BYTE   Dn1  v080
 BYTE   N06  Cn3  v100
 BYTE   W12
 BYTE   N12  As1  v080
 BYTE   W12
 BYTE   N06  Dn1
 BYTE   W06
 BYTE   Gs1
 BYTE   W06
 BYTE   Dn1
 BYTE   N06  Cn3  v100
 BYTE   W06
 BYTE   Gs1  v080
 BYTE   W06
 BYTE   Dn1
 BYTE   W06
 BYTE   Gs1
 BYTE   W06
 BYTE   Dn1
 BYTE   W06
 BYTE   Gs1
 BYTE   W06
 BYTE   Dn1
 BYTE   N06  Cn3  v100
 BYTE   W06
 BYTE   Gs1  v080
 BYTE   W06
 BYTE   Dn1
 BYTE   W06
 BYTE   Gs1
 BYTE   W06
// 005   ----------------------------------------
 BYTE   N12  Dn1
 BYTE   W12
 BYTE   N06  As1
 BYTE   N06  Cn3  v100
 BYTE   W12
 BYTE   Dn1  v080
 BYTE   N06  Cn3  v100
 BYTE   W06
 BYTE   Gs1  v080
 BYTE   W06
 BYTE   Dn1
 BYTE   N06  Cn3  v100
 BYTE   W06
 BYTE   Gs1  v080
 BYTE   W06
 BYTE   Dn1
 BYTE   W06
 BYTE   Gs1
 BYTE   W06
 BYTE   Dn1
 BYTE   W06
 BYTE   Gs1
 BYTE   W06
 BYTE   As1
 BYTE   N06  Gn2
 BYTE   N06  Cn3  v100
 BYTE   W06
 BYTE   N06
 BYTE   W06
 BYTE   As1  v080
 BYTE   N06  Gn2
 BYTE   N06  Cn3  v100
 BYTE   W12
// 006   ----------------------------------------
 BYTE   PATT
  POIN2 Label_8_01EFBD10
// 007   ----------------------------------------
 BYTE   N06  Dn1  v080
 BYTE   W12
 BYTE   N12  As1
 BYTE   W12
 BYTE   N06  Dn1
 BYTE   W06
 BYTE   Gs1
 BYTE   W06
 BYTE   Dn1
 BYTE   W06
 BYTE   Gs1
 BYTE   W06
 BYTE   N12  Dn1
 BYTE   W12
 BYTE   N06  As1
 BYTE   W06
 BYTE   Cn1
 BYTE   N06  Cn3  v100
 BYTE   W06
 BYTE   Cn1  v080
 BYTE   N06  Dn1
 BYTE   N06  Cn3  v100
 BYTE   W06
 BYTE   Gs1  v080
 BYTE   N06  Cn3  v100
 BYTE   W06
 BYTE   Dn1  v080
 BYTE   W06
 BYTE   Cn1
 BYTE   N06  Gs1
 BYTE   N06  Cn3  v100
 BYTE   W06
// 008   ----------------------------------------
Label_8_01EFBDF4:
 BYTE   N06  Cn1  v080
 BYTE   N06  Cn3  v100
 BYTE   W18
 BYTE   N06
 BYTE   W06
 BYTE   Cn1  v080
 BYTE   W06
 BYTE   N12  Cn3  v100
 BYTE   W12
 BYTE   N06
 BYTE   W06
 BYTE   Cn1  v080
 BYTE   N06  Dn1
 BYTE   N06  Cn3  v100
 BYTE   W06
 BYTE   Dn1  v080
 BYTE   W06
 BYTE   As1
 BYTE   W06
 BYTE   Cn3  v100
 BYTE   W06
 BYTE   Cn1  v080
 BYTE   N06  Dn1
 BYTE   W06
 BYTE   N06
 BYTE   N06  Cn3  v100
 BYTE   W06
 BYTE   As1  v080
 BYTE   W06
 BYTE   Cn3  v100
 BYTE   W06
 BYTE   PEND 
// 009   ----------------------------------------
Label_8_01EFBE27:
 BYTE   N06  Cn1  v080
 BYTE   N06  Cn3  v100
 BYTE   W18
 BYTE   Cn1  v080
 BYTE   N06  Cn3  v100
 BYTE   W06
 BYTE   Cn1  v080
 BYTE   W06
 BYTE   N12  Cn3  v100
 BYTE   W12
 BYTE   N06
 BYTE   W06
 BYTE   Cn1  v080
 BYTE   N06  Dn1
 BYTE   N06  Cn3  v100
 BYTE   W06
 BYTE   Dn1  v080
 BYTE   W06
 BYTE   As1
 BYTE   W06
 BYTE   Cn1
 BYTE   N06  Cn3  v100
 BYTE   W06
 BYTE   Cn1  v080
 BYTE   N06  Dn1
 BYTE   W06
 BYTE   N06
 BYTE   N06  Cn3  v100
 BYTE   W06
 BYTE   As1  v080
 BYTE   W06
 BYTE   Cn3  v100
 BYTE   W06
 BYTE   PEND 
// 010   ----------------------------------------
 BYTE   PATT
  POIN2 Label_8_01EFBDF4
// 011   ----------------------------------------
 BYTE   PATT
  POIN2 Label_8_01EFBE27
// 012   ----------------------------------------
 BYTE   PATT
  POIN2 Label_8_01EFBDF4
// 013   ----------------------------------------
 BYTE   N06  Cn1  v080
 BYTE   N06  Cn3  v100
 BYTE   W18
 BYTE   Cn1  v080
 BYTE   N06  Cn3  v100
 BYTE   W06
 BYTE   Cn1  v080
 BYTE   W06
 BYTE   N12  Cn3  v100
 BYTE   W12
 BYTE   N06
 BYTE   W06
 BYTE   Cn1  v080
 BYTE   N06  Dn1
 BYTE   N06  Cn3  v100
 BYTE   W06
 BYTE   Dn1  v080
 BYTE   W06
 BYTE   Dn1
 BYTE   N06  As1
 BYTE   W06
 BYTE   Cn1
 BYTE   N06  Dn1
 BYTE   N06  Cn3  v100
 BYTE   W06
 BYTE   Cn1  v080
 BYTE   N06  Dn1
 BYTE   W06
 BYTE   N06
 BYTE   N06  Cn3  v100
 BYTE   W06
 BYTE   Dn1  v080
 BYTE   N06  As1
 BYTE   W06
 BYTE   Cn3  v100
 BYTE   W06
// 014   ----------------------------------------
 BYTE   Cn1  v080
 BYTE   N06  Cn3  v100
 BYTE   W18
 BYTE   Cn1  v080
 BYTE   N06  Cn3  v100
 BYTE   W12
 BYTE   N06
 BYTE   W12
 BYTE   N06
 BYTE   W06
 BYTE   Cn1  v080
 BYTE   N06  Dn1
 BYTE   N06  Cn3  v100
 BYTE   W06
 BYTE   Dn1  v080
 BYTE   W06
 BYTE   As1
 BYTE   W06
 BYTE   Cn3  v100
 BYTE   W06
 BYTE   Dn1  v080
 BYTE   W06
 BYTE   N06
 BYTE   N06  Cn3  v100
 BYTE   W06
 BYTE   As1  v080
 BYTE   W06
 BYTE   Cn3  v100
 BYTE   W06
// 015   ----------------------------------------
 BYTE   Cn1  v080
 BYTE   N06  Cn3  v100
 BYTE   W18
 BYTE   Cn1  v080
 BYTE   N06  Cn3  v100
 BYTE   W12
 BYTE   N06
 BYTE   W12
 BYTE   N06
 BYTE   W06
 BYTE   Cn1  v080
 BYTE   N06  Dn1
 BYTE   N06  Dn1
 BYTE   N06  Cn3  v100
 BYTE   W06
 BYTE   Dn1  v080
 BYTE   N06  Dn1
 BYTE   W06
 BYTE   Dn1
 BYTE   N06  As1
 BYTE   W06
 BYTE   Dn1
 BYTE   N06  Cn3  v100
 BYTE   W06
 BYTE   Dn1  v080
 BYTE   N06  Dn1
 BYTE   W06
 BYTE   N06
 BYTE   N06  Cn3  v100
 BYTE   W06
 BYTE   Dn1  v080
 BYTE   N06  As1
 BYTE   W06
 BYTE   Cn3  v100
 BYTE   W06
// 016   ----------------------------------------
 BYTE   Cn1  v080
 BYTE   N06  Dn1
 BYTE   N06  Cn3  v100
 BYTE   W12
 BYTE   As1  v080
 BYTE   W06
 BYTE   Cn1
 BYTE   W06
 BYTE   Dn1
 BYTE   W06
 BYTE   N06
 BYTE   W06
 BYTE   Cn1
 BYTE   W06
 BYTE   As1
 BYTE   W06
 BYTE   Cn1
 BYTE   N06  Dn1
 BYTE   W12
 BYTE   As1
 BYTE   W06
 BYTE   Cn1
 BYTE   W06
 BYTE   N12  Dn1
 BYTE   W12
 BYTE   N06  Cn1
 BYTE   N06  As1
 BYTE   W12
// 017   ----------------------------------------
Label_8_01EFBF3A:
 BYTE   N06  Cn1  v080
 BYTE   N06  Dn1
 BYTE   W12
 BYTE   As1
 BYTE   W06
 BYTE   Cn1
 BYTE   W06
 BYTE   Dn1
 BYTE   W06
 BYTE   N06
 BYTE   W06
 BYTE   Cn1
 BYTE   W06
 BYTE   As1
 BYTE   W06
 BYTE   Cn1
 BYTE   N06  Dn1
 BYTE   W12
 BYTE   As1
 BYTE   W06
 BYTE   Cn1
 BYTE   W06
 BYTE   N12  Dn1
 BYTE   W12
 BYTE   N06  Cn1
 BYTE   N06  As1
 BYTE   W12
 BYTE   PEND 
// 018   ----------------------------------------
 BYTE   PATT
  POIN2 Label_8_01EFBF3A
// 019   ----------------------------------------
 BYTE   N06  Cn1  v080
 BYTE   N06  Dn1
 BYTE   W12
 BYTE   As1
 BYTE   W06
 BYTE   Cn1
 BYTE   W06
 BYTE   Dn1
 BYTE   W06
 BYTE   N06
 BYTE   W06
 BYTE   Cn1
 BYTE   W06
 BYTE   As1
 BYTE   W06
 BYTE   Cn1
 BYTE   N06  Dn1
 BYTE   W12
 BYTE   Dn1
 BYTE   N06  As1
 BYTE   W06
 BYTE   Cn1
 BYTE   W06
 BYTE   Dn1
 BYTE   N06  Dn1
 BYTE   W06
 BYTE   Dn1
 BYTE   W06
 BYTE   Cn1
 BYTE   N06  As1
 BYTE   W06
 BYTE   Dn1
 BYTE   W06
// 020   ----------------------------------------
Label_8_01EFBF8A:
 BYTE   N06  Cn1  v080
 BYTE   N06  Dn1
 BYTE   W12
 BYTE   As1
 BYTE   W06
 BYTE   Cn1
 BYTE   W06
 BYTE   Dn1
 BYTE   N06  Dn1
 BYTE   W06
 BYTE   N06
 BYTE   W06
 BYTE   Cn1
 BYTE   W06
 BYTE   As1
 BYTE   W06
 BYTE   Cn1
 BYTE   N06  Dn1
 BYTE   W12
 BYTE   As1
 BYTE   W06
 BYTE   Cn1
 BYTE   W06
 BYTE   Dn1
 BYTE   N06  Dn1
 BYTE   W12
 BYTE   Cn1
 BYTE   N06  As1
 BYTE   W12
 BYTE   PEND 
// 021   ----------------------------------------
 BYTE   PATT
  POIN2 Label_8_01EFBF8A
// 022   ----------------------------------------
 BYTE   PATT
  POIN2 Label_8_01EFBF8A
// 023   ----------------------------------------
 BYTE   N06  Cn1  v080
 BYTE   N06  Dn1
 BYTE   N06  As1
 BYTE   N06  Gn2
 BYTE   W48
Label_8_01EFBFC3:
 BYTE   W12
 BYTE   N18  Cn1  v080
 BYTE   W18
 BYTE   N06
 BYTE   W06
 BYTE   Dn1
 BYTE   W06
 BYTE   N06
 BYTE   W06
// 024   ----------------------------------------
Label_8_01EFBFCE:
 BYTE   N06  Cn1  v080
 BYTE   N06  Cn3  v100
 BYTE   W18
 BYTE   N06
 BYTE   W06
 BYTE   Cn1  v080
 BYTE   N06  Dn1
 BYTE   W06
 BYTE   N12  Cn3  v100
 BYTE   W12
 BYTE   N06
 BYTE   W06
 BYTE   Cn1  v080
 BYTE   N06  Dn1
 BYTE   N06  Cn3  v100
 BYTE   W06
 BYTE   Dn1  v080
 BYTE   W06
 BYTE   As1
 BYTE   W06
 BYTE   Cn3  v100
 BYTE   W06
 BYTE   Cn1  v080
 BYTE   N06  Dn1
 BYTE   N06  Dn1
 BYTE   W06
 BYTE   N06
 BYTE   N06  Cn3  v100
 BYTE   W06
 BYTE   As1  v080
 BYTE   W06
 BYTE   Cn3  v100
 BYTE   W06
 BYTE   PEND 
// 025   ----------------------------------------
Label_8_01EFC005:
 BYTE   N06  Cn1  v080
 BYTE   N06  Cn3  v100
 BYTE   W18
 BYTE   Cn1  v080
 BYTE   N06  Cn3  v100
 BYTE   W06
 BYTE   Cn1  v080
 BYTE   N06  Dn1
 BYTE   W06
 BYTE   N12  Cn3  v100
 BYTE   W12
 BYTE   N06
 BYTE   W06
 BYTE   Cn1  v080
 BYTE   N06  Dn1
 BYTE   N06  Cn3  v100
 BYTE   W06
 BYTE   Dn1  v080
 BYTE   W06
 BYTE   As1
 BYTE   W06
 BYTE   Cn1
 BYTE   N06  Cn3  v100
 BYTE   W06
 BYTE   Cn1  v080
 BYTE   N06  Dn1
 BYTE   N06  Dn1
 BYTE   W06
 BYTE   N06
 BYTE   N06  Cn3  v100
 BYTE   W06
 BYTE   As1  v080
 BYTE   W06
 BYTE   Cn3  v100
 BYTE   W06
 BYTE   PEND 
// 026   ----------------------------------------
 BYTE   PATT
  POIN2 Label_8_01EFBFCE
// 027   ----------------------------------------
 BYTE   PATT
  POIN2 Label_8_01EFC005
// 028   ----------------------------------------
 BYTE   PATT
  POIN2 Label_8_01EFBFCE
// 029   ----------------------------------------
 BYTE   PATT
  POIN2 Label_8_01EFC005
// 030   ----------------------------------------
 BYTE   PATT
  POIN2 Label_8_01EFBFCE
// 031   ----------------------------------------
 BYTE   PATT
  POIN2 Label_8_01EFC005
// 032   ----------------------------------------
 BYTE   PATT
  POIN2 Label_8_01EFBFCE
// 033   ----------------------------------------
 BYTE   PATT
  POIN2 Label_8_01EFC005
// 034   ----------------------------------------
 BYTE   PATT
  POIN2 Label_8_01EFBFCE
// 035   ----------------------------------------
 BYTE   PATT
  POIN2 Label_8_01EFC005
// 036   ----------------------------------------
 BYTE   PATT
  POIN2 Label_8_01EFBFCE
// 037   ----------------------------------------
 BYTE   PATT
  POIN2 Label_8_01EFC005
// 038   ----------------------------------------
 BYTE   PATT
  POIN2 Label_8_01EFBFCE
// 039   ----------------------------------------
 BYTE   PATT
  POIN2 Label_8_01EFC005
// 040   ----------------------------------------
 BYTE   N06  Cn3  v100
 BYTE   W96
// 041   ----------------------------------------
 BYTE   W96
// 042   ----------------------------------------
 BYTE   W96
// 043   ----------------------------------------
 BYTE   W72
 BYTE   Dn1  v080
 BYTE   W06
 BYTE   N06
 BYTE   W12
 BYTE   N06
 BYTE   W06
// 044   ----------------------------------------
 BYTE   Cn1
 BYTE   N06  Dn1
 BYTE   W12
 BYTE   Cn1
 BYTE   N06  Dn1
 BYTE   W12
 BYTE   Cn1
 BYTE   N06  Dn1
 BYTE   N06  Dn1
 BYTE   W06
 BYTE   Dn1
 BYTE   N06  Dn1
 BYTE   W06
 BYTE   Cn1
 BYTE   N06  Dn1
 BYTE   N06  Dn1
 BYTE   W12
 BYTE   Cn1
 BYTE   N06  Dn1
 BYTE   W12
 BYTE   Cn1
 BYTE   N06  Dn1
 BYTE   W06
 BYTE   Dn1
 BYTE   W06
 BYTE   Cn1
 BYTE   N06  Dn1
 BYTE   W06
 BYTE   N06
 BYTE   W06
 BYTE   Cn1
 BYTE   N06  Dn1
 BYTE   N06  Dn1
 BYTE   W06
 BYTE   N06
 BYTE   W06
// 045   ----------------------------------------
Label_8_01EFC0C6:
 BYTE   N06  Cn1  v080
 BYTE   N06  Dn1
 BYTE   W12
 BYTE   Cn1
 BYTE   N06  Dn1
 BYTE   N06  Dn1
 BYTE   W06
 BYTE   Dn1
 BYTE   W06
 BYTE   Cn1
 BYTE   N06  Dn1
 BYTE   N06  Dn1
 BYTE   W06
 BYTE   Dn1
 BYTE   N06  Dn1
 BYTE   W06
 BYTE   Cn1
 BYTE   N06  Dn1
 BYTE   N06  Dn1
 BYTE   W12
 BYTE   Cn1
 BYTE   N06  Dn1
 BYTE   N06  Dn1
 BYTE   W12
 BYTE   Cn1
 BYTE   N06  Dn1
 BYTE   N06  Dn1
 BYTE   W12
 BYTE   Cn1
 BYTE   N06  Dn1
 BYTE   N06  Dn1
 BYTE   W06
 BYTE   Dn1
 BYTE   N06  Dn1
 BYTE   W06
 BYTE   Cn1
 BYTE   N06  Dn1
 BYTE   N06  Dn1
 BYTE   W06
 BYTE   N06
 BYTE   W06
 BYTE   PEND 
// 046   ----------------------------------------
 BYTE   PATT
  POIN2 Label_8_01EFC0C6
// 047   ----------------------------------------
 BYTE   N06  Cn1  v080
 BYTE   N06  Dn1
 BYTE   N06  Dn1
 BYTE   W12
 BYTE   Cn1
 BYTE   N06  Dn1
 BYTE   W12
 BYTE   Cn1
 BYTE   N06  Dn1
 BYTE   W06
 BYTE   N06
 BYTE   W06
 BYTE   Cn1
 BYTE   N06  Dn1
 BYTE   W12
 BYTE   Cn1
 BYTE   N06  Dn1
 BYTE   W12
 BYTE   Cn1
 BYTE   N06  Dn1
 BYTE   W12
 BYTE   Cn1
 BYTE   N06  Dn1
 BYTE   W06
 BYTE   N06
 BYTE   W06
 BYTE   Cn1
 BYTE   N06  Dn1
 BYTE   W06
 BYTE   N06
 BYTE   W06
// 048   ----------------------------------------
 BYTE   N48  Cn1
 BYTE   W48
 BYTE   N06
 BYTE   N06  Dn1
 BYTE   W06
 BYTE   N06
 BYTE   W06
 BYTE   Dn1
 BYTE   W06
 BYTE   Dn1
 BYTE   W06
 BYTE   As1
 BYTE   W06
 BYTE   Cn1
 BYTE   W06
 BYTE   Dn1
 BYTE   N06  Fs1
 BYTE   W06
 BYTE   N06
 BYTE   W06
// 049   ----------------------------------------
Label_8_01EFC14F:
 BYTE   N06  Cn1  v080
 BYTE   W06
 BYTE   Dn1
 BYTE   W06
 BYTE   Dn1
 BYTE   N06  Dn1
 BYTE   W12
 BYTE   Cn1
 BYTE   N06  Dn1
 BYTE   W06
 BYTE   N06
 BYTE   W06
 BYTE   Dn1
 BYTE   W06
 BYTE   Dn1
 BYTE   W06
 BYTE   Cn1
 BYTE   N06  Dn1
 BYTE   W06
 BYTE   N06
 BYTE   W06
 BYTE   Dn1
 BYTE   W06
 BYTE   Dn1
 BYTE   W06
 BYTE   As1
 BYTE   W06
 BYTE   Cn1
 BYTE   W06
 BYTE   Dn1
 BYTE   N06  Dn1
 BYTE   W06
 BYTE   N06
 BYTE   W06
 BYTE   PEND 
// 050   ----------------------------------------
Label_8_01EFC178:
 BYTE   N06  Cn1  v080
 BYTE   W06
 BYTE   Dn1
 BYTE   N06  Dn1
 BYTE   W06
 BYTE   Dn1
 BYTE   N06  Dn1
 BYTE   W12
 BYTE   Cn1
 BYTE   N06  Dn1
 BYTE   W06
 BYTE   N06
 BYTE   W06
 BYTE   Dn1
 BYTE   W06
 BYTE   Dn1
 BYTE   W06
 BYTE   Cn1
 BYTE   N06  Dn1
 BYTE   W06
 BYTE   N06
 BYTE   W06
 BYTE   Dn1
 BYTE   W06
 BYTE   Dn1
 BYTE   W06
 BYTE   As1
 BYTE   W06
 BYTE   Cn1
 BYTE   W06
 BYTE   Dn1
 BYTE   N06  Dn1
 BYTE   W06
 BYTE   N06
 BYTE   W06
 BYTE   PEND 
// 051   ----------------------------------------
 BYTE   PATT
  POIN2 Label_8_01EFC14F
// 052   ----------------------------------------
 BYTE   PATT
  POIN2 Label_8_01EFC178
// 053   ----------------------------------------
 BYTE   PATT
  POIN2 Label_8_01EFC14F
// 054   ----------------------------------------
 BYTE   PATT
  POIN2 Label_8_01EFC178
// 055   ----------------------------------------
 BYTE   PATT
  POIN2 Label_8_01EFC14F
// 056   ----------------------------------------
 BYTE   PATT
  POIN2 Label_8_01EFC178
// 057   ----------------------------------------
 BYTE   PATT
  POIN2 Label_8_01EFC14F
// 058   ----------------------------------------
 BYTE   PATT
  POIN2 Label_8_01EFC178
// 059   ----------------------------------------
 BYTE   PATT
  POIN2 Label_8_01EFC14F
// 060   ----------------------------------------
 BYTE   PATT
  POIN2 Label_8_01EFC178
// 061   ----------------------------------------
 BYTE   PATT
  POIN2 Label_8_01EFC14F
// 062   ----------------------------------------
 BYTE   PATT
  POIN2 Label_8_01EFC178
// 063   ----------------------------------------
 BYTE   PATT
  POIN2 Label_8_01EFC14F
// 064   ----------------------------------------
 BYTE   PATT
  POIN2 Label_8_01EFC178
// 065   ----------------------------------------
 BYTE   PATT
  POIN2 Label_8_01EFC14F
// 066   ----------------------------------------
 BYTE   PATT
  POIN2 Label_8_01EFC178
// 067   ----------------------------------------
 BYTE   PATT
  POIN2 Label_8_01EFC14F
// 068   ----------------------------------------
 BYTE   PATT
  POIN2 Label_8_01EFC178
// 069   ----------------------------------------
 BYTE   PATT
  POIN2 Label_8_01EFC14F
// 070   ----------------------------------------
 BYTE   PATT
  POIN2 Label_8_01EFC178
// 071   ----------------------------------------
 BYTE   PATT
  POIN2 Label_8_01EFC14F
// 072   ----------------------------------------
 BYTE   PATT
  POIN2 Label_8_01EFC178
// 073   ----------------------------------------
 BYTE   PATT
  POIN2 Label_8_01EFC14F
// 074   ----------------------------------------
 BYTE   PATT
  POIN2 Label_8_01EFC178
// 075   ----------------------------------------
 BYTE   PATT
  POIN2 Label_8_01EFC14F
// 076   ----------------------------------------
 BYTE   PATT
  POIN2 Label_8_01EFC178
// 077   ----------------------------------------
 BYTE   N06  Cn1  v080
 BYTE   W06
 BYTE   Dn1
 BYTE   W06
 BYTE   Dn1
 BYTE   N06  Dn1
 BYTE   W12
 BYTE   Cn1
 BYTE   N06  Dn1
 BYTE   W06
 BYTE   N06
 BYTE   W06
 BYTE   Dn1
 BYTE   W06
 BYTE   Dn1
 BYTE   W06
 BYTE   Cn1
 BYTE   N06  Dn1
 BYTE   W06
 BYTE   N06
 BYTE   W06
 BYTE   Dn1
 BYTE   W06
 BYTE   Dn1
 BYTE   W06
 BYTE   Dn1  v100
 BYTE   N06  As1  v080
 BYTE   W06
 BYTE   Cn1
 BYTE   N06  Dn1  v100
 BYTE   W06
 BYTE   N06
 BYTE   N06  Dn1  v080
 BYTE   W06
 BYTE   N06
 BYTE   W06
// 078   ----------------------------------------
 BYTE   Cn1
 BYTE   W06
 BYTE   Dn1
 BYTE   W06
 BYTE   Dn1  v100
 BYTE   N06  Dn1  v080
 BYTE   W06
 BYTE   Dn1  v100
 BYTE   W06
 BYTE   Cn1  v080
 BYTE   N06  Dn1
 BYTE   W06
 BYTE   Dn1  v100
 BYTE   N06  Dn1  v080
 BYTE   W06
 BYTE   Dn1  v100
 BYTE   W06
 BYTE   Dn1  v080
 BYTE   W06
 BYTE   Cn1
 BYTE   N06  Dn1  v080
 BYTE   W06
 BYTE   N06
 BYTE   W12
 BYTE   N06  Dn1  v080
 BYTE   W06
 BYTE   As1
 BYTE   W06
 BYTE   Cn1
 BYTE   W06
 BYTE   N06  Fs1  v080
 BYTE   W06
 BYTE   N06
 BYTE   W06
// 079   ----------------------------------------
 BYTE   Cn1
 BYTE   N06  Dn1  v100
 BYTE   W06
 BYTE   Dn1  v080
 BYTE   W06
 BYTE   N06
 BYTE   W12
 BYTE   Cn1
 BYTE   N06  Fs1  v080
 BYTE   W06
 BYTE   N06  Dn1  v080
 BYTE   W06
 BYTE   Dn1  v100
 BYTE   W06
 BYTE   N06
 BYTE   N06  Fs1  v080
 BYTE   W06
 BYTE   Cn1
 BYTE   N06  Dn1  v100
 BYTE   N06  Fs1  v080
 BYTE   W06
 BYTE   N06
 BYTE   W12
 BYTE   N06
 BYTE   W06
 BYTE   Dn1  v100
 BYTE   N06  As1  v080
 BYTE   W06
 BYTE   Cn1
 BYTE   W06
 BYTE   Fs1
 BYTE   W06
 BYTE   N06
 BYTE   W06
// 080   ----------------------------------------
 BYTE   Cn1
 BYTE   W06
 BYTE   Fs1
 BYTE   W06
 BYTE   Dn1  v100
 BYTE   N06  Fs1  v080
 BYTE   W06
 BYTE   Dn1  v100
 BYTE   W06
 BYTE   Cn1  v080
 BYTE   N06  Dn1  v100
 BYTE   N06  Fs1  v080
 BYTE   W06
 BYTE   Dn1  v100
 BYTE   N06  Fs1  v080
 BYTE   W06
 BYTE   Dn1  v100
 BYTE   W06
 BYTE   Fs1  v080
 BYTE   W06
 BYTE   Cn1
 BYTE   N06  Fs1
 BYTE   W12
 BYTE   As1
 BYTE   W06
 BYTE   Cn1
 BYTE   W06
 BYTE   Fs1
 BYTE   W06
 BYTE   N06
 BYTE   W06
 BYTE   Cn1
 BYTE   W06
 BYTE   As1
 BYTE   W06
// 081   ----------------------------------------
Label_8_01EFC2F9:
 BYTE   N06  Cn1  v080
 BYTE   N06  Fs1
 BYTE   W12
 BYTE   As1
 BYTE   W06
 BYTE   Cn1
 BYTE   W06
 BYTE   N12  Fs1
 BYTE   W12
 BYTE   N06  Cn1
 BYTE   N06  As1
 BYTE   W12
 BYTE   Cn1
 BYTE   N06  Fs1
 BYTE   W12
 BYTE   As1
 BYTE   W06
 BYTE   Cn1
 BYTE   W06
 BYTE   Fs1
 BYTE   W06
 BYTE   N06
 BYTE   W06
 BYTE   Cn1
 BYTE   W06
 BYTE   As1
 BYTE   W06
 BYTE   PEND 
// 082   ----------------------------------------
 BYTE   PATT
  POIN2 Label_8_01EFC2F9
// 083   ----------------------------------------
 BYTE   PATT
  POIN2 Label_8_01EFC2F9
// 084   ----------------------------------------
 BYTE   N06  Cn1  v080
 BYTE   N06  Fs1
 BYTE   W12
 BYTE   Dn1
 BYTE   N06  As1
 BYTE   W06
 BYTE   Cn1
 BYTE   W06
 BYTE   Dn1
 BYTE   N06  Fs1
 BYTE   W06
 BYTE   Dn1
 BYTE   W06
 BYTE   Cn1
 BYTE   N06  As1
 BYTE   W06
 BYTE   Dn1
 BYTE   W06
 BYTE   Cn1
 BYTE   N06  Fs1
 BYTE   W12
 BYTE   As1
 BYTE   W06
 BYTE   Cn1
 BYTE   W06
 BYTE   Dn1
 BYTE   N06  Fs1
 BYTE   W06
 BYTE   N06
 BYTE   W06
 BYTE   Cn1
 BYTE   W06
 BYTE   As1
 BYTE   W06
// 085   ----------------------------------------
Label_8_01EFC350:
 BYTE   N06  Cn1  v080
 BYTE   N06  Fs1
 BYTE   W12
 BYTE   As1
 BYTE   W06
 BYTE   Cn1
 BYTE   W06
 BYTE   Dn1
 BYTE   N06  Fs1
 BYTE   W12
 BYTE   Cn1
 BYTE   N06  As1
 BYTE   W12
 BYTE   Cn1
 BYTE   N06  Fs1
 BYTE   W12
 BYTE   As1
 BYTE   W06
 BYTE   Cn1
 BYTE   W06
 BYTE   Dn1
 BYTE   N06  Fs1
 BYTE   W06
 BYTE   N06
 BYTE   W06
 BYTE   Cn1
 BYTE   W06
 BYTE   As1
 BYTE   W06
 BYTE   PEND 
// 086   ----------------------------------------
 BYTE   PATT
  POIN2 Label_8_01EFC350
// 087   ----------------------------------------
 BYTE   N06  Cn1  v080
 BYTE   N06  Fs1
 BYTE   W12
 BYTE   As1
 BYTE   W06
 BYTE   Cn1
 BYTE   W06
 BYTE   Dn1
 BYTE   N06  Fs1
 BYTE   W12
 BYTE   Cn1
 BYTE   N06  As1
 BYTE   W12
 BYTE   Cn1
 BYTE   N06  Fs1
 BYTE   N06  As1
 BYTE   N06  Gn2
 BYTE   W48
// 088   ----------------------------------------
 BYTE   W24
 BYTE   GoTo
  POIN2 Label_8_01EFBFC3
 BYTE   FINE

//******************************************************//
	ALIGN 4

SeptetteForTheDeadPrincess:
	BYTE	9	// NumTrks
	BYTE	0	// NumBlks
	BYTE	SeptetteForTheDeadPrincess_pri	// Priority
	BYTE	SeptetteForTheDeadPrincess_rev	// Reverb.
    
	POIN2	SeptetteForTheDeadPrincess_grp
    
	POIN2	SeptetteForTheDeadPrincess_001
	POIN2	SeptetteForTheDeadPrincess_002
	POIN2	SeptetteForTheDeadPrincess_003
	POIN2	SeptetteForTheDeadPrincess_004
	POIN2	SeptetteForTheDeadPrincess_005
	POIN2	SeptetteForTheDeadPrincess_006
	POIN2	SeptetteForTheDeadPrincess_007
	POIN2	SeptetteForTheDeadPrincess_008
	POIN2	SeptetteForTheDeadPrincess_009

	
