//Event file generated from Sappy .s format.
	#include "MPlayDef.event"

	#define	GameOverBook1_grp  voicegroup000
	#define	GameOverBook1_pri  0
	#define	GameOverBook1_rev  0
	#define	GameOverBook1_mvl  95
	#define	GameOverBook1_key  0
	#define	GameOverBook1_tbs  1
	#define	GameOverBook1_exg  0
	#define	GameOverBook1_cmp  1

	// .rodata
	//	GameOverBook1
	ALIGN 4


//**************** Track 1 (Midi-Chn.0) ****************//

GameOverBook1_001:
// 000   ----------------------------------------
 BYTE   KEYSH   GameOverBook1_key+0
 BYTE   TEMPO   60*GameOverBook1_tbs/2
 BYTE   VOICE   109
 BYTE   VOL   20*GameOverBook1_mvl/mxv
 BYTE   PAN   c_v+0
 BYTE   W48
 BYTE   TEMPO   60*GameOverBook1_tbs/2
 BYTE   W01
 BYTE   TEMPO   60*GameOverBook1_tbs/2
 BYTE   W01
 BYTE   TEMPO   60*GameOverBook1_tbs/2
 BYTE   W01
 BYTE   TEMPO   60*GameOverBook1_tbs/2
 BYTE   W01
 BYTE   TEMPO   60*GameOverBook1_tbs/2
 BYTE   W01
 BYTE   TEMPO   60*GameOverBook1_tbs/2
 BYTE   W01
 BYTE   TEMPO   60*GameOverBook1_tbs/2
 BYTE   W01
 BYTE   TEMPO   60*GameOverBook1_tbs/2
 BYTE   W01
 BYTE   TEMPO   60*GameOverBook1_tbs/2
 BYTE   W01
 BYTE   TEMPO   60*GameOverBook1_tbs/2
 BYTE   W01
 BYTE   TEMPO   58*GameOverBook1_tbs/2
 BYTE   W01
 BYTE   TEMPO   58*GameOverBook1_tbs/2
 BYTE   W01
 BYTE   TEMPO   58*GameOverBook1_tbs/2
 BYTE   W01
 BYTE   TEMPO   58*GameOverBook1_tbs/2
 BYTE   W01
 BYTE   TEMPO   58*GameOverBook1_tbs/2
 BYTE   W01
 BYTE   TEMPO   58*GameOverBook1_tbs/2
 BYTE   W01
 BYTE   TEMPO   58*GameOverBook1_tbs/2
 BYTE   W01
 BYTE   TEMPO   58*GameOverBook1_tbs/2
 BYTE   W01
 BYTE   TEMPO   58*GameOverBook1_tbs/2
 BYTE   W01
 BYTE   TEMPO   58*GameOverBook1_tbs/2
 BYTE   W01
 BYTE   TEMPO   58*GameOverBook1_tbs/2
 BYTE   W01
 BYTE   TEMPO   58*GameOverBook1_tbs/2
 BYTE   W01
 BYTE   TEMPO   58*GameOverBook1_tbs/2
 BYTE   W01
 BYTE   TEMPO   58*GameOverBook1_tbs/2
 BYTE   W01
 BYTE   TEMPO   58*GameOverBook1_tbs/2
 BYTE   W01
 BYTE   TEMPO   58*GameOverBook1_tbs/2
 BYTE   W01
 BYTE   TEMPO   58*GameOverBook1_tbs/2
 BYTE   W01
 BYTE   TEMPO   58*GameOverBook1_tbs/2
 BYTE   W01
 BYTE   TEMPO   58*GameOverBook1_tbs/2
 BYTE   W01
 BYTE   TEMPO   58*GameOverBook1_tbs/2
 BYTE   W01
 BYTE   TEMPO   58*GameOverBook1_tbs/2
 BYTE   W01
 BYTE   TEMPO   56*GameOverBook1_tbs/2
 BYTE   W01
 BYTE   TEMPO   56*GameOverBook1_tbs/2
 BYTE   W01
 BYTE   TEMPO   56*GameOverBook1_tbs/2
 BYTE   W01
 BYTE   TEMPO   56*GameOverBook1_tbs/2
 BYTE   W01
 BYTE   TEMPO   56*GameOverBook1_tbs/2
 BYTE   W01
 BYTE   TEMPO   56*GameOverBook1_tbs/2
 BYTE   W01
 BYTE   TEMPO   56*GameOverBook1_tbs/2
 BYTE   W01
 BYTE   TEMPO   56*GameOverBook1_tbs/2
 BYTE   W01
 BYTE   TEMPO   56*GameOverBook1_tbs/2
 BYTE   W01
 BYTE   TEMPO   56*GameOverBook1_tbs/2
 BYTE   W01
 BYTE   TEMPO   56*GameOverBook1_tbs/2
 BYTE   W01
 BYTE   TEMPO   56*GameOverBook1_tbs/2
 BYTE   W01
 BYTE   TEMPO   56*GameOverBook1_tbs/2
 BYTE   W01
 BYTE   TEMPO   56*GameOverBook1_tbs/2
 BYTE   W01
 BYTE   TEMPO   56*GameOverBook1_tbs/2
 BYTE   W01
 BYTE   TEMPO   56*GameOverBook1_tbs/2
 BYTE   W01
 BYTE   TEMPO   56*GameOverBook1_tbs/2
 BYTE   W01
// 001   ----------------------------------------
 BYTE   TEMPO   56*GameOverBook1_tbs/2
 BYTE   N24  Cs5  v104
 BYTE   W01
 BYTE   TEMPO   56*GameOverBook1_tbs/2
 BYTE   W01
 BYTE   TEMPO   56*GameOverBook1_tbs/2
 BYTE   W01
 BYTE   TEMPO   56*GameOverBook1_tbs/2
 BYTE   W01
 BYTE   TEMPO   54*GameOverBook1_tbs/2
 BYTE   W01
 BYTE   TEMPO   54*GameOverBook1_tbs/2
 BYTE   W01
 BYTE   TEMPO   54*GameOverBook1_tbs/2
 BYTE   W01
 BYTE   TEMPO   54*GameOverBook1_tbs/2
 BYTE   W01
 BYTE   TEMPO   54*GameOverBook1_tbs/2
 BYTE   W01
 BYTE   TEMPO   54*GameOverBook1_tbs/2
 BYTE   W01
 BYTE   TEMPO   54*GameOverBook1_tbs/2
 BYTE   W01
 BYTE   TEMPO   54*GameOverBook1_tbs/2
 BYTE   W01
 BYTE   TEMPO   54*GameOverBook1_tbs/2
 BYTE   W01
 BYTE   TEMPO   54*GameOverBook1_tbs/2
 BYTE   W01
 BYTE   TEMPO   54*GameOverBook1_tbs/2
 BYTE   W01
 BYTE   TEMPO   54*GameOverBook1_tbs/2
 BYTE   W01
 BYTE   TEMPO   54*GameOverBook1_tbs/2
 BYTE   W01
 BYTE   TEMPO   54*GameOverBook1_tbs/2
 BYTE   W01
 BYTE   TEMPO   54*GameOverBook1_tbs/2
 BYTE   W01
 BYTE   TEMPO   54*GameOverBook1_tbs/2
 BYTE   W01
 BYTE   TEMPO   54*GameOverBook1_tbs/2
 BYTE   W01
 BYTE   TEMPO   54*GameOverBook1_tbs/2
 BYTE   W01
 BYTE   TEMPO   54*GameOverBook1_tbs/2
 BYTE   W01
 BYTE   TEMPO   54*GameOverBook1_tbs/2
 BYTE   W01
 BYTE   TEMPO   54*GameOverBook1_tbs/2
 BYTE   W01
 BYTE   TEMPO   52*GameOverBook1_tbs/2
 BYTE   W01
 BYTE   TEMPO   52*GameOverBook1_tbs/2
 BYTE   W01
 BYTE   TEMPO   52*GameOverBook1_tbs/2
 BYTE   N11  Cn5
 BYTE   W01
 BYTE   TEMPO   52*GameOverBook1_tbs/2
 BYTE   W01
 BYTE   TEMPO   52*GameOverBook1_tbs/2
 BYTE   W01
 BYTE   TEMPO   52*GameOverBook1_tbs/2
 BYTE   W01
 BYTE   TEMPO   52*GameOverBook1_tbs/2
 BYTE   W01
 BYTE   TEMPO   52*GameOverBook1_tbs/2
 BYTE   W01
 BYTE   TEMPO   52*GameOverBook1_tbs/2
 BYTE   W01
 BYTE   TEMPO   52*GameOverBook1_tbs/2
 BYTE   W01
 BYTE   TEMPO   52*GameOverBook1_tbs/2
 BYTE   W01
 BYTE   TEMPO   52*GameOverBook1_tbs/2
 BYTE   W01
 BYTE   TEMPO   52*GameOverBook1_tbs/2
 BYTE   W01
 BYTE   TEMPO   52*GameOverBook1_tbs/2
 BYTE   W01
 BYTE   TEMPO   52*GameOverBook1_tbs/2
 BYTE   As4
 BYTE   W01
 BYTE   TEMPO   52*GameOverBook1_tbs/2
 BYTE   W01
 BYTE   TEMPO   52*GameOverBook1_tbs/2
 BYTE   W01
 BYTE   TEMPO   52*GameOverBook1_tbs/2
 BYTE   W01
 BYTE   TEMPO   52*GameOverBook1_tbs/2
 BYTE   W01
 BYTE   TEMPO   52*GameOverBook1_tbs/2
 BYTE   W01
 BYTE   TEMPO   52*GameOverBook1_tbs/2
 BYTE   W01
 BYTE   TEMPO   50*GameOverBook1_tbs/2
 BYTE   W01
 BYTE   TEMPO   50*GameOverBook1_tbs/2
 BYTE   W01
 BYTE   TEMPO   50*GameOverBook1_tbs/2
 BYTE   W01
 BYTE   TEMPO   50*GameOverBook1_tbs/2
 BYTE   W01
 BYTE   TEMPO   50*GameOverBook1_tbs/2
 BYTE   W01
 BYTE   TEMPO   50*GameOverBook1_tbs/2
 BYTE   TIE  Cn5
 BYTE   W01
 BYTE   TEMPO   50*GameOverBook1_tbs/2
 BYTE   W01
 BYTE   TEMPO   50*GameOverBook1_tbs/2
 BYTE   W01
 BYTE   TEMPO   50*GameOverBook1_tbs/2
 BYTE   W01
 BYTE   TEMPO   50*GameOverBook1_tbs/2
 BYTE   W01
 BYTE   TEMPO   50*GameOverBook1_tbs/2
 BYTE   W01
 BYTE   TEMPO   50*GameOverBook1_tbs/2
 BYTE   W01
 BYTE   TEMPO   50*GameOverBook1_tbs/2
 BYTE   W01
 BYTE   TEMPO   50*GameOverBook1_tbs/2
 BYTE   W01
 BYTE   TEMPO   50*GameOverBook1_tbs/2
 BYTE   W01
 BYTE   TEMPO   50*GameOverBook1_tbs/2
 BYTE   W01
 BYTE   TEMPO   50*GameOverBook1_tbs/2
 BYTE   W01
 BYTE   TEMPO   50*GameOverBook1_tbs/2
 BYTE   W01
 BYTE   TEMPO   50*GameOverBook1_tbs/2
 BYTE   W01
 BYTE   TEMPO   50*GameOverBook1_tbs/2
 BYTE   W01
 BYTE   TEMPO   50*GameOverBook1_tbs/2
 BYTE   W01
 BYTE   TEMPO   48*GameOverBook1_tbs/2
 BYTE   W01
 BYTE   TEMPO   48*GameOverBook1_tbs/2
 BYTE   W01
 BYTE   TEMPO   48*GameOverBook1_tbs/2
 BYTE   W01
 BYTE   TEMPO   48*GameOverBook1_tbs/2
 BYTE   W01
 BYTE   TEMPO   48*GameOverBook1_tbs/2
 BYTE   W01
 BYTE   TEMPO   48*GameOverBook1_tbs/2
 BYTE   W01
 BYTE   TEMPO   48*GameOverBook1_tbs/2
 BYTE   W01
 BYTE   TEMPO   48*GameOverBook1_tbs/2
 BYTE   W01
 BYTE   TEMPO   48*GameOverBook1_tbs/2
 BYTE   W01
 BYTE   TEMPO   48*GameOverBook1_tbs/2
 BYTE   W01
 BYTE   TEMPO   48*GameOverBook1_tbs/2
 BYTE   W01
 BYTE   TEMPO   48*GameOverBook1_tbs/2
 BYTE   W01
 BYTE   TEMPO   48*GameOverBook1_tbs/2
 BYTE   W17
// 002   ----------------------------------------
 BYTE   W52
 BYTE   EOT
 BYTE   W44
// 003   ----------------------------------------
 BYTE   W96
// 004   ----------------------------------------
 BYTE   W96
// 005   ----------------------------------------
 BYTE   W96
// 006   ----------------------------------------
 BYTE   W54
 BYTE   FINE

//**************** Track 2 (Midi-Chn.1) ****************//

GameOverBook1_002:
// 000   ----------------------------------------
 BYTE   KEYSH   GameOverBook1_key+0
 BYTE   VOICE   57
 BYTE   VOL   35*GameOverBook1_mvl/mxv
 BYTE   PAN   c_v+25
 BYTE   N11  Ds3  v104
 BYTE   W12
 BYTE   Gs3
 BYTE   W12
 BYTE   N05  Gn3
 BYTE   W06
 BYTE   Fn3
 BYTE   W06
 BYTE   Ds3
 BYTE   W06
 BYTE   Cs3
 BYTE   W06
 BYTE   N22  Cn3
 BYTE   W24
 BYTE   N11  As2
 BYTE   W12
 BYTE   Gs2
 BYTE   W12
// 001   ----------------------------------------
 BYTE   TIE
 BYTE   W96
// 002   ----------------------------------------
 BYTE   W05
 BYTE   EOT
 BYTE   W01
 BYTE   N11  Gs2  v092
 BYTE   W12
 BYTE   Ds3
 BYTE   W12
 BYTE   Gs3
 BYTE   W12
 BYTE   N10  Ds3
 BYTE   W54
// 003   ----------------------------------------
 BYTE   W96
// 004   ----------------------------------------
 BYTE   W96
// 005   ----------------------------------------
 BYTE   W96
// 006   ----------------------------------------
 BYTE   W54
 BYTE   FINE

//**************** Track 3 (Midi-Chn.2) ****************//

GameOverBook1_003:
// 000   ----------------------------------------
 BYTE   KEYSH   GameOverBook1_key+0
 BYTE   VOICE   109
 BYTE   VOL   47*GameOverBook1_mvl/mxv
 BYTE   PAN   c_v-25
 BYTE   N23  Gs1  v104
 BYTE   W24
 BYTE   Cs2
 BYTE   W24
 BYTE   N44  Ds2
 BYTE   W48
// 001   ----------------------------------------
 BYTE   TIE  Gs1
 BYTE   W96
// 002   ----------------------------------------
 BYTE   W52
 BYTE   W01
 BYTE   EOT
 BYTE   W42
 BYTE   W01
// 003   ----------------------------------------
 BYTE   W96
// 004   ----------------------------------------
 BYTE   W96
// 005   ----------------------------------------
 BYTE   W96
// 006   ----------------------------------------
 BYTE   W54
 BYTE   FINE

//**************** Track 4 (Midi-Chn.3) ****************//

GameOverBook1_004:
// 000   ----------------------------------------
 BYTE   KEYSH   GameOverBook1_key+0
 BYTE   VOICE   109
 BYTE   VOL   50*GameOverBook1_mvl/mxv
 BYTE   PAN   c_v-14
 BYTE   N22  Cn3  v104
 BYTE   W23
 BYTE   N23  Cs3
 BYTE   W24
 BYTE   Cn3
 BYTE   W24
 BYTE   As2
 BYTE   W24
 BYTE   TIE  Cn3  v096
 BYTE   W01
// 001   ----------------------------------------
 BYTE   W96
// 002   ----------------------------------------
 BYTE   W52
 BYTE   EOT
 BYTE   W44
// 003   ----------------------------------------
 BYTE   W96
// 004   ----------------------------------------
 BYTE   W96
// 005   ----------------------------------------
 BYTE   W96
// 006   ----------------------------------------
 BYTE   W54
 BYTE   FINE

//**************** Track 5 (Midi-Chn.4) ****************//

GameOverBook1_005:
// 000   ----------------------------------------
 BYTE   KEYSH   GameOverBook1_key+0
 BYTE   VOICE   109
 BYTE   VOL   52*GameOverBook1_mvl/mxv
 BYTE   PAN   c_v+14
 BYTE   N23  Ds3  v104
 BYTE   W24
 BYTE   Fn3
 BYTE   W24
 BYTE   Ds3
 BYTE   W24
 BYTE   N23
 BYTE   W24
// 001   ----------------------------------------
 BYTE   TIE  Ds3  v096
 BYTE   W96
// 002   ----------------------------------------
 BYTE   W52
 BYTE   W01
 BYTE   EOT
 BYTE   W42
 BYTE   W01
// 003   ----------------------------------------
 BYTE   W96
// 004   ----------------------------------------
 BYTE   W96
// 005   ----------------------------------------
 BYTE   W96
// 006   ----------------------------------------
 BYTE   W54
 BYTE   FINE

//**************** Track 6 (Midi-Chn.5) ****************//

GameOverBook1_006:
// 000   ----------------------------------------
 BYTE   KEYSH   GameOverBook1_key+0
 BYTE   VOICE   109
 BYTE   VOL   55*GameOverBook1_mvl/mxv
 BYTE   PAN   c_v+25
 BYTE   N23  Gs3  v104
 BYTE   W24
 BYTE   N23
 BYTE   W24
 BYTE   N23
 BYTE   W24
 BYTE   Gn3
 BYTE   W24
// 001   ----------------------------------------
 BYTE   TIE  Gs3  v096
 BYTE   W96
// 002   ----------------------------------------
 BYTE   W52
 BYTE   EOT
 BYTE   W44
// 003   ----------------------------------------
 BYTE   W96
// 004   ----------------------------------------
 BYTE   W96
// 005   ----------------------------------------
 BYTE   W96
// 006   ----------------------------------------
 BYTE   W54
 BYTE   FINE

//**************** Track 7 (Midi-Chn.6) ****************//

GameOverBook1_007:
// 000   ----------------------------------------
 BYTE   KEYSH   GameOverBook1_key+0
 BYTE   VOICE   109
 BYTE   VOL   53*GameOverBook1_mvl/mxv
 BYTE   PAN   c_v+0
 BYTE   W96
// 001   ----------------------------------------
 BYTE   N24  Cs4  v104
 BYTE   W24
 BYTE   W03
 BYTE   N11  Cn4
 BYTE   W12
 BYTE   As3
 BYTE   W12
 BYTE   TIE  Cn4
 BYTE   W44
 BYTE   W01
// 002   ----------------------------------------
 BYTE   W52
 BYTE   W01
 BYTE   EOT
 BYTE   W01
 BYTE   VOICE   57
 BYTE   VOL   35*GameOverBook1_mvl/mxv
 BYTE   PAN   c_v+25
 BYTE   N11  Gs2  v092
 BYTE   W12
 BYTE   Ds3
 BYTE   W12
 BYTE   Gs3
 BYTE   W12
 BYTE   Ds3
 BYTE   W06
// 003   ----------------------------------------
 BYTE   W06
 BYTE   Gs2
 BYTE   W12
 BYTE   Ds3
 BYTE   W12
 BYTE   Gs3
 BYTE   W12
 BYTE   Ds3
 BYTE   W12
 BYTE   Gs2
 BYTE   W12
 BYTE   Ds3
 BYTE   W12
 BYTE   Gs3
 BYTE   W12
 BYTE   Ds3
 BYTE   W06
// 004   ----------------------------------------
 BYTE   W06
 BYTE   Gs2
 BYTE   W12
 BYTE   Ds3
 BYTE   W12
 BYTE   Gs3
 BYTE   W12
 BYTE   Ds3
 BYTE   W13
 BYTE   Gs2
 BYTE   W12
 BYTE   Ds3
 BYTE   W12
 BYTE   Gs3
 BYTE   W12
 BYTE   Ds3
 BYTE   W05
// 005   ----------------------------------------
 BYTE   W07
 BYTE   Gs2
 BYTE   W12
 BYTE   Ds3
 BYTE   W12
 BYTE   Gs3
 BYTE   W12
 BYTE   Ds3
 BYTE   W12
 BYTE   Gs2
 BYTE   W12
 BYTE   Ds3
 BYTE   W12
 BYTE   Gs3
 BYTE   W12
 BYTE   Ds3
 BYTE   W05
// 006   ----------------------------------------
 BYTE   W07
 BYTE   Gs2
 BYTE   W12
 BYTE   Ds3
 BYTE   W12
 BYTE   Gs3
 BYTE   W12
 BYTE   Ds3
 BYTE   W11
 BYTE   FINE

//**************** Track 8 (Midi-Chn.7) ****************//

GameOverBook1_008:
// 000   ----------------------------------------
 BYTE   KEYSH   GameOverBook1_key+0
 BYTE   VOICE   57
 BYTE   VOL   70*GameOverBook1_mvl/mxv
 BYTE   PAN   c_v-14
 BYTE   N11  Ds3  v104
 BYTE   W12
 BYTE   Gs3
 BYTE   W12
 BYTE   N05  Gn3
 BYTE   W06
 BYTE   Fn3
 BYTE   W06
 BYTE   Ds3
 BYTE   W06
 BYTE   Cs3
 BYTE   W06
 BYTE   N22  Cn3
 BYTE   W24
 BYTE   N11  As2
 BYTE   W12
 BYTE   Gs2
 BYTE   W12
// 001   ----------------------------------------
 BYTE   TIE
 BYTE   W96
// 002   ----------------------------------------
 BYTE   W05
 BYTE   EOT
 BYTE   W01
 BYTE   N11  Gs2  v092
 BYTE   W12
 BYTE   Ds3
 BYTE   W12
 BYTE   Gs3
 BYTE   W12
 BYTE   Ds3
 BYTE   W12
 BYTE   Gs2
 BYTE   W12
 BYTE   Ds3
 BYTE   W12
 BYTE   Gs3
 BYTE   W12
 BYTE   Ds3
 BYTE   W06
// 003   ----------------------------------------
Label_7_010A25FE:
 BYTE   W06
 BYTE   N11  Gs2  v092
 BYTE   W12
 BYTE   Ds3
 BYTE   W12
 BYTE   Gs3
 BYTE   W12
 BYTE   Ds3
 BYTE   W12
 BYTE   Gs2
 BYTE   W12
 BYTE   Ds3
 BYTE   W12
 BYTE   Gs3
 BYTE   W12
 BYTE   Ds3
 BYTE   W06
 BYTE   PEND 
 BYTE   PATT
  POIN2 Label_7_010A25FE
 BYTE   PATT
  POIN2 Label_7_010A25FE
// 004   ----------------------------------------
 BYTE   W06
 BYTE   N11  Gs2  v092
 BYTE   W12
 BYTE   Ds3
 BYTE   W12
 BYTE   Gs3
 BYTE   W12
 BYTE   Ds3
 BYTE   W12
 BYTE   FINE

//******************************************************//
	ALIGN 4

GameOverBook1:
	BYTE	8	// NumTrks
	BYTE	0	// NumBlks
	BYTE	GameOverBook1_pri	// Priority
	BYTE	GameOverBook1_rev	// Reverb.
    
	POIN2	GameOverBook1_grp
    
	POIN2	GameOverBook1_001
	POIN2	GameOverBook1_002
	POIN2	GameOverBook1_003
	POIN2	GameOverBook1_004
	POIN2	GameOverBook1_005
	POIN2	GameOverBook1_006
	POIN2	GameOverBook1_007
	POIN2	GameOverBook1_008

	
